<?xml version="1.0" encoding="UTF-8" standalone="no"?>
<!-- Created with Inkscape (http://www.inkscape.org/) -->

<svg
   xmlns:dc="http://purl.org/dc/elements/1.1/"
   xmlns:cc="http://creativecommons.org/ns#"
   xmlns:rdf="http://www.w3.org/1999/02/22-rdf-syntax-ns#"
   xmlns:svg="http://www.w3.org/2000/svg"
   xmlns="http://www.w3.org/2000/svg"
   xmlns:sodipodi="http://sodipodi.sourceforge.net/DTD/sodipodi-0.dtd"
   xmlns:inkscape="http://www.inkscape.org/namespaces/inkscape"
   id="svg3232"
   version="1.1"
   inkscape:version="0.48.4 r9943 custom"
   width="612.00012"
   height="68"
   xml:space="preserve"
   sodipodi:docname="logos.svg"><metadata
     id="metadata3238"><rdf:RDF><cc:Work
         rdf:about=""><dc:format>image/svg+xml</dc:format><dc:type
           rdf:resource="http://purl.org/dc/dcmitype/StillImage" /><dc:title /></cc:Work></rdf:RDF></metadata><defs
     id="defs3236"><clipPath
       clipPathUnits="userSpaceOnUse"
       id="clipPath12066"><path
         inkscape:connector-curvature="0"
         d="m 150.656,55.489 -124.11,0 0,-38.096 124.11,0 0,38.096 z"
         id="path12068" /></clipPath></defs><sodipodi:namedview
     pagecolor="#ffffff"
     bordercolor="#666666"
     borderopacity="1"
     objecttolerance="10"
     gridtolerance="10"
     guidetolerance="10"
     inkscape:pageopacity="0"
     inkscape:pageshadow="2"
     inkscape:window-width="1440"
     inkscape:window-height="852"
     id="namedview3234"
     showgrid="false"
     inkscape:zoom="2.3493151"
     inkscape:cx="350.97085"
     inkscape:cy="-17.078689"
     inkscape:window-x="0"
     inkscape:window-y="22"
     inkscape:window-maximized="0"
     inkscape:current-layer="g3240"
     fit-margin-top="0"
     fit-margin-left="0"
     fit-margin-right="0"
     fit-margin-bottom="0"
     showguides="false"><inkscape:grid
       type="xygrid"
       id="grid5914"
       empspacing="1"
       visible="true"
       enabled="true"
       snapvisiblegridlinesonly="true"
       originx="1.0276526e-08px"
       originy="1.0134025e-06px" /></sodipodi:namedview><g
     id="g3240"
     inkscape:groupmode="layer"
     inkscape:label="Arts Council"
     transform="matrix(1.25,0,0,-1.25,-0.002491,67.997504)"><rect
       style="opacity:0.8926829;color:#000000;fill:none;stroke:none;stroke-width:7.08661413;marker:none;visibility:visible;display:inline;overflow:visible;enable-background:accumulate"
       id="rect4594"
       width="202.39999"
       height="54.400002"
       x="0.0019927979"
       y="-54.398003"
       transform="scale(1,-1)" /><g
       id="g3242"
       transform="matrix(0.0708213,0,0,0.0708213,0.48643071,0.08644752)"><path
         d="m 129.91,174.16 -12.137,0 0,-74.9803 43.825,0 0,12.9103 -29.707,0 0,62.07 -1.981,0"
         style="fill:#ffffff;fill-opacity:1;fill-rule:nonzero;stroke:none"
         id="path3244"
         inkscape:connector-curvature="0" /><path
         d="m 217.016,157.078 c 4.679,-4.629 7.324,-12.027 7.324,-20.351 0,-12.5 -5.613,-25.782 -21.43,-25.782 -15.808,0 -21.472,13.282 -21.472,25.782 0,8.324 2.695,15.722 7.351,20.351 3.691,3.652 8.434,5.512 14.121,5.488 5.66,0.024 10.418,-1.836 14.106,-5.488 m -50.278,-20.351 c 0,-23.512 14.168,-38.7114 36.172,-38.7114 21.985,0 36.188,15.1994 36.188,38.7114 0,23.144 -14.547,38.711 -36.188,38.711 -21.644,0 -36.172,-15.567 -36.172,-38.711"
         style="fill:#ffffff;fill-opacity:1;fill-rule:nonzero;stroke:none"
         id="path3246"
         inkscape:connector-curvature="0" /><path
         d="m 297.633,174.211 -56.317,0 0,-12.91 22.086,0 0,-62.0744 14.121,0 0,62.0744 21.11,0 0,12.91 -1,0"
         style="fill:#ffffff;fill-opacity:1;fill-rule:nonzero;stroke:none"
         id="path3248"
         inkscape:connector-curvature="0" /><path
         d="m 361.762,174.211 -54.864,0 0,-12.91 20.618,0 0,-62.0744 14.125,0 0,62.0744 22.086,0 0,12.91 -1.965,0"
         style="fill:#ffffff;fill-opacity:1;fill-rule:nonzero;stroke:none"
         id="path3250"
         inkscape:connector-curvature="0" /><path
         d="m 413.871,174.211 -41.781,0 0,-74.9844 43.75,0 0,12.9144 -29.617,0 0,19.468 26.984,0 0,12.895 -26.984,0 0,16.797 29.617,0 0,12.91 -1.969,0"
         style="fill:#ffffff;fill-opacity:1;fill-rule:nonzero;stroke:none"
         id="path3252"
         inkscape:connector-curvature="0" /><path
         d="m 451.121,161.301 c 4.602,0 12.301,-1.098 12.301,-8.496 0,-5.727 -5.039,-9.106 -13.387,-9.106 l -6.723,0 0,17.602 7.809,0 z m -19.953,12.91 -1.98,0 0,-74.9844 14.124,0 0,31.5824 4.133,0 c 5.321,0 7.465,0 10.129,-5.782 l 11.418,-25.8004 16.008,0 -14.809,31.1564 c -1.445,2.832 -2.73,4.566 -4.289,5.894 7.383,2.817 12.219,8.965 12.219,16.758 0,18.653 -14.918,21.176 -29.535,21.176 l -17.418,0"
         style="fill:#ffffff;fill-opacity:1;fill-rule:nonzero;stroke:none"
         id="path3254"
         inkscape:connector-curvature="0" /><path
         d="m 549.516,174.211 -12.961,0 c 0,0 -16.844,-25.941 -19.617,-30.195 -2.801,4.214 -20.075,30.195 -20.075,30.195 l -16.664,0 c 0,0 28.848,-42.91 29.485,-43.867 l 0,-31.1174 14.109,0 0,31.1174 c 0.715,0.957 29.453,43.867 29.453,43.867 l -3.73,0"
         style="fill:#ffffff;fill-opacity:1;fill-rule:nonzero;stroke:none"
         id="path3256"
         inkscape:connector-curvature="0" /><path
         d="m 628.418,174.211 -39.742,0 0,-74.9844 14.113,0 0,32.3824 26.395,0 0,12.895 -26.395,0 0,16.797 27.602,0 0,12.91 -1.973,0"
         style="fill:#ffffff;fill-opacity:1;fill-rule:nonzero;stroke:none"
         id="path3258"
         inkscape:connector-curvature="0" /><path
         d="m 701.016,174.211 -12.145,0 0,-42.246 c 0,-14.555 -4.723,-21.035 -15.414,-21.035 -10.687,0 -15.43,6.48 -15.43,21.035 l 0,42.246 -14.136,0 0,-43.559 c 0,-20.742 10.781,-32.6364 29.566,-32.6364 18.793,0 29.535,11.8944 29.535,32.6364 l 0,43.559 -1.976,0"
         style="fill:#ffffff;fill-opacity:1;fill-rule:nonzero;stroke:none"
         id="path3260"
         inkscape:connector-curvature="0" /><path
         d="m 776.383,174.211 -12.16,0 0,-51.84 c -5.528,10.063 -28.442,51.84 -28.442,51.84 l -16.98,0 0,-74.9844 14.129,0 0,53.1094 c 5.57,-10.078 29.215,-53.1094 29.215,-53.1094 l 16.179,0 0,74.9844 -1.941,0"
         style="fill:#ffffff;fill-opacity:1;fill-rule:nonzero;stroke:none"
         id="path3262"
         inkscape:connector-curvature="0" /><path
         d="m 817.488,161.301 c 14.344,0 24.004,-9.746 24.004,-24.36 0,-16.699 -8.289,-24.8 -25.207,-24.8 l -8.723,0 0,49.16 9.926,0 z m -22.074,12.91 -2,0 0,-74.9844 22.973,0 c 25.289,0 39.828,13.8864 39.828,38.1444 0,21.699 -16.379,36.84 -39.828,36.84 l -20.973,0"
         style="fill:#ffffff;fill-opacity:1;fill-rule:nonzero;stroke:none"
         id="path3264"
         inkscape:connector-curvature="0" /><path
         d="m 909.48,174.211 -41.75,0 0,-74.9844 43.719,0 0,12.9144 -29.617,0 0,19.468 26.996,0 0,12.895 -26.996,0 0,16.797 29.617,0 0,12.91 -1.969,0"
         style="fill:#ffffff;fill-opacity:1;fill-rule:nonzero;stroke:none"
         id="path3266"
         inkscape:connector-curvature="0" /><path
         d="m 948.887,161.301 c 14.351,0 23.984,-9.746 23.984,-24.36 0,-16.699 -8.254,-24.8 -25.215,-24.8 l -8.718,0 0,49.16 9.949,0 z m -22.117,12.91 -1.946,0 0,-74.9844 22.942,0 c 25.324,0 39.828,13.8864 39.828,38.1444 0,21.699 -16.387,36.84 -39.828,36.84 l -20.996,0"
         style="fill:#ffffff;fill-opacity:1;fill-rule:nonzero;stroke:none"
         id="path3268"
         inkscape:connector-curvature="0" /><path
         d="m 626.973,454.973 0.367,-11.09 -20.36,5.199 -0.027,0.113 20.02,5.778 z m 18.832,5.851 -0.399,11.653 -47.98,-17.219 0.484,-12.59 49.047,-14.453 -0.41,11.023 -10.922,3.035 -0.551,15.133 10.731,3.418"
         style="fill:#ffffff;fill-opacity:1;fill-rule:nonzero;stroke:none"
         id="path3270"
         inkscape:connector-curvature="0" /><path
         d="m 613.004,508.762 1.074,3.328 c 1.879,5.785 5.984,5.121 7.895,4.515 3.332,-1.054 5.41,-4.156 4.078,-8.328 l -1.153,-3.351 -11.894,3.836 z m 34.988,-22.899 3.524,10.875 -18.657,6.043 c 1.266,3.965 1.75,5.41 8.633,5.153 l 13.531,-0.422 3.672,11.371 -16.593,0.121 c -6.102,0.051 -8.348,-0.668 -9.844,-3.867 l -0.145,0.031 c 1.117,9.5 -6.414,12.203 -8.328,12.844 -8.551,2.758 -13.949,-2.606 -16.426,-10.246 l -5.55,-16.871 46.183,-15.032"
         style="fill:#ffffff;fill-opacity:1;fill-rule:nonzero;stroke:none"
         id="path3272"
         inkscape:connector-curvature="0" /><path
         d="m 668.121,533.75 6.563,9.336 -32.571,22.82 6.032,8.61 -7.176,5.019 -18.68,-26.629 7.18,-5.023 6.078,8.664 32.574,-22.797"
         style="fill:#ffffff;fill-opacity:1;fill-rule:nonzero;stroke:none"
         id="path3274"
         inkscape:connector-curvature="0" /><path
         d="m 677.543,612.629 c -3.77,-2.008 -6.426,-3.195 -9.805,-6.067 -12.445,-10.429 -4.961,-20.289 -3.972,-21.394 11.093,-13.313 22.796,2.512 28.851,-4.652 2.535,-3.036 1.035,-6.676 -1.734,-8.993 -3.266,-2.761 -6.586,-3.394 -10.106,-4.546 l 5.614,-7.665 c 2,0.864 6.828,3.079 11.324,6.872 7.422,6.222 9.437,15.16 3.512,22.199 -11.067,13.199 -23.067,-2.235 -28.778,4.539 -2.297,2.762 -1.261,5.844 1.582,8.191 2.336,1.989 5.996,3.578 8.938,4.262 l -5.426,7.254"
         style="fill:#ffffff;fill-opacity:1;fill-rule:nonzero;stroke:none"
         id="path3276"
         inkscape:connector-curvature="0" /><path
         d="m 765.371,647.34 c -1.988,0.359 -5.918,1.082 -12.976,-0.578 -9.614,-2.231 -19.68,-11.801 -15.657,-29.133 3.473,-14.996 14.77,-22.574 27.719,-19.586 6.027,1.398 9.691,3.398 11.438,4.434 l -2.696,9.812 c -0.969,-0.746 -3.672,-3.519 -9.09,-4.762 -7.058,-1.636 -13.832,3.379 -15.961,12.575 -2.234,9.527 1.133,16.695 8.532,18.414 5.113,1.175 8.398,0.054 10.312,-0.485 l -1.621,9.309"
         style="fill:#ffffff;fill-opacity:1;fill-rule:nonzero;stroke:none"
         id="path3278"
         inkscape:connector-curvature="0" /><path
         d="m 802.543,625.57 c 1.172,9.227 4.375,16.489 10.898,15.7 6.579,-0.817 7.997,-8.614 6.864,-17.852 -1.149,-9.254 -4.422,-16.504 -10.95,-15.68 -6.566,0.785 -7.933,8.59 -6.812,17.832 m -11.598,1.45 c -1.715,-14.165 3.524,-25.731 17.395,-27.434 13.863,-1.719 21.797,8.211 23.539,22.383 1.754,14.16 -3.527,25.746 -17.445,27.418 -13.848,1.754 -21.735,-8.211 -23.489,-22.367"
         style="fill:#ffffff;fill-opacity:1;fill-rule:nonzero;stroke:none"
         id="path3280"
         inkscape:connector-curvature="0" /><path
         d="m 848.113,610.059 c -5.425,-10.704 -2.199,-19.512 7.508,-24.497 9.77,-4.937 18.781,-2.394 24.227,8.34 l 14.062,27.559 -10.133,5.18 -14.945,-29.157 c -2.172,-4.355 -5.133,-6.191 -9.184,-4.117 -4.117,2.094 -4.375,5.582 -2.136,9.938 l 14.824,29.168 -10.094,5.168 -14.129,-27.582"
         style="fill:#ffffff;fill-opacity:1;fill-rule:nonzero;stroke:none"
         id="path3282"
         inkscape:connector-curvature="0" /><path
         d="m 883.434,570.367 6.898,-7.203 25.352,24.375 0.093,-0.105 -15.597,-34.407 9.406,-9.703 34.891,33.688 -7.02,7.226 -24.137,-23.394 -0.097,0.109 14.359,33.512 -9.219,9.64 -34.929,-33.738"
         style="fill:#ffffff;fill-opacity:1;fill-rule:nonzero;stroke:none"
         id="path3284"
         inkscape:connector-curvature="0" /><path
         d="m 973.121,522.984 c -0.113,2.059 -0.277,6.078 -3.504,12.563 -4.324,8.879 -15.941,16.523 -31.945,8.711 -13.832,-6.723 -18.652,-19.434 -12.867,-31.399 2.734,-5.55 5.511,-8.699 6.937,-10.168 l 8.899,4.809 c -0.918,0.762 -4.164,2.809 -6.594,7.848 -3.195,6.461 0.152,14.242 8.574,18.386 8.84,4.297 16.539,2.571 19.899,-4.261 2.304,-4.676 1.949,-8.121 1.82,-10.114 l 8.781,3.625"
         style="fill:#ffffff;fill-opacity:1;fill-rule:nonzero;stroke:none"
         id="path3286"
         inkscape:connector-curvature="0" /><path
         d="m 934.055,486.27 1.992,-11.208 47.742,8.407 -1.969,11.176 -47.765,-8.375"
         style="fill:#ffffff;fill-opacity:1;fill-rule:nonzero;stroke:none"
         id="path3288"
         inkscape:connector-curvature="0" /><path
         d="m 937.398,457.535 -1.871,-27.355 8.758,-0.672 1.102,16.004 39.672,-2.774 0.796,11.485 -48.457,3.312"
         style="fill:#ffffff;fill-opacity:1;fill-rule:nonzero;stroke:none"
         id="path3290"
         inkscape:connector-curvature="0" /><path
         d="m 640.902,344.246 13.731,-16.308 3.07,2.699 -10.965,12.91 14.715,12.383 9.985,-11.977 3.058,2.68 -9.961,11.953 13.238,11.141 10.446,-12.571 3.105,2.656 -13.238,15.754 -37.184,-31.32"
         style="fill:#ffffff;fill-opacity:1;fill-rule:nonzero;stroke:none"
         id="path3292"
         inkscape:connector-curvature="0" /><path
         d="m 675.375,308.191 3.352,-2.183 23.933,35.562 0.117,-0.078 -7.035,-46.914 4.59,-3.199 27.133,40.332 -3.348,2.207 -24.129,-35.844 -0.109,0.078 7.226,47.168 -4.601,3.203 -27.129,-40.332"
         style="fill:#ffffff;fill-opacity:1;fill-rule:nonzero;stroke:none"
         id="path3294"
         inkscape:connector-curvature="0" /><path
         d="m 750.52,295.691 8.328,-2.398 -4.653,-16.367 c -2.437,-0.508 -4.422,-0.215 -6.824,0.386 -12.316,3.442 -12.937,16.094 -10.492,24.614 4.242,14.683 14.641,17.285 21.285,15.308 3.566,-1.035 7.594,-3.687 8.977,-5.679 l 1.543,4.453 c -1.196,1.148 -5.414,4.019 -9.18,5.133 -13.066,3.711 -23.473,-5.606 -26.91,-17.52 -2.528,-8.887 -2.93,-25.445 13.426,-30.152 3.859,-1.117 7.617,-1.465 11.515,-0.547 l 6.574,23.062 -12.484,3.496 -1.105,-3.789"
         style="fill:#ffffff;fill-opacity:1;fill-rule:nonzero;stroke:none"
         id="path3296"
         inkscape:connector-curvature="0" /><path
         d="m 785.742,268.484 20.098,0 -0.012,3.965 -15.789,0 0,44.516 -4.297,0 0,-48.481"
         style="fill:#ffffff;fill-opacity:1;fill-rule:nonzero;stroke:none"
         id="path3298"
         inkscape:connector-curvature="0" /><path
         d="m 831.062,317.938 0.126,0.023 15.261,-23.125 -16.121,-4.785 0.734,27.887 z m -5.488,-47.34 4.11,1.211 0.535,14.175 18.621,5.215 7.742,-11.679 4.395,1.25 -28.899,42.343 -4.39,-1.304 -2.114,-51.211"
         style="fill:#ffffff;fill-opacity:1;fill-rule:nonzero;stroke:none"
         id="path3300"
         inkscape:connector-curvature="0" /><path
         d="m 881.719,291.199 3.379,2.285 -23.282,35.918 0.11,0.063 40.437,-24.785 4.633,2.871 -26.414,40.855 -3.414,-2.304 23.473,-36.153 -0.149,-0.058 -40.476,25.043 -4.704,-2.891 26.407,-40.844"
         style="fill:#ffffff;fill-opacity:1;fill-rule:nonzero;stroke:none"
         id="path3302"
         inkscape:connector-curvature="0" /><path
         d="m 898.695,361.184 2.25,2.769 c 9.961,12.942 20.688,6.164 26.711,1.34 9.563,-7.449 12.246,-17.078 5.614,-25.574 l -2.743,-3.598 -31.832,25.063 z m 32.379,-30.801 4.633,5.801 c 9.586,12.418 5.289,24.57 -5.836,33.269 -12.332,9.668 -23.23,8.496 -33.137,-4.258 l -3.941,-4.929 38.281,-29.883"
         style="fill:#ffffff;fill-opacity:1;fill-rule:nonzero;stroke:none"
         id="path3304"
         inkscape:connector-curvature="0" /><path
         d="m 368.012,624.434 0,-8.028 5.218,0 c 2.243,0 3.844,0.34 4.891,0.996 1,0.633 1.535,1.653 1.535,3.047 0,1.461 -0.523,2.504 -1.508,3.074 -0.996,0.598 -2.734,0.911 -5.25,0.911 l -4.886,0 z m 0,-22.872 -4.278,0 0,26.43 9.164,0 c 3.239,0 5.524,-0.219 6.872,-0.758 1.328,-0.507 2.414,-1.371 3.226,-2.57 0.777,-1.18 1.219,-2.457 1.219,-3.836 0,-2.004 -0.746,-3.723 -2.121,-5.105 -1.418,-1.391 -3.223,-2.168 -5.449,-2.379 0.996,-0.43 1.941,-1.082 2.793,-2.004 0.874,-0.957 1.964,-2.508 3.3,-4.656 l 3.223,-5.122 -5.203,0 -2.336,4.118 c -1.668,2.98 -2.949,4.89 -3.926,5.765 -0.949,0.895 -2.273,1.321 -3.937,1.321 l -2.547,0 0,-11.204 z m 5.601,33.708 c -5.648,0 -10.468,-2.028 -14.488,-6.047 -3.988,-3.973 -6.004,-8.793 -6.004,-14.457 0,-5.664 2.016,-10.5 5.996,-14.477 3.992,-4.004 8.836,-5.988 14.496,-5.988 5.657,0 10.492,1.984 14.489,5.996 3.972,3.988 5.984,8.844 5.984,14.469 0,5.664 -2.012,10.484 -5.984,14.457 -4.004,4.019 -8.844,6.047 -14.489,6.047 m 0,4.031 c 4.383,0 8.512,-1.098 12.289,-3.285 3.801,-2.2 6.766,-5.239 9.02,-9.008 2.187,-3.801 3.308,-7.867 3.308,-12.242 0,-4.414 -1.121,-8.512 -3.308,-12.286 -2.195,-3.757 -5.199,-6.726 -8.988,-8.941 -3.809,-2.176 -7.914,-3.289 -12.321,-3.289 -4.402,0 -8.539,1.113 -12.32,3.289 -3.809,2.184 -6.801,5.145 -9.008,8.922 -2.187,3.793 -3.269,7.891 -3.269,12.305 0,4.437 1.082,8.492 3.289,12.281 2.207,3.789 5.246,6.769 9.019,8.988 3.789,2.168 7.895,3.266 12.289,3.266"
         style="fill:#ffffff;fill-opacity:1;fill-rule:nonzero;stroke:none"
         id="path3306"
         inkscape:connector-curvature="0" /><path
         d="m 312.578,447.559 c 7.535,5.918 16.176,8.211 22.988,5.367 10.914,-4.582 11.207,-19.25 3.743,-35.543 -3.211,-6.914 -7.938,-12.492 -13.2,-16.41 -7.047,-5.149 -14.023,-7.129 -20.019,-4.895 -14.215,5.395 -17.059,32.656 -6.348,60.949 10.742,28.325 30.832,46.852 45.067,41.52 13.007,-4.93 16.48,-28.25 8.687,-53.895 1.012,9.668 -2.246,18.286 -9.316,21.77 -9.996,4.949 -23.727,-2.512 -30.606,-16.578 -0.351,-0.75 -0.683,-1.539 -0.996,-2.285"
         style="fill:#ffffff;fill-opacity:1;fill-rule:nonzero;stroke:none"
         id="path3308"
         inkscape:connector-curvature="0" /><path
         d="m 398.227,432.125 c 3.519,19.602 -1.528,34.551 -12.36,34.551 -12.199,0 -27.207,-18.817 -33.484,-41.965 -6.321,-23.219 -1.488,-41.996 10.703,-41.996 7.816,0 16.84,7.812 23.957,19.594 1.031,1.711 2.019,3.574 2.762,5.461 4.875,12.675 2.406,25.066 -6.176,27.382 -5.223,1.457 -11.094,0.36 -16.66,-4.554 0.183,0.558 0.426,1.156 0.683,1.761 4.621,10.961 14.696,17.629 22.516,14.946 5.516,-1.918 8.367,-7.953 8.059,-15.18"
         style="fill:#ffffff;fill-opacity:1;fill-rule:nonzero;stroke:none"
         id="path3310"
         inkscape:connector-curvature="0" /><path
         d="m 275.152,609.945 c -13.433,30.414 -26.976,48.446 -40.07,39.446 -17.113,-11.707 -13.437,-41.668 7.402,-93.418 9.403,19.043 20.637,38.785 32.668,53.972"
         style="fill:#ffffff;fill-opacity:1;fill-rule:nonzero;stroke:none"
         id="path3312"
         inkscape:connector-curvature="0" /><path
         d="m 302.973,312.629 c -41.27,0 -76.938,37.848 -93.813,92.809 23.735,-42.54 62.957,-70.333 107.457,-70.333 18.074,0 35.34,4.614 50.981,12.93 -17.696,-22.168 -40.18,-35.406 -64.625,-35.406 m 91.922,88.887 c -0.61,-1.614 -1.317,-3.149 -2.125,-4.602 -8.102,-15.019 -19.68,-24.883 -31.036,-24.883 -12.375,0 -21.093,11.778 -23.531,29.039 -3.226,-4.312 -7.152,-7.867 -11.344,-10.601 -8.797,-5.762 -17.879,-7.754 -25.781,-4.766 -18.695,7.074 -23.797,39.453 -11.375,72.32 5.695,15.098 14.086,27.637 23.379,36.149 -2.203,8.91 -4.699,18.633 -7.461,28.715 -1.269,-2.512 -2.555,-5.028 -3.84,-7.617 -6.414,-12.668 -14.652,-20.985 -23.379,-26.415 5.77,10.063 11.422,20.27 16.422,30.024 25.864,50.769 46.446,95.68 27.473,106.769 -23.508,13.704 -54.996,-34.32 -78.703,-85.636 -23.797,-51.235 -37.516,-103.375 -37.516,-103.375 0,0 -23.668,44.011 -69.883,44.011 -23.601,0 -38.3083,-11.515 -38.3083,-21.668 0,-7.218 5.8513,-11.792 13.3833,-13.796 15.109,-3.914 23.039,-9.625 34.421,-25.196 11.477,-15.754 20.457,-53.972 22.368,-62.89 12.136,-50.86 57.882,-88.614 112.476,-88.614 63.875,0 115.66,51.782 115.66,115.715 0,5.879 -0.449,11.625 -1.3,17.317"
         style="fill:#ffffff;fill-opacity:1;fill-rule:nonzero;stroke:none"
         id="path3314"
         inkscape:connector-curvature="0" /><path
         d="m 494.641,268.484 7.48828,0 0,400.656 -7.48828,0 0,-400.656 z"
         style="fill:#ffffff;fill-opacity:1;fill-rule:nonzero;stroke:none"
         id="path3316"
         inkscape:connector-curvature="0" /><path
         d="m 1246.78,491.406 36.46,0 63.29,-161.203 -35.79,0 -13.86,36.926 -65.35,0 -14.09,-36.926 -33.5,0 62.84,161.203 z m 17.76,-32.351 -0.48,0 -23.28,-66.512 47.09,0 -23.33,66.512"
         style="fill:#ffffff;fill-opacity:1;fill-rule:nonzero;stroke:none"
         id="path3318"
         inkscape:connector-curvature="0" /><path
         d="m 1363.36,491.41 34.89,0 c 34.63,0 75.95,1.149 75.95,-43.68 0,-18.921 -12.69,-34.601 -33.24,-37.398 l 0,-0.426 c 8.79,-0.703 13.85,-9.496 17.1,-16.644 l 25.86,-63.078 -36.03,0 -19.39,50.363 c -4.66,11.996 -8.75,16.637 -22.41,16.637 l -10.41,0 0,-67 -32.32,0 0,161.226 z m 32.32,-68.855 10.66,0 c 15.91,0 34.18,2.336 34.18,22.425 0,19.391 -18.03,21.016 -34.18,21.016 l -10.66,0 0,-43.441"
         style="fill:#ffffff;fill-opacity:1;fill-rule:nonzero;stroke:none"
         id="path3320"
         inkscape:connector-curvature="0" /><path
         d="m 1535.87,465.996 -46.19,0 0,25.414 124.72,0 0,-25.414 -46.24,0 0,-135.812 -32.29,0 0,135.812"
         style="fill:#ffffff;fill-opacity:1;fill-rule:nonzero;stroke:none"
         id="path3322"
         inkscape:connector-curvature="0" /><path
         d="m 1721.52,461.836 c -10.16,4.394 -21.48,6.941 -32.77,6.941 -11.1,0 -25.43,-4.867 -25.43,-22.414 0,-27.945 70.69,-16.16 70.69,-70.191 0,-35.344 -27.97,-48.762 -60.51,-48.762 -17.55,0 -25.41,2.285 -41.34,6.25 l 2.97,29.106 c 11.13,-6.02 23.82,-9.946 36.51,-9.946 12.24,0 28.63,6.25 28.63,20.793 0,30.719 -70.66,18.02 -70.66,71.371 0,36.039 27.92,49.196 56.36,49.196 13.83,0 26.76,-1.852 38.55,-5.785 l -3,-26.559"
         style="fill:#ffffff;fill-opacity:1;fill-rule:nonzero;stroke:none"
         id="path3324"
         inkscape:connector-curvature="0" /><path
         d="m 1940.22,332.473 c -11.77,-2.754 -24.49,-5.039 -36.72,-5.039 -52.19,0 -88.46,26.089 -88.46,80.628 0,55.157 33.72,86.118 88.46,86.118 10.61,0 24.71,-2.086 36.48,-6.719 l -2.31,-27.246 c -12.24,6.941 -23.31,8.551 -34.87,8.551 -33.25,0 -54.04,-25.399 -54.04,-58.434 0,-32.793 20.3,-57.512 54.74,-57.512 12.71,0 27.67,2.793 35.32,6.7 l 1.4,-27.047"
         style="fill:#ffffff;fill-opacity:1;fill-rule:nonzero;stroke:none"
         id="path3326"
         inkscape:connector-curvature="0" /><path
         d="m 2034.18,494.18 c 50.57,0 79,-34.196 79,-82.914 0,-48.715 -27.98,-83.832 -79,-83.832 -51.71,0 -78.96,34.414 -78.96,83.832 0,49.422 27.7,82.914 78.96,82.914 m 0,-141.36 c 33.01,0 45.29,29.348 45.29,58.446 0,28.418 -13.2,57.5 -45.29,57.5 -32.08,0 -45.25,-29.082 -45.25,-57.5 0,-29.098 12.25,-58.446 45.25,-58.446"
         style="fill:#ffffff;fill-opacity:1;fill-rule:nonzero;stroke:none"
         id="path3328"
         inkscape:connector-curvature="0" /><path
         d="m 2134.62,491.406 32.34,0 0,-93.097 c 0,-27.489 8.76,-45.489 33.5,-45.489 24.68,0 33.49,18 33.49,45.489 l 0,93.097 32.31,0 0,-103.027 c 0,-43.176 -24.48,-60.969 -65.8,-60.969 -41.34,0 -65.84,17.793 -65.84,60.969 l 0,103.027"
         style="fill:#ffffff;fill-opacity:1;fill-rule:nonzero;stroke:none"
         id="path3330"
         inkscape:connector-curvature="0" /><path
         d="m 2290.5,491.406 39.71,0 61.42,-120.586 0.47,0 0,120.586 30.95,0 0,-161.203 -39.49,0 -61.64,120.559 -0.47,0 0,-120.559 -30.95,0 0,161.203"
         style="fill:#ffffff;fill-opacity:1;fill-rule:nonzero;stroke:none"
         id="path3332"
         inkscape:connector-curvature="0" /><path
         d="m 2569.2,332.473 c -11.76,-2.754 -24.47,-5.039 -36.7,-5.039 -52.2,0 -88.46,26.089 -88.46,80.628 0,55.157 33.72,86.118 88.46,86.118 10.61,0 24.69,-2.086 36.45,-6.719 l -2.27,-27.246 c -12.27,6.941 -23.32,8.551 -34.86,8.551 -33.25,0 -54.06,-25.399 -54.06,-58.434 0,-32.793 20.3,-57.512 54.74,-57.512 12.68,0 27.7,2.793 35.31,6.7 l 1.39,-27.047"
         style="fill:#ffffff;fill-opacity:1;fill-rule:nonzero;stroke:none"
         id="path3334"
         inkscape:connector-curvature="0" /><path
         d="m 2593.69,330.203 32.3281,0 0,161.203 -32.3281,0 0,-161.203 z"
         style="fill:#ffffff;fill-opacity:1;fill-rule:nonzero;stroke:none"
         id="path3336"
         inkscape:connector-curvature="0" /><path
         d="m 2651.41,491.406 32.32,0 0,-135.793 62.6,0 0,-25.41 -94.92,0 0,161.203"
         style="fill:#ffffff;fill-opacity:1;fill-rule:nonzero;stroke:none"
         id="path3338"
         inkscape:connector-curvature="0" /><path
         d="m 1184.42,260.461 95.16,0 0,-25.371 -62.84,0 0,-39.746 57.52,0 0,-25.41 -57.52,0 0,-45.254 63.29,0 0,-25.4144 -95.61,0 0,161.1954"
         style="fill:#ffffff;fill-opacity:1;fill-rule:nonzero;stroke:none"
         id="path3340"
         inkscape:connector-curvature="0" /><path
         d="m 1306.56,260.461 39.75,0 61.41,-120.527 0.46,0 0,120.527 30.96,0 0,-161.1954 -39.48,0 -61.69,120.5464 -0.45,0 0,-120.5464 -30.96,0 0,161.1954"
         style="fill:#ffffff;fill-opacity:1;fill-rule:nonzero;stroke:none"
         id="path3342"
         inkscape:connector-curvature="0" /><path
         d="m 1595,229.285 c -12.47,5.781 -28.65,8.535 -41.62,8.535 -37.62,0 -58.37,-25.386 -58.37,-58.418 0,-32.769 20.3,-57.476 54.71,-57.476 8.81,0 15.71,0.918 21.25,2.285 l 0,42.027 -34.19,0 0,25.41 65.11,0 0,-86.836 c -17.07,-4.609 -34.86,-8.3198 -52.17,-8.3198 -52.18,0 -88.44,26.1128 -88.44,80.6058 0,55.199 33.73,86.132 88.44,86.132 18.71,0 33.48,-2.515 47.36,-6.699 L 1595,229.285"
         style="fill:#ffffff;fill-opacity:1;fill-rule:nonzero;stroke:none"
         id="path3344"
         inkscape:connector-curvature="0" /><path
         d="m 1627.76,260.461 32.34,0 0,-135.781 62.57,0 0,-25.4144 -94.91,0 0,161.1954"
         style="fill:#ffffff;fill-opacity:1;fill-rule:nonzero;stroke:none"
         id="path3346"
         inkscape:connector-curvature="0" /><path
         d="m 1799.79,260.461 36.5,0 63.29,-161.2149 -35.79,0 -13.88,36.9529 -65.33,0 -14.08,-36.9529 -33.51,0 62.8,161.2149 z m 17.79,-32.309 -0.43,0 -23.36,-66.519 47.12,0 -23.33,66.519"
         style="fill:#ffffff;fill-opacity:1;fill-rule:nonzero;stroke:none"
         id="path3348"
         inkscape:connector-curvature="0" /><path
         d="m 1915.25,260.461 39.73,0 61.43,-120.527 0.44,0 0,120.527 30.96,0 0,-161.1954 -39.49,0 -61.68,120.5464 -0.45,0 0,-120.5464 -30.94,0 0,161.1954"
         style="fill:#ffffff;fill-opacity:1;fill-rule:nonzero;stroke:none"
         id="path3350"
         inkscape:connector-curvature="0" /><path
         d="m 2074.2,260.461 44.12,0 c 49.38,0 93.05,-16.645 93.05,-80.609 0,-63.922 -43.67,-80.5864 -93.05,-80.5864 l -44.12,0 0,161.1954 z m 32.33,-135.781 18.02,0 c 26.99,0 53.11,20.078 53.11,55.172 0,35.136 -26.12,55.214 -53.11,55.214 l -18.02,0 0,-110.386"
         style="fill:#ffffff;fill-opacity:1;fill-rule:nonzero;stroke:none"
         id="path3352"
         inkscape:connector-curvature="0" /><path
         d="m 1186.05,585.297 c 3.75,-1.621 9.14,-3.047 16.04,-3.047 10.98,0 23.26,5.684 23.26,20.012 0,20.722 -32.51,20.828 -32.51,35.047 0,9.144 8.04,12.195 15.36,12.195 4.77,0 9.75,-0.914 12.89,-2.641 l 1.12,6.395 c -4.86,1.82 -10.46,2.328 -13.91,2.328 -12.5,0 -22.44,-7.102 -22.44,-18.477 0,-18.589 32.5,-20.324 32.5,-34.242 0,-10.062 -7.22,-14.527 -15.96,-14.527 -6.6,0 -11.48,1.519 -15.64,4.164 l -0.71,-7.207 z m 93.96,49.973 -6.4,0 0,-28.645 c 0,-8.641 -3.64,-18.891 -15.34,-18.891 -8.84,0 -12.3,6.289 -12.3,16.043 l 0,31.493 -6.38,0 0,-33.118 c 0,-11.375 4.86,-19.902 17.67,-19.902 10.77,0 14.63,5.777 16.76,10.453 l 0.21,0 0,-9.226 6.19,0 c -0.41,4.164 -0.41,8.222 -0.41,12.183 l 0,39.61 z m 16.82,-73.129 6.39,0 0,30.156 0.2,0 c 3.16,-6.692 8.03,-10.047 16.16,-10.047 14.23,0 21.32,11.773 21.32,27.121 0,15.746 -6.07,27.113 -21.32,27.113 -10.98,0 -14.94,-7.8 -16.56,-10.648 l -0.21,0 0.41,9.434 -6.39,0 0,-73.129 z m 37.08,47.23 c 0,-10.055 -3.15,-21.637 -15.34,-21.637 -11.39,0 -15.35,12.192 -15.35,21.637 0,9.453 3.96,21.645 15.35,21.645 12.19,0 15.34,-11.582 15.34,-21.645 m 21.24,-47.23 6.38,0 0,30.156 0.21,0 c 3.15,-6.692 8.03,-10.047 16.16,-10.047 14.23,0 21.33,11.773 21.33,27.121 0,15.746 -6.09,27.113 -21.33,27.113 -10.98,0 -14.94,-7.8 -16.56,-10.648 l -0.2,0 0.39,9.434 -6.38,0 0,-73.129 z m 37.08,47.23 c 0,-10.055 -3.15,-21.637 -15.35,-21.637 -11.38,0 -15.35,12.192 -15.35,21.637 0,9.453 3.97,21.645 15.35,21.645 12.2,0 15.35,-11.582 15.35,-21.645 m 18.27,0 c 0,-14.121 7.41,-27.121 24.18,-27.121 16.76,0 24.17,13 24.17,27.121 0,14.129 -7.41,27.113 -24.17,27.113 -16.77,0 -24.18,-12.984 -24.18,-27.113 m 7,0 c 0,11.992 6,21.645 17.18,21.645 11.17,0 17.17,-9.653 17.17,-21.645 0,-11.992 -6,-21.637 -17.17,-21.637 -11.18,0 -17.18,9.645 -17.18,21.637 m 55.17,-25.894 6.39,0 0,25.593 c 0,9.348 2.74,20.727 12.9,20.727 1.63,0 3.35,-0.203 4.68,-0.613 l 0,6.695 c -1.12,0.309 -2.95,0.605 -4.47,0.605 -6.62,0 -10.98,-5.371 -13.32,-11.156 l -0.19,0 0,9.942 -6.4,0 c 0.41,-3.747 0.41,-5.875 0.41,-11.571 l 0,-40.222 z m 60.49,51.793 -11.78,0 0,14.726 -6.39,-2.23 0,-12.496 -10.16,0 0,-5.473 10.16,0 0,-30.281 c 0,-9.45 0.41,-17.266 11.77,-17.266 3.15,0 6.3,0.816 7.82,1.426 l -0.4,5.269 c -1.83,-0.707 -3.45,-1.211 -5.89,-1.211 -5.18,0 -6.91,3.86 -6.91,8.532 l 0,33.531 11.78,0 0,5.473 z m 47.06,-43.676 c -3.04,-1.93 -9.85,-3.86 -14.52,-3.86 -11.19,0 -17.07,8.836 -17.07,19.821 l 35.44,0 0,3.238 c 0,13.918 -5.98,25.691 -20.61,25.691 -13.11,0 -21.83,-11.265 -21.83,-27.113 0,-15.543 6.38,-27.121 23.56,-27.121 4.78,0 10.56,1.016 15.03,2.848 l 0,6.496 z m -31.59,21.422 c 0,8.543 5.78,18 15.24,18 9.54,0 13.21,-8.946 13.21,-18 l -28.45,0 z m 90.65,46.636 -6.39,0 0,-33.113 -0.2,0 c -0.92,2.547 -6,9.945 -16.16,9.945 -15.25,0 -21.33,-11.367 -21.33,-27.113 0,-15.348 7.1,-27.121 21.33,-27.121 7.42,0 12.7,2.848 16.16,9.438 l 0.2,0 0,-8.211 6.39,0 0,76.175 z m -37.08,-50.281 c 0,10.063 3.15,21.645 15.34,21.645 11.39,0 15.35,-12.192 15.35,-21.645 0,-9.445 -3.96,-21.637 -15.35,-21.637 -12.19,0 -15.34,11.582 -15.34,21.637 m 112.72,25.899 -6.39,0 0,-28.645 c 0,-8.641 -3.67,-18.891 -15.35,-18.891 -8.84,0 -12.3,6.289 -12.3,16.043 l 0,31.493 -6.38,0 0,-33.118 c 0,-11.375 4.86,-19.902 17.67,-19.902 10.76,0 14.62,5.777 16.76,10.453 l 0.2,0 0,-9.226 6.19,0 c -0.4,4.164 -0.4,8.222 -0.4,12.183 l 0,39.61 z m 12.59,-50.582 c 4.57,-1.833 9.54,-2.438 14.52,-2.438 7.83,0 18.08,3.758 18.08,14.719 0,16.972 -25.5,15.754 -25.5,25.402 0,6.617 4.58,8.645 11.18,8.645 3.56,0 8.14,-0.918 11.48,-2.438 l 0.6,5.582 c -4.55,1.719 -10.04,2.324 -12.79,2.324 -8.54,0 -16.86,-3.847 -16.86,-14.113 0,-15.027 24.89,-13.098 24.89,-25.402 0,-5.883 -5.39,-9.235 -11.48,-9.235 -4.99,0 -9.66,1.309 -13.51,3.25 l -0.61,-6.296 z m 45.31,-1.211 6.38,0 0,51.793 -6.38,0 0,-51.793 z m 6.38,74.136 -6.38,0 0,-8.519 6.38,0 0,8.519 z m 17.12,-74.136 6.39,0 0,28.648 c 0,8.629 3.66,18.891 15.35,18.891 8.84,0 12.29,-6.293 12.29,-16.051 l 0,-31.488 6.39,0 0,33.109 c 0,11.379 -4.87,19.898 -17.67,19.898 -10.78,0 -14.63,-5.777 -16.78,-10.449 l -0.19,0 0,9.235 -6.18,0 c 0.4,-4.168 0.4,-8.227 0.4,-12.188 l 0,-39.605 z m 61.71,25.894 c 0,10.063 3.16,21.645 15.34,21.645 11.7,0 15.36,-9.145 15.36,-21.645 0,-9.445 -4.17,-20.426 -15.76,-20.426 -10.87,0 -14.94,10.258 -14.94,20.426 m 37.08,25.899 -6.38,0 0,-5.883 -0.21,0 c -4.77,6.195 -9.25,7.097 -16.16,7.097 -15.25,0 -21.33,-11.367 -21.33,-27.113 0,-11.484 5.28,-25.894 21.84,-25.894 6.61,0 12.3,2.636 15.75,10.14 l 0.2,0 c 0,-14.613 -1.42,-26.613 -17.88,-26.613 -5.59,0 -11.28,1.629 -15.25,3.672 l -0.5,-6.41 c 2.65,-0.805 8.83,-2.739 15.64,-2.739 17.79,0 24.28,11.778 24.28,26.207 l 0,47.536 z m 34.62,-73.129 6.37,0 0,30.156 0.21,0 c 3.16,-6.692 8.03,-10.047 16.16,-10.047 14.23,0 21.32,11.773 21.32,27.121 0,15.746 -6.08,27.113 -21.32,27.113 -10.98,0 -14.95,-7.8 -16.57,-10.648 l -0.2,0 0.4,9.434 -6.37,0 0,-73.129 z m 37.07,47.23 c 0,-10.055 -3.15,-21.637 -15.34,-21.637 -11.39,0 -15.36,12.192 -15.36,21.637 0,9.453 3.97,21.645 15.36,21.645 12.19,0 15.34,-11.582 15.34,-21.645 m 61.85,25.899 -6.39,0 0,-28.645 c 0,-8.641 -3.65,-18.891 -15.34,-18.891 -8.85,0 -12.3,6.289 -12.3,16.043 l 0,31.493 -6.39,0 0,-33.118 c 0,-11.375 4.87,-19.902 17.67,-19.902 10.77,0 14.63,5.777 16.77,10.453 l 0.2,0 0,-9.226 6.19,0 c -0.41,4.164 -0.41,8.222 -0.41,12.183 l 0,39.61 z m 16.82,-51.793 6.39,0 0,8.211 0.21,0 c 3.46,-6.59 8.74,-9.438 16.15,-9.438 14.23,0 21.34,11.773 21.34,27.121 0,15.746 -6.1,27.113 -21.34,27.113 -10.17,0 -15.24,-7.398 -16.15,-9.945 l -0.21,0 0,33.113 -6.39,0 0,-76.175 z m 37.07,25.894 c 0,-10.055 -3.14,-21.637 -15.34,-21.637 -11.37,0 -15.34,12.192 -15.34,21.637 0,9.453 3.67,21.645 15.34,21.645 12.2,0 15.34,-11.582 15.34,-21.645 m 21.65,-25.894 6.4,0 0,76.175 -6.4,0 0,-76.175 z m 23.49,0 6.38,0 0,51.793 -6.38,0 0,-51.793 z m 6.39,74.136 -6.39,0 0,-8.519 6.39,0 0,8.519 z m 51.99,-23.144 c -1.84,0.605 -6.3,2.015 -12.51,2.015 -15.32,0 -25.58,-11.156 -25.58,-27.113 0,-14.43 8.11,-27.121 24.78,-27.121 4.86,0 8.93,0.312 13.31,1.832 l -0.62,5.984 c -3.85,-1.418 -7.62,-2.332 -11.68,-2.332 -11.68,0 -18.79,9.848 -18.79,21.637 0,12.598 7.01,21.645 19.49,21.645 3.46,0 7.63,-1.114 11.08,-2.649 l 0.52,6.102 z m 35.01,-50.992 6.39,0 0,46.32 11.68,0 0,5.473 -11.68,0 0,4.476 c 0,6.195 -0.92,15.652 7.83,15.652 1.82,0 3.75,-0.41 5.07,-1.125 l 0.41,5.579 c -1.23,0.718 -3.97,1.011 -6,1.011 -13.3,0 -13.7,-10.957 -13.7,-21.832 l 0,-3.761 -10.47,0 0,-5.473 10.47,0 0,-46.32 z m 70.79,51.793 -6.4,0 0,-28.645 c 0,-8.641 -3.64,-18.891 -15.34,-18.891 -8.84,0 -12.28,6.289 -12.28,16.043 l 0,31.493 -6.4,0 0,-33.118 c 0,-11.375 4.87,-19.902 17.67,-19.902 10.78,0 14.64,5.777 16.76,10.453 l 0.21,0 0,-9.226 6.19,0 c -0.41,4.164 -0.41,8.222 -0.41,12.183 l 0,39.61 z m 17.21,-51.793 6.38,0 0,28.648 c 0,8.629 3.66,18.891 15.36,18.891 8.83,0 12.28,-6.293 12.28,-16.051 l 0,-31.488 6.4,0 0,33.109 c 0,11.379 -4.88,19.898 -17.67,19.898 -10.77,0 -14.64,-5.777 -16.77,-10.449 l -0.2,0 0,9.235 -6.19,0 c 0.41,-4.168 0.41,-8.227 0.41,-12.188 l 0,-39.605 z m 98.92,76.175 -6.37,0 0,-33.113 -0.21,0 c -0.92,2.547 -5.99,9.945 -16.16,9.945 -15.25,0 -21.32,-11.367 -21.32,-27.113 0,-15.348 7.1,-27.121 21.32,-27.121 7.42,0 12.7,2.848 16.16,9.438 l 0.21,0 0,-8.211 6.37,0 0,76.175 z m -37.07,-50.281 c 0,10.063 3.15,21.645 15.34,21.645 11.38,0 15.36,-12.192 15.36,-21.645 0,-9.445 -3.98,-21.637 -15.36,-21.637 -12.19,0 -15.34,11.582 -15.34,21.637 m 53.85,-25.894 6.38,0 0,51.793 -6.38,0 0,-51.793 z m 6.39,74.136 -6.39,0 0,-8.519 6.39,0 0,8.519 z m 17.11,-74.136 6.4,0 0,28.648 c 0,8.629 3.65,18.891 15.34,18.891 8.83,0 12.31,-6.293 12.31,-16.051 l 0,-31.488 6.37,0 0,33.109 c 0,11.379 -4.86,19.898 -17.66,19.898 -10.78,0 -14.64,-5.777 -16.77,-10.449 l -0.2,0 0,9.235 -6.19,0 c 0.4,-4.168 0.4,-8.227 0.4,-12.188 l 0,-39.605 z m 61.71,25.894 c 0,10.063 3.16,21.645 15.35,21.645 11.68,0 15.33,-9.145 15.33,-21.645 0,-9.445 -4.16,-20.426 -15.74,-20.426 -10.88,0 -14.94,10.258 -14.94,20.426 m 37.07,25.899 -6.39,0 0,-5.883 -0.19,0 c -4.79,6.195 -9.26,7.097 -16.17,7.097 -15.22,0 -21.31,-11.367 -21.31,-27.113 0,-11.484 5.27,-25.894 21.81,-25.894 6.61,0 12.31,2.636 15.77,10.14 l 0.19,0 c 0,-14.613 -1.42,-26.613 -17.87,-26.613 -5.6,0 -11.27,1.629 -15.23,3.672 l -0.51,-6.41 c 2.64,-0.805 8.85,-2.739 15.64,-2.739 17.78,0 24.26,11.778 24.26,26.207 l 0,47.536 z m 34.61,-51.793 6.39,0 0,8.211 0.21,0 c 3.46,-6.59 8.73,-9.438 16.15,-9.438 14.24,0 21.33,11.773 21.33,27.121 0,15.746 -6.09,27.113 -21.33,27.113 -10.15,0 -15.25,-7.398 -16.15,-9.945 l -0.21,0 0,33.113 -6.39,0 0,-76.175 z m 37.09,25.894 c 0,-10.055 -3.14,-21.637 -15.35,-21.637 -11.39,0 -15.35,12.192 -15.35,21.637 0,9.453 3.67,21.645 15.35,21.645 12.21,0 15.35,-11.582 15.35,-21.645 m 20.84,25.899 -7.01,0 18.36,-52.418 -1.31,-4.575 c -2.03,-6.699 -3.85,-11.273 -9.36,-11.273 -2.32,0 -3.55,0.406 -4.74,0.812 l -0.63,-5.472 c 2.13,-0.504 4.57,-0.817 6.92,-0.817 7.2,0 10.86,7.106 13.3,14.215 l 20.7,59.528 -6.7,0 -14.92,-43.172 -0.1,0 -14.51,43.172"
         style="fill:#ffffff;fill-opacity:1;fill-rule:nonzero;stroke:none"
         id="path3354"
         inkscape:connector-curvature="0" /><path
         d="m 1081.16,99.2656 7.4805,0 0,569.875 -7.4805,0 0,-569.875 z"
         style="fill:#ffffff;fill-opacity:1;fill-rule:nonzero;stroke:none"
         id="path3356"
         inkscape:connector-curvature="0" /></g><path
       d="m 202.40199,-0.0019976 87.2,0 0,54.4000006 -87.2,0 0,-54.4000006 z"
       style="fill:none;stroke:none"
       id="path14232"
       inkscape:connector-curvature="0" /><g
       id="g14244"
       transform="matrix(0.76764605,0,0,0.76764605,222.67352,25.599193)" /><g
       id="g14248"
       transform="matrix(0.76764605,0,0,0.76764605,230.70809,27.676903)" /><g
       id="g14252"
       transform="matrix(0.76764605,0,0,0.76764605,236.15216,25.599193)" /><g
       id="g14256"
       transform="matrix(0.76764605,0,0,0.76764605,249.75669,27.429113)" /><g
       id="g14260"
       transform="matrix(0.76764605,0,0,0.76764605,216.41053,18.633345)" /><g
       id="g14264"
       transform="matrix(0.76764605,0,0,0.76764605,219.49685,17.312689)" /><g
       id="g14268"
       transform="matrix(0.76764605,0,0,0.76764605,227.82611,17.481489)" /><g
       id="g14272"
       transform="matrix(0.76764605,0,0,0.76764605,230.3463,17.481489)" /><g
       id="g14276"
       transform="matrix(0.76764605,0,0,0.76764605,237.43428,18.434753)" /><g
       id="g14280"
       transform="matrix(0.76764605,0,0,0.76764605,240.76771,15.316809)" /><g
       id="g14284"
       transform="matrix(0.76764605,0,0,0.76764605,216.49466,10.394505)" /><g
       id="g14288"
       transform="matrix(0.76764605,0,0,0.76764605,219.58099,9.0738504)" /><g
       id="g14292"
       transform="matrix(0.76764605,0,0,0.76764605,227.91025,9.2426584)" /><g
       id="g14296"
       transform="matrix(0.76764605,0,0,0.76764605,230.43043,9.2426584)" /><g
       id="g14300"
       transform="matrix(0.76764605,0,0,0.76764605,238.44189,10.215801)" /><g
       id="g14304"
       transform="matrix(0.76764605,0,0,0.76764605,240.73278,9.2426584)" /><g
       id="g14308"
       transform="matrix(0.76764605,0,0,0.76764605,243.29265,9.2426584)" /><g
       id="g14312"
       transform="matrix(0.76764605,0,0,0.76764605,261.07003,39.733013)" /><g
       id="g14316"
       transform="matrix(0.76764605,0,0,0.76764605,270.25706,26.594143)" /><g
       id="g14320"
       transform="matrix(0.76764605,0,0,0.76764605,264.40445,43.510213)" /><g
       id="g14328"
       transform="matrix(0.76764605,0,0,0.76764605,261.157,40.930013)" /><g
       id="g14336"
       transform="matrix(0.76764605,0,0,0.76764605,269.82902,43.872323)" /><g
       id="g14340"
       transform="matrix(0.76764605,0,0,0.76764605,277.33506,25.819583)" /><g
       id="g14344"
       transform="matrix(0.76764605,0,0,0.76764605,278.64966,26.114293)" /><g
       id="g14348"
       transform="matrix(0.76764605,0,0,0.76764605,264.18928,47.212883)" /><g
       id="g14352"
       transform="matrix(0.76764605,0,0,0.76764605,263.17506,46.846943)" /><g
       id="g14356"
       transform="matrix(0.76764605,0,0,0.76764605,267.32358,46.158453)" /><g
       id="g14360"
       transform="matrix(0.76764605,0,0,0.76764605,268.34148,45.242873)" /><g
       id="g14364"
       transform="matrix(0.76764605,0,0,0.76764605,269.65239,44.334823)" /><g
       id="g14368"
       transform="matrix(0.76764605,0,0,0.76764605,273.5924,39.267053)" /><g
       id="g14372"
       transform="matrix(0.76764605,0,0,0.76764605,271.54908,39.413523)" /><g
       id="g14376"
       transform="matrix(0.76764605,0,0,0.76764605,270.05517,35.583273)" /><g
       id="g14380"
       transform="matrix(0.76764605,0,0,0.76764605,264.22589,35.114783)" /><g
       id="g14384"
       transform="matrix(0.76764605,0,0,0.76764605,269.60318,35.249813)" /><g
       id="g14388"
       transform="matrix(0.76764605,0,0,0.76764605,270.32454,35.188173)" /><g
       id="g14392"
       transform="matrix(0.76764605,0,0,0.76764605,259.78061,36.352383)" /><g
       id="g14396"
       transform="matrix(0.76764605,0,0,0.76764605,251.28906,38.058473)" /><g
       id="g14404"
       transform="matrix(0.76764605,0,0,0.76764605,255.03448,25.620153)" /><g
       id="g14412"
       transform="matrix(0.76764605,0,0,0.76764605,262.07741,26.222453)" /><g
       id="g14416"
       transform="matrix(0.76764605,0,0,0.76764605,256.40504,16.903305)" /><g
       id="g14424"
       transform="matrix(0.76764605,0,0,0.76764605,269.29366,8.6554824)" /><path
       id="rect4890"
       style="opacity:0.8926829;color:#000000;fill:#ffffff;fill-opacity:1;stroke:none;stroke-width:1;marker:none;visibility:visible;display:inline;overflow:visible;enable-background:accumulate"
       d="m 209.44886,6.2149931 68.06507,0 0,-0.8689861 -68.06507,0 z m 62.89947,0.7141755 c 0,0 0.70793,0.1992884 1.02646,0.5570067 0.3177,0.3577182 0.43693,0.4694531 0.43693,0.6679075 0,0.199288 -0.0392,0.9147255 -0.0392,0.9147255 0,0 -0.11925,-0.1584305 -0.47778,-0.2384798 -0.35773,-0.079214 -0.38941,-0.1592633 -0.5887,-0.4769577 -0.19846,-0.3185273 -0.35772,-1.4242022 -0.35772,-1.4242022 m -14.00005,8.9590544 c -0.15926,-0.199288 -0.19511,-0.505309 -0.27849,-0.884706 -0.0842,-0.382735 -0.0558,-0.80716 -0.0558,-0.80716 0,0 0.6212,0.100907 1.01062,0.538662 0.3894,0.436934 0.38107,0.795485 0.3502,0.953916 -0.0317,0.159264 -0.19094,0.278503 -0.19094,0.278503 0,0 -0.67624,0.120072 -0.83552,-0.07921 m 6.16152,10.122762 c 0,0 0.035,-0.904718 0.51198,-1.501749 0.4778,-0.596197 1.18489,-0.962254 1.50342,-1.352491 0.31853,-0.389406 0.55701,-1.025628 0.55701,-1.025628 0,0 -0.48446,0.12341 -0.64372,-0.544499 -0.15927,-0.667906 0.2343,-1.154871 0.0442,-1.27411 -0.19096,-0.119239 -0.8647,-0.237645 -1.73106,-0.786312 -0.86719,-0.549503 -2.97682,-1.812774 -3.32703,-2.170493 -0.34938,-0.358552 -0.68042,-0.742953 -0.68042,-0.742953 0,0 -0.21763,0.246818 -0.61536,0.08755 -0.39775,-0.159263 -0.43527,-0.37356 -0.43527,-0.37356 l -0.90055,0.110066 c 0,0 0.43025,0.476959 0.5495,0.834678 0.11923,0.357718 0.59203,0.130912 1.10902,0.409416 0.51697,0.278503 1.13902,0.746288 2.04539,1.493412 0.90723,0.747955 1.77694,1.302461 1.61849,1.77108 -0.15926,0.469453 -1.19739,0.822168 -1.70603,2.086273 -0.50865,1.264939 -0.19178,2.450661 0.19762,2.649951 0.3894,0.198454 1.90283,0.329367 1.90283,0.329367 m -7.65027,-0.654238 c 0.30185,-0.33854 0.43361,-0.437766 0.78382,-0.628717 0.34938,-0.19095 0.5253,-0.137585 0.5253,-0.137585 0,0 0.0399,0.401079 0.025,0.649564 -0.0234,0.387737 -0.2268,0.654567 -0.2268,0.654567 0,0 -0.41692,0.08256 -0.64955,0.199287 -0.18179,0.09005 -0.22515,0.428595 -0.22515,0.428595 0,0 -0.74461,-0.592028 -0.23264,-1.165711 m -4.06839,13.51091 c 0,0 -0.52116,0.326032 -1.14987,-0.150926 -0.62789,-0.476957 -0.95893,-1.274946 -0.80216,-1.332479 0.25683,-0.09256 1.25327,0.05754 1.31915,0.255989 0.16759,0.502807 0.19178,0.782978 0.35104,0.942241 0.15926,0.158431 0.28184,0.285175 0.28184,0.285175 m 9.22379,-1.853211 c 0,0 -0.82716,0.660403 -1.34415,0.859691 -0.51699,0.199287 -1.00978,0.797154 -1.24076,1.154872 -0.23013,0.358552 -0.54866,0.943908 -1.18238,1.372503 -0.58787,0.397743 -0.63122,0.23431 -2.21386,-0.04419 -1.58263,-0.278505 -1.7052,-0.329369 -2.38646,-0.329369 -1.09399,0 -1.54844,-0.551169 -1.05064,-0.634553 0.94642,-0.159265 1.10902,-0.849686 1.35834,-0.569514 0.54533,0.611205 1.18573,0.681248 2.01289,0.720438 0.82718,0.04003 1.26661,0.206793 1.53677,-0.03168 0.27016,-0.239314 0.0317,-0.278504 0.42943,-0.637056 0.39775,-0.357719 0.23847,-0.04754 0.47695,-0.596197 0.23933,-0.548668 0.39775,-1.853631 1.62266,-2.529877 1.22575,-0.676246 1.10567,-0.541163 1.10567,-0.541163 0,0 0.04,0.652898 0.31854,1.05064 0.2785,0.397743 0.557,0.755461 0.557,0.755461 m 11.45317,-1.264603 c 0.31519,0.184279 0.58285,0.376062 0.9314,0.100071 0.50447,-0.401078 -0.0785,-0.767969 0.0408,-1.524263 0.11925,-0.755461 0.40691,-1.13486 0.40691,-1.13486 0,0 -0.62787,-0.411918 -0.93223,-0.715436 -0.36523,-0.365223 -0.36523,-0.830508 -0.36523,-0.830508 0,0 -0.29851,0.531159 0.30186,1.177386 0.32186,0.346878 0.54199,0.95475 0.29601,1.580966 -0.43109,1.098169 -0.88554,0.808826 -1.47923,0.417753 -0.48196,-0.317694 0.11758,0.531158 0.79965,0.928901 m -0.78356,0.06696 c 0,0 -0.58119,-0.265994 -0.87971,-0.664571 -0.57451,-0.764634 -0.13925,-0.263494 -0.64789,-0.931404 -0.4211,-0.552835 -0.67041,-0.753791 -1.70438,-0.952247 -0.36022,-0.0692 -1.77358,0.198456 -1.77358,0.198456 0,0 0.66791,-0.627884 2.1313,-0.516982 1.35416,0.102569 1.90117,0.557006 1.90117,0.557006 0,0 -0.45862,-1.257435 -2.96683,-1.06565 -0.65372,0.05002 -1.19739,-0.28184 -1.19739,-0.28184 0,0 0,-0.497803 -0.42526,-1.023124 -0.43109,-0.531157 -0.87553,-0.596196 -0.87553,-0.596196 0,0 0.55367,-0.242649 1.53594,0.772137 0.38857,0.401912 0.10922,0.474456 0.48113,0.597864 0.24932,0.0834 1.61514,-0.0075 2.92678,0.398578 0.96475,0.299349 1.39252,1.54094 1.47425,2.040411 0.02,0.120074 -1.55765,-0.84218 -0.46113,0.737117 0.14927,0.265162 0.48113,0.730445 0.48113,0.730445 m -5.84099,-0.146673 c 0,0 0.79548,0.199288 0.90638,0.397742 0.11174,0.199289 0.0801,0.469453 0.51782,0.350214 0.43693,-0.120073 0.3894,-0.787981 1.10568,-0.947245 0.71543,-0.15843 2.02039,0.120074 2.02039,0.120074 0,0 -1.38417,-0.835511 -2.09211,-0.756294 -0.70792,0.08004 -0.59368,0.561174 -1.07148,0.799653 -0.47696,0.238479 -1.38668,0.03586 -1.38668,0.03586 m 6.33195,0.508889 c 0,0 1.2466,0.89638 1.88366,0.148424 0.63622,-0.747122 0.13674,-0.975596 0.0684,-1.951191 -0.0675,-0.953916 0.97559,-1.403356 0.97559,-1.403356 0,0 -0.44027,0.330202 0.0692,1.555116 0.25516,0.613707 0.20597,2.692476 -1.29412,2.80421 -0.34187,0.02585 -0.58868,0.549502 -0.58868,0.549502 0,0 -0.23849,-0.588692 -0.47781,-0.907219 -0.23848,-0.318528 -0.63622,-0.795486 -0.63622,-0.795486 m 1.62273,4.160543 c 0,0 0.1993,0.159263 0.35772,0.07921 0.15927,-0.07921 0.31853,-0.198453 0.31853,-0.198453 0,0 -0.19095,-0.508644 0.1993,-0.946412 0.3894,-0.437767 1.10567,-0.994773 1.18488,-1.861969 0.0793,-0.866363 -0.15926,-1.463394 -0.15926,-1.463394 0,0 0.24932,0.763801 -0.5962,1.741896 -0.50948,0.588694 -0.271,0.270166 -0.98644,0.42943 -0.60704,0.135083 -0.63705,0.676246 -0.63705,0.676246 0,0 0.065,0.165101 0.12007,0.358552 0.0427,0.145923 0.99394,-1.073989 0.0793,0.429429 -0.0426,0.07004 0.009,0.180944 0.025,0.280171 0.035,0.237645 0.0942,0.47529 0.0942,0.47529 m 2.21953,-0.159101 c 0,0 -0.52534,0.667907 -0.83552,1.026459 -0.31019,0.357719 -0.34938,0.397743 -0.34938,0.397743 0,0 -0.19928,-0.120073 -0.39774,-0.04002 -0.19928,0.07921 -0.71627,0.357719 -0.71627,0.357719 0,0 0.11923,-0.406082 0.11923,-0.636222 0,-0.230141 -0.0399,-0.429429 -0.0399,-0.429429 0,0 0.35854,0.159264 0.63704,0 0.2785,-0.159263 0.30936,0.11924 0.62789,0 0.31853,-0.119239 0.95475,-0.676246 0.95475,-0.676246 m -4.27978,5.504777 c 0,0 0.19931,-0.199287 0.83553,-0.159263 0.63622,0.04003 0.70792,0.278503 1.34415,0.08005 0.63621,-0.19929 0.91472,-0.676246 0.91472,-0.676246 l -0.67626,-0.04003 c 0,0 -0.36604,0.238478 -0.63622,0.278502 -0.27015,0.04003 -0.70791,-0.04002 -0.70791,-0.04002 0,0 0.42943,-0.04753 0.82716,-0.357718 0.39774,-0.310189 0.31853,-0.469453 0.7563,-0.78798 0.43693,-0.317693 0.78715,-0.246818 1.02562,-0.715438 0.23848,-0.469452 0.63623,-1.264938 0.63623,-1.264938 0,0 -0.4853,0.278503 -0.91474,0.238479 -0.42943,-0.04003 -0.58869,-0.238479 -0.82717,-0.119239 -0.23847,0.119239 -0.55699,0.357717 -0.55699,0.357717 l -0.13009,0.825505 c 0,0 0.39273,-0.305187 0.68708,-0.316025 0.12508,-0.005 0.31853,0.03919 0.31853,0.03919 0,0 -0.63039,0.180109 -0.7196,0.512812 -0.0759,0.283507 -0.70459,0.601201 -0.70459,0.601201 0,0 -0.517,0.867195 -0.71627,1.026459 -0.19846,0.159264 -0.75548,0.516983 -0.75548,0.516983 m -1.42395,0.986353 c 0,0 0.96308,0.476958 1.39252,0.557007 0.42943,0.07921 0.50864,0.119239 0.86636,0 0.35856,-0.119241 0.39024,0 -0.23847,-0.238479 -0.62789,-0.239314 -1.02563,-0.90722 -1.02563,-0.90722 0,0 -0.2393,0.230974 -0.43776,0.389404 -0.1993,0.159264 -0.55702,0.199288 -0.55702,0.199288 m -1.10567,0.994533 c 0,0 0.27183,0.260992 0.59703,0.42943 0.32521,0.168435 1.06566,0.238477 1.06566,0.238477 0,0 -0.47779,-0.198453 -0.7955,-0.667907 -0.30435,-0.447773 -0.3894,-0.71627 -0.3894,-0.71627 l -0.19929,0.119238 -0.2785,0.597032 z m -4.50626,0.74786 c 0,0 0.46612,0.199287 1.10234,-0.07921 0.63706,-0.278502 0.55618,-0.867196 0.55618,-0.867196 0,0 -0.0793,-0.120073 -0.35772,-0.318528 -0.27851,-0.199287 -0.31853,-0.199287 -0.31853,-0.199287 0,0 -0.1776,0.183445 -0.46613,0.242648 -0.286,0.05919 -0.83383,0.04003 -0.31768,0.158429 0.32186,0.07338 0.90222,-0.140919 0.90305,0.0367 8.3e-4,0.201789 -0.13759,0.530324 -0.37607,0.689587 -0.23847,0.15843 -0.72544,0.336872 -0.72544,0.336872 m 1.10168,0.397496 c 0,0 0.32604,0.238479 0.75547,0.238479 0.42943,0 0.98642,-0.278503 0.98642,-0.278503 0,0 0.04,-0.397743 -0.0392,-0.596198 -0.0801,-0.199287 -0.0801,-0.350213 -0.0801,-0.350213 l -0.47696,-0.07921 c 0,0 0.007,0.310191 -0.35023,0.627883 -0.35771,0.318529 -0.79547,0.437768 -0.79547,0.437768 m 15.70733,-22.917977 c 0,0 -0.19678,-0.762965 -0.73878,-2.007058 -0.36521,-0.839679 -0.8255,-1.786089 -0.3694,-2.759184 0.25517,-0.54283 0.54201,-0.639555 0.93558,-1.588469 0.3944,-0.948913 -0.0734,-1.600143 -0.0734,-1.600143 0,0 0.69043,0.700427 0.50531,1.476734 -0.18511,0.776307 -0.87804,1.598475 -1.04732,2.045416 -0.27099,0.713768 0.1201,1.806936 0.34522,2.400632 0.44277,1.170714 0.44277,2.032072 0.44277,2.032072 m -1.42796,-0.320124 c 0,0 0.14509,1.334982 -0.63873,1.595975 -0.78298,0.260992 -1.40084,0.357718 -1.66184,-0.304352 -0.26184,-0.662071 -0.48363,-1.866139 -0.75379,-2.388126 -0.27016,-0.521984 -0.79716,-0.959752 -1.1457,-0.959752 -0.34771,0 -1.09651,0.0492 -1.09651,0.0492 l -0.19678,0.467785 c 0,0 0.85803,-0.34104 1.29329,-0.123407 0.43526,0.217632 0.81133,0.421924 1.02896,1.334981 0.21763,0.91389 0.0434,2.411471 0.39191,3.282002 0.34771,0.869698 1.13069,1.792762 2.05375,1.706042 0.92306,-0.08672 1.36583,-0.140086 1.83361,-1.014786 0.40442,-0.757963 0.65291,-1.884484 -0.14841,-3.793148 -0.51783,-1.23492 -0.9681,-1.682693 -1.35,-3.049361 -0.41609,-1.485074 0.67458,-1.662681 1.15321,-2.837565 0.47861,-1.174884 0.0876,-1.126521 0,-1.952859 -0.0867,-0.82717 0.19679,-1.963699 0.19679,-1.963699 l -0.58786,0.562011 c 0,0 0.276,1.538438 0.14509,2.147978 -0.13092,0.608703 -1.2441,1.662681 -1.2441,1.662681 0,0 0.83884,-1.219912 0.80132,-2.217187 -0.05,-1.304963 -0.57952,-2.474843 -0.57952,-2.474843 0,0 0.51865,1.390848 -0.025,2.499024 -0.34438,0.702929 -0.46778,0.382733 -0.86135,1.416698 -0.28267,0.741287 -0.24765,1.605147 -0.24765,1.605147 0,0 -0.35689,-0.826338 -0.18263,-1.792762 0.17345,-0.966423 0.31353,-0.870529 0.13926,-1.489242 -0.19095,-0.67958 -0.74879,-1.357494 -0.74879,-1.357494 0,0 0.47528,0.752959 0.18928,1.691866 -0.30434,1.000611 -0.49196,0.776306 -0.46778,1.7494 0.0333,1.297459 0.98393,1.990382 0.98393,1.990382 0,0 -0.74545,0.01417 -1.18072,-1.03063 -0.43527,-1.04397 -0.30768,-1.510921 -0.30768,-1.510921 0,0 -0.522,1.000611 0.13007,2.010393 0.6529,1.009783 0.79299,0.627884 1.66268,1.802767 0.87054,1.174049 1.61932,1.652676 1.7494,2.967644 0.13092,1.314136 -0.0275,2.447328 -0.61787,2.584911 -1.30497,0.305187 -1.88031,-0.87887 -1.88031,-0.87887 0,0 0.98976,0.67041 1.73855,0.191785 0.7488,-0.478626 0.43193,-2.179665 0.43193,-2.179665 m -8.1533,19.609476 c 0,0 1.27744,-1.347489 1.13319,-3.999107 -0.14425,-2.650784 -1.51843,-4.747062 -1.51843,-4.747062 0,0 1.92952,1.832783 1.83362,4.891317 -0.0966,3.058534 -1.44838,3.854852 -1.44838,3.854852 m -9.41991,-3.196059 c 0,0.240982 0.25266,0.372728 0.49364,0.372728 0.20429,0 0.44527,-0.06003 0.44527,-0.264328 0,-0.24098 -0.24098,-0.312691 -0.46946,-0.385234 0,0.120073 0.0243,0.20429 0.0483,0.31269 -0.1084,0 -0.18094,-0.02418 -0.28933,-0.03586 l -0.22848,0 z m 3.5275,2.802698 c -0.006,0.02669 0.21512,0.134249 0.30017,0.265997 0.21013,0.321861 0.47529,-0.07338 0.61122,-0.0067 -0.0583,-0.0517 -0.33856,0.189282 -0.39274,-0.03001 -0.0367,-0.150093 0.12089,-0.280171 0.27015,-0.280171 0.1501,0 0.71961,0.393574 0.71961,0.548668 0,0.117572 -1.22492,0.08005 -1.02646,0.199288 0.33186,-0.0125 1.10568,0.07921 1.10568,0.07921 0,0 0.82717,-0.437767 -0.11925,-0.83551 -0.20261,-0.08506 -0.96558,-0.207627 -1.10233,-0.15426 -0.13758,0.05337 -0.34687,0.135916 -0.36605,0.213463 m 6.35728,-18.374788 c 0,0 -0.21513,0.446107 -1.52343,1.523429 -0.81883,0.67458 -1.22991,1.244928 -1.61514,2.13714 -0.28102,0.65123 -0.24014,1.37417 -0.24014,1.37417 0,0 -1.32415,-0.08004 -1.5668,-0.266829 -0.3644,-0.281005 -1.29495,-1.355826 -2.33642,-1.29996 -1.78444,0.09672 -1.97704,1.010618 -1.97704,1.010618 0,0 2.31474,-0.577019 2.79588,0.940574 0.12506,0.396074 -0.5295,0.240979 -1.32582,-0.240147 -0.3227,-0.19512 0.0483,0.914724 1.27743,0.962253 1.66187,0.06505 0.89222,0.315192 0.0959,0.507811 -0.83217,0.200955 -1.85445,-0.218467 -1.85445,-0.218467 0,0 0.30684,0.435266 1.18071,0.940574 1.26244,0.728778 2.25387,-0.08755 2.77002,-0.04836 1.27745,0.09589 1.80693,1.036466 1.80693,1.036466 0,0 -0.79547,-0.539496 -1.6143,-0.55534 -1.32583,-0.02585 -0.98478,0.909722 -1.99957,1.037301 -0.77047,0.09589 -1.3258,-0.748791 -1.3258,-0.748791 0,0 -0.28851,1.27828 0.89221,1.615152 0.82466,0.235145 0.41608,0.940575 1.18155,0.940575 1.56595,0 0.96809,-0.934737 1.87365,-1.074823 0.90555,-0.140086 1.46338,0.239313 2.0204,0.747958 0.71627,0.75546 2.21969,4.444377 1.17404,6.788308 -0.93556,2.559061 -1.99288,2.836731 -2.73166,2.984322 -0.24098,0.04754 -0.4336,0.625381 -0.4336,0.625381 0,0 -0.0959,0.673744 -0.3277,1.209905 -0.31436,0.725443 -0.62539,0.561175 -0.62539,0.561175 0,0 -0.0434,-0.189281 0.0124,-0.637889 0.0567,-0.448607 -0.0124,-0.828839 -0.0124,-0.828839 0,0 -0.27266,-0.548668 -0.46861,-0.352715 -0.19595,0.196786 -0.19262,0.433599 -0.19262,0.433599 0,0 -0.276,-0.06421 -1.00561,-0.737951 -0.72878,-0.672912 -0.99227,-0.742954 -1.21992,-1.515926 -0.37273,-0.67291 -0.80049,-1.294122 -1.62182,-1.947855 -0.82133,-0.6529 -1.4317,-0.846349 -1.64099,-1.043137 -0.34271,-0.216799 -0.091,-0.287675 0,-0.499471 0.091,-0.211796 0.0541,-0.502808 0.71126,-0.332703 0.46945,-0.01501 0.5445,-0.183446 0.69626,-0.285174 0.54283,-0.363555 -0.30018,-0.992273 0,-1.044805 0.69375,-0.120906 0.54283,0.834675 0.78465,1.044805 0.2418,0.209295 0.38106,0.224303 0.77213,0.330201 0.39108,0.105897 0.58785,0.15176 0.81465,0.04586 0.22682,-0.105896 1.27162,-0.585357 2.04627,-0.225971 1.83779,0.34271 2.4048,2.906775 2.4048,2.906775 0,0 0.29685,-2.347267 -2.33226,-3.842345 -0.72711,-0.545333 -0.92307,-0.700428 -1.27078,-0.803825 -0.34855,-0.103395 -0.76964,0.108396 -1.54178,-0.300183 -0.77213,-0.408582 -0.88053,-0.66624 -1.2716,-0.923897 -0.39107,-0.256823 -0.95057,-0.224303 -1.17822,-0.511978 -0.2268,-0.287676 -0.58786,-0.667908 -0.89055,-1.271611 -0.30268,-0.602868 -0.77214,-1.026459 -0.81715,-1.510921 -0.0458,-0.484463 -0.0458,-1.042303 -0.0458,-1.042303 0,0 0.39357,0.01501 0.75712,0 0.36356,-0.01501 0.83051,-0.03002 0.83051,-0.03002 0,0 0.0642,0.234311 0.62038,0.830507 0.42359,0.453609 0.86886,0.788815 0.96643,0.650397 0.1059,-0.150926 -0.24266,-0.166768 -0.60371,-0.650397 -0.4978,-0.668742 -0.45361,-1.359997 -0.45361,-1.359997 0,0 -1.43839,0.07505 -2.49485,0.03003 -1.05732,-0.04503 -0.90389,0.07172 -1.29747,-0.01918 -0.39357,-0.09006 -2.14714,-0.510311 -2.51068,-0.541164 -0.36357,-0.03001 -0.86136,0.117571 -1.23743,-0.23014 -0.37607,-0.348546 -0.21263,-1.055645 -0.22765,-1.295791 -0.0151,-0.240147 0.10591,-2.523206 0.0151,-2.765022 -0.091,-0.242647 -0.27267,-0.724607 -0.16677,-1.012284 0.10678,-0.286841 0.24014,-0.332702 0.3919,-0.771305 0.15093,-0.439434 0.82885,0.272668 1.07149,0.635389 0.0817,0.122575 0.27432,0.304354 0,0.469453 -0.0184,0.05253 -0.0283,-0.02919 -0.20846,0.460281 -0.27266,0.739617 -0.26266,0.60537 -0.18678,1.347489 0.0759,0.741286 -0.0399,1.089831 0.0658,1.225749 0.10592,0.135916 -8.3e-4,0.152592 0.16595,0.274333 0.16592,0.120907 0.45777,0.45361 0.69792,0.483629 0.2393,0.03085 1.26494,-0.165935 2.12713,-0.120908 0.86303,0.04586 2.01874,0.02585 2.96014,0.120074 1.66185,0.166769 1.91367,0.665406 2.09544,0.52949 0.10005,-0.07505 0.32438,-0.690422 -0.74796,-0.963088 -1.05064,-0.266829 -1.69102,-0.09505 -1.69102,-0.09505 0,0 0.69376,-1.160709 1.20823,-2.114625 0.51448,-0.953081 0.67875,-1.922006 1.2541,-2.691642 0.28018,-0.707933 -0.0517,-1.520928 1.54511,-2.489853 0.57702,-0.351047 1.05565,-1.718549 1.05565,-1.718549 0.1626,-0.114236 0.0184,-0.317693 0.4536,-0.230141 0.43528,0.08671 0.69626,-0.08755 0.69626,-0.08755 0,0 -0.0867,0.226805 0.17428,1.227415 0.261,1.001445 0.97809,2.272221 0.97809,2.272221 0,0 -0.53366,-1.401689 -0.49029,-3.151091 0.0434,-1.7494 0.17427,-2.41147 0.69625,-3.455441 0.52198,-1.044805 0.58619,-0.892212 1.77025,-1.988714 1.18404,-1.097336 1.35917,-1.272443 1.44589,-2.273053 0.0876,-1.000611 0.13173,-1.057312 0,-2.166322 -0.12425,-1.054811 -0.025,-1.510088 -0.42943,-2.3797857 -0.12759,-0.272666 -0.35188,-0.603702 -0.0467,-0.690421 0.30436,-0.08672 0.32354,0.184279 0.67208,0.48863 0.34771,0.3051867 0.80633,0.08506 0.80633,1.0081157 0,0.923064 -0.26683,0.637056 -0.0925,2.125463 0.17343,1.489244 0.68875,2.057923 0.55867,2.536549 -0.13091,0.478625 -0.60204,0.367724 -0.77631,1.159874 -0.17427,0.792984 -0.22347,2.193005 -0.61454,2.628271 -0.39191,0.435266 0.91555,-0.372727 1.62098,2.082103 0.5345,1.859468 0.256,1.577631 -0.31852,2.805046 -0.57535,1.227415 -0.64873,1.578463 -1.41003,2.308908 m -9.97925,14.271871 c -0.10088,0.140085 -0.0742,0.100071 0.0618,0.281837 0.13674,0.181778 0.0658,0.09423 0.27766,0.0492 0.21179,-0.04586 0.2268,-0.136748 0.15176,-0.257657 -0.0759,-0.120907 -0.27267,-0.13258 -0.49113,-0.07338 M 244.10507,7.5670349 c -0.0543,0.7654676 -0.0543,1.4992484 -0.0543,2.2647154 l 0,4.0232887 c 0,0.582855 0.0324,1.671854 0.0543,2.049584 l -1.72606,-0.10757 c 0.21596,-1.208237 0.21596,-2.502361 0.21596,-2.965976 l 0,-2.9993307 c 0,-0.8513535 -0.0434,-1.650174 -0.0543,-2.2647158 l 1.56428,0 z m -2.78062,0 c -0.0216,0.6037018 -0.0543,1.2299175 -0.0543,1.8444594 l 0,1.9737047 c 0,0.572016 0.0109,0.884706 0.0543,1.715213 l -1.67185,-0.107569 c 0.0968,-0.777141 0.16176,-1.489243 0.16176,-2.276389 l 0,-1.3049627 c 0,-0.6145421 -0.0325,-1.2407579 -0.0543,-1.8444597 l 1.56428,0 z m -2.48844,1.0570591 c -0.2268,-0.021683 -0.46362,-0.054207 -0.69042,-0.054207 -1.32666,0 -2.00622,0.8413473 -2.00622,1.963699 0,1.003113 0.64706,1.510089 1.69353,1.510089 0.34521,0 0.69041,-0.05421 1.02479,-0.09755 l 0,1.186556 c -0.32354,0.05421 -0.62539,0.09673 -1.10067,0.09673 -1.38001,0 -3.07355,-0.549502 -3.07355,-2.695812 0,-2.1788299 1.57429,-3.1502561 3.21446,-3.1502561 0.3127,0 0.62538,0.04336 0.93808,0.1192394 l 0,1.1215185 z M 230.1337,7.5670349 c -0.0217,0.6037018 -0.0543,1.4133621 -0.0543,1.8444594 l 0,0.6904207 c 0,1.304963 0.23765,1.941184 1.16489,1.941184 0.7121,0 0.91722,-0.636221 0.91722,-1.574294 l 0,-1.0573107 c 0,-0.6145419 0.0324,-1.2299177 0.0543,-1.8444594 l 1.51009,0 c -0.065,0.5928618 -0.10841,1.4133621 -0.10841,1.8444594 l 0,1.2724427 c 0,1.542608 -0.47445,2.54572 -1.81193,2.54572 -1.08984,0 -1.54261,-0.528656 -1.94119,-0.927233 -0.0759,0.301851 -0.1084,0.549502 -0.19429,0.797988 l -1.37,-0.107569 c 0.1726,-0.777141 0.32352,-1.489243 0.32352,-2.276389 l 0,-1.3049627 c 0,-0.6145421 -0.0324,-1.2407579 -0.0543,-1.8444597 l 1.56428,0 z m -2.7375,0 c -0.0543,0.7979875 -0.10753,1.251597 -0.10753,2.2330304 l 0,1.4775667 c 0,0.679583 0.0751,1.208237 0.10753,1.82278 l -1.67186,-0.107569 c 0.0325,-0.356051 0.10754,-0.971426 0.10754,-1.715215 l 0,-0.787146 c 0,-1.1006707 -0.14009,-1.9203375 -1.16489,-1.9203375 -0.86302,0 -0.98142,0.7979868 -0.98142,1.9203375 l 0,0.787146 c 0,0.679584 0.0759,1.208238 0.10841,1.822781 l -1.67269,-0.107569 c 0.0325,-0.356051 0.10841,-0.971426 0.10841,-1.715215 l 0,-1.4775667 c 0,-1.5317686 0.60369,-2.4164752 1.82277,-2.4164752 1.0573,0 1.51009,0.5611759 1.88781,0.9380729 0.0216,-0.2476515 0.0317,-0.5169826 0.0533,-0.7546276 l 1.40253,0 z m -9.04752,-0.1833647 c 1.71521,0 2.85842,1.3266423 2.85842,2.9551358 0,1.715215 -1.15405,2.890931 -2.85842,2.890931 -1.71522,0 -2.88008,-1.143198 -2.88008,-2.890931 0,-1.7143785 1.18655,-2.9551358 2.88008,-2.9551358 m -1.4242,2.9551358 c 0,1.024793 0.46446,1.704374 1.4242,1.704374 0.93807,0 1.40252,-0.625381 1.40252,-1.704374 0,-1.0031107 -0.45361,-1.7685779 -1.40252,-1.7685779 -0.90637,0 -1.4242,0.7546262 -1.4242,1.7685779 m -1.92826,-1.5205975 c -0.30187,-0.065048 -0.52867,-0.085884 -0.92724,-0.085884 -1.78027,0 -2.75085,1.2507648 -2.75085,2.9009375 0,1.553449 0.89555,2.448995 2.34061,2.448995 0.41024,0 0.81965,-0.07588 1.21906,-0.140919 l 0,1.348322 c -0.42109,0.09756 -0.84134,0.14092 -1.27327,0.14092 -2.48069,0 -3.90405,-1.456722 -3.90405,-3.646392 0,-2.4373207 1.49925,-4.4001854 4.19589,-4.4001854 0.36606,0 0.73296,0.010841 1.09985,0.085887 l 0,1.3483219 z m 26.36617,5.3467675 c 0.23765,1.078992 0.35604,1.671852 0.93807,3.138582 l 1.85529,4.746229 -1.61765,-0.108395 c -0.17259,-0.592861 -0.30185,-1.143197 -0.48529,-1.725219 l -0.67958,-2.125464 -0.0216,0 -0.34522,1.078991 c -0.37773,1.143198 -0.80883,2.18967 -1.13236,2.880092 l -1.61765,-0.108395 c 0.59285,-1.154038 1.22908,-2.340595 1.79025,-3.818164 l 0.57118,-1.510088 -0.23681,-0.690421 c -0.20511,-0.592862 -0.47445,-1.196564 -0.74461,-1.865306 l 1.72605,0.107571 z m -3.62089,3.386811 c -0.1184,-0.02168 -0.23764,-0.03251 -0.35604,-0.03251 -0.79798,0 -0.79798,0.506977 -0.79798,1.273277 l 0,2.178829 1.08898,0 0.0759,1.078159 c -0.48529,-0.05421 -0.85218,-0.05421 -1.16487,-0.05421 l 0,0.183446 c 0,0.226804 0.0543,0.949746 0.0967,1.435042 l -1.55261,-0.539496 0,-1.078992 -0.96058,0 -0.0751,-1.078158 c 0.39859,0.02168 0.798,0.05421 1.03564,0.05421 l 0,-2.707485 c 0,-1.661014 1.15404,-1.931179 1.87615,-1.931179 0.23764,0 0.43192,0.03251 0.64789,0.05421 l 0.0859,1.164877 z m -7.69918,-1.035465 c -0.0217,0.603702 -0.0543,1.413362 -0.0543,1.844458 l 0,0.690421 c 0,1.304964 0.23764,1.941186 1.16487,1.941186 0.7121,0 0.91724,-0.636222 0.91724,-1.574294 l 0,-1.057313 c 0,-0.614541 0.0325,-1.229916 0.0543,-1.844458 l 1.50926,0 c -0.0642,0.592861 -0.10754,1.413362 -0.10754,1.844458 l 0,1.272444 c 0,1.542608 -0.47447,2.54572 -1.81195,2.54572 -1.08982,0 -1.54259,-0.528655 -1.94118,-0.927233 -0.0759,0.301852 -0.1084,0.549503 -0.19428,0.797988 l -1.36999,-0.107571 c 0.1726,-0.77714 0.32352,-1.489242 0.32352,-2.276389 l 0,-1.304963 c 0,-0.614542 -0.0325,-1.240757 -0.0543,-1.84446 l 1.56428,0 z m -2.73752,0 c -0.0543,0.797987 -0.10754,1.251597 -0.10754,2.233029 l 0,1.477569 c 0,0.67958 0.0751,1.208237 0.10754,1.822779 l -1.67185,-0.107571 c 0.0324,-0.35605 0.10754,-0.971426 0.10754,-1.715212 l 0,-0.787148 c 0,-1.100672 -0.1401,-1.920338 -1.16489,-1.920338 -0.86303,0 -0.98142,0.797987 -0.98142,1.920338 l 0,0.787148 c 0,0.67958 0.0759,1.208237 0.1084,1.822778 l -1.67185,-0.10757 c 0.0317,-0.35605 0.10753,-0.971426 0.10753,-1.715213 l 0,-1.477569 c 0,-1.531768 0.6037,-2.416474 1.82278,-2.416474 1.05731,0 1.51009,0.561176 1.88782,0.938905 0.0217,-0.248484 0.0324,-0.517815 0.0533,-0.755461 l 1.40251,0 z m -9.04752,-0.183357 c 1.71522,0 2.85842,1.326643 2.85842,2.955137 0,1.715214 -1.15404,2.890931 -2.85842,2.890931 -1.7152,0 -2.88008,-1.143197 -2.88008,-2.890931 0,-1.714379 1.18656,-2.955137 2.88008,-2.955137 m -1.42336,2.955137 c 0,1.024793 0.46361,1.704373 1.42336,1.704373 0.93807,0 1.40253,-0.625381 1.40253,-1.704373 0,-1.003112 -0.45362,-1.768579 -1.40253,-1.768579 -0.90638,0 -1.42336,0.754628 -1.42336,1.768579 m -1.9291,-1.520597 c -0.30185,-0.06505 -0.52865,-0.08588 -0.92723,-0.08588 -1.78026,0 -2.75085,1.250765 -2.75085,2.900938 0,1.553448 0.89557,2.448995 2.34061,2.448995 0.41024,0 0.81965,-0.07589 1.21906,-0.14092 l 0,1.348323 c -0.42108,0.09756 -0.84133,0.140085 -1.27327,0.140085 -2.48067,0 -3.90404,-1.455888 -3.90404,-3.645558 0,-2.43732 1.49925,-4.400185 4.19589,-4.400185 0.36606,0 0.73294,0.0099 1.09983,0.08588 l 0,1.348323 z m 36.22169,9.554251 c -0.22764,-0.04168 -0.45527,-0.0617 -0.68291,-0.0617 -1.53261,0 -1.53261,0.973094 -1.53261,2.443158 l 0,4.181718 2.09128,0 0.14509,2.071263 c -0.93223,-0.104232 -1.636,-0.104232 -2.23637,-0.104232 l 0,0.352715 c 0,0.434433 0.10339,1.821946 0.18595,2.753348 l -2.98098,-1.034799 0,-2.071264 -1.8428,0 -0.14508,-2.07043 c 0.7663,0.04168 1.5326,0.103396 1.98788,0.103396 l 0,-5.196504 c 0,-3.188614 2.21551,-3.706429 3.6022,-3.706429 0.45611,0 0.82884,0.06254 1.24243,0.103395 l 0.16592,2.236365 z m -14.77769,-1.98772 c -0.0417,1.159876 -0.10339,2.71249 -0.10339,3.540495 l 0,1.324976 c 0,2.505695 0.45528,3.727274 2.23637,3.727274 1.36583,0 1.7594,-1.221579 1.7594,-3.022677 l 0,-2.029573 c 0,-1.179887 0.0626,-2.360608 0.1034,-3.540495 l 2.89928,0 c -0.12424,1.13903 -0.20764,2.71249 -0.20764,3.540495 l 0,2.443157 c 0,2.960974 -0.91056,4.886316 -3.47795,4.886316 -2.09128,0 -2.96097,-1.013953 -3.72727,-1.780253 -0.1451,0.579521 -0.20679,1.055643 -0.37275,1.531767 l -2.62909,-0.206792 c 0.33103,-1.49091 0.62122,-2.857578 0.62122,-4.368499 l 0,-2.505696 c 0,-1.179887 -0.0626,-2.380619 -0.10423,-3.540495 l 3.00266,0 z m -5.91352,2.256876 c -0.76631,-0.145088 -1.55261,-0.331034 -2.33975,-0.331034 -3.18861,0 -3.93409,1.904495 -3.99578,2.877589 l 7.30862,0 c 0,0.207627 0.0208,0.456111 0.0208,0.662905 0,2.443158 -1.11818,5.404132 -4.9897,5.404132 -2.98183,0 -5.13565,-2.029574 -5.13565,-4.948855 0,-3.582186 2.40231,-6.273828 6.43976,-6.273828 0.9114,0 1.78027,0.103395 2.69165,0.331869 l 0,2.277222 z m -6.33553,4.306795 c 0.0826,0.766302 0.72461,2.028739 2.42232,2.028739 1.38751,0 2.1121,-1.200733 2.1121,-2.028739 l -4.53442,0 z m -2.39188,-6.563671 c -1.98789,2.236366 -3.29202,3.851518 -4.51359,5.797706 l -1.28412,2.028738 4.53444,6.915887 -3.47796,0 c -0.29018,-0.683751 -0.91138,-1.863638 -1.67768,-3.126909 l -2.46401,-4.037464 1.98788,-3.374558 c 0.35188,-0.621213 2.21552,-3.230305 2.96098,-4.2034 l 3.93406,0 z m -8.88292,0 c -0.0408,1.076491 -0.1034,2.670797 -0.1034,3.809826 l 0,6.749953 c 0,1.656011 0.0626,3.126075 0.1034,4.182552 l -3.62305,0 c 0.26933,-1.221578 0.41442,-2.526541 0.41442,-4.182552 l 0,-6.749953 c 0,-1.139029 -0.0418,-2.733335 -0.10413,-3.809826 l 3.31285,0 z"
       inkscape:connector-curvature="0" /><g
       id="g6045"
       transform="matrix(0.85585586,0,0,0.85585586,41.744432,3.9204163)"><path
         id="path6038"
         d="m 316.7992,54.397981 c -15.0204,0 -27.19721,-12.175572 -27.19721,-27.197218 0,-15.02324 12.17699,-27.2027598 27.19721,-27.2027598 0.0899,0 0.17758,0.00408 0.2661,0.0056 l 150.13669,-0.00560432 0,54.40000012 -149.50471,-0.02214 c -0.29697,0.0086 -0.59686,0.02218 -0.89808,0.02218 z"
         style="fill:none;stroke:none"
         inkscape:connector-curvature="0" /><path
         d="m 441.6191,30.170519 7.62512,0.02142 c -0.1128,1.272282 -0.49548,2.261834 -1.15376,2.984366 -0.64971,0.713961 -1.49646,1.075228 -2.53172,1.075228 -1.06665,0 -1.9434,-0.361267 -2.64451,-1.075228 -0.69969,-0.722532 -1.13092,-1.719224 -1.29513,-3.005786 z m 13.41108,-9.598518 c -1.33654,-0.869604 -2.75304,-1.513602 -4.23665,-1.937696 -1.48647,-0.416955 -3.07004,-0.629716 -4.76071,-0.629716 -3.38132,0 -6.03156,0.926725 -7.9564,2.778744 -1.91485,1.847736 -2.8787,4.413718 -2.8787,7.687954 0,3.02149 0.941,5.447536 2.81587,7.265286 1.88201,1.817748 4.38373,2.723053 7.50375,2.723053 3.07576,0 5.51036,-0.983841 7.29242,-2.957233 1.78062,-1.966254 2.67307,-4.675028 2.67307,-8.133464 l 0,-0.204194 -13.90513,0 0,-0.08568 c 0,-1.56215 0.53118,-2.79445 1.59784,-3.698329 1.06095,-0.906732 2.51744,-1.357956 4.37088,-1.357956 1.24658,0 2.48888,0.218472 3.73546,0.663985 1.23658,0.445512 2.4903,1.102358 3.7483,1.973392 z m -23.25663,-2.150458 -6.19548,0 0,28.991179 6.19548,0 z m -17.48209,1.82489 c -0.92672,-0.748232 -1.88772,-1.302268 -2.89155,-1.662104 -0.99955,-0.359839 -2.07335,-0.5369 -3.21854,-0.5369 -1.89629,0 -3.32564,0.458362 -4.29378,1.379376 -0.96956,0.919584 -1.44934,2.284681 -1.44934,4.086724 0,1.577857 0.71396,2.872985 2.14331,3.891097 1.42793,1.010971 4.56222,2.220424 9.39862,3.61408 0.0142,0.06997 0.0214,0.148503 0.0286,0.225612 0.006,0.08425 0.0143,0.198481 0.0143,0.339847 0,0.933862 -0.31986,1.627836 -0.94244,2.080488 -0.62828,0.444085 -1.60356,0.671125 -2.91154,0.671125 -1.10522,0 -2.23613,-0.268449 -3.40274,-0.806777 -1.15948,-0.536903 -2.29183,-1.322262 -3.39419,-2.340372 l 0.0857,4.886362 c 1.18661,0.798211 2.49459,1.400794 3.92395,1.79633 1.42935,0.389824 3.03291,0.588305 4.81639,0.588305 2.83585,0 4.88636,-0.545468 6.15293,-1.634973 1.27228,-1.09522 1.90913,-2.843 1.90913,-5.240488 l 0,-7.815039 c 0,-0.458363 0.0642,-0.778219 0.18421,-0.955283 0.12566,-0.177062 0.33128,-0.26845 0.62258,-0.26845 0.26987,0 0.53689,0.03427 0.82105,0.105668 0.2813,0.06426 0.66399,0.197054 1.12949,0.389824 l 0,-3.438446 c -1.11664,-0.536898 -2.10477,-0.932434 -2.97722,-1.180896 -0.86247,-0.24703 -1.6821,-0.374114 -2.45176,-0.374114 -0.98669,0 -1.75492,0.184201 -2.31466,0.55118 -0.5569,0.361264 -0.88389,0.912444 -0.98242,1.647824 z m -0.31128,2.878698 0,4.802116 c -2.11476,-0.742521 -3.52841,-1.399368 -4.23667,-1.959114 -0.71396,-0.55832 -1.06809,-1.222306 -1.06809,-1.993386 0,-0.636854 0.19135,-1.139485 0.57975,-1.515028 0.38982,-0.374116 0.91958,-0.556892 1.59785,-0.556892 0.45264,0 0.941,0.105666 1.47219,0.30986 0.52405,0.205623 1.07522,0.50977 1.65497,0.912444 z m -36.7491,-5.077702 -8.94738,20.015236 6.51991,0 4.3366,-10.650899 4.4123,10.650899 3.19141,0 4.58364,-10.650899 4.20666,10.650899 6.31572,0 -8.94596,-20.015236 -3.0272,0 -4.78782,10.940768 -4.78784,-10.940768 z m -30.97171,2.674504 0,6.44994 c 2.18472,-1.359384 4.02532,-2.300388 5.52464,-2.844428 1.49932,-0.538328 2.94867,-0.80535 4.36375,-0.80535 1.42078,0 2.49601,0.218474 3.23139,0.649707 0.72824,0.438373 1.09665,1.082368 1.09665,1.939123 0,0.691116 -0.22562,1.250864 -0.68541,1.667817 -0.45408,0.425521 -1.52074,0.926724 -3.18998,1.507889 -4.13099,1.449346 -6.97399,2.92725 -8.52329,4.44085 -1.55644,1.513601 -2.33323,3.444157 -2.33323,5.791666 0,2.468884 1.00954,4.477978 3.03434,6.027276 2.02194,1.547871 4.66075,2.31895 7.90642,2.31895 1.64069,0 3.28995,-0.197052 4.95062,-0.601155 1.6564,-0.402676 3.29565,-0.990981 4.90921,-1.760632 l 0,-5.947312 c -1.94483,0.982413 -3.69261,1.703515 -5.24191,2.170447 -1.54788,0.472644 -2.95581,0.706824 -4.22809,0.706824 -1.37938,0 -2.43319,-0.197052 -3.15572,-0.601158 -0.72824,-0.402674 -1.08808,-0.975272 -1.08808,-1.719221 0,-0.606869 0.32557,-1.173756 0.97528,-1.710655 0.64399,-0.53119 1.62641,-1.03239 2.94295,-1.520742 0.27559,-0.105667 0.69255,-0.26845 1.258,-0.474071 2.7659,-1.025251 4.74643,-1.903425 5.94874,-2.631667 1.25801,-0.769652 2.20615,-1.767773 2.85014,-2.984365 0.644,-1.215165 0.961,-2.637379 0.961,-4.263787 0,-2.680216 -1.00955,-4.787836 -3.03435,-6.324284 -2.02051,-1.53359 -4.82924,-2.297533 -8.4219,-2.297533 -1.79776,0 -3.53697,0.232755 -5.21336,0.706824 -1.67638,0.466935 -3.28851,1.173756 -4.83781,2.109047 M 450.4694,7.6778336 l 0,7.3937974 1.84774,0 0,-5.9658742 3.18712,0 0,-1.4279232 z m -1.4879,0 -1.90785,0 0,7.3939394 1.90785,0 z m -3.05576,0.6182912 c -0.44408,-0.2541736 -0.89674,-0.4412312 -1.36367,-0.566888 -0.4655,-0.1213736 -0.951,-0.1827752 -1.4622,-0.1827752 -0.5783,0 -1.11093,0.08853 -1.59499,0.2627392 -0.48264,0.177064 -0.90673,0.4369448 -1.26942,0.7782184 -0.37269,0.3555552 -0.65971,0.7710824 -0.85391,1.248008 -0.19705,0.4740718 -0.29415,0.9852698 -0.29415,1.5307358 0,1.149479 0.38269,2.074778 1.15091,2.778746 0.76679,0.70111 1.77634,1.05238 3.03435,1.05238 0.44979,0 0.89102,-0.04855 1.3194,-0.147076 0.4298,-0.09995 0.85104,-0.251316 1.26942,-0.45551 l 0,-1.7335 c -0.40838,0.265594 -0.81677,0.461218 -1.23087,0.592587 -0.40982,0.129943 -0.82391,0.195627 -1.23515,0.195627 -0.74681,0 -1.33512,-0.201339 -1.76207,-0.608296 -0.42695,-0.404104 -0.64256,-0.962424 -0.64256,-1.674958 0,-0.689686 0.20419,-1.242294 0.614,-1.6535366 0.40697,-0.4126728 0.95815,-0.6182936 1.64783,-0.6182936 0.44408,0 0.88817,0.078536 1.33654,0.2341816 0.44694,0.1570704 0.89246,0.3883944 1.33654,0.6953996 z m -13.50532,4.0267482 0,-4.6450394 -1.82918,0 0,7.3937974 1.6207,0 3.96249,-4.408006 0,4.408006 1.8306,0 0,-7.3937974 -1.44934,0 z m -3.23425,2.748758 0,-4.233801 c 0,-1.0352452 -0.30701,-1.8434524 -0.92102,-2.4217604 -0.61544,-0.5797392 -1.47505,-0.869608 -2.57741,-0.869608 -1.09949,0 -1.95625,0.2898688 -2.57026,0.869608 -0.61686,0.578308 -0.92244,1.3865152 -0.92244,2.4217604 l 0,4.233801 1.85916,0 0,-4.159546 c 0,-0.588308 0.14137,-1.0381026 0.42266,-1.3508186 0.28273,-0.312716 0.69112,-0.4669336 1.22516,-0.4669336 0.53548,0 0.93672,0.1542176 1.2166,0.4640776 0.27988,0.30986 0.41838,0.7625106 0.41838,1.3536746 l 0,4.159546 z m -16.05846,-3.705468 c 0,0.55118 0.0971,1.058094 0.28987,1.523598 0.1942,0.46836 0.48407,0.885313 0.86818,1.250862 0.37269,0.35127 0.79821,0.614008 1.27228,0.786788 0.47265,0.172779 1.00241,0.259882 1.58358,0.259882 0.58687,0 1.12092,-0.0871 1.59499,-0.26131 0.47693,-0.175636 0.90101,-0.436946 1.27656,-0.78536 0.37983,-0.365549 0.6697,-0.782502 0.86389,-1.250862 0.19564,-0.465504 0.29273,-0.972418 0.29273,-1.523598 0,-0.545466 -0.0971,-1.050954 -0.29273,-1.5178838 -0.19419,-0.46836 -0.48406,-0.8810296 -0.86389,-1.2394384 -0.3784,-0.3526992 -0.80535,-0.616864 -1.28371,-0.795356 -0.47692,-0.1784912 -1.00525,-0.2670232 -1.58784,-0.2670232 -0.57832,0 -1.10522,0.08853 -1.57929,0.2627392 -0.47407,0.177064 -0.89959,0.4440848 -1.27657,0.79964 -0.37983,0.3584088 -0.6697,0.7710784 -0.8639,1.2394384 -0.19704,0.4669298 -0.29415,0.9724178 -0.29415,1.5178838 z m 1.902,0 c 0,-0.656846 0.19991,-1.200884 0.59687,-1.6249782 0.39696,-0.4226664 0.90102,-0.635428 1.51504,-0.635428 0.61543,0 1.12234,0.2127616 1.5193,0.635428 0.39697,0.4240942 0.59545,0.9681322 0.59545,1.6249782 0,0.662559 -0.19848,1.206599 -0.59545,1.633548 -0.39696,0.426948 -0.90387,0.63971 -1.5193,0.63971 -0.61402,0 -1.11808,-0.212762 -1.51504,-0.63971 -0.39696,-0.426949 -0.59687,-0.970989 -0.59687,-1.633548 z m -2.63167,-3.0700382 c -0.44266,-0.2541736 -0.89674,-0.4412312 -1.36224,-0.566888 -0.4655,-0.1213736 -0.951,-0.1827752 -1.46362,-0.1827752 -0.57832,0 -1.1095,0.08853 -1.59357,0.2627392 -0.48407,0.177064 -0.90816,0.4369448 -1.27085,0.7782184 -0.37269,0.3555552 -0.65685,0.7710824 -0.85247,1.248008 -0.19563,0.4740718 -0.29415,0.9852698 -0.29415,1.5307358 0,1.149479 0.38125,2.074778 1.14948,2.778746 0.76679,0.70111 1.77776,1.05238 3.03434,1.05238 0.45265,0 0.89245,-0.04855 1.3194,-0.147076 0.42838,-0.09995 0.8539,-0.251316 1.27228,-0.45551 l 0,-1.7335 c -0.40982,0.265594 -0.81963,0.461218 -1.2323,0.592587 -0.41124,0.129943 -0.82392,0.195627 -1.23516,0.195627 -0.7468,0 -1.33511,-0.201339 -1.76348,-0.608296 -0.42552,-0.404104 -0.64114,-0.962424 -0.64114,-1.674958 0,-0.689686 0.20419,-1.242294 0.61258,-1.6535366 0.40696,-0.4126728 0.95814,-0.6182936 1.64925,-0.6182936 0.44409,0 0.88818,0.078536 1.33511,0.2341816 0.44837,0.1570704 0.89388,0.3883944 1.33654,0.6953996 z m -17.86763,-0.6182912 0,7.3937974 1.85059,0 0,-2.964374 3.29279,0 0,2.964374 1.84917,0 0,-7.3937974 -1.84917,0 0,2.9957874 -3.29279,0 0,-2.9957874 z m -1.28942,0.8667488 c -0.44837,-0.3384176 -0.92815,-0.5868792 -1.43364,-0.7525168 -0.50549,-0.164212 -1.05952,-0.245604 -1.66068,-0.245604 -0.58258,0 -1.1152,0.08853 -1.6007,0.2670232 -0.48692,0.178492 -0.90816,0.4369448 -1.26228,0.7739344 -0.37412,0.3555552 -0.6597,0.7710824 -0.8539,1.248008 -0.19562,0.4740718 -0.29415,0.9852698 -0.29415,1.5307358 0,1.153763 0.38268,2.077634 1.14948,2.780174 0.76679,0.70111 1.78062,1.050952 3.04576,1.050952 0.46122,0 0.91958,-0.05426 1.36795,-0.164211 0.45123,-0.107095 0.91102,-0.278447 1.37938,-0.506915 l 0,-1.622122 c -0.48693,0.251314 -0.95671,0.436942 -1.39937,0.559745 -0.44551,0.12566 -0.86104,0.185631 -1.24658,0.185631 -0.74824,0 -1.33368,-0.201339 -1.75634,-0.608296 -0.4241,-0.404104 -0.63686,-0.962424 -0.63686,-1.674958 0,-0.69397 0.20134,-1.246578 0.60687,-1.6578206 0.40411,-0.4083888 0.94957,-0.6140096 1.63211,-0.6140096 0.18421,0 0.36698,0.01856 0.54262,0.05712 0.18134,0.039984 0.35984,0.09567 0.54118,0.1699216 l 0,0.9295786 -1.01954,0 0,1.392228 2.89869,0 z m -8.14631,6.5270486 0,-4.233801 c 0,-1.0352452 -0.30558,-1.8434524 -0.92101,-2.4217604 -0.61401,-0.5797392 -1.47362,-0.869608 -2.57598,-0.869608 -1.0995,0 -1.95626,0.2898688 -2.57169,0.869608 -0.61401,0.578308 -0.92244,1.3865152 -0.92244,2.4217604 l 0,4.233801 1.85915,0 0,-4.159546 c 0,-0.588308 0.14137,-1.0381026 0.4241,-1.3508186 0.2813,-0.312716 0.68968,-0.4669336 1.22516,-0.4669336 0.53119,0 0.93815,0.1542176 1.21516,0.4640776 0.27988,0.30986 0.41981,0.7625106 0.41981,1.3536746 l 0,4.159546 z m -16.05703,-3.705468 c 0,0.55118 0.0971,1.058094 0.28844,1.523598 0.19563,0.46836 0.48407,0.885313 0.86961,1.250862 0.37269,0.35127 0.79679,0.614008 1.27086,0.786788 0.47549,0.172779 1.0024,0.259882 1.58357,0.259882 0.58688,0 1.12235,-0.0871 1.59642,-0.26131 0.4755,-0.175636 0.90102,-0.436946 1.27514,-0.78536 0.37982,-0.365549 0.66969,-0.782502 0.86389,-1.250862 0.19705,-0.465504 0.29415,-0.972418 0.29415,-1.523598 0,-0.545466 -0.0971,-1.050954 -0.29415,-1.5178838 -0.1942,-0.46836 -0.48407,-0.8810296 -0.86389,-1.2394384 -0.37698,-0.3526992 -0.80393,-0.616864 -1.28228,-0.795356 -0.47836,-0.1784912 -1.00669,-0.2670232 -1.58928,-0.2670232 -0.57688,0 -1.10379,0.08853 -1.57786,0.2627392 -0.47407,0.177064 -0.90102,0.4440848 -1.27657,0.79964 -0.38125,0.3584088 -0.6697,0.7710784 -0.86532,1.2394384 -0.19563,0.4669298 -0.29273,0.9724178 -0.29273,1.5178838 z m 1.90343,0 c 0,-0.656846 0.19705,-1.200884 0.59401,-1.6249782 0.39554,-0.4226664 0.90245,-0.635428 1.51504,-0.635428 0.61686,0 1.12377,0.2127616 1.52073,0.635428 0.39697,0.4240942 0.59403,0.9681322 0.59403,1.6249782 0,0.662559 -0.19706,1.206599 -0.59403,1.633548 -0.39696,0.426948 -0.90387,0.63971 -1.52073,0.63971 -0.61259,0 -1.1195,-0.212762 -1.51504,-0.63971 -0.39696,-0.426949 -0.59401,-0.970989 -0.59401,-1.633548 z m -8.56184,-3.6883294 0,7.3937974 2.73019,0 c 1.00526,0 1.74778,-0.175637 2.22614,-0.524049 0.47835,-0.346985 0.71824,-0.888171 0.71824,-1.622123 0,-0.408389 -0.10566,-0.758229 -0.317,-1.049526 -0.21133,-0.288442 -0.53404,-0.5369 -0.97241,-0.738236 0.1842,-0.06569 0.34841,-0.177066 0.49406,-0.334136 0.14707,-0.157074 0.27416,-0.355555 0.38411,-0.594016 l 1.17804,-2.5317114 -2.0862,0 -0.93958,2.1304632 c -0.15278,0.3384182 -0.32556,0.5683162 -0.51976,0.6954002 -0.19277,0.128512 -0.46979,0.191341 -0.82534,0.191341 -0.0271,0 -0.0643,0 -0.10995,-0.0043 -0.0471,-0.0043 -0.0814,-0.0057 -0.1071,-0.0057 l 0,-3.0072116 z m 2.74161,4.3580274 c 0.34271,0 0.5983,0.07425 0.76537,0.217045 0.16707,0.141363 0.25132,0.358409 0.25132,0.649707 0,0.2813 -0.0871,0.492634 -0.26274,0.638281 -0.17421,0.144223 -0.42552,0.218472 -0.75395,0.218472 l -0.88817,0 0,-1.723505 z m -11.90318,-0.669698 c 0,0.55118 0.0971,1.058094 0.28986,1.523598 0.1942,0.46836 0.48407,0.885313 0.86675,1.250862 0.37412,0.35127 0.79821,0.614008 1.27371,0.786788 0.47265,0.172779 1.00241,0.259882 1.58215,0.259882 0.5883,0 1.12092,-0.0871 1.59642,-0.26131 0.4755,-0.175636 0.90102,-0.436946 1.27513,-0.78536 0.38126,-0.365549 0.6697,-0.782502 0.86247,-1.250862 0.19848,-0.465504 0.29558,-0.972418 0.29558,-1.523598 0,-0.545466 -0.0971,-1.050954 -0.29558,-1.5178838 -0.19277,-0.46836 -0.48121,-0.8810296 -0.86247,-1.2394384 -0.37697,-0.3526992 -0.80392,-0.616864 -1.28227,-0.795356 -0.47836,-0.1784912 -1.00669,-0.2670232 -1.58928,-0.2670232 -0.57689,0 -1.10379,0.08853 -1.57786,0.2627392 -0.47407,0.177064 -0.90102,0.4440848 -1.278,0.79964 -0.37983,0.3584088 -0.66969,0.7710784 -0.86389,1.2394384 -0.19563,0.4669298 -0.29272,0.9724178 -0.29272,1.5178838 z m 1.90199,0 c 0,-0.656846 0.19848,-1.200884 0.59545,-1.6249782 0.39696,-0.4226664 0.90245,-0.635428 1.51503,-0.635428 0.61686,0 1.12377,0.2127616 1.52074,0.635428 0.39553,0.4240942 0.59544,0.9681322 0.59544,1.6249782 0,0.662559 -0.19991,1.206599 -0.59544,1.633548 -0.39697,0.426948 -0.90388,0.63971 -1.52074,0.63971 -0.61258,0 -1.11807,-0.212762 -1.51503,-0.63971 -0.39697,-0.426949 -0.59545,-0.970989 -0.59545,-1.633548 z m -8.85314,-3.6883294 0,7.3937974 2.72734,0 c 0.97099,0 1.70494,-0.1585 2.199,-0.478356 0.49692,-0.318428 0.74395,-0.792498 0.74395,-1.419356 0,-0.328424 -0.0842,-0.615438 -0.25131,-0.86247 -0.16707,-0.24703 -0.41125,-0.441228 -0.73253,-0.586876 0.51834,-0.161356 0.90388,-0.401247 1.15805,-0.719675 0.25417,-0.319853 0.38126,-0.723957 0.38126,-1.2065972 0,-0.7111064 -0.24418,-1.2394392 -0.72824,-1.592136 -0.48693,-0.3512712 -1.21945,-0.5283312 -2.1933,-0.5283312 z m 2.81587,4.4694054 c 0.33556,0 0.58545,0.06283 0.74966,0.191343 0.16421,0.127085 0.24561,0.317 0.24561,0.575452 0,0.284159 -0.0842,0.496919 -0.24989,0.638283 -0.16564,0.137084 -0.41267,0.207049 -0.74538,0.207049 l -0.95528,0 0,-1.612127 z m -0.95528,-3.1157342 1.07237,0 c 0.47835,0 0.82106,0.067112 1.02525,0.20134 0.20419,0.1342224 0.307,0.3555528 0.307,0.662556 0,0.3184252 -0.10852,0.5526052 -0.32413,0.7039682 -0.21705,0.151357 -0.55689,0.228468 -1.01811,0.228468 l -1.06238,0 0,-1.7963322 M 323.52108,7.7620784 c -0.88205,1.7691044 -0.27612,3.8819526 -0.63917,5.7804176 -0.26107,3.081998 -0.18222,6.173813 0.0395,9.2546 0.0251,2.11621 -2.01422,4.126684 -4.17169,3.57125 -2.40085,-0.403463 -5.21041,-1.317504 -6.2735,-3.723646 -0.94517,-2.021072 -1.82633,-4.082073 -2.85862,-6.064209 -0.47842,1.23537 0.47816,2.499198 0.47387,3.766953 0.3731,1.198724 0.73694,3.076665 -0.75964,3.652262 -1.69223,0.487031 -3.37763,0.95451 -5.10372,1.328541 1.66709,0.928986 3.6665,-0.0958 5.47613,0.233771 2.09151,-0.315136 4.03746,0.627978 5.4611,2.112261 1.33787,1.290251 2.83093,3.136709 2.07141,5.112043 -0.70612,2.245756 -3.2355,2.780783 -5.1468,3.575356 -2.24525,0.867881 -4.24572,2.233383 -6.33718,3.408633 -0.9246,0.702783 -2.65361,1.168654 -3.06299,2.043594 0.87048,0.128266 1.76938,-0.375503 2.66631,-0.496443 4.51395,-1.059339 9.02789,-2.118678 13.54184,-3.178017 1.75559,-0.806177 2.32376,-2.776156 2.56204,-4.520344 1.15932,-1.045976 2.69265,0.962437 4.12141,0.332399 0.98353,-0.02308 2.83742,1.361315 3.11047,0.944706 -1.42098,-1.124939 -2.28603,-2.652659 -3.21854,-4.127171 -1.07158,-0.669415 -1.4845,-2.211871 0.0483,-2.569547 1.62475,-1.013348 2.26917,-3.131896 1.57437,-4.900068 -0.9693,-3.818875 -1.65695,-7.697663 -2.63227,-11.515322 -0.31299,-1.341071 -0.62494,-2.6823906 -0.94337,-4.0221848 M 316.8879,49.552818 c 12.3074,0 22.27445,-9.961495 22.27445,-22.2689 0,-12.307399 -9.96705,-22.2688988 -22.27445,-22.2688988 -12.3074,0 -22.26889,9.9614998 -22.26889,22.2688988 0,12.307405 9.96149,22.2689 22.26889,22.2689 z"
         style="fill:#ffffff;fill-opacity:1;fill-rule:evenodd;stroke:none"
         id="path12084"
         inkscape:connector-curvature="0" /></g><path
       style="fill:#ffffff"
       d="m 454.18207,2.2320406 c -2.25059,0.769523 -2.64668,4.5025886 -0.62735,5.912902 0.66782,0.4664213 2.21159,0.647824 3.09087,0.3632003 1.12241,-0.3633232 2.08229,-1.798223 2.08562,-3.1177238 8.9e-4,-0.3883286 -0.0313,-0.3937847 -2.33071,-0.3937847 l -2.3317,0 0.11565,-0.3937847 c 0.15371,-0.5232624 0.90996,-1.1813541 1.35759,-1.1813541 0.4838,0 1.07437,0.3122198 1.43651,0.7594672 0.28962,0.3576755 0.31705,0.3597213 0.93679,0.069851 0.73859,-0.3454529 0.76596,-0.4480913 0.28088,-1.0529602 -0.79135,-0.9867292 -2.64712,-1.4332344 -4.01415,-0.9658134 z m 2.58734,4.1647179 c 0,0.3739867 -0.73274,0.8750772 -1.27961,0.8750772 -0.59537,0 -1.2185,-0.4166311 -1.2185,-0.8146951 0,-0.1747669 0.3217,-0.2353977 1.24904,-0.2353977 0.71375,0 1.24907,0.075009 1.24907,0.1750156 z m 16.68387,-4.0253557 c -0.82603,0.4130582 -0.81545,0.4112272 -0.75835,0.1312612 0.031,-0.1516796 -0.22901,-0.2187681 -0.84758,-0.2187681 l -0.89219,0 -0.0407,4.9879398 c -0.0224,2.7433663 -0.0424,5.0863863 -0.0445,5.2067103 -0.003,0.171259 -1.53501,0.218768 -7.05415,0.218768 l -7.05025,0 0.0466,7.219386 c 0.0456,7.080711 0.0534,7.219731 0.40345,7.237229 1.46849,0.07341 1.33829,-0.03552 1.33829,1.11976 l 0,1.050092 -0.8922,0 -0.89218,0 0,2.07407 c 0,1.140735 0.0867,2.318212 0.19282,2.61661 0.2582,0.726423 1.67798,1.43486 2.87565,1.43486 l 0.85715,0 0,1.298032 c 0,0.779251 -0.0776,1.323381 -0.19401,1.361461 -0.40548,0.132566 -3.03009,-0.185126 -3.91729,-0.474165 -1.11633,-0.36367 -2.16199,-1.352698 -2.45933,-2.326129 -0.12089,-0.395727 -0.20998,-1.811199 -0.20998,-3.336059 l 0,-2.64868 -0.89218,0 -0.89218,0 0,-1.040504 0,-1.040503 0.84756,-0.05334 0.84758,-0.05334 0.0464,-7.219388 0.0464,-7.219385 -6.15806,0 -6.15805,0 0,3.587816 0,3.587816 1.23488,0 1.23489,0 0.0587,3.233282 c 0.055,3.023765 0.0834,3.257389 0.43846,3.60532 0.51329,0.502957 1.58245,0.502903 2.09566,-1.12e-4 0.35987,-0.352739 0.37966,-0.540709 0.37966,-3.604914 l 0,-3.232773 1.48459,-3.5e-4 1.48459,-3.49e-4 -0.0572,3.806586 c -0.0665,4.436647 -0.15176,4.733982 -1.52803,5.331094 -1.05847,0.459237 -2.78511,0.367375 -3.58416,-0.190693 -0.65728,-0.459151 -0.7441,-0.461625 -0.7441,-0.0213 0,0.316694 -0.11896,0.350031 -1.24907,0.350031 l -1.24906,0 0,15.313852 0,7.896598 23.9998,0 23.9998,0 -0.005,-9.252968 c -0.004,-12.108893 -0.0585,-16.574446 -0.19949,-16.32019 -1.01579,1.83218 -1.97444,2.448545 -3.80992,2.449538 -0.97592,5.26e-4 -1.39762,-0.08543 -1.9284,-0.393107 -0.7975,-0.462278 -0.83737,-0.469498 -0.83737,-0.151651 0,0.174162 -0.33811,0.265138 -1.20443,0.324075 -0.66247,0.04507 -1.26469,0.04959 -1.3383,0.01008 -0.0737,-0.03954 -0.13383,-3.72943 -0.13383,-8.19977 l 0,-8.127891 -3.65797,0 -3.65795,0 0,-2.275201 c 0,-1.25136 0.0602,-2.2726955 0.13382,-2.2696345 0.0736,0.0031 0.2897,0.1211977 0.48019,0.2625234 0.47864,0.3550752 1.67646,0.3216775 2.4222,-0.067539 0.93992,-0.4905499 1.41823,-1.4487559 1.42178,-2.8481629 0.004,-1.82465 -0.65969,-2.9371766 -1.97473,-3.307092 -0.8498,-0.2390451 -1.06355,-0.218439 -1.85873,0.1791944 z m 1.23551,1.2508939 c 0.56565,0.2527831 0.88677,1.1669309 0.76923,2.1897625 -0.11241,0.9781772 -0.54318,1.4597765 -1.30569,1.4597765 -0.85971,0 -1.32357,-0.6563391 -1.32357,-1.8727699 0,-1.085545 0.21164,-1.5806752 0.77002,-1.8013333 0.52522,-0.2075645 0.57298,-0.2064884 1.09001,0.024564 z M 464.42008,20.14628 c 0.94072,0.51411 0.91431,0.511894 0.91431,0.07669 0,-0.317826 0.11902,-0.350047 1.29367,-0.350225 l 1.29366,-1.76e-4 -0.0534,3.631764 c -0.0621,4.224471 -0.16187,4.585317 -1.46328,5.29433 -0.75652,0.412137 -0.95789,0.43746 -3.47953,0.437538 l -2.67656,8.4e-5 -0.0549,-0.946019 c -0.0302,-0.520312 0.0258,-0.995053 0.12481,-1.054976 0.0989,-0.05992 1.08714,-0.133198 2.19616,-0.162825 2.09625,-0.056 2.51606,-0.191229 2.4265,-0.781617 -0.0424,-0.279337 -0.28392,-0.396816 -1.18523,-0.576477 -1.96529,-0.391748 -3.01959,-0.754161 -3.60898,-1.240591 -1.79307,-1.479842 -1.15821,-4.228493 1.10493,-4.783784 0.90581,-0.222252 2.2914,-0.02267 3.16784,0.456297 z m -2.12624,1.797323 c -0.31074,0.246784 -0.37635,0.42677 -0.28532,0.782519 0.13613,0.531985 0.50908,0.759598 1.94174,1.185059 l 1.02725,0.305063 0,-0.427115 c 0,-0.733598 -0.48275,-1.605339 -1.0477,-1.89188 -0.70677,-0.358483 -1.14177,-0.346156 -1.63597,0.04636 z m 13.74678,-1.938544 c 1.05231,0.425175 1.73722,1.047698 2.05739,1.870005 0.77782,1.997584 -0.51686,3.373546 -3.71469,3.947987 -0.66617,0.119664 -1.38883,0.360524 -1.60595,0.535246 -0.37916,0.305166 -0.38216,0.330173 -0.0761,0.635239 0.45996,0.458412 1.79181,0.415817 2.84415,-0.09096 l 0.8431,-0.406017 0.89339,0.7548 0.89341,0.7548 -0.66588,0.398804 c -1.02004,0.610914 -2.28872,0.91882 -3.78589,0.91882 -2.31539,0 -3.86734,-1.089393 -4.04892,-2.842147 -0.16893,-1.63064 0.92962,-2.534824 3.69018,-3.037319 1.66238,-0.302595 2.06217,-0.535986 1.8804,-1.097732 -0.14591,-0.450878 -1.31426,-0.795626 -2.11915,-0.625305 -0.54436,0.11519 -1.50027,0.561694 -2.10389,0.982725 -0.23843,0.166317 -0.45373,0.06659 -1.21439,-0.562512 l -0.92461,-0.764671 0.41147,-0.320624 c 0.76953,-0.599689 2.09553,-1.184505 3.03913,-1.340391 1.13952,-0.188248 2.85662,-0.05426 3.70682,0.289255 z m 4.00599,-17.7375101 c -2.14437,0.9161171 -2.44973,4.3648957 -0.51468,5.8125397 0.59976,0.4486903 0.81707,0.5043624 1.96866,0.5043624 1.02912,0 1.3955,-0.073964 1.78724,-0.3608447 0.84851,-0.6213631 1.19302,-1.2288904 1.27996,-2.2571279 l 0.0821,-0.969844 -2.25258,0 c -1.30859,0 -2.25255,-0.06989 -2.25255,-0.1667802 0,-0.4344259 0.45213,-1.0545647 0.90218,-1.2374026 0.60643,-0.2463767 1.17483,-0.097362 1.7937,0.4702525 0.45972,0.4216343 0.47339,0.4231411 1.11524,0.1229377 0.35739,-0.1671605 0.64981,-0.3549744 0.64981,-0.4173617 0,-0.3016985 -1.38268,-1.4167344 -1.94771,-1.5706775 -0.87439,-0.2382419 -1.95784,-0.2092194 -2.61129,0.069948 z m 2.59618,4.2042162 c 0,0.791179 -1.30314,1.112271 -2.00741,0.494626 -0.6179,-0.5418962 -0.38713,-0.7446482 0.84757,-0.7446482 0.88623,0 1.15984,0.058984 1.15984,0.2500222 z m -41.04054,-1.1250994 0,3.1685707 0.93679,-0.052897 c 0.6326,-0.035729 0.92232,-0.1239365 0.8922,-0.2716696 -0.061,-0.2987314 0.13211,-0.2745263 0.51402,0.064451 0.48934,0.4343601 1.7378,0.4933728 2.4748,0.1169804 0.60637,-0.3096834 0.64842,-0.3092576 1.44659,0.014632 1.00062,0.4060179 1.96214,0.2830637 2.58818,-0.3309601 0.4127,-0.4047936 0.42615,-0.5039076 0.42615,-3.1386888 l 0,-2.7206933 -0.89218,0 -0.89219,0 -0.002,1.9689235 c -0.003,2.218963 -0.19219,2.8142785 -0.92105,2.897746 C 447.34,7.1585386 447.1345,6.603726 447.1345,4.2576349 l 0,-2.0612429 -0.89219,0 -0.89218,0 0,2.1605677 c 0,1.8708548 -0.0437,2.1994071 -0.32631,2.4502151 -0.40296,0.3576764 -0.98633,0.3737438 -1.27291,0.035061 -0.1385,-0.1636941 -0.22594,-1.0228694 -0.24489,-2.4064616 l -0.0295,-2.1518746 -0.93679,-0.052897 -0.93679,-0.052897 0,3.1685708 z m 18.20058,0 0,3.1502775 0.98141,0 c 0.71963,0 0.9814,-0.064984 0.9814,-0.2436564 0,-0.1906127 0.14569,-0.1690747 0.66915,0.098922 0.77873,0.3986863 2.01324,0.3521864 2.51683,-0.0948 0.29153,-0.2587754 0.37187,-0.252608 1.01876,0.078222 0.94472,0.483138 2.08262,0.3745054 2.7307,-0.2606953 0.46621,-0.456923 0.46971,-0.4802087 0.46971,-3.1256999 l 0,-2.6653474 -0.93681,-0.052897 -0.93678,-0.052897 0,2.1208382 c 0,2.3678953 -0.1326,2.7978869 -0.86278,2.7978869 -0.83966,0 -0.92159,-0.2364883 -0.92159,-2.6602347 l 0,-2.2401972 -0.98141,0 -0.9814,0 0,2.2401972 c 0,2.3569385 -0.0925,2.6602347 -0.811,2.6602347 -0.80694,0 -0.97338,-0.4736609 -0.97338,-2.7702734 l 0,-2.1301585 -0.9814,0 -0.98141,0 z m 26.05183,0 0,3.1502775 0.9814,0 c 0.76074,0 0.98141,-0.060029 0.98141,-0.2670176 0,-0.2393451 0.0545,-0.2393451 0.52645,0 0.28955,0.1468602 0.69104,0.2670176 0.89218,0.2670176 0.31428,0 0.36575,-0.1103426 0.36575,-0.7842355 0,-0.7138925 -0.044,-0.7934687 -0.49072,-0.8871894 -1.33104,-0.2792702 -1.29366,-0.2062833 -1.29366,-2.5251936 l 0,-2.1039366 -0.98141,0 -0.9814,0 z m -2.67656,11.2013263 0,3.850682 0.6665,-0.350372 c 0.46474,-0.24431 1.00704,-0.350371 1.79149,-0.350371 1.72096,0 2.76094,0.635448 3.58041,2.187694 l 0.36957,0.70006 0.008,-4.944186 0.008,-4.944185 -3.21186,0 -3.21187,0 0,3.850678 z m 0.73267,5.523897 c -1.54702,1.276766 -1.00349,4.814813 0.80818,5.260793 0.67199,0.165426 1.56232,-0.318456 1.91063,-1.038418 0.38077,-0.787035 0.38376,-2.523058 0.005,-3.449237 -0.49671,-1.217602 -1.75395,-1.57434 -2.72474,-0.773138 z"
       id="path6060"
       inkscape:connector-curvature="0"
       sodipodi:nodetypes="ssscsccscssssssssccscscscssscccscscscscscccccccccccccccccsscccsscsscccccccsssscscccsccscsccsssscscscccsscccscsssccccscssccsscsscccsssscscsccscccsssccsssssscccssssccsccscssccccsscccsccscccccccssssssscccssscccsssccccccsscssssccccccsssccccccccssccc" /></g><g
     inkscape:groupmode="layer"
     id="layer1"
     inkscape:label="Layer"
     transform="translate(-0.002491,-28.027496)" /></svg>