<?xml version="1.0" encoding="UTF-8" standalone="no"?>
<!-- Created with Inkscape (http://www.inkscape.org/) -->

<svg
   xmlns:dc="http://purl.org/dc/elements/1.1/"
   xmlns:cc="http://creativecommons.org/ns#"
   xmlns:rdf="http://www.w3.org/1999/02/22-rdf-syntax-ns#"
   xmlns:svg="http://www.w3.org/2000/svg"
   xmlns="http://www.w3.org/2000/svg"
   xmlns:sodipodi="http://sodipodi.sourceforge.net/DTD/sodipodi-0.dtd"
   xmlns:inkscape="http://www.inkscape.org/namespaces/inkscape"
   id="svg3232"
   version="1.1"
   inkscape:version="0.48.4 r9943 custom"
   width="253"
   height="68"
   xml:space="preserve"
   sodipodi:docname="logos.svg"><metadata
     id="metadata3238"><rdf:RDF><cc:Work
         rdf:about=""><dc:format>image/svg+xml</dc:format><dc:type
           rdf:resource="http://purl.org/dc/dcmitype/StillImage" /><dc:title></dc:title></cc:Work></rdf:RDF></metadata><defs
     id="defs3236" /><sodipodi:namedview
     pagecolor="#ffffff"
     bordercolor="#666666"
     borderopacity="1"
     objecttolerance="10"
     gridtolerance="10"
     guidetolerance="10"
     inkscape:pageopacity="0"
     inkscape:pageshadow="2"
     inkscape:window-width="819"
     inkscape:window-height="642"
     id="namedview3234"
     showgrid="false"
     inkscape:zoom="1.1867609"
     inkscape:cx="178.63501"
     inkscape:cy="48.015003"
     inkscape:window-x="0"
     inkscape:window-y="22"
     inkscape:window-maximized="0"
     inkscape:current-layer="g3240"
     fit-margin-top="0"
     fit-margin-left="0"
     fit-margin-right="0"
     fit-margin-bottom="0" /><g
     id="g3240"
     inkscape:groupmode="layer"
     inkscape:label="Arts Council"
     transform="matrix(1.25,0,0,-1.25,-0.002491,67.997503)"><rect
       style="opacity:0.8926829;color:#000000;fill:none;stroke:none;stroke-width:7.08661413;marker:none;visibility:visible;display:inline;overflow:visible;enable-background:accumulate"
       id="rect4594"
       width="202.39999"
       height="54.400002"
       x="0.0019927979"
       y="-54.398003"
       transform="scale(1,-1)" /><g
       id="g3242"
       transform="matrix(0.0708213,0,0,0.0708213,0.48643071,0.08644752)"><path
         d="m 129.91,174.16 -12.137,0 0,-74.9803 43.825,0 0,12.9103 -29.707,0 0,62.07 -1.981,0"
         style="fill:#ffffff;fill-opacity:1;fill-rule:nonzero;stroke:none"
         id="path3244"
         inkscape:connector-curvature="0" /><path
         d="m 217.016,157.078 c 4.679,-4.629 7.324,-12.027 7.324,-20.351 0,-12.5 -5.613,-25.782 -21.43,-25.782 -15.808,0 -21.472,13.282 -21.472,25.782 0,8.324 2.695,15.722 7.351,20.351 3.691,3.652 8.434,5.512 14.121,5.488 5.66,0.024 10.418,-1.836 14.106,-5.488 m -50.278,-20.351 c 0,-23.512 14.168,-38.7114 36.172,-38.7114 21.985,0 36.188,15.1994 36.188,38.7114 0,23.144 -14.547,38.711 -36.188,38.711 -21.644,0 -36.172,-15.567 -36.172,-38.711"
         style="fill:#ffffff;fill-opacity:1;fill-rule:nonzero;stroke:none"
         id="path3246"
         inkscape:connector-curvature="0" /><path
         d="m 297.633,174.211 -56.317,0 0,-12.91 22.086,0 0,-62.0744 14.121,0 0,62.0744 21.11,0 0,12.91 -1,0"
         style="fill:#ffffff;fill-opacity:1;fill-rule:nonzero;stroke:none"
         id="path3248"
         inkscape:connector-curvature="0" /><path
         d="m 361.762,174.211 -54.864,0 0,-12.91 20.618,0 0,-62.0744 14.125,0 0,62.0744 22.086,0 0,12.91 -1.965,0"
         style="fill:#ffffff;fill-opacity:1;fill-rule:nonzero;stroke:none"
         id="path3250"
         inkscape:connector-curvature="0" /><path
         d="m 413.871,174.211 -41.781,0 0,-74.9844 43.75,0 0,12.9144 -29.617,0 0,19.468 26.984,0 0,12.895 -26.984,0 0,16.797 29.617,0 0,12.91 -1.969,0"
         style="fill:#ffffff;fill-opacity:1;fill-rule:nonzero;stroke:none"
         id="path3252"
         inkscape:connector-curvature="0" /><path
         d="m 451.121,161.301 c 4.602,0 12.301,-1.098 12.301,-8.496 0,-5.727 -5.039,-9.106 -13.387,-9.106 l -6.723,0 0,17.602 7.809,0 z m -19.953,12.91 -1.98,0 0,-74.9844 14.124,0 0,31.5824 4.133,0 c 5.321,0 7.465,0 10.129,-5.782 l 11.418,-25.8004 16.008,0 -14.809,31.1564 c -1.445,2.832 -2.73,4.566 -4.289,5.894 7.383,2.817 12.219,8.965 12.219,16.758 0,18.653 -14.918,21.176 -29.535,21.176 l -17.418,0"
         style="fill:#ffffff;fill-opacity:1;fill-rule:nonzero;stroke:none"
         id="path3254"
         inkscape:connector-curvature="0" /><path
         d="m 549.516,174.211 -12.961,0 c 0,0 -16.844,-25.941 -19.617,-30.195 -2.801,4.214 -20.075,30.195 -20.075,30.195 l -16.664,0 c 0,0 28.848,-42.91 29.485,-43.867 l 0,-31.1174 14.109,0 0,31.1174 c 0.715,0.957 29.453,43.867 29.453,43.867 l -3.73,0"
         style="fill:#ffffff;fill-opacity:1;fill-rule:nonzero;stroke:none"
         id="path3256"
         inkscape:connector-curvature="0" /><path
         d="m 628.418,174.211 -39.742,0 0,-74.9844 14.113,0 0,32.3824 26.395,0 0,12.895 -26.395,0 0,16.797 27.602,0 0,12.91 -1.973,0"
         style="fill:#ffffff;fill-opacity:1;fill-rule:nonzero;stroke:none"
         id="path3258"
         inkscape:connector-curvature="0" /><path
         d="m 701.016,174.211 -12.145,0 0,-42.246 c 0,-14.555 -4.723,-21.035 -15.414,-21.035 -10.687,0 -15.43,6.48 -15.43,21.035 l 0,42.246 -14.136,0 0,-43.559 c 0,-20.742 10.781,-32.6364 29.566,-32.6364 18.793,0 29.535,11.8944 29.535,32.6364 l 0,43.559 -1.976,0"
         style="fill:#ffffff;fill-opacity:1;fill-rule:nonzero;stroke:none"
         id="path3260"
         inkscape:connector-curvature="0" /><path
         d="m 776.383,174.211 -12.16,0 0,-51.84 c -5.528,10.063 -28.442,51.84 -28.442,51.84 l -16.98,0 0,-74.9844 14.129,0 0,53.1094 c 5.57,-10.078 29.215,-53.1094 29.215,-53.1094 l 16.179,0 0,74.9844 -1.941,0"
         style="fill:#ffffff;fill-opacity:1;fill-rule:nonzero;stroke:none"
         id="path3262"
         inkscape:connector-curvature="0" /><path
         d="m 817.488,161.301 c 14.344,0 24.004,-9.746 24.004,-24.36 0,-16.699 -8.289,-24.8 -25.207,-24.8 l -8.723,0 0,49.16 9.926,0 z m -22.074,12.91 -2,0 0,-74.9844 22.973,0 c 25.289,0 39.828,13.8864 39.828,38.1444 0,21.699 -16.379,36.84 -39.828,36.84 l -20.973,0"
         style="fill:#ffffff;fill-opacity:1;fill-rule:nonzero;stroke:none"
         id="path3264"
         inkscape:connector-curvature="0" /><path
         d="m 909.48,174.211 -41.75,0 0,-74.9844 43.719,0 0,12.9144 -29.617,0 0,19.468 26.996,0 0,12.895 -26.996,0 0,16.797 29.617,0 0,12.91 -1.969,0"
         style="fill:#ffffff;fill-opacity:1;fill-rule:nonzero;stroke:none"
         id="path3266"
         inkscape:connector-curvature="0" /><path
         d="m 948.887,161.301 c 14.351,0 23.984,-9.746 23.984,-24.36 0,-16.699 -8.254,-24.8 -25.215,-24.8 l -8.718,0 0,49.16 9.949,0 z m -22.117,12.91 -1.946,0 0,-74.9844 22.942,0 c 25.324,0 39.828,13.8864 39.828,38.1444 0,21.699 -16.387,36.84 -39.828,36.84 l -20.996,0"
         style="fill:#ffffff;fill-opacity:1;fill-rule:nonzero;stroke:none"
         id="path3268"
         inkscape:connector-curvature="0" /><path
         d="m 626.973,454.973 0.367,-11.09 -20.36,5.199 -0.027,0.113 20.02,5.778 z m 18.832,5.851 -0.399,11.653 -47.98,-17.219 0.484,-12.59 49.047,-14.453 -0.41,11.023 -10.922,3.035 -0.551,15.133 10.731,3.418"
         style="fill:#ffffff;fill-opacity:1;fill-rule:nonzero;stroke:none"
         id="path3270"
         inkscape:connector-curvature="0" /><path
         d="m 613.004,508.762 1.074,3.328 c 1.879,5.785 5.984,5.121 7.895,4.515 3.332,-1.054 5.41,-4.156 4.078,-8.328 l -1.153,-3.351 -11.894,3.836 z m 34.988,-22.899 3.524,10.875 -18.657,6.043 c 1.266,3.965 1.75,5.41 8.633,5.153 l 13.531,-0.422 3.672,11.371 -16.593,0.121 c -6.102,0.051 -8.348,-0.668 -9.844,-3.867 l -0.145,0.031 c 1.117,9.5 -6.414,12.203 -8.328,12.844 -8.551,2.758 -13.949,-2.606 -16.426,-10.246 l -5.55,-16.871 46.183,-15.032"
         style="fill:#ffffff;fill-opacity:1;fill-rule:nonzero;stroke:none"
         id="path3272"
         inkscape:connector-curvature="0" /><path
         d="m 668.121,533.75 6.563,9.336 -32.571,22.82 6.032,8.61 -7.176,5.019 -18.68,-26.629 7.18,-5.023 6.078,8.664 32.574,-22.797"
         style="fill:#ffffff;fill-opacity:1;fill-rule:nonzero;stroke:none"
         id="path3274"
         inkscape:connector-curvature="0" /><path
         d="m 677.543,612.629 c -3.77,-2.008 -6.426,-3.195 -9.805,-6.067 -12.445,-10.429 -4.961,-20.289 -3.972,-21.394 11.093,-13.313 22.796,2.512 28.851,-4.652 2.535,-3.036 1.035,-6.676 -1.734,-8.993 -3.266,-2.761 -6.586,-3.394 -10.106,-4.546 l 5.614,-7.665 c 2,0.864 6.828,3.079 11.324,6.872 7.422,6.222 9.437,15.16 3.512,22.199 -11.067,13.199 -23.067,-2.235 -28.778,4.539 -2.297,2.762 -1.261,5.844 1.582,8.191 2.336,1.989 5.996,3.578 8.938,4.262 l -5.426,7.254"
         style="fill:#ffffff;fill-opacity:1;fill-rule:nonzero;stroke:none"
         id="path3276"
         inkscape:connector-curvature="0" /><path
         d="m 765.371,647.34 c -1.988,0.359 -5.918,1.082 -12.976,-0.578 -9.614,-2.231 -19.68,-11.801 -15.657,-29.133 3.473,-14.996 14.77,-22.574 27.719,-19.586 6.027,1.398 9.691,3.398 11.438,4.434 l -2.696,9.812 c -0.969,-0.746 -3.672,-3.519 -9.09,-4.762 -7.058,-1.636 -13.832,3.379 -15.961,12.575 -2.234,9.527 1.133,16.695 8.532,18.414 5.113,1.175 8.398,0.054 10.312,-0.485 l -1.621,9.309"
         style="fill:#ffffff;fill-opacity:1;fill-rule:nonzero;stroke:none"
         id="path3278"
         inkscape:connector-curvature="0" /><path
         d="m 802.543,625.57 c 1.172,9.227 4.375,16.489 10.898,15.7 6.579,-0.817 7.997,-8.614 6.864,-17.852 -1.149,-9.254 -4.422,-16.504 -10.95,-15.68 -6.566,0.785 -7.933,8.59 -6.812,17.832 m -11.598,1.45 c -1.715,-14.165 3.524,-25.731 17.395,-27.434 13.863,-1.719 21.797,8.211 23.539,22.383 1.754,14.16 -3.527,25.746 -17.445,27.418 -13.848,1.754 -21.735,-8.211 -23.489,-22.367"
         style="fill:#ffffff;fill-opacity:1;fill-rule:nonzero;stroke:none"
         id="path3280"
         inkscape:connector-curvature="0" /><path
         d="m 848.113,610.059 c -5.425,-10.704 -2.199,-19.512 7.508,-24.497 9.77,-4.937 18.781,-2.394 24.227,8.34 l 14.062,27.559 -10.133,5.18 -14.945,-29.157 c -2.172,-4.355 -5.133,-6.191 -9.184,-4.117 -4.117,2.094 -4.375,5.582 -2.136,9.938 l 14.824,29.168 -10.094,5.168 -14.129,-27.582"
         style="fill:#ffffff;fill-opacity:1;fill-rule:nonzero;stroke:none"
         id="path3282"
         inkscape:connector-curvature="0" /><path
         d="m 883.434,570.367 6.898,-7.203 25.352,24.375 0.093,-0.105 -15.597,-34.407 9.406,-9.703 34.891,33.688 -7.02,7.226 -24.137,-23.394 -0.097,0.109 14.359,33.512 -9.219,9.64 -34.929,-33.738"
         style="fill:#ffffff;fill-opacity:1;fill-rule:nonzero;stroke:none"
         id="path3284"
         inkscape:connector-curvature="0" /><path
         d="m 973.121,522.984 c -0.113,2.059 -0.277,6.078 -3.504,12.563 -4.324,8.879 -15.941,16.523 -31.945,8.711 -13.832,-6.723 -18.652,-19.434 -12.867,-31.399 2.734,-5.55 5.511,-8.699 6.937,-10.168 l 8.899,4.809 c -0.918,0.762 -4.164,2.809 -6.594,7.848 -3.195,6.461 0.152,14.242 8.574,18.386 8.84,4.297 16.539,2.571 19.899,-4.261 2.304,-4.676 1.949,-8.121 1.82,-10.114 l 8.781,3.625"
         style="fill:#ffffff;fill-opacity:1;fill-rule:nonzero;stroke:none"
         id="path3286"
         inkscape:connector-curvature="0" /><path
         d="m 934.055,486.27 1.992,-11.208 47.742,8.407 -1.969,11.176 -47.765,-8.375"
         style="fill:#ffffff;fill-opacity:1;fill-rule:nonzero;stroke:none"
         id="path3288"
         inkscape:connector-curvature="0" /><path
         d="m 937.398,457.535 -1.871,-27.355 8.758,-0.672 1.102,16.004 39.672,-2.774 0.796,11.485 -48.457,3.312"
         style="fill:#ffffff;fill-opacity:1;fill-rule:nonzero;stroke:none"
         id="path3290"
         inkscape:connector-curvature="0" /><path
         d="m 640.902,344.246 13.731,-16.308 3.07,2.699 -10.965,12.91 14.715,12.383 9.985,-11.977 3.058,2.68 -9.961,11.953 13.238,11.141 10.446,-12.571 3.105,2.656 -13.238,15.754 -37.184,-31.32"
         style="fill:#ffffff;fill-opacity:1;fill-rule:nonzero;stroke:none"
         id="path3292"
         inkscape:connector-curvature="0" /><path
         d="m 675.375,308.191 3.352,-2.183 23.933,35.562 0.117,-0.078 -7.035,-46.914 4.59,-3.199 27.133,40.332 -3.348,2.207 -24.129,-35.844 -0.109,0.078 7.226,47.168 -4.601,3.203 -27.129,-40.332"
         style="fill:#ffffff;fill-opacity:1;fill-rule:nonzero;stroke:none"
         id="path3294"
         inkscape:connector-curvature="0" /><path
         d="m 750.52,295.691 8.328,-2.398 -4.653,-16.367 c -2.437,-0.508 -4.422,-0.215 -6.824,0.386 -12.316,3.442 -12.937,16.094 -10.492,24.614 4.242,14.683 14.641,17.285 21.285,15.308 3.566,-1.035 7.594,-3.687 8.977,-5.679 l 1.543,4.453 c -1.196,1.148 -5.414,4.019 -9.18,5.133 -13.066,3.711 -23.473,-5.606 -26.91,-17.52 -2.528,-8.887 -2.93,-25.445 13.426,-30.152 3.859,-1.117 7.617,-1.465 11.515,-0.547 l 6.574,23.062 -12.484,3.496 -1.105,-3.789"
         style="fill:#ffffff;fill-opacity:1;fill-rule:nonzero;stroke:none"
         id="path3296"
         inkscape:connector-curvature="0" /><path
         d="m 785.742,268.484 20.098,0 -0.012,3.965 -15.789,0 0,44.516 -4.297,0 0,-48.481"
         style="fill:#ffffff;fill-opacity:1;fill-rule:nonzero;stroke:none"
         id="path3298"
         inkscape:connector-curvature="0" /><path
         d="m 831.062,317.938 0.126,0.023 15.261,-23.125 -16.121,-4.785 0.734,27.887 z m -5.488,-47.34 4.11,1.211 0.535,14.175 18.621,5.215 7.742,-11.679 4.395,1.25 -28.899,42.343 -4.39,-1.304 -2.114,-51.211"
         style="fill:#ffffff;fill-opacity:1;fill-rule:nonzero;stroke:none"
         id="path3300"
         inkscape:connector-curvature="0" /><path
         d="m 881.719,291.199 3.379,2.285 -23.282,35.918 0.11,0.063 40.437,-24.785 4.633,2.871 -26.414,40.855 -3.414,-2.304 23.473,-36.153 -0.149,-0.058 -40.476,25.043 -4.704,-2.891 26.407,-40.844"
         style="fill:#ffffff;fill-opacity:1;fill-rule:nonzero;stroke:none"
         id="path3302"
         inkscape:connector-curvature="0" /><path
         d="m 898.695,361.184 2.25,2.769 c 9.961,12.942 20.688,6.164 26.711,1.34 9.563,-7.449 12.246,-17.078 5.614,-25.574 l -2.743,-3.598 -31.832,25.063 z m 32.379,-30.801 4.633,5.801 c 9.586,12.418 5.289,24.57 -5.836,33.269 -12.332,9.668 -23.23,8.496 -33.137,-4.258 l -3.941,-4.929 38.281,-29.883"
         style="fill:#ffffff;fill-opacity:1;fill-rule:nonzero;stroke:none"
         id="path3304"
         inkscape:connector-curvature="0" /><path
         d="m 368.012,624.434 0,-8.028 5.218,0 c 2.243,0 3.844,0.34 4.891,0.996 1,0.633 1.535,1.653 1.535,3.047 0,1.461 -0.523,2.504 -1.508,3.074 -0.996,0.598 -2.734,0.911 -5.25,0.911 l -4.886,0 z m 0,-22.872 -4.278,0 0,26.43 9.164,0 c 3.239,0 5.524,-0.219 6.872,-0.758 1.328,-0.507 2.414,-1.371 3.226,-2.57 0.777,-1.18 1.219,-2.457 1.219,-3.836 0,-2.004 -0.746,-3.723 -2.121,-5.105 -1.418,-1.391 -3.223,-2.168 -5.449,-2.379 0.996,-0.43 1.941,-1.082 2.793,-2.004 0.874,-0.957 1.964,-2.508 3.3,-4.656 l 3.223,-5.122 -5.203,0 -2.336,4.118 c -1.668,2.98 -2.949,4.89 -3.926,5.765 -0.949,0.895 -2.273,1.321 -3.937,1.321 l -2.547,0 0,-11.204 z m 5.601,33.708 c -5.648,0 -10.468,-2.028 -14.488,-6.047 -3.988,-3.973 -6.004,-8.793 -6.004,-14.457 0,-5.664 2.016,-10.5 5.996,-14.477 3.992,-4.004 8.836,-5.988 14.496,-5.988 5.657,0 10.492,1.984 14.489,5.996 3.972,3.988 5.984,8.844 5.984,14.469 0,5.664 -2.012,10.484 -5.984,14.457 -4.004,4.019 -8.844,6.047 -14.489,6.047 m 0,4.031 c 4.383,0 8.512,-1.098 12.289,-3.285 3.801,-2.2 6.766,-5.239 9.02,-9.008 2.187,-3.801 3.308,-7.867 3.308,-12.242 0,-4.414 -1.121,-8.512 -3.308,-12.286 -2.195,-3.757 -5.199,-6.726 -8.988,-8.941 -3.809,-2.176 -7.914,-3.289 -12.321,-3.289 -4.402,0 -8.539,1.113 -12.32,3.289 -3.809,2.184 -6.801,5.145 -9.008,8.922 -2.187,3.793 -3.269,7.891 -3.269,12.305 0,4.437 1.082,8.492 3.289,12.281 2.207,3.789 5.246,6.769 9.019,8.988 3.789,2.168 7.895,3.266 12.289,3.266"
         style="fill:#ffffff;fill-opacity:1;fill-rule:nonzero;stroke:none"
         id="path3306"
         inkscape:connector-curvature="0" /><path
         d="m 312.578,447.559 c 7.535,5.918 16.176,8.211 22.988,5.367 10.914,-4.582 11.207,-19.25 3.743,-35.543 -3.211,-6.914 -7.938,-12.492 -13.2,-16.41 -7.047,-5.149 -14.023,-7.129 -20.019,-4.895 -14.215,5.395 -17.059,32.656 -6.348,60.949 10.742,28.325 30.832,46.852 45.067,41.52 13.007,-4.93 16.48,-28.25 8.687,-53.895 1.012,9.668 -2.246,18.286 -9.316,21.77 -9.996,4.949 -23.727,-2.512 -30.606,-16.578 -0.351,-0.75 -0.683,-1.539 -0.996,-2.285"
         style="fill:#ffffff;fill-opacity:1;fill-rule:nonzero;stroke:none"
         id="path3308"
         inkscape:connector-curvature="0" /><path
         d="m 398.227,432.125 c 3.519,19.602 -1.528,34.551 -12.36,34.551 -12.199,0 -27.207,-18.817 -33.484,-41.965 -6.321,-23.219 -1.488,-41.996 10.703,-41.996 7.816,0 16.84,7.812 23.957,19.594 1.031,1.711 2.019,3.574 2.762,5.461 4.875,12.675 2.406,25.066 -6.176,27.382 -5.223,1.457 -11.094,0.36 -16.66,-4.554 0.183,0.558 0.426,1.156 0.683,1.761 4.621,10.961 14.696,17.629 22.516,14.946 5.516,-1.918 8.367,-7.953 8.059,-15.18"
         style="fill:#ffffff;fill-opacity:1;fill-rule:nonzero;stroke:none"
         id="path3310"
         inkscape:connector-curvature="0" /><path
         d="m 275.152,609.945 c -13.433,30.414 -26.976,48.446 -40.07,39.446 -17.113,-11.707 -13.437,-41.668 7.402,-93.418 9.403,19.043 20.637,38.785 32.668,53.972"
         style="fill:#ffffff;fill-opacity:1;fill-rule:nonzero;stroke:none"
         id="path3312"
         inkscape:connector-curvature="0" /><path
         d="m 302.973,312.629 c -41.27,0 -76.938,37.848 -93.813,92.809 23.735,-42.54 62.957,-70.333 107.457,-70.333 18.074,0 35.34,4.614 50.981,12.93 -17.696,-22.168 -40.18,-35.406 -64.625,-35.406 m 91.922,88.887 c -0.61,-1.614 -1.317,-3.149 -2.125,-4.602 -8.102,-15.019 -19.68,-24.883 -31.036,-24.883 -12.375,0 -21.093,11.778 -23.531,29.039 -3.226,-4.312 -7.152,-7.867 -11.344,-10.601 -8.797,-5.762 -17.879,-7.754 -25.781,-4.766 -18.695,7.074 -23.797,39.453 -11.375,72.32 5.695,15.098 14.086,27.637 23.379,36.149 -2.203,8.91 -4.699,18.633 -7.461,28.715 -1.269,-2.512 -2.555,-5.028 -3.84,-7.617 -6.414,-12.668 -14.652,-20.985 -23.379,-26.415 5.77,10.063 11.422,20.27 16.422,30.024 25.864,50.769 46.446,95.68 27.473,106.769 -23.508,13.704 -54.996,-34.32 -78.703,-85.636 -23.797,-51.235 -37.516,-103.375 -37.516,-103.375 0,0 -23.668,44.011 -69.883,44.011 -23.601,0 -38.3083,-11.515 -38.3083,-21.668 0,-7.218 5.8513,-11.792 13.3833,-13.796 15.109,-3.914 23.039,-9.625 34.421,-25.196 11.477,-15.754 20.457,-53.972 22.368,-62.89 12.136,-50.86 57.882,-88.614 112.476,-88.614 63.875,0 115.66,51.782 115.66,115.715 0,5.879 -0.449,11.625 -1.3,17.317"
         style="fill:#ffffff;fill-opacity:1;fill-rule:nonzero;stroke:none"
         id="path3314"
         inkscape:connector-curvature="0" /><path
         d="m 494.641,268.484 7.48828,0 0,400.656 -7.48828,0 0,-400.656 z"
         style="fill:#ffffff;fill-opacity:1;fill-rule:nonzero;stroke:none"
         id="path3316"
         inkscape:connector-curvature="0" /><path
         d="m 1246.78,491.406 36.46,0 63.29,-161.203 -35.79,0 -13.86,36.926 -65.35,0 -14.09,-36.926 -33.5,0 62.84,161.203 z m 17.76,-32.351 -0.48,0 -23.28,-66.512 47.09,0 -23.33,66.512"
         style="fill:#ffffff;fill-opacity:1;fill-rule:nonzero;stroke:none"
         id="path3318"
         inkscape:connector-curvature="0" /><path
         d="m 1363.36,491.41 34.89,0 c 34.63,0 75.95,1.149 75.95,-43.68 0,-18.921 -12.69,-34.601 -33.24,-37.398 l 0,-0.426 c 8.79,-0.703 13.85,-9.496 17.1,-16.644 l 25.86,-63.078 -36.03,0 -19.39,50.363 c -4.66,11.996 -8.75,16.637 -22.41,16.637 l -10.41,0 0,-67 -32.32,0 0,161.226 z m 32.32,-68.855 10.66,0 c 15.91,0 34.18,2.336 34.18,22.425 0,19.391 -18.03,21.016 -34.18,21.016 l -10.66,0 0,-43.441"
         style="fill:#ffffff;fill-opacity:1;fill-rule:nonzero;stroke:none"
         id="path3320"
         inkscape:connector-curvature="0" /><path
         d="m 1535.87,465.996 -46.19,0 0,25.414 124.72,0 0,-25.414 -46.24,0 0,-135.812 -32.29,0 0,135.812"
         style="fill:#ffffff;fill-opacity:1;fill-rule:nonzero;stroke:none"
         id="path3322"
         inkscape:connector-curvature="0" /><path
         d="m 1721.52,461.836 c -10.16,4.394 -21.48,6.941 -32.77,6.941 -11.1,0 -25.43,-4.867 -25.43,-22.414 0,-27.945 70.69,-16.16 70.69,-70.191 0,-35.344 -27.97,-48.762 -60.51,-48.762 -17.55,0 -25.41,2.285 -41.34,6.25 l 2.97,29.106 c 11.13,-6.02 23.82,-9.946 36.51,-9.946 12.24,0 28.63,6.25 28.63,20.793 0,30.719 -70.66,18.02 -70.66,71.371 0,36.039 27.92,49.196 56.36,49.196 13.83,0 26.76,-1.852 38.55,-5.785 l -3,-26.559"
         style="fill:#ffffff;fill-opacity:1;fill-rule:nonzero;stroke:none"
         id="path3324"
         inkscape:connector-curvature="0" /><path
         d="m 1940.22,332.473 c -11.77,-2.754 -24.49,-5.039 -36.72,-5.039 -52.19,0 -88.46,26.089 -88.46,80.628 0,55.157 33.72,86.118 88.46,86.118 10.61,0 24.71,-2.086 36.48,-6.719 l -2.31,-27.246 c -12.24,6.941 -23.31,8.551 -34.87,8.551 -33.25,0 -54.04,-25.399 -54.04,-58.434 0,-32.793 20.3,-57.512 54.74,-57.512 12.71,0 27.67,2.793 35.32,6.7 l 1.4,-27.047"
         style="fill:#ffffff;fill-opacity:1;fill-rule:nonzero;stroke:none"
         id="path3326"
         inkscape:connector-curvature="0" /><path
         d="m 2034.18,494.18 c 50.57,0 79,-34.196 79,-82.914 0,-48.715 -27.98,-83.832 -79,-83.832 -51.71,0 -78.96,34.414 -78.96,83.832 0,49.422 27.7,82.914 78.96,82.914 m 0,-141.36 c 33.01,0 45.29,29.348 45.29,58.446 0,28.418 -13.2,57.5 -45.29,57.5 -32.08,0 -45.25,-29.082 -45.25,-57.5 0,-29.098 12.25,-58.446 45.25,-58.446"
         style="fill:#ffffff;fill-opacity:1;fill-rule:nonzero;stroke:none"
         id="path3328"
         inkscape:connector-curvature="0" /><path
         d="m 2134.62,491.406 32.34,0 0,-93.097 c 0,-27.489 8.76,-45.489 33.5,-45.489 24.68,0 33.49,18 33.49,45.489 l 0,93.097 32.31,0 0,-103.027 c 0,-43.176 -24.48,-60.969 -65.8,-60.969 -41.34,0 -65.84,17.793 -65.84,60.969 l 0,103.027"
         style="fill:#ffffff;fill-opacity:1;fill-rule:nonzero;stroke:none"
         id="path3330"
         inkscape:connector-curvature="0" /><path
         d="m 2290.5,491.406 39.71,0 61.42,-120.586 0.47,0 0,120.586 30.95,0 0,-161.203 -39.49,0 -61.64,120.559 -0.47,0 0,-120.559 -30.95,0 0,161.203"
         style="fill:#ffffff;fill-opacity:1;fill-rule:nonzero;stroke:none"
         id="path3332"
         inkscape:connector-curvature="0" /><path
         d="m 2569.2,332.473 c -11.76,-2.754 -24.47,-5.039 -36.7,-5.039 -52.2,0 -88.46,26.089 -88.46,80.628 0,55.157 33.72,86.118 88.46,86.118 10.61,0 24.69,-2.086 36.45,-6.719 l -2.27,-27.246 c -12.27,6.941 -23.32,8.551 -34.86,8.551 -33.25,0 -54.06,-25.399 -54.06,-58.434 0,-32.793 20.3,-57.512 54.74,-57.512 12.68,0 27.7,2.793 35.31,6.7 l 1.39,-27.047"
         style="fill:#ffffff;fill-opacity:1;fill-rule:nonzero;stroke:none"
         id="path3334"
         inkscape:connector-curvature="0" /><path
         d="m 2593.69,330.203 32.3281,0 0,161.203 -32.3281,0 0,-161.203 z"
         style="fill:#ffffff;fill-opacity:1;fill-rule:nonzero;stroke:none"
         id="path3336"
         inkscape:connector-curvature="0" /><path
         d="m 2651.41,491.406 32.32,0 0,-135.793 62.6,0 0,-25.41 -94.92,0 0,161.203"
         style="fill:#ffffff;fill-opacity:1;fill-rule:nonzero;stroke:none"
         id="path3338"
         inkscape:connector-curvature="0" /><path
         d="m 1184.42,260.461 95.16,0 0,-25.371 -62.84,0 0,-39.746 57.52,0 0,-25.41 -57.52,0 0,-45.254 63.29,0 0,-25.4144 -95.61,0 0,161.1954"
         style="fill:#ffffff;fill-opacity:1;fill-rule:nonzero;stroke:none"
         id="path3340"
         inkscape:connector-curvature="0" /><path
         d="m 1306.56,260.461 39.75,0 61.41,-120.527 0.46,0 0,120.527 30.96,0 0,-161.1954 -39.48,0 -61.69,120.5464 -0.45,0 0,-120.5464 -30.96,0 0,161.1954"
         style="fill:#ffffff;fill-opacity:1;fill-rule:nonzero;stroke:none"
         id="path3342"
         inkscape:connector-curvature="0" /><path
         d="m 1595,229.285 c -12.47,5.781 -28.65,8.535 -41.62,8.535 -37.62,0 -58.37,-25.386 -58.37,-58.418 0,-32.769 20.3,-57.476 54.71,-57.476 8.81,0 15.71,0.918 21.25,2.285 l 0,42.027 -34.19,0 0,25.41 65.11,0 0,-86.836 c -17.07,-4.609 -34.86,-8.3198 -52.17,-8.3198 -52.18,0 -88.44,26.1128 -88.44,80.6058 0,55.199 33.73,86.132 88.44,86.132 18.71,0 33.48,-2.515 47.36,-6.699 L 1595,229.285"
         style="fill:#ffffff;fill-opacity:1;fill-rule:nonzero;stroke:none"
         id="path3344"
         inkscape:connector-curvature="0" /><path
         d="m 1627.76,260.461 32.34,0 0,-135.781 62.57,0 0,-25.4144 -94.91,0 0,161.1954"
         style="fill:#ffffff;fill-opacity:1;fill-rule:nonzero;stroke:none"
         id="path3346"
         inkscape:connector-curvature="0" /><path
         d="m 1799.79,260.461 36.5,0 63.29,-161.2149 -35.79,0 -13.88,36.9529 -65.33,0 -14.08,-36.9529 -33.51,0 62.8,161.2149 z m 17.79,-32.309 -0.43,0 -23.36,-66.519 47.12,0 -23.33,66.519"
         style="fill:#ffffff;fill-opacity:1;fill-rule:nonzero;stroke:none"
         id="path3348"
         inkscape:connector-curvature="0" /><path
         d="m 1915.25,260.461 39.73,0 61.43,-120.527 0.44,0 0,120.527 30.96,0 0,-161.1954 -39.49,0 -61.68,120.5464 -0.45,0 0,-120.5464 -30.94,0 0,161.1954"
         style="fill:#ffffff;fill-opacity:1;fill-rule:nonzero;stroke:none"
         id="path3350"
         inkscape:connector-curvature="0" /><path
         d="m 2074.2,260.461 44.12,0 c 49.38,0 93.05,-16.645 93.05,-80.609 0,-63.922 -43.67,-80.5864 -93.05,-80.5864 l -44.12,0 0,161.1954 z m 32.33,-135.781 18.02,0 c 26.99,0 53.11,20.078 53.11,55.172 0,35.136 -26.12,55.214 -53.11,55.214 l -18.02,0 0,-110.386"
         style="fill:#ffffff;fill-opacity:1;fill-rule:nonzero;stroke:none"
         id="path3352"
         inkscape:connector-curvature="0" /><path
         d="m 1186.05,585.297 c 3.75,-1.621 9.14,-3.047 16.04,-3.047 10.98,0 23.26,5.684 23.26,20.012 0,20.722 -32.51,20.828 -32.51,35.047 0,9.144 8.04,12.195 15.36,12.195 4.77,0 9.75,-0.914 12.89,-2.641 l 1.12,6.395 c -4.86,1.82 -10.46,2.328 -13.91,2.328 -12.5,0 -22.44,-7.102 -22.44,-18.477 0,-18.589 32.5,-20.324 32.5,-34.242 0,-10.062 -7.22,-14.527 -15.96,-14.527 -6.6,0 -11.48,1.519 -15.64,4.164 l -0.71,-7.207 z m 93.96,49.973 -6.4,0 0,-28.645 c 0,-8.641 -3.64,-18.891 -15.34,-18.891 -8.84,0 -12.3,6.289 -12.3,16.043 l 0,31.493 -6.38,0 0,-33.118 c 0,-11.375 4.86,-19.902 17.67,-19.902 10.77,0 14.63,5.777 16.76,10.453 l 0.21,0 0,-9.226 6.19,0 c -0.41,4.164 -0.41,8.222 -0.41,12.183 l 0,39.61 z m 16.82,-73.129 6.39,0 0,30.156 0.2,0 c 3.16,-6.692 8.03,-10.047 16.16,-10.047 14.23,0 21.32,11.773 21.32,27.121 0,15.746 -6.07,27.113 -21.32,27.113 -10.98,0 -14.94,-7.8 -16.56,-10.648 l -0.21,0 0.41,9.434 -6.39,0 0,-73.129 z m 37.08,47.23 c 0,-10.055 -3.15,-21.637 -15.34,-21.637 -11.39,0 -15.35,12.192 -15.35,21.637 0,9.453 3.96,21.645 15.35,21.645 12.19,0 15.34,-11.582 15.34,-21.645 m 21.24,-47.23 6.38,0 0,30.156 0.21,0 c 3.15,-6.692 8.03,-10.047 16.16,-10.047 14.23,0 21.33,11.773 21.33,27.121 0,15.746 -6.09,27.113 -21.33,27.113 -10.98,0 -14.94,-7.8 -16.56,-10.648 l -0.2,0 0.39,9.434 -6.38,0 0,-73.129 z m 37.08,47.23 c 0,-10.055 -3.15,-21.637 -15.35,-21.637 -11.38,0 -15.35,12.192 -15.35,21.637 0,9.453 3.97,21.645 15.35,21.645 12.2,0 15.35,-11.582 15.35,-21.645 m 18.27,0 c 0,-14.121 7.41,-27.121 24.18,-27.121 16.76,0 24.17,13 24.17,27.121 0,14.129 -7.41,27.113 -24.17,27.113 -16.77,0 -24.18,-12.984 -24.18,-27.113 m 7,0 c 0,11.992 6,21.645 17.18,21.645 11.17,0 17.17,-9.653 17.17,-21.645 0,-11.992 -6,-21.637 -17.17,-21.637 -11.18,0 -17.18,9.645 -17.18,21.637 m 55.17,-25.894 6.39,0 0,25.593 c 0,9.348 2.74,20.727 12.9,20.727 1.63,0 3.35,-0.203 4.68,-0.613 l 0,6.695 c -1.12,0.309 -2.95,0.605 -4.47,0.605 -6.62,0 -10.98,-5.371 -13.32,-11.156 l -0.19,0 0,9.942 -6.4,0 c 0.41,-3.747 0.41,-5.875 0.41,-11.571 l 0,-40.222 z m 60.49,51.793 -11.78,0 0,14.726 -6.39,-2.23 0,-12.496 -10.16,0 0,-5.473 10.16,0 0,-30.281 c 0,-9.45 0.41,-17.266 11.77,-17.266 3.15,0 6.3,0.816 7.82,1.426 l -0.4,5.269 c -1.83,-0.707 -3.45,-1.211 -5.89,-1.211 -5.18,0 -6.91,3.86 -6.91,8.532 l 0,33.531 11.78,0 0,5.473 z m 47.06,-43.676 c -3.04,-1.93 -9.85,-3.86 -14.52,-3.86 -11.19,0 -17.07,8.836 -17.07,19.821 l 35.44,0 0,3.238 c 0,13.918 -5.98,25.691 -20.61,25.691 -13.11,0 -21.83,-11.265 -21.83,-27.113 0,-15.543 6.38,-27.121 23.56,-27.121 4.78,0 10.56,1.016 15.03,2.848 l 0,6.496 z m -31.59,21.422 c 0,8.543 5.78,18 15.24,18 9.54,0 13.21,-8.946 13.21,-18 l -28.45,0 z m 90.65,46.636 -6.39,0 0,-33.113 -0.2,0 c -0.92,2.547 -6,9.945 -16.16,9.945 -15.25,0 -21.33,-11.367 -21.33,-27.113 0,-15.348 7.1,-27.121 21.33,-27.121 7.42,0 12.7,2.848 16.16,9.438 l 0.2,0 0,-8.211 6.39,0 0,76.175 z m -37.08,-50.281 c 0,10.063 3.15,21.645 15.34,21.645 11.39,0 15.35,-12.192 15.35,-21.645 0,-9.445 -3.96,-21.637 -15.35,-21.637 -12.19,0 -15.34,11.582 -15.34,21.637 m 112.72,25.899 -6.39,0 0,-28.645 c 0,-8.641 -3.67,-18.891 -15.35,-18.891 -8.84,0 -12.3,6.289 -12.3,16.043 l 0,31.493 -6.38,0 0,-33.118 c 0,-11.375 4.86,-19.902 17.67,-19.902 10.76,0 14.62,5.777 16.76,10.453 l 0.2,0 0,-9.226 6.19,0 c -0.4,4.164 -0.4,8.222 -0.4,12.183 l 0,39.61 z m 12.59,-50.582 c 4.57,-1.833 9.54,-2.438 14.52,-2.438 7.83,0 18.08,3.758 18.08,14.719 0,16.972 -25.5,15.754 -25.5,25.402 0,6.617 4.58,8.645 11.18,8.645 3.56,0 8.14,-0.918 11.48,-2.438 l 0.6,5.582 c -4.55,1.719 -10.04,2.324 -12.79,2.324 -8.54,0 -16.86,-3.847 -16.86,-14.113 0,-15.027 24.89,-13.098 24.89,-25.402 0,-5.883 -5.39,-9.235 -11.48,-9.235 -4.99,0 -9.66,1.309 -13.51,3.25 l -0.61,-6.296 z m 45.31,-1.211 6.38,0 0,51.793 -6.38,0 0,-51.793 z m 6.38,74.136 -6.38,0 0,-8.519 6.38,0 0,8.519 z m 17.12,-74.136 6.39,0 0,28.648 c 0,8.629 3.66,18.891 15.35,18.891 8.84,0 12.29,-6.293 12.29,-16.051 l 0,-31.488 6.39,0 0,33.109 c 0,11.379 -4.87,19.898 -17.67,19.898 -10.78,0 -14.63,-5.777 -16.78,-10.449 l -0.19,0 0,9.235 -6.18,0 c 0.4,-4.168 0.4,-8.227 0.4,-12.188 l 0,-39.605 z m 61.71,25.894 c 0,10.063 3.16,21.645 15.34,21.645 11.7,0 15.36,-9.145 15.36,-21.645 0,-9.445 -4.17,-20.426 -15.76,-20.426 -10.87,0 -14.94,10.258 -14.94,20.426 m 37.08,25.899 -6.38,0 0,-5.883 -0.21,0 c -4.77,6.195 -9.25,7.097 -16.16,7.097 -15.25,0 -21.33,-11.367 -21.33,-27.113 0,-11.484 5.28,-25.894 21.84,-25.894 6.61,0 12.3,2.636 15.75,10.14 l 0.2,0 c 0,-14.613 -1.42,-26.613 -17.88,-26.613 -5.59,0 -11.28,1.629 -15.25,3.672 l -0.5,-6.41 c 2.65,-0.805 8.83,-2.739 15.64,-2.739 17.79,0 24.28,11.778 24.28,26.207 l 0,47.536 z m 34.62,-73.129 6.37,0 0,30.156 0.21,0 c 3.16,-6.692 8.03,-10.047 16.16,-10.047 14.23,0 21.32,11.773 21.32,27.121 0,15.746 -6.08,27.113 -21.32,27.113 -10.98,0 -14.95,-7.8 -16.57,-10.648 l -0.2,0 0.4,9.434 -6.37,0 0,-73.129 z m 37.07,47.23 c 0,-10.055 -3.15,-21.637 -15.34,-21.637 -11.39,0 -15.36,12.192 -15.36,21.637 0,9.453 3.97,21.645 15.36,21.645 12.19,0 15.34,-11.582 15.34,-21.645 m 61.85,25.899 -6.39,0 0,-28.645 c 0,-8.641 -3.65,-18.891 -15.34,-18.891 -8.85,0 -12.3,6.289 -12.3,16.043 l 0,31.493 -6.39,0 0,-33.118 c 0,-11.375 4.87,-19.902 17.67,-19.902 10.77,0 14.63,5.777 16.77,10.453 l 0.2,0 0,-9.226 6.19,0 c -0.41,4.164 -0.41,8.222 -0.41,12.183 l 0,39.61 z m 16.82,-51.793 6.39,0 0,8.211 0.21,0 c 3.46,-6.59 8.74,-9.438 16.15,-9.438 14.23,0 21.34,11.773 21.34,27.121 0,15.746 -6.1,27.113 -21.34,27.113 -10.17,0 -15.24,-7.398 -16.15,-9.945 l -0.21,0 0,33.113 -6.39,0 0,-76.175 z m 37.07,25.894 c 0,-10.055 -3.14,-21.637 -15.34,-21.637 -11.37,0 -15.34,12.192 -15.34,21.637 0,9.453 3.67,21.645 15.34,21.645 12.2,0 15.34,-11.582 15.34,-21.645 m 21.65,-25.894 6.4,0 0,76.175 -6.4,0 0,-76.175 z m 23.49,0 6.38,0 0,51.793 -6.38,0 0,-51.793 z m 6.39,74.136 -6.39,0 0,-8.519 6.39,0 0,8.519 z m 51.99,-23.144 c -1.84,0.605 -6.3,2.015 -12.51,2.015 -15.32,0 -25.58,-11.156 -25.58,-27.113 0,-14.43 8.11,-27.121 24.78,-27.121 4.86,0 8.93,0.312 13.31,1.832 l -0.62,5.984 c -3.85,-1.418 -7.62,-2.332 -11.68,-2.332 -11.68,0 -18.79,9.848 -18.79,21.637 0,12.598 7.01,21.645 19.49,21.645 3.46,0 7.63,-1.114 11.08,-2.649 l 0.52,6.102 z m 35.01,-50.992 6.39,0 0,46.32 11.68,0 0,5.473 -11.68,0 0,4.476 c 0,6.195 -0.92,15.652 7.83,15.652 1.82,0 3.75,-0.41 5.07,-1.125 l 0.41,5.579 c -1.23,0.718 -3.97,1.011 -6,1.011 -13.3,0 -13.7,-10.957 -13.7,-21.832 l 0,-3.761 -10.47,0 0,-5.473 10.47,0 0,-46.32 z m 70.79,51.793 -6.4,0 0,-28.645 c 0,-8.641 -3.64,-18.891 -15.34,-18.891 -8.84,0 -12.28,6.289 -12.28,16.043 l 0,31.493 -6.4,0 0,-33.118 c 0,-11.375 4.87,-19.902 17.67,-19.902 10.78,0 14.64,5.777 16.76,10.453 l 0.21,0 0,-9.226 6.19,0 c -0.41,4.164 -0.41,8.222 -0.41,12.183 l 0,39.61 z m 17.21,-51.793 6.38,0 0,28.648 c 0,8.629 3.66,18.891 15.36,18.891 8.83,0 12.28,-6.293 12.28,-16.051 l 0,-31.488 6.4,0 0,33.109 c 0,11.379 -4.88,19.898 -17.67,19.898 -10.77,0 -14.64,-5.777 -16.77,-10.449 l -0.2,0 0,9.235 -6.19,0 c 0.41,-4.168 0.41,-8.227 0.41,-12.188 l 0,-39.605 z m 98.92,76.175 -6.37,0 0,-33.113 -0.21,0 c -0.92,2.547 -5.99,9.945 -16.16,9.945 -15.25,0 -21.32,-11.367 -21.32,-27.113 0,-15.348 7.1,-27.121 21.32,-27.121 7.42,0 12.7,2.848 16.16,9.438 l 0.21,0 0,-8.211 6.37,0 0,76.175 z m -37.07,-50.281 c 0,10.063 3.15,21.645 15.34,21.645 11.38,0 15.36,-12.192 15.36,-21.645 0,-9.445 -3.98,-21.637 -15.36,-21.637 -12.19,0 -15.34,11.582 -15.34,21.637 m 53.85,-25.894 6.38,0 0,51.793 -6.38,0 0,-51.793 z m 6.39,74.136 -6.39,0 0,-8.519 6.39,0 0,8.519 z m 17.11,-74.136 6.4,0 0,28.648 c 0,8.629 3.65,18.891 15.34,18.891 8.83,0 12.31,-6.293 12.31,-16.051 l 0,-31.488 6.37,0 0,33.109 c 0,11.379 -4.86,19.898 -17.66,19.898 -10.78,0 -14.64,-5.777 -16.77,-10.449 l -0.2,0 0,9.235 -6.19,0 c 0.4,-4.168 0.4,-8.227 0.4,-12.188 l 0,-39.605 z m 61.71,25.894 c 0,10.063 3.16,21.645 15.35,21.645 11.68,0 15.33,-9.145 15.33,-21.645 0,-9.445 -4.16,-20.426 -15.74,-20.426 -10.88,0 -14.94,10.258 -14.94,20.426 m 37.07,25.899 -6.39,0 0,-5.883 -0.19,0 c -4.79,6.195 -9.26,7.097 -16.17,7.097 -15.22,0 -21.31,-11.367 -21.31,-27.113 0,-11.484 5.27,-25.894 21.81,-25.894 6.61,0 12.31,2.636 15.77,10.14 l 0.19,0 c 0,-14.613 -1.42,-26.613 -17.87,-26.613 -5.6,0 -11.27,1.629 -15.23,3.672 l -0.51,-6.41 c 2.64,-0.805 8.85,-2.739 15.64,-2.739 17.78,0 24.26,11.778 24.26,26.207 l 0,47.536 z m 34.61,-51.793 6.39,0 0,8.211 0.21,0 c 3.46,-6.59 8.73,-9.438 16.15,-9.438 14.24,0 21.33,11.773 21.33,27.121 0,15.746 -6.09,27.113 -21.33,27.113 -10.15,0 -15.25,-7.398 -16.15,-9.945 l -0.21,0 0,33.113 -6.39,0 0,-76.175 z m 37.09,25.894 c 0,-10.055 -3.14,-21.637 -15.35,-21.637 -11.39,0 -15.35,12.192 -15.35,21.637 0,9.453 3.67,21.645 15.35,21.645 12.21,0 15.35,-11.582 15.35,-21.645 m 20.84,25.899 -7.01,0 18.36,-52.418 -1.31,-4.575 c -2.03,-6.699 -3.85,-11.273 -9.36,-11.273 -2.32,0 -3.55,0.406 -4.74,0.812 l -0.63,-5.472 c 2.13,-0.504 4.57,-0.817 6.92,-0.817 7.2,0 10.86,7.106 13.3,14.215 l 20.7,59.528 -6.7,0 -14.92,-43.172 -0.1,0 -14.51,43.172"
         style="fill:#ffffff;fill-opacity:1;fill-rule:nonzero;stroke:none"
         id="path3354"
         inkscape:connector-curvature="0" /><path
         d="m 1081.16,99.2656 7.4805,0 0,569.875 -7.4805,0 0,-569.875 z"
         style="fill:#ffffff;fill-opacity:1;fill-rule:nonzero;stroke:none"
         id="path3356"
         inkscape:connector-curvature="0" /></g></g><g
     inkscape:groupmode="layer"
     id="layer1"
     inkscape:label="Layer"
     transform="translate(-0.002491,-28.027497)" /></svg>