<?xml version="1.0" encoding="UTF-8" standalone="no"?>
<!-- Created with Inkscape (http://www.inkscape.org/) -->

<svg
   xmlns:dc="http://purl.org/dc/elements/1.1/"
   xmlns:cc="http://creativecommons.org/ns#"
   xmlns:rdf="http://www.w3.org/1999/02/22-rdf-syntax-ns#"
   xmlns:svg="http://www.w3.org/2000/svg"
   xmlns="http://www.w3.org/2000/svg"
   xmlns:sodipodi="http://sodipodi.sourceforge.net/DTD/sodipodi-0.dtd"
   xmlns:inkscape="http://www.inkscape.org/namespaces/inkscape"
   width="72"
   height="72.000008"
   id="svg6678"
   version="1.1"
   inkscape:version="0.48.4 r9943 custom"
   sodipodi:docname="icon.svg"
   inkscape:export-filename="/Users/growdigital/Sites/creek/htdocs/wp-content/themes/creeky/dist/assets/img/icon.png"
   inkscape:export-xdpi="90"
   inkscape:export-ydpi="90">
  <defs
     id="defs6680" />
  <sodipodi:namedview
     id="base"
     pagecolor="#ffffff"
     bordercolor="#666666"
     borderopacity="1.0"
     inkscape:pageopacity="0.0"
     inkscape:pageshadow="2"
     inkscape:zoom="9.7638879"
     inkscape:cx="36"
     inkscape:cy="36.000004"
     inkscape:document-units="px"
     inkscape:current-layer="layer1"
     showgrid="false"
     fit-margin-top="0"
     fit-margin-left="0"
     fit-margin-right="0"
     fit-margin-bottom="0"
     inkscape:window-width="1440"
     inkscape:window-height="852"
     inkscape:window-x="29"
     inkscape:window-y="22"
     inkscape:window-maximized="0"
     showguides="true"
     inkscape:guide-bbox="true">
    <inkscape:grid
       type="xygrid"
       id="grid3129"
       empspacing="5"
       visible="true"
       enabled="true"
       snapvisiblegridlinesonly="true" />
  </sodipodi:namedview>
  <metadata
     id="metadata6683">
    <rdf:RDF>
      <cc:Work
         rdf:about="">
        <dc:format>image/svg+xml</dc:format>
        <dc:type
           rdf:resource="http://purl.org/dc/dcmitype/StillImage" />
        <dc:title />
      </cc:Work>
    </rdf:RDF>
  </metadata>
  <g
     inkscape:label="Layer 1"
     inkscape:groupmode="layer"
     id="layer1"
     transform="translate(-427.46457,-417.01394)">
    <path
       d="m 463.46457,435.01394 c 0,-9.94113 -8.05887,-18 -18,-18 -9.94113,0 -18,8.05887 -18,18 0,9.94113 8.05887,18 18,18 9.94113,0 18,-8.05887 18,-18 z m -32.625,0 c 0,-8.07715 6.54785,-14.625 14.625,-14.625 8.07715,0 14.625,6.54785 14.625,14.625 0,8.07715 -6.54785,14.625 -14.625,14.625 -8.07715,0 -14.625,-6.54785 -14.625,-14.625 z m 18,3.375 5.625,-10.125 0,-2.25 -2.25,0 -10.125,5.625 -5.625,10.125 0,2.25 2.25,0 10.125,-5.625 z m -5.625,-3.375 c 0,-1.24263 1.00737,-2.25 2.25,-2.25 1.24263,0 2.25,1.00737 2.25,2.25 0,1.24263 -1.00737,2.25 -2.25,2.25 -1.24263,0 -2.25,-1.00737 -2.25,-2.25 z"
       id="path3962-1"
       inkscape:connector-curvature="0"
       style="fill:#53687c;fill-opacity:1" />
    <rect
       style="color:#000000;fill:none;stroke:none;stroke-width:4;marker:none;visibility:visible;display:inline;overflow:visible;enable-background:accumulate"
       id="rect3057"
       width="36"
       height="36"
       x="427.46457"
       y="417.01395" />
    <rect
       y="417.01395"
       x="463.46457"
       height="36"
       width="36"
       id="rect3118"
       style="color:#000000;fill:none;stroke:none;stroke-width:4;marker:none;visibility:visible;display:inline;overflow:visible;enable-background:accumulate" />
    <path
       id="path3964"
       style="font-size:medium;font-style:normal;font-variant:normal;font-weight:normal;font-stretch:normal;text-indent:0;text-align:start;text-decoration:none;line-height:normal;letter-spacing:normal;word-spacing:normal;text-transform:none;direction:ltr;block-progression:tb;writing-mode:lr-tb;text-anchor:start;baseline-shift:baseline;color:#000000;fill:#8da1b3;fill-opacity:1;stroke:none;stroke-width:5;marker:none;visibility:visible;display:inline;overflow:visible;enable-background:accumulate;font-family:Sans;-inkscape-font-specification:Sans"
       d="m 468.87082,443.01394 c -1.309,0.0491 -2.45534,1.28475 -2.40625,2.59375 0.0491,1.309 1.28475,2.45534 2.59375,2.40625 8.46795,0 17.23698,0 24.87064,0 1.32079,0.0187 2.53561,-1.17909 2.53561,-2.5 0,-1.32091 -1.21482,-2.51868 -2.53561,-2.5 -9.00226,0 -15.73174,0 -24.87064,0 -0.0625,-0.002 -0.12503,-0.002 -0.1875,0 z m 0,-10 c -1.309,0.0491 -2.45534,1.28475 -2.40625,2.59375 0.0491,1.309 1.28475,2.45534 2.59375,2.40625 8.46795,0 17.23698,0 24.87064,0 1.32079,0.0187 2.53561,-1.17909 2.53561,-2.5 0,-1.32091 -1.21482,-2.51868 -2.53561,-2.5 -9.00226,0 -15.73174,0 -24.87064,0 -0.0625,-0.002 -0.12503,-0.002 -0.1875,0 z m 0,-10 c -1.309,0.0491 -2.45534,1.28475 -2.40625,2.59375 0.0491,1.309 1.28475,2.45534 2.59375,2.40625 8.46795,0 17.23698,0 24.87064,0 1.32079,0.0187 2.53561,-1.17909 2.53561,-2.5 0,-1.32091 -1.21482,-2.51868 -2.53561,-2.5 -9.00226,0 -15.73174,0 -24.87064,0 -0.0625,-0.002 -0.12503,-0.002 -0.1875,0 z" />
    <path
       style="fill:#53687c;fill-opacity:1;opacity:0.7"
       inkscape:connector-curvature="0"
       id="path4047"
       d="m 463.46457,471.01394 c 0,-9.94113 -8.05887,-18 -18,-18 -9.94113,0 -18,8.05887 -18,18 0,9.94113 8.05887,18 18,18 9.94113,0 18,-8.05887 18,-18 z m -32.625,0 c 0,-8.07715 6.54785,-14.625 14.625,-14.625 8.07715,0 14.625,6.54785 14.625,14.625 0,8.07715 -6.54785,14.625 -14.625,14.625 -8.07715,0 -14.625,-6.54785 -14.625,-14.625 z m 18,3.375 5.625,-10.125 0,-2.25 -2.25,0 -10.125,5.625 -5.625,10.125 0,2.25 2.25,0 10.125,-5.625 z m -5.625,-3.375 c 0,-1.24263 1.00737,-2.25 2.25,-2.25 1.24263,0 2.25,1.00737 2.25,2.25 0,1.24263 -1.00737,2.25 -2.25,2.25 -1.24263,0 -2.25,-1.00737 -2.25,-2.25 z" />
    <rect
       y="453.01395"
       x="427.46457"
       height="36"
       width="36"
       id="rect4049"
       style="color:#000000;fill:none;stroke:none;stroke-width:4;marker:none;visibility:visible;display:inline;overflow:visible;enable-background:accumulate" />
    <rect
       style="color:#000000;fill:none;stroke:none;stroke-width:4;marker:none;visibility:visible;display:inline;overflow:visible;enable-background:accumulate"
       id="rect4051"
       width="36"
       height="36"
       x="463.46457"
       y="453.01395" />
    <path
       d="m 468.87082,479.01394 c -1.309,0.0491 -2.45534,1.28475 -2.40625,2.59375 0.0491,1.309 1.28475,2.45534 2.59375,2.40625 8.46795,0 17.23698,0 24.87064,0 1.32079,0.0187 2.53561,-1.17909 2.53561,-2.5 0,-1.32091 -1.21482,-2.51868 -2.53561,-2.5 -9.00226,0 -15.73174,0 -24.87064,0 -0.0625,-0.002 -0.12503,-0.002 -0.1875,0 z m 0,-10 c -1.309,0.0491 -2.45534,1.28475 -2.40625,2.59375 0.0491,1.309 1.28475,2.45534 2.59375,2.40625 8.46795,0 17.23698,0 24.87064,0 1.32079,0.0187 2.53561,-1.17909 2.53561,-2.5 0,-1.32091 -1.21482,-2.51868 -2.53561,-2.5 -9.00226,0 -15.73174,0 -24.87064,0 -0.0625,-0.002 -0.12503,-0.002 -0.1875,0 z m 0,-10 c -1.309,0.0491 -2.45534,1.28475 -2.40625,2.59375 0.0491,1.309 1.28475,2.45534 2.59375,2.40625 8.46795,0 17.23698,0 24.87064,0 1.32079,0.0187 2.53561,-1.17909 2.53561,-2.5 0,-1.32091 -1.21482,-2.51868 -2.53561,-2.5 -9.00226,0 -15.73174,0 -24.87064,0 -0.0625,-0.002 -0.12503,-0.002 -0.1875,0 z"
       style="font-size:medium;font-style:normal;font-variant:normal;font-weight:normal;font-stretch:normal;text-indent:0;text-align:start;text-decoration:none;line-height:normal;letter-spacing:normal;word-spacing:normal;text-transform:none;direction:ltr;block-progression:tb;writing-mode:lr-tb;text-anchor:start;baseline-shift:baseline;color:#000000;fill:#ffffff;fill-opacity:1;stroke:none;stroke-width:5;marker:none;visibility:visible;display:inline;overflow:visible;enable-background:accumulate;font-family:Sans;-inkscape-font-specification:Sans"
       id="path4053"
       inkscape:connector-curvature="0" />
  </g>
</svg>
