<?xml version="1.0" encoding="UTF-8" standalone="no"?>
<!-- Created with Inkscape (http://www.inkscape.org/) -->

<svg
   xmlns:dc="http://purl.org/dc/elements/1.1/"
   xmlns:cc="http://creativecommons.org/ns#"
   xmlns:rdf="http://www.w3.org/1999/02/22-rdf-syntax-ns#"
   xmlns:svg="http://www.w3.org/2000/svg"
   xmlns="http://www.w3.org/2000/svg"
   xmlns:sodipodi="http://sodipodi.sourceforge.net/DTD/sodipodi-0.dtd"
   xmlns:inkscape="http://www.inkscape.org/namespaces/inkscape"
   width="144.00003"
   height="72"
   id="svg6678"
   version="1.1"
   inkscape:version="0.48.4 r9943 custom"
   sodipodi:docname="icon.svg"
   inkscape:export-filename="/Users/growdigital/Sites/creek/htdocs/wp-content/themes/creeky/dist/assets/img/icon.png"
   inkscape:export-xdpi="90"
   inkscape:export-ydpi="90">
  <defs
     id="defs6680" />
  <sodipodi:namedview
     id="base"
     pagecolor="#ffffff"
     bordercolor="#666666"
     borderopacity="1.0"
     inkscape:pageopacity="0.0"
     inkscape:pageshadow="2"
     inkscape:zoom="3.4520557"
     inkscape:cx="101.89286"
     inkscape:cy="13.838043"
     inkscape:document-units="px"
     inkscape:current-layer="layer1"
     showgrid="false"
     fit-margin-top="0"
     fit-margin-left="0"
     fit-margin-right="0"
     fit-margin-bottom="0"
     inkscape:window-width="1440"
     inkscape:window-height="852"
     inkscape:window-x="480"
     inkscape:window-y="6"
     inkscape:window-maximized="0"
     showguides="true"
     inkscape:guide-bbox="true">
    <inkscape:grid
       type="xygrid"
       id="grid3129"
       empspacing="5"
       visible="true"
       enabled="true"
       snapvisiblegridlinesonly="true"
       originx="-35.999999px"
       originy="-1.2592773e-05px" />
  </sodipodi:namedview>
  <metadata
     id="metadata6683">
    <rdf:RDF>
      <cc:Work
         rdf:about="">
        <dc:format>image/svg+xml</dc:format>
        <dc:type
           rdf:resource="http://purl.org/dc/dcmitype/StillImage" />
        <dc:title />
      </cc:Work>
    </rdf:RDF>
  </metadata>
  <g
     inkscape:label="Layer 1"
     inkscape:groupmode="layer"
     id="layer1"
     transform="translate(-463.46457,-417.01395)">
    <rect
       y="417.01395"
       x="463.46457"
       height="36"
       width="36"
       id="rect3118"
       style="color:#000000;fill:none;stroke:none;stroke-width:4;marker:none;visibility:visible;display:inline;overflow:visible;enable-background:accumulate" />
    <path
       id="path3964"
       style="font-size:medium;font-style:normal;font-variant:normal;font-weight:normal;font-stretch:normal;text-indent:0;text-align:start;text-decoration:none;line-height:normal;letter-spacing:normal;word-spacing:normal;text-transform:none;direction:ltr;block-progression:tb;writing-mode:lr-tb;text-anchor:start;baseline-shift:baseline;color:#000000;fill:#8da1b3;fill-opacity:1;stroke:none;stroke-width:5;marker:none;visibility:visible;display:inline;overflow:visible;enable-background:accumulate;font-family:Sans;-inkscape-font-specification:Sans"
       d="m 468.87082,443.01394 c -1.309,0.0491 -2.45534,1.28475 -2.40625,2.59375 0.0491,1.309 1.28475,2.45534 2.59375,2.40625 8.46795,0 17.23698,0 24.87064,0 1.32079,0.0187 2.53561,-1.17909 2.53561,-2.5 0,-1.32091 -1.21482,-2.51868 -2.53561,-2.5 -9.00226,0 -15.73174,0 -24.87064,0 -0.0625,-0.002 -0.12503,-0.002 -0.1875,0 z m 0,-10 c -1.309,0.0491 -2.45534,1.28475 -2.40625,2.59375 0.0491,1.309 1.28475,2.45534 2.59375,2.40625 8.46795,0 17.23698,0 24.87064,0 1.32079,0.0187 2.53561,-1.17909 2.53561,-2.5 0,-1.32091 -1.21482,-2.51868 -2.53561,-2.5 -9.00226,0 -15.73174,0 -24.87064,0 -0.0625,-0.002 -0.12503,-0.002 -0.1875,0 z m 0,-10 c -1.309,0.0491 -2.45534,1.28475 -2.40625,2.59375 0.0491,1.309 1.28475,2.45534 2.59375,2.40625 8.46795,0 17.23698,0 24.87064,0 1.32079,0.0187 2.53561,-1.17909 2.53561,-2.5 0,-1.32091 -1.21482,-2.51868 -2.53561,-2.5 -9.00226,0 -15.73174,0 -24.87064,0 -0.0625,-0.002 -0.12503,-0.002 -0.1875,0 z"
       inkscape:connector-curvature="0" />
    <rect
       style="color:#000000;fill:none;stroke:none;stroke-width:4;marker:none;visibility:visible;display:inline;overflow:visible;enable-background:accumulate"
       id="rect4051"
       width="36"
       height="36"
       x="463.46457"
       y="453.01395" />
    <path
       d="m 468.87082,479.01394 c -1.309,0.0491 -2.45534,1.28475 -2.40625,2.59375 0.0491,1.309 1.28475,2.45534 2.59375,2.40625 8.46795,0 17.23698,0 24.87064,0 1.32079,0.0187 2.53561,-1.17909 2.53561,-2.5 0,-1.32091 -1.21482,-2.51868 -2.53561,-2.5 -9.00226,0 -15.73174,0 -24.87064,0 -0.0625,-0.002 -0.12503,-0.002 -0.1875,0 z m 0,-10 c -1.309,0.0491 -2.45534,1.28475 -2.40625,2.59375 0.0491,1.309 1.28475,2.45534 2.59375,2.40625 8.46795,0 17.23698,0 24.87064,0 1.32079,0.0187 2.53561,-1.17909 2.53561,-2.5 0,-1.32091 -1.21482,-2.51868 -2.53561,-2.5 -9.00226,0 -15.73174,0 -24.87064,0 -0.0625,-0.002 -0.12503,-0.002 -0.1875,0 z m 0,-10 c -1.309,0.0491 -2.45534,1.28475 -2.40625,2.59375 0.0491,1.309 1.28475,2.45534 2.59375,2.40625 8.46795,0 17.23698,0 24.87064,0 1.32079,0.0187 2.53561,-1.17909 2.53561,-2.5 0,-1.32091 -1.21482,-2.51868 -2.53561,-2.5 -9.00226,0 -15.73174,0 -24.87064,0 -0.0625,-0.002 -0.12503,-0.002 -0.1875,0 z"
       style="font-size:medium;font-style:normal;font-variant:normal;font-weight:normal;font-stretch:normal;text-indent:0;text-align:start;text-decoration:none;line-height:normal;letter-spacing:normal;word-spacing:normal;text-transform:none;direction:ltr;block-progression:tb;writing-mode:lr-tb;text-anchor:start;baseline-shift:baseline;color:#000000;fill:#ffffff;fill-opacity:1;stroke:none;stroke-width:5;marker:none;visibility:visible;display:inline;overflow:visible;enable-background:accumulate;font-family:Sans;-inkscape-font-specification:Sans"
       id="path4053"
       inkscape:connector-curvature="0" />
    <rect
       style="color:#000000;fill:none;stroke:none;stroke-width:4;marker:none;visibility:visible;display:inline;overflow:visible;enable-background:accumulate"
       id="rect3057"
       width="36"
       height="36"
       x="499.46457"
       y="417.01395" />
    <rect
       y="453.01395"
       x="499.46457"
       height="36"
       width="36"
       id="rect4049"
       style="color:#000000;fill:none;stroke:none;stroke-width:4;marker:none;visibility:visible;display:inline;overflow:visible;enable-background:accumulate" />
    <rect
       y="417.01395"
       x="535.4646"
       height="36"
       width="36"
       id="rect3291"
       style="color:#000000;fill:none;stroke:none;stroke-width:4;marker:none;visibility:visible;display:inline;overflow:visible;enable-background:accumulate" />
    <rect
       style="color:#000000;fill:none;stroke:none;stroke-width:4;marker:none;visibility:visible;display:inline;overflow:visible;enable-background:accumulate"
       id="rect3293"
       width="36"
       height="36"
       x="535.4646"
       y="453.01395" />
    <rect
       style="color:#000000;fill:none;stroke:none;stroke-width:4;marker:none;visibility:visible;display:inline;overflow:visible;enable-background:accumulate"
       id="rect3299"
       width="36"
       height="36"
       x="571.4646"
       y="417.01395" />
    <rect
       y="453.01395"
       x="571.4646"
       height="36"
       width="36"
       id="rect3301"
       style="color:#000000;fill:none;stroke:none;stroke-width:4;marker:none;visibility:visible;display:inline;overflow:visible;enable-background:accumulate" />
    <rect
       y="417.01395"
       x="499.46457"
       height="36"
       width="36"
       id="rect3676"
       style="color:#000000;fill:none;stroke:none;stroke-width:4;marker:none;visibility:visible;display:inline;overflow:visible;enable-background:accumulate" />
    <path
       inkscape:connector-curvature="0"
       d="m 535.46457,423.84902 c -1.32454,0.58739 -2.74794,0.98445 -4.24194,1.16297 1.52479,-0.91406 2.69599,-2.36144 3.24744,-4.0862 -1.42719,0.84649 -3.00781,1.46109 -4.69017,1.79226 -1.34719,-1.43542 -3.26678,-2.33225 -5.39105,-2.33225 -4.07888,0 -7.38588,3.30671 -7.38588,7.38552 0,0.57888 0.0653,1.14258 0.19125,1.68321 -6.13826,-0.30811 -11.58049,-3.24843 -15.22323,-7.71698 -0.63576,1.09082 -1.00005,2.35954 -1.00005,3.71312 0,2.56246 1.30387,4.82313 3.28569,6.14761 -1.21071,-0.0384 -2.34955,-0.37062 -3.34525,-0.92384 -7e-4,0.0308 -7e-4,0.0617 -7e-4,0.0929 0,3.57847 2.54594,6.5635 5.92458,7.24215 -0.61966,0.16875 -1.27223,0.25918 -1.94582,0.25918 -0.47594,0 -0.9386,-0.0464 -1.38965,-0.13261 0.93993,2.93413 3.66748,5.06972 6.89946,5.12913 -2.52773,1.98105 -5.71238,3.16173 -9.1728,3.16173 -0.59617,0 -1.18405,-0.0349 -1.76188,-0.10336 3.26853,2.09566 7.15082,3.31853 11.32174,3.31853 13.5851,0 21.01408,-11.25432 21.01408,-21.01436 0,-0.3202 -0.007,-0.63871 -0.0215,-0.95554 1.44337,-1.04132 2.69549,-2.3421 3.68563,-3.82316 z"
       id="path3196"
       style="fill:#ffffff;stroke:none" />
    <rect
       style="color:#000000;fill:none;stroke:none;stroke-width:4;marker:none;visibility:visible;display:inline;overflow:visible;enable-background:accumulate"
       id="rect3263"
       width="36"
       height="36"
       x="499.46457"
       y="453.01395" />
    <path
       style="fill:#bcbcc9;fill-opacity:1"
       id="path3265"
       d="m 535.46457,459.84902 c -1.32454,0.58739 -2.74794,0.98445 -4.24194,1.16297 1.52479,-0.91406 2.69599,-2.36144 3.24744,-4.0862 -1.42719,0.84649 -3.00781,1.46109 -4.69017,1.79226 -1.34719,-1.43542 -3.26678,-2.33225 -5.39105,-2.33225 -4.07888,0 -7.38588,3.30671 -7.38588,7.38552 0,0.57888 0.0653,1.14258 0.19125,1.68321 -6.13826,-0.30811 -11.58049,-3.24843 -15.22323,-7.71698 -0.63576,1.09082 -1.00005,2.35954 -1.00005,3.71312 0,2.56246 1.30387,4.82313 3.28569,6.14761 -1.21071,-0.0384 -2.34955,-0.37062 -3.34525,-0.92384 -7e-4,0.0308 -7e-4,0.0617 -7e-4,0.0929 0,3.57847 2.54594,6.5635 5.92458,7.24215 -0.61966,0.16875 -1.27223,0.25918 -1.94582,0.25918 -0.47594,0 -0.9386,-0.0464 -1.38965,-0.13261 0.93993,2.93413 3.66748,5.06972 6.89946,5.12913 -2.52773,1.98105 -5.71238,3.16173 -9.1728,3.16173 -0.59617,0 -1.18405,-0.0349 -1.76188,-0.10336 3.26853,2.09566 7.15082,3.31853 11.32174,3.31853 13.5851,0 21.01408,-11.25432 21.01408,-21.01436 0,-0.3202 -0.007,-0.63871 -0.0215,-0.95554 1.44337,-1.04132 2.69549,-2.3421 3.68563,-3.82316 z"
       inkscape:connector-curvature="0" />
    <path
       inkscape:connector-curvature="0"
       d="m 591.11926,419.80559 c 0,0 -7.06486,0 -9.41976,0 -4.22297,0 -8.19738,3.19943 -8.19738,6.90547 0,3.78724 2.87866,6.84372 7.17496,6.84372 0.29876,0 0.58908,-0.006 0.87336,-0.0264 -0.27879,0.53389 -0.4782,1.13513 -0.4782,1.75929 0,1.05251 0.56616,1.90582 1.28208,2.60241 -0.54092,0 -1.0632,0.0158 -1.63308,0.0158 -5.23062,-7e-5 -9.25664,3.33134 -9.25664,6.78586 0,3.40235 4.41359,5.53057 9.64455,5.53057 5.96335,0 9.25686,-3.38358 9.25686,-6.78614 0,-2.72813 -0.80494,-4.36191 -3.29365,-6.1219 -0.85135,-0.60272 -2.47957,-2.06845 -2.47957,-2.93006 0,-1.00969 0.28814,-1.50708 1.80801,-2.69459 1.55785,-1.21725 2.66035,-2.92858 2.66035,-4.91892 0,-2.36974 -1.05539,-4.67923 -3.03652,-5.4412 l 2.98667,0 2.10796,-1.52382 z m -3.29013,23.04345 c 0.0747,0.31542 0.11545,0.64005 0.11545,0.9713 0,2.74922 -1.77159,4.89761 -6.85455,4.89761 -3.61554,0 -6.22673,-2.28881 -6.22673,-5.03789 0,-2.69444 3.2388,-4.93748 6.8542,-4.89839 0.84375,0.009 1.63012,0.14471 2.34387,0.37582 1.96263,1.36498 3.37064,2.13617 3.76776,3.69155 z m -5.7889,-10.25445 c -2.42711,-0.0726 -4.73329,-2.71497 -5.15222,-5.90132 -0.41892,-3.18748 1.20832,-5.62648 3.63474,-5.55434 2.42613,0.0729 4.73337,2.63018 5.15243,5.81688 0.41857,3.18727 -1.20903,5.71142 -3.63495,5.63878 z m 18.67437,-6.039 0,-6.75 -2.25,0 0,6.75 -6.75,0 0,2.25 6.75,0 0,6.75 2.25,0 0,-6.75 6.75,0 0,-2.25 z"
       id="path3123"
       style="fill:#ffffff;stroke:none" />
    <rect
       style="color:#000000;fill:none;stroke:none;stroke-width:4;marker:none;visibility:visible;display:inline;overflow:visible;enable-background:accumulate"
       id="rect3483"
       width="36"
       height="36"
       x="535.4646"
       y="453.01395" />
    <path
       style="fill:#bcbcc9;fill-opacity:1"
       id="path3485"
       d="m 591.11926,455.80559 c 0,0 -7.06486,0 -9.41976,0 -4.22297,0 -8.19738,3.19943 -8.19738,6.90547 0,3.78724 2.87866,6.84372 7.17496,6.84372 0.29876,0 0.58908,-0.006 0.87336,-0.0264 -0.27879,0.53389 -0.4782,1.13513 -0.4782,1.75929 0,1.05251 0.56616,1.90582 1.28208,2.60241 -0.54092,0 -1.0632,0.0158 -1.63308,0.0158 -5.23062,-7e-5 -9.25664,3.33134 -9.25664,6.78586 0,3.40235 4.41359,5.53057 9.64455,5.53057 5.96335,0 9.25686,-3.38358 9.25686,-6.78614 0,-2.72813 -0.80494,-4.36191 -3.29365,-6.1219 -0.85135,-0.60272 -2.47957,-2.06845 -2.47957,-2.93006 0,-1.00969 0.28814,-1.50708 1.80801,-2.69459 1.55785,-1.21725 2.66035,-2.92858 2.66035,-4.91892 0,-2.36974 -1.05539,-4.67923 -3.03652,-5.4412 l 2.98667,0 2.10796,-1.52382 z m -3.29013,23.04345 c 0.0747,0.31542 0.11545,0.64005 0.11545,0.9713 0,2.74922 -1.77159,4.89761 -6.85455,4.89761 -3.61554,0 -6.22673,-2.28881 -6.22673,-5.03789 0,-2.69444 3.2388,-4.93748 6.8542,-4.89839 0.84375,0.009 1.63012,0.14471 2.34387,0.37582 1.96263,1.36498 3.37064,2.13617 3.76776,3.69155 z m -5.7889,-10.25445 c -2.42711,-0.0726 -4.73329,-2.71497 -5.15222,-5.90132 -0.41892,-3.18748 1.20832,-5.62648 3.63474,-5.55434 2.42613,0.0729 4.73337,2.63018 5.15243,5.81688 0.41857,3.18727 -1.20903,5.71142 -3.63495,5.63878 z m 18.67437,-6.039 0,-6.75 -2.25,0 0,6.75 -6.75,0 0,2.25 6.75,0 0,6.75 2.25,0 0,-6.75 6.75,0 0,-2.25 z"
       inkscape:connector-curvature="0" />
    <path
       inkscape:connector-curvature="0"
       d="m 565.46498,417.01395 -23.99977,0 c -3.30019,0 -6.00061,2.70049 -6.00061,6.00075 l 0,23.99857 c 0,3.30251 2.70042,6.00068 6.00061,6.00068 l 23.99977,-7e-5 c 3.30032,0 5.99962,-2.6981 5.99962,-6.00075 l 0,-23.99843 c 0,-3.30026 -2.69937,-6.00075 -5.99962,-6.00075 z m 0.60637,18 -5.85675,0 0,15.75 -6.75,0 0,-15.75 -3.25287,0 0,-5.15264 3.25287,0 0,-3.34638 c 0,-4.54718 1.96144,-7.25098 7.30793,-7.25098 l 6.16092,0 0,5.57473 -5.03191,0 c -1.49351,-0.002 -1.67878,0.77878 -1.67878,2.23284 l -0.008,2.78979 6.75,0 -0.89325,5.15264 z"
       id="path3590"
       style="fill:#ffffff;stroke:none" />
    <path
       style="fill:#bcbcc9;fill-opacity:1"
       id="path3634"
       d="m 565.46498,453.01395 -23.99977,0 c -3.30019,0 -6.00061,2.70049 -6.00061,6.00075 l 0,23.99857 c 0,3.30251 2.70042,6.00068 6.00061,6.00068 l 23.99977,-7e-5 c 3.30032,0 5.99962,-2.6981 5.99962,-6.00075 l 0,-23.99843 c 0,-3.30026 -2.69937,-6.00075 -5.99962,-6.00075 z m 0.60637,18 -5.85675,0 0,15.75 -6.75,0 0,-15.75 -3.25287,0 0,-5.15264 3.25287,0 0,-3.34638 c 0,-4.54718 1.96144,-7.25098 7.30793,-7.25098 l 6.16092,0 0,5.57473 -5.03191,0 c -1.49351,-0.002 -1.67878,0.77878 -1.67878,2.23284 l -0.008,2.78979 6.75,0 -0.89325,5.15264 z"
       inkscape:connector-curvature="0" />
  </g>
</svg>
