<?xml version="1.0" encoding="UTF-8" standalone="no"?>
<!-- Created with Inkscape (http://www.inkscape.org/) -->

<svg
   xmlns:dc="http://purl.org/dc/elements/1.1/"
   xmlns:cc="http://creativecommons.org/ns#"
   xmlns:rdf="http://www.w3.org/1999/02/22-rdf-syntax-ns#"
   xmlns:svg="http://www.w3.org/2000/svg"
   xmlns="http://www.w3.org/2000/svg"
   xmlns:sodipodi="http://sodipodi.sourceforge.net/DTD/sodipodi-0.dtd"
   xmlns:inkscape="http://www.inkscape.org/namespaces/inkscape"
   width="72"
   height="72"
   id="svg6678"
   version="1.1"
   inkscape:version="0.48.4 r9943 custom"
   sodipodi:docname="icon.svg"
   inkscape:export-filename="/Users/growdigital/Sites/creek/htdocs/wp-content/themes/creeky/dist/assets/img/icon.png"
   inkscape:export-xdpi="90"
   inkscape:export-ydpi="90">
  <defs
     id="defs6680" />
  <sodipodi:namedview
     id="base"
     pagecolor="#ffffff"
     bordercolor="#666666"
     borderopacity="1.0"
     inkscape:pageopacity="0.0"
     inkscape:pageshadow="2"
     inkscape:zoom="3.4520557"
     inkscape:cx="33.607169"
     inkscape:cy="13.838053"
     inkscape:document-units="px"
     inkscape:current-layer="layer1"
     showgrid="false"
     fit-margin-top="0"
     fit-margin-left="0"
     fit-margin-right="0"
     fit-margin-bottom="0"
     inkscape:window-width="1440"
     inkscape:window-height="852"
     inkscape:window-x="265"
     inkscape:window-y="193"
     inkscape:window-maximized="0"
     showguides="true"
     inkscape:guide-bbox="true">
    <inkscape:grid
       type="xygrid"
       id="grid3129"
       empspacing="5"
       visible="true"
       enabled="true"
       snapvisiblegridlinesonly="true"
       originx="9.0820311e-07px"
       originy="-2.1923828e-06px" />
  </sodipodi:namedview>
  <metadata
     id="metadata6683">
    <rdf:RDF>
      <cc:Work
         rdf:about="">
        <dc:format>image/svg+xml</dc:format>
        <dc:type
           rdf:resource="http://purl.org/dc/dcmitype/StillImage" />
        <dc:title />
      </cc:Work>
    </rdf:RDF>
  </metadata>
  <g
     inkscape:label="Layer 1"
     inkscape:groupmode="layer"
     id="layer1"
     transform="translate(-427.46457,-417.01395)">
    <rect
       style="color:#000000;fill:none;stroke:none;stroke-width:4;marker:none;visibility:visible;display:inline;overflow:visible;enable-background:accumulate"
       id="rect3057"
       width="36"
       height="36"
       x="427.46457"
       y="417.01395" />
    <rect
       y="417.01395"
       x="463.46457"
       height="36"
       width="36"
       id="rect3118"
       style="color:#000000;fill:none;stroke:none;stroke-width:4;marker:none;visibility:visible;display:inline;overflow:visible;enable-background:accumulate" />
    <path
       id="path3964"
       style="font-size:medium;font-style:normal;font-variant:normal;font-weight:normal;font-stretch:normal;text-indent:0;text-align:start;text-decoration:none;line-height:normal;letter-spacing:normal;word-spacing:normal;text-transform:none;direction:ltr;block-progression:tb;writing-mode:lr-tb;text-anchor:start;baseline-shift:baseline;color:#000000;fill:#8da1b3;fill-opacity:1;stroke:none;stroke-width:5;marker:none;visibility:visible;display:inline;overflow:visible;enable-background:accumulate;font-family:Sans;-inkscape-font-specification:Sans"
       d="m 468.87082,443.01394 c -1.309,0.0491 -2.45534,1.28475 -2.40625,2.59375 0.0491,1.309 1.28475,2.45534 2.59375,2.40625 8.46795,0 17.23698,0 24.87064,0 1.32079,0.0187 2.53561,-1.17909 2.53561,-2.5 0,-1.32091 -1.21482,-2.51868 -2.53561,-2.5 -9.00226,0 -15.73174,0 -24.87064,0 -0.0625,-0.002 -0.12503,-0.002 -0.1875,0 z m 0,-10 c -1.309,0.0491 -2.45534,1.28475 -2.40625,2.59375 0.0491,1.309 1.28475,2.45534 2.59375,2.40625 8.46795,0 17.23698,0 24.87064,0 1.32079,0.0187 2.53561,-1.17909 2.53561,-2.5 0,-1.32091 -1.21482,-2.51868 -2.53561,-2.5 -9.00226,0 -15.73174,0 -24.87064,0 -0.0625,-0.002 -0.12503,-0.002 -0.1875,0 z m 0,-10 c -1.309,0.0491 -2.45534,1.28475 -2.40625,2.59375 0.0491,1.309 1.28475,2.45534 2.59375,2.40625 8.46795,0 17.23698,0 24.87064,0 1.32079,0.0187 2.53561,-1.17909 2.53561,-2.5 0,-1.32091 -1.21482,-2.51868 -2.53561,-2.5 -9.00226,0 -15.73174,0 -24.87064,0 -0.0625,-0.002 -0.12503,-0.002 -0.1875,0 z"
       inkscape:connector-curvature="0" />
    <rect
       y="453.01395"
       x="427.46457"
       height="36"
       width="36"
       id="rect4049"
       style="color:#000000;fill:none;stroke:none;stroke-width:4;marker:none;visibility:visible;display:inline;overflow:visible;enable-background:accumulate" />
    <rect
       style="color:#000000;fill:none;stroke:none;stroke-width:4;marker:none;visibility:visible;display:inline;overflow:visible;enable-background:accumulate"
       id="rect4051"
       width="36"
       height="36"
       x="463.46457"
       y="453.01395" />
    <path
       d="m 468.87082,479.01394 c -1.309,0.0491 -2.45534,1.28475 -2.40625,2.59375 0.0491,1.309 1.28475,2.45534 2.59375,2.40625 8.46795,0 17.23698,0 24.87064,0 1.32079,0.0187 2.53561,-1.17909 2.53561,-2.5 0,-1.32091 -1.21482,-2.51868 -2.53561,-2.5 -9.00226,0 -15.73174,0 -24.87064,0 -0.0625,-0.002 -0.12503,-0.002 -0.1875,0 z m 0,-10 c -1.309,0.0491 -2.45534,1.28475 -2.40625,2.59375 0.0491,1.309 1.28475,2.45534 2.59375,2.40625 8.46795,0 17.23698,0 24.87064,0 1.32079,0.0187 2.53561,-1.17909 2.53561,-2.5 0,-1.32091 -1.21482,-2.51868 -2.53561,-2.5 -9.00226,0 -15.73174,0 -24.87064,0 -0.0625,-0.002 -0.12503,-0.002 -0.1875,0 z m 0,-10 c -1.309,0.0491 -2.45534,1.28475 -2.40625,2.59375 0.0491,1.309 1.28475,2.45534 2.59375,2.40625 8.46795,0 17.23698,0 24.87064,0 1.32079,0.0187 2.53561,-1.17909 2.53561,-2.5 0,-1.32091 -1.21482,-2.51868 -2.53561,-2.5 -9.00226,0 -15.73174,0 -24.87064,0 -0.0625,-0.002 -0.12503,-0.002 -0.1875,0 z"
       style="font-size:medium;font-style:normal;font-variant:normal;font-weight:normal;font-stretch:normal;text-indent:0;text-align:start;text-decoration:none;line-height:normal;letter-spacing:normal;word-spacing:normal;text-transform:none;direction:ltr;block-progression:tb;writing-mode:lr-tb;text-anchor:start;baseline-shift:baseline;color:#000000;fill:#ffffff;fill-opacity:1;stroke:none;stroke-width:5;marker:none;visibility:visible;display:inline;overflow:visible;enable-background:accumulate;font-family:Sans;-inkscape-font-specification:Sans"
       id="path4053"
       inkscape:connector-curvature="0" />
    <path
       inkscape:connector-curvature="0"
       d="m 459.60798,424.30172 c 3.74533,2.12934 3.85642,4.40922 3.85656,6.00109 l 0,0.23885 c 0,0.36436 -0.31423,0.6622 -0.69806,0.6622 l -8.44775,0 c -0.38384,0 -0.69806,-0.29784 -0.69806,-0.6622 l 0,-0.80529 c 0,-2.01128 -1.9234,-2.33261 -2.98469,-2.50347 -1.06144,-0.17058 -3.69963,-0.33588 -5.16655,-0.33588 -0.002,0 -0.003,0 -0.005,0 -0.002,0 -0.003,0 -0.005,0 -1.46685,0 -4.10533,0.16523 -5.16655,0.33588 -1.06122,0.17065 -2.98469,0.49204 -2.98469,2.50347 l 0,0.80529 c 0,0.36436 -0.31423,0.6622 -0.69792,0.6622 l -8.44775,0 c -0.38369,0 -0.69792,-0.29784 -0.69792,-0.6622 l 0,-0.23885 c 0,-1.59187 0.11109,-3.87175 3.85642,-6.00109 4.45429,-2.53195 10.82311,-2.78775 14.13841,-2.78775 0.002,0.002 0.003,0.004 0.005,0.005 0.001,-0.002 0.003,-0.004 0.005,-0.005 3.31537,0 9.68426,0.25552 14.13855,2.78775 z m -14.14348,6.21224 c -1.99504,0 -6.14832,0.14948 -8.2586,2.70836 -2.11092,2.55817 -7.38913,15.2916 -2.68221,15.2916 4.70783,0 8.82125,0 10.94103,0 2.119,0 6.23305,0 10.94025,0 4.70706,0 -0.57129,-12.73343 -2.6815,-15.2916 -2.11064,-2.55888 -6.26484,-2.70836 -8.25897,-2.70836 z m -7e-5,13.49997 c -2.48526,0 -4.49999,-2.01466 -4.49999,-4.49999 0,-2.48533 2.01473,-4.49999 4.49999,-4.49999 2.48534,0 4.5,2.01466 4.5,4.49999 0,2.48533 -2.01466,4.49999 -4.5,4.49999 z"
       id="path3163"
       style="fill:#53687c;fill-opacity:1" />
    <path
       style="fill:#52687c;fill-opacity:0.54901961"
       id="path3207"
       d="m 459.60798,460.30172 c 3.74533,2.12934 3.85642,4.40922 3.85656,6.00109 l 0,0.23885 c 0,0.36436 -0.31423,0.6622 -0.69806,0.6622 l -8.44775,0 c -0.38384,0 -0.69806,-0.29784 -0.69806,-0.6622 l 0,-0.80529 c 0,-2.01128 -1.9234,-2.33261 -2.98469,-2.50347 -1.06144,-0.17058 -3.69963,-0.33588 -5.16655,-0.33588 -0.002,0 -0.003,0 -0.005,0 -0.002,0 -0.003,0 -0.005,0 -1.46685,0 -4.10533,0.16523 -5.16655,0.33588 -1.06122,0.17065 -2.98469,0.49204 -2.98469,2.50347 l 0,0.80529 c 0,0.36436 -0.31423,0.6622 -0.69792,0.6622 l -8.44775,0 c -0.38369,0 -0.69792,-0.29784 -0.69792,-0.6622 l 0,-0.23885 c 0,-1.59187 0.11109,-3.87175 3.85642,-6.00109 4.45429,-2.53195 10.82311,-2.78775 14.13841,-2.78775 0.002,0.002 0.003,0.004 0.005,0.005 0.001,-0.002 0.003,-0.004 0.005,-0.005 3.31537,0 9.68426,0.25552 14.13855,2.78775 z m -14.14348,6.21224 c -1.99504,0 -6.14832,0.14948 -8.2586,2.70836 -2.11092,2.55817 -7.38913,15.2916 -2.68221,15.2916 4.70783,0 8.82125,0 10.94103,0 2.119,0 6.23305,0 10.94025,0 4.70706,0 -0.57129,-12.73343 -2.6815,-15.2916 -2.11064,-2.55888 -6.26484,-2.70836 -8.25897,-2.70836 z m -7e-5,13.49997 c -2.48526,0 -4.49999,-2.01466 -4.49999,-4.49999 0,-2.48533 2.01473,-4.49999 4.49999,-4.49999 2.48534,0 4.5,2.01466 4.5,4.49999 0,2.48533 -2.01466,4.49999 -4.5,4.49999 z"
       inkscape:connector-curvature="0" />
  </g>
</svg>
