<?xml version="1.0" encoding="UTF-8" standalone="no"?>
<!-- Created with Inkscape (http://www.inkscape.org/) -->

<svg
   xmlns:dc="http://purl.org/dc/elements/1.1/"
   xmlns:cc="http://creativecommons.org/ns#"
   xmlns:rdf="http://www.w3.org/1999/02/22-rdf-syntax-ns#"
   xmlns:svg="http://www.w3.org/2000/svg"
   xmlns="http://www.w3.org/2000/svg"
   xmlns:sodipodi="http://sodipodi.sourceforge.net/DTD/sodipodi-0.dtd"
   xmlns:inkscape="http://www.inkscape.org/namespaces/inkscape"
   width="144.00003"
   height="72"
   id="svg6678"
   version="1.1"
   inkscape:version="0.48.4 r9943 custom"
   sodipodi:docname="icon.svg"
   inkscape:export-filename="/Users/growdigital/Sites/creek/htdocs/wp-content/themes/creeky/dist/assets/img/icon.png"
   inkscape:export-xdpi="90"
   inkscape:export-ydpi="90">
  <defs
     id="defs6680" />
  <sodipodi:namedview
     id="base"
     pagecolor="#ffffff"
     bordercolor="#666666"
     borderopacity="1.0"
     inkscape:pageopacity="0.0"
     inkscape:pageshadow="2"
     inkscape:zoom="3.4520557"
     inkscape:cx="101.89286"
     inkscape:cy="13.838043"
     inkscape:document-units="px"
     inkscape:current-layer="layer1"
     showgrid="false"
     fit-margin-top="0"
     fit-margin-left="0"
     fit-margin-right="0"
     fit-margin-bottom="0"
     inkscape:window-width="1440"
     inkscape:window-height="852"
     inkscape:window-x="0"
     inkscape:window-y="22"
     inkscape:window-maximized="0"
     showguides="true"
     inkscape:guide-bbox="true">
    <inkscape:grid
       type="xygrid"
       id="grid3129"
       empspacing="5"
       visible="true"
       enabled="true"
       snapvisiblegridlinesonly="true"
       originx="-35.999999px"
       originy="-1.2592773e-05px" />
  </sodipodi:namedview>
  <metadata
     id="metadata6683">
    <rdf:RDF>
      <cc:Work
         rdf:about="">
        <dc:format>image/svg+xml</dc:format>
        <dc:type
           rdf:resource="http://purl.org/dc/dcmitype/StillImage" />
        <dc:title />
      </cc:Work>
    </rdf:RDF>
  </metadata>
  <g
     inkscape:label="Layer 1"
     inkscape:groupmode="layer"
     id="layer1"
     transform="translate(-463.46457,-417.01395)">
    <rect
       y="417.01395"
       x="463.46457"
       height="36"
       width="36"
       id="rect3118"
       style="color:#000000;fill:none;stroke:none;stroke-width:4;marker:none;visibility:visible;display:inline;overflow:visible;enable-background:accumulate" />
    <path
       id="path3964"
       style="font-size:medium;font-style:normal;font-variant:normal;font-weight:normal;font-stretch:normal;text-indent:0;text-align:start;text-decoration:none;line-height:normal;letter-spacing:normal;word-spacing:normal;text-transform:none;direction:ltr;block-progression:tb;writing-mode:lr-tb;text-anchor:start;baseline-shift:baseline;color:#000000;fill:#8da1b3;fill-opacity:1;stroke:none;stroke-width:5;marker:none;visibility:visible;display:inline;overflow:visible;enable-background:accumulate;font-family:Sans;-inkscape-font-specification:Sans"
       d="m 468.87082,443.01394 c -1.309,0.0491 -2.45534,1.28475 -2.40625,2.59375 0.0491,1.309 1.28475,2.45534 2.59375,2.40625 8.46795,0 17.23698,0 24.87064,0 1.32079,0.0187 2.53561,-1.17909 2.53561,-2.5 0,-1.32091 -1.21482,-2.51868 -2.53561,-2.5 -9.00226,0 -15.73174,0 -24.87064,0 -0.0625,-0.002 -0.12503,-0.002 -0.1875,0 z m 0,-10 c -1.309,0.0491 -2.45534,1.28475 -2.40625,2.59375 0.0491,1.309 1.28475,2.45534 2.59375,2.40625 8.46795,0 17.23698,0 24.87064,0 1.32079,0.0187 2.53561,-1.17909 2.53561,-2.5 0,-1.32091 -1.21482,-2.51868 -2.53561,-2.5 -9.00226,0 -15.73174,0 -24.87064,0 -0.0625,-0.002 -0.12503,-0.002 -0.1875,0 z m 0,-10 c -1.309,0.0491 -2.45534,1.28475 -2.40625,2.59375 0.0491,1.309 1.28475,2.45534 2.59375,2.40625 8.46795,0 17.23698,0 24.87064,0 1.32079,0.0187 2.53561,-1.17909 2.53561,-2.5 0,-1.32091 -1.21482,-2.51868 -2.53561,-2.5 -9.00226,0 -15.73174,0 -24.87064,0 -0.0625,-0.002 -0.12503,-0.002 -0.1875,0 z"
       inkscape:connector-curvature="0" />
    <rect
       style="color:#000000;fill:none;stroke:none;stroke-width:4;marker:none;visibility:visible;display:inline;overflow:visible;enable-background:accumulate"
       id="rect4051"
       width="36"
       height="36"
       x="463.46457"
       y="453.01395" />
    <path
       d="m 468.87082,479.01394 c -1.309,0.0491 -2.45534,1.28475 -2.40625,2.59375 0.0491,1.309 1.28475,2.45534 2.59375,2.40625 8.46795,0 17.23698,0 24.87064,0 1.32079,0.0187 2.53561,-1.17909 2.53561,-2.5 0,-1.32091 -1.21482,-2.51868 -2.53561,-2.5 -9.00226,0 -15.73174,0 -24.87064,0 -0.0625,-0.002 -0.12503,-0.002 -0.1875,0 z m 0,-10 c -1.309,0.0491 -2.45534,1.28475 -2.40625,2.59375 0.0491,1.309 1.28475,2.45534 2.59375,2.40625 8.46795,0 17.23698,0 24.87064,0 1.32079,0.0187 2.53561,-1.17909 2.53561,-2.5 0,-1.32091 -1.21482,-2.51868 -2.53561,-2.5 -9.00226,0 -15.73174,0 -24.87064,0 -0.0625,-0.002 -0.12503,-0.002 -0.1875,0 z m 0,-10 c -1.309,0.0491 -2.45534,1.28475 -2.40625,2.59375 0.0491,1.309 1.28475,2.45534 2.59375,2.40625 8.46795,0 17.23698,0 24.87064,0 1.32079,0.0187 2.53561,-1.17909 2.53561,-2.5 0,-1.32091 -1.21482,-2.51868 -2.53561,-2.5 -9.00226,0 -15.73174,0 -24.87064,0 -0.0625,-0.002 -0.12503,-0.002 -0.1875,0 z"
       style="font-size:medium;font-style:normal;font-variant:normal;font-weight:normal;font-stretch:normal;text-indent:0;text-align:start;text-decoration:none;line-height:normal;letter-spacing:normal;word-spacing:normal;text-transform:none;direction:ltr;block-progression:tb;writing-mode:lr-tb;text-anchor:start;baseline-shift:baseline;color:#000000;fill:#ffffff;fill-opacity:1;stroke:none;stroke-width:5;marker:none;visibility:visible;display:inline;overflow:visible;enable-background:accumulate;font-family:Sans;-inkscape-font-specification:Sans"
       id="path4053"
       inkscape:connector-curvature="0" />
    <rect
       style="color:#000000;fill:none;stroke:none;stroke-width:4;marker:none;visibility:visible;display:inline;overflow:visible;enable-background:accumulate"
       id="rect3057"
       width="36"
       height="36"
       x="499.46457"
       y="417.01395" />
    <rect
       y="453.01395"
       x="499.46457"
       height="36"
       width="36"
       id="rect4049"
       style="color:#000000;fill:none;stroke:none;stroke-width:4;marker:none;visibility:visible;display:inline;overflow:visible;enable-background:accumulate" />
    <rect
       y="417.01395"
       x="535.4646"
       height="36"
       width="36"
       id="rect3291"
       style="color:#000000;fill:none;stroke:none;stroke-width:4;marker:none;visibility:visible;display:inline;overflow:visible;enable-background:accumulate" />
    <rect
       style="color:#000000;fill:none;stroke:none;stroke-width:4;marker:none;visibility:visible;display:inline;overflow:visible;enable-background:accumulate"
       id="rect3293"
       width="36"
       height="36"
       x="535.4646"
       y="453.01395" />
    <rect
       style="color:#000000;fill:none;stroke:none;stroke-width:4;marker:none;visibility:visible;display:inline;overflow:visible;enable-background:accumulate"
       id="rect3299"
       width="36"
       height="36"
       x="571.4646"
       y="417.01395" />
    <rect
       y="453.01395"
       x="571.4646"
       height="36"
       width="36"
       id="rect3301"
       style="color:#000000;fill:none;stroke:none;stroke-width:4;marker:none;visibility:visible;display:inline;overflow:visible;enable-background:accumulate" />
    <path
       inkscape:connector-curvature="0"
       d="m 529.46487,417.01395 -23.99962,0 c -3.30026,0 -6.00068,2.70035 -6.00068,6.00082 l 0,23.99843 c 0,3.30251 2.70042,6.00075 6.00068,6.00075 l 23.99962,0 c 3.30033,0 5.9997,-2.69824 5.9997,-6.00082 l 0,-23.99836 c 0,-3.30047 -2.69937,-6.00082 -5.9997,-6.00082 z m -0.53753,12.0176 c 0.0115,0.25812 0.0172,0.51778 0.0172,0.77864 0,7.95284 -5.949,17.12349 -16.82782,17.12349 -3.33998,0 -6.44885,-0.99661 -9.0663,-2.70415 0.46265,0.0558 0.93347,0.0842 1.41082,0.0842 2.77108,0 5.32118,-0.96222 7.34533,-2.57632 -2.58806,-0.0485 -4.77225,-1.78861 -5.52494,-4.17944 0.36119,0.0703 0.73167,0.10807 1.11276,0.10807 0.53944,0 1.06193,-0.0737 1.55813,-0.21122 -2.70563,-0.55308 -4.74434,-2.98533 -4.74434,-5.90119 0,-0.0254 0,-0.0505 5.7e-4,-0.0757 0.79734,0.45071 1.70943,0.72141 2.6789,0.7527 -1.58702,-1.07923 -2.63116,-2.9212 -2.63116,-5.00934 0,-1.10286 0.29158,-2.13673 0.80079,-3.02548 2.91705,3.64113 7.27509,6.03703 12.19057,6.28812 -0.1009,-0.44058 -0.15321,-0.89986 -0.15321,-1.37159 0,-3.3236 2.64818,-6.01805 5.91433,-6.01805 1.70121,0 3.23853,0.73076 4.31726,1.90048 1.34719,-0.26986 2.61295,-0.77062 3.75581,-1.46046 -0.44163,1.40541 -1.37932,2.58476 -2.60036,3.32965 1.19622,-0.14548 2.3362,-0.46899 3.39679,-0.9476 -0.79263,1.2067 -1.79543,2.26673 -2.95115,3.11519 z"
       id="path3632"
       style="fill:#ffffff" />
    <rect
       y="417.01395"
       x="499.46457"
       height="36"
       width="36"
       id="rect3676"
       style="color:#000000;fill:none;stroke:none;stroke-width:4;marker:none;visibility:visible;display:inline;overflow:visible;enable-background:accumulate" />
    <path
       id="path3678"
       d="m 529.46487,453.01395 -23.99962,0 c -3.30026,0 -6.00068,2.70035 -6.00068,6.00082 l 0,23.99843 c 0,3.30251 2.70042,6.00075 6.00068,6.00075 l 23.99962,0 c 3.30033,0 5.9997,-2.69824 5.9997,-6.00082 l 0,-23.99836 c 0,-3.30047 -2.69937,-6.00082 -5.9997,-6.00082 z m -0.53753,12.0176 c 0.0115,0.25812 0.0172,0.51778 0.0172,0.77864 0,7.95284 -5.949,17.12349 -16.82782,17.12349 -3.33998,0 -6.44885,-0.99661 -9.0663,-2.70415 0.46265,0.0558 0.93347,0.0842 1.41082,0.0842 2.77108,0 5.32118,-0.96222 7.34533,-2.57632 -2.58806,-0.0485 -4.77225,-1.78861 -5.52494,-4.17944 0.36119,0.0703 0.73167,0.10807 1.11276,0.10807 0.53944,0 1.06193,-0.0737 1.55813,-0.21122 -2.70563,-0.55308 -4.74434,-2.98533 -4.74434,-5.90119 0,-0.0254 0,-0.0505 5.7e-4,-0.0757 0.79734,0.45071 1.70943,0.72141 2.6789,0.7527 -1.58702,-1.07923 -2.63116,-2.9212 -2.63116,-5.00934 0,-1.10286 0.29158,-2.13673 0.80079,-3.02548 2.91705,3.64113 7.27509,6.03703 12.19057,6.28812 -0.1009,-0.44058 -0.15321,-0.89986 -0.15321,-1.37159 0,-3.3236 2.64818,-6.01805 5.91433,-6.01805 1.70121,0 3.23853,0.73076 4.31726,1.90048 1.34719,-0.26986 2.61295,-0.77062 3.75581,-1.46046 -0.44163,1.40541 -1.37932,2.58476 -2.60036,3.32965 1.19622,-0.14548 2.3362,-0.46899 3.39679,-0.9476 -0.79263,1.2067 -1.79543,2.26673 -2.95115,3.11519 z"
       inkscape:connector-curvature="0"
       style="fill:#bcbcc9;fill-opacity:1" />
    <path
       inkscape:connector-curvature="0"
       d="m 565.46498,417.01395 -23.99977,0 c -3.30019,0 -6.00061,2.70049 -6.00061,6.00075 l 0,23.99857 c 0,3.30251 2.70042,6.00068 6.00061,6.00068 l 23.99977,-7e-5 c 3.30032,0 5.99962,-2.6981 5.99962,-6.00075 l 0,-23.99843 c 0,-3.30026 -2.69937,-6.00075 -5.99962,-6.00075 z m 0.60637,18 -5.85675,0 0,15.75 -6.75,0 0,-15.75 -3.25287,0 0,-5.15264 3.25287,0 0,-3.34638 c 0,-4.54718 1.96144,-7.25098 7.30793,-7.25098 l 6.16092,0 0,5.57473 -5.03191,0 c -1.49351,-0.002 -1.67878,0.77878 -1.67878,2.23284 l -0.008,2.78979 6.75,0 -0.89325,5.15264 z"
       id="path3486"
       style="fill:#ffffff" />
    <path
       id="path3716"
       d="m 565.46498,453.01395 -23.99977,0 c -3.30019,0 -6.00061,2.70049 -6.00061,6.00075 l 0,23.99857 c 0,3.30251 2.70042,6.00068 6.00061,6.00068 l 23.99977,-7e-5 c 3.30032,0 5.99962,-2.6981 5.99962,-6.00075 l 0,-23.99843 c 0,-3.30026 -2.69937,-6.00075 -5.99962,-6.00075 z m 0.60637,18 -5.85675,0 0,15.75 -6.75,0 0,-15.75 -3.25287,0 0,-5.15264 3.25287,0 0,-3.34638 c 0,-4.54718 1.96144,-7.25098 7.30793,-7.25098 l 6.16092,0 0,5.57473 -5.03191,0 c -1.49351,-0.002 -1.67878,0.77878 -1.67878,2.23284 l -0.008,2.78979 6.75,0 -0.89325,5.15264 z"
       inkscape:connector-curvature="0"
       style="fill:#bcbcc9;fill-opacity:1" />
    <path
       inkscape:connector-curvature="0"
       d="m 571.49294,447.58808 c -0.009,-0.089 -0.0159,-0.17825 -0.0205,-0.26825 0.005,0.09 0.012,0.17923 0.0205,0.26825 z m 8.2653,-10.70565 c 3.23473,0.0963 5.40471,-3.25891 4.84671,-7.49524 -0.55877,-4.23562 -3.63501,-7.63481 -6.86981,-7.73163 -3.23529,-0.096 -5.40492,3.14585 -4.84636,7.38281 0.55835,4.23521 3.63347,7.74753 6.86946,7.84406 z m 27.70636,-10.86848 0,-2.99918 c 0,-3.30047 -2.69937,-6.00082 -5.9997,-6.00082 l -23.99962,0 c -3.24408,0 -5.90667,2.60972 -5.99639,5.83334 2.05179,-1.80654 4.89811,-3.3158 7.83541,-3.3158 3.1396,0 12.55936,0 12.55936,0 l -2.81067,2.37719 -3.98208,0 c 2.64129,1.01265 4.04846,4.08249 4.04846,7.23242 0,2.64544 -1.46989,4.92026 -3.54685,6.53794 -2.02654,1.57858 -2.41073,2.23973 -2.41073,3.58164 0,1.14532 2.17076,3.09375 3.30581,3.8949 3.31812,2.33922 4.39158,4.51096 4.39158,8.13712 0,0.57755 -0.0718,1.15418 -0.21326,1.72125 l 10.81906,0 c 3.30025,0 5.99962,-2.69824 5.99962,-6.00082 l 0,-18.74911 -6.75,0 0,6.74993 -2.25,0 0,-6.75 -6.74993,0 0,-2.25 6.74993,0 0,-6.75 2.25,0 0,6.75 6.75,0 z m -29.46495,17.92744 c 0.75987,0 1.45625,-0.0207 2.17744,-0.0207 -0.95435,-0.92581 -1.70951,-2.06016 -1.70951,-3.45868 0,-0.82997 0.26593,-1.629 0.63753,-2.33859 -0.37906,0.0271 -0.76606,0.0349 -1.16459,0.0349 -2.61408,0 -4.83419,-0.84643 -6.47592,-2.24487 l 0,2.36397 2.1e-4,7.09207 c 1.87875,-0.89205 4.10934,-1.42811 6.53484,-1.42811 z m -6.41482,4.26522 c -0.0391,-0.19188 -0.0691,-0.38693 -0.0894,-0.58478 0.0202,0.19785 0.0503,0.3929 0.0894,0.58478 z m 15.89168,2.30583 c -0.52938,-2.0674 -2.40658,-3.09248 -5.0234,-4.90669 -0.95175,-0.30698 -2.00018,-0.48775 -3.12518,-0.4995 -3.15063,-0.0339 -6.08583,1.22843 -7.74197,3.10683 0.55969,2.73185 2.98948,4.80087 5.87932,4.80087 l 10.0703,0 c 0.0638,-0.39122 0.0948,-0.79566 0.0948,-1.2105 0,-0.44065 -0.0539,-0.87159 -0.15385,-1.29101 z"
       id="path3559"
       style="fill:#ffffff" />
    <path
       style="fill:#bcbcc9;fill-opacity:1"
       id="path3009"
       d="m 571.49294,483.58808 c -0.009,-0.089 -0.0159,-0.17825 -0.0205,-0.26825 0.005,0.09 0.012,0.17923 0.0205,0.26825 z m 8.2653,-10.70565 c 3.23473,0.0963 5.40471,-3.25891 4.84671,-7.49524 -0.55877,-4.23562 -3.63501,-7.63481 -6.86981,-7.73163 -3.23529,-0.096 -5.40492,3.14585 -4.84636,7.38281 0.55835,4.23521 3.63347,7.74753 6.86946,7.84406 z m 27.70636,-10.86848 0,-2.99918 c 0,-3.30047 -2.69937,-6.00082 -5.9997,-6.00082 l -23.99962,0 c -3.24408,0 -5.90667,2.60972 -5.99639,5.83334 2.05179,-1.80654 4.89811,-3.3158 7.83541,-3.3158 3.1396,0 12.55936,0 12.55936,0 l -2.81067,2.37719 -3.98208,0 c 2.64129,1.01265 4.04846,4.08249 4.04846,7.23242 0,2.64544 -1.46989,4.92026 -3.54685,6.53794 -2.02654,1.57858 -2.41073,2.23973 -2.41073,3.58164 0,1.14532 2.17076,3.09375 3.30581,3.8949 3.31812,2.33922 4.39158,4.51096 4.39158,8.13712 0,0.57755 -0.0718,1.15418 -0.21326,1.72125 l 10.81906,0 c 3.30025,0 5.99962,-2.69824 5.99962,-6.00082 l 0,-18.74911 -6.75,0 0,6.74993 -2.25,0 0,-6.75 -6.74993,0 0,-2.25 6.74993,0 0,-6.75 2.25,0 0,6.75 6.75,0 z m -29.46495,17.92744 c 0.75987,0 1.45625,-0.0207 2.17744,-0.0207 -0.95435,-0.92581 -1.70951,-2.06016 -1.70951,-3.45868 0,-0.82997 0.26593,-1.629 0.63753,-2.33859 -0.37906,0.0271 -0.76606,0.0349 -1.16459,0.0349 -2.61408,0 -4.83419,-0.84643 -6.47592,-2.24487 l 0,2.36397 2.1e-4,7.09207 c 1.87875,-0.89205 4.10934,-1.42811 6.53484,-1.42811 z m -6.41482,4.26522 c -0.0391,-0.19188 -0.0691,-0.38693 -0.0894,-0.58478 0.0202,0.19785 0.0503,0.3929 0.0894,0.58478 z m 15.89168,2.30583 c -0.52938,-2.0674 -2.40658,-3.09248 -5.0234,-4.90669 -0.95175,-0.30698 -2.00018,-0.48775 -3.12518,-0.4995 -3.15063,-0.0339 -6.08583,1.22843 -7.74197,3.10683 0.55969,2.73185 2.98948,4.80087 5.87932,4.80087 l 10.0703,0 c 0.0638,-0.39122 0.0948,-0.79566 0.0948,-1.2105 0,-0.44065 -0.0539,-0.87159 -0.15385,-1.29101 z"
       inkscape:connector-curvature="0" />
  </g>
</svg>
