<?xml version="1.0" encoding="UTF-8" standalone="no"?>
<!-- Created with Inkscape (http://www.inkscape.org/) -->

<?xml-stylesheet type="text/css" href="../css/styles.css" ?><svg
   xmlns:dc="http://purl.org/dc/elements/1.1/"
   xmlns:cc="http://creativecommons.org/ns#"
   xmlns:rdf="http://www.w3.org/1999/02/22-rdf-syntax-ns#"
   xmlns:svg="http://www.w3.org/2000/svg"
   xmlns="http://www.w3.org/2000/svg"
   xmlns:sodipodi="http://sodipodi.sourceforge.net/DTD/sodipodi-0.dtd"
   xmlns:inkscape="http://www.inkscape.org/namespaces/inkscape"
   width="804"
   height="137.9994"
   preserveAspectRatio="xMinYMin meet"
   id="svg6542"
   version="1.1"
   inkscape:version="0.48.4 r9943 custom"
   sodipodi:docname="logotype.svg">
  <defs
     id="defs6544" />
  <sodipodi:namedview
     id="base"
     pagecolor="#ffffff"
     bordercolor="#666666"
     borderopacity="1.0"
     inkscape:pageopacity="0.0"
     inkscape:pageshadow="2"
     inkscape:zoom="1"
     inkscape:cx="392.90983"
     inkscape:cy="-26.36613"
     inkscape:document-units="px"
     inkscape:current-layer="layer1"
     showgrid="false"
     fit-margin-top="0"
     fit-margin-left="0"
     fit-margin-right="0"
     fit-margin-bottom="0"
     inkscape:window-width="1440"
     inkscape:window-height="852"
     inkscape:window-x="0"
     inkscape:window-y="22"
     inkscape:window-maximized="0" />
  <metadata
     id="metadata6547">
    <rdf:RDF>
      <cc:Work
         rdf:about="">
        <dc:format>image/svg+xml</dc:format>
        <dc:type
           rdf:resource="http://purl.org/dc/dcmitype/StillImage" />
        <dc:title />
      </cc:Work>
    </rdf:RDF>
  </metadata>
  <g
     inkscape:label="Layer 1"
     inkscape:groupmode="layer"
     id="layer1"
     transform="translate(-63.635815,-431.35074)">
    <path
       id="path4411"
       style="font-size:16.02683067px;font-style:normal;font-variant:normal;font-weight:normal;font-stretch:normal;text-align:start;line-height:109.00000334%;letter-spacing:0px;word-spacing:0px;writing-mode:lr-tb;text-anchor:start;fill:#ffffff;fill-opacity:1;stroke:none;font-family:Museo 500;-inkscape-font-specification:Museo 500"
       d="m 227.04575,476.78409 c 0,-7.55549 2.54082,-13.87405 7.62243,-18.95567 5.14845,-5.08153 11.66762,-7.62233 19.5575,-7.62239 3.7443,6e-5 7.18776,0.63526 10.33038,1.9056 3.2094,1.20359 5.48274,2.44056 6.82005,3.7109 l 1.9056,1.8053 -4.61355,6.82003 c -0.40125,-0.40115 -1.00302,-0.93605 -1.80531,-1.60471 -0.73554,-0.6686 -2.34027,-1.53782 -4.81416,-2.60766 -2.40711,-1.06978 -4.88106,-1.60469 -7.42182,-1.60472 -5.08163,3e-5 -9.29402,1.70504 -12.63716,5.11503 -3.34317,3.41004 -5.01477,7.72271 -5.01474,12.938 -3e-5,5.21535 1.67157,9.56141 5.01474,13.03829 3.41001,3.47688 7.72268,5.21532 12.93803,5.21532 2.80824,0 5.51619,-0.56834 8.12388,-1.70501 2.60763,-1.13667 4.51323,-2.27334 5.71683,-3.41001 l 1.80531,-1.70501 3.91149,7.12091 c -0.20072,0.20059 -0.50151,0.50148 -0.90264,0.90265 -0.33438,0.33432 -1.13673,0.96952 -2.40708,1.9056 -1.27047,0.93608 -2.64114,1.77187 -4.1121,2.50737 -1.47102,0.66863 -3.37665,1.30383 -5.7168,1.90559 -2.2734,0.60177 -4.64703,0.90265 -7.12095,0.90265 -7.95674,0 -14.47592,-2.50736 -19.5575,-7.52209 -5.08161,-5.01473 -7.62243,-11.36669 -7.62243,-19.05597 m 58.4594,25.37465 0,-50.74905 9.42773,0 0,8.82592 -0.20071,3.81119 0.20071,0 c 1.20351,-3.87802 3.2094,-7.05402 6.0177,-9.52798 2.87508,-2.47387 6.21825,-3.71084 10.02948,-3.7109 l 2.50737,0.20059 0,9.62828 c -0.86925,-0.20059 -1.80534,-0.30089 -2.80824,-0.30089 -3.14262,3e-5 -6.01773,1.06984 -8.62539,3.20943 -2.60769,2.13965 -4.47984,5.04819 -5.61651,8.72563 -0.80238,2.60769 -1.20354,5.64996 -1.20354,9.1268 l 0,20.76098 -9.7286,0 m 44.03886,-31.29191 27.07962,0 c -0.13372,-4.21234 -1.37072,-7.42176 -3.71091,-9.62828 -2.27338,-2.20645 -5.11507,-3.30969 -8.52507,-3.30972 -3.81123,3e-5 -7.0875,1.13671 -9.8289,3.41002 -2.67453,2.27337 -4.34611,5.44937 -5.01474,9.52798 m -10.33037,5.91738 c 0,-7.95667 2.37363,-14.37552 7.12093,-19.25655 4.81416,-4.88095 10.89872,-7.32145 18.25367,-7.32151 6.88689,6e-5 12.26938,2.23997 16.14748,6.71974 3.87804,4.47985 5.81708,10.16321 5.81711,17.05008 l -0.30089,4.21237 -37.00882,0 c 0.26715,5.34907 2.03933,9.49455 5.31563,12.43652 3.34317,2.87512 7.38837,4.31267 12.13569,4.31267 2.60763,0 5.14844,-0.50147 7.62241,-1.50442 2.54077,-1.00294 4.41295,-1.97246 5.61651,-2.90854 l 1.80531,-1.50442 4.0118,7.12092 c -0.53494,0.5349 -1.3373,1.20353 -2.40708,2.00589 -1.06984,0.80235 -3.30976,1.87216 -6.71976,3.20942 -3.41005,1.33727 -6.92038,2.0059 -10.53096,2.0059 -7.8899,0 -14.34217,-2.50737 -19.35692,-7.5221 -5.01474,-5.08159 -7.52211,-11.43355 -7.52211,-19.05597 m 65.9627,-5.91738 27.07963,0 c -0.13373,-4.21234 -1.37073,-7.42176 -3.71091,-9.62828 -2.27339,-2.20645 -5.11507,-3.30969 -8.52507,-3.30972 -3.81124,3e-5 -7.08754,1.13671 -9.8289,3.41002 -2.67456,2.27337 -4.34611,5.44937 -5.01475,9.52798 m -10.33037,5.91738 c 0,-7.95667 2.37365,-14.37552 7.12094,-19.25655 4.81412,-4.88095 10.89868,-7.32145 18.25367,-7.32151 6.88689,6e-5 12.26938,2.23997 16.14748,6.71974 3.87801,4.47985 5.81704,10.16321 5.8171,17.05008 l -0.30088,4.21237 -37.00882,0 c 0.26745,5.34907 2.0393,9.49455 5.31563,12.43652 3.34313,2.87512 7.38836,4.31267 12.13568,4.31267 2.60764,0 5.14844,-0.50147 7.62242,-1.50442 2.54077,-1.00294 4.41294,-1.97246 5.61651,-2.90854 l 1.80531,-1.50442 4.01179,7.12092 c -0.53496,0.5349 -1.33732,1.20353 -2.40707,2.00589 -1.06988,0.80235 -3.30977,1.87216 -6.71976,3.20942 -3.41006,1.33727 -6.92038,2.0059 -10.53097,2.0059 -7.88989,0 -14.3422,-2.50737 -19.35691,-7.5221 -5.01475,-5.08159 -7.52212,-11.43355 -7.52212,-19.05597 m 59.14266,25.37465 0,-70.80797 9.7286,0 0,38.71371 7.12094,0 13.8407,-18.65479 11.03244,0 -16.84955,22.36569 0,0.20059 18.75515,28.18277 -11.33333,0 -15.24482,-23.87011 -7.32153,0 0,23.87011 -9.7286,0 m 74.94065,-25.37452 c 0,-7.5555 2.5408,-13.87406 7.62241,-18.95568 5.14847,-5.08153 11.66761,-7.62233 19.55751,-7.62239 3.74431,6e-5 7.18777,0.63526 10.33037,1.9056 3.20941,1.2036 5.48276,2.44056 6.82006,3.7109 l 1.9056,1.8053 -4.61357,6.82003 c -0.40121,-0.40115 -1.00298,-0.93605 -1.8053,-1.60471 -0.73553,-0.6686 -2.34025,-1.53782 -4.81416,-2.60766 -2.40711,-1.06978 -4.88105,-1.60468 -7.42182,-1.60471 -5.08164,3e-5 -9.29403,1.70504 -12.63716,5.11502 -3.34316,3.41005 -5.01474,7.72271 -5.01474,12.938 0,5.21535 1.67158,9.56142 5.01474,13.0383 3.41,3.47687 7.72268,5.21531 12.93804,5.21531 2.80823,0 5.51619,-0.56833 8.12389,-1.705 2.60764,-1.13668 4.51324,-2.27335 5.71681,-3.41002 l 1.80531,-1.70501 3.9115,7.12092 c -0.20059,0.20059 -0.50154,0.50147 -0.90266,0.90265 -0.33437,0.33431 -1.13673,0.96951 -2.40707,1.90559 -1.27044,0.93609 -2.64113,1.77188 -4.11209,2.50737 -1.47103,0.66863 -3.37663,1.30383 -5.71681,1.9056 -2.27339,0.60176 -4.64703,0.90265 -7.12094,0.90265 -7.95676,0 -14.4759,-2.50737 -19.55751,-7.5221 -5.08161,-5.01472 -7.62241,-11.36668 -7.62241,-19.05596 m 58.45941,25.37464 0,-50.74905 9.42772,0 0,8.82592 -0.20059,3.8112 0.20059,0 c 1.2035,-3.87803 3.2094,-7.05403 6.01769,-9.52799 2.87509,-2.47387 6.21825,-3.71084 10.02949,-3.7109 l 2.50737,0.20059 0,9.62828 c -0.86928,-0.20059 -1.80537,-0.30088 -2.80826,-0.30088 -3.1426,3e-5 -6.01772,1.06984 -8.62536,3.20942 -2.60769,2.13965 -4.47987,5.04819 -5.61651,8.72563 -0.80239,2.60769 -1.20357,5.64996 -1.20354,9.12681 l 0,20.76097 -9.7286,0 m 44.03885,-31.2919 27.07962,0 c -0.13373,-4.21234 -1.37073,-7.42177 -3.71091,-9.62828 -2.27338,-2.20645 -5.11507,-3.30969 -8.52507,-3.30972 -3.81123,3e-5 -7.08753,1.1367 -9.8289,3.41001 -2.67456,2.27338 -4.34614,5.44937 -5.01474,9.52799 m -10.33038,5.91738 c 0,-7.95668 2.37365,-14.37553 7.12094,-19.25656 4.81413,-4.88094 10.89868,-7.32144 18.25367,-7.32151 6.88689,7e-5 12.26938,2.23998 16.14748,6.71974 3.87801,4.47986 5.81704,10.16322 5.81711,17.05008 l -0.30089,4.21237 -37.00882,0 c 0.26746,5.34908 2.0393,9.49455 5.31563,12.43653 3.34314,2.87511 7.38836,4.31266 12.13569,4.31266 2.60763,0 5.14844,-0.50147 7.62241,-1.50441 2.54077,-1.00295 4.41294,-1.97246 5.61651,-2.90855 l 1.80531,-1.50442 4.0118,7.12092 c -0.53497,0.5349 -1.33733,1.20353 -2.40708,2.00589 -1.06987,0.80236 -3.30979,1.87217 -6.71976,3.20943 -3.41006,1.33726 -6.92038,2.00589 -10.53096,2.00589 -7.8899,0 -14.34221,-2.50737 -19.35692,-7.52209 -5.01474,-5.0816 -7.52212,-11.43356 -7.52212,-19.05597 m 64.85947,10.63122 c -3e-5,2.20648 0.83576,4.11208 2.50737,5.71679 1.67155,1.60472 4.01177,2.40707 7.02064,2.40707 3.87804,0 7.08748,-1.67157 9.62831,-5.01473 2.60764,-3.41001 3.91144,-7.12088 3.91151,-11.13269 l 0,-1.60472 -2.50738,0 c -13.707,3e-5 -20.56048,3.20946 -20.56045,9.62828 m -9.8289,0.50147 c 0,-11.63414 10.19662,-17.45122 30.58994,-17.45125 l 2.20649,0 0,-0.90265 c -3e-5,-7.42177 -3.71094,-11.13267 -11.13273,-11.1327 -2.34025,3e-5 -4.68046,0.40121 -7.02065,1.20353 -2.34024,0.80239 -4.11212,1.60475 -5.31563,2.40707 l -1.8053,1.30383 -4.0118,-7.12091 c 0.53488,-0.46801 1.3038,-1.03635 2.30678,-1.70501 1.06978,-0.66857 3.24284,-1.53779 6.51917,-2.60766 3.27627,-1.13661 6.65287,-1.70494 10.12979,-1.70501 6.41884,7e-5 11.36669,1.70507 14.84364,5.11503 3.47683,3.41004 5.21528,8.32448 5.21534,14.7433 l 0,32.09426 -9.02654,0 0,-4.81414 0.20058,-4.01178 -0.20058,0 c -0.13373,0.26745 -0.33438,0.6352 -0.60177,1.10324 -0.20059,0.46804 -0.76896,1.2704 -1.70502,2.40707 -0.86925,1.13667 -1.8722,2.13962 -3.00884,3.00884 -1.06985,0.86922 -2.6077,1.67157 -4.61357,2.40707 -1.93907,0.73549 -4.04526,1.10324 -6.31858,1.10324 -4.68046,0 -8.72569,-1.37069 -12.13568,-4.11208 -3.41003,-2.74138 -5.11504,-6.51915 -5.11504,-11.33329 m 58.71637,-4.31257 0,-23.66952 -6.61946,0 0,-7.82298 6.92035,0 0,-14.643 9.42772,0 0,14.643 12.23597,0 0,7.82298 -12.23597,0 0,22.56628 c 0,1.93906 0.26775,3.64403 0.80236,5.11502 0.5349,1.40413 1.1701,2.50737 1.9056,3.30972 0.80236,0.80236 1.70501,1.43756 2.70796,1.9056 1.06981,0.46804 2.0059,0.76892 2.80826,0.90265 0.86922,0.13373 1.73841,0.20059 2.60767,0.20059 l 2.30678,-0.20059 0,8.62533 c -0.93612,0.13373 -2.07279,0.20059 -3.41003,0.20059 -1.60472,0 -3.14257,-0.10029 -4.61356,-0.30088 -1.471,-0.20059 -3.14258,-0.70206 -5.01475,-1.50445 -1.87217,-0.80233 -3.51032,-1.8387 -4.91445,-3.1091 -1.33726,-1.33726 -2.50737,-3.20943 -3.51032,-5.6165 -0.93609,-2.40707 -1.40413,-5.21531 -1.40413,-8.42474 m 33.74133,18.5545 0,-50.74906 9.72861,0 0,50.74906 -9.72861,0 m -0.10029,-60.87881 0,-9.92916 9.8289,0 0,9.92916 -9.8289,0 m 37.01383,60.87881 -18.95573,-50.74906 10.33037,0 12.33627,34.30074 c 0.26746,0.80236 0.53491,1.80531 0.80236,3.00884 0.26745,1.13667 0.50148,2.07276 0.70207,2.80825 l 0.20059,1.10324 0.20059,0 0.20059,-1.10324 c 0.20059,-0.73549 0.43458,-1.67158 0.70203,-2.80825 0.33432,-1.20353 0.6352,-2.20648 0.90268,-3.00884 l 12.33628,-34.30074 10.23008,0 -18.75515,50.74906 -11.23303,0 m 45.12803,-31.29191 27.07962,0 c -0.13373,-4.21234 -1.37076,-7.42177 -3.71091,-9.62828 -2.27341,-2.20645 -5.11507,-3.30969 -8.52507,-3.30972 -3.81124,3e-5 -7.08754,1.1367 -9.8289,3.41001 -2.67456,2.27338 -4.34614,5.44937 -5.01474,9.52799 m -10.33038,5.91738 c -3e-5,-7.95667 2.37362,-14.37553 7.12094,-19.25656 4.81412,-4.88094 10.89868,-7.32144 18.25367,-7.3215 6.88686,6e-5 12.26935,2.23997 16.14748,6.71973 3.87801,4.47986 5.81704,10.16322 5.8171,17.05008 l -0.30088,4.21237 -37.00882,0 c 0.26776,5.34908 2.0393,9.49455 5.31563,12.43653 3.34313,2.87511 7.38836,4.31267 12.13568,4.31267 2.60764,0 5.14841,-0.50148 7.62242,-1.50442 2.54074,-1.00295 4.41291,-1.97246 5.61651,-2.90855 l 1.80531,-1.50441 4.01179,7.12091 c -0.53496,0.53491 -1.33732,1.20354 -2.40707,2.00589 -1.06988,0.80236 -3.3098,1.87217 -6.71976,3.20943 -3.41009,1.33726 -6.92041,2.00589 -10.53097,2.00589 -7.88989,0 -14.3422,-2.50736 -19.35691,-7.52209 -5.01478,-5.08159 -7.52215,-11.43355 -7.52212,-19.05597"
       inkscape:connector-curvature="0" />
    <path
       id="svg-Logotype"
       style="font-size:16.02683067px;font-style:normal;font-variant:normal;font-weight:normal;font-stretch:normal;text-align:start;line-height:109.00000334%;letter-spacing:0px;word-spacing:0px;writing-mode:lr-tb;text-anchor:start;fill:#ffffff;fill-opacity:1;stroke:none;font-family:Museo 500;-inkscape-font-specification:Museo 500"
       d="m 63.635815,431.35074 0,137.99941 137.999975,0 0,-137.99941 z m 12.090842,10.79604 113.664243,0 -19.08624,19.11776 c -9.67665,-9.24743 -22.87589,-14.97823 -37.50888,-14.97823 -14.65579,0 -27.91996,5.79225 -37.66688,15.19939 z m 115.117833,1.07449 0,113.8217 -56.91113,-56.81618 z m -116.413421,0.19026 19.402249,19.37041 c -9.444151,9.75301 -15.262677,23.04204 -15.262677,37.72993 0,14.59463 5.735066,27.80473 15.073071,37.54026 l -19.212643,19.27589 z m 58.364711,12.76628 c 11.75254,0 22.5013,4.69595 30.49374,12.13407 l -10.4911,10.52281 c -5.25933,-4.85003 -12.35422,-7.86826 -20.00264,-7.86826 -7.80141,0 -14.90608,3.04133 -20.19223,7.99457 l -10.4595,-10.45951 c 7.95607,-7.61901 18.73695,-12.32368 30.65173,-12.32368 z m -31.94733,13.61934 10.45951,10.42796 c -4.99904,5.29443 -8.05794,12.445 -8.05794,20.28676 0,7.73506 2.98945,14.76242 7.86835,20.03412 l -10.45953,10.49096 C 93.1129,523.09353 88.46135,512.3621 88.46135,500.51187 c 0,-11.94696 4.731503,-22.75264 12.3871,-30.71472 z m 31.78933,11.05987 c 5.06594,0 9.60002,1.83302 13.14549,4.99285 l -13.1139,13.11373 -13.11388,-13.08224 c 3.48061,-3.11929 8.0644,-5.02434 13.08229,-5.02434 z m -14.37787,6.31999 13.11388,13.08224 -13.30349,13.33487 c -3.13134,-3.48333 -5.08756,-8.05323 -5.08756,-13.08225 0,-5.14195 2.01952,-9.8251 5.27717,-13.33486 z m 14.40946,14.34602 13.3983,13.3982 c -3.46666,3.18569 -8.24361,5.24546 -13.42989,5.24546 -5.13359,0 -9.79541,-2.0289 -13.30349,-5.27701 z m -20.28701,20.31855 c 5.30909,5.08144 12.49885,8.21601 20.41342,8.21601 7.93957,0 15.00949,-3.1411 20.28704,-8.15267 l 10.52269,10.52245 c -8.01706,7.74569 -18.75307,12.41884 -30.80973,12.41884 -12.01971,0 -22.89746,-4.77545 -30.87295,-12.51363 z m -17.474656,17.50621 c 9.765756,9.52722 23.127076,15.38901 37.888076,15.38901 14.65359,0 27.97482,-5.88866 37.82489,-15.32598 l 19.18102,19.14952 -114.075033,0 z"
       inkscape:connector-curvature="0" />
    <g
       style="font-size:22px;font-style:normal;font-variant:normal;font-weight:normal;font-stretch:normal;text-align:center;line-height:125%;letter-spacing:2.5px;word-spacing:0px;writing-mode:lr-tb;text-anchor:middle;fill:#ffffff;fill-opacity:1;stroke:none;display:inline;font-family:Sans;-inkscape-font-specification:Sans"
       id="text3362">
      <path
         d="m 240.97584,555.70421 2.162,-3.174 c 0.184,0.21468 0.46,0.47534 0.828,0.782 0.368,0.27601 1.13467,0.67467 2.3,1.196 1.16533,0.49067 2.346,0.73601 3.542,0.736 1.04266,1e-5 1.94733,-0.26066 2.714,-0.782 0.76666,-0.52133 1.14999,-1.22666 1.15,-2.116 -1e-5,-0.76666 -0.41401,-1.44132 -1.242,-2.024 -0.82801,-0.58265 -1.82467,-1.08865 -2.99,-1.518 -1.16534,-0.45999 -2.33067,-0.95065 -3.496,-1.472 -1.16533,-0.55198 -2.162,-1.33398 -2.99,-2.346 -0.828,-1.01198 -1.242,-2.22331 -1.242,-3.634 0,-2.05464 0.79733,-3.66464 2.392,-4.83 1.59467,-1.19597 3.60333,-1.79397 6.026,-1.794 1.50266,3e-5 2.88266,0.21469 4.14,0.644 1.25732,0.42936 2.13132,0.85869 2.622,1.288 l 0.736,0.644 -1.794,3.358 c -0.15334,-0.15331 -0.38334,-0.33731 -0.69,-0.552 -0.27601,-0.24531 -0.92001,-0.55198 -1.932,-0.92 -0.98134,-0.39864 -2.02401,-0.59798 -3.128,-0.598 -1.07334,2e-5 -1.978,0.24536 -2.714,0.736 -0.736,0.46002 -1.104,1.16535 -1.104,2.116 0,0.76669 0.414,1.42602 1.242,1.978 0.828,0.55202 1.82466,1.05802 2.99,1.518 1.16533,0.42935 2.33066,0.92002 3.496,1.472 1.16532,0.52135 2.16199,1.28801 2.99,2.3 0.82799,1.01201 1.24199,2.22334 1.242,3.634 -1e-5,1.96267 -0.78201,3.58801 -2.346,4.876 -1.53334,1.25734 -3.55734,1.886 -6.072,1.886 -1.68667,0 -3.266,-0.276 -4.738,-0.828 -1.472,-0.58266 -2.51467,-1.16533 -3.128,-1.748 l -0.966,-0.828"
         style="font-size:46px;letter-spacing:0px;fill:#ffffff;font-family:MuseoSans-500;-inkscape-font-specification:MuseoSans-500"
         id="path5473" />
      <path
         d="m 264.40206,550.04621 0,-10.856 -3.036,0 0,-3.588 3.174,0 0,-6.716 4.324,0 0,6.716 5.612,0 0,3.588 -5.612,0 0,10.35 c -10e-6,0.88934 0.12266,1.67134 0.368,2.346 0.24533,0.64401 0.53666,1.15001 0.874,1.518 0.36799,0.36801 0.78199,0.65934 1.242,0.874 0.49066,0.21467 0.91999,0.35267 1.288,0.414 0.39866,0.0613 0.79732,0.092 1.196,0.092 l 1.058,-0.092 0,3.956 c -0.42934,0.0613 -0.95068,0.092 -1.564,0.092 -0.73601,0 -1.44134,-0.046 -2.116,-0.138 -0.67467,-0.092 -1.44134,-0.322 -2.3,-0.69 -0.85867,-0.368 -1.61,-0.84333 -2.254,-1.426 -0.61334,-0.61333 -1.15,-1.47199 -1.61,-2.576 -0.42933,-1.10399 -0.644,-2.39199 -0.644,-3.864"
         style="font-size:46px;letter-spacing:0px;fill:#ffffff;font-family:MuseoSans-500;-inkscape-font-specification:MuseoSans-500"
         id="path5475" />
      <path
         d="m 279.55547,550.18421 0,-14.904 4.462,0 0,13.892 c -10e-6,1.87068 0.29133,3.31201 0.874,4.324 0.61332,0.98134 1.77866,1.47201 3.496,1.472 2.26932,10e-6 4.09398,-0.85866 5.474,-2.576 1.37998,-1.71732 2.06998,-3.78732 2.07,-6.21 l 0,-10.902 4.462,0 0,23.276 -4.324,0 0,-3.082 0.092,-1.702 -0.092,0 c -0.58269,1.34934 -1.64068,2.57601 -3.174,3.68 -1.50268,1.104 -3.29668,1.656 -5.382,1.656 -5.30534,0 -7.958,-2.97466 -7.958,-8.924"
         style="font-size:46px;letter-spacing:0px;fill:#ffffff;font-family:MuseoSans-500;-inkscape-font-specification:MuseoSans-500"
         id="path5477" />
      <path
         d="m 305.85166,546.91821 c 0,-3.67998 0.98133,-6.62398 2.944,-8.832 1.96266,-2.23864 4.49265,-3.35797 7.59,-3.358 1.01198,3e-5 1.94732,0.12269 2.806,0.368 0.85865,0.24536 1.53331,0.55203 2.024,0.92 0.52131,0.36803 0.96598,0.73603 1.334,1.104 0.39864,0.36802 0.67464,0.67469 0.828,0.92 l 0.184,0.368 0.092,0 c -0.0614,-0.45998 -0.092,-0.98131 -0.092,-1.564 l 0,-10.764 4.462,0 0,32.476 -4.232,0 0,-2.208 0.046,-1.564 -0.092,0 c -0.0614,0.12267 -0.15336,0.27601 -0.276,0.46 -0.092,0.18401 -0.35269,0.53667 -0.782,1.058 -0.39869,0.49067 -0.87402,0.93534 -1.426,1.334 -0.52135,0.368 -1.24202,0.70534 -2.162,1.012 -0.92002,0.30667 -1.91668,0.46 -2.99,0.46 -3.12801,0 -5.62734,-1.11933 -7.498,-3.358 -1.84001,-2.23866 -2.76,-5.18266 -2.76,-8.832 m 4.554,0 c -1e-5,2.51468 0.59799,4.53868 1.794,6.072 1.22665,1.50267 2.82132,2.25401 4.784,2.254 1.90132,1e-5 3.49598,-0.68999 4.784,-2.07 1.28798,-1.41066 1.93198,-3.51132 1.932,-6.302 -2e-5,-2.23865 -0.58269,-4.17065 -1.748,-5.796 -1.13469,-1.65598 -2.74468,-2.48398 -4.83,-2.484 -1.90135,2e-5 -3.49601,0.75136 -4.784,2.254 -1.28801,1.47202 -1.93201,3.49602 -1.932,6.072"
         style="font-size:46px;letter-spacing:0px;fill:#ffffff;font-family:MuseoSans-500;-inkscape-font-specification:MuseoSans-500"
         id="path5479" />
      <path
         d="m 334.99553,530.63421 0,-4.554 4.508,0 0,4.554 -4.508,0 m 0.046,27.922 0,-23.276 4.462,0 0,23.276 -4.462,0"
         style="font-size:46px;letter-spacing:0px;fill:#ffffff;font-family:MuseoSans-500;-inkscape-font-specification:MuseoSans-500"
         id="path5481" />
      <path
         d="m 348.38369,555.61221 c -2.42267,-2.33066 -3.634,-5.24399 -3.634,-8.74 0,-3.49598 1.21133,-6.39398 3.634,-8.694 2.42266,-2.29997 5.39732,-3.44997 8.924,-3.45 3.52665,3e-5 6.50131,1.15003 8.924,3.45 2.42264,2.30002 3.63397,5.19802 3.634,8.694 -3e-5,3.49601 -1.22669,6.40934 -3.68,8.74 -2.42269,2.33067 -5.38202,3.496 -8.878,3.496 -3.49601,0 -6.47068,-1.16533 -8.924,-3.496 m 3.266,-14.674 c -1.56401,1.56402 -2.34601,3.54202 -2.346,5.934 -1e-5,2.39201 0.78199,4.38534 2.346,5.98 1.56399,1.59467 3.44999,2.39201 5.658,2.392 2.23865,1e-5 4.12465,-0.78199 5.658,-2.346 1.56398,-1.59466 2.34598,-3.60332 2.346,-6.026 -2e-5,-2.39198 -0.78202,-4.36998 -2.346,-5.934 -1.53335,-1.56398 -3.41935,-2.34598 -5.658,-2.346 -2.20801,2e-5 -4.09401,0.78202 -5.658,2.346"
         style="font-size:46px;letter-spacing:0px;fill:#ffffff;font-family:MuseoSans-500;-inkscape-font-specification:MuseoSans-500"
         id="path5483" />
      <path
         d="m 373.22584,555.70421 2.162,-3.174 c 0.184,0.21468 0.46,0.47534 0.828,0.782 0.368,0.27601 1.13467,0.67467 2.3,1.196 1.16533,0.49067 2.346,0.73601 3.542,0.736 1.04266,1e-5 1.94733,-0.26066 2.714,-0.782 0.76666,-0.52133 1.14999,-1.22666 1.15,-2.116 -10e-6,-0.76666 -0.41401,-1.44132 -1.242,-2.024 -0.82801,-0.58265 -1.82467,-1.08865 -2.99,-1.518 -1.16534,-0.45999 -2.33067,-0.95065 -3.496,-1.472 -1.16533,-0.55198 -2.162,-1.33398 -2.99,-2.346 -0.828,-1.01198 -1.242,-2.22331 -1.242,-3.634 0,-2.05464 0.79733,-3.66464 2.392,-4.83 1.59467,-1.19597 3.60333,-1.79397 6.026,-1.794 1.50266,3e-5 2.88266,0.21469 4.14,0.644 1.25732,0.42936 2.13132,0.85869 2.622,1.288 l 0.736,0.644 -1.794,3.358 c -0.15334,-0.15331 -0.38334,-0.33731 -0.69,-0.552 -0.27601,-0.24531 -0.92001,-0.55198 -1.932,-0.92 -0.98134,-0.39864 -2.02401,-0.59798 -3.128,-0.598 -1.07334,2e-5 -1.978,0.24536 -2.714,0.736 -0.736,0.46002 -1.104,1.16535 -1.104,2.116 0,0.76669 0.414,1.42602 1.242,1.978 0.828,0.55202 1.82466,1.05802 2.99,1.518 1.16533,0.42935 2.33066,0.92002 3.496,1.472 1.16532,0.52135 2.16199,1.28801 2.99,2.3 0.82799,1.01201 1.24199,2.22334 1.242,3.634 -1e-5,1.96267 -0.78201,3.58801 -2.346,4.876 -1.53334,1.25734 -3.55734,1.886 -6.072,1.886 -1.68667,0 -3.266,-0.276 -4.738,-0.828 -1.472,-0.58266 -2.51467,-1.16533 -3.128,-1.748 l -0.966,-0.828"
         style="font-size:46px;letter-spacing:0px;fill:#ffffff;font-family:MuseoSans-500;-inkscape-font-specification:MuseoSans-500"
         id="path5485" />
      <path
         d="m 396.33006,547.42421 0,-3.956 13.432,0 0,3.956 -13.432,0"
         style="font-size:46px;letter-spacing:0px;fill:#ffffff;font-family:MuseoSans-500;-inkscape-font-specification:MuseoSans-500"
         id="path5487" />
      <path
         d="m 419.49825,562.78821 c 1.93199,1.04266 4.06332,1.564 6.394,1.564 2.20799,0 3.98665,-0.53667 5.336,-1.61 1.34932,-1.04267 2.02398,-2.68333 2.024,-4.922 l 0,-1.702 0.046,-1.472 -0.092,0 c -1.44135,2.42267 -3.74135,3.634 -6.9,3.634 -3.15867,0 -5.68867,-1.11933 -7.59,-3.358 -1.87067,-2.26932 -2.806,-5.12132 -2.806,-8.556 0,-3.43465 0.90466,-6.22531 2.714,-8.372 1.80933,-2.17731 4.29333,-3.26597 7.452,-3.266 1.04265,3e-5 2.00865,0.12269 2.898,0.368 0.88932,0.21469 1.59465,0.50603 2.116,0.874 0.52132,0.33736 0.96598,0.67469 1.334,1.012 0.36798,0.33736 0.61332,0.62869 0.736,0.874 l 0.23,0.322 0.092,0 c -0.0307,-0.21464 -0.046,-0.45998 -0.046,-0.736 l 0,-2.162 4.278,0 0,22.31 c -2e-5,1.84 -0.33736,3.46533 -1.012,4.876 -0.64402,1.41066 -1.53335,2.51466 -2.668,3.312 -1.13468,0.828 -2.37668,1.44133 -3.726,1.84 -1.34935,0.39866 -2.79068,0.59799 -4.324,0.598 -2.79067,-1e-5 -5.44334,-0.64401 -7.958,-1.932 l 1.472,-3.496 m 7.682,-8.372 c 1.80932,10e-6 3.28132,-0.62866 4.416,-1.886 1.16532,-1.25732 1.74798,-3.29665 1.748,-6.118 -2e-5,-5.21331 -2.19268,-7.81998 -6.578,-7.82 -1.99334,2e-5 -3.55734,0.69002 -4.692,2.07 -1.10401,1.34935 -1.65601,3.22002 -1.656,5.612 -10e-6,2.45335 0.59799,4.43134 1.794,5.934 1.22666,1.47201 2.88266,2.20801 4.968,2.208"
         style="font-size:46px;letter-spacing:0px;fill:#ffffff;font-family:MuseoSans-500;-inkscape-font-specification:MuseoSans-500"
         id="path5489" />
      <path
         d="m 442.85475,552.02421 c 0,-5.33598 4.67666,-8.00398 14.03,-8.004 l 1.012,0 0,-0.414 c -2e-5,-3.40398 -1.70201,-5.10598 -5.106,-5.106 -1.07334,2e-5 -2.14668,0.18402 -3.22,0.552 -1.07334,0.36802 -1.88601,0.73602 -2.438,1.104 l -0.828,0.598 -1.84,-3.266 c 0.24533,-0.21464 0.598,-0.47531 1.058,-0.782 0.49066,-0.30664 1.48733,-0.70531 2.99,-1.196 1.50266,-0.52131 3.05132,-0.78197 4.646,-0.782 2.94399,3e-5 5.21332,0.78203 6.808,2.346 1.59465,1.56402 2.39198,3.81802 2.392,6.762 l 0,14.72 -4.14,0 0,-2.208 0.092,-1.84 -0.092,0 c -0.0614,0.12267 -0.15335,0.29134 -0.276,0.506 -0.092,0.21467 -0.35268,0.58267 -0.782,1.104 -0.39868,0.52134 -0.85868,0.98134 -1.38,1.38 -0.49068,0.39867 -1.19601,0.76667 -2.116,1.104 -0.88934,0.33734 -1.85534,0.506 -2.898,0.506 -2.14667,0 -4.002,-0.62866 -5.566,-1.886 -1.564,-1.25733 -2.346,-2.98999 -2.346,-5.198 m 4.508,-0.23 c -1e-5,1.01201 0.38333,1.88601 1.15,2.622 0.76666,0.73601 1.83999,1.10401 3.22,1.104 1.77866,10e-6 3.25065,-0.76666 4.416,-2.3 1.19598,-1.56399 1.79398,-3.26599 1.794,-5.106 l 0,-0.736 -1.15,0 c -6.28667,1e-5 -9.43001,1.47201 -9.43,4.416"
         style="font-size:46px;letter-spacing:0px;fill:#ffffff;font-family:MuseoSans-500;-inkscape-font-specification:MuseoSans-500"
         id="path5491" />
      <path
         d="m 468.72256,552.20821 0,-26.128 4.462,0 0,25.346 c 0,1.28801 0.21466,2.16201 0.644,2.622 0.42933,0.46001 1.04266,0.69001 1.84,0.69 l 0.782,-0.046 0,3.956 c -0.46001,0.0613 -0.95067,0.092 -1.472,0.092 -4.17067,0 -6.256,-2.17733 -6.256,-6.532"
         style="font-size:46px;letter-spacing:0px;fill:#ffffff;font-family:MuseoSans-500;-inkscape-font-specification:MuseoSans-500"
         id="path5493" />
      <path
         d="m 480.94131,552.20821 0,-26.128 4.462,0 0,25.346 c 0,1.28801 0.21466,2.16201 0.644,2.622 0.42933,0.46001 1.04266,0.69001 1.84,0.69 l 0.782,-0.046 0,3.956 c -0.46001,0.0613 -0.95067,0.092 -1.472,0.092 -4.17067,0 -6.256,-2.17733 -6.256,-6.532"
         style="font-size:46px;letter-spacing:0px;fill:#ffffff;font-family:MuseoSans-500;-inkscape-font-specification:MuseoSans-500"
         id="path5495" />
      <path
         d="m 491.82606,546.91821 c 0,-3.64931 1.08867,-6.59331 3.266,-8.832 2.208,-2.23864 4.99866,-3.35797 8.372,-3.358 3.15865,3e-5 5.62732,1.02736 7.406,3.082 1.77865,2.05469 2.66798,4.66135 2.668,7.82 l -0.138,1.932 -16.974,0 c 0.12266,2.45335 0.93533,4.35468 2.438,5.704 1.53333,1.31867 3.38866,1.97801 5.566,1.978 1.19599,1e-5 2.36132,-0.22999 3.496,-0.69 1.16532,-0.45999 2.02398,-0.90466 2.576,-1.334 l 0.828,-0.69 1.84,3.266 c -0.24535,0.24534 -0.61335,0.55201 -1.104,0.92 -0.49068,0.368 -1.51802,0.85867 -3.082,1.472 -1.56401,0.61334 -3.17401,0.92 -4.83,0.92 -3.61867,0 -6.578,-1.15 -8.878,-3.45 -2.3,-2.33066 -3.45,-5.24399 -3.45,-8.74 m 4.738,-2.714 12.42,0 c -0.0614,-1.93198 -0.62868,-3.40398 -1.702,-4.416 -1.04268,-1.01198 -2.34601,-1.51798 -3.91,-1.518 -1.74801,2e-5 -3.25067,0.52136 -4.508,1.564 -1.22667,1.04269 -1.99334,2.49935 -2.3,4.37"
         style="font-size:46px;letter-spacing:0px;fill:#ffffff;font-family:MuseoSans-500;-inkscape-font-specification:MuseoSans-500"
         id="path5497" />
      <path
         d="m 518.95169,558.55621 0,-23.276 4.324,0 0,4.048 -0.092,1.748 0.092,0 c 0.55199,-1.77864 1.47199,-3.23531 2.76,-4.37 1.31865,-1.13464 2.85199,-1.70197 4.6,-1.702 l 1.15,0.092 0,4.416 c -0.39868,-0.092 -0.82802,-0.13798 -1.288,-0.138 -1.44135,2e-5 -2.76001,0.49069 -3.956,1.472 -1.19601,0.98135 -2.05468,2.31535 -2.576,4.002 -0.36801,1.19602 -0.55201,2.59135 -0.552,4.186 l 0,9.522 -4.462,0"
         style="font-size:46px;letter-spacing:0px;fill:#ffffff;font-family:MuseoSans-500;-inkscape-font-specification:MuseoSans-500"
         id="path5499" />
      <path
         d="m 533.29506,566.79021 1.564,-3.404 c 0.85867,0.644 1.76333,0.966 2.714,0.966 1.84,0 3.23533,-1.13467 4.186,-3.404 l 1.15,-2.668 -9.752,-23 5.014,0 5.842,15.226 0.874,2.806 0.092,0 c 0.24532,-1.04266 0.50599,-1.96266 0.782,-2.76 l 5.658,-15.272 4.83,0 -10.902,27.462 c -0.70534,1.748 -1.73267,3.09733 -3.082,4.048 -1.31867,0.95066 -2.806,1.42599 -4.462,1.426 -0.76667,-1e-5 -1.53333,-0.12267 -2.3,-0.368 -0.736,-0.24534 -1.288,-0.49067 -1.656,-0.736 l -0.552,-0.322"
         style="font-size:46px;letter-spacing:0px;fill:#ffffff;font-family:MuseoSans-500;-inkscape-font-specification:MuseoSans-500"
         id="path5501" />
      <path
         d="m 560.65428,547.42421 0,-3.956 13.432,0 0,3.956 -13.432,0"
         style="font-size:46px;letter-spacing:0px;fill:#ffffff;font-family:MuseoSans-500;-inkscape-font-specification:MuseoSans-500"
         id="path5503" />
      <path
         d="m 580.09647,546.91821 c 0,-3.46531 1.16533,-6.36331 3.496,-8.694 2.36133,-2.33064 5.35132,-3.49597 8.97,-3.496 1.71732,3e-5 3.29665,0.29136 4.738,0.874 1.47198,0.55203 2.51464,1.11936 3.128,1.702 l 0.874,0.828 -2.116,3.128 c -0.18402,-0.18398 -0.46002,-0.42931 -0.828,-0.736 -0.33735,-0.30664 -1.07335,-0.70531 -2.208,-1.196 -1.10402,-0.49064 -2.23868,-0.73598 -3.404,-0.736 -2.33068,2e-5 -4.26268,0.78202 -5.796,2.346 -1.53334,1.56402 -2.30001,3.54202 -2.3,5.934 -1e-5,2.39201 0.76666,4.38534 2.3,5.98 1.56399,1.59467 3.54199,2.39201 5.934,2.392 1.28798,1e-5 2.52998,-0.26066 3.726,-0.782 1.19598,-0.52133 2.06998,-1.04266 2.622,-1.564 l 0.828,-0.782 1.794,3.266 c -0.092,0.092 -0.23002,0.23001 -0.414,0.414 -0.15336,0.15334 -0.52136,0.44467 -1.104,0.874 -0.58269,0.42934 -1.21135,0.81267 -1.886,1.15 -0.67469,0.30667 -1.54869,0.598 -2.622,0.874 -1.04268,0.276 -2.13135,0.414 -3.266,0.414 -3.64934,0 -6.63934,-1.15 -8.97,-3.45 -2.33067,-2.29999 -3.496,-5.21332 -3.496,-8.74"
         style="font-size:46px;letter-spacing:0px;fill:#ffffff;font-family:MuseoSans-500;-inkscape-font-specification:MuseoSans-500"
         id="path5505" />
      <path
         d="m 605.02272,552.02421 c 0,-5.33598 4.67666,-8.00398 14.03,-8.004 l 1.012,0 0,-0.414 c -2e-5,-3.40398 -1.70202,-5.10598 -5.106,-5.106 -1.07334,2e-5 -2.14668,0.18402 -3.22,0.552 -1.07334,0.36802 -1.88601,0.73602 -2.438,1.104 l -0.828,0.598 -1.84,-3.266 c 0.24533,-0.21464 0.598,-0.47531 1.058,-0.782 0.49066,-0.30664 1.48733,-0.70531 2.99,-1.196 1.50266,-0.52131 3.05132,-0.78197 4.646,-0.782 2.94398,3e-5 5.21332,0.78203 6.808,2.346 1.59465,1.56402 2.39198,3.81802 2.392,6.762 l 0,14.72 -4.14,0 0,-2.208 0.092,-1.84 -0.092,0 c -0.0613,0.12267 -0.15335,0.29134 -0.276,0.506 -0.092,0.21467 -0.35268,0.58267 -0.782,1.104 -0.39868,0.52134 -0.85868,0.98134 -1.38,1.38 -0.49068,0.39867 -1.19601,0.76667 -2.116,1.104 -0.88935,0.33734 -1.85534,0.506 -2.898,0.506 -2.14667,0 -4.00201,-0.62866 -5.566,-1.886 -1.564,-1.25733 -2.346,-2.98999 -2.346,-5.198 m 4.508,-0.23 c -10e-6,1.01201 0.38333,1.88601 1.15,2.622 0.76666,0.73601 1.83999,1.10401 3.22,1.104 1.77865,10e-6 3.25065,-0.76666 4.416,-2.3 1.19598,-1.56399 1.79398,-3.26599 1.794,-5.106 l 0,-0.736 -1.15,0 c -6.28668,1e-5 -9.43001,1.47201 -9.43,4.416"
         style="font-size:46px;letter-spacing:0px;fill:#ffffff;font-family:MuseoSans-500;-inkscape-font-specification:MuseoSans-500"
         id="path5507" />
      <path
         d="m 632.22884,558.55621 0,-19.366 -2.898,0 0,-3.588 2.898,0 0,-1.104 c 0,-1.47197 0.21467,-2.74464 0.644,-3.818 0.42933,-1.10397 0.95067,-1.9473 1.564,-2.53 0.61333,-0.6133 1.34933,-1.08863 2.208,-1.426 0.85866,-0.36796 1.60999,-0.59796 2.254,-0.69 0.67466,-0.12263 1.36466,-0.18396 2.07,-0.184 l 1.702,0.138 0,3.818 c -0.30668,-0.0613 -0.69001,-0.092 -1.15,-0.092 -0.52134,3e-5 -1.02734,0.0614 -1.518,0.184 -0.46001,0.092 -0.96601,0.29137 -1.518,0.598 -0.55201,0.3067 -0.99667,0.8127 -1.334,1.518 -0.33734,0.70536 -0.506,1.56403 -0.506,2.576 l 0,1.012 5.52,0 0,3.588 -5.52,0 0,19.366 -4.416,0"
         style="font-size:46px;letter-spacing:0px;fill:#ffffff;font-family:MuseoSans-500;-inkscape-font-specification:MuseoSans-500"
         id="path5509" />
      <path
         d="m 644.82997,546.91821 c 0,-3.64931 1.08866,-6.59331 3.266,-8.832 2.20799,-2.23864 4.99866,-3.35797 8.372,-3.358 3.15865,3e-5 5.62731,1.02736 7.406,3.082 1.77864,2.05469 2.66798,4.66135 2.668,7.82 l -0.138,1.932 -16.974,0 c 0.12266,2.45335 0.93533,4.35468 2.438,5.704 1.53332,1.31867 3.38865,1.97801 5.566,1.978 1.19598,1e-5 2.36132,-0.22999 3.496,-0.69 1.16531,-0.45999 2.02398,-0.90466 2.576,-1.334 l 0.828,-0.69 1.84,3.266 c -0.24536,0.24534 -0.61336,0.55201 -1.104,0.92 -0.49069,0.368 -1.51802,0.85867 -3.082,1.472 -1.56402,0.61334 -3.17402,0.92 -4.83,0.92 -3.61868,0 -6.57801,-1.15 -8.878,-3.45 -2.3,-2.33066 -3.45,-5.24399 -3.45,-8.74 m 4.738,-2.714 12.42,0 c -0.0614,-1.93198 -0.62869,-3.40398 -1.702,-4.416 -1.04268,-1.01198 -2.34602,-1.51798 -3.91,-1.518 -1.74801,2e-5 -3.25068,0.52136 -4.508,1.564 -1.22667,1.04269 -1.99334,2.49935 -2.3,4.37 m 4.922,-12.282 3.358,-5.842 4.784,0 -4.416,5.842 -3.726,0"
         style="font-size:46px;letter-spacing:0px;fill:#ffffff;font-family:MuseoSans-500;-inkscape-font-specification:MuseoSans-500"
         id="path5511" />
      <path
         d="m 672.59959,547.42421 0,-3.956 13.432,0 0,3.956 -13.432,0"
         style="font-size:46px;letter-spacing:0px;fill:#ffffff;font-family:MuseoSans-500;-inkscape-font-specification:MuseoSans-500"
         id="path5513" />
      <path
         d="m 692.04178,546.91821 c 0,-3.46531 1.16533,-6.36331 3.496,-8.694 2.36133,-2.33064 5.35132,-3.49597 8.97,-3.496 1.71732,3e-5 3.29665,0.29136 4.738,0.874 1.47198,0.55203 2.51465,1.11936 3.128,1.702 l 0.874,0.828 -2.116,3.128 c -0.18402,-0.18398 -0.46002,-0.42931 -0.828,-0.736 -0.33735,-0.30664 -1.07335,-0.70531 -2.208,-1.196 -1.10401,-0.49064 -2.23868,-0.73598 -3.404,-0.736 -2.33068,2e-5 -4.26267,0.78202 -5.796,2.346 -1.53334,1.56402 -2.3,3.54202 -2.3,5.934 0,2.39201 0.76666,4.38534 2.3,5.98 1.56399,1.59467 3.54199,2.39201 5.934,2.392 1.28799,1e-5 2.52999,-0.26066 3.726,-0.782 1.19598,-0.52133 2.06998,-1.04266 2.622,-1.564 l 0.828,-0.782 1.794,3.266 c -0.092,0.092 -0.23002,0.23001 -0.414,0.414 -0.15335,0.15334 -0.52135,0.44467 -1.104,0.874 -0.58269,0.42934 -1.21135,0.81267 -1.886,1.15 -0.67468,0.30667 -1.54868,0.598 -2.622,0.874 -1.04268,0.276 -2.13135,0.414 -3.266,0.414 -3.64934,0 -6.63934,-1.15 -8.97,-3.45 -2.33067,-2.29999 -3.496,-5.21332 -3.496,-8.74"
         style="font-size:46px;letter-spacing:0px;fill:#ffffff;font-family:MuseoSans-500;-inkscape-font-specification:MuseoSans-500"
         id="path5515" />
      <path
         d="m 720.78603,555.61221 c -2.42267,-2.33066 -3.634,-5.24399 -3.634,-8.74 0,-3.49598 1.21133,-6.39398 3.634,-8.694 2.42266,-2.29997 5.39732,-3.44997 8.924,-3.45 3.52665,3e-5 6.50131,1.15003 8.924,3.45 2.42264,2.30002 3.63398,5.19802 3.634,8.694 -2e-5,3.49601 -1.22669,6.40934 -3.68,8.74 -2.42269,2.33067 -5.38202,3.496 -8.878,3.496 -3.49601,0 -6.47067,-1.16533 -8.924,-3.496 m 3.266,-14.674 c -1.564,1.56402 -2.346,3.54202 -2.346,5.934 0,2.39201 0.782,4.38534 2.346,5.98 1.56399,1.59467 3.44999,2.39201 5.658,2.392 2.23865,1e-5 4.12465,-0.78199 5.658,-2.346 1.56398,-1.59466 2.34598,-3.60332 2.346,-6.026 -2e-5,-2.39198 -0.78202,-4.36998 -2.346,-5.934 -1.53335,-1.56398 -3.41935,-2.34598 -5.658,-2.346 -2.20801,2e-5 -4.09401,0.78202 -5.658,2.346"
         style="font-size:46px;letter-spacing:0px;fill:#ffffff;font-family:MuseoSans-500;-inkscape-font-specification:MuseoSans-500"
         id="path5517" />
      <path
         d="m 747.19219,550.18421 0,-14.904 4.462,0 0,13.892 c -10e-6,1.87068 0.29132,3.31201 0.874,4.324 0.61332,0.98134 1.77865,1.47201 3.496,1.472 2.26932,10e-6 4.09398,-0.85866 5.474,-2.576 1.37998,-1.71732 2.06998,-3.78732 2.07,-6.21 l 0,-10.902 4.462,0 0,23.276 -4.324,0 0,-3.082 0.092,-1.702 -0.092,0 c -0.58269,1.34934 -1.64069,2.57601 -3.174,3.68 -1.50268,1.104 -3.29668,1.656 -5.382,1.656 -5.30534,0 -7.958,-2.97466 -7.958,-8.924"
         style="font-size:46px;letter-spacing:0px;fill:#ffffff;font-family:MuseoSans-500;-inkscape-font-specification:MuseoSans-500"
         id="path5519" />
      <path
         d="m 775.00638,558.55621 0,-23.276 4.324,0 0,4.048 -0.092,1.748 0.092,0 c 0.55199,-1.77864 1.47199,-3.23531 2.76,-4.37 1.31865,-1.13464 2.85198,-1.70197 4.6,-1.702 l 1.15,0.092 0,4.416 c -0.39869,-0.092 -0.82802,-0.13798 -1.288,-0.138 -1.44135,2e-5 -2.76002,0.49069 -3.956,1.472 -1.19601,0.98135 -2.05468,2.31535 -2.576,4.002 -0.36801,1.19602 -0.55201,2.59135 -0.552,4.186 l 0,9.522 -4.462,0"
         style="font-size:46px;letter-spacing:0px;fill:#ffffff;font-family:MuseoSans-500;-inkscape-font-specification:MuseoSans-500"
         id="path5521" />
      <path
         d="m 790.37038,555.70421 2.162,-3.174 c 0.18399,0.21468 0.45999,0.47534 0.828,0.782 0.36799,0.27601 1.13466,0.67467 2.3,1.196 1.16532,0.49067 2.34599,0.73601 3.542,0.736 1.04265,1e-5 1.94732,-0.26066 2.714,-0.782 0.76665,-0.52133 1.14998,-1.22666 1.15,-2.116 -2e-5,-0.76666 -0.41402,-1.44132 -1.242,-2.024 -0.82802,-0.58265 -1.82468,-1.08865 -2.99,-1.518 -1.16535,-0.45999 -2.33068,-0.95065 -3.496,-1.472 -1.16534,-0.55198 -2.16201,-1.33398 -2.99,-2.346 -0.82801,-1.01198 -1.24201,-2.22331 -1.242,-3.634 -10e-6,-2.05464 0.79733,-3.66464 2.392,-4.83 1.59466,-1.19597 3.60332,-1.79397 6.026,-1.794 1.50265,3e-5 2.88265,0.21469 4.14,0.644 1.25731,0.42936 2.13131,0.85869 2.622,1.288 l 0.736,0.644 -1.794,3.358 c -0.15335,-0.15331 -0.38335,-0.33731 -0.69,-0.552 -0.27602,-0.24531 -0.92002,-0.55198 -1.932,-0.92 -0.98135,-0.39864 -2.02402,-0.59798 -3.128,-0.598 -1.07335,2e-5 -1.97801,0.24536 -2.714,0.736 -0.73601,0.46002 -1.10401,1.16535 -1.104,2.116 -1e-5,0.76669 0.41399,1.42602 1.242,1.978 0.82799,0.55202 1.82465,1.05802 2.99,1.518 1.16532,0.42935 2.33065,0.92002 3.496,1.472 1.16531,0.52135 2.16198,1.28801 2.99,2.3 0.82798,1.01201 1.24198,2.22334 1.242,3.634 -2e-5,1.96267 -0.78202,3.58801 -2.346,4.876 -1.53335,1.25734 -3.55735,1.886 -6.072,1.886 -1.68668,0 -3.26601,-0.276 -4.738,-0.828 -1.47201,-0.58266 -2.51467,-1.16533 -3.128,-1.748 l -0.966,-0.828"
         style="font-size:46px;letter-spacing:0px;fill:#ffffff;font-family:MuseoSans-500;-inkscape-font-specification:MuseoSans-500"
         id="path5523" />
      <path
         d="m 811.22059,546.91821 c 0,-3.64931 1.08867,-6.59331 3.266,-8.832 2.208,-2.23864 4.99866,-3.35797 8.372,-3.358 3.15865,3e-5 5.62732,1.02736 7.406,3.082 1.77865,2.05469 2.66798,4.66135 2.668,7.82 l -0.138,1.932 -16.974,0 c 0.12266,2.45335 0.93533,4.35468 2.438,5.704 1.53333,1.31867 3.38866,1.97801 5.566,1.978 1.19599,1e-5 2.36132,-0.22999 3.496,-0.69 1.16532,-0.45999 2.02398,-0.90466 2.576,-1.334 l 0.828,-0.69 1.84,3.266 c -0.24535,0.24534 -0.61335,0.55201 -1.104,0.92 -0.49068,0.368 -1.51802,0.85867 -3.082,1.472 -1.56401,0.61334 -3.17401,0.92 -4.83,0.92 -3.61867,0 -6.578,-1.15 -8.878,-3.45 -2.3,-2.33066 -3.45,-5.24399 -3.45,-8.74 m 4.738,-2.714 12.42,0 c -0.0614,-1.93198 -0.62868,-3.40398 -1.702,-4.416 -1.04268,-1.01198 -2.34601,-1.51798 -3.91,-1.518 -1.74801,2e-5 -3.25067,0.52136 -4.508,1.564 -1.22667,1.04269 -1.99334,2.49935 -2.3,4.37"
         style="font-size:46px;letter-spacing:0px;fill:#ffffff;font-family:MuseoSans-500;-inkscape-font-specification:MuseoSans-500"
         id="path5525" />
      <path
         d="m 836.46022,555.70421 2.162,-3.174 c 0.184,0.21468 0.46,0.47534 0.828,0.782 0.36799,0.27601 1.13466,0.67467 2.3,1.196 1.16532,0.49067 2.34599,0.73601 3.542,0.736 1.04265,1e-5 1.94732,-0.26066 2.714,-0.782 0.76665,-0.52133 1.14999,-1.22666 1.15,-2.116 -10e-6,-0.76666 -0.41401,-1.44132 -1.242,-2.024 -0.82801,-0.58265 -1.82468,-1.08865 -2.99,-1.518 -1.16534,-0.45999 -2.33067,-0.95065 -3.496,-1.472 -1.16534,-0.55198 -2.162,-1.33398 -2.99,-2.346 -0.828,-1.01198 -1.242,-2.22331 -1.242,-3.634 0,-2.05464 0.79733,-3.66464 2.392,-4.83 1.59466,-1.19597 3.60332,-1.79397 6.026,-1.794 1.50265,3e-5 2.88265,0.21469 4.14,0.644 1.25732,0.42936 2.13132,0.85869 2.622,1.288 l 0.736,0.644 -1.794,3.358 c -0.15335,-0.15331 -0.38335,-0.33731 -0.69,-0.552 -0.27602,-0.24531 -0.92002,-0.55198 -1.932,-0.92 -0.98135,-0.39864 -2.02401,-0.59798 -3.128,-0.598 -1.07334,2e-5 -1.97801,0.24536 -2.714,0.736 -0.73601,0.46002 -1.10401,1.16535 -1.104,2.116 -10e-6,0.76669 0.41399,1.42602 1.242,1.978 0.82799,0.55202 1.82466,1.05802 2.99,1.518 1.16532,0.42935 2.33065,0.92002 3.496,1.472 1.16532,0.52135 2.16198,1.28801 2.99,2.3 0.82798,1.01201 1.24198,2.22334 1.242,3.634 -2e-5,1.96267 -0.78202,3.58801 -2.346,4.876 -1.53335,1.25734 -3.55735,1.886 -6.072,1.886 -1.68668,0 -3.26601,-0.276 -4.738,-0.828 -1.472,-0.58266 -2.51467,-1.16533 -3.128,-1.748 l -0.966,-0.828"
         style="font-size:46px;letter-spacing:0px;fill:#ffffff;font-family:MuseoSans-500;-inkscape-font-specification:MuseoSans-500"
         id="path5527" />
    </g>
  </g>
</svg>
