<?xml version="1.0" encoding="UTF-8" standalone="no"?>
<!-- Created with Inkscape (http://www.inkscape.org/) -->

<?xml-stylesheet type="text/css" href="../css/styles.css" ?><svg
   xmlns:dc="http://purl.org/dc/elements/1.1/"
   xmlns:cc="http://creativecommons.org/ns#"
   xmlns:rdf="http://www.w3.org/1999/02/22-rdf-syntax-ns#"
   xmlns:svg="http://www.w3.org/2000/svg"
   xmlns="http://www.w3.org/2000/svg"
   xmlns:sodipodi="http://sodipodi.sourceforge.net/DTD/sodipodi-0.dtd"
   xmlns:inkscape="http://www.inkscape.org/namespaces/inkscape"
   width="804"
   height="137.9994"
   preserveAspectRatio="xMinYMin meet"
   id="svg6542"
   version="1.1"
   inkscape:version="0.48.4 r9943 custom"
   sodipodi:docname="logotype.svg">
  <defs
     id="defs6544" />
  <sodipodi:namedview
     id="base"
     pagecolor="#ffffff"
     bordercolor="#666666"
     borderopacity="1.0"
     inkscape:pageopacity="0.0"
     inkscape:pageshadow="2"
     inkscape:zoom="1"
     inkscape:cx="392.90983"
     inkscape:cy="-26.36613"
     inkscape:document-units="px"
     inkscape:current-layer="layer1"
     showgrid="false"
     fit-margin-top="0"
     fit-margin-left="0"
     fit-margin-right="0"
     fit-margin-bottom="0"
     inkscape:window-width="1440"
     inkscape:window-height="852"
     inkscape:window-x="0"
     inkscape:window-y="22"
     inkscape:window-maximized="0" />
  <metadata
     id="metadata6547">
    <rdf:RDF>
      <cc:Work
         rdf:about="">
        <dc:format>image/svg+xml</dc:format>
        <dc:type
           rdf:resource="http://purl.org/dc/dcmitype/StillImage" />
        <dc:title />
      </cc:Work>
    </rdf:RDF>
  </metadata>
  <g
     inkscape:label="Layer 1"
     inkscape:groupmode="layer"
     id="layer1"
     transform="translate(-63.635815,-431.35074)">
    <path
       id="path4411"
       style="font-size:16.02683067px;font-style:normal;font-variant:normal;font-weight:normal;font-stretch:normal;text-align:start;line-height:109.00000334%;letter-spacing:0px;word-spacing:0px;writing-mode:lr-tb;text-anchor:start;fill:#ffffff;fill-opacity:1;stroke:none;font-family:Museo 500;-inkscape-font-specification:Museo 500"
       d="m 227.04575,476.78409 c 0,-7.55549 2.54082,-13.87405 7.62243,-18.95567 5.14845,-5.08153 11.66762,-7.62233 19.5575,-7.62239 3.7443,6e-5 7.18776,0.63526 10.33038,1.9056 3.2094,1.20359 5.48274,2.44056 6.82005,3.7109 l 1.9056,1.8053 -4.61355,6.82003 c -0.40125,-0.40115 -1.00302,-0.93605 -1.80531,-1.60471 -0.73554,-0.6686 -2.34027,-1.53782 -4.81416,-2.60766 -2.40711,-1.06978 -4.88106,-1.60469 -7.42182,-1.60472 -5.08163,3e-5 -9.29402,1.70504 -12.63716,5.11503 -3.34317,3.41004 -5.01477,7.72271 -5.01474,12.938 -3e-5,5.21535 1.67157,9.56141 5.01474,13.03829 3.41001,3.47688 7.72268,5.21532 12.93803,5.21532 2.80824,0 5.51619,-0.56834 8.12388,-1.70501 2.60763,-1.13667 4.51323,-2.27334 5.71683,-3.41001 l 1.80531,-1.70501 3.91149,7.12091 c -0.20072,0.20059 -0.50151,0.50148 -0.90264,0.90265 -0.33438,0.33432 -1.13673,0.96952 -2.40708,1.9056 -1.27047,0.93608 -2.64114,1.77187 -4.1121,2.50737 -1.47102,0.66863 -3.37665,1.30383 -5.7168,1.90559 -2.2734,0.60177 -4.64703,0.90265 -7.12095,0.90265 -7.95674,0 -14.47592,-2.50736 -19.5575,-7.52209 -5.08161,-5.01473 -7.62243,-11.36669 -7.62243,-19.05597 m 58.4594,25.37465 0,-50.74905 9.42773,0 0,8.82592 -0.20071,3.81119 0.20071,0 c 1.20351,-3.87802 3.2094,-7.05402 6.0177,-9.52798 2.87508,-2.47387 6.21825,-3.71084 10.02948,-3.7109 l 2.50737,0.20059 0,9.62828 c -0.86925,-0.20059 -1.80534,-0.30089 -2.80824,-0.30089 -3.14262,3e-5 -6.01773,1.06984 -8.62539,3.20943 -2.60769,2.13965 -4.47984,5.04819 -5.61651,8.72563 -0.80238,2.60769 -1.20354,5.64996 -1.20354,9.1268 l 0,20.76098 -9.7286,0 m 44.03886,-31.29191 27.07962,0 c -0.13372,-4.21234 -1.37072,-7.42176 -3.71091,-9.62828 -2.27338,-2.20645 -5.11507,-3.30969 -8.52507,-3.30972 -3.81123,3e-5 -7.0875,1.13671 -9.8289,3.41002 -2.67453,2.27337 -4.34611,5.44937 -5.01474,9.52798 m -10.33037,5.91738 c 0,-7.95667 2.37363,-14.37552 7.12093,-19.25655 4.81416,-4.88095 10.89872,-7.32145 18.25367,-7.32151 6.88689,6e-5 12.26938,2.23997 16.14748,6.71974 3.87804,4.47985 5.81708,10.16321 5.81711,17.05008 l -0.30089,4.21237 -37.00882,0 c 0.26715,5.34907 2.03933,9.49455 5.31563,12.43652 3.34317,2.87512 7.38837,4.31267 12.13569,4.31267 2.60763,0 5.14844,-0.50147 7.62241,-1.50442 2.54077,-1.00294 4.41295,-1.97246 5.61651,-2.90854 l 1.80531,-1.50442 4.0118,7.12092 c -0.53494,0.5349 -1.3373,1.20353 -2.40708,2.00589 -1.06984,0.80235 -3.30976,1.87216 -6.71976,3.20942 -3.41005,1.33727 -6.92038,2.0059 -10.53096,2.0059 -7.8899,0 -14.34217,-2.50737 -19.35692,-7.5221 -5.01474,-5.08159 -7.52211,-11.43355 -7.52211,-19.05597 m 65.9627,-5.91738 27.07963,0 c -0.13373,-4.21234 -1.37073,-7.42176 -3.71091,-9.62828 -2.27339,-2.20645 -5.11507,-3.30969 -8.52507,-3.30972 -3.81124,3e-5 -7.08754,1.13671 -9.8289,3.41002 -2.67456,2.27337 -4.34611,5.44937 -5.01475,9.52798 m -10.33037,5.91738 c 0,-7.95667 2.37365,-14.37552 7.12094,-19.25655 4.81412,-4.88095 10.89868,-7.32145 18.25367,-7.32151 6.88689,6e-5 12.26938,2.23997 16.14748,6.71974 3.87801,4.47985 5.81704,10.16321 5.8171,17.05008 l -0.30088,4.21237 -37.00882,0 c 0.26745,5.34907 2.0393,9.49455 5.31563,12.43652 3.34313,2.87512 7.38836,4.31267 12.13568,4.31267 2.60764,0 5.14844,-0.50147 7.62242,-1.50442 2.54077,-1.00294 4.41294,-1.97246 5.61651,-2.90854 l 1.80531,-1.50442 4.01179,7.12092 c -0.53496,0.5349 -1.33732,1.20353 -2.40707,2.00589 -1.06988,0.80235 -3.30977,1.87216 -6.71976,3.20942 -3.41006,1.33727 -6.92038,2.0059 -10.53097,2.0059 -7.88989,0 -14.3422,-2.50737 -19.35691,-7.5221 -5.01475,-5.08159 -7.52212,-11.43355 -7.52212,-19.05597 m 59.14266,25.37465 0,-70.80797 9.7286,0 0,38.71371 7.12094,0 13.8407,-18.65479 11.03244,0 -16.84955,22.36569 0,0.20059 18.75515,28.18277 -11.33333,0 -15.24482,-23.87011 -7.32153,0 0,23.87011 -9.7286,0 m 74.94065,-25.37452 c 0,-7.5555 2.5408,-13.87406 7.62241,-18.95568 5.14847,-5.08153 11.66761,-7.62233 19.55751,-7.62239 3.74431,6e-5 7.18777,0.63526 10.33037,1.9056 3.20941,1.2036 5.48276,2.44056 6.82006,3.7109 l 1.9056,1.8053 -4.61357,6.82003 c -0.40121,-0.40115 -1.00298,-0.93605 -1.8053,-1.60471 -0.73553,-0.6686 -2.34025,-1.53782 -4.81416,-2.60766 -2.40711,-1.06978 -4.88105,-1.60468 -7.42182,-1.60471 -5.08164,3e-5 -9.29403,1.70504 -12.63716,5.11502 -3.34316,3.41005 -5.01474,7.72271 -5.01474,12.938 0,5.21535 1.67158,9.56142 5.01474,13.0383 3.41,3.47687 7.72268,5.21531 12.93804,5.21531 2.80823,0 5.51619,-0.56833 8.12389,-1.705 2.60764,-1.13668 4.51324,-2.27335 5.71681,-3.41002 l 1.80531,-1.70501 3.9115,7.12092 c -0.20059,0.20059 -0.50154,0.50147 -0.90266,0.90265 -0.33437,0.33431 -1.13673,0.96951 -2.40707,1.90559 -1.27044,0.93609 -2.64113,1.77188 -4.11209,2.50737 -1.47103,0.66863 -3.37663,1.30383 -5.71681,1.9056 -2.27339,0.60176 -4.64703,0.90265 -7.12094,0.90265 -7.95676,0 -14.4759,-2.50737 -19.55751,-7.5221 -5.08161,-5.01472 -7.62241,-11.36668 -7.62241,-19.05596 m 58.45941,25.37464 0,-50.74905 9.42772,0 0,8.82592 -0.20059,3.8112 0.20059,0 c 1.2035,-3.87803 3.2094,-7.05403 6.01769,-9.52799 2.87509,-2.47387 6.21825,-3.71084 10.02949,-3.7109 l 2.50737,0.20059 0,9.62828 c -0.86928,-0.20059 -1.80537,-0.30088 -2.80826,-0.30088 -3.1426,3e-5 -6.01772,1.06984 -8.62536,3.20942 -2.60769,2.13965 -4.47987,5.04819 -5.61651,8.72563 -0.80239,2.60769 -1.20357,5.64996 -1.20354,9.12681 l 0,20.76097 -9.7286,0 m 44.03885,-31.2919 27.07962,0 c -0.13373,-4.21234 -1.37073,-7.42177 -3.71091,-9.62828 -2.27338,-2.20645 -5.11507,-3.30969 -8.52507,-3.30972 -3.81123,3e-5 -7.08753,1.1367 -9.8289,3.41001 -2.67456,2.27338 -4.34614,5.44937 -5.01474,9.52799 m -10.33038,5.91738 c 0,-7.95668 2.37365,-14.37553 7.12094,-19.25656 4.81413,-4.88094 10.89868,-7.32144 18.25367,-7.32151 6.88689,7e-5 12.26938,2.23998 16.14748,6.71974 3.87801,4.47986 5.81704,10.16322 5.81711,17.05008 l -0.30089,4.21237 -37.00882,0 c 0.26746,5.34908 2.0393,9.49455 5.31563,12.43653 3.34314,2.87511 7.38836,4.31266 12.13569,4.31266 2.60763,0 5.14844,-0.50147 7.62241,-1.50441 2.54077,-1.00295 4.41294,-1.97246 5.61651,-2.90855 l 1.80531,-1.50442 4.0118,7.12092 c -0.53497,0.5349 -1.33733,1.20353 -2.40708,2.00589 -1.06987,0.80236 -3.30979,1.87217 -6.71976,3.20943 -3.41006,1.33726 -6.92038,2.00589 -10.53096,2.00589 -7.8899,0 -14.34221,-2.50737 -19.35692,-7.52209 -5.01474,-5.0816 -7.52212,-11.43356 -7.52212,-19.05597 m 64.85947,10.63122 c -3e-5,2.20648 0.83576,4.11208 2.50737,5.71679 1.67155,1.60472 4.01177,2.40707 7.02064,2.40707 3.87804,0 7.08748,-1.67157 9.62831,-5.01473 2.60764,-3.41001 3.91144,-7.12088 3.91151,-11.13269 l 0,-1.60472 -2.50738,0 c -13.707,3e-5 -20.56048,3.20946 -20.56045,9.62828 m -9.8289,0.50147 c 0,-11.63414 10.19662,-17.45122 30.58994,-17.45125 l 2.20649,0 0,-0.90265 c -3e-5,-7.42177 -3.71094,-11.13267 -11.13273,-11.1327 -2.34025,3e-5 -4.68046,0.40121 -7.02065,1.20353 -2.34024,0.80239 -4.11212,1.60475 -5.31563,2.40707 l -1.8053,1.30383 -4.0118,-7.12091 c 0.53488,-0.46801 1.3038,-1.03635 2.30678,-1.70501 1.06978,-0.66857 3.24284,-1.53779 6.51917,-2.60766 3.27627,-1.13661 6.65287,-1.70494 10.12979,-1.70501 6.41884,7e-5 11.36669,1.70507 14.84364,5.11503 3.47683,3.41004 5.21528,8.32448 5.21534,14.7433 l 0,32.09426 -9.02654,0 0,-4.81414 0.20058,-4.01178 -0.20058,0 c -0.13373,0.26745 -0.33438,0.6352 -0.60177,1.10324 -0.20059,0.46804 -0.76896,1.2704 -1.70502,2.40707 -0.86925,1.13667 -1.8722,2.13962 -3.00884,3.00884 -1.06985,0.86922 -2.6077,1.67157 -4.61357,2.40707 -1.93907,0.73549 -4.04526,1.10324 -6.31858,1.10324 -4.68046,0 -8.72569,-1.37069 -12.13568,-4.11208 -3.41003,-2.74138 -5.11504,-6.51915 -5.11504,-11.33329 m 58.71637,-4.31257 0,-23.66952 -6.61946,0 0,-7.82298 6.92035,0 0,-14.643 9.42772,0 0,14.643 12.23597,0 0,7.82298 -12.23597,0 0,22.56628 c 0,1.93906 0.26775,3.64403 0.80236,5.11502 0.5349,1.40413 1.1701,2.50737 1.9056,3.30972 0.80236,0.80236 1.70501,1.43756 2.70796,1.9056 1.06981,0.46804 2.0059,0.76892 2.80826,0.90265 0.86922,0.13373 1.73841,0.20059 2.60767,0.20059 l 2.30678,-0.20059 0,8.62533 c -0.93612,0.13373 -2.07279,0.20059 -3.41003,0.20059 -1.60472,0 -3.14257,-0.10029 -4.61356,-0.30088 -1.471,-0.20059 -3.14258,-0.70206 -5.01475,-1.50445 -1.87217,-0.80233 -3.51032,-1.8387 -4.91445,-3.1091 -1.33726,-1.33726 -2.50737,-3.20943 -3.51032,-5.6165 -0.93609,-2.40707 -1.40413,-5.21531 -1.40413,-8.42474 m 33.74133,18.5545 0,-50.74906 9.72861,0 0,50.74906 -9.72861,0 m -0.10029,-60.87881 0,-9.92916 9.8289,0 0,9.92916 -9.8289,0 m 37.01383,60.87881 -18.95573,-50.74906 10.33037,0 12.33627,34.30074 c 0.26746,0.80236 0.53491,1.80531 0.80236,3.00884 0.26745,1.13667 0.50148,2.07276 0.70207,2.80825 l 0.20059,1.10324 0.20059,0 0.20059,-1.10324 c 0.20059,-0.73549 0.43458,-1.67158 0.70203,-2.80825 0.33432,-1.20353 0.6352,-2.20648 0.90268,-3.00884 l 12.33628,-34.30074 10.23008,0 -18.75515,50.74906 -11.23303,0 m 45.12803,-31.29191 27.07962,0 c -0.13373,-4.21234 -1.37076,-7.42177 -3.71091,-9.62828 -2.27341,-2.20645 -5.11507,-3.30969 -8.52507,-3.30972 -3.81124,3e-5 -7.08754,1.1367 -9.8289,3.41001 -2.67456,2.27338 -4.34614,5.44937 -5.01474,9.52799 m -10.33038,5.91738 c -3e-5,-7.95667 2.37362,-14.37553 7.12094,-19.25656 4.81412,-4.88094 10.89868,-7.32144 18.25367,-7.3215 6.88686,6e-5 12.26935,2.23997 16.14748,6.71973 3.87801,4.47986 5.81704,10.16322 5.8171,17.05008 l -0.30088,4.21237 -37.00882,0 c 0.26776,5.34908 2.0393,9.49455 5.31563,12.43653 3.34313,2.87511 7.38836,4.31267 12.13568,4.31267 2.60764,0 5.14841,-0.50148 7.62242,-1.50442 2.54074,-1.00295 4.41291,-1.97246 5.61651,-2.90855 l 1.80531,-1.50441 4.01179,7.12091 c -0.53496,0.53491 -1.33732,1.20354 -2.40707,2.00589 -1.06988,0.80236 -3.3098,1.87217 -6.71976,3.20943 -3.41009,1.33726 -6.92041,2.00589 -10.53097,2.00589 -7.88989,0 -14.3422,-2.50736 -19.35691,-7.52209 -5.01478,-5.08159 -7.52215,-11.43355 -7.52212,-19.05597"
       inkscape:connector-curvature="0" />
    <path
       id="svg-Logotype"
       style="font-size:16.02683067px;font-style:normal;font-variant:normal;font-weight:normal;font-stretch:normal;text-align:start;line-height:109.00000334%;letter-spacing:0px;word-spacing:0px;writing-mode:lr-tb;text-anchor:start;fill:#ffffff;fill-opacity:1;stroke:none;font-family:Museo 500;-inkscape-font-specification:Museo 500"
       d="m 63.635815,431.35074 0,137.99941 137.999975,0 0,-137.99941 z m 12.090842,10.79604 113.664243,0 -19.08624,19.11776 c -9.67665,-9.24743 -22.87589,-14.97823 -37.50888,-14.97823 -14.65579,0 -27.91996,5.79225 -37.66688,15.19939 z m 115.117833,1.07449 0,113.8217 -56.91113,-56.81618 z m -116.413421,0.19026 19.402249,19.37041 c -9.444151,9.75301 -15.262677,23.04204 -15.262677,37.72993 0,14.59463 5.735066,27.80473 15.073071,37.54026 l -19.212643,19.27589 z m 58.364711,12.76628 c 11.75254,0 22.5013,4.69595 30.49374,12.13407 l -10.4911,10.52281 c -5.25933,-4.85003 -12.35422,-7.86826 -20.00264,-7.86826 -7.80141,0 -14.90608,3.04133 -20.19223,7.99457 l -10.4595,-10.45951 c 7.95607,-7.61901 18.73695,-12.32368 30.65173,-12.32368 z m -31.94733,13.61934 10.45951,10.42796 c -4.99904,5.29443 -8.05794,12.445 -8.05794,20.28676 0,7.73506 2.98945,14.76242 7.86835,20.03412 l -10.45953,10.49096 C 93.1129,523.09353 88.46135,512.3621 88.46135,500.51187 c 0,-11.94696 4.731503,-22.75264 12.3871,-30.71472 z m 31.78933,11.05987 c 5.06594,0 9.60002,1.83302 13.14549,4.99285 l -13.1139,13.11373 -13.11388,-13.08224 c 3.48061,-3.11929 8.0644,-5.02434 13.08229,-5.02434 z m -14.37787,6.31999 13.11388,13.08224 -13.30349,13.33487 c -3.13134,-3.48333 -5.08756,-8.05323 -5.08756,-13.08225 0,-5.14195 2.01952,-9.8251 5.27717,-13.33486 z m 14.40946,14.34602 13.3983,13.3982 c -3.46666,3.18569 -8.24361,5.24546 -13.42989,5.24546 -5.13359,0 -9.79541,-2.0289 -13.30349,-5.27701 z m -20.28701,20.31855 c 5.30909,5.08144 12.49885,8.21601 20.41342,8.21601 7.93957,0 15.00949,-3.1411 20.28704,-8.15267 l 10.52269,10.52245 c -8.01706,7.74569 -18.75307,12.41884 -30.80973,12.41884 -12.01971,0 -22.89746,-4.77545 -30.87295,-12.51363 z m -17.474656,17.50621 c 9.765756,9.52722 23.127076,15.38901 37.888076,15.38901 14.65359,0 27.97482,-5.88866 37.82489,-15.32598 l 19.18102,19.14952 -114.075033,0 z"
       inkscape:connector-curvature="0" />
    <g
       style="font-size:22px;font-style:normal;font-variant:normal;font-weight:normal;font-stretch:normal;text-align:center;line-height:125%;letter-spacing:2.50000000000000000px;word-spacing:0px;writing-mode:lr-tb;text-anchor:middle;fill:#ffffff;fill-opacity:1;stroke:none;display:inline;font-family:Sans;-inkscape-font-specification:Sans"
       id="text3362-1">
      <path
         d="m 227.64389,555.73521 2.1385,-3.1395 c 0.182,0.21234 0.455,0.47018 0.819,0.7735 0.364,0.27301 1.12233,0.66734 2.275,1.183 1.15266,0.48534 2.32049,0.72801 3.5035,0.728 1.03132,10e-6 1.92616,-0.25783 2.6845,-0.7735 0.75832,-0.51566 1.13749,-1.21332 1.1375,-2.093 -1e-5,-0.75832 -0.40951,-1.42566 -1.2285,-2.002 -0.81901,-0.57632 -1.80484,-1.07682 -2.9575,-1.5015 -1.15267,-0.45499 -2.30534,-0.94032 -3.458,-1.456 -1.15267,-0.54598 -2.1385,-1.31948 -2.9575,-2.3205 -0.819,-1.00098 -1.2285,-2.19915 -1.2285,-3.5945 0,-2.03231 0.78867,-3.62481 2.366,-4.7775 1.57733,-1.18297 3.56416,-1.77447 5.9605,-1.7745 1.48632,3e-5 2.85132,0.21236 4.095,0.637 1.24365,0.42469 2.10815,0.84936 2.5935,1.274 l 0.728,0.637 -1.7745,3.3215 c -0.15168,-0.15165 -0.37918,-0.33365 -0.6825,-0.546 -0.27301,-0.24264 -0.91001,-0.54598 -1.911,-0.91 -0.97068,-0.39431 -2.00201,-0.59148 -3.094,-0.5915 -1.06167,2e-5 -1.95651,0.24269 -2.6845,0.728 -0.72801,0.45502 -1.09201,1.15269 -1.092,2.093 -10e-6,0.75835 0.40949,1.41052 1.2285,1.9565 0.81899,0.54602 1.80483,1.04652 2.9575,1.5015 1.15266,0.42468 2.30532,0.91002 3.458,1.456 1.15265,0.51568 2.13848,1.27401 2.9575,2.275 0.81898,1.00101 1.22848,2.19918 1.2285,3.5945 -2e-5,1.94134 -0.77352,3.54901 -2.3205,4.823 -1.51668,1.24367 -3.51868,1.8655 -6.006,1.8655 -1.66834,0 -3.23051,-0.273 -4.6865,-0.819 -1.456,-0.57633 -2.48733,-1.15266 -3.094,-1.729 l -0.9555,-0.819"
         style="font-size:45.50000000000000000px;letter-spacing:0px;font-family:MuseoSans-500;-inkscape-font-specification:MuseoSans-500;fill:#ffffff"
         id="path3670" />
      <path
         d="m 250.81548,550.13871 0,-10.738 -3.003,0 0,-3.549 3.1395,0 0,-6.643 4.277,0 0,6.643 5.551,0 0,3.549 -5.551,0 0,10.2375 c -1e-5,0.87968 0.12132,1.65318 0.364,2.3205 0.24265,0.63701 0.53082,1.13751 0.8645,1.5015 0.36399,0.36401 0.77349,0.65217 1.2285,0.8645 0.48532,0.21234 0.90999,0.34884 1.274,0.4095 0.39432,0.0607 0.78865,0.091 1.183,0.091 l 1.0465,-0.091 0,3.913 c -0.42468,0.0607 -0.94035,0.091 -1.547,0.091 -0.72801,0 -1.42568,-0.0455 -2.093,-0.1365 -0.66735,-0.091 -1.42568,-0.3185 -2.275,-0.6825 -0.84934,-0.364 -1.59251,-0.83416 -2.2295,-1.4105 -0.60668,-0.60666 -1.13751,-1.45599 -1.5925,-2.548 -0.42467,-1.09199 -0.63701,-2.36599 -0.637,-3.822"
         style="font-size:45.50000000000000000px;letter-spacing:0px;font-family:MuseoSans-500;-inkscape-font-specification:MuseoSans-500;fill:#ffffff"
         id="path3672" />
      <path
         d="m 265.80417,550.27521 0,-14.742 4.4135,0 0,13.741 c 0,1.85034 0.28816,3.27601 0.8645,4.277 0.60666,0.97067 1.75933,1.45601 3.458,1.456 2.24466,10e-6 4.04949,-0.84933 5.4145,-2.548 1.36498,-1.69866 2.04748,-3.74615 2.0475,-6.1425 l 0,-10.7835 4.4135,0 0,23.023 -4.277,0 0,-3.0485 0.091,-1.6835 -0.091,0 c -0.57635,1.33467 -1.62285,2.54801 -3.1395,3.64 -1.48635,1.092 -3.26084,1.638 -5.3235,1.638 -5.24767,0 -7.8715,-2.94233 -7.8715,-8.827"
         style="font-size:45.50000000000000000px;letter-spacing:0px;font-family:MuseoSans-500;-inkscape-font-specification:MuseoSans-500;fill:#ffffff"
         id="path3674" />
      <path
         d="m 291.81453,547.04471 c 0,-3.63998 0.97067,-6.55198 2.912,-8.736 1.94133,-2.21431 4.44383,-3.32147 7.5075,-3.3215 1.00099,3e-5 1.92615,0.12136 2.7755,0.364 0.84932,0.24269 1.51665,0.54603 2.002,0.91 0.51565,0.36403 0.95548,0.72802 1.3195,1.092 0.39432,0.36402 0.66732,0.66736 0.819,0.91 l 0.182,0.364 0.091,0 c -0.0607,-0.45498 -0.091,-0.97064 -0.091,-1.547 l 0,-10.647 4.4135,0 0,32.123 -4.186,0 0,-2.184 0.0455,-1.547 -0.091,0 c -0.0607,0.12134 -0.15168,0.27301 -0.273,0.455 -0.091,0.18201 -0.34885,0.53084 -0.7735,1.0465 -0.39435,0.48534 -0.86452,0.92517 -1.4105,1.3195 -0.51568,0.364 -1.22851,0.69767 -2.1385,1.001 -0.91001,0.30334 -1.89584,0.455 -2.9575,0.455 -3.09401,0 -5.56617,-1.10716 -7.4165,-3.3215 -1.82,-2.21432 -2.73,-5.12632 -2.73,-8.736 m 4.5045,0 c 0,2.48735 0.5915,4.48934 1.7745,6.006 1.21333,1.48634 2.79066,2.22951 4.732,2.2295 1.88065,10e-6 3.45799,-0.68249 4.732,-2.0475 1.27398,-1.39532 1.91098,-3.47315 1.911,-6.2335 -2e-5,-2.21432 -0.57635,-4.12531 -1.729,-5.733 -1.12235,-1.63798 -2.71485,-2.45698 -4.7775,-2.457 -1.88068,2e-5 -3.45801,0.74319 -4.732,2.2295 -1.274,1.45602 -1.911,3.45802 -1.911,6.006"
         style="font-size:45.50000000000000000px;letter-spacing:0px;font-family:MuseoSans-500;-inkscape-font-specification:MuseoSans-500;fill:#ffffff"
         id="path3676" />
      <path
         d="m 320.64163,530.93771 0,-4.5045 4.459,0 0,4.5045 -4.459,0 m 0.0455,27.6185 0,-23.023 4.4135,0 0,23.023 -4.4135,0"
         style="font-size:45.50000000000000000px;letter-spacing:0px;font-family:MuseoSans-500;-inkscape-font-specification:MuseoSans-500;fill:#ffffff"
         id="path3678" />
      <path
         d="m 333.88426,555.64421 c -2.39634,-2.30532 -3.5945,-5.18699 -3.5945,-8.645 0,-3.45798 1.19816,-6.32448 3.5945,-8.5995 2.39632,-2.27497 5.33865,-3.41247 8.827,-3.4125 3.48831,3e-5 6.43064,1.13753 8.827,3.4125 2.39631,2.27502 3.59447,5.14152 3.5945,8.5995 -3e-5,3.45801 -1.21336,6.33968 -3.64,8.645 -2.39636,2.30534 -5.32352,3.458 -8.7815,3.458 -3.45801,0 -6.40034,-1.15266 -8.827,-3.458 m 3.2305,-14.5145 c -1.54701,1.54702 -2.32051,3.50352 -2.3205,5.8695 -1e-5,2.36601 0.77349,4.33768 2.3205,5.915 1.54699,1.57734 3.41249,2.36601 5.5965,2.366 2.21432,10e-6 4.07981,-0.77349 5.5965,-2.3205 1.54698,-1.57732 2.32048,-3.56415 2.3205,-5.9605 -2e-5,-2.36598 -0.77352,-4.32248 -2.3205,-5.8695 -1.51669,-1.54698 -3.38218,-2.32048 -5.5965,-2.3205 -2.18401,2e-5 -4.04951,0.77352 -5.5965,2.3205"
         style="font-size:45.50000000000000000px;letter-spacing:0px;font-family:MuseoSans-500;-inkscape-font-specification:MuseoSans-500;fill:#ffffff"
         id="path3680" />
      <path
         d="m 358.45639,555.73521 2.1385,-3.1395 c 0.182,0.21234 0.455,0.47018 0.819,0.7735 0.364,0.27301 1.12233,0.66734 2.275,1.183 1.15266,0.48534 2.32049,0.72801 3.5035,0.728 1.03132,10e-6 1.92616,-0.25783 2.6845,-0.7735 0.75832,-0.51566 1.13749,-1.21332 1.1375,-2.093 -10e-6,-0.75832 -0.40951,-1.42566 -1.2285,-2.002 -0.81901,-0.57632 -1.80484,-1.07682 -2.9575,-1.5015 -1.15267,-0.45499 -2.30534,-0.94032 -3.458,-1.456 -1.15267,-0.54598 -2.1385,-1.31948 -2.9575,-2.3205 -0.819,-1.00098 -1.2285,-2.19915 -1.2285,-3.5945 0,-2.03231 0.78867,-3.62481 2.366,-4.7775 1.57733,-1.18297 3.56416,-1.77447 5.9605,-1.7745 1.48632,3e-5 2.85132,0.21236 4.095,0.637 1.24365,0.42469 2.10815,0.84936 2.5935,1.274 l 0.728,0.637 -1.7745,3.3215 c -0.15168,-0.15165 -0.37918,-0.33365 -0.6825,-0.546 -0.27301,-0.24264 -0.91001,-0.54598 -1.911,-0.91 -0.97068,-0.39431 -2.00201,-0.59148 -3.094,-0.5915 -1.06167,2e-5 -1.95651,0.24269 -2.6845,0.728 -0.72801,0.45502 -1.09201,1.15269 -1.092,2.093 -1e-5,0.75835 0.40949,1.41052 1.2285,1.9565 0.81899,0.54602 1.80483,1.04652 2.9575,1.5015 1.15266,0.42468 2.30532,0.91002 3.458,1.456 1.15265,0.51568 2.13848,1.27401 2.9575,2.275 0.81898,1.00101 1.22848,2.19918 1.2285,3.5945 -2e-5,1.94134 -0.77352,3.54901 -2.3205,4.823 -1.51668,1.24367 -3.51868,1.8655 -6.006,1.8655 -1.66834,0 -3.23051,-0.273 -4.6865,-0.819 -1.456,-0.57633 -2.48733,-1.15266 -3.094,-1.729 l -0.9555,-0.819"
         style="font-size:45.50000000000000000px;letter-spacing:0px;font-family:MuseoSans-500;-inkscape-font-specification:MuseoSans-500;fill:#ffffff"
         id="path3682" />
      <path
         d="m 381.30948,547.54521 0,-3.913 13.286,0 0,3.913 -13.286,0"
         style="font-size:45.50000000000000000px;letter-spacing:0px;font-family:MuseoSans-500;-inkscape-font-specification:MuseoSans-500;fill:#ffffff"
         id="path3684" />
      <path
         d="m 404.22584,562.74221 c 1.91099,1.03133 4.01915,1.547 6.3245,1.547 2.18398,0 3.94331,-0.53084 5.278,-1.5925 1.33465,-1.03133 2.00198,-2.65416 2.002,-4.8685 l 0,-1.6835 0.0455,-1.456 -0.091,0 c -1.42569,2.39634 -3.70069,3.5945 -6.825,3.5945 -3.12435,0 -5.62684,-1.10716 -7.5075,-3.3215 -1.85034,-2.24466 -2.77551,-5.06565 -2.7755,-8.463 -1e-5,-3.39731 0.89483,-6.15765 2.6845,-8.281 1.78966,-2.15364 4.24665,-3.23047 7.371,-3.2305 1.03132,3e-5 1.98682,0.12136 2.8665,0.364 0.87965,0.21236 1.57731,0.50053 2.093,0.8645 0.51565,0.33369 0.95548,0.66736 1.3195,1.001 0.36398,0.33369 0.60664,0.62186 0.728,0.8645 l 0.2275,0.3185 0.091,0 c -0.0304,-0.21231 -0.0455,-0.45498 -0.0455,-0.728 l 0,-2.1385 4.2315,0 0,22.0675 c -3e-5,1.82 -0.33369,3.42767 -1.001,4.823 -0.63702,1.39533 -1.51669,2.48733 -2.639,3.276 -1.12236,0.819 -2.35085,1.42566 -3.6855,1.82 -1.33468,0.39433 -2.76035,0.59149 -4.277,0.5915 -2.76035,-10e-6 -5.38418,-0.63701 -7.8715,-1.911 l 1.456,-3.458 m 7.5985,-8.281 c 1.78965,10e-6 3.24565,-0.62183 4.368,-1.8655 1.15264,-1.24366 1.72898,-3.26082 1.729,-6.0515 -2e-5,-5.15665 -2.16885,-7.73498 -6.5065,-7.735 -1.97168,2e-5 -3.51868,0.68252 -4.641,2.0475 -1.09201,1.33469 -1.63801,3.18502 -1.638,5.551 -10e-6,2.42668 0.59149,4.38318 1.7745,5.8695 1.21332,1.45601 2.85132,2.18401 4.914,2.184"
         style="font-size:45.50000000000000000px;letter-spacing:0px;font-family:MuseoSans-500;-inkscape-font-specification:MuseoSans-500;fill:#ffffff"
         id="path3686" />
      <path
         d="m 427.32846,552.09521 c 0,-5.27798 4.62583,-7.91698 13.8775,-7.917 l 1.001,0 0,-0.4095 c -10e-6,-3.36698 -1.68351,-5.05048 -5.0505,-5.0505 -1.06168,2e-5 -2.12334,0.18202 -3.185,0.546 -1.06167,0.36402 -1.8655,0.72802 -2.4115,1.092 l -0.819,0.5915 -1.82,-3.2305 c 0.24267,-0.21231 0.5915,-0.47014 1.0465,-0.7735 0.48533,-0.30331 1.47116,-0.69764 2.9575,-1.183 1.48633,-0.51564 3.01816,-0.77347 4.5955,-0.7735 2.91199,3e-5 5.15665,0.77353 6.734,2.3205 1.57732,1.54702 2.36598,3.77652 2.366,6.6885 l 0,14.56 -4.095,0 0,-2.184 0.091,-1.82 -0.091,0 c -0.0607,0.12134 -0.15168,0.28817 -0.273,0.5005 -0.091,0.21234 -0.34885,0.57634 -0.7735,1.092 -0.39435,0.51567 -0.84935,0.97067 -1.365,1.365 -0.48535,0.39434 -1.18301,0.75834 -2.093,1.092 -0.87968,0.33367 -1.83518,0.5005 -2.8665,0.5005 -2.12334,0 -3.9585,-0.62183 -5.5055,-1.8655 -1.547,-1.24366 -2.3205,-2.95749 -2.3205,-5.1415 m 4.459,-0.2275 c 0,1.00101 0.37916,1.86551 1.1375,2.5935 0.75833,0.72801 1.81999,1.09201 3.185,1.092 1.75932,10e-6 3.21532,-0.75833 4.368,-2.275 1.18299,-1.54699 1.77449,-3.23049 1.7745,-5.0505 l 0,-0.728 -1.1375,0 c -6.21834,10e-6 -9.3275,1.45601 -9.3275,4.368"
         style="font-size:45.50000000000000000px;letter-spacing:0px;font-family:MuseoSans-500;-inkscape-font-specification:MuseoSans-500;fill:#ffffff"
         id="path3688" />
      <path
         d="m 452.9151,552.27721 0,-25.844 4.4135,0 0,25.0705 c -10e-6,1.27401 0.21233,2.13851 0.637,2.5935 0.42466,0.45501 1.03133,0.68251 1.82,0.6825 l 0.7735,-0.0455 0,3.913 c -0.45501,0.0607 -0.94034,0.091 -1.456,0.091 -4.12534,0 -6.188,-2.15366 -6.188,-6.461"
         style="font-size:45.50000000000000000px;letter-spacing:0px;font-family:MuseoSans-500;-inkscape-font-specification:MuseoSans-500;fill:#ffffff"
         id="path3690" />
      <path
         d="m 465.00104,552.27721 0,-25.844 4.4135,0 0,25.0705 c -10e-6,1.27401 0.21233,2.13851 0.637,2.5935 0.42466,0.45501 1.03132,0.68251 1.82,0.6825 l 0.7735,-0.0455 0,3.913 c -0.45501,0.0607 -0.94034,0.091 -1.456,0.091 -4.12534,0 -6.188,-2.15366 -6.188,-6.461"
         style="font-size:45.50000000000000000px;letter-spacing:0px;font-family:MuseoSans-500;-inkscape-font-specification:MuseoSans-500;fill:#ffffff"
         id="path3692" />
      <path
         d="m 475.76748,547.04471 c 0,-3.60965 1.07683,-6.52165 3.2305,-8.736 2.18399,-2.21431 4.94432,-3.32147 8.281,-3.3215 3.12431,3e-5 5.56615,1.01619 7.3255,3.0485 1.75931,2.03236 2.63897,4.61069 2.639,7.735 l -0.1365,1.911 -16.7895,0 c 0.12132,2.42668 0.92516,4.30734 2.4115,5.642 1.51665,1.30434 3.35182,1.95651 5.5055,1.9565 1.18298,10e-6 2.33565,-0.22749 3.458,-0.6825 1.15265,-0.45499 2.00198,-0.89483 2.548,-1.3195 l 0.819,-0.6825 1.82,3.2305 c -0.24269,0.24267 -0.60669,0.54601 -1.092,0.91 -0.48536,0.364 -1.50152,0.84934 -3.0485,1.456 -1.54702,0.60667 -3.13952,0.91 -4.7775,0.91 -3.57935,0 -6.50651,-1.1375 -8.7815,-3.4125 -2.27501,-2.30532 -3.4125,-5.18699 -3.4125,-8.645 m 4.6865,-2.6845 12.285,0 c -0.0607,-1.91098 -0.62185,-3.36698 -1.6835,-4.368 -1.03135,-1.00098 -2.32052,-1.50148 -3.8675,-1.5015 -1.72901,2e-5 -3.21535,0.51569 -4.459,1.547 -1.21334,1.03135 -1.97168,2.47219 -2.275,4.3225"
         style="font-size:45.50000000000000000px;letter-spacing:0px;font-family:MuseoSans-500;-inkscape-font-specification:MuseoSans-500;fill:#ffffff"
         id="path3694" />
      <path
         d="m 502.59826,558.55621 0,-23.023 4.277,0 0,4.004 -0.091,1.729 0.091,0 c 0.54599,-1.75931 1.45599,-3.20014 2.73,-4.3225 1.30432,-1.12231 2.82099,-1.68347 4.55,-1.6835 l 1.1375,0.091 0,4.368 c -0.39435,-0.091 -0.81902,-0.13648 -1.274,-0.1365 -1.42568,2e-5 -2.73001,0.48536 -3.913,1.456 -1.18301,0.97069 -2.03234,2.29019 -2.548,3.9585 -0.36401,1.18302 -0.54601,2.56318 -0.546,4.1405 l 0,9.4185 -4.4135,0"
         style="font-size:45.50000000000000000px;letter-spacing:0px;font-family:MuseoSans-500;-inkscape-font-specification:MuseoSans-500;fill:#ffffff"
         id="path3696" />
      <path
         d="m 519.61526,530.93771 0,-4.5045 4.459,0 0,4.5045 -4.459,0 m 0.0455,27.6185 0,-23.023 4.4135,0 0,23.023 -4.4135,0"
         style="font-size:45.50000000000000000px;letter-spacing:0px;font-family:MuseoSans-500;-inkscape-font-specification:MuseoSans-500;fill:#ffffff"
         id="path3698" />
      <path
         d="m 529.35439,547.04471 c 0,-3.60965 1.07683,-6.52165 3.2305,-8.736 2.18399,-2.21431 4.94432,-3.32147 8.281,-3.3215 3.12432,3e-5 5.56615,1.01619 7.3255,3.0485 1.75931,2.03236 2.63898,4.61069 2.639,7.735 l -0.1365,1.911 -16.7895,0 c 0.12133,2.42668 0.92516,4.30734 2.4115,5.642 1.51666,1.30434 3.35182,1.95651 5.5055,1.9565 1.18299,10e-6 2.33565,-0.22749 3.458,-0.6825 1.15265,-0.45499 2.00198,-0.89483 2.548,-1.3195 l 0.819,-0.6825 1.82,3.2305 c -0.24269,0.24267 -0.60669,0.54601 -1.092,0.91 -0.48535,0.364 -1.50152,0.84934 -3.0485,1.456 -1.54702,0.60667 -3.13951,0.91 -4.7775,0.91 -3.57934,0 -6.50651,-1.1375 -8.7815,-3.4125 -2.275,-2.30532 -3.4125,-5.18699 -3.4125,-8.645 m 4.6865,-2.6845 12.285,0 c -0.0607,-1.91098 -0.62185,-3.36698 -1.6835,-4.368 -1.03135,-1.00098 -2.32051,-1.50148 -3.8675,-1.5015 -1.72901,2e-5 -3.21534,0.51569 -4.459,1.547 -1.21334,1.03135 -1.97167,2.47219 -2.275,4.3225"
         style="font-size:45.50000000000000000px;letter-spacing:0px;font-family:MuseoSans-500;-inkscape-font-specification:MuseoSans-500;fill:#ffffff"
         id="path3700" />
      <path
         d="m 554.31967,555.73521 2.1385,-3.1395 c 0.182,0.21234 0.455,0.47018 0.819,0.7735 0.364,0.27301 1.12233,0.66734 2.275,1.183 1.15266,0.48534 2.32049,0.72801 3.5035,0.728 1.03132,10e-6 1.92616,-0.25783 2.6845,-0.7735 0.75832,-0.51566 1.13749,-1.21332 1.1375,-2.093 -10e-6,-0.75832 -0.40951,-1.42566 -1.2285,-2.002 -0.81901,-0.57632 -1.80484,-1.07682 -2.9575,-1.5015 -1.15267,-0.45499 -2.30534,-0.94032 -3.458,-1.456 -1.15267,-0.54598 -2.1385,-1.31948 -2.9575,-2.3205 -0.819,-1.00098 -1.2285,-2.19915 -1.2285,-3.5945 0,-2.03231 0.78867,-3.62481 2.366,-4.7775 1.57733,-1.18297 3.56416,-1.77447 5.9605,-1.7745 1.48632,3e-5 2.85132,0.21236 4.095,0.637 1.24365,0.42469 2.10815,0.84936 2.5935,1.274 l 0.728,0.637 -1.7745,3.3215 c -0.15168,-0.15165 -0.37918,-0.33365 -0.6825,-0.546 -0.27301,-0.24264 -0.91001,-0.54598 -1.911,-0.91 -0.97068,-0.39431 -2.00201,-0.59148 -3.094,-0.5915 -1.06167,2e-5 -1.95651,0.24269 -2.6845,0.728 -0.728,0.45502 -1.092,1.15269 -1.092,2.093 0,0.75835 0.4095,1.41052 1.2285,1.9565 0.81899,0.54602 1.80483,1.04652 2.9575,1.5015 1.15266,0.42468 2.30532,0.91002 3.458,1.456 1.15265,0.51568 2.13849,1.27401 2.9575,2.275 0.81898,1.00101 1.22848,2.19918 1.2285,3.5945 -2e-5,1.94134 -0.77352,3.54901 -2.3205,4.823 -1.51668,1.24367 -3.51868,1.8655 -6.006,1.8655 -1.66834,0 -3.2305,-0.273 -4.6865,-0.819 -1.456,-0.57633 -2.48733,-1.15266 -3.094,-1.729 l -0.9555,-0.819"
         style="font-size:45.50000000000000000px;letter-spacing:0px;font-family:MuseoSans-500;-inkscape-font-specification:MuseoSans-500;fill:#ffffff"
         id="path3702" />
      <path
         d="m 577.17276,547.54521 0,-3.913 13.286,0 0,3.913 -13.286,0"
         style="font-size:45.50000000000000000px;letter-spacing:0px;font-family:MuseoSans-500;-inkscape-font-specification:MuseoSans-500;fill:#ffffff"
         id="path3704" />
      <path
         d="m 596.40362,547.04471 c 0,-3.42765 1.15266,-6.29415 3.458,-8.5995 2.33566,-2.30531 5.29315,-3.45797 8.8725,-3.458 1.69865,3e-5 3.26081,0.28819 4.6865,0.8645 1.45598,0.54603 2.48731,1.10719 3.094,1.6835 l 0.8645,0.819 -2.093,3.094 c -0.18202,-0.18198 -0.45502,-0.42465 -0.819,-0.728 -0.33369,-0.30331 -1.06169,-0.69764 -2.184,-1.183 -1.09202,-0.48531 -2.21435,-0.72798 -3.367,-0.728 -2.30535,2e-5 -4.21635,0.77352 -5.733,2.3205 -1.51668,1.54702 -2.27501,3.50352 -2.275,5.8695 -1e-5,2.36601 0.75832,4.33768 2.275,5.915 1.54699,1.57734 3.50349,2.36601 5.8695,2.366 1.27398,10e-6 2.50248,-0.25783 3.6855,-0.7735 1.18298,-0.51566 2.04748,-1.03132 2.5935,-1.547 l 0.819,-0.7735 1.7745,3.2305 c -0.091,0.091 -0.22752,0.22751 -0.4095,0.4095 -0.15169,0.15167 -0.51569,0.43984 -1.092,0.8645 -0.57636,0.42467 -1.19819,0.80384 -1.8655,1.1375 -0.66735,0.30334 -1.53185,0.5915 -2.5935,0.8645 -1.03135,0.273 -2.10818,0.4095 -3.2305,0.4095 -3.60968,0 -6.56718,-1.1375 -8.8725,-3.4125 -2.30534,-2.27499 -3.458,-5.15666 -3.458,-8.645"
         style="font-size:45.50000000000000000px;letter-spacing:0px;font-family:MuseoSans-500;-inkscape-font-specification:MuseoSans-500;fill:#ffffff"
         id="path3706" />
      <path
         d="m 621.05893,552.09521 c 0,-5.27798 4.62583,-7.91698 13.8775,-7.917 l 1.001,0 0,-0.4095 c -2e-5,-3.36698 -1.68351,-5.05048 -5.0505,-5.0505 -1.06168,2e-5 -2.12334,0.18202 -3.185,0.546 -1.06167,0.36402 -1.86551,0.72802 -2.4115,1.092 l -0.819,0.5915 -1.82,-3.2305 c 0.24266,-0.21231 0.5915,-0.47014 1.0465,-0.7735 0.48533,-0.30331 1.47116,-0.69764 2.9575,-1.183 1.48633,-0.51564 3.01816,-0.77347 4.5955,-0.7735 2.91199,3e-5 5.15665,0.77353 6.734,2.3205 1.57731,1.54702 2.36598,3.77652 2.366,6.6885 l 0,14.56 -4.095,0 0,-2.184 0.091,-1.82 -0.091,0 c -0.0607,0.12134 -0.15168,0.28817 -0.273,0.5005 -0.091,0.21234 -0.34885,0.57634 -0.7735,1.092 -0.39435,0.51567 -0.84935,0.97067 -1.365,1.365 -0.48535,0.39434 -1.18301,0.75834 -2.093,1.092 -0.87968,0.33367 -1.83518,0.5005 -2.8665,0.5005 -2.12334,0 -3.9585,-0.62183 -5.5055,-1.8655 -1.547,-1.24366 -2.3205,-2.95749 -2.3205,-5.1415 m 4.459,-0.2275 c -10e-6,1.00101 0.37916,1.86551 1.1375,2.5935 0.75833,0.72801 1.81999,1.09201 3.185,1.092 1.75932,10e-6 3.21532,-0.75833 4.368,-2.275 1.18298,-1.54699 1.77448,-3.23049 1.7745,-5.0505 l 0,-0.728 -1.1375,0 c -6.21834,10e-6 -9.32751,1.45601 -9.3275,4.368"
         style="font-size:45.50000000000000000px;letter-spacing:0px;font-family:MuseoSans-500;-inkscape-font-specification:MuseoSans-500;fill:#ffffff"
         id="path3708" />
      <path
         d="m 647.96934,558.55621 0,-19.1555 -2.8665,0 0,-3.549 2.8665,0 0,-1.092 c -10e-6,-1.45597 0.21233,-2.7148 0.637,-3.7765 0.42466,-1.09197 0.94032,-1.92613 1.547,-2.5025 0.60666,-0.60663 1.33466,-1.0768 2.184,-1.4105 0.84932,-0.36396 1.59249,-0.59146 2.2295,-0.6825 0.66732,-0.1213 1.34982,-0.18196 2.0475,-0.182 l 1.6835,0.1365 0,3.7765 c -0.30335,-0.0606 -0.68252,-0.091 -1.1375,-0.091 -0.51568,3e-5 -1.01618,0.0607 -1.5015,0.182 -0.45502,0.091 -0.95551,0.2882 -1.5015,0.5915 -0.54601,0.30336 -0.98585,0.80386 -1.3195,1.5015 -0.33368,0.6977 -0.50051,1.54703 -0.5005,2.548 l 0,1.001 5.46,0 0,3.549 -5.46,0 0,19.1555 -4.368,0"
         style="font-size:45.50000000000000000px;letter-spacing:0px;font-family:MuseoSans-500;-inkscape-font-specification:MuseoSans-500;fill:#ffffff"
         id="path3710" />
      <path
         d="m 660.43349,547.04471 c 0,-3.60965 1.07683,-6.52165 3.2305,-8.736 2.184,-2.21431 4.94433,-3.32147 8.281,-3.3215 3.12432,3e-5 5.56615,1.01619 7.3255,3.0485 1.75931,2.03236 2.63898,4.61069 2.639,7.735 l -0.1365,1.911 -16.7895,0 c 0.12133,2.42668 0.92516,4.30734 2.4115,5.642 1.51666,1.30434 3.35182,1.95651 5.5055,1.9565 1.18299,10e-6 2.33565,-0.22749 3.458,-0.6825 1.15265,-0.45499 2.00198,-0.89483 2.548,-1.3195 l 0.819,-0.6825 1.82,3.2305 c -0.24269,0.24267 -0.60669,0.54601 -1.092,0.91 -0.48535,0.364 -1.50152,0.84934 -3.0485,1.456 -1.54701,0.60667 -3.13951,0.91 -4.7775,0.91 -3.57934,0 -6.5065,-1.1375 -8.7815,-3.4125 -2.275,-2.30532 -3.4125,-5.18699 -3.4125,-8.645 m 4.6865,-2.6845 12.285,0 c -0.0607,-1.91098 -0.62185,-3.36698 -1.6835,-4.368 -1.03135,-1.00098 -2.32051,-1.50148 -3.8675,-1.5015 -1.72901,2e-5 -3.21534,0.51569 -4.459,1.547 -1.21334,1.03135 -1.97167,2.47219 -2.275,4.3225 m 4.8685,-12.1485 3.3215,-5.7785 4.732,0 -4.368,5.7785 -3.6855,0"
         style="font-size:45.50000000000000000px;letter-spacing:0px;font-family:MuseoSans-500;-inkscape-font-specification:MuseoSans-500;fill:#ffffff"
         id="path3712" />
      <path
         d="m 687.90127,547.54521 0,-3.913 13.286,0 0,3.913 -13.286,0"
         style="font-size:45.50000000000000000px;letter-spacing:0px;font-family:MuseoSans-500;-inkscape-font-specification:MuseoSans-500;fill:#ffffff"
         id="path3714" />
      <path
         d="m 707.13213,547.04471 c 0,-3.42765 1.15267,-6.29415 3.458,-8.5995 2.33566,-2.30531 5.29316,-3.45797 8.8725,-3.458 1.69865,3e-5 3.26082,0.28819 4.6865,0.8645 1.45598,0.54603 2.48732,1.10719 3.094,1.6835 l 0.8645,0.819 -2.093,3.094 c -0.18202,-0.18198 -0.45502,-0.42465 -0.819,-0.728 -0.33368,-0.30331 -1.06168,-0.69764 -2.184,-1.183 -1.09201,-0.48531 -2.21435,-0.72798 -3.367,-0.728 -2.30534,2e-5 -4.21634,0.77352 -5.733,2.3205 -1.51667,1.54702 -2.275,3.50352 -2.275,5.8695 0,2.36601 0.75833,4.33768 2.275,5.915 1.54699,1.57734 3.50349,2.36601 5.8695,2.366 1.27399,10e-6 2.50249,-0.25783 3.6855,-0.7735 1.18298,-0.51566 2.04748,-1.03132 2.5935,-1.547 l 0.819,-0.7735 1.7745,3.2305 c -0.091,0.091 -0.22752,0.22751 -0.4095,0.4095 -0.15169,0.15167 -0.51569,0.43984 -1.092,0.8645 -0.57635,0.42467 -1.19818,0.80384 -1.8655,1.1375 -0.66735,0.30334 -1.53185,0.5915 -2.5935,0.8645 -1.03135,0.273 -2.10818,0.4095 -3.2305,0.4095 -3.60967,0 -6.56717,-1.1375 -8.8725,-3.4125 -2.30533,-2.27499 -3.458,-5.15666 -3.458,-8.645"
         style="font-size:45.50000000000000000px;letter-spacing:0px;font-family:MuseoSans-500;-inkscape-font-specification:MuseoSans-500;fill:#ffffff"
         id="path3716" />
      <path
         d="m 735.56395,555.64421 c -2.39634,-2.30532 -3.59451,-5.18699 -3.5945,-8.645 -1e-5,-3.45798 1.19816,-6.32448 3.5945,-8.5995 2.39632,-2.27497 5.33865,-3.41247 8.827,-3.4125 3.48831,3e-5 6.43064,1.13753 8.827,3.4125 2.3963,2.27502 3.59447,5.14152 3.5945,8.5995 -3e-5,3.45801 -1.21336,6.33968 -3.64,8.645 -2.39636,2.30534 -5.32352,3.458 -8.7815,3.458 -3.45801,0 -6.40034,-1.15266 -8.827,-3.458 m 3.2305,-14.5145 c -1.54701,1.54702 -2.32051,3.50352 -2.3205,5.8695 -10e-6,2.36601 0.77349,4.33768 2.3205,5.915 1.54699,1.57734 3.41248,2.36601 5.5965,2.366 2.21431,10e-6 4.07981,-0.77349 5.5965,-2.3205 1.54697,-1.57732 2.32047,-3.56415 2.3205,-5.9605 -3e-5,-2.36598 -0.77353,-4.32248 -2.3205,-5.8695 -1.51669,-1.54698 -3.38219,-2.32048 -5.5965,-2.3205 -2.18402,2e-5 -4.04951,0.77352 -5.5965,2.3205"
         style="font-size:45.50000000000000000px;letter-spacing:0px;font-family:MuseoSans-500;-inkscape-font-specification:MuseoSans-500;fill:#ffffff"
         id="path3718" />
      <path
         d="m 761.68308,550.27521 0,-14.742 4.4135,0 0,13.741 c -10e-6,1.85034 0.28816,3.27601 0.8645,4.277 0.60666,0.97067 1.75932,1.45601 3.458,1.456 2.24465,10e-6 4.04948,-0.84933 5.4145,-2.548 1.36498,-1.69866 2.04748,-3.74615 2.0475,-6.1425 l 0,-10.7835 4.4135,0 0,23.023 -4.277,0 0,-3.0485 0.091,-1.6835 -0.091,0 c -0.57635,1.33467 -1.62285,2.54801 -3.1395,3.64 -1.48635,1.092 -3.26085,1.638 -5.3235,1.638 -5.24767,0 -7.8715,-2.94233 -7.8715,-8.827"
         style="font-size:45.50000000000000000px;letter-spacing:0px;font-family:MuseoSans-500;-inkscape-font-specification:MuseoSans-500;fill:#ffffff"
         id="path3720" />
      <path
         d="m 789.19494,558.55621 0,-23.023 4.277,0 0,4.004 -0.091,1.729 0.091,0 c 0.54599,-1.75931 1.45599,-3.20014 2.73,-4.3225 1.30432,-1.12231 2.82099,-1.68347 4.55,-1.6835 l 1.1375,0.091 0,4.368 c -0.39435,-0.091 -0.81902,-0.13648 -1.274,-0.1365 -1.42568,2e-5 -2.73001,0.48536 -3.913,1.456 -1.18301,0.97069 -2.03234,2.29019 -2.548,3.9585 -0.36401,1.18302 -0.54601,2.56318 -0.546,4.1405 l 0,9.4185 -4.4135,0"
         style="font-size:45.50000000000000000px;letter-spacing:0px;font-family:MuseoSans-500;-inkscape-font-specification:MuseoSans-500;fill:#ffffff"
         id="path3722" />
      <path
         d="m 804.39194,555.73521 2.1385,-3.1395 c 0.18199,0.21234 0.45499,0.47018 0.819,0.7735 0.36399,0.27301 1.12233,0.66734 2.275,1.183 1.15266,0.48534 2.32049,0.72801 3.5035,0.728 1.03132,10e-6 1.92615,-0.25783 2.6845,-0.7735 0.75832,-0.51566 1.13748,-1.21332 1.1375,-2.093 -2e-5,-0.75832 -0.40952,-1.42566 -1.2285,-2.002 -0.81901,-0.57632 -1.80485,-1.07682 -2.9575,-1.5015 -1.15268,-0.45499 -2.30534,-0.94032 -3.458,-1.456 -1.15267,-0.54598 -2.13851,-1.31948 -2.9575,-2.3205 -0.819,-1.00098 -1.2285,-2.19915 -1.2285,-3.5945 0,-2.03231 0.78866,-3.62481 2.366,-4.7775 1.57733,-1.18297 3.56416,-1.77447 5.9605,-1.7745 1.48632,3e-5 2.85132,0.21236 4.095,0.637 1.24365,0.42469 2.10815,0.84936 2.5935,1.274 l 0.728,0.637 -1.7745,3.3215 c -0.15168,-0.15165 -0.37918,-0.33365 -0.6825,-0.546 -0.27302,-0.24264 -0.91002,-0.54598 -1.911,-0.91 -0.97068,-0.39431 -2.00201,-0.59148 -3.094,-0.5915 -1.06168,2e-5 -1.95651,0.24269 -2.6845,0.728 -0.72801,0.45502 -1.09201,1.15269 -1.092,2.093 -1e-5,0.75835 0.40949,1.41052 1.2285,1.9565 0.81899,0.54602 1.80482,1.04652 2.9575,1.5015 1.15265,0.42468 2.30532,0.91002 3.458,1.456 1.15265,0.51568 2.13848,1.27401 2.9575,2.275 0.81898,1.00101 1.22848,2.19918 1.2285,3.5945 -2e-5,1.94134 -0.77352,3.54901 -2.3205,4.823 -1.51668,1.24367 -3.51868,1.8655 -6.006,1.8655 -1.66834,0 -3.23051,-0.273 -4.6865,-0.819 -1.45601,-0.57633 -2.48734,-1.15266 -3.094,-1.729 l -0.9555,-0.819"
         style="font-size:45.50000000000000000px;letter-spacing:0px;font-family:MuseoSans-500;-inkscape-font-specification:MuseoSans-500;fill:#ffffff"
         id="path3724" />
      <path
         d="m 825.01552,547.04471 c 0,-3.60965 1.07683,-6.52165 3.2305,-8.736 2.184,-2.21431 4.94433,-3.32147 8.281,-3.3215 3.12432,3e-5 5.56615,1.01619 7.3255,3.0485 1.75932,2.03236 2.63898,4.61069 2.639,7.735 l -0.1365,1.911 -16.7895,0 c 0.12133,2.42668 0.92516,4.30734 2.4115,5.642 1.51666,1.30434 3.35183,1.95651 5.5055,1.9565 1.18299,10e-6 2.33565,-0.22749 3.458,-0.6825 1.15265,-0.45499 2.00198,-0.89483 2.548,-1.3195 l 0.819,-0.6825 1.82,3.2305 c -0.24268,0.24267 -0.60668,0.54601 -1.092,0.91 -0.48535,0.364 -1.50152,0.84934 -3.0485,1.456 -1.54701,0.60667 -3.13951,0.91 -4.7775,0.91 -3.57934,0 -6.5065,-1.1375 -8.7815,-3.4125 -2.275,-2.30532 -3.4125,-5.18699 -3.4125,-8.645 m 4.6865,-2.6845 12.285,0 c -0.0607,-1.91098 -0.62185,-3.36698 -1.6835,-4.368 -1.03135,-1.00098 -2.32051,-1.50148 -3.8675,-1.5015 -1.72901,2e-5 -3.21534,0.51569 -4.459,1.547 -1.21334,1.03135 -1.97167,2.47219 -2.275,4.3225"
         style="font-size:45.50000000000000000px;letter-spacing:0px;font-family:MuseoSans-500;-inkscape-font-specification:MuseoSans-500;fill:#ffffff"
         id="path3726" />
      <path
         d="m 849.98081,555.73521 2.1385,-3.1395 c 0.18199,0.21234 0.45499,0.47018 0.819,0.7735 0.36399,0.27301 1.12232,0.66734 2.275,1.183 1.15265,0.48534 2.32049,0.72801 3.5035,0.728 1.03132,10e-6 1.92615,-0.25783 2.6845,-0.7735 0.75832,-0.51566 1.13748,-1.21332 1.1375,-2.093 -2e-5,-0.75832 -0.40952,-1.42566 -1.2285,-2.002 -0.81902,-0.57632 -1.80485,-1.07682 -2.9575,-1.5015 -1.15268,-0.45499 -2.30535,-0.94032 -3.458,-1.456 -1.15268,-0.54598 -2.13851,-1.31948 -2.9575,-2.3205 -0.81901,-1.00098 -1.22851,-2.19915 -1.2285,-3.5945 -10e-6,-2.03231 0.78866,-3.62481 2.366,-4.7775 1.57732,-1.18297 3.56415,-1.77447 5.9605,-1.7745 1.48632,3e-5 2.85132,0.21236 4.095,0.637 1.24365,0.42469 2.10815,0.84936 2.5935,1.274 l 0.728,0.637 -1.7745,3.3215 c -0.15169,-0.15165 -0.37919,-0.33365 -0.6825,-0.546 -0.27302,-0.24264 -0.91002,-0.54598 -1.911,-0.91 -0.97068,-0.39431 -2.00202,-0.59148 -3.094,-0.5915 -1.06168,2e-5 -1.95651,0.24269 -2.6845,0.728 -0.72801,0.45502 -1.09201,1.15269 -1.092,2.093 -10e-6,0.75835 0.40949,1.41052 1.2285,1.9565 0.81899,0.54602 1.80482,1.04652 2.9575,1.5015 1.15265,0.42468 2.30532,0.91002 3.458,1.456 1.15265,0.51568 2.13848,1.27401 2.9575,2.275 0.81898,1.00101 1.22848,2.19918 1.2285,3.5945 -2e-5,1.94134 -0.77352,3.54901 -2.3205,4.823 -1.51669,1.24367 -3.51868,1.8655 -6.006,1.8655 -1.66835,0 -3.23051,-0.273 -4.6865,-0.819 -1.45601,-0.57633 -2.48734,-1.15266 -3.094,-1.729 l -0.9555,-0.819"
         style="font-size:45.50000000000000000px;letter-spacing:0px;font-family:MuseoSans-500;-inkscape-font-specification:MuseoSans-500;fill:#ffffff"
         id="path3728" />
    </g>
  </g>
</svg>
