<?xml version="1.0" encoding="UTF-8" standalone="no"?>
<!-- Created with Inkscape (http://www.inkscape.org/) -->

<svg
   xmlns:dc="http://purl.org/dc/elements/1.1/"
   xmlns:cc="http://creativecommons.org/ns#"
   xmlns:rdf="http://www.w3.org/1999/02/22-rdf-syntax-ns#"
   xmlns:svg="http://www.w3.org/2000/svg"
   xmlns="http://www.w3.org/2000/svg"
   xmlns:sodipodi="http://sodipodi.sourceforge.net/DTD/sodipodi-0.dtd"
   xmlns:inkscape="http://www.inkscape.org/namespaces/inkscape"
   width="16"
   height="16"
   id="svg4383"
   version="1.1"
   inkscape:version="0.48.4 r9943 custom"
   sodipodi:docname="faviconsvg.svg"
   inkscape:export-filename="/Users/growdigital/Work/Creek/Creation/Favicon/favicon.png"
   inkscape:export-xdpi="90"
   inkscape:export-ydpi="90">
  <defs
     id="defs4385" />
  <sodipodi:namedview
     id="base"
     pagecolor="#ffffff"
     bordercolor="#666666"
     borderopacity="1.0"
     inkscape:pageopacity="0.0"
     inkscape:pageshadow="2"
     inkscape:zoom="43.9375"
     inkscape:cx="8"
     inkscape:cy="8"
     inkscape:document-units="px"
     inkscape:current-layer="layer1"
     showgrid="false"
     fit-margin-top="0"
     fit-margin-left="0"
     fit-margin-right="0"
     fit-margin-bottom="0"
     inkscape:window-width="1440"
     inkscape:window-height="852"
     inkscape:window-x="76"
     inkscape:window-y="71"
     inkscape:window-maximized="0" />
  <metadata
     id="metadata4388">
    <rdf:RDF>
      <cc:Work
         rdf:about="">
        <dc:format>image/svg+xml</dc:format>
        <dc:type
           rdf:resource="http://purl.org/dc/dcmitype/StillImage" />
        <dc:title></dc:title>
      </cc:Work>
    </rdf:RDF>
  </metadata>
  <g
     inkscape:label="Layer 1"
     inkscape:groupmode="layer"
     id="layer1"
     transform="translate(-296.52742,-507.2365)">
    <rect
       style="fill:#22224c;fill-opacity:1;stroke:none;display:inline"
       id="rect3478"
       width="16"
       height="16"
       x="296.5274"
       y="507.23651"
       ry="1" />
    <g
       id="g4397"
       style="fill:#ffffff;display:inline"
       transform="matrix(2.4074073,0,0,2.4074073,260.27716,417.13623)">
      <g
         transform="matrix(0.00758427,0,0,0.00758427,14.65992,36.820694)"
         id="g3486"
         style="fill:#ffffff;fill-opacity:1;fill-rule:evenodd;display:inline">
        <path
           style="fill:#ffffff;fill-opacity:1"
           inkscape:connector-curvature="0"
           id="path3488"
           d="m 162,518 c 0,197 159,356 356,356 98,0 187,-40 252,-104 L 724,724 C 671,777 599,809 518,809 357,809 227,679 227,518 227,357 357,227 518,227 c 80,0 153,33 206,85 l 46,-46 C 706,202 617,162 518,162 321,162 162,321 162,518 z"
           class="fil1" />
        <path
           style="fill:#ffffff;fill-opacity:1"
           inkscape:connector-curvature="0"
           id="path3490"
           d="m 324,518 c 0,107 87,194 194,194 54,0 102,-22 137,-57 l -46,-46 c -23,23 -56,38 -92,38 -71,0 -129,-58 -129,-129 0,-71 58,-129 129,-129 36,0 68,14 92,38 l 46,-46 C 620,346 571,324 518,324 411,324 324,411 324,518 z"
           class="fil1" />
      </g>
    </g>
  </g>
</svg>
