<?xml-stylesheet type="text/css" href="../css/styles.css" ?><svg xmlns="http://www.w3.org/2000/svg" width="804" height="138" preserveAspectRatio="xMinYMin meet"><g><path color="#000" overflow="visible" enable-background="accumulate" fill="none" d="M.001.01h804v138h-804z"/><path d="M591.023 124.984l2.289-3.361c.195.227.487.503.877.828.39.292 1.201.714 2.435 1.266 1.234.52 2.484.779 3.75.779 1.104 0 2.062-.276 2.874-.828.812-.552 1.218-1.299 1.218-2.24 0-.812-.438-1.526-1.315-2.143-.877-.617-1.932-1.153-3.166-1.607-1.234-.487-2.468-1.007-3.702-1.559-1.234-.584-2.289-1.412-3.166-2.484-.877-1.071-1.315-2.354-1.315-3.848 0-2.175.844-3.88 2.533-5.114 1.688-1.266 3.815-1.899 6.38-1.9 1.591 0 3.052.227 4.383.682 1.331.455 2.257.909 2.776 1.364l.779.682-1.899 3.556c-.162-.162-.406-.357-.731-.584-.292-.26-.974-.584-2.046-.974-1.039-.422-2.143-.633-3.312-.633-1.136 0-2.094.26-2.874.779-.779.487-1.169 1.234-1.169 2.24 0 .812.438 1.51 1.315 2.094.877.584 1.932 1.12 3.166 1.607 1.234.455 2.468.974 3.702 1.559 1.234.552 2.289 1.364 3.166 2.435.877 1.072 1.315 2.354 1.315 3.848 0 2.078-.828 3.799-2.484 5.163-1.624 1.331-3.767 1.997-6.429 1.997-1.786 0-3.458-.292-5.017-.877-1.559-.617-2.663-1.234-3.312-1.851l-1.023-.877m-26.303-.098c-2.565-2.468-3.848-5.552-3.848-9.254s1.283-6.77 3.848-9.205c2.565-2.435 5.715-3.653 9.449-3.653s6.884 1.218 9.449 3.653c2.565 2.435 3.848 5.504 3.848 9.205 0 3.702-1.299 6.786-3.896 9.254-2.565 2.468-5.699 3.702-9.4 3.702-3.702 0-6.851-1.234-9.449-3.702m3.458-15.537c-1.656 1.656-2.484 3.75-2.484 6.283 0 2.533.828 4.643 2.484 6.332 1.656 1.688 3.653 2.533 5.991 2.533 2.37 0 4.367-.828 5.991-2.484 1.656-1.688 2.484-3.815 2.484-6.38 0-2.533-.828-4.627-2.484-6.283-1.624-1.656-3.62-2.484-5.991-2.484-2.338 0-4.335.828-5.991 2.484m-17.634-10.91v-4.822h4.773v4.822h-4.773m.049 29.564v-24.645h4.724v24.645h-4.724m-30.907-12.323c0-3.896 1.039-7.014 3.117-9.351 2.078-2.37 4.757-3.555 8.036-3.556 1.072 0 2.062.13 2.971.39.909.26 1.623.584 2.143.974.552.39 1.023.779 1.412 1.169.422.39.714.714.877.974l.195.39h.097c-.065-.487-.098-1.039-.097-1.656v-11.397h4.724v34.386h-4.481v-2.338l.049-1.656h-.097c-.065.13-.162.292-.292.487-.098.195-.373.568-.828 1.12-.422.52-.925.99-1.51 1.412-.552.39-1.315.747-2.289 1.072-.974.325-2.029.487-3.166.487-3.312 0-5.958-1.185-7.939-3.556-1.948-2.37-2.922-5.487-2.922-9.351m4.822 0c0 2.663.633 4.806 1.9 6.429 1.299 1.591 2.987 2.387 5.065 2.387 2.013 0 3.702-.731 5.065-2.192 1.364-1.494 2.046-3.718 2.046-6.673 0-2.37-.617-4.416-1.851-6.137-1.201-1.753-2.906-2.63-5.114-2.63-2.013 0-3.702.796-5.065 2.387-1.364 1.559-2.046 3.702-2.046 6.429m-32.665 3.458v-15.781h4.724v14.709c0 1.981.308 3.507.925 4.578.649 1.039 1.883 1.559 3.702 1.559 2.403 0 4.335-.909 5.796-2.728 1.461-1.818 2.192-4.01 2.192-6.575v-11.543h4.724v24.645h-4.578v-3.263l.098-1.802h-.098c-.617 1.429-1.737 2.728-3.361 3.896-1.591 1.169-3.491 1.753-5.699 1.753-5.617 0-8.426-3.15-8.426-9.449m-16.045-.146v-11.495h-3.215v-3.799h3.361v-7.111h4.578v7.111h5.942v3.799h-5.942v10.959c0 .942.13 1.77.39 2.484.26.682.568 1.218.925 1.607.39.39.828.698 1.315.925.52.227.974.373 1.364.438.422.065.844.098 1.266.098l1.12-.098v4.189c-.455.065-1.007.098-1.656.098-.779 0-1.526-.049-2.24-.146-.714-.098-1.526-.341-2.435-.731-.909-.39-1.705-.893-2.387-1.51-.649-.649-1.218-1.559-1.705-2.728-.455-1.169-.682-2.533-.682-4.091m-24.804 5.991l2.289-3.361c.195.227.487.503.877.828.39.292 1.201.714 2.435 1.266 1.234.52 2.484.779 3.75.779 1.104 0 2.062-.276 2.874-.828.812-.552 1.218-1.299 1.218-2.24 0-.812-.438-1.526-1.315-2.143-.877-.617-1.932-1.153-3.166-1.607-1.234-.487-2.468-1.007-3.702-1.559-1.234-.584-2.289-1.412-3.166-2.484-.877-1.071-1.315-2.354-1.315-3.848 0-2.175.844-3.88 2.533-5.114 1.688-1.266 3.815-1.899 6.38-1.9 1.591 0 3.052.227 4.383.682 1.331.455 2.257.909 2.776 1.364l.779.682-1.9 3.556c-.162-.162-.406-.357-.731-.584-.292-.26-.974-.584-2.046-.974-1.039-.422-2.143-.633-3.312-.633-1.136 0-2.094.26-2.874.779-.779.487-1.169 1.234-1.169 2.24 0 .812.438 1.51 1.315 2.094.877.584 1.932 1.12 3.166 1.607 1.234.455 2.468.974 3.702 1.559 1.234.552 2.289 1.364 3.166 2.435.877 1.072 1.315 2.354 1.315 3.848 0 2.078-.828 3.799-2.484 5.163-1.624 1.331-3.767 1.997-6.429 1.997-1.786 0-3.458-.292-5.017-.877-1.559-.617-2.663-1.234-3.312-1.851l-1.023-.877m-39.955 3.02v-24.645h4.578v3.263l-.098 1.802h.098c.649-1.396 1.753-2.679 3.312-3.848 1.559-1.201 3.539-1.802 5.942-1.802 5.65 0 8.475 3.15 8.475 9.449v15.781h-4.724v-14.709c0-1.981-.325-3.507-.974-4.578-.649-1.072-1.883-1.607-3.702-1.607-1.851 0-3.491.568-4.919 1.705-1.396 1.104-2.354 2.549-2.874 4.335-.26.877-.39 1.981-.39 3.312v11.543h-4.724m-26.727 4.481c2.046 1.104 4.302 1.656 6.77 1.656 2.338 0 4.221-.568 5.65-1.705 1.429-1.104 2.143-2.841 2.143-5.211v-1.802l.049-1.559h-.097c-1.526 2.565-3.961 3.848-7.306 3.848-3.344 0-6.023-1.185-8.036-3.556-1.981-2.403-2.971-5.423-2.971-9.059 0-3.637.958-6.591 2.874-8.864 1.916-2.305 4.546-3.458 7.89-3.458 1.104 0 2.127.13 3.068.39.942.227 1.688.536 2.24.925.552.357 1.023.714 1.412 1.072.39.357.649.666.779.925l.243.341h.097c-.033-.227-.049-.487-.049-.779v-2.289h4.53v23.622c0 1.948-.357 3.669-1.072 5.163-.682 1.494-1.624 2.663-2.825 3.507-1.201.877-2.516 1.526-3.945 1.948-1.429.422-2.955.633-4.578.633-2.955 0-5.763-.682-8.426-2.046l1.559-3.702m8.134-8.864c1.916 0 3.474-.666 4.676-1.997 1.234-1.331 1.851-3.491 1.851-6.478 0-5.52-2.322-8.28-6.965-8.28-2.111 0-3.767.731-4.968 2.192-1.169 1.429-1.753 3.409-1.753 5.942 0 2.598.633 4.692 1.9 6.283 1.299 1.559 3.052 2.338 5.26 2.338m-22.455-25.181v-4.822h4.773v4.822h-4.773m.049 29.564v-24.645h4.724v24.645h-4.724m-23.781-3.02l2.289-3.361c.195.227.487.503.877.828.39.292 1.201.714 2.435 1.266 1.234.52 2.484.779 3.75.779 1.104 0 2.062-.276 2.874-.828.812-.552 1.218-1.299 1.218-2.24 0-.812-.438-1.526-1.315-2.143-.877-.617-1.932-1.153-3.166-1.607-1.234-.487-2.468-1.007-3.702-1.559-1.234-.584-2.289-1.412-3.166-2.484-.877-1.071-1.315-2.354-1.315-3.848 0-2.175.844-3.88 2.533-5.114 1.688-1.266 3.815-1.899 6.38-1.9 1.591 0 3.052.227 4.384.682 1.331.455 2.257.909 2.776 1.364l.779.682-1.899 3.556c-.162-.162-.406-.357-.731-.584-.292-.26-.974-.584-2.046-.974-1.039-.422-2.143-.633-3.312-.633-1.136 0-2.094.26-2.874.779-.779.487-1.169 1.234-1.169 2.24 0 .812.438 1.51 1.315 2.094.877.584 1.932 1.12 3.166 1.607 1.234.455 2.468.974 3.702 1.559 1.234.552 2.289 1.364 3.166 2.435.877 1.072 1.315 2.354 1.315 3.848 0 2.078-.828 3.799-2.484 5.163-1.624 1.331-3.767 1.997-6.429 1.997-1.786 0-3.458-.292-5.017-.877-1.559-.617-2.663-1.234-3.312-1.851l-1.023-.877m-26.724-9.303c0-3.864 1.153-6.981 3.458-9.351 2.338-2.37 5.293-3.555 8.864-3.556 3.344 0 5.958 1.088 7.842 3.263 1.883 2.176 2.825 4.936 2.825 8.28l-.146 2.046h-17.972c.13 2.598.99 4.611 2.581 6.039 1.624 1.396 3.588 2.094 5.893 2.094 1.266 0 2.5-.243 3.702-.731 1.234-.487 2.143-.958 2.728-1.412l.877-.731 1.948 3.458c-.26.26-.649.584-1.169.974s-1.607.909-3.263 1.559c-1.656.649-3.361.974-5.114.974-3.832 0-6.965-1.218-9.4-3.653-2.435-2.468-3.653-5.552-3.653-9.254m5.017-2.874h13.151c-.065-2.046-.666-3.604-1.802-4.676-1.104-1.071-2.484-1.607-4.14-1.607-1.851 0-3.442.552-4.773 1.656-1.299 1.104-2.111 2.646-2.435 4.627m-34.219 2.874c0-3.896 1.039-7.014 3.117-9.351 2.078-2.37 4.757-3.555 8.036-3.556 1.071 0 2.062.13 2.971.39.909.26 1.623.584 2.143.974.552.39 1.023.779 1.412 1.169.422.39.714.714.877.974l.195.39h.098c-.065-.487-.098-1.039-.098-1.656v-11.397h4.724v34.386h-4.481v-2.338l.049-1.656h-.098c-.065.13-.162.292-.292.487-.098.195-.373.568-.828 1.12-.422.52-.925.99-1.51 1.412-.552.39-1.315.747-2.289 1.072-.974.325-2.029.487-3.166.487-3.312 0-5.958-1.185-7.939-3.556-1.948-2.37-2.922-5.487-2.922-9.351m4.822 0c0 2.663.633 4.806 1.899 6.429 1.299 1.591 2.987 2.387 5.065 2.387 2.013 0 3.702-.731 5.065-2.192 1.364-1.494 2.046-3.718 2.046-6.673 0-2.37-.617-4.416-1.851-6.137-1.201-1.753-2.906-2.63-5.114-2.63-2.013 0-3.702.796-5.065 2.387-1.364 1.559-2.046 3.702-2.046 6.429m-50.137 2.679c0-1.948.536-3.75 1.607-5.406 1.104-1.656 2.581-2.792 4.432-3.409v-.098c-.13-.033-.292-.097-.487-.195s-.552-.341-1.072-.731c-.52-.39-.99-.844-1.412-1.364-.39-.52-.747-1.25-1.072-2.192-.325-.942-.487-1.964-.487-3.068 0-2.792.974-4.968 2.922-6.527 1.981-1.559 4.53-2.338 7.647-2.338.552 0 1.169.049 1.851.146.714.098 1.283.179 1.705.243l.633.146-1.218 3.848c-.942-.195-1.802-.292-2.581-.292-1.753 0-3.215.471-4.383 1.412-1.136.942-1.705 2.224-1.705 3.848 0 .617.081 1.218.244 1.802.195.552.503 1.12.925 1.705.422.584 1.072 1.055 1.948 1.412.877.325 1.948.487 3.215.487h6.38v-4.676h4.724v4.676h4.578v4.189h-4.578v4.578c0 3.799-1.055 6.754-3.166 8.864-2.111 2.111-5.017 3.166-8.718 3.166-3.539 0-6.413-.974-8.621-2.922-2.208-1.948-3.312-4.383-3.312-7.306m4.919-.243c0 1.688.649 3.117 1.948 4.286 1.299 1.169 2.987 1.753 5.065 1.753 2.273 0 4.026-.633 5.26-1.9 1.266-1.299 1.899-3.263 1.9-5.893v-4.384h-6.575c-2.435 0-4.319.536-5.65 1.607-1.299 1.072-1.948 2.581-1.948 4.53m-32.79.877v-11.495h-3.215v-3.799h3.361v-7.111h4.578v7.111h5.942v3.799h-5.942v10.959c0 .942.13 1.77.39 2.484.26.682.568 1.218.925 1.607.39.39.828.698 1.315.925.52.227.974.373 1.364.438.422.065.844.098 1.266.098l1.12-.098v4.189c-.455.065-1.007.098-1.656.098-.779 0-1.526-.049-2.24-.146-.714-.098-1.526-.341-2.435-.731-.909-.39-1.705-.893-2.387-1.51-.649-.649-1.218-1.559-1.705-2.728-.455-1.169-.682-2.533-.682-4.091m-19.287 9.01v-24.645h4.578v4.286l-.097 1.851h.097c.584-1.883 1.559-3.426 2.922-4.627 1.396-1.201 3.02-1.802 4.871-1.802l1.218.098v4.676c-.422-.097-.877-.146-1.364-.146-1.526 0-2.922.52-4.189 1.559-1.266 1.039-2.176 2.452-2.728 4.237-.39 1.266-.584 2.744-.584 4.432v10.082h-4.724m-27.681-6.916c0-5.65 4.952-8.475 14.855-8.475h1.072v-.438c0-3.604-1.802-5.406-5.406-5.406-1.136 0-2.273.195-3.409.584-1.136.39-1.997.779-2.581 1.169l-.877.633-1.948-3.458c.26-.227.633-.503 1.12-.828.52-.325 1.575-.747 3.166-1.266 1.591-.552 3.231-.828 4.919-.828 3.117 0 5.52.828 7.208 2.484 1.688 1.656 2.533 4.043 2.533 7.16v15.586h-4.383v-2.338l.097-1.948h-.097l-.292.536c-.097.227-.373.617-.828 1.169-.422.552-.909 1.039-1.461 1.461-.52.422-1.266.812-2.24 1.169-.942.357-1.964.536-3.068.536-2.273 0-4.237-.666-5.893-1.997-1.656-1.331-2.484-3.166-2.484-5.504m4.773-.243c0 1.072.406 1.997 1.218 2.776.812.779 1.948 1.169 3.409 1.169 1.883 0 3.442-.812 4.676-2.435 1.266-1.656 1.899-3.458 1.9-5.406v-.779h-1.218c-6.656 0-9.985 1.559-9.985 4.676m581.649-75.171c0-7.956 2.373-14.374 7.12-19.255 4.814-4.881 10.898-7.321 18.252-7.321 6.886 0 12.268 2.24 16.146 6.719 3.878 4.48 5.817 10.162 5.817 17.049l-.301 4.212h-37.006c.268 5.349 2.039 9.494 5.315 12.436 3.343 2.875 7.388 4.312 12.135 4.312 2.607 0 5.148-.501 7.622-1.504 2.541-1.003 4.413-1.972 5.616-2.908l1.805-1.504 4.011 7.12c-.535.535-1.337 1.203-2.407 2.006-1.07.802-3.31 1.872-6.719 3.209-3.41 1.337-6.92 2.006-10.53 2.006-7.889 0-14.341-2.507-19.355-7.522-5.014-5.081-7.522-11.433-7.522-19.055m10.33-5.917h27.077c-.134-4.212-1.371-7.421-3.711-9.628-2.273-2.206-5.115-3.309-8.524-3.309-3.811 0-7.087 1.137-9.828 3.41-2.674 2.273-4.346 5.449-5.014 9.527m-45.124 31.29l-18.954-50.745h10.33l12.335 34.298c.267.802.535 1.805.802 3.009.267 1.137.501 2.073.702 2.808l.201 1.103h.201l.201-1.103c.201-.735.435-1.671.702-2.808.334-1.203.635-2.206.903-3.009l12.335-34.298h10.229l-18.754 50.745h-11.232m-37.011-60.874v-9.928h9.828v9.928h-9.828m.1 60.874v-50.745h9.728v50.745h-9.728m-33.739-18.553v-23.668h-6.619v-7.822h6.92v-14.642h9.427v14.642h12.235v7.822h-12.235v22.565c0 1.939.268 3.644.802 5.115.535 1.404 1.17 2.507 1.905 3.309.802.802 1.705 1.437 2.708 1.905 1.07.468 2.006.769 2.808.903.869.134 1.738.201 2.607.201l2.307-.201v8.625c-.936.134-2.073.201-3.41.201-1.605 0-3.142-.1-4.613-.301-1.471-.201-3.142-.702-5.014-1.504-1.872-.802-3.51-1.839-4.914-3.109-1.337-1.337-2.507-3.209-3.51-5.616-.936-2.407-1.404-5.215-1.404-8.424m-58.712 4.312c0-11.633 10.196-17.45 30.588-17.45h2.206v-.903c0-7.421-3.711-11.132-11.132-11.132-2.34 0-4.68.401-7.02 1.203s-4.112 1.605-5.315 2.407l-1.805 1.304-4.011-7.12c.535-.468 1.304-1.036 2.307-1.705 1.07-.669 3.243-1.538 6.519-2.607 3.276-1.137 6.652-1.705 10.129-1.705 6.418 0 11.366 1.705 14.842 5.115 3.477 3.41 5.215 8.324 5.215 14.742v32.092h-9.026v-4.814l.201-4.011h-.201c-.134.267-.334.635-.602 1.103-.201.468-.769 1.27-1.705 2.407-.869 1.137-1.872 2.139-3.009 3.009-1.07.869-2.607 1.671-4.613 2.407-1.939.735-4.045 1.103-6.318 1.103-4.68 0-8.725-1.371-12.135-4.112s-5.115-6.519-5.115-11.332m9.828-.501c0 2.206.836 4.112 2.507 5.716 1.671 1.605 4.011 2.407 7.02 2.407 3.878 0 7.087-1.671 9.628-5.014 2.607-3.41 3.911-7.12 3.911-11.132v-1.605h-2.507c-13.706 0-20.559 3.209-20.559 9.628m-64.854-10.63c0-7.956 2.373-14.374 7.12-19.255 4.814-4.881 10.898-7.321 18.252-7.321 6.886 0 12.268 2.24 16.146 6.719 3.878 4.48 5.817 10.162 5.817 17.049l-.301 4.212h-37.006c.267 5.349 2.039 9.494 5.315 12.436 3.343 2.875 7.388 4.312 12.135 4.312 2.607 0 5.148-.501 7.622-1.504 2.541-1.003 4.413-1.972 5.616-2.908l1.805-1.504 4.011 7.12c-.535.535-1.337 1.203-2.407 2.006-1.07.802-3.31 1.872-6.719 3.209-3.41 1.337-6.92 2.006-10.53 2.006-7.889 0-14.341-2.507-19.355-7.522-5.014-5.081-7.522-11.433-7.522-19.055m10.33-5.917h27.077c-.134-4.212-1.371-7.421-3.711-9.628-2.273-2.206-5.115-3.309-8.524-3.309-3.811 0-7.087 1.137-9.828 3.41-2.674 2.273-4.346 5.449-5.014 9.527m-44.035 31.29v-50.745h9.427v8.825l-.201 3.811h.201c1.203-3.878 3.209-7.053 6.017-9.527 2.875-2.474 6.218-3.711 10.029-3.711l2.507.201v9.628c-.869-.201-1.805-.301-2.808-.301-3.142 0-6.017 1.07-8.625 3.209-2.607 2.139-4.48 5.048-5.616 8.725-.802 2.607-1.203 5.65-1.203 9.126v20.759h-9.728m-58.455-25.373c0-7.555 2.541-13.873 7.622-18.954 5.148-5.081 11.667-7.622 19.556-7.622 3.744 0 7.187.635 10.33 1.905 3.209 1.204 5.482 2.44 6.82 3.711l1.905 1.805-4.613 6.82c-.401-.401-1.003-.936-1.805-1.605-.735-.669-2.34-1.538-4.814-2.607-2.407-1.07-4.881-1.605-7.421-1.605-5.081 0-9.293 1.705-12.636 5.115s-5.014 7.722-5.014 12.937c0 5.215 1.671 9.561 5.014 13.037 3.41 3.477 7.722 5.215 12.937 5.215 2.808 0 5.516-.568 8.123-1.705 2.607-1.137 4.513-2.273 5.716-3.41l1.805-1.705 3.911 7.12-.903.903c-.334.334-1.137.969-2.407 1.905s-2.641 1.772-4.112 2.507c-1.471.669-3.376 1.304-5.716 1.905-2.273.602-4.647.903-7.12.903-7.956 0-14.475-2.507-19.556-7.522-5.081-5.014-7.622-11.366-7.622-19.055m-74.935 25.373v-70.803h9.728v38.711h7.12l13.84-18.653h11.032l-16.848 22.364v.201l18.754 28.181h-11.332l-15.244-23.868h-7.321v23.868h-9.728m-59.138-25.373c0-7.956 2.373-14.374 7.12-19.255 4.814-4.881 10.898-7.321 18.252-7.321 6.886 0 12.268 2.24 16.146 6.719 3.878 4.48 5.817 10.162 5.817 17.049l-.301 4.212h-37.006c.267 5.349 2.039 9.494 5.315 12.436 3.343 2.875 7.388 4.312 12.135 4.312 2.607 0 5.148-.501 7.622-1.504 2.541-1.003 4.413-1.972 5.616-2.908l1.805-1.504 4.011 7.12c-.535.535-1.337 1.203-2.407 2.006-1.07.802-3.31 1.872-6.719 3.209-3.41 1.337-6.92 2.006-10.53 2.006-7.889 0-14.341-2.507-19.355-7.522-5.014-5.081-7.522-11.433-7.522-19.055m10.33-5.917h27.077c-.134-4.212-1.371-7.421-3.711-9.628-2.273-2.206-5.115-3.309-8.524-3.309-3.811 0-7.087 1.137-9.828 3.41-2.674 2.273-4.346 5.449-5.014 9.527m-65.958 5.917c0-7.956 2.373-14.374 7.12-19.255 4.814-4.881 10.898-7.321 18.252-7.321 6.886 0 12.268 2.24 16.146 6.719 3.878 4.48 5.817 10.162 5.817 17.049l-.301 4.212h-37.006c.267 5.349 2.039 9.494 5.315 12.436 3.343 2.875 7.388 4.312 12.135 4.312 2.607 0 5.148-.501 7.622-1.504 2.541-1.003 4.413-1.972 5.616-2.908l1.805-1.504 4.011 7.12c-.535.535-1.337 1.203-2.407 2.006-1.07.802-3.31 1.872-6.719 3.209-3.41 1.337-6.92 2.006-10.53 2.006-7.889 0-14.341-2.507-19.355-7.522-5.014-5.081-7.522-11.433-7.522-19.055m10.33-5.917h27.077c-.134-4.212-1.371-7.421-3.711-9.628-2.273-2.206-5.115-3.309-8.524-3.309-3.811 0-7.087 1.137-9.828 3.41-2.674 2.273-4.346 5.449-5.014 9.527m-44.035 31.29v-50.745h9.427v8.825l-.201 3.811h.201c1.203-3.878 3.209-7.053 6.017-9.527 2.875-2.474 6.218-3.711 10.029-3.711l2.507.201v9.628c-.869-.201-1.805-.301-2.808-.301-3.142 0-6.017 1.07-8.625 3.209-2.607 2.139-4.479 5.048-5.616 8.725-.802 2.607-1.203 5.65-1.203 9.126v20.759h-9.728m-58.455-25.373c0-7.555 2.541-13.873 7.622-18.954 5.148-5.081 11.667-7.622 19.556-7.622 3.744 0 7.187.635 10.33 1.905 3.209 1.204 5.482 2.44 6.82 3.711l1.905 1.805-4.613 6.82c-.401-.401-1.003-.936-1.805-1.605-.735-.669-2.34-1.538-4.814-2.607-2.407-1.07-4.881-1.605-7.421-1.605-5.081 0-9.293 1.705-12.636 5.115s-5.014 7.722-5.014 12.937c0 5.215 1.671 9.561 5.014 13.037 3.41 3.477 7.722 5.215 12.937 5.215 2.808 0 5.516-.568 8.123-1.705 2.607-1.137 4.513-2.273 5.716-3.41l1.805-1.705 3.911 7.12-.903.903c-.334.334-1.137.969-2.407 1.905s-2.641 1.772-4.112 2.507c-1.471.669-3.376 1.304-5.716 1.905-2.273.602-4.647.903-7.12.903-7.956 0-14.475-2.507-19.556-7.522-5.081-5.014-7.622-11.366-7.622-19.055m-132.128 62.559c9.765 9.527 23.125 15.388 37.885 15.388 14.652 0 27.973-5.888 37.822-15.325l19.18 19.148h-114.066zm17.473-17.505c5.309 5.081 12.498 8.215 20.412 8.215 7.939 0 15.008-3.141 20.285-8.152l10.522 10.522c-8.016 7.745-18.752 12.418-30.807 12.418-12.019 0-22.896-4.775-30.871-12.513zm20.285-20.317l13.397 13.397c-3.466 3.185-8.243 5.245-13.429 5.245-5.133 0-9.795-2.029-13.302-5.277zm-14.408-14.345l13.113 13.081-13.302 13.334c-3.131-3.483-5.087-8.053-5.087-13.081 0-5.142 2.019-9.824 5.277-13.334zm14.377-6.32c5.066 0 9.599 1.833 13.144 4.992l-13.113 13.113-13.113-13.081c3.48-3.119 8.064-5.024 13.081-5.024zm-31.787-11.059l10.459 10.427c-4.999 5.294-8.057 12.444-8.057 20.285 0 7.734 2.989 14.761 7.868 20.033l-10.459 10.49c-7.545-7.943-12.197-18.673-12.197-30.523 0-11.946 4.731-22.751 12.386-30.712zm31.945-13.618c11.752 0 22.5 4.696 30.491 12.133l-10.49 10.522c-5.259-4.85-12.353-7.868-20.001-7.868-7.801 0-14.905 3.041-20.191 7.994l-10.459-10.459c7.955-7.618 18.735-12.323 30.649-12.323zm-58.36-12.765l19.401 19.369c-9.443 9.752-15.261 23.04-15.261 37.727 0 14.594 5.735 27.803 15.072 37.537l-19.211 19.274zm116.404-.19v113.813l-56.907-56.812zm-115.109-1.074h113.655l-19.085 19.116c-9.676-9.247-22.874-14.977-37.506-14.977-14.655 0-27.918 5.792-37.664 15.198zm-12.09-10.795v137.989h137.989v-137.989z" style="line-height:109.00000334%;-inkscape-font-specification:Museo 500" font-size="16.027" font-family="Museo 500" letter-spacing="0" word-spacing="0"/></g></svg>