<svg xmlns="http://www.w3.org/2000/svg" width="706" height="120"><style>.kiwi:hover { fill: #ace63c; }</style><g id="layer1" transform="translate(-63.636 -449.351)" fill="#fff"><path class="kiwi" id="rect2998" d="M63.636 449.351v120h120v-120zm10.514 9.388h98.838l-16.597 16.624c-8.414-8.041-19.892-13.025-32.616-13.025-12.744 0-24.278 5.037-32.754 13.217zm100.102.934v98.976l-49.488-49.406zm-101.229.165l16.871 16.844c-8.212 8.481-13.272 20.037-13.272 32.809 0 12.691 4.987 24.178 13.107 32.644l-16.707 16.762zm50.752 11.101c10.22 0 19.566 4.083 26.516 10.551l-9.123 9.15c-4.573-4.217-10.743-6.842-17.394-6.842-6.784 0-12.962 2.645-17.558 6.952l-9.095-9.095c6.918-6.625 16.293-10.716 26.654-10.716zm-27.78 11.843l9.095 9.068c-4.347 4.604-7.007 10.822-7.007 17.641 0 6.726 2.6 12.837 6.842 17.421l-9.095 9.123c-6.562-6.907-10.606-16.239-10.606-26.544 0-10.389 4.114-19.785 10.771-26.709zm27.643 9.617c4.405 0 8.348 1.594 11.431 4.342l-11.403 11.403-11.403-11.376c3.027-2.712 7.013-4.369 11.376-4.369zm-12.502 5.496l11.403 11.376-11.568 11.596c-2.723-3.029-4.424-7.003-4.424-11.376 0-4.471 1.756-8.544 4.589-11.596zm12.53 12.475l11.651 11.651c-3.014 2.77-7.168 4.561-11.678 4.561-4.464 0-8.518-1.764-11.568-4.589zm-17.641 17.668c4.617 4.419 10.869 7.144 17.751 7.144 6.904 0 13.052-2.731 17.641-7.089l9.15 9.15c-6.971 6.735-16.307 10.799-26.791 10.799-10.452 0-19.911-4.153-26.846-10.881zm-15.195 15.223c8.492 8.285 20.11 13.382 32.946 13.382 12.742 0 24.326-5.121 32.891-13.327l16.679 16.652h-99.196z" style="text-indent:0;text-align:start;line-height:normal;text-transform:none;block-progression:tb;-inkscape-font-specification:Sans" color="#000" fill-rule="evenodd" overflow="visible" enable-background="accumulate" font-family="Sans"/><g id="g5911" transform="matrix(2.643 0 0 2.643 33.923 2959.882)" letter-spacing="0" word-spacing="0" font-family="Museo 500"><g style="text-align:start;line-height:109.00000334%;-inkscape-font-specification:Sans" id="text5033-6-5" font-size="33"><path d="M67.609-934.996c0-2.486.836-4.565 2.508-6.237 1.694-1.672 3.839-2.508 6.435-2.508 1.232 0 2.365.209 3.399.627 1.056.396 1.804.803 2.244 1.221l.627.594-1.518 2.244c-.132-.132-.33-.308-.594-.528-.242-.22-.77-.506-1.584-.858-.792-.352-1.606-.528-2.442-.528-1.672 0-3.058.561-4.158 1.683-1.1 1.122-1.65 2.541-1.65 4.257 0 1.716.55 3.146 1.65 4.29 1.122 1.144 2.541 1.716 4.257 1.716.924 0 1.815-.187 2.673-.561.858-.374 1.485-.748 1.881-1.122l.594-.561 1.287 2.343-.297.297c-.11.11-.374.319-.792.627-.418.308-.869.583-1.353.825-.484.22-1.111.429-1.881.627-.748.198-1.529.297-2.343.297-2.618 0-4.763-.825-6.435-2.475-1.672-1.65-2.508-3.74-2.508-6.27" style="line-height:109.00000334%;-inkscape-font-specification:Museo 500" id="path6587"/><path d="M86.844-926.647v-16.698h3.102v2.904l-.066 1.254h.066c.396-1.276 1.056-2.321 1.98-3.135.946-.814 2.046-1.221 3.3-1.221l.825.066v3.168c-.286-.066-.594-.099-.924-.099-1.034 0-1.98.352-2.838 1.056-.858.704-1.474 1.661-1.848 2.871-.264.858-.396 1.859-.396 3.003v6.831h-3.201" style="line-height:109.00000334%;-inkscape-font-specification:Museo 500" id="path6589"/><path d="M97.935-934.996c0-2.618.781-4.73 2.343-6.336 1.584-1.606 3.586-2.409 6.006-2.409 2.266 0 4.037.737 5.313 2.211 1.276 1.474 1.914 3.344 1.914 5.61l-.099 1.386h-12.177c.088 1.76.671 3.124 1.749 4.092 1.1.946 2.431 1.419 3.993 1.419.858 0 1.694-.165 2.508-.495.836-.33 1.452-.649 1.848-.957l.594-.495 1.32 2.343c-.176.176-.44.396-.792.66-.352.264-1.089.616-2.211 1.056-1.122.44-2.277.66-3.465.66-2.596 0-4.719-.825-6.369-2.475-1.65-1.672-2.475-3.762-2.475-6.27m3.399-1.947h8.91c-.044-1.386-.451-2.442-1.221-3.168-.748-.726-1.683-1.089-2.805-1.089-1.254 0-2.332.374-3.234 1.122-.88.748-1.43 1.793-1.65 3.135" style="line-height:109.00000334%;-inkscape-font-specification:Museo 500" id="path6591"/><path d="M116.24-934.996c0-2.618.781-4.73 2.343-6.336 1.584-1.606 3.586-2.409 6.006-2.409 2.266 0 4.037.737 5.313 2.211 1.276 1.474 1.914 3.344 1.914 5.61l-.099 1.386h-12.177c.088 1.76.671 3.124 1.749 4.092 1.1.946 2.431 1.419 3.993 1.419.858 0 1.694-.165 2.508-.495.836-.33 1.452-.649 1.848-.957l.594-.495 1.32 2.343c-.176.176-.44.396-.792.66-.352.264-1.089.616-2.211 1.056-1.122.44-2.277.66-3.465.66-2.596 0-4.719-.825-6.369-2.475-1.65-1.672-2.475-3.762-2.475-6.27m3.399-1.947h8.91c-.044-1.386-.451-2.442-1.221-3.168-.748-.726-1.683-1.089-2.805-1.089-1.254 0-2.332.374-3.234 1.122-.88.748-1.43 1.793-1.65 3.135" style="line-height:109.00000334%;-inkscape-font-specification:Museo 500" id="path6593"/><path d="M135.699-926.647v-23.298h3.201v12.738h2.343l4.554-6.138h3.63l-5.544 7.359v.066l6.171 9.273h-3.729l-5.016-7.854h-2.409v7.854h-3.201" style="line-height:109.00000334%;-inkscape-font-specification:Museo 500" id="path6595"/><path d="M160.357-934.996c0-2.486.836-4.565 2.508-6.237 1.694-1.672 3.839-2.508 6.435-2.508 1.232 0 2.365.209 3.399.627 1.056.396 1.804.803 2.244 1.221l.627.594-1.518 2.244c-.132-.132-.33-.308-.594-.528-.242-.22-.77-.506-1.584-.858-.792-.352-1.606-.528-2.442-.528-1.672 0-3.058.561-4.158 1.683-1.1 1.122-1.65 2.541-1.65 4.257 0 1.716.55 3.146 1.65 4.29 1.122 1.144 2.541 1.716 4.257 1.716.924 0 1.815-.187 2.673-.561.858-.374 1.485-.748 1.881-1.122l.594-.561 1.287 2.343-.297.297c-.11.11-.374.319-.792.627-.418.308-.869.583-1.353.825-.484.22-1.111.429-1.881.627-.748.198-1.529.297-2.343.297-2.618 0-4.763-.825-6.435-2.475-1.672-1.65-2.508-3.74-2.508-6.27" style="line-height:109.00000334%;-inkscape-font-specification:Museo 500" id="path6597"/><path d="M179.592-926.647v-16.698h3.102v2.904l-.066 1.254h.066c.396-1.276 1.056-2.321 1.98-3.135.946-.814 2.046-1.221 3.3-1.221l.825.066v3.168c-.286-.066-.594-.099-.924-.099-1.034 0-1.98.352-2.838 1.056-.858.704-1.474 1.661-1.848 2.871-.264.858-.396 1.859-.396 3.003v6.831h-3.201" style="line-height:109.00000334%;-inkscape-font-specification:Museo 500" id="path6599"/><path d="M190.683-934.996c0-2.618.781-4.73 2.343-6.336 1.584-1.606 3.586-2.409 6.006-2.409 2.266 0 4.037.737 5.313 2.211 1.276 1.474 1.914 3.344 1.914 5.61l-.099 1.386h-12.177c.088 1.76.671 3.124 1.749 4.092 1.1.946 2.431 1.419 3.993 1.419.858 0 1.694-.165 2.508-.495.836-.33 1.452-.649 1.848-.957l.594-.495 1.32 2.343c-.176.176-.44.396-.792.66-.352.264-1.089.616-2.211 1.056-1.122.44-2.277.66-3.465.66-2.596 0-4.719-.825-6.369-2.475-1.65-1.672-2.475-3.762-2.475-6.27m3.399-1.947h8.91c-.044-1.386-.451-2.442-1.221-3.168-.748-.726-1.683-1.089-2.805-1.089-1.254 0-2.332.374-3.234 1.122-.88.748-1.43 1.793-1.65 3.135" style="line-height:109.00000334%;-inkscape-font-specification:Museo 500" id="path6601"/><path d="M208.79-931.333c0-3.828 3.355-5.742 10.065-5.742h.726v-.297c0-2.442-1.221-3.663-3.663-3.663-.77 0-1.54.132-2.31.396s-1.353.528-1.749.792l-.594.429-1.32-2.343c.176-.154.429-.341.759-.561.352-.22 1.067-.506 2.145-.858 1.078-.374 2.189-.561 3.333-.561 2.112 0 3.74.561 4.884 1.683 1.144 1.122 1.716 2.739 1.716 4.851v10.56h-2.97v-1.584l.066-1.32h-.066l-.198.363c-.066.154-.253.418-.561.792-.286.374-.616.704-.99.99-.352.286-.858.55-1.518.792-.638.242-1.331.363-2.079.363-1.54 0-2.871-.451-3.993-1.353-1.122-.902-1.683-2.145-1.683-3.729m3.234-.165c0 .726.275 1.353.825 1.881.55.528 1.32.792 2.31.792 1.276 0 2.332-.55 3.168-1.65.858-1.122 1.287-2.343 1.287-3.663v-.528h-.825c-4.51 0-6.765 1.056-6.765 3.168" style="line-height:109.00000334%;-inkscape-font-specification:Museo 500" id="path6603"/><path d="M228.109-932.752v-7.788h-2.178v-2.574h2.277v-4.818h3.102v4.818h4.026v2.574h-4.026v7.425c0 .638.088 1.199.264 1.683.176.462.385.825.627 1.089.264.264.561.473.891.627.352.154.66.253.924.297.286.044.572.066.858.066l.759-.066v2.838c-.308.044-.682.066-1.122.066-.528 0-1.034-.033-1.518-.099s-1.034-.231-1.65-.495c-.616-.264-1.155-.605-1.617-1.023-.44-.44-.825-1.056-1.155-1.848-.308-.792-.462-1.716-.462-2.772" style="line-height:109.00000334%;-inkscape-font-specification:Museo 500" id="path6605"/><path d="M239.178-946.678v-3.267h3.234v3.267h-3.234m.033 20.031v-16.698h3.201v16.698h-3.201" style="line-height:109.00000334%;-inkscape-font-specification:Museo 500" id="path6607"/><path d="M251.357-926.647l-6.237-16.698h3.399l4.059 11.286c.088.264.176.594.264.99.088.374.165.682.231.924l.066.363h.066l.066-.363c.066-.242.143-.55.231-.924.11-.396.209-.726.297-.99l4.059-11.286h3.366l-6.171 16.698h-3.696" style="line-height:109.00000334%;-inkscape-font-specification:Museo 500" id="path6609"/><path d="M262.806-934.996c0-2.618.781-4.73 2.343-6.336 1.584-1.606 3.586-2.409 6.006-2.409 2.266 0 4.037.737 5.313 2.211 1.276 1.474 1.914 3.344 1.914 5.61l-.099 1.386h-12.177c.088 1.76.671 3.124 1.749 4.092 1.1.946 2.431 1.419 3.993 1.419.858 0 1.694-.165 2.508-.495.836-.33 1.452-.649 1.848-.957l.594-.495 1.32 2.343c-.176.176-.44.396-.792.66-.352.264-1.089.616-2.211 1.056-1.122.44-2.277.66-3.465.66-2.596 0-4.719-.825-6.369-2.475-1.65-1.672-2.475-3.762-2.475-6.27m3.399-1.947h8.91c-.044-1.386-.451-2.442-1.221-3.168-.748-.726-1.683-1.089-2.805-1.089-1.254 0-2.332.374-3.234 1.122-.88.748-1.43 1.793-1.65 3.135" style="line-height:109.00000334%;-inkscape-font-specification:Museo 500" id="path6611"/></g><g style="text-align:start;line-height:109.00000334%;-inkscape-font-specification:Sans" id="text4577" font-size="16.027"><path d="M69.841-910.18c0-1.859 1.629-2.789 4.888-2.789h.353v-.144c0-1.186-.593-1.779-1.779-1.779-.374 0-.748.064-1.122.192-.374.128-.657.256-.849.385l-.288.208-.641-1.138c.085-.075.208-.166.369-.272.171-.107.518-.246 1.042-.417.524-.182 1.063-.272 1.619-.272 1.026 0 1.816.272 2.372.817.556.545.833 1.33.833 2.356v5.129h-1.442v-.769l.032-.641h-.032l-.096.176c-.032.075-.123.203-.272.385-.139.182-.299.342-.481.481-.171.139-.417.267-.737.385-.31.118-.646.176-1.01.176-.748 0-1.394-.219-1.939-.657-.545-.438-.817-1.042-.817-1.811m1.571-.08c0 .353.134.657.401.914.267.256.641.385 1.122.385.62 0 1.133-.267 1.539-.801.417-.545.625-1.138.625-1.779v-.256h-.401c-2.19 0-3.286.513-3.285 1.539" style="line-height:109.00000334%;-inkscape-font-specification:Museo 500" id="path6614"/><path d="M78.949-907.904v-8.11h1.507v1.41l-.032.609h.032c.192-.62.513-1.127.962-1.523.459-.395.994-.593 1.603-.593l.401.032v1.539c-.139-.032-.288-.048-.449-.048-.502 0-.962.171-1.378.513-.417.342-.716.807-.898 1.394-.128.417-.192.903-.192 1.458v3.318h-1.555" style="line-height:109.00000334%;-inkscape-font-specification:Museo 500" id="path6616"/><path d="M85.296-910.869v-3.782h-1.058v-1.25h1.106v-2.34h1.507v2.34h1.955v1.25h-1.955v3.606c0 .31.043.582.128.817.085.224.187.401.305.529.128.128.272.23.433.305.171.075.321.123.449.144.139.021.278.032.417.032l.369-.032v1.378c-.15.021-.331.032-.545.032-.256 0-.502-.016-.737-.048s-.502-.112-.801-.24c-.299-.128-.561-.294-.785-.497-.214-.214-.401-.513-.561-.897-.15-.385-.224-.833-.224-1.346" style="line-height:109.00000334%;-inkscape-font-specification:Museo 500" id="path6618"/><path d="M94.467-911.078c0-.641.176-1.234.529-1.779.363-.545.849-.919 1.458-1.122v-.032l-.16-.064c-.064-.032-.182-.112-.353-.24-.171-.128-.326-.278-.465-.449-.128-.171-.246-.411-.353-.721-.107-.31-.16-.646-.16-1.01 0-.919.321-1.635.962-2.148.652-.513 1.49-.769 2.516-.769.182 0 .385.016.609.048l.561.08.208.048-.401 1.266c-.31-.064-.593-.096-.849-.096-.577 0-1.058.155-1.442.465-.374.31-.561.732-.561 1.266 0 .203.027.401.08.593.064.182.166.369.305.561.139.192.353.347.641.465.288.107.641.16 1.058.16h2.1v-1.539h1.555v1.539h1.507v1.378h-1.507v1.507c0 1.25-.347 2.222-1.042 2.917-.695.694-1.651 1.042-2.869 1.042-1.165 0-2.11-.321-2.837-.962-.727-.641-1.09-1.442-1.09-2.404m1.619-.08c0 .556.214 1.026.641 1.41.427.385.983.577 1.667.577.748 0 1.325-.208 1.731-.625.417-.427.625-1.074.625-1.939v-1.442h-2.164c-.801 0-1.421.176-1.859.529-.427.353-.641.849-.641 1.49" style="line-height:109.00000334%;-inkscape-font-specification:Museo 500" id="path6620"/><path d="M109.379-911.959c0-1.282.342-2.308 1.026-3.077.684-.78 1.565-1.17 2.644-1.17.353 0 .678.043.978.128.299.086.534.192.705.321.182.128.337.256.465.385.139.128.235.235.288.321l.064.128h.032c-.021-.16-.032-.342-.032-.545v-3.75h1.555v11.315h-1.474v-.769l.016-.545h-.032l-.096.16c-.032.064-.123.187-.272.369-.139.171-.305.326-.497.465-.182.128-.433.246-.753.353-.321.107-.668.16-1.042.16-1.09 0-1.961-.39-2.612-1.17-.641-.78-.962-1.806-.962-3.077m1.587 0c0 .876.208 1.581.625 2.116.427.524.983.785 1.667.785.662 0 1.218-.24 1.667-.721.449-.491.673-1.223.673-2.196 0-.78-.203-1.453-.609-2.019-.395-.577-.956-.865-1.683-.865-.662 0-1.218.262-1.667.785-.449.513-.673 1.218-.673 2.116" style="line-height:109.00000334%;-inkscape-font-specification:Museo 500" id="path6622"/><path d="M118.988-911.959c0-1.271.379-2.297 1.138-3.077.769-.78 1.742-1.17 2.917-1.17 1.101 0 1.961.358 2.58 1.074.62.716.93 1.624.93 2.725l-.048.673h-5.914c.043.855.326 1.517.849 1.987.534.459 1.181.689 1.939.689.417 0 .823-.08 1.218-.24.406-.16.705-.315.897-.465l.288-.24.641 1.138c-.086.086-.214.192-.385.321-.171.128-.529.299-1.074.513-.545.214-1.106.321-1.683.321-1.261 0-2.292-.401-3.093-1.202-.801-.812-1.202-1.827-1.202-3.045m1.651-.946h4.327c-.021-.673-.219-1.186-.593-1.539-.363-.353-.817-.529-1.362-.529-.609 0-1.133.182-1.571.545-.427.363-.695.871-.801 1.523" style="line-height:109.00000334%;-inkscape-font-specification:Museo 500" id="path6624"/><path d="M127.781-908.898l.753-1.106c.064.075.16.166.288.272.128.096.395.235.801.417.406.171.817.256 1.234.256.363 0 .678-.091.946-.272.267-.182.401-.427.401-.737 0-.267-.144-.502-.433-.705-.288-.203-.636-.379-1.042-.529-.406-.16-.812-.331-1.218-.513-.406-.192-.753-.465-1.042-.817-.288-.353-.433-.775-.433-1.266 0-.716.278-1.277.833-1.683.556-.417 1.255-.625 2.1-.625.524 0 1.004.075 1.442.224.438.15.743.299.914.449l.256.224-.625 1.17-.24-.192c-.096-.086-.321-.192-.673-.321-.342-.139-.705-.208-1.09-.208-.374 0-.689.086-.946.256-.256.16-.385.406-.385.737 0 .267.144.497.433.689.288.192.636.369 1.042.529.406.15.812.321 1.218.513.406.182.753.449 1.042.801.288.353.433.775.433 1.266 0 .684-.272 1.25-.817 1.699-.534.438-1.239.657-2.116.657-.588 0-1.138-.096-1.651-.288-.513-.203-.876-.406-1.09-.609l-.337-.288" style="line-height:109.00000334%;-inkscape-font-specification:Museo 500" id="path6626"/><path d="M135.591-917.633v-1.587h1.571v1.587h-1.571m.016 9.728v-8.11h1.555v8.11h-1.555" style="line-height:109.00000334%;-inkscape-font-specification:Museo 500" id="path6628"/><path d="M140.303-906.43c.673.363 1.416.545 2.228.545.769 0 1.389-.187 1.859-.561.47-.363.705-.935.705-1.715v-.593l.016-.513h-.032c-.502.844-1.304 1.266-2.404 1.266-1.101 0-1.982-.39-2.644-1.17-.652-.791-.978-1.784-.978-2.981 0-1.197.315-2.169.946-2.917.63-.759 1.496-1.138 2.596-1.138.363 0 .7.043 1.01.128.31.075.556.176.737.305.182.118.337.235.465.353s.214.219.256.305l.08.112h.032l-.016-.256v-.753h1.49v7.773c0 .641-.118 1.207-.353 1.699-.224.491-.534.876-.93 1.154-.395.288-.828.502-1.298.641-.47.139-.972.208-1.507.208-.972 0-1.897-.224-2.773-.673l.513-1.218m2.676-2.917c.63 0 1.143-.219 1.539-.657.406-.438.609-1.149.609-2.132 0-1.816-.764-2.725-2.292-2.725-.695 0-1.239.24-1.635.721-.385.47-.577 1.122-.577 1.955 0 .855.208 1.544.625 2.067.427.513 1.004.769 1.731.769" style="line-height:109.00000334%;-inkscape-font-specification:Museo 500" id="path6630"/><path d="M149.098-907.904v-8.11h1.507v1.074l-.032.593h.032c.214-.459.577-.881 1.09-1.266.513-.395 1.165-.593 1.955-.593 1.859 0 2.789 1.036 2.789 3.109v5.193h-1.555v-4.84c0-.652-.107-1.154-.321-1.507-.214-.353-.62-.529-1.218-.529-.609 0-1.149.187-1.619.561-.459.363-.775.839-.946 1.426-.086.288-.128.652-.128 1.09v3.798h-1.555" style="line-height:109.00000334%;-inkscape-font-specification:Museo 500" id="path6632"/><path d="M162.245-908.898l.753-1.106c.064.075.16.166.288.272.128.096.395.235.801.417.406.171.817.256 1.234.256.363 0 .678-.091.946-.272.267-.182.401-.427.401-.737 0-.267-.144-.502-.433-.705-.288-.203-.636-.379-1.042-.529-.406-.16-.812-.331-1.218-.513-.406-.192-.753-.465-1.042-.817-.288-.353-.433-.775-.433-1.266 0-.716.278-1.277.833-1.683.556-.417 1.255-.625 2.1-.625.524 0 1.004.075 1.442.224.438.15.743.299.914.449l.256.224-.625 1.17-.24-.192c-.096-.086-.321-.192-.673-.321-.342-.139-.705-.208-1.09-.208-.374 0-.689.086-.946.256-.256.16-.385.406-.385.737 0 .267.144.497.433.689.288.192.636.369 1.042.529.406.15.812.321 1.218.513.406.182.753.449 1.042.801.288.353.433.775.433 1.266 0 .684-.272 1.25-.817 1.699-.534.438-1.239.657-2.116.657-.588 0-1.138-.096-1.651-.288-.513-.203-.876-.406-1.09-.609l-.337-.288" style="line-height:109.00000334%;-inkscape-font-specification:Museo 500" id="path6634"/><path d="M170.407-910.869v-3.782h-1.058v-1.25h1.106v-2.34h1.507v2.34h1.955v1.25h-1.955v3.606c0 .31.043.582.128.817.086.224.187.401.305.529.128.128.272.23.433.305.171.075.321.123.449.144.139.021.278.032.417.032l.369-.032v1.378c-.15.021-.331.032-.545.032-.256 0-.502-.016-.737-.048s-.502-.112-.801-.24c-.299-.128-.561-.294-.785-.497-.214-.214-.401-.513-.561-.897-.15-.385-.224-.833-.224-1.346" style="line-height:109.00000334%;-inkscape-font-specification:Museo 500" id="path6636"/><path d="M175.687-910.821v-5.193h1.555v4.84c0 .652.102 1.154.305 1.507.214.342.62.513 1.218.513.791 0 1.426-.299 1.907-.898.481-.598.721-1.32.721-2.164v-3.798h1.555v8.11h-1.507v-1.074l.032-.593h-.032c-.203.47-.572.897-1.106 1.282-.524.385-1.149.577-1.875.577-1.848 0-2.773-1.036-2.773-3.109" style="line-height:109.00000334%;-inkscape-font-specification:Museo 500" id="path6638"/><path d="M184.849-911.959c0-1.282.342-2.308 1.026-3.077.684-.78 1.565-1.17 2.644-1.17.353 0 .678.043.978.128.299.086.534.192.705.321.182.128.337.256.465.385.139.128.235.235.288.321l.064.128h.032c-.021-.16-.032-.342-.032-.545v-3.75h1.555v11.315h-1.474v-.769l.016-.545h-.032l-.096.16c-.032.064-.123.187-.272.369-.139.171-.305.326-.497.465-.182.128-.433.246-.753.353-.321.107-.668.16-1.042.16-1.09 0-1.961-.39-2.612-1.17-.641-.78-.962-1.806-.962-3.077m1.587 0c0 .876.208 1.581.625 2.116.427.524.983.785 1.667.785.662 0 1.218-.24 1.667-.721.449-.491.673-1.223.673-2.196 0-.78-.203-1.453-.609-2.019-.395-.577-.956-.865-1.683-.865-.662 0-1.218.262-1.667.785-.449.513-.673 1.218-.673 2.116" style="line-height:109.00000334%;-inkscape-font-specification:Museo 500" id="path6640"/><path d="M195.003-917.633v-1.587h1.571v1.587h-1.571m.016 9.728v-8.11h1.555v8.11h-1.555" style="line-height:109.00000334%;-inkscape-font-specification:Museo 500" id="path6642"/><path d="M199.667-908.93c-.844-.812-1.266-1.827-1.266-3.045s.422-2.228 1.266-3.029c.844-.801 1.88-1.202 3.109-1.202s2.265.401 3.109 1.202c.844.801 1.266 1.811 1.266 3.029s-.427 2.233-1.282 3.045c-.844.812-1.875 1.218-3.093 1.218s-2.254-.406-3.109-1.218m1.138-5.113c-.545.545-.817 1.234-.817 2.067 0 .833.272 1.528.817 2.083.545.556 1.202.833 1.971.833.78 0 1.437-.272 1.971-.817.545-.556.817-1.255.817-2.1 0-.833-.272-1.523-.817-2.067-.534-.545-1.191-.817-1.971-.817-.769 0-1.426.272-1.971.817" style="line-height:109.00000334%;-inkscape-font-specification:Museo 500" id="path6644"/><path d="M208.322-908.898l.753-1.106c.064.075.16.166.288.272.128.096.395.235.801.417.406.171.817.256 1.234.256.363 0 .678-.091.946-.272.267-.182.401-.427.401-.737 0-.267-.144-.502-.433-.705-.288-.203-.636-.379-1.042-.529-.406-.16-.812-.331-1.218-.513-.406-.192-.753-.465-1.042-.817-.288-.353-.433-.775-.433-1.266 0-.716.278-1.277.833-1.683.556-.417 1.255-.625 2.1-.625.524 0 1.004.075 1.442.224.438.15.743.299.914.449l.256.224-.625 1.17-.24-.192c-.096-.086-.321-.192-.673-.321-.342-.139-.705-.208-1.09-.208-.374 0-.689.086-.946.256-.256.16-.385.406-.385.737 0 .267.144.497.433.689.288.192.636.369 1.042.529.406.15.812.321 1.218.513.406.182.753.449 1.042.801.288.353.433.775.433 1.266 0 .684-.272 1.25-.817 1.699-.534.438-1.239.657-2.116.657-.588 0-1.138-.096-1.651-.288-.513-.203-.876-.406-1.09-.609l-.337-.288" style="line-height:109.00000334%;-inkscape-font-specification:Museo 500" id="path6646"/></g></g></g></svg>