<svg xmlns="http://www.w3.org/2000/svg" width="16" height="16"><g transform="translate(-296.527 -507.236)"><rect width="16" height="16" x="296.527" y="507.237" ry="1" fill="#22224c"/><g fill-rule="evenodd" fill="#fff"><path d="M298.486 515.103c0 3.546 2.862 6.408 6.408 6.408 1.764 0 3.366-.72 4.536-1.872l-.828-.828c-.954.954-2.25 1.53-3.708 1.53-2.898 0-5.238-2.34-5.238-5.238 0-2.898 2.34-5.238 5.238-5.238 1.44 0 2.754.594 3.708 1.53l.828-.828c-1.152-1.152-2.754-1.872-4.536-1.872-3.546 0-6.408 2.862-6.408 6.408z" class="fil1"/><path d="M301.402 515.103c0 1.926 1.566 3.492 3.492 3.492.972 0 1.836-.396 2.466-1.026l-.828-.828c-.414.414-1.008.684-1.656.684-1.278 0-2.322-1.044-2.322-2.322s1.044-2.322 2.322-2.322c.648 0 1.224.252 1.656.684l.828-.828c-.63-.63-1.512-1.026-2.466-1.026-1.926 0-3.492 1.566-3.492 3.492z" class="fil1"/></g></g></svg>