<svg xmlns="http://www.w3.org/2000/svg" width="96" height="58"><g transform="translate(-312.715 -386.514)"><path color="#000" overflow="visible" enable-background="accumulate" fill="none" d="M312.715 412.514h32v32h-32z"/><path d="M328.715 412.514c-8.837 0-16 7.163-16 16s7.163 16 16 16 16-7.163 16-16-7.163-16-16-16zm0 29c-7.18 0-13-5.82-13-13s5.82-13 13-13 13 5.82 13 13-5.82 13-13 13zm3-16l-9-5h-2v2l5 9 9 5h2v-2l-5-9zm-3 5c-1.105 0-2-.895-2-2s.895-2 2-2 2 .895 2 2-.895 2-2 2z" fill="#fff"/><path color="#000" overflow="visible" enable-background="accumulate" fill="none" d="M344.715 412.514h32v32h-32z"/><path color="#000" overflow="visible" enable-background="accumulate" fill="none" d="M376.715 412.514h32v32h-32z"/><rect width="26" height="4" x="312.715" y="389.514" rx="2" ry="2" color="#000" fill="#fff" overflow="visible" enable-background="accumulate"/><rect ry="2" rx="2" y="397.514" x="312.715" height="4" width="26" color="#000" fill="#fff" overflow="visible" enable-background="accumulate"/><rect width="26" height="4" x="312.715" y="405.514" rx="2" ry="2" color="#000" fill="#fff" overflow="visible" enable-background="accumulate"/><rect width="26" height="26" x="312.715" y="386.514" rx="0" ry="0" color="#000" overflow="visible" enable-background="accumulate" fill="none"/></g></svg>