<svg xmlns="http://www.w3.org/2000/svg" width="180" height="72"><g><path color="#000" overflow="visible" enable-background="accumulate" fill="none" d="M0 0h36v36H0z"/><path style="text-indent:0;text-align:start;line-height:normal;text-transform:none;block-progression:tb;-inkscape-font-specification:Sans" d="M5.406 26c-1.31.05-2.455 1.285-2.406 2.594.05 1.31 1.285 2.455 2.594 2.406h24.87c1.32.02 2.536-1.18 2.536-2.5s-1.215-2.52-2.536-2.5H5.594c-.063-.002-.125-.002-.188 0zm463.465 407.014c-1.308.05-2.455 1.285-2.405 2.594.05 1.31 1.284 2.455 2.593 2.406h24.87c1.322.02 2.537-1.18 2.537-2.5s-1.215-2.52-2.536-2.5h-24.872c-.062-.002-.125-.002-.187 0zm0-10c-1.308.05-2.455 1.285-2.405 2.594.05 1.31 1.284 2.455 2.593 2.406h24.87c1.322.02 2.537-1.18 2.537-2.5s-1.215-2.52-2.536-2.5h-24.872c-.062-.002-.125-.002-.187 0z" color="#000" fill="#8da1b3" overflow="visible" enable-background="accumulate" font-family="Sans"/><path color="#000" overflow="visible" enable-background="accumulate" fill="none" d="M0 36h36v36H0z"/><path d="M5.406 62c-1.31.05-2.455 1.285-2.406 2.594.05 1.31 1.285 2.455 2.594 2.406h24.87c1.32.02 2.536-1.18 2.536-2.5s-1.215-2.52-2.536-2.5H5.594c-.063-.002-.125-.002-.188 0zm463.465 407.014c-1.308.05-2.455 1.285-2.405 2.594.05 1.31 1.284 2.455 2.593 2.406h24.87c1.322.02 2.537-1.18 2.537-2.5s-1.215-2.52-2.536-2.5h-24.872c-.062-.002-.125-.002-.187 0zm0-10c-1.308.05-2.455 1.285-2.405 2.594.05 1.31 1.284 2.455 2.593 2.406h24.87c1.322.02 2.537-1.18 2.537-2.5s-1.215-2.52-2.536-2.5h-24.872c-.062-.002-.125-.002-.187 0z" style="text-indent:0;text-align:start;line-height:normal;text-transform:none;block-progression:tb;-inkscape-font-specification:Sans" color="#000" fill="#fff" overflow="visible" enable-background="accumulate" font-family="Sans"/><path color="#000" overflow="visible" enable-background="accumulate" fill="none" d="M72 0h36v36H72z"/><path color="#000" overflow="visible" enable-background="accumulate" fill="none" d="M72 36h36v36H72z"/><path color="#000" overflow="visible" enable-background="accumulate" fill="none" d="M108 0h36v36h-36z"/><path color="#000" overflow="visible" enable-background="accumulate" fill="none" d="M108 36h36v36h-36z"/><path color="#000" overflow="visible" enable-background="accumulate" fill="none" d="M144 0h36v36h-36z"/><path color="#000" overflow="visible" enable-background="accumulate" fill="none" d="M144 36h36v36h-36z"/><path color="#000" overflow="visible" enable-background="accumulate" fill="none" d="M72 0h36v36H72z"/><path d="M108 6.835c-1.325.587-2.748.985-4.242 1.163 1.525-.914 2.696-2.36 3.248-4.086-1.428.846-3.008 1.46-4.69 1.792-1.348-1.435-3.267-2.332-5.392-2.332-4.08 0-7.386 3.307-7.386 7.385 0 .58.066 1.143.192 1.684-6.14-.308-11.58-3.248-15.224-7.716-.635 1.09-1 2.36-1 3.713 0 2.562 1.304 4.823 3.286 6.147-1.21-.038-2.35-.37-3.345-.924v.093c0 3.58 2.545 6.564 5.924 7.243-.62.168-1.272.26-1.945.26-.476 0-.94-.048-1.39-.134.94 2.934 3.668 5.07 6.9 5.13-2.528 1.98-5.713 3.16-9.173 3.16-.596 0-1.184-.034-1.762-.102 3.27 2.095 7.15 3.318 11.322 3.318 13.585 0 21.014-11.254 21.014-21.014 0-.32-.007-.64-.022-.956 1.444-1.04 2.696-2.342 3.686-3.823z" fill="#fff"/><path color="#000" overflow="visible" enable-background="accumulate" fill="none" d="M72 36h36v36H72z"/><path d="M108 42.835c-1.325.587-2.748.985-4.242 1.163 1.525-.914 2.696-2.36 3.248-4.086-1.428.846-3.008 1.46-4.69 1.792-1.348-1.435-3.267-2.332-5.392-2.332-4.08 0-7.386 3.307-7.386 7.385 0 .58.066 1.143.192 1.684-6.14-.308-11.58-3.248-15.224-7.716-.635 1.09-1 2.36-1 3.713 0 2.562 1.304 4.823 3.286 6.147-1.21-.038-2.35-.37-3.345-.924v.093c0 3.58 2.545 6.564 5.924 7.243-.62.168-1.272.26-1.945.26-.476 0-.94-.048-1.39-.134.94 2.934 3.668 5.07 6.9 5.13-2.528 1.98-5.713 3.16-9.173 3.16-.596 0-1.184-.034-1.762-.102 3.27 2.095 7.15 3.318 11.322 3.318 13.585 0 21.014-11.254 21.014-21.014 0-.32-.007-.64-.022-.956 1.444-1.04 2.696-2.342 3.686-3.823z" fill="#bcbcc9"/><path d="M163.655 2.792h-9.42c-4.223 0-8.197 3.2-8.197 6.905 0 3.787 2.878 6.844 7.175 6.844.298 0 .59-.005.873-.026-.28.534-.478 1.136-.478 1.76 0 1.052.566 1.906 1.282 2.602-.54 0-1.063.016-1.633.016-5.23 0-9.257 3.33-9.257 6.786 0 3.402 4.414 5.53 9.645 5.53 5.963 0 9.256-3.383 9.256-6.786 0-2.728-.803-4.362-3.292-6.122-.852-.602-2.48-2.068-2.48-2.93 0-1.01.288-1.507 1.808-2.694 1.558-1.218 2.66-2.93 2.66-4.92 0-2.37-1.055-4.678-3.036-5.44h2.987l2.108-1.524zm460.174 440.057c.074.314.115.64.115.97 0 2.75-1.772 4.898-6.855 4.898-3.616 0-6.227-2.29-6.227-5.038 0-2.694 3.24-4.937 6.855-4.898.843.01 1.63.144 2.343.375 1.964 1.365 3.372 2.137 3.77 3.692zm-5.79-10.255c-2.427-.073-4.733-2.715-5.152-5.902-.42-3.187 1.208-5.626 3.635-5.554 2.426.072 4.733 2.63 5.152 5.816.42 3.187-1.21 5.71-3.635 5.64zm18.675-6.04v-6.75h-2.25v6.75h-6.75v2.25h6.75v6.75h2.25v-6.75h6.75v-2.25z" fill="#fff"/><path color="#000" overflow="visible" enable-background="accumulate" fill="none" d="M108 36h36v36h-36z"/><path d="M163.655 38.792h-9.42c-4.223 0-8.197 3.2-8.197 6.905 0 3.787 2.878 6.844 7.175 6.844.298 0 .59-.005.873-.026-.28.534-.478 1.136-.478 1.76 0 1.052.566 1.906 1.282 2.602-.54 0-1.063.016-1.633.016-5.23 0-9.257 3.33-9.257 6.786 0 3.402 4.414 5.53 9.645 5.53 5.963 0 9.256-3.383 9.256-6.786 0-2.728-.803-4.362-3.292-6.122-.852-.602-2.48-2.068-2.48-2.93 0-1.01.288-1.507 1.808-2.694 1.558-1.218 2.66-2.93 2.66-4.92 0-2.37-1.055-4.678-3.036-5.44h2.987l2.108-1.524zm460.174 440.057c.074.314.115.64.115.97 0 2.75-1.772 4.898-6.855 4.898-3.616 0-6.227-2.29-6.227-5.038 0-2.694 3.24-4.937 6.855-4.898.843.01 1.63.144 2.343.375 1.964 1.365 3.372 2.137 3.77 3.692zm-5.79-10.255c-2.427-.073-4.733-2.715-5.152-5.902-.42-3.187 1.208-5.626 3.635-5.554 2.426.072 4.733 2.63 5.152 5.816.42 3.187-1.21 5.71-3.635 5.64zm18.675-6.04v-6.75h-2.25v6.75h-6.75v2.25h6.75v6.75h2.25v-6.75h6.75v-2.25z" fill="#bcbcc9"/><path d="M138 0h-24c-3.3 0-6 2.7-6 6v24c0 3.302 2.7 6 6 6h24c3.3 0 6-2.698 6-6V6c0-3.3-2.7-6-6-6zm464.07 435.014h-5.855v15.75h-6.75v-15.75h-3.253v-5.153h3.253v-3.345c0-4.547 1.96-7.25 7.308-7.25h6.16v5.574h-5.03c-1.495-.003-1.68.777-1.68 2.232l-.008 2.79h6.75l-.893 5.152z" fill="#fff"/><path d="M138 36h-24c-3.3 0-6 2.7-6 6v24c0 3.302 2.7 6 6 6h24c3.3 0 6-2.698 6-6V42c0-3.3-2.7-6-6-6zm464.07 435.014h-5.855v15.75h-6.75v-15.75h-3.253v-5.153h3.253v-3.345c0-4.547 1.96-7.25 7.308-7.25h6.16v5.574h-5.03c-1.495-.003-1.68.777-1.68 2.232l-.008 2.79h6.75l-.893 5.152z" fill="#bcbcc9"/><path color="#000" overflow="visible" enable-background="accumulate" fill="none" d="M36 0h36v36H36z"/><path d="M68.144 7.288c3.745 2.13 3.856 4.41 3.856 6v.24c0 .364-.314.662-.698.662h-8.448c-.384 0-.698-.298-.698-.662v-.806c0-2.01-1.923-2.332-2.985-2.503-1.06-.172-3.698-.337-5.165-.337h-.01c-1.467 0-4.106.165-5.167.336-1.06.17-2.984.49-2.984 2.502v.806c0 .364-.315.662-.698.662h-8.448c-.384 0-.698-.298-.698-.662v-.24c0-1.59.11-3.87 3.856-6C44.31 4.756 50.68 4.5 53.996 4.5c0 .002 0 .004.004.005 0-.002.002-.004.005-.005 3.315 0 9.684.255 14.14 2.788zm449.32 423.226c-1.995 0-6.148.15-8.258 2.708-2.11 2.56-7.39 15.292-2.682 15.292h21.88c4.708 0-.57-12.733-2.68-15.292-2.11-2.56-6.265-2.708-8.26-2.708zm0 13.5c-2.485 0-4.5-2.015-4.5-4.5s2.015-4.5 4.5-4.5c2.486 0 4.5 2.015 4.5 4.5s-2.014 4.5-4.5 4.5z" fill="#8da1b3"/><path color="#000" overflow="visible" enable-background="accumulate" fill="none" d="M36 36h36v36H36z"/><path d="M68.144 43.288c3.745 2.13 3.856 4.41 3.856 6v.24c0 .364-.314.662-.698.662h-8.448c-.384 0-.698-.298-.698-.662v-.806c0-2.01-1.923-2.332-2.985-2.503-1.06-.172-3.698-.337-5.165-.337h-.01c-1.467 0-4.106.165-5.167.336-1.06.17-2.984.49-2.984 2.502v.806c0 .364-.315.662-.698.662h-8.448c-.384 0-.698-.298-.698-.662v-.24c0-1.59.11-3.87 3.856-6C44.31 40.756 50.68 40.5 53.996 40.5c0 .002 0 .004.004.005 0-.002.002-.004.005-.005 3.315 0 9.684.255 14.14 2.788zm449.32 423.226c-1.995 0-6.148.15-8.258 2.708-2.11 2.56-7.39 15.292-2.682 15.292h21.88c4.708 0-.57-12.733-2.68-15.292-2.11-2.56-6.265-2.708-8.26-2.708zm0 13.5c-2.485 0-4.5-2.015-4.5-4.5s2.015-4.5 4.5-4.5c2.486 0 4.5 2.015 4.5 4.5s-2.014 4.5-4.5 4.5z" fill="#fff"/></g></svg>