<svg xmlns="http://www.w3.org/2000/svg" width="72" height="72"><g><path d="M36 18c0-9.941-8.059-18-18-18s-18 8.059-18 18 8.059 18 18 18 18-8.059 18-18zm-32.625 0c0-8.077 6.548-14.625 14.625-14.625s14.625 6.548 14.625 14.625-6.548 14.625-14.625 14.625-14.625-6.548-14.625-14.625zm18 3.375l5.625-10.125v-2.25h-2.25l-10.125 5.625-5.625 10.125v2.25h2.25l10.125-5.625zm-5.625-3.375c0-1.243 1.007-2.25 2.25-2.25s2.25 1.007 2.25 2.25-1.007 2.25-2.25 2.25-2.25-1.007-2.25-2.25z" fill="#53687c"/><path color="#000" overflow="visible" enable-background="accumulate" fill="none" d="M0 0h36v36h-36z"/><path color="#000" overflow="visible" enable-background="accumulate" fill="none" d="M36 0h36v36h-36z"/><path style="text-indent:0;text-align:start;line-height:normal;text-transform:none;block-progression:tb;-inkscape-font-specification:Sans" d="M41.406 26c-1.309.049-2.455 1.285-2.406 2.594.049 1.309 1.285 2.455 2.594 2.406h24.871c1.321.019 2.536-1.179 2.536-2.5s-1.215-2.519-2.536-2.5h-25.058999999999997zm0-10c-1.309.049-2.455 1.285-2.406 2.594.049 1.309 1.285 2.455 2.594 2.406h24.871c1.321.019 2.536-1.179 2.536-2.5s-1.215-2.519-2.536-2.5h-25.058999999999997zm0-10c-1.309.049-2.455 1.285-2.406 2.594.049 1.309 1.285 2.455 2.594 2.406h24.871c1.321.019 2.536-1.179 2.536-2.5s-1.215-2.519-2.536-2.5h-25.058999999999997z" color="#000" fill="#8da1b3" overflow="visible" enable-background="accumulate" font-family="Sans"/><path d="M36 54c0-9.941-8.059-18-18-18s-18 8.059-18 18 8.059 18 18 18 18-8.059 18-18zm-32.625 0c0-8.077 6.548-14.625 14.625-14.625s14.625 6.548 14.625 14.625-6.548 14.625-14.625 14.625-14.625-6.548-14.625-14.625zm18 3.375l5.625-10.125v-2.25h-2.25l-10.125 5.625-5.625 10.125v2.25h2.25l10.125-5.625zm-5.625-3.375c0-1.243 1.007-2.25 2.25-2.25s2.25 1.007 2.25 2.25-1.007 2.25-2.25 2.25-2.25-1.007-2.25-2.25z" fill="#53687c" opacity=".7"/><path color="#000" overflow="visible" enable-background="accumulate" fill="none" d="M0 36h36v36h-36z"/><path color="#000" overflow="visible" enable-background="accumulate" fill="none" d="M36 36h36v36h-36z"/><path d="M41.406 62c-1.309.049-2.455 1.285-2.406 2.594.049 1.309 1.285 2.455 2.594 2.406h24.871c1.321.019 2.536-1.179 2.536-2.5s-1.215-2.519-2.536-2.5h-25.058999999999997zm0-10c-1.309.049-2.455 1.285-2.406 2.594.049 1.309 1.285 2.455 2.594 2.406h24.871c1.321.019 2.536-1.179 2.536-2.5s-1.215-2.519-2.536-2.5h-25.058999999999997zm0-10c-1.309.049-2.455 1.285-2.406 2.594.049 1.309 1.285 2.455 2.594 2.406h24.871c1.321.019 2.536-1.179 2.536-2.5s-1.215-2.519-2.536-2.5h-25.058999999999997z" style="text-indent:0;text-align:start;line-height:normal;text-transform:none;block-progression:tb;-inkscape-font-specification:Sans" color="#000" fill="#fff" overflow="visible" enable-background="accumulate" font-family="Sans"/></g></svg>