<svg xmlns="http://www.w3.org/2000/svg" width="72" height="54"><path d="M64.287 5.576c7.491 4.259 7.713 8.818 7.713 12.002v.478c0 .729-.628 1.324-1.396 1.324h-16.896c-.768 0-1.396-.596-1.396-1.324v-1.611c0-4.023-3.847-4.665-5.969-5.007-2.123-.341-7.399-.672-10.333-.672h-.02c-2.934 0-8.211.33-10.333.672-2.122.341-5.969.984-5.969 5.007v1.611c0 .729-.628 1.324-1.396 1.324h-16.896c-.767 0-1.396-.596-1.396-1.324v-.478c0-3.184.222-7.744 7.713-12.002 8.909-5.064 21.646-5.576 28.277-5.576l.01.01.01-.01c6.631 0 19.369.511 28.277 5.576zm-28.287 12.425c-3.99 0-12.297.299-16.517 5.417-4.222 5.116-14.778 30.583-5.364 30.583h43.763000000000005c9.414 0-1.143-25.467-5.363-30.583-4.221-5.118-12.53-5.417-16.518-5.417zm0 27c-4.971 0-9-4.029-9-9s4.029-9 9-9 9 4.029 9 9-4.029 9-9 9z" fill="#53687c"/></svg>