<?xml version="1.0" encoding="UTF-8" standalone="no"?>
<!-- Created with Inkscape (http://www.inkscape.org/) -->

<svg
   xmlns:dc="http://purl.org/dc/elements/1.1/"
   xmlns:cc="http://creativecommons.org/ns#"
   xmlns:rdf="http://www.w3.org/1999/02/22-rdf-syntax-ns#"
   xmlns:svg="http://www.w3.org/2000/svg"
   xmlns="http://www.w3.org/2000/svg"
   xmlns:sodipodi="http://sodipodi.sourceforge.net/DTD/sodipodi-0.dtd"
   xmlns:inkscape="http://www.inkscape.org/namespaces/inkscape"
   width="32"
   height="32"
   id="svg4350"
   version="1.1"
   inkscape:version="0.48.4 r9943 custom"
   sodipodi:docname="icon-compass.svg">
  <defs
     id="defs4352" />
  <sodipodi:namedview
     id="base"
     pagecolor="#ffffff"
     bordercolor="#666666"
     borderopacity="1.0"
     inkscape:pageopacity="0.0"
     inkscape:pageshadow="2"
     inkscape:zoom="0.35"
     inkscape:cx="-34.71429"
     inkscape:cy="7.4285674"
     inkscape:document-units="px"
     inkscape:current-layer="layer1"
     showgrid="false"
     inkscape:window-width="450"
     inkscape:window-height="385"
     inkscape:window-x="0"
     inkscape:window-y="22"
     inkscape:window-maximized="0"
     fit-margin-top="0"
     fit-margin-left="0"
     fit-margin-right="0"
     fit-margin-bottom="0" />
  <metadata
     id="metadata4355">
    <rdf:RDF>
      <cc:Work
         rdf:about="">
        <dc:format>image/svg+xml</dc:format>
        <dc:type
           rdf:resource="http://purl.org/dc/dcmitype/StillImage" />
        <dc:title />
      </cc:Work>
    </rdf:RDF>
  </metadata>
  <g
     inkscape:label="Layer 1"
     inkscape:groupmode="layer"
     id="layer1"
     transform="translate(-409.71429,-507.79075)">
    <path
       d="m 425.71429,507.79075 c 8.83656,0 16,7.16344 16,16 0,8.83656 -7.16344,16 -16,16 -8.83656,0 -16,-7.16344 -16,-16 0,-8.83656 7.16344,-16 16,-16 z m 0,29 c 7.17969,0 13,-5.82031 13,-13 0,-7.17969 -5.82031,-13 -13,-13 -7.17969,0 -13,5.82031 -13,13 0,7.17969 5.82031,13 13,13 z m -3,-16 9,-5 2,0 0,2 -5,9 -9,5 -2,0 0,-2 5,-9 z m 3,5 c 1.10456,0 2,-0.89544 2,-2 0,-1.10456 -0.89544,-2 -2,-2 -1.10456,0 -2,0.89544 -2,2 0,1.10456 0.89544,2 2,2 z"
       id="path3962"
       inkscape:connector-curvature="0"
       style="fill:#53687c;fill-opacity:1" />
  </g>
</svg>
