<svg xmlns="http://www.w3.org/2000/svg" width="72" height="72"><g><path color="#000" overflow="visible" enable-background="accumulate" fill="none" d="M0 0h36v36h-36z"/><path color="#000" overflow="visible" enable-background="accumulate" fill="none" d="M36 0h36v36h-36z"/><path style="text-indent:0;text-align:start;line-height:normal;text-transform:none;block-progression:tb;-inkscape-font-specification:Sans" d="M41.406 26c-1.309.049-2.455 1.285-2.406 2.594.049 1.309 1.285 2.455 2.594 2.406h24.871c1.321.019 2.536-1.179 2.536-2.5s-1.215-2.519-2.536-2.5h-25.058999999999997zm0-10c-1.309.049-2.455 1.285-2.406 2.594.049 1.309 1.285 2.455 2.594 2.406h24.871c1.321.019 2.536-1.179 2.536-2.5s-1.215-2.519-2.536-2.5h-25.058999999999997zm0-10c-1.309.049-2.455 1.285-2.406 2.594.049 1.309 1.285 2.455 2.594 2.406h24.871c1.321.019 2.536-1.179 2.536-2.5s-1.215-2.519-2.536-2.5h-25.058999999999997z" color="#000" fill="#8da1b3" overflow="visible" enable-background="accumulate" font-family="Sans"/><path color="#000" overflow="visible" enable-background="accumulate" fill="none" d="M0 36h36v36h-36z"/><path color="#000" overflow="visible" enable-background="accumulate" fill="none" d="M36 36h36v36h-36z"/><path d="M41.406 62c-1.309.049-2.455 1.285-2.406 2.594.049 1.309 1.285 2.455 2.594 2.406h24.871c1.321.019 2.536-1.179 2.536-2.5s-1.215-2.519-2.536-2.5h-25.058999999999997zm0-10c-1.309.049-2.455 1.285-2.406 2.594.049 1.309 1.285 2.455 2.594 2.406h24.871c1.321.019 2.536-1.179 2.536-2.5s-1.215-2.519-2.536-2.5h-25.058999999999997zm0-10c-1.309.049-2.455 1.285-2.406 2.594.049 1.309 1.285 2.455 2.594 2.406h24.871c1.321.019 2.536-1.179 2.536-2.5s-1.215-2.519-2.536-2.5h-25.058999999999997z" style="text-indent:0;text-align:start;line-height:normal;text-transform:none;block-progression:tb;-inkscape-font-specification:Sans" color="#000" fill="#fff" overflow="visible" enable-background="accumulate" font-family="Sans"/><path d="M32.143 7.288c3.745 2.129 3.856 4.409 3.857 6.001v.239c0 .364-.314.662-.698.662h-8.448c-.384 0-.698-.298-.698-.662v-.805c0-2.011-1.923-2.333-2.985-2.503-1.061-.171-3.7-.336-5.167-.336h-.01c-1.467 0-4.105.165-5.167.336-1.061.171-2.985.492-2.985 2.503v.805c0 .364-.314.662-.698.662h-8.448c-.384 0-.698-.298-.698-.662v-.239c0-1.592.111-3.872 3.856-6.001 4.454-2.532 10.823-2.788 14.138-2.788l.005.005.005-.005c3.315 0 9.684.256 14.139 2.788zm-14.143 6.212c-1.995 0-6.148.149-8.259 2.708-2.111 2.558-7.389 15.292-2.682 15.292h21.881c4.707 0-.571-12.733-2.682-15.292-2.111-2.559-6.265-2.708-8.259-2.708zm0 13.5c-2.485 0-4.5-2.015-4.5-4.5s2.015-4.5 4.5-4.5 4.5 2.015 4.5 4.5-2.015 4.5-4.5 4.5z" fill="#53687c"/><path d="M32.143 43.288c3.745 2.129 3.856 4.409 3.857 6.001v.239c0 .364-.314.662-.698.662h-8.448c-.384 0-.698-.298-.698-.662v-.805c0-2.011-1.923-2.333-2.985-2.503-1.061-.171-3.7-.336-5.167-.336h-.01c-1.467 0-4.105.165-5.167.336-1.061.171-2.985.492-2.985 2.503v.805c0 .364-.314.662-.698.662h-8.448c-.384 0-.698-.298-.698-.662v-.239c0-1.592.111-3.872 3.856-6.001 4.454-2.532 10.823-2.788 14.138-2.788l.005.005.005-.005c3.315 0 9.684.256 14.139 2.788zm-14.143 6.212c-1.995 0-6.148.149-8.259 2.708-2.111 2.558-7.389 15.292-2.682 15.292h21.881c4.707 0-.571-12.733-2.682-15.292-2.111-2.559-6.265-2.708-8.259-2.708zm0 13.5c-2.485 0-4.5-2.015-4.5-4.5s2.015-4.5 4.5-4.5 4.5 2.015 4.5 4.5-2.015 4.5-4.5 4.5z" fill="#52687c" fill-opacity=".549"/></g></svg>