<?xml version="1.0" encoding="UTF-8" standalone="no"?>
<svg
   xmlns:dc="http://purl.org/dc/elements/1.1/"
   xmlns:cc="http://creativecommons.org/ns#"
   xmlns:rdf="http://www.w3.org/1999/02/22-rdf-syntax-ns#"
   xmlns:svg="http://www.w3.org/2000/svg"
   xmlns="http://www.w3.org/2000/svg"
   xmlns:sodipodi="http://sodipodi.sourceforge.net/DTD/sodipodi-0.dtd"
   xmlns:inkscape="http://www.inkscape.org/namespaces/inkscape"
   width="72"
   height="72"
   id="svg3336"
   version="1.1"
   inkscape:version="0.48.4 r9943 custom"
   sodipodi:docname="icon.svg">
  <metadata
     id="metadata3360">
    <rdf:RDF>
      <cc:Work
         rdf:about="">
        <dc:format>image/svg+xml</dc:format>
        <dc:type
           rdf:resource="http://purl.org/dc/dcmitype/StillImage" />
      </cc:Work>
    </rdf:RDF>
  </metadata>
  <defs
     id="defs3358" />
  <sodipodi:namedview
     pagecolor="#ffffff"
     bordercolor="#666666"
     borderopacity="1"
     objecttolerance="10"
     gridtolerance="10"
     guidetolerance="10"
     inkscape:pageopacity="0"
     inkscape:pageshadow="2"
     inkscape:window-width="640"
     inkscape:window-height="480"
     id="namedview3356"
     showgrid="false"
     inkscape:zoom="3.2777778"
     inkscape:cx="36"
     inkscape:cy="36"
     inkscape:window-x="0"
     inkscape:window-y="22"
     inkscape:window-maximized="0"
     inkscape:current-layer="g3338" />
  <g
     id="g3338">
    <path
       d="M36 18c0-9.941-8.059-18-18-18s-18 8.059-18 18 8.059 18 18 18 18-8.059 18-18zm-32.625 0c0-8.077 6.548-14.625 14.625-14.625s14.625 6.548 14.625 14.625-6.548 14.625-14.625 14.625-14.625-6.548-14.625-14.625zm18 3.375l5.625-10.125v-2.25h-2.25l-10.125 5.625-5.625 10.125v2.25h2.25l10.125-5.625zm-5.625-3.375c0-1.243 1.007-2.25 2.25-2.25s2.25 1.007 2.25 2.25-1.007 2.25-2.25 2.25-2.25-1.007-2.25-2.25z"
       fill="#53687c"
       id="path3340" />
    <path
       color="#000"
       overflow="visible"
       enable-background="accumulate"
       fill="none"
       d="M0 0h36v36h-36z"
       id="path3342" />
    <path
       color="#000"
       overflow="visible"
       enable-background="accumulate"
       fill="none"
       d="M36 0h36v36h-36z"
       id="path3344" />
    <path
       style="text-indent:0;text-align:start;line-height:normal;text-transform:none;block-progression:tb;-inkscape-font-specification:Sans"
       d="M41.406 26c-1.309.049-2.455 1.285-2.406 2.594.049 1.309 1.285 2.455 2.594 2.406h24.871c1.321.019 2.536-1.179 2.536-2.5s-1.215-2.519-2.536-2.5h-25.058999999999997zm0-10c-1.309.049-2.455 1.285-2.406 2.594.049 1.309 1.285 2.455 2.594 2.406h24.871c1.321.019 2.536-1.179 2.536-2.5s-1.215-2.519-2.536-2.5h-25.058999999999997zm0-10c-1.309.049-2.455 1.285-2.406 2.594.049 1.309 1.285 2.455 2.594 2.406h24.871c1.321.019 2.536-1.179 2.536-2.5s-1.215-2.519-2.536-2.5h-25.058999999999997z"
       color="#000"
       fill="#8da1b3"
       overflow="visible"
       enable-background="accumulate"
       font-family="Sans"
       id="path3346" />
    <path
       d="M36 54c0-9.941-8.059-18-18-18s-18 8.059-18 18 8.059 18 18 18 18-8.059 18-18zm-32.625 0c0-8.077 6.548-14.625 14.625-14.625s14.625 6.548 14.625 14.625-6.548 14.625-14.625 14.625-14.625-6.548-14.625-14.625zm18 3.375l5.625-10.125v-2.25h-2.25l-10.125 5.625-5.625 10.125v2.25h2.25l10.125-5.625zm-5.625-3.375c0-1.243 1.007-2.25 2.25-2.25s2.25 1.007 2.25 2.25-1.007 2.25-2.25 2.25-2.25-1.007-2.25-2.25z"
       fill="#0389ff"
       id="path3348"
       style="fill:#53687c;fill-opacity:0.7019608" />
    <path
       color="#000"
       overflow="visible"
       enable-background="accumulate"
       fill="none"
       d="M0 36h36v36h-36z"
       id="path3350" />
    <path
       color="#000"
       overflow="visible"
       enable-background="accumulate"
       fill="none"
       d="M36 36h36v36h-36z"
       id="path3352" />
    <path
       d="M41.406 62c-1.309.049-2.455 1.285-2.406 2.594.049 1.309 1.285 2.455 2.594 2.406h24.871c1.321.019 2.536-1.179 2.536-2.5s-1.215-2.519-2.536-2.5h-25.058999999999997zm0-10c-1.309.049-2.455 1.285-2.406 2.594.049 1.309 1.285 2.455 2.594 2.406h24.871c1.321.019 2.536-1.179 2.536-2.5s-1.215-2.519-2.536-2.5h-25.058999999999997zm0-10c-1.309.049-2.455 1.285-2.406 2.594.049 1.309 1.285 2.455 2.594 2.406h24.871c1.321.019 2.536-1.179 2.536-2.5s-1.215-2.519-2.536-2.5h-25.058999999999997z"
       style="text-indent:0;text-align:start;line-height:normal;text-transform:none;block-progression:tb;-inkscape-font-specification:Sans;fill:#cb4b16;fill-opacity:1"
       overflow="visible"
       id="path3354"
       enable-background="accumulate"
       font-family="Sans"
       fill="#0389ff"
       color="#000" />
  </g>
</svg>
