<svg xmlns="http://www.w3.org/2000/svg" width="144" height="72"><g><path color="#000" overflow="visible" enable-background="accumulate" fill="none" d="M0 0h36v36h-36z"/><path style="text-indent:0;text-align:start;line-height:normal;text-transform:none;block-progression:tb;-inkscape-font-specification:Sans" d="M5.406 26c-1.309.049-2.455 1.285-2.406 2.594.049 1.309 1.285 2.455 2.594 2.406h24.871c1.321.019 2.536-1.179 2.536-2.5s-1.215-2.519-2.536-2.5h-25.058999999999997zm0-10c-1.309.049-2.455 1.285-2.406 2.594.049 1.309 1.285 2.455 2.594 2.406h24.871c1.321.019 2.536-1.179 2.536-2.5s-1.215-2.519-2.536-2.5h-25.058999999999997zm0-10c-1.309.049-2.455 1.285-2.406 2.594.049 1.309 1.285 2.455 2.594 2.406h24.871c1.321.019 2.536-1.179 2.536-2.5s-1.215-2.519-2.536-2.5h-25.058999999999997z" color="#000" fill="#8da1b3" overflow="visible" enable-background="accumulate" font-family="Sans"/><path color="#000" overflow="visible" enable-background="accumulate" fill="none" d="M0 36h36v36h-36z"/><path d="M5.406 62c-1.309.049-2.455 1.285-2.406 2.594.049 1.309 1.285 2.455 2.594 2.406h24.871c1.321.019 2.536-1.179 2.536-2.5s-1.215-2.519-2.536-2.5h-25.058999999999997zm0-10c-1.309.049-2.455 1.285-2.406 2.594.049 1.309 1.285 2.455 2.594 2.406h24.871c1.321.019 2.536-1.179 2.536-2.5s-1.215-2.519-2.536-2.5h-25.058999999999997zm0-10c-1.309.049-2.455 1.285-2.406 2.594.049 1.309 1.285 2.455 2.594 2.406h24.871c1.321.019 2.536-1.179 2.536-2.5s-1.215-2.519-2.536-2.5h-25.058999999999997z" style="text-indent:0;text-align:start;line-height:normal;text-transform:none;block-progression:tb;-inkscape-font-specification:Sans" color="#000" fill="#fff" overflow="visible" enable-background="accumulate" font-family="Sans"/><path color="#000" overflow="visible" enable-background="accumulate" fill="none" d="M36 0h36v36h-36z"/><path color="#000" overflow="visible" enable-background="accumulate" fill="none" d="M36 36h36v36h-36z"/><path color="#000" overflow="visible" enable-background="accumulate" fill="none" d="M72 0h36v36h-36z"/><path color="#000" overflow="visible" enable-background="accumulate" fill="none" d="M72 36h36v36h-36z"/><path color="#000" overflow="visible" enable-background="accumulate" fill="none" d="M108 0h36v36h-36z"/><path color="#000" overflow="visible" enable-background="accumulate" fill="none" d="M108 36h36v36h-36z"/><path color="#000" overflow="visible" enable-background="accumulate" fill="none" d="M36 0h36v36h-36z"/><path d="M72 6.835c-1.325.587-2.748.984-4.242 1.163 1.525-.914 2.696-2.361 3.247-4.086-1.427.846-3.008 1.461-4.69 1.792-1.347-1.435-3.267-2.332-5.391-2.332-4.079 0-7.386 3.307-7.386 7.386 0 .579.065 1.143.191 1.683-6.138-.308-11.58-3.248-15.223-7.717-.636 1.091-1 2.36-1 3.713 0 2.562 1.304 4.823 3.286 6.148-1.211-.038-2.35-.371-3.345-.924l-.001.093c0 3.578 2.546 6.564 5.925 7.242-.62.169-1.272.259-1.946.259-.476 0-.939-.046-1.39-.133.94 2.934 3.667 5.07 6.899 5.129-2.528 1.981-5.712 3.162-9.173 3.162-.596 0-1.184-.035-1.762-.103 3.269 2.096 7.151 3.319 11.322 3.319 13.585 0 21.014-11.254 21.014-21.014 0-.32-.007-.639-.021-.956 1.443-1.041 2.695-2.342 3.686-3.823z" fill="#fff"/><path color="#000" overflow="visible" enable-background="accumulate" fill="none" d="M36 36h36v36h-36z"/><path d="M72 42.835c-1.325.587-2.748.984-4.242 1.163 1.525-.914 2.696-2.361 3.247-4.086-1.427.846-3.008 1.461-4.69 1.792-1.347-1.435-3.267-2.332-5.391-2.332-4.079 0-7.386 3.307-7.386 7.386 0 .579.065 1.143.191 1.683-6.138-.308-11.58-3.248-15.223-7.717-.636 1.091-1 2.36-1 3.713 0 2.562 1.304 4.823 3.286 6.148-1.211-.038-2.35-.371-3.345-.924l-.001.093c0 3.578 2.546 6.564 5.925 7.242-.62.169-1.272.259-1.946.259-.476 0-.939-.046-1.39-.133.94 2.934 3.667 5.07 6.899 5.129-2.528 1.981-5.712 3.162-9.173 3.162-.596 0-1.184-.035-1.762-.103 3.269 2.096 7.151 3.319 11.322 3.319 13.585 0 21.014-11.254 21.014-21.014 0-.32-.007-.639-.021-.956 1.443-1.041 2.695-2.342 3.686-3.823z" fill="#bcbcc9"/><path d="M127.655 2.792h-9.42c-4.223 0-8.197 3.199-8.197 6.905 0 3.787 2.879 6.844 7.175 6.844.299 0 .589-.006.873-.026-.279.534-.478 1.135-.478 1.759 0 1.053.566 1.906 1.282 2.602l-1.633.016c-5.231 0-9.257 3.331-9.257 6.786 0 3.402 4.414 5.531 9.645 5.531 5.963 0 9.257-3.384 9.257-6.786 0-2.728-.805-4.362-3.294-6.122-.851-.603-2.48-2.068-2.48-2.93 0-1.01.288-1.507 1.808-2.695 1.558-1.217 2.66-2.929 2.66-4.919 0-2.37-1.055-4.679-3.037-5.441h2.987l2.108-1.524zm-3.29 23.043c.075.315.115.64.115.971 0 2.749-1.772 4.898-6.855 4.898-3.616 0-6.227-2.289-6.227-5.038 0-2.694 3.239-4.937 6.854-4.898.844.009 1.63.145 2.344.376 1.963 1.365 3.371 2.136 3.768 3.692zm-5.789-10.254c-2.427-.073-4.733-2.715-5.152-5.901-.419-3.187 1.208-5.626 3.635-5.554 2.426.073 4.733 2.63 5.152 5.817.419 3.187-1.209 5.711-3.635 5.639zm18.674-6.039v-6.75h-2.25v6.75h-6.75v2.25h6.75v6.75h2.25v-6.75h6.75v-2.25z" fill="#fff"/><path color="#000" overflow="visible" enable-background="accumulate" fill="none" d="M72 36h36v36h-36z"/><path d="M127.655 38.792h-9.42c-4.223 0-8.197 3.199-8.197 6.905 0 3.787 2.879 6.844 7.175 6.844.299 0 .589-.006.873-.026-.279.534-.478 1.135-.478 1.759 0 1.053.566 1.906 1.282 2.602l-1.633.016c-5.231 0-9.257 3.331-9.257 6.786 0 3.402 4.414 5.531 9.645 5.531 5.963 0 9.257-3.384 9.257-6.786 0-2.728-.805-4.362-3.294-6.122-.851-.603-2.48-2.068-2.48-2.93 0-1.01.288-1.507 1.808-2.695 1.558-1.217 2.66-2.929 2.66-4.919 0-2.37-1.055-4.679-3.037-5.441h2.987l2.108-1.524zm-3.29 23.043c.075.315.115.64.115.971 0 2.749-1.772 4.898-6.855 4.898-3.616 0-6.227-2.289-6.227-5.038 0-2.694 3.239-4.937 6.854-4.898.844.009 1.63.145 2.344.376 1.963 1.365 3.371 2.136 3.768 3.692zm-5.789-10.254c-2.427-.073-4.733-2.715-5.152-5.901-.419-3.187 1.208-5.626 3.635-5.554 2.426.073 4.733 2.63 5.152 5.817.419 3.187-1.209 5.711-3.635 5.639zm18.674-6.039v-6.75h-2.25v6.75h-6.75v2.25h6.75v6.75h2.25v-6.75h6.75v-2.25z" fill="#bcbcc9"/><path d="M102 0h-24c-3.3 0-6.001 2.7-6.001 6.001v23.999c0 3.303 2.7 6.001 6.001 6.001h24c3.3 0 6-2.698 6-6.001v-23.998c0-3.3-2.699-6.001-6-6.001zm.606 18h-5.857v15.75h-6.75v-15.75h-3.253v-5.153h3.253v-3.346c0-4.547 1.961-7.251 7.308-7.251h6.161v5.575h-5.032c-1.494-.002-1.679.779-1.679 2.233l-.008 2.79h6.75l-.893 5.153z" fill="#fff"/><path d="M102 36h-24c-3.3 0-6.001 2.7-6.001 6.001v23.999c0 3.303 2.7 6.001 6.001 6.001h24c3.3 0 6-2.698 6-6.001v-23.998c0-3.3-2.699-6.001-6-6.001zm.606 18h-5.857v15.75h-6.75v-15.75h-3.253v-5.153h3.253v-3.346c0-4.547 1.961-7.251 7.308-7.251h6.161v5.575h-5.032c-1.494-.002-1.679.779-1.679 2.233l-.008 2.79h6.75l-.893 5.153z" fill="#bcbcc9"/></g></svg>