<?xml version="1.0" encoding="UTF-8" standalone="no"?>
<!-- Created with Inkscape (http://www.inkscape.org/) -->

<svg
   xmlns:dc="http://purl.org/dc/elements/1.1/"
   xmlns:cc="http://creativecommons.org/ns#"
   xmlns:rdf="http://www.w3.org/1999/02/22-rdf-syntax-ns#"
   xmlns:svg="http://www.w3.org/2000/svg"
   xmlns="http://www.w3.org/2000/svg"
   xmlns:sodipodi="http://sodipodi.sourceforge.net/DTD/sodipodi-0.dtd"
   xmlns:inkscape="http://www.inkscape.org/namespaces/inkscape"
   width="25.999409"
   height="18.589195"
   id="svg4208"
   version="1.1"
   inkscape:version="0.48.4 r9943 custom"
   sodipodi:docname="icon-menu.svg">
  <defs
     id="defs4210" />
  <sodipodi:namedview
     id="base"
     pagecolor="#ffffff"
     bordercolor="#666666"
     borderopacity="1.0"
     inkscape:pageopacity="0.0"
     inkscape:pageshadow="2"
     inkscape:zoom="0.35"
     inkscape:cx="12.999706"
     inkscape:cy="9.2945928"
     inkscape:document-units="px"
     inkscape:current-layer="layer1"
     showgrid="false"
     inkscape:window-width="450"
     inkscape:window-height="385"
     inkscape:window-x="0"
     inkscape:window-y="22"
     inkscape:window-maximized="0"
     fit-margin-top="0"
     fit-margin-left="0"
     fit-margin-right="0"
     fit-margin-bottom="0" />
  <metadata
     id="metadata4213">
    <rdf:RDF>
      <cc:Work
         rdf:about="">
        <dc:format>image/svg+xml</dc:format>
        <dc:type
           rdf:resource="http://purl.org/dc/dcmitype/StillImage" />
        <dc:title></dc:title>
      </cc:Work>
    </rdf:RDF>
  </metadata>
  <g
     inkscape:label="Layer 1"
     inkscape:groupmode="layer"
     id="layer1"
     transform="translate(-362.00029,-523.06758)">
    <path
       inkscape:connector-curvature="0"
       id="path3676"
       d="m 386.143,530.50517 c -7.49184,0.006 -14.98433,-0.0128 -22.47577,0.01 -1.4238,0.0769 -2.20266,1.97429 -1.24299,3.02922 0.7596,0.95296 2.04098,0.6122 3.09419,0.6762 6.93804,-0.006 13.87671,0.0128 20.81434,-0.01 1.42353,-0.0774 2.20277,-1.9749 1.24299,-3.0298 -0.34584,-0.42377 -0.88539,-0.67953 -1.43276,-0.67561 z m -22.286,-3.714 c 7.49184,-0.006 14.98433,0.0128 22.47577,-0.01 1.423,-0.0772 2.20291,-1.97371 1.24299,-3.02838 -0.75975,-0.95272 -2.04099,-0.61203 -3.09419,-0.67602 -6.93804,0.006 -13.87669,-0.0125 -20.81434,0.009 -1.42369,0.0762 -2.20266,1.97372 -1.24299,3.02838 0.34604,0.42411 0.88495,0.68 1.43276,0.6762 z m 22.286,11.142 c -7.49184,0.006 -14.98433,-0.0128 -22.47577,0.01 -1.42321,0.0772 -2.20287,1.97404 -1.24299,3.02881 0.75994,0.95232 2.04104,0.61156 3.09419,0.6756 6.93804,-0.006 13.87671,0.0128 20.81434,-0.01 1.42334,-0.0768 2.20282,-1.97375 1.24299,-3.0284 -0.34582,-0.42383 -0.8853,-0.67994 -1.43276,-0.67602 z"
       style="fill:#8f97a0;fill-opacity:1;display:inline" />
  </g>
</svg>
