<svg xmlns="http://www.w3.org/2000/svg" width="144" height="72"><g><path color="#000" overflow="visible" enable-background="accumulate" fill="none" d="M0 0h36v36h-36z"/><path style="text-indent:0;text-align:start;line-height:normal;text-transform:none;block-progression:tb;-inkscape-font-specification:Sans" d="M5.406 26c-1.309.049-2.455 1.285-2.406 2.594.049 1.309 1.285 2.455 2.594 2.406h24.871c1.321.019 2.536-1.179 2.536-2.5s-1.215-2.519-2.536-2.5h-25.058999999999997zm0-10c-1.309.049-2.455 1.285-2.406 2.594.049 1.309 1.285 2.455 2.594 2.406h24.871c1.321.019 2.536-1.179 2.536-2.5s-1.215-2.519-2.536-2.5h-25.058999999999997zm0-10c-1.309.049-2.455 1.285-2.406 2.594.049 1.309 1.285 2.455 2.594 2.406h24.871c1.321.019 2.536-1.179 2.536-2.5s-1.215-2.519-2.536-2.5h-25.058999999999997z" color="#000" fill="#8da1b3" overflow="visible" enable-background="accumulate" font-family="Sans"/><path color="#000" overflow="visible" enable-background="accumulate" fill="none" d="M0 36h36v36h-36z"/><path d="M5.406 62c-1.309.049-2.455 1.285-2.406 2.594.049 1.309 1.285 2.455 2.594 2.406h24.871c1.321.019 2.536-1.179 2.536-2.5s-1.215-2.519-2.536-2.5h-25.058999999999997zm0-10c-1.309.049-2.455 1.285-2.406 2.594.049 1.309 1.285 2.455 2.594 2.406h24.871c1.321.019 2.536-1.179 2.536-2.5s-1.215-2.519-2.536-2.5h-25.058999999999997zm0-10c-1.309.049-2.455 1.285-2.406 2.594.049 1.309 1.285 2.455 2.594 2.406h24.871c1.321.019 2.536-1.179 2.536-2.5s-1.215-2.519-2.536-2.5h-25.058999999999997z" style="text-indent:0;text-align:start;line-height:normal;text-transform:none;block-progression:tb;-inkscape-font-specification:Sans" color="#000" fill="#fff" overflow="visible" enable-background="accumulate" font-family="Sans"/><path color="#000" overflow="visible" enable-background="accumulate" fill="none" d="M36 0h36v36h-36z"/><path color="#000" overflow="visible" enable-background="accumulate" fill="none" d="M36 36h36v36h-36z"/><path color="#000" overflow="visible" enable-background="accumulate" fill="none" d="M72 0h36v36h-36z"/><path color="#000" overflow="visible" enable-background="accumulate" fill="none" d="M72 36h36v36h-36z"/><path color="#000" overflow="visible" enable-background="accumulate" fill="none" d="M108 0h36v36h-36z"/><path color="#000" overflow="visible" enable-background="accumulate" fill="none" d="M108 36h36v36h-36z"/><path d="M66 0h-24c-3.3 0-6.001 2.7-6.001 6.001v23.998c0 3.303 2.7 6.001 6.001 6.001h24c3.3 0 6-2.698 6-6.001v-23.998c0-3.3-2.699-6.001-6-6.001zm-.538 12.018c.011.258.017.518.017.779 0 7.953-5.949 17.123-16.828 17.123-3.34 0-6.449-.997-9.066-2.704.463.056.933.084 1.411.084 2.771 0 5.321-.962 7.345-2.576-2.588-.049-4.772-1.789-5.525-4.179.361.07.732.108 1.113.108.539 0 1.062-.074 1.558-.211-2.706-.553-4.744-2.985-4.744-5.901l.001-.076c.797.451 1.709.721 2.679.753-1.587-1.079-2.631-2.921-2.631-5.009 0-1.103.292-2.137.801-3.025 2.917 3.641 7.275 6.037 12.191 6.288-.101-.441-.153-.9-.153-1.372 0-3.324 2.648-6.018 5.914-6.018 1.701 0 3.239.731 4.317 1.9 1.347-.27 2.613-.771 3.756-1.46-.442 1.405-1.379 2.585-2.6 3.33 1.196-.145 2.336-.469 3.397-.948-.793 1.207-1.795 2.267-2.951 3.115z" fill="#fff"/><path color="#000" overflow="visible" enable-background="accumulate" fill="none" d="M36 0h36v36h-36z"/><path d="M66 36h-24c-3.3 0-6.001 2.7-6.001 6.001v23.998c0 3.303 2.7 6.001 6.001 6.001h24c3.3 0 6-2.698 6-6.001v-23.998c0-3.3-2.699-6.001-6-6.001zm-.538 12.018c.011.258.017.518.017.779 0 7.953-5.949 17.123-16.828 17.123-3.34 0-6.449-.997-9.066-2.704.463.056.933.084 1.411.084 2.771 0 5.321-.962 7.345-2.576-2.588-.049-4.772-1.789-5.525-4.179.361.07.732.108 1.113.108.539 0 1.062-.074 1.558-.211-2.706-.553-4.744-2.985-4.744-5.901l.001-.076c.797.451 1.709.721 2.679.753-1.587-1.079-2.631-2.921-2.631-5.009 0-1.103.292-2.137.801-3.025 2.917 3.641 7.275 6.037 12.191 6.288-.101-.441-.153-.9-.153-1.372 0-3.324 2.648-6.018 5.914-6.018 1.701 0 3.239.731 4.317 1.9 1.347-.27 2.613-.771 3.756-1.46-.442 1.405-1.379 2.585-2.6 3.33 1.196-.145 2.336-.469 3.397-.948-.793 1.207-1.795 2.267-2.951 3.115z" fill="#bcbcc9"/><path d="M102 0h-24c-3.3 0-6.001 2.7-6.001 6.001v23.999c0 3.303 2.7 6.001 6.001 6.001h24c3.3 0 6-2.698 6-6.001v-23.998c0-3.3-2.699-6.001-6-6.001zm.606 18h-5.857v15.75h-6.75v-15.75h-3.253v-5.153h3.253v-3.346c0-4.547 1.961-7.251 7.308-7.251h6.161v5.575h-5.032c-1.494-.002-1.679.779-1.679 2.233l-.008 2.79h6.75l-.893 5.153z" fill="#fff"/><path d="M102 36h-24c-3.3 0-6.001 2.7-6.001 6.001v23.999c0 3.303 2.7 6.001 6.001 6.001h24c3.3 0 6-2.698 6-6.001v-23.998c0-3.3-2.699-6.001-6-6.001zm.606 18h-5.857v15.75h-6.75v-15.75h-3.253v-5.153h3.253v-3.346c0-4.547 1.961-7.251 7.308-7.251h6.161v5.575h-5.032c-1.494-.002-1.679.779-1.679 2.233l-.008 2.79h6.75l-.893 5.153z" fill="#bcbcc9"/><path d="M108.028 30.574l-.021-.268.021.268zm8.265-10.706c3.235.096 5.405-3.259 4.847-7.495-.559-4.236-3.635-7.635-6.87-7.732-3.235-.096-5.405 3.146-4.846 7.383.558 4.235 3.633 7.748 6.869 7.844zm27.706-10.868v-2.999c0-3.3-2.699-6.001-6-6.001h-24c-3.244 0-5.907 2.61-5.996 5.833 2.052-1.807 4.898-3.316 7.835-3.316h12.559l-2.811 2.377h-3.982c2.641 1.013 4.048 4.082 4.048 7.232 0 2.645-1.47 4.92-3.547 6.538-2.027 1.579-2.411 2.24-2.411 3.582 0 1.145 2.171 3.094 3.306 3.895 3.318 2.339 4.392 4.511 4.392 8.137 0 .578-.072 1.154-.213 1.721h10.819c3.3 0 6-2.698 6-6.001v-18.749h-6.75v6.75h-2.25v-6.75h-6.75v-2.25h6.75v-6.75h2.25v6.75h6.75zm-29.465 17.927l2.177-.021c-.954-.926-1.71-2.06-1.71-3.459 0-.83.266-1.629.638-2.339-.379.027-.766.035-1.165.035-2.614 0-4.834-.846-6.476-2.245v9.456c1.879-.892 4.109-1.428 6.535-1.428zm-6.415 4.265c-.039-.192-.069-.387-.089-.585.02.198.05.393.089.585zm15.892 2.306c-.529-2.067-2.407-3.092-5.023-4.907-.952-.307-2-.488-3.125-.499-3.151-.034-6.086 1.228-7.742 3.107.56 2.732 2.989 4.801 5.879 4.801h10.07c.064-.391.095-.796.095-1.21 0-.441-.054-.872-.154-1.291z" fill="#fff"/><path d="M108.028 66.574l-.021-.268.021.268zm8.265-10.706c3.235.096 5.405-3.259 4.847-7.495-.559-4.236-3.635-7.635-6.87-7.732-3.235-.096-5.405 3.146-4.846 7.383.558 4.235 3.633 7.748 6.869 7.844zm27.706-10.868v-2.999c0-3.3-2.699-6.001-6-6.001h-24c-3.244 0-5.907 2.61-5.996 5.833 2.052-1.807 4.898-3.316 7.835-3.316h12.559l-2.811 2.377h-3.982c2.641 1.013 4.048 4.082 4.048 7.232 0 2.645-1.47 4.92-3.547 6.538-2.027 1.579-2.411 2.24-2.411 3.582 0 1.145 2.171 3.094 3.306 3.895 3.318 2.339 4.392 4.511 4.392 8.137 0 .578-.072 1.154-.213 1.721h10.819c3.3 0 6-2.698 6-6.001v-18.749h-6.75v6.75h-2.25v-6.75h-6.75v-2.25h6.75v-6.75h2.25v6.75h6.75zm-29.465 17.927l2.177-.021c-.954-.926-1.71-2.06-1.71-3.459 0-.83.266-1.629.638-2.339-.379.027-.766.035-1.165.035-2.614 0-4.834-.846-6.476-2.245v9.456c1.879-.892 4.109-1.428 6.535-1.428zm-6.415 4.265c-.039-.192-.069-.387-.089-.585.02.198.05.393.089.585zm15.892 2.306c-.529-2.067-2.407-3.092-5.023-4.907-.952-.307-2-.488-3.125-.499-3.151-.034-6.086 1.228-7.742 3.107.56 2.732 2.989 4.801 5.879 4.801h10.07c.064-.391.095-.796.095-1.21 0-.441-.054-.872-.154-1.291z" fill="#bcbcc9"/></g></svg>