<?xml-stylesheet type="text/css" href="../css/styles.css" ?><svg xmlns="http://www.w3.org/2000/svg" width="804" height="137.999" preserveAspectRatio="xMinYMin meet"><g letter-spacing="0" word-spacing="0" fill="#fff"><path style="text-align:start;line-height:109.00000334%;-inkscape-font-specification:Museo 500" d="M163.41 45.433c0-7.555 2.541-13.874 7.622-18.956 5.148-5.082 11.668-7.622 19.558-7.622 3.744 0 7.188.635 10.33 1.906 3.209 1.204 5.483 2.441 6.82 3.711l1.906 1.805-4.614 6.82c-.401-.401-1.003-.936-1.805-1.605-.736-.669-2.34-1.538-4.814-2.608-2.407-1.07-4.881-1.605-7.422-1.605-5.082 0-9.294 1.705-12.637 5.115s-5.015 7.723-5.015 12.938c0 5.215 1.672 9.561 5.015 13.038 3.41 3.477 7.723 5.215 12.938 5.215 2.808 0 5.516-.568 8.124-1.705 2.608-1.137 4.513-2.273 5.717-3.41l1.805-1.705 3.911 7.121-.903.903c-.334.334-1.137.97-2.407 1.906-1.27.936-2.641 1.772-4.112 2.507-1.471.669-3.377 1.304-5.717 1.906-2.273.602-4.647.903-7.121.903-7.957 0-14.476-2.507-19.558-7.522-5.082-5.015-7.622-11.367-7.622-19.056m58.459 25.375v-50.749h9.428v8.826l-.201 3.811h.201c1.204-3.878 3.209-7.054 6.018-9.528 2.875-2.474 6.218-3.711 10.029-3.711l2.507.201v9.628c-.869-.201-1.805-.301-2.808-.301-3.143 0-6.018 1.07-8.625 3.209-2.608 2.14-4.48 5.048-5.617 8.726-.802 2.608-1.204 5.65-1.204 9.127v20.761h-9.729m44.039-31.292h27.08c-.134-4.212-1.371-7.422-3.711-9.628-2.273-2.206-5.115-3.31-8.525-3.31-3.811 0-7.088 1.137-9.829 3.41-2.675 2.273-4.346 5.449-5.015 9.528m-10.33 5.917c0-7.957 2.374-14.376 7.121-19.257 4.814-4.881 10.899-7.321 18.254-7.322 6.887 0 12.269 2.24 16.147 6.72 3.878 4.48 5.817 10.163 5.817 17.05l-.301 4.212h-37.009c.267 5.349 2.039 9.495 5.316 12.437 3.343 2.875 7.388 4.313 12.136 4.313 2.608 0 5.148-.501 7.622-1.504 2.541-1.003 4.413-1.972 5.617-2.909l1.805-1.504 4.012 7.121c-.535.535-1.337 1.204-2.407 2.006-1.07.802-3.31 1.872-6.72 3.209-3.41 1.337-6.92 2.006-10.531 2.006-7.89 0-14.342-2.507-19.357-7.522-5.015-5.082-7.522-11.434-7.522-19.056m65.963-5.917h27.08c-.134-4.212-1.371-7.422-3.711-9.628-2.273-2.206-5.115-3.31-8.525-3.31-3.811 0-7.088 1.137-9.829 3.41-2.675 2.273-4.346 5.449-5.015 9.528m-10.33 5.917c0-7.957 2.374-14.376 7.121-19.257 4.814-4.881 10.899-7.321 18.254-7.322 6.887 0 12.269 2.24 16.147 6.72 3.878 4.48 5.817 10.163 5.817 17.05l-.301 4.212h-37.009c.267 5.349 2.039 9.495 5.316 12.437 3.343 2.875 7.388 4.313 12.136 4.313 2.608 0 5.148-.501 7.622-1.504 2.541-1.003 4.413-1.972 5.617-2.909l1.805-1.504 4.012 7.121c-.535.535-1.337 1.204-2.407 2.006-1.07.802-3.31 1.872-6.72 3.209-3.41 1.337-6.92 2.006-10.531 2.006-7.89 0-14.342-2.507-19.357-7.522-5.015-5.082-7.522-11.434-7.522-19.056m59.143 25.375v-70.808h9.729v38.714h7.121l13.841-18.655h11.032l-16.85 22.366v.201l18.755 28.183h-11.333l-15.245-23.87h-7.322v23.87h-9.729m74.941-25.375c0-7.556 2.541-13.874 7.622-18.956 5.148-5.082 11.668-7.622 19.558-7.622 3.744 0 7.188.635 10.33 1.906 3.209 1.204 5.483 2.441 6.82 3.711l1.906 1.805-4.614 6.82c-.401-.401-1.003-.936-1.805-1.605-.736-.669-2.34-1.538-4.814-2.608-2.407-1.07-4.881-1.605-7.422-1.605-5.082 0-9.294 1.705-12.637 5.115s-5.015 7.723-5.015 12.938c0 5.215 1.672 9.561 5.015 13.038 3.41 3.477 7.723 5.215 12.938 5.215 2.808 0 5.516-.568 8.124-1.705 2.608-1.137 4.513-2.273 5.717-3.41l1.805-1.705 3.912 7.121-.903.903c-.334.334-1.137.97-2.407 1.906-1.27.936-2.641 1.772-4.112 2.507-1.471.669-3.377 1.304-5.717 1.906-2.273.602-4.647.903-7.121.903-7.957 0-14.476-2.507-19.558-7.522-5.082-5.015-7.622-11.367-7.622-19.056m58.459 25.375v-50.749h9.428v8.826l-.201 3.811h.201c1.204-3.878 3.209-7.054 6.018-9.528 2.875-2.474 6.218-3.711 10.029-3.711l2.507.201v9.628c-.869-.201-1.805-.301-2.808-.301-3.143 0-6.018 1.07-8.625 3.209-2.608 2.14-4.48 5.048-5.617 8.726-.802 2.608-1.204 5.65-1.204 9.127v20.761h-9.729m44.039-31.292h27.08c-.134-4.212-1.371-7.422-3.711-9.628-2.273-2.206-5.115-3.31-8.525-3.31-3.811 0-7.088 1.137-9.829 3.41-2.675 2.273-4.346 5.449-5.015 9.528m-10.33 5.917c0-7.957 2.374-14.376 7.121-19.257 4.814-4.881 10.899-7.321 18.254-7.322 6.887 0 12.269 2.24 16.147 6.72 3.878 4.48 5.817 10.163 5.817 17.05l-.301 4.212h-37.009c.267 5.349 2.039 9.495 5.316 12.437 3.343 2.875 7.388 4.313 12.136 4.313 2.608 0 5.148-.501 7.622-1.504 2.541-1.003 4.413-1.972 5.617-2.909l1.805-1.504 4.012 7.121c-.535.535-1.337 1.204-2.407 2.006-1.07.802-3.31 1.872-6.72 3.209-3.41 1.337-6.92 2.006-10.531 2.006-7.89 0-14.342-2.507-19.357-7.522-5.015-5.082-7.522-11.434-7.522-19.056m64.859 10.631c0 2.206.836 4.112 2.507 5.717 1.672 1.605 4.012 2.407 7.021 2.407 3.878 0 7.087-1.672 9.628-5.015 2.608-3.41 3.911-7.121 3.912-11.133v-1.605h-2.507c-13.707 0-20.56 3.209-20.56 9.628m-9.829.501c0-11.634 10.197-17.451 30.59-17.451h2.206v-.903c0-7.422-3.711-11.133-11.133-11.133-2.34 0-4.68.401-7.021 1.204-2.34.802-4.112 1.605-5.316 2.407l-1.805 1.304-4.012-7.121c.535-.468 1.304-1.036 2.307-1.705 1.07-.669 3.243-1.538 6.519-2.608 3.276-1.137 6.653-1.705 10.13-1.705 6.419 0 11.367 1.705 14.844 5.115 3.477 3.41 5.215 8.324 5.215 14.743v32.094h-9.027v-4.814l.201-4.012h-.201c-.134.267-.334.635-.602 1.103-.201.468-.769 1.27-1.705 2.407-.869 1.137-1.872 2.14-3.009 3.009-1.07.869-2.608 1.672-4.614 2.407-1.939.735-4.045 1.103-6.319 1.103-4.68 0-8.726-1.371-12.136-4.112-3.41-2.741-5.115-6.519-5.115-11.333m58.716-4.313v-23.67h-6.619v-7.823h6.92v-14.643h9.428v14.643h12.236v7.823h-12.236v22.566c0 1.939.268 3.644.802 5.115.535 1.404 1.17 2.507 1.906 3.31.802.802 1.705 1.438 2.708 1.906 1.07.468 2.006.769 2.808.903.869.134 1.738.201 2.608.201l2.307-.201v8.625c-.936.134-2.073.201-3.41.201-1.605 0-3.143-.1-4.614-.301-1.471-.201-3.143-.702-5.015-1.504-1.872-.802-3.51-1.839-4.914-3.109-1.337-1.337-2.507-3.209-3.51-5.617-.936-2.407-1.404-5.215-1.404-8.425m33.741 18.555v-50.749h9.729v50.749h-9.729m-.1-60.879v-9.929h9.829v9.929h-9.829m37.014 60.879l-18.956-50.749h10.33l12.336 34.301c.267.802.535 1.805.802 3.009.267 1.137.501 2.073.702 2.808l.201 1.103h.201l.201-1.103c.201-.735.435-1.672.702-2.808.334-1.204.635-2.206.903-3.009l12.336-34.301h10.23l-18.755 50.749h-11.233m45.128-31.292h27.08c-.134-4.212-1.371-7.422-3.711-9.628-2.273-2.206-5.115-3.31-8.525-3.31-3.811 0-7.088 1.137-9.829 3.41-2.675 2.273-4.346 5.449-5.015 9.528m-10.33 5.917c0-7.957 2.374-14.376 7.121-19.257 4.814-4.881 10.899-7.321 18.254-7.322 6.887 0 12.269 2.24 16.147 6.72 3.878 4.48 5.817 10.163 5.817 17.05l-.301 4.212h-37.009c.268 5.349 2.039 9.495 5.316 12.437 3.343 2.875 7.388 4.313 12.136 4.313 2.608 0 5.148-.501 7.622-1.504 2.541-1.003 4.413-1.972 5.617-2.909l1.805-1.504 4.012 7.121c-.535.535-1.337 1.204-2.407 2.006-1.07.802-3.31 1.872-6.72 3.209-3.41 1.337-6.92 2.006-10.531 2.006-7.89 0-14.342-2.507-19.357-7.522-5.015-5.082-7.522-11.434-7.522-19.056" font-size="16.027" font-family="Museo 500"/><path style="text-align:start;line-height:109.00000334%;-inkscape-font-specification:Museo 500" d="M0 0v137.999h138v-137.999zm12.091 10.796h113.664l-19.086 19.118c-9.677-9.247-22.876-14.978-37.509-14.978-14.656 0-27.92 5.792-37.667 15.199zm115.118 1.074v113.822l-56.911-56.816zm-116.413.19l19.402 19.37c-9.444 9.753-15.263 23.042-15.263 37.73 0 14.595 5.735 27.805 15.073 37.54l-19.213 19.276zm58.365 12.766c11.753 0 22.501 4.696 30.494 12.134l-10.491 10.523c-5.259-4.85-12.354-7.868-20.003-7.868-7.801 0-14.906 3.041-20.192 7.995l-10.46-10.46c7.956-7.619 18.737-12.324 30.652-12.324zm-31.947 13.619l10.46 10.428c-4.999 5.294-8.058 12.445-8.058 20.287 0 7.735 2.989 14.762 7.868 20.034l-10.46 10.491c-7.546-7.943-12.197-18.675-12.197-30.525 0-11.947 4.732-22.753 12.387-30.715zm31.789 11.06c5.066 0 9.6 1.833 13.145 4.993l-13.114 13.114-13.114-13.082c3.481-3.119 8.064-5.024 13.082-5.024zm-14.378 6.32l13.114 13.082-13.303 13.335c-3.131-3.483-5.088-8.053-5.088-13.082 0-5.142 2.02-9.825 5.277-13.335zm14.409 14.346l13.398 13.398c-3.467 3.186-8.244 5.245-13.43 5.245-5.134 0-9.795-2.029-13.303-5.277zm-20.287 20.319c5.309 5.081 12.499 8.216 20.413 8.216 7.94 0 15.009-3.141 20.287-8.153l10.523 10.522c-8.017 7.746-18.753 12.419-30.81 12.419-12.02 0-22.897-4.775-30.873-12.514zm-17.475 17.506c9.766 9.527 23.127 15.389 37.888 15.389 14.654 0 27.975-5.889 37.825-15.326l19.181 19.15h-114.075z" font-size="16.027" font-family="Museo 500"/><g style="text-align:center;line-height:125%;-inkscape-font-specification:Sans" font-size="45.5" text-anchor="middle" font-family="MuseoSans-500"><path d="M164.008 124.384l2.139-3.139c.182.212.455.47.819.773.364.273 1.122.667 2.275 1.183 1.153.485 2.32.728 3.503.728 1.031 0 1.926-.258 2.684-.773.758-.516 1.137-1.213 1.137-2.093 0-.758-.41-1.426-1.228-2.002-.819-.576-1.805-1.077-2.958-1.502-1.153-.455-2.305-.94-3.458-1.456-1.153-.546-2.139-1.319-2.958-2.321-.819-1.001-1.228-2.199-1.228-3.595 0-2.032.789-3.625 2.366-4.777 1.577-1.183 3.564-1.774 5.96-1.774 1.486 0 2.851.212 4.095.637 1.244.425 2.108.849 2.594 1.274l.728.637-1.774 3.321c-.152-.152-.379-.334-.682-.546-.273-.243-.91-.546-1.911-.91-.971-.394-2.002-.591-3.094-.592-1.062 0-1.957.243-2.684.728-.728.455-1.092 1.153-1.092 2.093 0 .758.409 1.411 1.228 1.956.819.546 1.805 1.047 2.958 1.502 1.153.425 2.305.91 3.458 1.456 1.153.516 2.138 1.274 2.958 2.275.819 1.001 1.228 2.199 1.228 3.595 0 1.941-.774 3.549-2.321 4.823-1.517 1.244-3.519 1.865-6.006 1.865-1.668 0-3.231-.273-4.686-.819-1.456-.576-2.487-1.153-3.094-1.729l-.956-.819" style="-inkscape-font-specification:MuseoSans-500"/><path d="M187.18 118.788v-10.738h-3.003v-3.549h3.139v-6.643h4.277v6.643h5.551v3.549h-5.551v10.238c0 .88.121 1.653.364 2.321.243.637.531 1.138.865 1.502.364.364.773.652 1.228.865.485.212.91.349 1.274.409.394.061.789.091 1.183.091l1.046-.091v3.913c-.425.061-.94.091-1.547.091-.728 0-1.426-.045-2.093-.137-.667-.091-1.426-.319-2.275-.682-.849-.364-1.593-.834-2.229-1.411-.607-.607-1.138-1.456-1.593-2.548-.425-1.092-.637-2.366-.637-3.822" style="-inkscape-font-specification:MuseoSans-500"/><path d="M202.168 118.924v-14.742h4.413v13.741c0 1.85.288 3.276.865 4.277.607.971 1.759 1.456 3.458 1.456 2.245 0 4.049-.849 5.415-2.548 1.365-1.699 2.047-3.746 2.047-6.143v-10.784h4.413v23.023h-4.277v-3.049l.091-1.683h-.091c-.576 1.335-1.623 2.548-3.139 3.64-1.486 1.092-3.261 1.638-5.324 1.638-5.248 0-7.872-2.942-7.872-8.827" style="-inkscape-font-specification:MuseoSans-500"/><path d="M228.179 115.694c0-3.64.971-6.552 2.912-8.736 1.941-2.214 4.444-3.321 7.508-3.321 1.001 0 1.926.121 2.776.364.849.243 1.517.546 2.002.91.516.364.955.728 1.319 1.092.394.364.667.667.819.91l.182.364h.091c-.061-.455-.091-.971-.091-1.547v-10.647h4.413v32.123h-4.186v-2.184l.045-1.547h-.091c-.061.121-.152.273-.273.455-.091.182-.349.531-.773 1.046-.394.485-.865.925-1.411 1.319-.516.364-1.229.698-2.139 1.001-.91.303-1.896.455-2.958.455-3.094 0-5.566-1.107-7.417-3.321-1.82-2.214-2.73-5.126-2.73-8.736m4.505 0c0 2.487.592 4.489 1.774 6.006 1.213 1.486 2.791 2.23 4.732 2.229 1.881 0 3.458-.682 4.732-2.047 1.274-1.395 1.911-3.473 1.911-6.234 0-2.214-.576-4.125-1.729-5.733-1.122-1.638-2.715-2.457-4.777-2.457-1.881 0-3.458.743-4.732 2.229-1.274 1.456-1.911 3.458-1.911 6.006" style="-inkscape-font-specification:MuseoSans-500"/><path d="M257.006 99.587v-4.505h4.459v4.505h-4.459m.045 27.619v-23.023h4.413v23.023h-4.413" style="-inkscape-font-specification:MuseoSans-500"/><path d="M270.248 124.293c-2.396-2.305-3.595-5.187-3.595-8.645 0-3.458 1.198-6.324 3.595-8.6 2.396-2.275 5.339-3.412 8.827-3.413 3.488 0 6.431 1.138 8.827 3.413s3.594 5.142 3.595 8.6c0 3.458-1.213 6.34-3.64 8.645-2.396 2.305-5.324 3.458-8.781 3.458-3.458 0-6.4-1.153-8.827-3.458m3.231-14.514c-1.547 1.547-2.321 3.504-2.321 5.87s.773 4.338 2.321 5.915c1.547 1.577 3.412 2.366 5.596 2.366 2.214 0 4.08-.773 5.596-2.321 1.547-1.577 2.32-3.564 2.321-5.96 0-2.366-.774-4.322-2.321-5.87-1.517-1.547-3.382-2.32-5.596-2.321-2.184 0-4.05.774-5.596 2.321" style="-inkscape-font-specification:MuseoSans-500"/><path d="M294.821 124.384l2.139-3.139c.182.212.455.47.819.773.364.273 1.122.667 2.275 1.183 1.153.485 2.32.728 3.503.728 1.031 0 1.926-.258 2.684-.773.758-.516 1.137-1.213 1.137-2.093 0-.758-.41-1.426-1.228-2.002-.819-.576-1.805-1.077-2.958-1.502-1.153-.455-2.305-.94-3.458-1.456-1.153-.546-2.139-1.319-2.958-2.321-.819-1.001-1.228-2.199-1.228-3.595 0-2.032.789-3.625 2.366-4.777 1.577-1.183 3.564-1.774 5.96-1.774 1.486 0 2.851.212 4.095.637 1.244.425 2.108.849 2.594 1.274l.728.637-1.774 3.321c-.152-.152-.379-.334-.682-.546-.273-.243-.91-.546-1.911-.91-.971-.394-2.002-.591-3.094-.592-1.062 0-1.957.243-2.684.728-.728.455-1.092 1.153-1.092 2.093 0 .758.409 1.411 1.228 1.956.819.546 1.805 1.047 2.958 1.502 1.153.425 2.305.91 3.458 1.456 1.153.516 2.138 1.274 2.958 2.275.819 1.001 1.228 2.199 1.228 3.595 0 1.941-.774 3.549-2.321 4.823-1.517 1.244-3.519 1.865-6.006 1.865-1.668 0-3.231-.273-4.686-.819-1.456-.576-2.487-1.153-3.094-1.729l-.956-.819" style="-inkscape-font-specification:MuseoSans-500"/><path d="M317.674 116.194v-3.913h13.286v3.913h-13.286" style="-inkscape-font-specification:MuseoSans-500"/><path d="M340.59 131.391c1.911 1.031 4.019 1.547 6.324 1.547 2.184 0 3.943-.531 5.278-1.593 1.335-1.031 2.002-2.654 2.002-4.869v-1.683l.045-1.456h-.091c-1.426 2.396-3.701 3.595-6.825 3.595s-5.627-1.107-7.508-3.321c-1.85-2.245-2.776-5.066-2.776-8.463 0-3.397.895-6.158 2.684-8.281 1.79-2.154 4.247-3.23 7.371-3.231 1.031 0 1.987.121 2.866.364.88.212 1.577.501 2.093.865.516.334.955.667 1.319 1.001.364.334.607.622.728.865l.228.319h.091c-.03-.212-.045-.455-.045-.728v-2.139h4.231v22.067c0 1.82-.334 3.428-1.001 4.823-.637 1.395-1.517 2.487-2.639 3.276-1.122.819-2.351 1.426-3.686 1.82-1.335.394-2.76.591-4.277.592-2.76 0-5.384-.637-7.872-1.911l1.456-3.458m7.598-8.281c1.79 0 3.246-.622 4.368-1.865 1.153-1.244 1.729-3.261 1.729-6.051 0-5.157-2.169-7.735-6.506-7.735-1.972 0-3.519.683-4.641 2.047-1.092 1.335-1.638 3.185-1.638 5.551 0 2.427.591 4.383 1.774 5.87 1.213 1.456 2.851 2.184 4.914 2.184" style="-inkscape-font-specification:MuseoSans-500"/><path d="M363.693 120.744c0-5.278 4.626-7.917 13.877-7.917h1.001v-.409c0-3.367-1.684-5.05-5.051-5.051-1.062 0-2.123.182-3.185.546-1.062.364-1.865.728-2.412 1.092l-.819.592-1.82-3.231c.243-.212.592-.47 1.046-.773.485-.303 1.471-.698 2.958-1.183 1.486-.516 3.018-.773 4.596-.773 2.912 0 5.157.774 6.734 2.321 1.577 1.547 2.366 3.777 2.366 6.689v14.56h-4.095v-2.184l.091-1.82h-.091l-.273.5c-.091.212-.349.576-.773 1.092-.394.516-.849.971-1.365 1.365-.485.394-1.183.758-2.093 1.092-.88.334-1.835.5-2.866.5-2.123 0-3.958-.622-5.505-1.865-1.547-1.244-2.321-2.957-2.321-5.141m4.459-.228c0 1.001.379 1.866 1.137 2.594.758.728 1.82 1.092 3.185 1.092 1.759 0 3.215-.758 4.368-2.275 1.183-1.547 1.774-3.23 1.774-5.051v-.728h-1.137c-6.218 0-9.328 1.456-9.328 4.368" style="-inkscape-font-specification:MuseoSans-500"/><path d="M389.279 120.926v-25.844h4.413v25.07c0 1.274.212 2.139.637 2.594.425.455 1.031.683 1.82.682l.773-.045v3.913c-.455.061-.94.091-1.456.091-4.125 0-6.188-2.154-6.188-6.461" style="-inkscape-font-specification:MuseoSans-500"/><path d="M401.365 120.926v-25.844h4.413v25.07c0 1.274.212 2.139.637 2.594.425.455 1.031.683 1.82.682l.773-.045v3.913c-.455.061-.94.091-1.456.091-4.125 0-6.188-2.154-6.188-6.461" style="-inkscape-font-specification:MuseoSans-500"/><path d="M412.132 115.694c0-3.61 1.077-6.522 3.231-8.736 2.184-2.214 4.944-3.321 8.281-3.321 3.124 0 5.566 1.016 7.325 3.049 1.759 2.032 2.639 4.611 2.639 7.735l-.137 1.911h-16.79c.121 2.427.925 4.307 2.412 5.642 1.517 1.304 3.352 1.957 5.505 1.956 1.183 0 2.336-.227 3.458-.682 1.153-.455 2.002-.895 2.548-1.319l.819-.682 1.82 3.231c-.243.243-.607.546-1.092.91-.485.364-1.502.849-3.049 1.456s-3.14.91-4.777.91c-3.579 0-6.507-1.137-8.781-3.413-2.275-2.305-3.413-5.187-3.413-8.645m4.686-2.684h12.285c-.061-1.911-.622-3.367-1.683-4.368-1.031-1.001-2.321-1.501-3.868-1.502-1.729 0-3.215.516-4.459 1.547-1.213 1.031-1.972 2.472-2.275 4.322" style="-inkscape-font-specification:MuseoSans-500"/><path d="M438.962 127.205v-23.023h4.277v4.004l-.091 1.729h.091c.546-1.759 1.456-3.2 2.73-4.322 1.304-1.122 2.821-1.683 4.55-1.683l1.137.091v4.368c-.394-.091-.819-.136-1.274-.137-1.426 0-2.73.485-3.913 1.456-1.183.971-2.032 2.29-2.548 3.958-.364 1.183-.546 2.563-.546 4.141v9.418h-4.413" style="-inkscape-font-specification:MuseoSans-500"/><path d="M455.979 99.587v-4.505h4.459v4.505h-4.459m.045 27.619v-23.023h4.413v23.023h-4.413" style="-inkscape-font-specification:MuseoSans-500"/><path d="M465.719 115.694c0-3.61 1.077-6.522 3.231-8.736 2.184-2.214 4.944-3.321 8.281-3.321 3.124 0 5.566 1.016 7.325 3.049 1.759 2.032 2.639 4.611 2.639 7.735l-.137 1.911h-16.79c.121 2.427.925 4.307 2.412 5.642 1.517 1.304 3.352 1.957 5.505 1.956 1.183 0 2.336-.227 3.458-.682 1.153-.455 2.002-.895 2.548-1.319l.819-.682 1.82 3.231c-.243.243-.607.546-1.092.91-.485.364-1.502.849-3.049 1.456s-3.14.91-4.777.91c-3.579 0-6.507-1.137-8.781-3.413-2.275-2.305-3.413-5.187-3.413-8.645m4.686-2.684h12.285c-.061-1.911-.622-3.367-1.683-4.368-1.031-1.001-2.321-1.501-3.868-1.502-1.729 0-3.215.516-4.459 1.547-1.213 1.031-1.972 2.472-2.275 4.322" style="-inkscape-font-specification:MuseoSans-500"/><path d="M490.684 124.384l2.139-3.139c.182.212.455.47.819.773.364.273 1.122.667 2.275 1.183 1.153.485 2.32.728 3.503.728 1.031 0 1.926-.258 2.684-.773.758-.516 1.137-1.213 1.137-2.093 0-.758-.41-1.426-1.228-2.002-.819-.576-1.805-1.077-2.958-1.502-1.153-.455-2.305-.94-3.458-1.456-1.153-.546-2.139-1.319-2.958-2.321-.819-1.001-1.228-2.199-1.228-3.595 0-2.032.789-3.625 2.366-4.777 1.577-1.183 3.564-1.774 5.96-1.774 1.486 0 2.851.212 4.095.637 1.244.425 2.108.849 2.594 1.274l.728.637-1.774 3.321c-.152-.152-.379-.334-.682-.546-.273-.243-.91-.546-1.911-.91-.971-.394-2.002-.591-3.094-.592-1.062 0-1.957.243-2.684.728-.728.455-1.092 1.153-1.092 2.093 0 .758.409 1.411 1.228 1.956.819.546 1.805 1.047 2.958 1.502 1.153.425 2.305.91 3.458 1.456 1.153.516 2.138 1.274 2.958 2.275.819 1.001 1.228 2.199 1.228 3.595 0 1.941-.774 3.549-2.321 4.823-1.517 1.244-3.519 1.865-6.006 1.865-1.668 0-3.231-.273-4.686-.819-1.456-.576-2.487-1.153-3.094-1.729l-.956-.819" style="-inkscape-font-specification:MuseoSans-500"/><path d="M513.537 116.194v-3.913h13.286v3.913h-13.286" style="-inkscape-font-specification:MuseoSans-500"/><path d="M532.768 115.694c0-3.428 1.153-6.294 3.458-8.6 2.336-2.305 5.293-3.458 8.873-3.458 1.699 0 3.261.288 4.686.865 1.456.546 2.487 1.107 3.094 1.683l.865.819-2.093 3.094c-.182-.182-.455-.425-.819-.728-.334-.303-1.062-.698-2.184-1.183-1.092-.485-2.214-.728-3.367-.728-2.305 0-4.216.774-5.733 2.321-1.517 1.547-2.275 3.504-2.275 5.87s.758 4.338 2.275 5.915c1.547 1.577 3.503 2.366 5.87 2.366 1.274 0 2.502-.258 3.686-.773 1.183-.516 2.047-1.031 2.594-1.547l.819-.773 1.774 3.231-.409.409c-.152.152-.516.44-1.092.865-.576.425-1.198.804-1.865 1.137-.667.303-1.532.592-2.594.865-1.031.273-2.108.409-3.231.409-3.61 0-6.567-1.137-8.873-3.413-2.305-2.275-3.458-5.157-3.458-8.645" style="-inkscape-font-specification:MuseoSans-500"/><path d="M557.423 120.744c0-5.278 4.626-7.917 13.877-7.917h1.001v-.409c0-3.367-1.684-5.05-5.051-5.051-1.062 0-2.123.182-3.185.546-1.062.364-1.866.728-2.412 1.092l-.819.592-1.82-3.231c.243-.212.592-.47 1.046-.773.485-.303 1.471-.698 2.958-1.183 1.486-.516 3.018-.773 4.596-.773 2.912 0 5.157.774 6.734 2.321 1.577 1.547 2.366 3.777 2.366 6.689v14.56h-4.095v-2.184l.091-1.82h-.091l-.273.5c-.091.212-.349.576-.773 1.092-.394.516-.849.971-1.365 1.365-.485.394-1.183.758-2.093 1.092-.88.334-1.835.5-2.866.5-2.123 0-3.958-.622-5.505-1.865-1.547-1.244-2.321-2.957-2.321-5.141m4.459-.228c0 1.001.379 1.866 1.137 2.594.758.728 1.82 1.092 3.185 1.092 1.759 0 3.215-.758 4.368-2.275 1.183-1.547 1.774-3.23 1.774-5.051v-.728h-1.137c-6.218 0-9.328 1.456-9.328 4.368" style="-inkscape-font-specification:MuseoSans-500"/><path d="M584.334 127.205v-19.155h-2.866v-3.549h2.866v-1.092c0-1.456.212-2.715.637-3.776.425-1.092.94-1.926 1.547-2.502.607-.607 1.335-1.077 2.184-1.411.849-.364 1.592-.591 2.229-.682.667-.121 1.35-.182 2.047-.182l1.683.137v3.776c-.303-.061-.683-.091-1.137-.091-.516 0-1.016.061-1.502.182-.455.091-.956.288-1.502.592-.546.303-.986.804-1.319 1.502-.334.698-.501 1.547-.5 2.548v1.001h5.46v3.549h-5.46v19.155h-4.368" style="-inkscape-font-specification:MuseoSans-500"/><path d="M596.798 115.694c0-3.61 1.077-6.522 3.231-8.736 2.184-2.214 4.944-3.321 8.281-3.321 3.124 0 5.566 1.016 7.325 3.049 1.759 2.032 2.639 4.611 2.639 7.735l-.137 1.911h-16.79c.121 2.427.925 4.307 2.412 5.642 1.517 1.304 3.352 1.957 5.505 1.956 1.183 0 2.336-.227 3.458-.682 1.153-.455 2.002-.895 2.548-1.319l.819-.682 1.82 3.231c-.243.243-.607.546-1.092.91-.485.364-1.502.849-3.049 1.456s-3.14.91-4.777.91c-3.579 0-6.506-1.137-8.781-3.413-2.275-2.305-3.413-5.187-3.413-8.645m4.686-2.684h12.285c-.061-1.911-.622-3.367-1.683-4.368-1.031-1.001-2.321-1.501-3.868-1.502-1.729 0-3.215.516-4.459 1.547-1.213 1.031-1.972 2.472-2.275 4.322m4.869-12.149l3.321-5.779h4.732l-4.368 5.779h-3.686" style="-inkscape-font-specification:MuseoSans-500"/><path d="M624.265 116.194v-3.913h13.286v3.913h-13.286" style="-inkscape-font-specification:MuseoSans-500"/><path d="M643.496 115.694c0-3.428 1.153-6.294 3.458-8.6 2.336-2.305 5.293-3.458 8.873-3.458 1.699 0 3.261.288 4.686.865 1.456.546 2.487 1.107 3.094 1.683l.865.819-2.093 3.094c-.182-.182-.455-.425-.819-.728-.334-.303-1.062-.698-2.184-1.183-1.092-.485-2.214-.728-3.367-.728-2.305 0-4.216.774-5.733 2.321-1.517 1.547-2.275 3.504-2.275 5.87s.758 4.338 2.275 5.915c1.547 1.577 3.503 2.366 5.87 2.366 1.274 0 2.502-.258 3.686-.773 1.183-.516 2.047-1.031 2.594-1.547l.819-.773 1.774 3.231-.409.409c-.152.152-.516.44-1.092.865-.576.425-1.198.804-1.865 1.137-.667.303-1.532.592-2.594.865-1.031.273-2.108.409-3.231.409-3.61 0-6.567-1.137-8.873-3.413-2.305-2.275-3.458-5.157-3.458-8.645" style="-inkscape-font-specification:MuseoSans-500"/><path d="M671.928 124.293c-2.396-2.305-3.595-5.187-3.595-8.645 0-3.458 1.198-6.324 3.595-8.6 2.396-2.275 5.339-3.412 8.827-3.413 3.488 0 6.431 1.138 8.827 3.413s3.594 5.142 3.595 8.6c0 3.458-1.213 6.34-3.64 8.645-2.396 2.305-5.324 3.458-8.781 3.458-3.458 0-6.4-1.153-8.827-3.458m3.231-14.514c-1.547 1.547-2.321 3.504-2.321 5.87s.773 4.338 2.321 5.915c1.547 1.577 3.412 2.366 5.596 2.366 2.214 0 4.08-.773 5.596-2.321 1.547-1.577 2.32-3.564 2.321-5.96 0-2.366-.774-4.322-2.321-5.87-1.517-1.547-3.382-2.32-5.596-2.321-2.184 0-4.05.774-5.596 2.321" style="-inkscape-font-specification:MuseoSans-500"/><path d="M698.047 118.924v-14.742h4.413v13.741c0 1.85.288 3.276.865 4.277.607.971 1.759 1.456 3.458 1.456 2.245 0 4.049-.849 5.415-2.548 1.365-1.699 2.047-3.746 2.047-6.143v-10.784h4.413v23.023h-4.277v-3.049l.091-1.683h-.091c-.576 1.335-1.623 2.548-3.139 3.64-1.486 1.092-3.261 1.638-5.324 1.638-5.248 0-7.872-2.942-7.872-8.827" style="-inkscape-font-specification:MuseoSans-500"/><path d="M725.559 127.205v-23.023h4.277v4.004l-.091 1.729h.091c.546-1.759 1.456-3.2 2.73-4.322 1.304-1.122 2.821-1.683 4.55-1.683l1.137.091v4.368c-.394-.091-.819-.136-1.274-.137-1.426 0-2.73.485-3.913 1.456-1.183.971-2.032 2.29-2.548 3.958-.364 1.183-.546 2.563-.546 4.141v9.418h-4.413" style="-inkscape-font-specification:MuseoSans-500"/><path d="M740.756 124.384l2.139-3.139c.182.212.455.47.819.773.364.273 1.122.667 2.275 1.183 1.153.485 2.32.728 3.503.728 1.031 0 1.926-.258 2.684-.773.758-.516 1.137-1.213 1.137-2.093 0-.758-.41-1.426-1.228-2.002-.819-.576-1.805-1.077-2.958-1.502-1.153-.455-2.305-.94-3.458-1.456-1.153-.546-2.139-1.319-2.958-2.321-.819-1.001-1.228-2.199-1.228-3.595 0-2.032.789-3.625 2.366-4.777 1.577-1.183 3.564-1.774 5.96-1.774 1.486 0 2.851.212 4.095.637 1.244.425 2.108.849 2.594 1.274l.728.637-1.774 3.321c-.152-.152-.379-.334-.682-.546-.273-.243-.91-.546-1.911-.91-.971-.394-2.002-.591-3.094-.592-1.062 0-1.957.243-2.684.728-.728.455-1.092 1.153-1.092 2.093 0 .758.409 1.411 1.228 1.956.819.546 1.805 1.047 2.958 1.502 1.153.425 2.305.91 3.458 1.456 1.153.516 2.138 1.274 2.958 2.275.819 1.001 1.228 2.199 1.228 3.595 0 1.941-.774 3.549-2.321 4.823-1.517 1.244-3.519 1.865-6.006 1.865-1.668 0-3.231-.273-4.686-.819-1.456-.576-2.487-1.153-3.094-1.729l-.956-.819" style="-inkscape-font-specification:MuseoSans-500"/><path d="M761.38 115.694c0-3.61 1.077-6.522 3.231-8.736 2.184-2.214 4.944-3.321 8.281-3.321 3.124 0 5.566 1.016 7.325 3.049 1.759 2.032 2.639 4.611 2.639 7.735l-.137 1.911h-16.79c.121 2.427.925 4.307 2.412 5.642 1.517 1.304 3.352 1.957 5.505 1.956 1.183 0 2.336-.227 3.458-.682 1.153-.455 2.002-.895 2.548-1.319l.819-.682 1.82 3.231c-.243.243-.607.546-1.092.91-.485.364-1.502.849-3.049 1.456s-3.14.91-4.777.91c-3.579 0-6.506-1.137-8.781-3.413-2.275-2.305-3.413-5.187-3.413-8.645m4.686-2.684h12.285c-.061-1.911-.622-3.367-1.683-4.368-1.031-1.001-2.321-1.501-3.868-1.502-1.729 0-3.215.516-4.459 1.547-1.213 1.031-1.972 2.472-2.275 4.322" style="-inkscape-font-specification:MuseoSans-500"/><path d="M786.345 124.384l2.139-3.139c.182.212.455.47.819.773.364.273 1.122.667 2.275 1.183 1.153.485 2.32.728 3.503.728 1.031 0 1.926-.258 2.684-.773.758-.516 1.137-1.213 1.137-2.093 0-.758-.41-1.426-1.228-2.002-.819-.576-1.805-1.077-2.958-1.502-1.153-.455-2.305-.94-3.458-1.456-1.153-.546-2.139-1.319-2.958-2.321-.819-1.001-1.229-2.199-1.228-3.595 0-2.032.789-3.625 2.366-4.777 1.577-1.183 3.564-1.774 5.96-1.774 1.486 0 2.851.212 4.095.637 1.244.425 2.108.849 2.594 1.274l.728.637-1.774 3.321c-.152-.152-.379-.334-.682-.546-.273-.243-.91-.546-1.911-.91-.971-.394-2.002-.591-3.094-.592-1.062 0-1.957.243-2.684.728-.728.455-1.092 1.153-1.092 2.093 0 .758.409 1.411 1.228 1.956.819.546 1.805 1.047 2.958 1.502 1.153.425 2.305.91 3.458 1.456 1.153.516 2.138 1.274 2.958 2.275.819 1.001 1.228 2.199 1.228 3.595 0 1.941-.774 3.549-2.321 4.823-1.517 1.244-3.519 1.865-6.006 1.865-1.668 0-3.231-.273-4.686-.819-1.456-.576-2.487-1.153-3.094-1.729l-.956-.819" style="-inkscape-font-specification:MuseoSans-500"/></g></g></svg>