<svg xmlns="http://www.w3.org/2000/svg" width="612" height="68"><defs><clipPath><path d="M150.656 55.49H26.546V17.392h124.11V55.49z"/></clipPath></defs><g><path opacity=".893" color="#000" overflow="visible" enable-background="accumulate" fill="none" d="M0 0h253v68H0z"/><g fill="#fff"><path d="M12.168 52.39h-1.08v6.672h3.9v-1.15h-2.644V52.39h-.176"/><path d="M19.92 53.91c.417.41.652 1.07.652 1.81 0 1.113-.5 2.295-1.907 2.295s-1.91-1.182-1.91-2.295c0-.74.24-1.4.653-1.81.33-.326.75-.492 1.257-.49.504-.002.927.164 1.255.49m-4.474 1.81c0 2.093 1.26 3.446 3.22 3.446 1.956 0 3.22-1.353 3.22-3.446 0-2.06-1.295-3.445-3.22-3.445-1.927 0-3.22 1.385-3.22 3.445"/><path d="M27.095 52.384h-5.012v1.15h1.966v5.524h1.256v-5.525h1.878v-1.15h-.09"/><path d="M32.803 52.384H27.92v1.15h1.835v5.524h1.257v-5.525h1.966v-1.15h-.175"/><path d="M37.44 52.384h-3.718v6.674h3.894v-1.15H34.98v-1.732h2.4v-1.148h-2.4v-1.495h2.636v-1.15h-.175"/><path d="M40.756 53.533c.41 0 1.095.098 1.095.756 0 .51-.448.81-1.19.81h-.6v-1.567h.696zm408.59 106.62h-.177v6.673h1.256v-2.81h.368c.473 0 .664 0 .9.513l1.018 2.296h1.424l-1.318-2.773c-.128-.252-.243-.407-.38-.525.656-.25 1.086-.798 1.086-1.49 0-1.66-1.328-1.886-2.63-1.886h-1.55"/><path d="M49.513 52.384H48.36s-1.5 2.31-1.747 2.688l-1.786-2.688h-1.483l2.624 3.904v2.77h1.256v-2.77c.063-.085 2.62-3.904 2.62-3.904h-.33"/><path d="M56.535 52.384h-3.537v6.674h1.256v-2.882h2.35v-1.148h-2.35v-1.495h2.457v-1.15h-.175"/><path d="M62.996 52.384h-1.08v3.76c0 1.296-.42 1.872-1.372 1.872-.95 0-1.374-.576-1.374-1.872v-3.76h-1.258v3.877c0 1.847.96 2.906 2.632 2.906 1.672 0 2.628-1.06 2.628-2.905v-3.876h-.176"/><path d="M69.704 52.384h-1.082v4.614l-2.53-4.614h-1.513v6.674h1.257V54.33c.495.898 2.6 4.728 2.6 4.728h1.44v-6.674h-.173"/><path d="M73.362 53.533c1.277 0 2.137.868 2.137 2.168 0 1.487-.74 2.208-2.245 2.208h-.776v-4.375h.882zm742.16 106.62h-.177v6.673h2.045c2.25 0 3.545-1.236 3.545-3.395 0-1.93-1.458-3.278-3.545-3.278h-1.867"/><path d="M81.55 52.384h-3.716v6.674h3.89v-1.15H79.09v-1.732h2.402v-1.148H79.09v-1.495h2.635v-1.15h-.175"/><path d="M85.057 53.533c1.277 0 2.135.868 2.135 2.168 0 1.487-.735 2.208-2.245 2.208h-.776v-4.375h.887zm861.862 106.62h-.175v6.673h2.042c2.254 0 3.545-1.236 3.545-3.395 0-1.93-1.46-3.278-3.545-3.278h-1.868"/><path d="M56.407 27.396l.032.987-1.813-.462-.002-.01 1.782-.514zm572.242 427.056l-.036-1.037-4.27 1.533.042 1.12 4.366 1.286-.037-.98-.972-.27-.05-1.348.956-.304"/><path d="M55.163 22.61l.096-.297c.166-.515.532-.456.702-.402.296.095.48.37.363.742l-.103.3-1.06-.343zm560.955 488.19l.314-.968-1.66-.538c.112-.353.155-.48.767-.458l1.204.037.326-1.012-1.476-.01c-.543-.004-.743.06-.876.345l-.013-.003c.1-.846-.57-1.086-.74-1.143-.763-.247-1.243.23-1.463.91l-.494 1.502 4.11 1.338"/><path d="M60.07 20.385l.583-.83-2.9-2.032.538-.766-.638-.447-1.662 2.37.64.447.54-.77 2.9 2.028"/><path d="M60.907 13.365c-.335.18-.572.284-.872.54-1.108.928-.442 1.806-.354 1.904.988 1.184 2.03-.225 2.57.413.225.27.09.594-.155.8-.29.246-.587.303-.9.405l.5.682c.178-.077.607-.274 1.008-.61.66-.555.84-1.35.312-1.977-.985-1.175-2.053.2-2.56-.404-.205-.247-.113-.52.14-.73.208-.177.533-.318.795-.38l-.483-.645"/><path d="M68.724 10.276c-.177-.032-.527-.097-1.155.05-.856.2-1.752 1.05-1.394 2.594.31 1.335 1.314 2.01 2.467 1.743.536-.124.862-.302 1.018-.394l-.24-.875c-.086.067-.326.313-.808.424-.628.145-1.23-.302-1.42-1.12-.2-.848.1-1.486.76-1.64.454-.103.746-.004.916.044l-.144-.828"/><path d="M72.032 12.213c.105-.82.39-1.467.97-1.397.586.073.712.767.61 1.59-.1.822-.392 1.468-.973 1.394-.586-.07-.707-.764-.608-1.587M71 12.083c-.153 1.262.314 2.29 1.548 2.443 1.234.153 1.94-.73 2.095-1.992.156-1.26-.314-2.292-1.552-2.44-1.232-.157-1.934.73-2.09 1.99"/><path d="M76.088 13.594c-.483.952-.196 1.736.668 2.18.87.44 1.672.213 2.156-.742l1.252-2.453-.902-.462-1.33 2.595c-.193.388-.457.55-.817.366-.367-.187-.39-.497-.19-.885l1.32-2.596-.9-.46-1.257 2.454"/><path d="M79.232 17.126l.614.64 2.256-2.168.008.01-1.388 3.062.837.863 3.104-2.998-.624-.643-2.15 2.082-.007-.01 1.278-2.982-.82-.858-3.108 3.002"/><path d="M87.214 21.343c-.01-.183-.025-.54-.312-1.118-.385-.79-1.42-1.47-2.843-.775-1.232.598-1.66 1.73-1.146 2.795.243.493.49.774.617.905l.793-.43c-.082-.066-.37-.25-.587-.697-.284-.575.014-1.268.763-1.636.786-.383 1.47-.23 1.77.38.205.415.174.722.162.9l.782-.324"/><path d="M83.737 24.61l.177.998 4.25-.748-.176-.994-4.25.745"/><path d="M84.034 27.168l-.166 2.435.78.06.097-1.425 3.53.247.072-1.022-4.313-.295"/><path d="M57.646 37.25l1.222 1.453.274-.24-.976-1.15 1.31-1.102.888 1.067.272-.238-.886-1.065 1.178-.992.93 1.12.276-.237-1.178-1.402-3.31 2.787"/><path d="M60.714 40.46l.3.194 2.13-3.165.01.006-.627 4.176.41.284 2.413-3.59-.298-.196-2.147 3.19-.01-.007.643-4.197-.41-.286-2.414 3.59"/><path d="M67.402 41.573l.74.213-.413 1.457c-.218.045-.394.02-.608-.035-1.096-.306-1.15-1.432-.934-2.19.378-1.307 1.303-1.54 1.895-1.363.317.092.675.328.8.506l.136-.396c-.108-.102-.483-.357-.818-.457-1.163-.33-2.09.5-2.395 1.56-.225.79-.26 2.264 1.195 2.683.343.1.678.13 1.025.05l.585-2.054-1.11-.31-.1.337"/><path d="M70.537 43.994h1.79l-.002-.353H70.92v-3.96h-.383v4.314"/><path d="M74.57 39.593l.012-.003 1.358 2.06-1.435.424.066-2.48zm756.004 282.558l.365-.107.047-1.26 1.657-.465.69 1.04.39-.112-2.572-3.77-.39.117-.188 4.558"/><path d="M79.08 41.972l.3-.203-2.072-3.198.01-.005 3.598 2.205.413-.255-2.352-3.636-.304.206 2.09 3.218-.014.005-3.603-2.23-.418.257 2.35 3.635"/><path d="M80.59 35.744l.2-.247c.887-1.152 1.84-.548 2.377-.12.85.664 1.09 1.52.5 2.277l-.244.32-2.833-2.23zm820.987 328.18l.412-.515c.852-1.106.47-2.188-.52-2.962-1.098-.86-2.068-.756-2.95.38l-.35.438 3.407 2.66"/><path d="M33.36 12.314v.715h.463c.2 0 .343-.03.436-.09.088-.056.135-.147.135-.27 0-.13-.046-.224-.134-.275-.087-.053-.242-.08-.466-.08h-.435zm334.652 614.156h-.38v-2.353h.815c.288 0 .49.02.61.068.12.045.216.122.29.23.068.104.107.217.107.34 0 .178-.066.33-.19.454-.125.123-.286.192-.484.21.09.04.173.097.25.18.077.085.174.223.293.414l.286.456h-.464l-.208-.367c-.148-.265-.262-.435-.35-.513-.083-.08-.2-.118-.35-.118h-.226v.998zm.498-27.908c-.502 0-.93.18-1.29.538-.354.354-.533.783-.533 1.287 0 .504.18.934.533 1.288.356.357.787.533 1.29.533.504 0 .934-.176 1.29-.533.354-.355.533-.788.533-1.288 0-.504-.18-.933-.533-1.287-.356-.358-.787-.538-1.29-.538m0-.36c.39 0 .758.1 1.094.294.338.195.602.466.803.8.195.34.294.7.294 1.09 0 .394-.098.758-.293 1.094-.195.335-.463.6-.8.796-.34.194-.704.293-1.097.293-.39 0-.76-.1-1.096-.294-.34-.194-.605-.458-.802-.794-.194-.338-.29-.702-.29-1.095 0-.395.096-.756.292-1.093.197-.337.467-.603.803-.8.337-.193.702-.29 1.093-.29"/><path d="M28.425 28.056c.67-.526 1.44-.73 2.046-.477.973.406 1 1.712.335 3.162-.286.615-.707 1.112-1.175 1.46-.627.46-1.248.635-1.782.436-1.265-.48-1.518-2.906-.565-5.424.956-2.52 2.744-4.17 4.01-3.696 1.16.44 1.468 2.515.774 4.797.09-.86-.2-1.627-.83-1.938-.89-.44-2.11.224-2.723 1.476l-.09.203"/><path d="M36.048 29.43c.313-1.745-.136-3.075-1.1-3.075-1.086 0-2.42 1.675-2.98 3.735-.562 2.066-.132 3.737.953 3.737.696 0 1.5-.695 2.133-1.744.092-.152.18-.318.246-.486.433-1.128.213-2.23-.55-2.437-.466-.13-.988-.032-1.484.406.017-.05.038-.103.06-.157.412-.976 1.31-1.57 2.005-1.33.492.17.746.707.718 1.35"/><path d="M25.095 13.604c-1.196-2.707-2.4-4.312-3.567-3.51-1.523 1.04-1.196 3.708.66 8.313.836-1.694 1.836-3.45 2.907-4.803"/><path d="M27.57 40.065c-3.672 0-6.847-3.368-8.35-8.26 2.114 3.786 5.604 6.26 9.565 6.26 1.608 0 3.145-.41 4.537-1.15-1.575 1.972-3.576 3.15-5.75 3.15m8.18-7.91c-.055.143-.118.28-.19.41-.72 1.335-1.75 2.213-2.762 2.213-1.1 0-1.877-1.048-2.094-2.584-.287.384-.636.7-1.01.943-.782.513-1.59.69-2.294.424-1.664-.628-2.118-3.51-1.012-6.435.506-1.344 1.253-2.46 2.08-3.217-.196-.793-.418-1.66-.664-2.556-.113.224-.227.448-.34.678-.572 1.127-1.306 1.868-2.082 2.35.513-.895 1.016-1.803 1.46-2.67 2.303-4.52 4.135-8.517 2.446-9.504-2.092-1.22-4.894 3.055-7.004 7.622-2.118 4.56-3.34 9.2-3.34 9.2s-2.106-3.917-6.22-3.917c-2.1 0-3.408 1.026-3.408 1.93 0 .642.52 1.05 1.19 1.228 1.346.348 2.052.856 3.064 2.242 1.022 1.402 1.82 4.804 1.99 5.597 1.08 4.527 5.153 7.887 10.012 7.887 5.684 0 10.293-4.61 10.293-10.3 0-.522-.04-1.033-.115-1.54"/><path d="M44.63 43.994h.666V8.336h-.667v35.658z"/><path d="M111.57 24.154h3.244l5.633 14.347h-3.185l-1.234-3.285h-5.816l-1.254 3.286h-2.98l5.59-14.346zm1136.79 470.13h-.042l-2.072 5.92h4.19l-2.075-5.92"/><path d="M121.945 24.154h3.105c3.082 0 6.76-.103 6.76 3.887 0 1.685-1.13 3.08-2.96 3.33v.037c.784.063 1.234.846 1.523 1.482l2.302 5.613h-3.207l-1.726-4.483c-.414-1.067-.778-1.48-1.994-1.48h-.926v5.963h-2.877v-14.35zm1244.29 473.384h.95c1.416 0 3.042-.208 3.042-1.996 0-1.726-1.604-1.87-3.042-1.87h-.95v3.866"/><path d="M137.298 26.415h-4.11v-2.26h11.1v2.26h-4.116v12.088h-2.874V26.415"/><path d="M153.82 26.786c-.903-.39-1.91-.618-2.915-.618-.988 0-2.264.433-2.264 1.995 0 2.487 6.293 1.438 6.293 6.247 0 3.145-2.49 4.34-5.386 4.34-1.56 0-2.26-.204-3.68-.557l.266-2.59c.99.536 2.12.885 3.25.885 1.088 0 2.547-.556 2.547-1.85 0-2.735-6.29-1.604-6.29-6.353 0-3.207 2.486-4.378 5.017-4.378 1.23 0 2.382.165 3.43.515l-.266 2.364"/><path d="M173.286 38.3c-1.048.244-2.18.447-3.27.447-4.643 0-7.87-2.322-7.87-7.176 0-4.907 3-7.663 7.87-7.663.946 0 2.2.186 3.248.598l-.205 2.425c-1.09-.618-2.076-.76-3.105-.76-2.96 0-4.81 2.26-4.81 5.2 0 2.918 1.807 5.118 4.872 5.118 1.132 0 2.463-.25 3.144-.596l.126 2.407"/><path d="M181.648 23.907c4.5 0 7.03 3.043 7.03 7.38 0 4.335-2.49 7.46-7.03 7.46-4.602 0-7.027-3.062-7.027-7.46 0-4.4 2.466-7.38 7.028-7.38m0 12.58c2.938 0 4.03-2.61 4.03-5.2 0-2.53-1.174-5.118-4.03-5.118-2.855 0-4.027 2.587-4.027 5.116 0 2.59 1.09 5.202 4.028 5.202"/><path d="M190.587 24.154h2.878v8.285c0 2.446.78 4.048 2.982 4.048 2.196 0 2.98-1.602 2.98-4.05v-8.284h2.876v9.17c0 3.842-2.18 5.426-5.856 5.426-3.68 0-5.86-1.584-5.86-5.427v-9.17"/><path d="M204.46 24.154h3.535l5.466 10.732h.043V24.154h2.754V38.5h-3.514l-5.486-10.73h-.042V38.5h-2.755V24.155"/><path d="M229.265 38.3c-1.047.244-2.178.447-3.267.447-4.645 0-7.872-2.322-7.872-7.176 0-4.907 3-7.663 7.872-7.663.945 0 2.198.186 3.245.598l-.202 2.425c-1.092-.618-2.075-.76-3.102-.76-2.96 0-4.81 2.26-4.81 5.2 0 2.918 1.805 5.118 4.87 5.118 1.13 0 2.466-.25 3.143-.596l.125 2.407"/><path d="M231.444 38.5h2.878V24.155h-2.878V38.5z"/><path d="M236.58 24.154h2.878V36.24h5.57v2.26h-8.447V24.155"/><path d="M106.02 44.708h8.47v2.258h-5.594v3.537h5.12v2.262h-5.12v4.027h5.633v2.262h-8.51V44.708"/><path d="M116.89 44.708h3.538l5.465 10.727h.04V44.708h2.756v14.346h-3.514l-5.49-10.728h-.04v10.728h-2.756V44.708"/><path d="M142.56 47.483c-1.11-.515-2.55-.76-3.703-.76-3.348 0-5.195 2.26-5.195 5.2 0 2.916 1.807 5.115 4.87 5.115.783 0 1.397-.082 1.89-.204v-3.74h-3.043v-2.262h5.794v7.73c-1.52.41-3.102.74-4.643.74-4.643 0-7.87-2.325-7.87-7.175 0-4.912 3.002-7.665 7.87-7.665 1.666 0 2.98.223 4.216.596l-.185 2.425"/><path d="M145.477 44.708h2.878v12.084h5.57v2.262h-8.448V44.708"/><path d="M160.787 44.708h3.25l5.632 14.348h-3.187l-1.235-3.29h-5.814l-1.253 3.29H155.2l5.59-14.348zm1640.586 218.63h-.038l-2.08 5.92h4.195l-2.077-5.92"/><path d="M171.063 44.708h3.536l5.466 10.727h.04V44.708h2.755v14.346h-3.514l-5.49-10.728h-.04v10.728h-2.753V44.708"/><path d="M185.21 44.708h3.926c4.395 0 8.282 1.48 8.282 7.174 0 5.69-3.887 7.172-8.282 7.172h-3.926V44.708zM3966.067 488.3h1.604c2.403 0 4.728-1.787 4.728-4.91 0-3.128-2.325-4.915-4.727-4.915h-1.603v9.826"/><path d="M106.164 15.798c.334.144.814.27 1.428.27.977 0 2.07-.505 2.07-1.78 0-1.845-2.893-1.854-2.893-3.12 0-.813.714-1.085 1.366-1.085.424 0 .868.08 1.147.235l.1-.57c-.433-.16-.93-.206-1.238-.206-1.113 0-1.997.632-1.997 1.644 0 1.655 2.892 1.81 2.892 3.048 0 .895-.643 1.293-1.42 1.293-.588 0-1.022-.135-1.392-.37l-.064.64zm1088.248 565.05h-.57v2.55c0 .77-.323 1.682-1.364 1.682-.787 0-1.095-.56-1.095-1.428v-2.803h-.568v2.947c0 1.012.433 1.77 1.573 1.77.958 0 1.302-.513 1.49-.93h.02v.822h.55c-.036-.372-.036-.733-.036-1.085v-3.526zm87.095 60.93h.57v-2.683h.016c.282.595.715.894 1.44.894 1.265 0 1.896-1.05 1.896-2.415 0-1.4-.54-2.413-1.898-2.413-.977 0-1.33.694-1.474.948h-.02l.038-.84h-.57v6.508zm18.623-83.84c0 .894-.28 1.925-1.365 1.925-1.014 0-1.366-1.085-1.366-1.925 0-.842.35-1.927 1.365-1.927 1.085 0 1.365 1.032 1.365 1.928m1.89 4.203h.568v-2.683h.02c.28.596.714.894 1.437.894 1.267 0 1.9-1.046 1.9-2.412 0-1.402-.543-2.414-1.9-2.414-.977 0-1.33.695-1.474.948h-.016l.034-.84h-.568v6.51zm56.43-4.202c0 .894-.28 1.925-1.366 1.925-1.013 0-1.366-1.085-1.366-1.925 0-.842.353-1.927 1.366-1.927 1.086 0 1.366 1.032 1.366 1.928m1.626 0c0 1.256.66 2.413 2.152 2.413s2.15-1.156 2.15-2.412c0-1.258-.658-2.414-2.15-2.414s-2.152 1.156-2.152 2.414m.623 0c0-1.068.533-1.927 1.528-1.927.994 0 1.528.86 1.528 1.928 0 1.067-.534 1.925-1.528 1.925-.995 0-1.53-.858-1.53-1.925m4.91 2.304h.57v-2.278c0-.832.244-1.844 1.148-1.844.145 0 .298.018.417.054v-.596c-.1-.027-.263-.054-.398-.054-.59 0-.977.478-1.186.993h-.018v-.884h-.57c.037.333.037.522.037 1.03v3.58zm112.446 18.625h-1.05v-1.31l-.568.198v1.112h-.904v.488h.904v2.695c0 .84.037 1.536 1.048 1.536.28 0 .56-.072.696-.127l-.036-.47c-.162.063-.307.108-.524.108-.46 0-.615-.343-.615-.76v-2.983h1.05v-.488zm59.294 60.29c-.27.172-.876.344-1.292.344-.996 0-1.52-.786-1.52-1.763h3.155v-.29c0-1.237-.53-2.285-1.833-2.285-1.167 0-1.943 1.003-1.943 2.413 0 1.383.568 2.414 2.097 2.414.426 0 .94-.092 1.338-.255v-.578zm40.06-49.47c0-.76.515-1.602 1.357-1.602.85 0 1.176.797 1.176 1.602h-2.532zm-20.71 19.178h-.57v2.947h-.017c-.08-.226-.533-.885-1.437-.885-1.357 0-1.898 1.012-1.898 2.413 0 1.366.632 2.414 1.898 2.414.66 0 1.13-.253 1.438-.84h.02v.73h.568v-6.78zm79.282 55.262c0-.896.28-1.926 1.365-1.926 1.014 0 1.366 1.086 1.366 1.927 0 .84-.35 1.926-1.365 1.926-1.085 0-1.365-1.03-1.365-1.926m10.032-2.305h-.57v2.55c0 .768-.325 1.68-1.365 1.68-.787 0-1.095-.56-1.095-1.427v-2.803h-.567v2.947c0 1.012.432 1.77 1.572 1.77.958 0 1.3-.513 1.492-.93h.017v.822h.55c-.035-.37-.035-.732-.035-1.085v-3.525zm70.03-22.05c.405.163.848.217 1.29.217.698 0 1.61-.336 1.61-1.31 0-1.512-2.27-1.403-2.27-2.262 0-.59.408-.77.995-.77.317 0 .725.082 1.022.218l.053-.497c-.405-.154-.894-.208-1.14-.208-.76 0-1.5.342-1.5 1.256 0 1.337 2.216 1.166 2.216 2.26 0 .524-.48.823-1.023.823-.444 0-.86-.116-1.202-.29l-.054.562zm15.5-54.976h.568v-4.61h-.567v4.61zm41.846-7.917h-.568v.757h.568v-.758zm7.336 87.33h.568v-2.55c0-.767.326-1.68 1.367-1.68.785 0 1.092.56 1.092 1.43v2.8h.57v-2.946c0-1.012-.434-1.77-1.574-1.77-.96 0-1.302.514-1.493.93h-.017v-.822h-.55c.036.37.036.732.036 1.084v3.525zm21.088-83.038c0-.895.28-1.926 1.365-1.926 1.042 0 1.367.814 1.367 1.926 0 .84-.37 1.818-1.402 1.818-.968 0-1.33-.913-1.33-1.818m3.3-2.305h-.568v.524h-.018c-.425-.55-.823-.63-1.438-.63-1.358 0-1.9 1.01-1.9 2.412 0 1.023.47 2.305 1.945 2.305.588 0 1.095-.235 1.402-.902h.018c0 1.3-.127 2.368-1.592 2.368-.496 0-1.003-.145-1.356-.327l-.045.57c.235.072.785.245 1.39.245 1.585 0 2.162-1.048 2.162-2.332v-4.23zm93.08 62.91h.566v-2.682h.02c.28.595.713.894 1.437.894 1.267 0 1.898-1.05 1.898-2.415 0-1.4-.542-2.413-1.898-2.413-.977 0-1.33.694-1.475.948h-.017l.035-.84h-.567v6.508zm34.837-83.84c0 .895-.28 1.926-1.366 1.926-1.014 0-1.367-1.085-1.367-1.925 0-.842.353-1.927 1.367-1.927 1.085 0 1.365 1.032 1.365 1.928m5.504-2.305h-.57v2.55c0 .768-.324 1.68-1.364 1.68-.788 0-1.095-.56-1.095-1.428v-2.802h-.57v2.947c0 1.012.435 1.77 1.574 1.77.958 0 1.3-.513 1.492-.93h.017v.822h.55c-.036-.37-.036-.732-.036-1.084v-3.525zm91.613 84.247h.57v-.73h.017c.308.585.778.84 1.438.84 1.266 0 1.9-1.05 1.9-2.415 0-1.4-.544-2.413-1.9-2.413-.905 0-1.357.658-1.438.885h-.018V633.1h-.57v6.78zm18.622-58.708c0 .895-.28 1.926-1.366 1.926-1.012 0-1.365-1.085-1.365-1.926 0-.84.325-1.926 1.364-1.926 1.086 0 1.365 1.03 1.365 1.926m1.926 2.305h.57v-6.78h-.57v6.78zm55.585 0h.568v-4.61h-.567v4.61zm21.97-6.598h-.57v.757h.57v-.758zm10.447 82.793c-.164-.054-.56-.18-1.113-.18-1.364 0-2.277.993-2.277 2.414 0 1.284.722 2.413 2.206 2.413.432 0 .794-.027 1.184-.163l-.055-.532c-.343.126-.678.207-1.04.207-1.04 0-1.672-.876-1.672-1.925 0-1.122.624-1.927 1.735-1.927.308 0 .68.1.986.236l.047-.543zm50.48-20.666h.568v-4.122h1.04v-.487h-1.04v-.4c0-.55-.082-1.392.696-1.392.163 0 .335.037.453.1l.036-.496c-.11-.064-.354-.09-.535-.09-1.184 0-1.22.975-1.22 1.943v.335h-.93v.487h.93v4.122zm38.193-60.14h-.57v2.55c0 .77-.323 1.68-1.365 1.68-.786 0-1.092-.56-1.092-1.427v-2.803h-.57v2.948c0 1.012.433 1.77 1.573 1.77.96 0 1.303-.513 1.49-.93h.02v.822h.55c-.036-.37-.036-.732-.036-1.084v-3.526zm66.022 61.013h.568v-2.55c0-.768.325-1.68 1.367-1.68.785 0 1.092.56 1.092 1.427v2.803h.57v-2.947c0-1.013-.435-1.77-1.574-1.77-.958 0-1.303.513-1.492.93h-.018v-.823h-.55c.036.37.036.732.036 1.085v3.525zm24.482-63.183h-.567v2.947h-.02c-.08-.226-.532-.885-1.437-.885-1.357 0-1.897 1.01-1.897 2.412 0 1.366.63 2.414 1.897 2.414.66 0 1.13-.253 1.438-.84h.02v.73h.566v-6.78zm86.817 87.43c0-.896.28-1.926 1.366-1.926 1.013 0 1.367 1.086 1.367 1.927 0 .84-.354 1.926-1.367 1.926-1.085 0-1.365-1.03-1.365-1.926m4.793 2.305h.568v-4.61h-.567v4.61zm15.856-89.553h-.57v.757h.57v-.758zm7.343 87.33h.57v-2.55c0-.767.324-1.68 1.365-1.68.786 0 1.095.56 1.095 1.43v2.8h.567v-2.946c0-1.012-.432-1.77-1.572-1.77-.96 0-1.303.514-1.492.93h-.018v-.822h-.55c.035.37.035.732.035 1.084v3.525zm21.08-83.038c0-.895.28-1.926 1.365-1.926 1.04 0 1.365.814 1.365 1.926 0 .84-.37 1.818-1.4 1.818-.97 0-1.33-.913-1.33-1.818m3.298-2.305h-.567v.524h-.017c-.427-.55-.824-.63-1.44-.63-1.354 0-1.896 1.01-1.896 2.412 0 1.023.47 2.305 1.94 2.305.59 0 1.097-.235 1.405-.902h.017c0 1.3-.127 2.368-1.59 2.368-.5 0-1.004-.145-1.356-.327l-.046.57c.235.072.788.245 1.392.245 1.583 0 2.16-1.048 2.16-2.332v-4.23zm93.07 61.013h.57v-.73h.018c.308.585.777.84 1.437.84 1.267 0 1.898-1.05 1.898-2.415 0-1.4-.542-2.413-1.898-2.413-.903 0-1.357.658-1.437.885h-.02V633.1h-.568v6.78zm34.83-58.708c0 .895-.278 1.926-1.365 1.926-1.014 0-1.366-1.085-1.366-1.926 0-.84.325-1.926 1.365-1.926 1.087 0 1.366 1.03 1.366 1.926m1.856-2.305h-.624l1.634 4.666-.117.407c-.18.596-.343 1.003-.834 1.003-.206 0-.316-.036-.422-.072l-.056.488c.19.045.407.073.616.073.64 0 .967-.632 1.184-1.265l1.842-5.298h-.596l-1.328 3.843h-.01l-1.29-3.843"/><path d="M96.83 59.054h.665V8.334h-.666v50.72z"/></g><path d="M253 68h109V0H253v68z" fill="none"/><path d="M261.81 60.23h85.08v1.085h-85.08zm26.263-54.908s.885-.25 1.283-.696c.397-.447.546-.587.546-.835s-.05-1.142-.05-1.142-.148.198-.596.298c-.447.1-.487.2-.736.596-.248.398-.447 1.78-.447 1.78m-17.5-11.2c-.2.25-.244.633-.348 1.107-.105.478-.07 1.008-.07 1.008s.777-.126 1.264-.673c.485-.546.475-.994.436-1.192-.04-.2-.238-.35-.238-.35s-.846-.15-1.045.1m7.702-12.653s.044 1.13.64 1.877c.597.745 1.48 1.203 1.88 1.69.398.488.696 1.283.696 1.283s-.605-.154-.804.68c-.2.835.293 1.444.055 1.593-.237.15-1.08.297-2.163.983-1.084.687-3.72 2.266-4.158 2.713-.438.447-.852.928-.852.928s-.272-.31-.77-.11c-.496.2-.543.467-.543.467l-1.126-.137s.537-.596.686-1.044c.15-.447.74-.163 1.386-.51.646-.35 1.424-.934 2.557-1.868 1.133-.935 2.22-1.628 2.022-2.214-.2-.587-1.497-1.028-2.132-2.608-.636-1.58-.24-3.063.247-3.312.486-.248 2.378-.412 2.378-.412m-9.563.818c.378.423.542.547.98.786.437.238.657.172.657.172s.05-.502.03-.812c-.03-.485-.284-.818-.284-.818s-.52-.104-.81-.25c-.23-.112-.283-.535-.283-.535s-.93.74-.29 1.458m-5.086-16.89s-.652-.406-1.438.19c-.785.596-1.2 1.593-1.003 1.665.32.116 1.566-.072 1.65-.32.208-.628.238-.978.437-1.177.2-.198.353-.357.353-.357m11.53 2.316s-1.034-.826-1.68-1.075c-.647-.248-1.263-.995-1.552-1.443-.287-.448-.685-1.18-1.478-1.715-.734-.497-.79-.293-2.767.055-1.978.348-2.13.412-2.983.412-1.367 0-1.936.688-1.313.792 1.183.2 1.386 1.062 1.698.712.68-.764 1.482-.852 2.516-.9 1.034-.05 1.583-.26 1.92.04.338.298.04.347.537.795.498.446.3.06.597.744.3.686.497 2.318 2.028 3.163 1.532.845 1.382.676 1.382.676s.05-.816.398-1.313c.348-.497.697-.944.697-.944m14.316 1.58c.394-.23.73-.47 1.164-.125.63.503-.098.96.05 1.907.15.944.51 1.418.51 1.418s-.785.515-1.165.895c-.457.456-.457 1.038-.457 1.038s-.373-.664.377-1.472c.403-.434.678-1.194.37-1.976-.538-1.373-1.107-1.01-1.85-.522-.6.397.148-.664 1-1.162m-.98-.083s-.725.332-1.098.83c-.718.956-.174.33-.81 1.165-.526.69-.838.942-2.13 1.19-.45.086-2.217-.248-2.217-.248s.834.785 2.664.646c1.693-.128 2.377-.696 2.377-.696s-.573 1.572-3.708 1.332c-.82-.063-1.498.352-1.498.352s0 .623-.532 1.28c-.54.663-1.094.744-1.094.744s.692.304 1.92-.965c.485-.502.136-.593.6-.747.313-.104 2.02.01 3.66-.498 1.206-.375 1.74-1.927 1.842-2.55.025-.15-1.947 1.052-.576-.922.187-.332.6-.913.6-.913m-7.3.183s.995-.25 1.133-.497c.14-.25.1-.588.647-.44.547.15.487.986 1.383 1.185.894.198 2.525-.15 2.525-.15s-1.73 1.044-2.615.945c-.885-.1-.742-.7-1.34-1-.596-.297-1.733-.044-1.733-.044m7.915-.636s1.558-1.12 2.355-.186c.795.934.17 1.22.085 2.44-.084 1.192 1.22 1.754 1.22 1.754s-.55-.413.086-1.944c.32-.767.258-3.366-1.617-3.506-.428-.032-.736-.686-.736-.686s-.298.735-.598 1.134c-.298.398-.795.994-.795.994m2.03-5.2s.248-.2.446-.1c.2.1.398.248.398.248s-.238.636.25 1.183c.487.55 1.382 1.245 1.48 2.33.1 1.082-.198 1.828-.198 1.828s.312-.955-.745-2.177c-.637-.735-.34-.337-1.233-.536-.76-.17-.797-.845-.797-.845s.082-.208.15-.45c.054-.182 1.243 1.343.1-.536-.054-.088.01-.227.03-.35.045-.298.12-.595.12-.595m2.773.198s-.657-.835-1.044-1.283c-.388-.447-.437-.497-.437-.497s-.25.15-.498.05c-.25-.1-.896-.447-.896-.447s.15.508.15.796c0 .288-.05.537-.05.537s.448-.2.796 0c.348.2.387-.15.785 0s1.193.845 1.193.845m-5.35-6.88s.25.248 1.045.198c.795-.05.885-.348 1.68-.1.795.25 1.143.845 1.143.845l-.845.052s-.457-.3-.795-.35c-.338-.05-.885.05-.885.05s.537.06 1.034.45c.497.386.398.585.945.984.546.397.984.308 1.282.894.298.587.796 1.58.796 1.58s-.607-.347-1.144-.297c-.537.05-.736.298-1.034.15-.298-.15-.696-.448-.696-.448l-.163-1.032s.49.38.86.395c.156.006.397-.05.397-.05s-.788-.224-.9-.64c-.094-.354-.88-.752-.88-.752s-.646-1.084-.895-1.283c-.248-.2-.945-.646-.945-.646m-1.78-1.233s1.204-.596 1.74-.696c.538-.1.637-.15 1.084 0 .448.15.488 0-.298.298-.785.3-1.282 1.134-1.282 1.134s-.3-.29-.547-.487c-.25-.2-.696-.25-.696-.25m-1.382-1.242s.34-.325.747-.536c.406-.21 1.332-.298 1.332-.298s-.597.248-.995.835c-.38.56-.486.896-.486.896l-.25-.15-.348-.745zm-20.822 92.33s.582-.248 1.378.1c.796.348.695 1.084.695 1.084s-.1.15-.448.398c-.348.25-.398.25-.398.25s-.222-.23-.583-.304c-.357-.074-1.04-.05-.396-.198.402-.09 1.128.176 1.13-.046 0-.252-.173-.663-.47-.862-.3-.198-.908-.42-.908-.42m1.377-.498s.407-.298.944-.298c.537 0 1.233.348 1.233.348s.05.498-.05.746c-.1.25-.1.437-.1.437l-.595.1s.01-.388-.438-.785c-.447-.4-.994-.548-.994-.548m19.634 28.648s-.246.954-.924 2.51c-.456 1.048-1.03 2.23-.46 3.448.318.678.676.8 1.168 1.985.494 1.186-.09 2-.09 2s.862-.875.63-1.845c-.23-.97-1.097-2-1.308-2.557-.34-.892.15-2.26.43-3 .555-1.464.555-2.54.555-2.54m-1.785.4s.18-1.67-.8-1.996c-.977-.326-1.75-.447-2.076.38-.327.828-.604 2.333-.942 2.986-.338.652-.996 1.2-1.432 1.2-.435 0-1.37-.062-1.37-.062l-.247-.584s1.073.426 1.617.154 1.014-.527 1.286-1.668c.272-1.143.054-3.015.49-4.103.435-1.088 1.413-2.242 2.567-2.133 1.154.108 1.707.175 2.292 1.268.506.948.816 2.356-.185 4.742-.648 1.543-1.21 2.103-1.688 3.81-.52 1.858.843 2.08 1.442 3.548.598 1.47.11 1.408 0 2.44-.11 1.035.246 2.456.246 2.456l-.735-.702s.345-1.923.18-2.685c-.163-.76-1.554-2.078-1.554-2.078s1.05 1.525 1.002 2.772c-.063 1.63-.725 3.093-.725 3.093s.65-1.738-.03-3.124c-.43-.878-.586-.478-1.078-1.77-.353-.927-.31-2.007-.31-2.007s-.445 1.032-.228 2.24c.217 1.208.392 1.088.175 1.862-.24.85-.937 1.696-.937 1.696s.594-.94.236-2.114c-.38-1.25-.616-.97-.586-2.187.042-1.622 1.23-2.488 1.23-2.488s-.93-.02-1.476 1.287c-.544 1.305-.384 1.89-.384 1.89s-.653-1.252.162-2.514c.817-1.262.992-.785 2.08-2.254 1.087-1.468 2.023-2.067 2.186-3.71.163-1.643-.035-3.06-.773-3.23-1.632-.383-2.35 1.097-2.35 1.097s1.236-.838 2.172-.24c.936.6.54 2.725.54 2.725M273.61 50.77s1.597 1.685 1.417 5c-.18 3.313-1.898 5.933-1.898 5.933s2.41-2.29 2.29-6.114c-.12-3.824-1.81-4.82-1.81-4.82m-11.775 3.995c0-.3.316-.466.617-.466.256 0 .557.074.557.33 0 .3-.302.39-.588.48 0-.15.03-.254.06-.39-.135 0-.226.03-.36.045h-.287zm6.084-16.282c-.008-.033.268-.167.375-.332.262-.4.594.093.764.01-.074.064-.425-.237-.492.037-.046.187.15.35.337.35.188 0 .9-.492.9-.686 0-.146-1.53-.1-1.283-.248.415.016 1.382-.1 1.382-.1s1.034.548-.15 1.046c-.252.106-1.206.26-1.377.192-.172-.066-.434-.17-.458-.266m7.946 22.968s-.27-.558-1.904-1.904c-1.024-.844-1.538-1.556-2.02-2.672-.35-.814-.3-1.717-.3-1.717s-1.655.1-1.958.332c-.455.35-1.62 1.695-2.92 1.625-2.23-.12-2.472-1.263-2.472-1.263s2.894.72 3.495-1.176c.156-.495-.662-.3-1.657.3-.404.244.06-1.143 1.597-1.203 2.077-.08 1.115-.394.12-.634-1.04-.25-2.32.274-2.32.274s.385-.544 1.477-1.176c1.578-.91 2.818.11 3.463.06 1.597-.12 2.26-1.295 2.26-1.295s-.996.674-2.02.694c-1.657.032-1.23-1.137-2.5-1.297-.962-.12-1.656.936-1.656.936s-.36-1.597 1.116-2.02c1.03-.292.52-1.174 1.477-1.174 1.958 0 1.21 1.168 2.342 1.343 1.132.175 1.83-.3 2.526-.935.896-.944 2.775-5.555 1.468-8.485-1.17-3.2-2.49-3.546-3.414-3.73-.302-.06-.542-.782-.542-.782s-.12-.842-.41-1.513c-.393-.906-.782-.7-.782-.7s-.054.236.016.796-.016 1.036-.016 1.036-.34.686-.585.44c-.245-.245-.24-.54-.24-.54s-.346.08-1.258.922c-.91.84-1.24.928-1.525 1.895-.466.84-1 1.616-2.027 2.433-1.027.817-1.79 1.058-2.052 1.304-.428.27-.113.36 0 .625.114.264.068.628.89.416.586.018.68.23.87.356.678.455-.375 1.24 0 1.306.867.15.678-1.043.98-1.306.303-.262.477-.28.966-.413.488-.13.734-.188 1.017-.056.284.132 1.59.732 2.558.282 2.297-.428 3.006-3.633 3.006-3.633s.372 2.934-2.914 4.803c-.91.682-1.154.875-1.59 1.005-.435.13-.96-.135-1.926.376-.965.51-1.1.833-1.59 1.155-.488.322-1.188.28-1.472.64-.284.36-.735.836-1.114 1.59-.378.754-.965 1.283-1.02 1.89-.058.605-.058 1.302-.058 1.302s.492-.02.946 0c.455.02 1.038.037 1.038.037s.08-.294.776-1.04c.53-.566 1.086-.985 1.208-.812.132.19-.304.21-.755.813-.623.837-.568 1.7-.568 1.7s-1.798-.093-3.118-.036c-1.322.056-1.13-.09-1.622.024-.492.112-2.684.638-3.14.676-.453.038-1.075-.147-1.545.288-.47.435-.266 1.32-.285 1.62-.02.3.132 3.154.02 3.456-.115.303-.342.906-.21 1.265.134.36.3.416.49.964.19.55 1.036-.34 1.34-.794.102-.153.343-.38 0-.587-.023-.065-.036.037-.26-.575-.342-.924-.33-.756-.234-1.683.094-.927-.05-1.363.082-1.533.132-.17 0-.19.207-.343.208-.15.573-.566.873-.603.3-.04 1.58.207 2.66.15 1.077-.056 2.522-.03 3.7-.15 2.076-.208 2.39-.83 2.618-.66.125.093.406.862-.935 1.203-1.313.333-2.114.12-2.114.12s.867 1.45 1.51 2.642c.643 1.19.848 2.403 1.567 3.365.35.884-.064 1.9 1.932 3.112.72.438 1.318 2.147 1.318 2.147.203.143.023.397.567.288.544-.11.87.11.87.11s-.108-.284.218-1.535c.327-1.252 1.223-2.84 1.223-2.84s-.667 1.752-.613 3.938c.054 2.187.218 3.015.87 4.32.653 1.306.733 1.115 2.213 2.486 1.48 1.37 1.7 1.59 1.808 2.84.11 1.252.164 1.323 0 2.71-.156 1.317-.032 1.887-.537 2.974-.16.34-.44.754-.06.863.382.11.406-.23.842-.61.433-.382 1.006-.106 1.006-1.26s-.333-.797-.115-2.657c.218-1.862.862-2.573.7-3.17-.164-.6-.753-.46-.97-1.45-.22-.992-.28-2.742-.77-3.286s1.145.466 2.027-2.603c.668-2.324.32-1.972-.398-3.506-.72-1.534-.812-1.973-1.764-2.886m-12.474-17.84c-.126-.175-.093-.125.077-.352.17-.227.082-.118.346-.062.265.058.284.17.19.322-.095.152-.34.166-.614.092m-24.138 41.4c-.068-.957-.068-1.874-.068-2.83v-5.03c0-.73.04-2.09.068-2.562l-2.158.134c.27 1.51.27 3.128.27 3.708v3.75c0 1.063-.054 2.06-.068 2.83h1.956zm1.375-77.445c-.028-.755-.07-1.537-.07-2.306V2.795c0-.715.015-1.106.07-2.144l-2.09.135c.12.97.202 1.86.202 2.845v1.63c0 .77-.04 1.552-.068 2.307h1.955zm-2.416-1.32c-.284.026-.58.066-.863.066-1.657 0-2.507-1.05-2.507-2.454 0-1.255.81-1.89 2.117-1.89.432 0 .863.07 1.28.123V.61c-.403-.068-.78-.12-1.375-.12-1.725 0-3.842.686-3.842 3.37 0 2.722 1.968 3.937 4.018 3.937.392 0 .783-.055 1.174-.15v-1.4zm-10.256 3.698c-.027-.754-.068-1.766-.068-2.305v-.863c0-1.63.297-2.427 1.456-2.427.89 0 1.147.796 1.147 1.968V7.64c0 .768.04 1.537.068 2.305h1.888c-.08-.74-.135-1.766-.135-2.305V6.05c0-1.93-.593-3.183-2.265-3.183-1.362 0-1.928.66-2.427 1.16-.093-.378-.134-.688-.24-.998l-1.714.133c.216.972.404 1.862.404 2.846v1.63c0 .768-.04 1.55-.067 2.305h1.955zm-1.246-2.378c-.068-.997-.135-1.564-.135-2.79V2.928c0-.85.094-1.512.135-2.28l-2.09.135c.04.445.134 1.214.134 2.144v.983c0 1.376-.175 2.4-1.456 2.4-1.078 0-1.226-.997-1.226-2.4V2.93c0-.85.094-1.512.135-2.28l-2.092.135c.04.445.136 1.214.136 2.144v1.846c0 1.914.754 3.02 2.278 3.02 1.322 0 1.888-.7 2.36-1.172.027.31.04.646.067.943h1.752zm-10.625.23c2.144 0 3.573-1.66 3.573-3.695 0-2.144-1.443-3.613-3.573-3.613-2.144 0-3.6 1.428-3.6 3.612 0 2.143 1.483 3.694 3.6 3.694m-1.78-3.694c0-1.28.58-2.13 1.78-2.13 1.172 0 1.753.782 1.753 2.13 0 1.254-.567 2.21-1.753 2.21-1.133 0-1.78-.942-1.78-2.21m-2.41 1.9c-.378.082-.662.108-1.16.108-2.225 0-3.438-1.563-3.438-3.626 0-1.942 1.118-3.06 2.924-3.06.513 0 1.025.094 1.524.175v-1.686c-.526-.122-1.05-.176-1.59-.176-3.102 0-4.88 1.82-4.88 4.558 0 3.046 1.873 5.5 5.243 5.5.46 0 .918-.014 1.376-.108V6.003zm36.057-3.867c.297-1.35.445-2.09 1.173-3.923l2.32-5.933-2.023.134c-.216.74-.378 1.43-.607 2.157l-.85 2.658h-.027l-.43-1.35c-.473-1.428-1.012-2.736-1.416-3.6l-2.023.136c.743 1.443 1.538 2.926 2.24 4.773l.713 1.888-.296.863c-.256.74-.593 1.495-.93 2.33l2.157-.133zm-11.118 7.796c-.148.03-.297.042-.445.042-.996 0-.996-.634-.996-1.59V5.656h1.36l.096-1.348c-.607.067-1.065.067-1.456.067v-.23c0-.283.068-1.186.12-1.793l-1.94.674v1.35h-1.2l-.095 1.347c.498-.027.997-.068 1.294-.068V9.04c0 2.078 1.442 2.415 2.345 2.415.296 0 .54-.04.81-.067l.106-1.457zm-8.718 8.916c-.028-.755-.068-1.767-.068-2.305v-.862c0-1.632.297-2.427 1.456-2.427.89 0 1.146.796 1.146 1.97v1.32c0 .77.04 1.538.068 2.306h1.887c-.08-.74-.135-1.767-.135-2.305v-1.59c0-1.928-.593-3.182-2.265-3.182-1.362 0-1.928.66-2.426 1.16-.094-.378-.135-.688-.242-1l-1.712.136c.215.97.404 1.86.404 2.845v1.63c0 .77-.04 1.55-.068 2.306h1.955zm-1.498-2.33c-.067-.997-.134-1.564-.134-2.79v-1.848c0-.85.094-1.51.134-2.278l-2.09.134c.04.445.135 1.214.135 2.144v.984c0 1.376-.175 2.4-1.456 2.4-1.08 0-1.228-.997-1.228-2.4v-.984c0-.85.095-1.51.136-2.278l-2.09.134c.04.445.134 1.214.134 2.144v1.847c0 1.915.755 3.02 2.28 3.02 1.32 0 1.886-.7 2.358-1.173.028.31.04.647.067.944h1.753zm-10.625.23c2.144 0 3.573-1.66 3.573-3.694 0-2.144-1.442-3.614-3.573-3.614-2.144 0-3.6 1.43-3.6 3.614 0 2.143 1.483 3.694 3.6 3.694m-1.78-3.694c0-1.28.58-2.13 1.78-2.13 1.173 0 1.754.78 1.754 2.13 0 1.253-.568 2.21-1.755 2.21-1.133 0-1.78-.943-1.78-2.21m-2.41 1.9c-.377.082-.66.108-1.16.108-2.225 0-3.438-1.564-3.438-3.626 0-1.942 1.12-3.062 2.926-3.062.513 0 1.025.095 1.524.176V6.863c-.527-.122-1.052-.175-1.592-.175-3.1 0-4.88 1.82-4.88 4.557 0 3.047 1.874 5.5 5.245 5.5.458 0 .916-.012 1.375-.107v-1.686zm48.377-9.127c-.285.052-.57.077-.854.077-1.915 0-1.915-1.217-1.915-3.054V-2.38h2.614l.18-2.588c-1.164.13-2.044.13-2.794.13v-.44c0-.544.13-2.278.232-3.443l-3.726 1.293v2.59h-2.305l-.18 2.587c.957-.052 1.915-.13 2.484-.13v6.496c0 3.986 2.768 4.633 4.5 4.633.572 0 1.038-.08 1.555-.13l.207-2.795zM223.6 51.302c-.052-1.448-.13-3.39-.13-4.424v-1.655c0-3.133.57-4.66 2.797-4.66 1.708 0 2.2 1.527 2.2 3.78v2.536c0 1.476.078 2.952.13 4.426h3.623c-.155-1.423-.26-3.39-.26-4.425v-3.053c0-3.7-1.138-6.108-4.347-6.108-2.614 0-3.7 1.266-4.66 2.224-.18-.724-.257-1.32-.465-1.914l-3.285.258c.414 1.864.776 3.572.776 5.46v3.133c0 1.476-.077 2.977-.13 4.426h3.754zm-3.697-7.292c-.958.18-1.94.414-2.925.414-3.986 0-4.917-2.38-4.994-3.597h9.135c0-.26.026-.57.026-.83 0-3.053-1.398-6.754-6.238-6.754-3.727 0-6.42 2.537-6.42 6.186 0 4.478 3.003 7.842 8.05 7.842 1.14 0 2.226-.13 3.365-.415v-2.847zm-6.44-.306c.102-.957.905-2.536 3.027-2.536 1.734 0 2.64 1.502 2.64 2.537h-5.668zm-1.407 17.895c-2.485-2.795-4.115-4.814-5.642-7.247l-1.605-2.536 5.668-8.646h-4.347c-.362.855-1.14 2.33-2.097 3.91l-3.08 5.046 2.485 4.218c.44.777 2.77 4.038 3.702 5.254h4.918zm-10.506-14.768c-.05-1.346-.13-3.338-.13-4.762v-8.438c0-2.07.08-3.907.13-5.228h-4.53c.338 1.527.52 3.158.52 5.228v8.438c0 1.424-.053 3.416-.13 4.762h4.14z" opacity=".893" color="#000" fill="#fff" overflow="visible" enable-background="accumulate"/><g><path d="M391.153 4.89c-16.072 0-29.1 13.03-29.1 29.102 0 16.075 13.03 29.107 29.1 29.107.096 0 .19-.005.285-.007l160.646.006V4.89l-159.97.025c-.318-.01-.64-.024-.96-.024z" fill="none"/><path d="M524.71 30.815l8.16-.023c-.12-1.362-.53-2.42-1.235-3.194-.695-.764-1.6-1.15-2.71-1.15-1.14 0-2.08.386-2.83 1.15-.747.773-1.21 1.84-1.385 3.217zm-68.74 9.626c-1.43.93-2.947 1.62-4.534 2.074-1.59.446-3.285.674-5.094.674-3.618 0-6.454-.992-8.514-2.973-2.048-1.977-3.08-4.723-3.08-8.226 0-3.234 1.007-5.83 3.013-7.775 2.015-1.945 4.692-2.914 8.03-2.914 3.29 0 5.896 1.054 7.803 3.165 1.905 2.104 2.86 5.003 2.86 8.703v.22h-14.878v.09c0 1.672.568 2.99 1.71 3.958 1.135.97 2.693 1.453 4.676 1.453 1.335 0 2.664-.235 3.998-.712 1.323-.477 2.665-1.18 4.01-2.11zM429.206 3.005h-6.63v-31.02h6.63zm-17.078-6.404c-.992.8-2.02 1.392-3.094 1.777-1.07.385-2.22.575-3.444.575-2.03 0-3.56-.49-4.594-1.476-1.038-.984-1.55-2.445-1.55-4.373 0-1.688.763-3.074 2.292-4.163 1.528-1.082 4.882-2.376 10.057-3.867.015-.075.023-.16.03-.242.007-.09.016-.21.016-.362 0-1-.342-1.742-1.008-2.227-.672-.474-1.716-.717-3.115-.717-1.183 0-2.393.288-3.64.864-1.242.574-2.453 1.414-3.633 2.504l.092-5.228c1.27-.854 2.67-1.498 4.198-1.922 1.53-.417 3.246-.63 5.154-.63 3.034 0 5.228.584 6.584 1.75 1.36 1.172 2.042 3.042 2.042 5.608V12.7c0 .49.07.832.197 1.022.136.19.356.287.668.287.288 0 .574-.038.878-.114.3-.07.71-.21 1.21-.417v3.678c-1.196.574-2.253.998-3.187 1.264-.924.264-1.8.4-2.624.4-1.056 0-1.878-.197-2.477-.59-.597-.386-.947-.976-1.052-1.763zm.89.696v-5.138c-2.262.794-3.775 1.497-4.533 2.096-.764.598-1.143 1.308-1.143 2.133 0 .682.205 1.22.62 1.62.418.402.985.597 1.71.597.485 0 1.007-.113 1.576-.33.56-.22 1.15-.547 1.77-.978zm-39.3 11.392l-9.573-21.416h6.976l4.64 11.396 4.723-11.396h3.414l4.905 11.396 4.5-11.396h6.76l-9.573 21.416h-3.24l-5.123-11.706-5.123 11.706zM346.664 4.675V8.284c2.34 1.455 4.308 2.462 5.913 3.044 1.604.576 3.155.862 4.67.862 1.52 0 2.67-.234 3.457-.696.78-.47 1.173-1.158 1.173-2.075 0-.74-.24-1.34-.733-1.785-.486-.455-1.628-.992-3.414-1.614-4.42-1.55-7.462-3.13-9.12-4.75-1.665-1.62-2.496-3.685-2.496-6.197 0-2.642 1.08-4.792 3.247-6.45 2.163-1.656 4.987-2.48 8.46-2.48 1.755 0 3.52.21 5.297.642 1.772.43 3.526 1.06 5.252 1.884v6.363c-2.08-1.05-3.95-1.823-5.608-2.322-1.657-.505-3.163-.756-4.524-.756-1.476 0-2.604.21-3.377.644-.78.43-1.164 1.043-1.164 1.84 0 .648.348 1.255 1.043 1.83.69.568 1.74 1.104 3.15 1.627.294.113.74.287 1.345.507 2.96 1.097 5.08 2.037 6.366 2.816 1.346.823 2.36 1.89 3.05 3.193.69 1.3 1.028 2.823 1.028 4.563 0 2.868-1.08 5.123-3.246 6.767-2.162 1.64-5.168 2.46-9.012 2.46-1.924 0-3.784-.25-5.578-.758-1.794-.5-3.52-1.256-5.177-2.256m111.506 13.957v-7.91h1.977v6.382h3.41v1.528zm-6.72-21.465h-2.04V-.234h2.04zm-3.164-.662c-.475.272-.96.472-1.46.607-.497.13-1.017.195-1.564.195-.62 0-1.19-.094-1.706-.28-.517-.19-.97-.468-1.36-.833-.398-.38-.705-.825-.912-1.336-.21-.508-.315-1.055-.315-1.64 0-1.23.41-2.22 1.23-2.972.822-.75 1.902-1.126 3.248-1.126.48 0 .953.052 1.412.157.46.106.91.268 1.358.487v1.855c-.437-.285-.874-.494-1.317-.634-.438-.14-.882-.21-1.322-.21-.8 0-1.428.216-1.885.65-.458.434-.69 1.03-.69 1.793 0 .74.22 1.33.658 1.77.436.442 1.026.662 1.764.662.475 0 .95-.084 1.43-.25.478-.168.955-.416 1.43-.744zM431.69 5.268v4.97h-1.957V1.046h1.734l4.24 4.717V1.046h1.96v7.912H435.9zm-2.515 5.394v4.53c0 1.108-.33 1.972-.986 2.59-.658.62-1.578.932-2.758.932-1.176 0-2.093-.31-2.75-.93-.66-.62-.987-1.484-.987-2.592v-4.53h1.99v4.45c0 .63.15 1.11.45 1.446.303.334.74.5 1.312.5.573 0 1.002-.166 1.3-.497.3-.33.45-.815.45-1.448v-4.45zm-16.956 9.654c0-.59.104-1.132.31-1.63.208-.5.518-.947.93-1.338.398-.376.853-.657 1.36-.842.506-.185 1.073-.278 1.695-.278.626 0 1.198.093 1.705.28.51.187.964.467 1.366.84.407.39.718.837.925 1.338.21.498.314 1.04.314 1.63 0 .584-.105 1.125-.315 1.625-.207.502-.518.943-.924 1.327-.404.377-.86.66-1.373.85-.51.192-1.075.287-1.698.287-.62 0-1.184-.095-1.69-.282-.51-.19-.964-.475-1.367-.855-.407-.384-.717-.825-.925-1.326-.21-.5-.314-1.04-.314-1.624zm3.16-7.67c0 .703.213 1.285.638 1.74.424.45.964.68 1.62.68.66 0 1.2-.23 1.626-.68.425-.455.637-1.037.637-1.74 0-.71-.212-1.29-.637-1.748-.425-.457-.967-.684-1.625-.684-.657 0-1.197.227-1.62.684-.426.457-.64 1.04-.64 1.748zm-2.95 3.285c-.474.273-.96.473-1.458.608-.498.13-1.017.195-1.566.195-.62 0-1.187-.094-1.705-.28-.518-.19-.972-.468-1.36-.834-.4-.38-.703-.826-.912-1.336-.21-.507-.315-1.054-.315-1.638 0-1.23.408-2.22 1.23-2.973.82-.75 1.902-1.126 3.247-1.126.484 0 .955.052 1.412.157.458.107.913.27 1.36.488v1.854c-.437-.284-.876-.493-1.317-.634-.44-.14-.882-.21-1.322-.21-.8 0-1.43.217-1.887.652-.454.432-.685 1.03-.685 1.792 0 .738.218 1.33.655 1.77.436.44 1.026.66 1.765.66.475 0 .95-.083 1.43-.25.478-.168.955-.415 1.43-.744zm-18.934-5.692V1.046h1.98v3.172h3.523V1.046h1.98v7.912h-1.98V5.752h-3.523v3.206zm-.13-2.208c-.48.363-.992.628-1.533.806-.54.175-1.134.262-1.777.262-.624 0-1.193-.094-1.713-.285-.52-.19-.972-.468-1.35-.828-.4-.38-.706-.825-.914-1.336-.21-.508-.315-1.055-.315-1.64 0-1.233.41-2.222 1.23-2.973.82-.75 1.905-1.125 3.26-1.125.492 0 .983.058 1.463.176.483.114.975.298 1.477.542v1.736c-.52-.27-1.024-.468-1.498-.6-.477-.134-.922-.198-1.335-.198-.8 0-1.427.216-1.88.65-.453.434-.68 1.03-.68 1.793 0 .744.215 1.335.65 1.775.43.437 1.015.657 1.745.657.197 0 .393-.02.58-.06.195-.044.386-.103.58-.183v-.995h-1.09v-1.49h3.1zm-8.626-5.19v4.53c0 1.11-.327 1.973-.985 2.592-.658.62-1.578.93-2.757.93-1.177 0-2.094-.31-2.752-.93-.656-.62-.986-1.483-.986-2.59V1.56h1.99v4.45c0 .63.15 1.11.453 1.445.3.334.738.5 1.31.5.57 0 1.005-.166 1.3-.497.3-.332.45-.816.45-1.45V1.56zm-16.61 17.476c0-.59.104-1.132.308-1.63.21-.5.518-.947.93-1.338.4-.376.853-.657 1.36-.842.51-.185 1.073-.278 1.695-.278.628 0 1.2.093 1.708.28.51.187.964.467 1.365.84.406.39.716.837.924 1.338.21.498.315 1.04.315 1.63 0 .584-.105 1.125-.316 1.625-.208.502-.518.943-.924 1.327-.404.377-.86.66-1.372.85-.512.192-1.078.287-1.7.287-.618 0-1.182-.095-1.69-.282-.507-.19-.963-.475-1.365-.855-.408-.384-.717-.825-.926-1.326-.21-.5-.313-1.04-.313-1.624zm3.16-7.67c0 .703.21 1.285.636 1.74.423.45.966.68 1.62.68.66 0 1.203-.23 1.628-.68.425-.455.636-1.037.636-1.74 0-.71-.21-1.29-.636-1.748-.425-.457-.967-.684-1.627-.684-.654 0-1.197.227-1.62.684-.425.457-.636 1.04-.636 1.748zm-9.294 3.947V7.4h2.92c1.077 0 1.87.19 2.383.562.512.37.77.95.77 1.736 0 .437-.114.81-.34 1.123-.227.31-.572.575-1.04.79.196.07.372.19.528.358.158.168.294.38.412.636l1.26 2.71h-2.232l-1.005-2.28c-.164-.363-.35-.61-.557-.745-.206-.14-.502-.206-.883-.206-.03 0-.068 0-.117.005-.05.003-.087.005-.115.005v3.218zm3.533-12.298c.366 0 .64-.08.82-.232.177-.152.268-.384.268-.696 0-.3-.093-.527-.28-.683-.187-.154-.456-.233-.807-.233h-.95v1.845zm-12.93 9.737c0-.59.105-1.132.312-1.63.207-.5.518-.947.927-1.338.4-.376.854-.657 1.363-.842.506-.185 1.072-.278 1.693-.278.63 0 1.2.093 1.708.28.51.187.964.467 1.364.84.408.39.717.837.923 1.338.213.498.316 1.04.316 1.63 0 .584-.104 1.125-.317 1.625-.206.5-.515.942-.923 1.326-.403.377-.86.66-1.372.85-.512.192-1.077.287-1.7.287-.617 0-1.18-.095-1.69-.282-.506-.19-.963-.475-1.366-.855-.406-.384-.717-.825-.924-1.326-.21-.5-.314-1.04-.314-1.625zm2.87-1.386c0 .703.212 1.285.637 1.74.425.45.966.68 1.62.68.66 0 1.203-.23 1.628-.68.423-.455.637-1.037.637-1.74 0-.71-.214-1.29-.637-1.748-.425-.457-.967-.684-1.627-.684-.654 0-1.195.227-1.62.684-.425.457-.637 1.04-.637 1.748zm-9.606 3.947V7.4h2.918c1.04 0 1.824.17 2.353.513.532.34.796.848.796 1.52 0 .35-.09.657-.27.922-.178.264-.44.472-.783.628.556.172.968.43 1.24.77.272.342.408.774.408 1.29 0 .762-.26 1.327-.78 1.704-.52.376-1.304.566-2.346.566zM349.9-4.74c.36 0 .626-.068.802-.205.175-.135.262-.338.262-.615 0-.304-.09-.532-.267-.683-.177-.147-.44-.22-.797-.22h-1.023v1.724zm-1.22 12.585h1.148c.512 0 .878-.07 1.097-.214.218-.144.328-.38.328-.71 0-.34-.116-.59-.347-.753-.232-.16-.596-.244-1.09-.244h-1.136v1.92m-26.328 1.36c-.944-1.894-.296-4.154-.684-6.186-.28-3.297-.195-6.606.042-9.902.027-2.264-2.155-4.416-4.464-3.82-2.568.43-5.575 1.408-6.712 3.983-1.012 2.163-1.954 4.368-3.06 6.49-.51-1.323.513-2.675.508-4.032.4-1.283.79-3.292-.813-3.908-1.81-.52-3.615-1.02-5.462-1.42 1.784-.995 3.923.1 5.86-.252 2.238.338 4.32-.672 5.843-2.26 1.433-1.38 3.03-3.356 2.218-5.47-.756-2.403-3.462-2.975-5.508-3.825-2.402-.93-4.542-2.39-6.78-3.647-.99-.75-2.84-1.25-3.278-2.186.932-.137 1.894.402 2.853.53l14.49 3.402c1.878.862 2.486 2.97 2.74 4.836 1.242 1.12 2.883-1.03 4.41-.355 1.054.024 3.037-1.457 3.33-1.01-1.52 1.203-2.447 2.837-3.444 4.415-1.146.716-1.588 2.367.052 2.75 1.74 1.084 2.428 3.35 1.685 5.242-1.037 4.087-1.773 8.237-2.817 12.322-.334 1.435-.668 2.87-1.01 4.304m-7.096-44.717c13.17 0 23.834 10.66 23.834 23.828 0 13.17-10.665 23.83-23.834 23.83-13.17 0-23.827-10.66-23.827-23.83 0-13.168 10.658-23.827 23.827-23.827z" fill="#fff" fill-rule="evenodd"/></g><path d="M567.725 65.207c-2.813-.96-3.308-5.628-.784-7.39.836-.584 2.765-.81 3.864-.455 1.404.454 2.603 2.248 2.608 3.897 0 .485-.04.492-2.914.492h-2.914l.144.492c.192.654 1.138 1.477 1.697 1.477.605 0 1.343-.39 1.796-.95.363-.446.397-.448 1.172-.086.923.432.957.56.35 1.316-.988 1.234-3.308 1.792-5.017 1.207zm-110.31-68.18c0-.468-.915-1.095-1.598-1.095-.744 0-1.523.52-1.523 1.02 0 .217.402.293 1.56.293.893 0 1.562-.094 1.562-.22zm20.21 14.4c-1.033-.515-1.02-.513-.95-.163.04.19-.285.274-1.058.274h-1.115l-.05-6.235c-.03-3.43-.054-6.358-.057-6.508-.004-.215-1.92-.274-8.818-.274h-8.812l.058-9.023c.057-8.85.067-9.025.504-9.047 1.836-.09 1.673.045 1.673-1.4v-1.312h-2.23v-2.593c0-1.426.108-2.897.24-3.27.323-.908 2.098-1.794 3.595-1.794h1.072v-1.62c0-.976-.097-1.656-.243-1.703-.507-.166-3.788.23-4.897.592-1.395.454-2.702 1.69-3.074 2.907-.15.495-.262 2.264-.262 4.17v3.31H450.97V-19.66l1.06.066 1.06.067.057 9.024.058 9.024H437.81v-8.968H440.897l.074-4.042c.07-3.78.105-4.072.55-4.507.64-.628 1.977-.628 2.618 0 .45.44.475.676.475 4.507v4.04h3.71l-.07-4.757c-.084-5.546-.19-5.917-1.91-6.664-1.324-.575-3.482-.46-4.48.238-.823.574-.93.577-.93.026 0-.396-.15-.437-1.563-.437h-1.56V-51.056h60l-.007 11.566c-.005 15.136-.073 20.718-.25 20.4-1.27-2.29-2.467-3.06-4.762-3.062-1.22 0-1.746.107-2.41.492-.996.577-1.046.586-1.046.19 0-.22-.422-.332-1.505-.406-.83-.056-1.582-.062-1.674-.013-.092.05-.168 4.663-.168 10.25v10.16h-9.144v2.845c0 1.564.075 2.84.167 2.837.093-.004.363-.15.6-.328.6-.444 2.097-.402 3.03.084 1.174.614 1.772 1.81 1.776 3.56.005 2.28-.825 3.672-2.468 4.134-1.063.3-1.33.273-2.324-.224zm-2.627-10.62c.707-.315 1.108-1.458.96-2.736-.14-1.222-.678-1.824-1.63-1.824-1.076 0-1.655.82-1.655 2.34 0 1.358.264 1.977.962 2.252.657.26.716.26 1.363-.03zm-13.145-17.84c1.176-.642 1.143-.64 1.143-.096 0 .4.15.44 1.617.44h1.617l-.067-4.54c-.077-5.28-.202-5.732-1.83-6.618-.945-.515-1.196-.547-4.348-.547h-3.346l-.07 1.182c-.037.65.033 1.244.156 1.32.124.074 1.36.166 2.746.203 2.62.07 3.145.24 3.033.977-.053.35-.355.496-1.482.72-2.456.49-3.774.943-4.51 1.55-2.242 1.85-1.45 5.287 1.38 5.98 1.132.278 2.864.03 3.96-.57zm-.09 34.933c-.39-.31-.47-.534-.357-.98.17-.664.636-.948 2.427-1.48l1.284-.38v.533c0 .917-.604 2.006-1.31 2.365-.883.448-1.427.432-2.045-.058zm17.714 6.467c1.316-.532 2.172-1.31 2.572-2.338.97-2.498-.647-4.218-4.644-4.936-.833-.15-1.736-.45-2.008-.67-.474-.38-.477-.41-.095-.793.575-.572 2.24-.52 3.555.115l1.054.507 1.117-.943 1.116-.945-.833-.498c-1.275-.764-2.86-1.15-4.732-1.15-2.893 0-4.833 1.363-5.06 3.554-.21 2.04 1.162 3.17 4.613 3.798 2.078.378 2.577.67 2.35 1.372-.182.563-1.643.994-2.65.782-.68-.144-1.874-.703-2.63-1.23-.297-.207-.566-.082-1.517.704l-1.155.956.515.4c.962.75 2.62 1.48 3.8 1.676 1.423.236 3.57.068 4.632-.36zm1.57 17.81c-2.68-1.145-3.06-5.456-.642-7.266.75-.56 1.02-.63 2.46-.63 1.287 0 1.745.093 2.235.452 1.06.777 1.49 1.536 1.6 2.82l.102 1.214h-2.816c-1.635 0-2.815.087-2.815.208 0 .543.566 1.318 1.13 1.547.757.31 1.467.123 2.24-.587.575-.527.592-.53 1.395-.154.446.208.812.443.812.52 0 .378-1.728 1.772-2.435 1.964-1.093.298-2.447.262-3.264-.087zm2.245-45.165c0-.99-1.63-1.39-2.51-.618-.772.677-.483.93 1.06.93 1.108 0 1.45-.073 1.45-.312zm-51.95 10.866v-3.96l1.17.066c.792.044 1.154.154 1.116.34-.076.373.165.342.643-.08.613-.544 2.173-.618 3.094-.148.758.387.81.387 1.81-.018 1.25-.507 2.45-.354 3.234.414.516.506.533.63.533 3.923v3.4h-2.23l-.002-2.46c-.004-2.774-.24-3.518-1.152-3.622-1.042-.12-1.3.574-1.3 3.506v2.576h-2.229v-2.7c0-2.34-.055-2.75-.408-3.063-.505-.448-1.234-.468-1.592-.044-.173.203-.282 1.277-.306 3.007l-.037 2.69-1.17.066-1.172.066V7.877zm33.01-2.53v-3.94h1.228c.9 0 1.226.082 1.226.305 0 .24.183.212.837-.123.973-.5 2.516-.44 3.146.118.363.324.464.316 1.272-.098 1.18-.603 2.604-.468 3.414.326.583.57.587.6.587 3.907v3.332l-1.17.066-1.172.067v-2.65c0-2.96-.165-3.498-1.078-3.498-1.05 0-1.152.295-1.152 3.324v2.8H469.037v-2.8c0-2.946-.116-3.325-1.014-3.325-1.008 0-1.217.59-1.217 3.462v2.663H464.353zm28.016 0v-3.94h1.226c.95 0 1.227.076 1.227.335 0 .3.07.3.66 0 .36-.184.863-.334 1.114-.334.393 0 .458.137.458.98 0 .89-.055.99-.614 1.108-1.664.35-1.617.258-1.617 3.157v2.63h-2.452zm-9.86-14.003v-4.813l.834.438c.58.305 1.26.438 2.24.438 2.15 0 3.45-.795 4.475-2.735l.462-.875.01 6.18.01 6.18H482.508v-4.813zm1.586 18.298c-1.934-1.596-1.254-6.018 1.01-6.576.84-.207 1.953.398 2.388 1.298.476.984.48 3.154.007 4.312-.622 1.522-2.194 1.968-3.407.966z" fill="#fff"/></g></svg>