<svg xmlns="http://www.w3.org/2000/svg" width="253" height="68"><g><path opacity=".893" color="#000" overflow="visible" enable-background="accumulate" fill="none" d="M.001.001h253v68h-253z"/><g fill="#fff"><path d="M12.168 52.389h-1.08v6.673h3.9v-1.149h-2.644v-5.524h-.176"/><path d="M19.92 53.909c.416.412.652 1.07.652 1.811 0 1.113-.5 2.295-1.907 2.295s-1.911-1.182-1.911-2.295c0-.741.24-1.399.654-1.811.328-.325.751-.491 1.257-.488.504-.002.927.163 1.255.488m-4.475 1.811c0 2.093 1.261 3.445 3.219 3.445 1.957 0 3.221-1.353 3.221-3.445 0-2.06-1.295-3.445-3.221-3.445-1.926 0-3.219 1.385-3.219 3.445"/><path d="M27.095 52.384h-5.012v1.149h1.966v5.525h1.257v-5.525h1.879v-1.149h-.089"/><path d="M32.803 52.384h-4.883v1.149h1.835v5.525h1.257v-5.525h1.966v-1.149h-.175"/><path d="M37.441 52.384h-3.719v6.674h3.894v-1.149h-2.636v-1.733h2.402v-1.148h-2.402v-1.495h2.636v-1.149h-.175"/><path d="M40.756 53.533c.41 0 1.095.098 1.095.756 0 .51-.448.81-1.191.81h-.598v-1.567h.695zm-1.776-1.149h-.176v6.674h1.257v-2.811h.368c.474 0 .664 0 .901.515l1.016 2.296h1.425l-1.318-2.773c-.129-.252-.243-.406-.382-.525.657-.251 1.087-.798 1.087-1.491 0-1.66-1.328-1.885-2.629-1.885h-1.55"/><path d="M49.513 52.384h-1.154l-1.746 2.687-1.787-2.687h-1.483l2.624 3.904v2.769h1.256v-2.769c.064-.085 2.621-3.904 2.621-3.904h-.332"/><path d="M56.535 52.384h-3.537v6.674h1.256v-2.882h2.349v-1.148h-2.349v-1.495h2.457v-1.149h-.176"/><path d="M62.996 52.384h-1.081v3.76c0 1.295-.42 1.872-1.372 1.872-.951 0-1.373-.577-1.373-1.872v-3.76h-1.258v3.877c0 1.846.96 2.905 2.631 2.905 1.673 0 2.629-1.059 2.629-2.905v-3.877h-.176"/><path d="M69.704 52.384h-1.082v4.614l-2.531-4.614h-1.511v6.674h1.257v-4.727c.496.897 2.6 4.727 2.6 4.727h1.44v-6.674h-.173"/><path d="M73.362 53.533c1.277 0 2.136.867 2.136 2.168 0 1.486-.738 2.207-2.243 2.207h-.776v-4.375h.883zm-1.965-1.149h-.178v6.674h2.045c2.251 0 3.545-1.236 3.545-3.395 0-1.931-1.458-3.279-3.545-3.279h-1.867"/><path d="M81.55 52.384h-3.716v6.674h3.891v-1.149h-2.636v-1.733h2.403v-1.148h-2.403v-1.495h2.636v-1.149h-.175"/><path d="M85.057 53.533c1.277 0 2.135.867 2.135 2.168 0 1.486-.735 2.207-2.244 2.207h-.776v-4.375h.885zm-1.968-1.149h-.173v6.674h2.042c2.254 0 3.545-1.236 3.545-3.395 0-1.931-1.458-3.279-3.545-3.279h-1.869"/><path d="M56.407 27.396l.033.987-1.812-.463-.002-.01 1.782-.514zm1.676-.521l-.036-1.037-4.27 1.532.043 1.121 4.365 1.286-.036-.981-.972-.27-.049-1.347.955-.304"/><path d="M55.163 22.609l.096-.296c.167-.515.533-.456.703-.402.297.094.481.37.363.741l-.103.298-1.059-.341zm3.114 2.038l.314-.968-1.66-.538c.113-.353.156-.481.768-.459l1.204.038.327-1.012-1.477-.011c-.543-.005-.743.059-.876.344l-.013-.003c.099-.845-.571-1.086-.741-1.143-.761-.245-1.241.232-1.462.912l-.494 1.502 4.11 1.338"/><path d="M60.069 20.385l.584-.831-2.899-2.031.537-.766-.639-.447-1.663 2.37.639.447.541-.771 2.899 2.029"/><path d="M60.907 13.365c-.336.179-.572.284-.873.54-1.108.928-.442 1.806-.354 1.904.987 1.185 2.029-.224 2.568.414.226.27.092.594-.154.8-.291.246-.586.302-.899.405l.5.682c.178-.077.608-.274 1.008-.612.661-.554.84-1.349.313-1.976-.985-1.175-2.053.199-2.561-.404-.204-.246-.112-.52.141-.729.208-.177.534-.318.795-.379l-.483-.646"/><path d="M68.724 10.276c-.177-.032-.527-.096-1.155.051-.856.199-1.752 1.05-1.393 2.593.309 1.335 1.315 2.009 2.467 1.743.536-.124.862-.302 1.018-.395l-.24-.873c-.086.066-.327.313-.809.424-.628.146-1.231-.301-1.421-1.119-.199-.848.101-1.486.759-1.639.455-.105.747-.005.918.043l-.144-.829"/><path d="M72.032 12.213c.104-.821.389-1.468.97-1.397.586.073.712.767.611 1.589-.102.824-.394 1.469-.975 1.396-.584-.07-.706-.765-.606-1.587m-1.032-.129c-.153 1.261.314 2.29 1.548 2.442 1.234.153 1.94-.731 2.095-1.992.156-1.26-.314-2.291-1.553-2.44-1.232-.156-1.934.731-2.091 1.991"/><path d="M76.088 13.594c-.483.953-.196 1.737.668 2.18.87.439 1.672.213 2.156-.742l1.252-2.453-.902-.461-1.33 2.595c-.193.388-.457.551-.817.366-.366-.186-.389-.497-.19-.884l1.319-2.596-.898-.46-1.257 2.455"/><path d="M79.232 17.126l.614.641 2.256-2.169.008.009-1.388 3.062.837.864 3.105-2.998-.625-.643-2.148 2.082-.009-.01 1.278-2.983-.82-.858-3.109 3.003"/><path d="M87.214 21.343c-.01-.183-.025-.541-.312-1.118-.385-.79-1.419-1.471-2.843-.775-1.231.598-1.66 1.73-1.145 2.795.243.494.49.774.617.905l.792-.428c-.082-.068-.371-.25-.587-.698-.284-.575.014-1.268.763-1.636.787-.382 1.472-.229 1.771.379.205.416.173.723.162.9l.782-.323"/><path d="M83.737 24.611l.177.998 4.249-.748-.175-.995-4.251.745"/><path d="M84.034 27.168l-.167 2.435.779.06.098-1.424 3.531.247.071-1.022-4.313-.295"/><path d="M57.646 37.251l1.222 1.451.273-.24-.976-1.149 1.31-1.102.889 1.066.272-.239-.887-1.064 1.178-.992.93 1.119.276-.236-1.178-1.402-3.309 2.787"/><path d="M60.714 40.46l.298.194 2.13-3.165.01.007-.626 4.175.409.285 2.415-3.59-.298-.196-2.147 3.19-.01-.007.643-4.198-.409-.285-2.414 3.59"/><path d="M67.402 41.573l.741.213-.414 1.457c-.217.045-.394.019-.607-.034-1.096-.306-1.151-1.432-.934-2.191.378-1.307 1.303-1.538 1.894-1.362.317.092.676.328.799.505l.137-.396c-.106-.102-.482-.358-.817-.457-1.163-.33-2.089.499-2.395 1.559-.225.791-.261 2.265 1.195 2.684.343.099.678.13 1.025.049l.585-2.053-1.111-.311-.098.337"/><path d="M70.537 43.994h1.789l-.001-.353h-1.405v-3.962h-.382v4.315"/><path d="M74.571 39.593l.011-.002 1.358 2.058-1.435.426.065-2.482zm-.488 4.213l.366-.108.048-1.262 1.657-.464.689 1.039.391-.111-2.572-3.769-.391.116-.188 4.558"/><path d="M79.079 41.972l.301-.203-2.072-3.197.01-.006 3.599 2.206.412-.256-2.351-3.636-.304.205 2.089 3.218-.013.005-3.602-2.229-.419.257 2.35 3.635"/><path d="M80.59 35.744l.2-.246c.887-1.152 1.841-.549 2.377-.119.851.663 1.09 1.52.5 2.276l-.244.32-2.833-2.231zm2.882 2.741l.412-.516c.853-1.105.471-2.187-.519-2.961-1.098-.86-2.067-.756-2.949.379l-.351.439 3.407 2.66"/><path d="M33.359 12.314v.714h.464c.2 0 .342-.03.435-.089.089-.056.137-.147.137-.271 0-.13-.047-.223-.134-.274-.089-.053-.243-.081-.467-.081h-.435zm0 2.036h-.381v-2.352h.816c.288 0 .492.019.612.067.118.045.215.122.287.229.069.105.108.219.108.341 0 .178-.066.331-.189.454-.126.124-.287.193-.485.212.089.038.173.096.249.178.078.085.175.223.294.414l.287.456h-.463l-.208-.367c-.148-.265-.262-.435-.349-.513-.084-.08-.202-.118-.35-.118h-.227v.997zm.498-3c-.503 0-.932.18-1.289.538-.355.354-.534.783-.534 1.287 0 .504.179.934.534 1.288.355.356.786.533 1.29.533.503 0 .934-.177 1.29-.534.354-.355.533-.787.533-1.288 0-.504-.179-.933-.533-1.287-.356-.358-.787-.538-1.29-.538m0-.359c.39 0 .758.098 1.094.292.338.196.602.466.803.802.195.338.294.7.294 1.09 0 .393-.1.758-.294 1.093-.195.334-.463.599-.8.796-.339.194-.704.293-1.097.293-.392 0-.76-.099-1.096-.293-.339-.194-.605-.458-.802-.794-.195-.338-.291-.702-.291-1.095 0-.395.096-.756.293-1.093.196-.337.467-.602.803-.8.337-.193.703-.291 1.094-.291"/><path d="M28.425 28.056c.671-.527 1.44-.731 2.046-.478.971.408.997 1.713.333 3.163-.286.615-.706 1.112-1.175 1.46-.627.458-1.248.634-1.782.436-1.265-.48-1.518-2.906-.565-5.424.956-2.521 2.744-4.17 4.011-3.695 1.158.439 1.467 2.514.773 4.797.09-.86-.2-1.627-.829-1.938-.89-.44-2.112.224-2.724 1.475l-.089.203"/><path d="M36.048 29.43c.313-1.745-.136-3.075-1.1-3.075-1.086 0-2.421 1.675-2.98 3.735-.563 2.066-.132 3.738.953 3.738.696 0 1.499-.695 2.132-1.744.092-.152.18-.318.246-.486.434-1.128.214-2.231-.55-2.437-.465-.13-.987-.032-1.483.405l.061-.157c.411-.976 1.308-1.569 2.004-1.33.491.171.745.708.717 1.351"/><path d="M25.095 13.604c-1.196-2.707-2.401-4.312-3.566-3.511-1.523 1.042-1.196 3.708.659 8.314.837-1.695 1.837-3.452 2.907-4.804"/><path d="M27.571 40.065c-3.673 0-6.847-3.368-8.349-8.26 2.112 3.786 5.603 6.26 9.564 6.26 1.609 0 3.145-.411 4.537-1.151-1.575 1.973-3.576 3.151-5.752 3.151m8.181-7.911c-.054.144-.117.28-.189.41-.721 1.337-1.752 2.215-2.762 2.215-1.101 0-1.877-1.048-2.094-2.584-.287.384-.637.7-1.01.943-.783.513-1.591.69-2.295.424-1.664-.63-2.118-3.511-1.012-6.436.507-1.344 1.254-2.46 2.081-3.217-.196-.793-.418-1.658-.664-2.556l-.342.678c-.571 1.127-1.304 1.868-2.081 2.351.514-.896 1.017-1.804 1.462-2.672 2.302-4.518 4.134-8.516 2.445-9.502-2.092-1.22-4.895 3.054-7.005 7.622-2.118 4.56-3.339 9.2-3.339 9.2s-2.106-3.917-6.22-3.917c-2.1 0-3.409 1.025-3.409 1.928 0 .642.521 1.049 1.191 1.228 1.345.348 2.05.857 3.063 2.242 1.021 1.402 1.821 4.804 1.991 5.597 1.08 4.527 5.151 7.887 10.01 7.887 5.685 0 10.294-4.609 10.294-10.299 0-.523-.04-1.035-.116-1.541"/><path d="M44.629 43.994h.666v-35.658h-.666v35.658z"/><path d="M111.569 24.154h3.245l5.633 14.347h-3.185l-1.234-3.286h-5.816l-1.254 3.286h-2.982l5.593-14.347zm1.581 2.879h-.043l-2.072 5.92h4.191l-2.076-5.92"/><path d="M121.945 24.154h3.105c3.082 0 6.76-.102 6.76 3.888 0 1.684-1.129 3.079-2.958 3.328v.038c.782.063 1.233.845 1.522 1.481l2.302 5.614h-3.207l-1.726-4.482c-.415-1.068-.779-1.481-1.994-1.481h-.926v5.963h-2.876v-14.349zm2.876 6.128h.949c1.416 0 3.042-.208 3.042-1.996 0-1.726-1.605-1.87-3.042-1.87h-.949v3.866"/><path d="M137.298 26.415h-4.111v-2.262h11.1v2.262h-4.115v12.087h-2.874v-12.087"/><path d="M153.821 26.786c-.904-.391-1.912-.618-2.917-.618-.988 0-2.263.433-2.263 1.995 0 2.487 6.291 1.438 6.291 6.247 0 3.146-2.489 4.34-5.385 4.34-1.562 0-2.261-.203-3.679-.556l.264-2.59c.991.536 2.12.885 3.249.885 1.089 0 2.548-.556 2.548-1.851 0-2.734-6.289-1.604-6.289-6.352 0-3.207 2.485-4.378 5.016-4.378 1.231 0 2.382.165 3.431.515l-.267 2.364"/><path d="M173.286 38.299c-1.048.245-2.18.448-3.268.448-4.645 0-7.873-2.322-7.873-7.176 0-4.909 3.001-7.665 7.873-7.665.944 0 2.199.186 3.247.598l-.206 2.425c-1.089-.618-2.075-.761-3.103-.761-2.959 0-4.81 2.261-4.81 5.201 0 2.919 1.807 5.119 4.872 5.119 1.131 0 2.463-.249 3.143-.596l.125 2.407"/><path d="M181.648 23.907c4.501 0 7.031 3.043 7.031 7.379 0 4.336-2.49 7.461-7.031 7.461-4.602 0-7.027-3.063-7.027-7.461 0-4.399 2.465-7.379 7.027-7.379m0 12.581c2.938 0 4.031-2.612 4.031-5.202 0-2.529-1.175-5.117-4.031-5.117-2.855 0-4.027 2.588-4.027 5.117 0 2.59 1.09 5.202 4.027 5.202"/><path d="M190.587 24.154h2.878v8.286c0 2.447.78 4.049 2.982 4.049 2.197 0 2.981-1.602 2.981-4.049v-8.286h2.876v9.169c0 3.843-2.179 5.426-5.856 5.426-3.679 0-5.86-1.584-5.86-5.426v-9.169"/><path d="M204.46 24.154h3.534l5.466 10.732h.042v-10.732h2.755v14.347h-3.515l-5.486-10.73h-.042v10.73h-2.755v-14.347"/><path d="M229.265 38.299c-1.047.245-2.178.448-3.266.448-4.646 0-7.873-2.322-7.873-7.176 0-4.909 3.001-7.665 7.873-7.665.944 0 2.197.186 3.244.598l-.202 2.425c-1.092-.618-2.075-.761-3.103-.761-2.959 0-4.811 2.261-4.811 5.201 0 2.919 1.807 5.119 4.872 5.119 1.129 0 2.465-.249 3.143-.596l.124 2.407"/><path d="M231.444 38.501h2.877v-14.347h-2.877v14.347z"/><path d="M236.581 24.154h2.876v12.086h5.571v2.261h-8.448v-14.347"/><path d="M106.019 44.708h8.469v2.258h-5.593v3.537h5.119v2.261h-5.119v4.028h5.633v2.262h-8.509v-14.346"/><path d="M116.89 44.708h3.538l5.465 10.727h.041v-10.727h2.755v14.346h-3.514l-5.49-10.729h-.04v10.729h-2.755v-14.346"/><path d="M142.561 47.483c-1.11-.515-2.55-.76-3.704-.76-3.348 0-5.195 2.259-5.195 5.199 0 2.916 1.807 5.115 4.869 5.115.784 0 1.398-.082 1.891-.203v-3.74h-3.043v-2.261h5.795v7.728c-1.519.41-3.103.74-4.643.74-4.644 0-7.871-2.324-7.871-7.174 0-4.913 3.002-7.666 7.871-7.666 1.665 0 2.98.224 4.215.596l-.185 2.425"/><path d="M145.477 44.708h2.878v12.085h5.569v2.262h-8.447v-14.346"/><path d="M160.787 44.708h3.248l5.633 14.348h-3.185l-1.235-3.289h-5.814l-1.253 3.289h-2.982l5.589-14.348zm1.583 2.876h-.038l-2.079 5.92h4.194l-2.076-5.92"/><path d="M171.063 44.708h3.536l5.467 10.727h.039v-10.727h2.755v14.346h-3.515l-5.49-10.729h-.04v10.729h-2.754v-14.346"/><path d="M185.21 44.708h3.927c4.395 0 8.281 1.481 8.281 7.174 0 5.689-3.887 7.172-8.281 7.172h-3.927v-14.346zm2.877 12.085h1.604c2.402 0 4.727-1.787 4.727-4.91 0-3.127-2.325-4.914-4.727-4.914h-1.604v9.824"/><path d="M106.164 15.798c.334.144.813.271 1.428.271.977 0 2.07-.506 2.07-1.781 0-1.844-2.893-1.854-2.893-3.119 0-.814.716-1.085 1.367-1.085.425 0 .868.081 1.147.235l.1-.569c-.433-.162-.931-.207-1.238-.207-1.113 0-1.997.632-1.997 1.644 0 1.654 2.893 1.809 2.893 3.048 0 .896-.643 1.293-1.42 1.293-.587 0-1.022-.135-1.392-.371l-.063.641zm8.362-4.448h-.57v2.549c0 .769-.324 1.681-1.365 1.681-.787 0-1.095-.56-1.095-1.428v-2.803h-.568v2.948c0 1.012.433 1.771 1.573 1.771.959 0 1.302-.514 1.492-.93h.019v.821h.551c-.036-.371-.036-.732-.036-1.084v-3.525zm1.497 6.508h.569v-2.684h.018c.281.596.715.894 1.438.894 1.266 0 1.897-1.048 1.897-2.414 0-1.401-.54-2.413-1.897-2.413-.977 0-1.33.694-1.474.948h-.019l.036-.84h-.569v6.508zm3.3-4.203c0 .895-.28 1.926-1.365 1.926-1.014 0-1.366-1.085-1.366-1.926s.352-1.926 1.366-1.926c1.085 0 1.365 1.031 1.365 1.926m1.89 4.203h.568v-2.684h.019c.28.596.715.894 1.438.894 1.266 0 1.898-1.048 1.898-2.414 0-1.401-.542-2.413-1.898-2.413-.977 0-1.33.694-1.474.948h-.018l.035-.84h-.568v6.508zm3.3-4.203c0 .895-.28 1.926-1.366 1.926-1.013 0-1.366-1.085-1.366-1.926s.353-1.926 1.366-1.926c1.086 0 1.366 1.031 1.366 1.926m1.626 0c0 1.257.659 2.414 2.152 2.414 1.492 0 2.151-1.157 2.151-2.414 0-1.257-.659-2.413-2.151-2.413-1.493 0-2.152 1.156-2.152 2.413m.623 0c0-1.067.534-1.926 1.529-1.926.994 0 1.528.859 1.528 1.926s-.534 1.926-1.528 1.926c-.995 0-1.529-.858-1.529-1.926m4.91 2.305h.569v-2.278c0-.832.244-1.845 1.148-1.845.145 0 .298.018.417.055v-.596c-.1-.028-.263-.054-.398-.054-.589 0-.977.478-1.185.993h-.017v-.885h-.57c.036.333.036.523.036 1.03v3.58zm5.384-4.61h-1.048v-1.311l-.569.198v1.112h-.904v.487h.904v2.695c0 .841.036 1.537 1.048 1.537.28 0 .561-.073.696-.127l-.036-.469c-.163.063-.307.108-.524.108-.461 0-.615-.344-.615-.759v-2.984h1.048v-.487zm4.188 3.887c-.271.172-.877.344-1.292.344-.996 0-1.519-.786-1.519-1.764h3.154v-.288c0-1.239-.532-2.286-1.834-2.286-1.167 0-1.943 1.003-1.943 2.413 0 1.383.568 2.414 2.097 2.414.425 0 .94-.09 1.338-.253v-.578zm-2.812-1.907c0-.76.514-1.602 1.356-1.602.849 0 1.176.796 1.176 1.602h-2.532zm8.068-4.151h-.569v2.947h-.018c-.082-.227-.534-.885-1.438-.885-1.357 0-1.898 1.012-1.898 2.413 0 1.366.632 2.414 1.898 2.414.66 0 1.13-.253 1.438-.84h.018v.731h.569v-6.78zm-3.3 4.475c0-.896.28-1.926 1.365-1.926 1.014 0 1.366 1.085 1.366 1.926s-.352 1.926-1.366 1.926c-1.085 0-1.365-1.031-1.365-1.926m10.032-2.305h-.569v2.549c0 .769-.327 1.681-1.366 1.681-.787 0-1.095-.56-1.095-1.428v-2.803h-.568v2.948c0 1.012.433 1.771 1.573 1.771.958 0 1.301-.514 1.492-.93h.018v.821h.551c-.036-.371-.036-.732-.036-1.084v-3.525zm1.121 4.502c.407.163.849.217 1.292.217.697 0 1.609-.334 1.609-1.31 0-1.511-2.269-1.402-2.269-2.261 0-.589.408-.769.995-.769.317 0 .724.082 1.022.217l.053-.497c-.405-.153-.894-.207-1.138-.207-.76 0-1.501.342-1.501 1.256 0 1.337 2.215 1.166 2.215 2.261 0 .524-.48.822-1.022.822-.444 0-.86-.117-1.202-.289l-.054.56zm4.033.108h.568v-4.61h-.568v4.61zm.568-6.598h-.568v.758h.568v-.758zm1.524 6.598h.569v-2.55c0-.768.326-1.681 1.366-1.681.787 0 1.094.56 1.094 1.429v2.802h.569v-2.947c0-1.013-.433-1.771-1.573-1.771-.959 0-1.302.514-1.493.93h-.017v-.822h-.55c.036.371.036.732.036 1.085v3.525zm5.492-2.305c0-.896.281-1.926 1.365-1.926 1.041 0 1.367.814 1.367 1.926 0 .841-.371 1.818-1.403 1.818-.967 0-1.33-.913-1.33-1.818m3.3-2.305h-.568v.524h-.019c-.425-.551-.823-.632-1.438-.632-1.357 0-1.898 1.012-1.898 2.413 0 1.022.47 2.305 1.944 2.305.588 0 1.095-.235 1.402-.902h.018c0 1.301-.126 2.369-1.591 2.369-.498 0-1.004-.145-1.357-.327l-.044.57c.236.072.786.244 1.392.244 1.583 0 2.161-1.048 2.161-2.332v-4.231zm3.081 6.508h.567v-2.684h.019c.281.596.715.894 1.438.894 1.266 0 1.897-1.048 1.897-2.414 0-1.401-.541-2.413-1.897-2.413-.977 0-1.331.694-1.475.948h-.018l.036-.84h-.567v6.508zm3.299-4.203c0 .895-.28 1.926-1.365 1.926-1.014 0-1.367-1.085-1.367-1.926s.353-1.926 1.367-1.926c1.085 0 1.365 1.031 1.365 1.926m5.505-2.305h-.569v2.549c0 .769-.325 1.681-1.365 1.681-.788 0-1.095-.56-1.095-1.428v-2.803h-.569v2.948c0 1.012.433 1.771 1.573 1.771.959 0 1.302-.514 1.493-.93h.018v.821h.551c-.036-.371-.036-.732-.036-1.084v-3.525zm1.497 4.61h.569v-.731h.019c.308.587.778.84 1.437.84 1.266 0 1.899-1.048 1.899-2.414 0-1.401-.543-2.413-1.899-2.413-.905 0-1.356.658-1.437.885h-.019v-2.947h-.569v6.78zm3.299-2.305c0 .895-.279 1.926-1.365 1.926-1.012 0-1.365-1.085-1.365-1.926s.327-1.926 1.365-1.926c1.086 0 1.365 1.031 1.365 1.926m1.927 2.305h.57v-6.78h-.57v6.78zm2.091 0h.568v-4.61h-.568v4.61zm.569-6.598h-.569v.758h.569v-.758zm4.627 2.06c-.164-.054-.561-.179-1.113-.179-1.363 0-2.277.993-2.277 2.413 0 1.284.722 2.414 2.205 2.414.433 0 .795-.028 1.185-.163l-.055-.533c-.343.126-.678.208-1.04.208-1.04 0-1.672-.876-1.672-1.926 0-1.121.624-1.926 1.735-1.926.308 0 .679.099.986.236l.046-.543zm3.116 4.538h.569v-4.122h1.04v-.487h-1.04v-.398c0-.551-.082-1.393.697-1.393.162 0 .334.036.451.1l.036-.497c-.109-.064-.353-.09-.534-.09-1.184 0-1.219.975-1.219 1.943v.335h-.932v.487h.932v4.122zm6.3-4.61h-.57v2.549c0 .769-.324 1.681-1.365 1.681-.787 0-1.093-.56-1.093-1.428v-2.803h-.57v2.948c0 1.012.433 1.771 1.573 1.771.959 0 1.303-.514 1.492-.93h.019v.821h.551c-.036-.371-.036-.732-.036-1.084v-3.525zm1.532 4.61h.568v-2.55c0-.768.326-1.681 1.367-1.681.786 0 1.093.56 1.093 1.429v2.802h.57v-2.947c0-1.013-.434-1.771-1.573-1.771-.959 0-1.303.514-1.493.93h-.018v-.822h-.551c.036.371.036.732.036 1.085v3.525zm8.804-6.78h-.567v2.947h-.019c-.082-.227-.533-.885-1.438-.885-1.357 0-1.897 1.012-1.897 2.413 0 1.366.632 2.414 1.897 2.414.66 0 1.13-.253 1.438-.84h.019v.731h.567v-6.78zm-3.299 4.475c0-.896.28-1.926 1.365-1.926 1.013 0 1.367 1.085 1.367 1.926s-.354 1.926-1.367 1.926c-1.085 0-1.365-1.031-1.365-1.926m4.793 2.305h.568v-4.61h-.568v4.61zm.569-6.598h-.569v.758h.569v-.758zm1.523 6.598h.57v-2.55c0-.768.325-1.681 1.365-1.681.786 0 1.096.56 1.096 1.429v2.802h.567v-2.947c0-1.013-.433-1.771-1.572-1.771-.959 0-1.303.514-1.493.93h-.018v-.822h-.551c.036.371.036.732.036 1.085v3.525zm5.492-2.305c0-.896.281-1.926 1.366-1.926 1.04 0 1.364.814 1.364 1.926 0 .841-.37 1.818-1.401 1.818-.968 0-1.33-.913-1.33-1.818m3.299-2.305h-.569v.524h-.017c-.426-.551-.824-.632-1.439-.632-1.355 0-1.897 1.012-1.897 2.413 0 1.022.469 2.305 1.941 2.305.588 0 1.096-.235 1.404-.902h.017c0 1.301-.126 2.369-1.59 2.369-.498 0-1.003-.145-1.355-.327l-.045.57c.235.072.788.244 1.392.244 1.582 0 2.159-1.048 2.159-2.332v-4.231zm3.08 4.61h.569v-.731h.019c.308.587.777.84 1.437.84 1.267 0 1.898-1.048 1.898-2.414 0-1.401-.542-2.413-1.898-2.413-.903 0-1.357.658-1.437.885h-.019v-2.947h-.569v6.78zm3.301-2.305c0 .895-.279 1.926-1.366 1.926-1.014 0-1.366-1.085-1.366-1.926s.327-1.926 1.366-1.926c1.087 0 1.366 1.031 1.366 1.926m1.855-2.305h-.624l1.634 4.665-.117.407c-.181.596-.343 1.003-.833 1.003-.206 0-.316-.036-.422-.072l-.056.487c.19.045.407.073.616.073.641 0 .967-.632 1.184-1.265l1.842-5.298h-.596l-1.328 3.842h-.009l-1.291-3.842"/><path d="M96.829 59.054h.666v-50.719h-.666v50.719z"/></g></g></svg>