<svg xmlns="http://www.w3.org/2000/svg" width="612" height="68"><defs><clipPath><path d="M150.656 55.489h-124.11v-38.096h124.11v38.096z"/></clipPath></defs><g><path opacity=".893" color="#000" overflow="visible" enable-background="accumulate" fill="none" d="M.001.001h253v68h-253z"/><g fill="#fff"><path d="M12.168 52.389h-1.08v6.673h3.9v-1.149h-2.644v-5.524h-.176"/><path d="M19.92 53.909c.416.412.652 1.07.652 1.811 0 1.113-.5 2.295-1.907 2.295s-1.911-1.182-1.911-2.295c0-.741.24-1.399.654-1.811.328-.325.751-.491 1.257-.488.504-.002.927.163 1.255.488m-4.475 1.811c0 2.093 1.261 3.445 3.219 3.445 1.957 0 3.221-1.353 3.221-3.445 0-2.06-1.295-3.445-3.221-3.445-1.926 0-3.219 1.385-3.219 3.445"/><path d="M27.095 52.384h-5.012v1.149h1.966v5.525h1.257v-5.525h1.879v-1.149h-.089"/><path d="M32.803 52.384h-4.883v1.149h1.835v5.525h1.257v-5.525h1.966v-1.149h-.175"/><path d="M37.441 52.384h-3.719v6.674h3.894v-1.149h-2.636v-1.733h2.402v-1.148h-2.402v-1.495h2.636v-1.149h-.175"/><path d="M40.756 53.533c.41 0 1.095.098 1.095.756 0 .51-.448.81-1.191.81h-.598v-1.567h.695zm-1.776-1.149h-.176v6.674h1.257v-2.811h.368c.474 0 .664 0 .901.515l1.016 2.296h1.425l-1.318-2.773c-.129-.252-.243-.406-.382-.525.657-.251 1.087-.798 1.087-1.491 0-1.66-1.328-1.885-2.629-1.885h-1.55"/><path d="M49.513 52.384h-1.154l-1.746 2.687-1.787-2.687h-1.483l2.624 3.904v2.769h1.256v-2.769c.064-.085 2.621-3.904 2.621-3.904h-.332"/><path d="M56.535 52.384h-3.537v6.674h1.256v-2.882h2.349v-1.148h-2.349v-1.495h2.457v-1.149h-.176"/><path d="M62.996 52.384h-1.081v3.76c0 1.295-.42 1.872-1.372 1.872-.951 0-1.373-.577-1.373-1.872v-3.76h-1.258v3.877c0 1.846.96 2.905 2.631 2.905 1.673 0 2.629-1.059 2.629-2.905v-3.877h-.176"/><path d="M69.704 52.384h-1.082v4.614l-2.531-4.614h-1.511v6.674h1.257v-4.727c.496.897 2.6 4.727 2.6 4.727h1.44v-6.674h-.173"/><path d="M73.362 53.533c1.277 0 2.136.867 2.136 2.168 0 1.486-.738 2.207-2.243 2.207h-.776v-4.375h.883zm-1.965-1.149h-.178v6.674h2.045c2.251 0 3.545-1.236 3.545-3.395 0-1.931-1.458-3.279-3.545-3.279h-1.867"/><path d="M81.55 52.384h-3.716v6.674h3.891v-1.149h-2.636v-1.733h2.403v-1.148h-2.403v-1.495h2.636v-1.149h-.175"/><path d="M85.057 53.533c1.277 0 2.135.867 2.135 2.168 0 1.486-.735 2.207-2.244 2.207h-.776v-4.375h.885zm-1.968-1.149h-.173v6.674h2.042c2.254 0 3.545-1.236 3.545-3.395 0-1.931-1.458-3.279-3.545-3.279h-1.869"/><path d="M56.407 27.396l.033.987-1.812-.463-.002-.01 1.782-.514zm1.676-.521l-.036-1.037-4.27 1.532.043 1.121 4.365 1.286-.036-.981-.972-.27-.049-1.347.955-.304"/><path d="M55.163 22.609l.096-.296c.167-.515.533-.456.703-.402.297.094.481.37.363.741l-.103.298-1.059-.341zm3.114 2.038l.314-.968-1.66-.538c.113-.353.156-.481.768-.459l1.204.038.327-1.012-1.477-.011c-.543-.005-.743.059-.876.344l-.013-.003c.099-.845-.571-1.086-.741-1.143-.761-.245-1.241.232-1.462.912l-.494 1.502 4.11 1.338"/><path d="M60.069 20.385l.584-.831-2.899-2.031.537-.766-.639-.447-1.663 2.37.639.447.541-.771 2.899 2.029"/><path d="M60.907 13.365c-.336.179-.572.284-.873.54-1.108.928-.442 1.806-.354 1.904.987 1.185 2.029-.224 2.568.414.226.27.092.594-.154.8-.291.246-.586.302-.899.405l.5.682c.178-.077.608-.274 1.008-.612.661-.554.84-1.349.313-1.976-.985-1.175-2.053.199-2.561-.404-.204-.246-.112-.52.141-.729.208-.177.534-.318.795-.379l-.483-.646"/><path d="M68.724 10.276c-.177-.032-.527-.096-1.155.051-.856.199-1.752 1.05-1.393 2.593.309 1.335 1.315 2.009 2.467 1.743.536-.124.862-.302 1.018-.395l-.24-.873c-.086.066-.327.313-.809.424-.628.146-1.231-.301-1.421-1.119-.199-.848.101-1.486.759-1.639.455-.105.747-.005.918.043l-.144-.829"/><path d="M72.032 12.213c.104-.821.389-1.468.97-1.397.586.073.712.767.611 1.589-.102.824-.394 1.469-.975 1.396-.584-.07-.706-.765-.606-1.587m-1.032-.129c-.153 1.261.314 2.29 1.548 2.442 1.234.153 1.94-.731 2.095-1.992.156-1.26-.314-2.291-1.553-2.44-1.232-.156-1.934.731-2.091 1.991"/><path d="M76.088 13.594c-.483.953-.196 1.737.668 2.18.87.439 1.672.213 2.156-.742l1.252-2.453-.902-.461-1.33 2.595c-.193.388-.457.551-.817.366-.366-.186-.389-.497-.19-.884l1.319-2.596-.898-.46-1.257 2.455"/><path d="M79.232 17.126l.614.641 2.256-2.169.008.009-1.388 3.062.837.864 3.105-2.998-.625-.643-2.148 2.082-.009-.01 1.278-2.983-.82-.858-3.109 3.003"/><path d="M87.214 21.343c-.01-.183-.025-.541-.312-1.118-.385-.79-1.419-1.471-2.843-.775-1.231.598-1.66 1.73-1.145 2.795.243.494.49.774.617.905l.792-.428c-.082-.068-.371-.25-.587-.698-.284-.575.014-1.268.763-1.636.787-.382 1.472-.229 1.771.379.205.416.173.723.162.9l.782-.323"/><path d="M83.737 24.611l.177.998 4.249-.748-.175-.995-4.251.745"/><path d="M84.034 27.168l-.167 2.435.779.06.098-1.424 3.531.247.071-1.022-4.313-.295"/><path d="M57.646 37.251l1.222 1.451.273-.24-.976-1.149 1.31-1.102.889 1.066.272-.239-.887-1.064 1.178-.992.93 1.119.276-.236-1.178-1.402-3.309 2.787"/><path d="M60.714 40.46l.298.194 2.13-3.165.01.007-.626 4.175.409.285 2.415-3.59-.298-.196-2.147 3.19-.01-.007.643-4.198-.409-.285-2.414 3.59"/><path d="M67.402 41.573l.741.213-.414 1.457c-.217.045-.394.019-.607-.034-1.096-.306-1.151-1.432-.934-2.191.378-1.307 1.303-1.538 1.894-1.362.317.092.676.328.799.505l.137-.396c-.106-.102-.482-.358-.817-.457-1.163-.33-2.089.499-2.395 1.559-.225.791-.261 2.265 1.195 2.684.343.099.678.13 1.025.049l.585-2.053-1.111-.311-.098.337"/><path d="M70.537 43.994h1.789l-.001-.353h-1.405v-3.962h-.382v4.315"/><path d="M74.571 39.593l.011-.002 1.358 2.058-1.435.426.065-2.482zm-.488 4.213l.366-.108.048-1.262 1.657-.464.689 1.039.391-.111-2.572-3.769-.391.116-.188 4.558"/><path d="M79.079 41.972l.301-.203-2.072-3.197.01-.006 3.599 2.206.412-.256-2.351-3.636-.304.205 2.089 3.218-.013.005-3.602-2.229-.419.257 2.35 3.635"/><path d="M80.59 35.744l.2-.246c.887-1.152 1.841-.549 2.377-.119.851.663 1.09 1.52.5 2.276l-.244.32-2.833-2.231zm2.882 2.741l.412-.516c.853-1.105.471-2.187-.519-2.961-1.098-.86-2.067-.756-2.949.379l-.351.439 3.407 2.66"/><path d="M33.359 12.314v.714h.464c.2 0 .342-.03.435-.089.089-.056.137-.147.137-.271 0-.13-.047-.223-.134-.274-.089-.053-.243-.081-.467-.081h-.435zm0 2.036h-.381v-2.352h.816c.288 0 .492.019.612.067.118.045.215.122.287.229.069.105.108.219.108.341 0 .178-.066.331-.189.454-.126.124-.287.193-.485.212.089.038.173.096.249.178.078.085.175.223.294.414l.287.456h-.463l-.208-.367c-.148-.265-.262-.435-.349-.513-.084-.08-.202-.118-.35-.118h-.227v.997zm.498-3c-.503 0-.932.18-1.289.538-.355.354-.534.783-.534 1.287 0 .504.179.934.534 1.288.355.356.786.533 1.29.533.503 0 .934-.177 1.29-.534.354-.355.533-.787.533-1.288 0-.504-.179-.933-.533-1.287-.356-.358-.787-.538-1.29-.538m0-.359c.39 0 .758.098 1.094.292.338.196.602.466.803.802.195.338.294.7.294 1.09 0 .393-.1.758-.294 1.093-.195.334-.463.599-.8.796-.339.194-.704.293-1.097.293-.392 0-.76-.099-1.096-.293-.339-.194-.605-.458-.802-.794-.195-.338-.291-.702-.291-1.095 0-.395.096-.756.293-1.093.196-.337.467-.602.803-.8.337-.193.703-.291 1.094-.291"/><path d="M28.425 28.056c.671-.527 1.44-.731 2.046-.478.971.408.997 1.713.333 3.163-.286.615-.706 1.112-1.175 1.46-.627.458-1.248.634-1.782.436-1.265-.48-1.518-2.906-.565-5.424.956-2.521 2.744-4.17 4.011-3.695 1.158.439 1.467 2.514.773 4.797.09-.86-.2-1.627-.829-1.938-.89-.44-2.112.224-2.724 1.475l-.089.203"/><path d="M36.048 29.43c.313-1.745-.136-3.075-1.1-3.075-1.086 0-2.421 1.675-2.98 3.735-.563 2.066-.132 3.738.953 3.738.696 0 1.499-.695 2.132-1.744.092-.152.18-.318.246-.486.434-1.128.214-2.231-.55-2.437-.465-.13-.987-.032-1.483.405l.061-.157c.411-.976 1.308-1.569 2.004-1.33.491.171.745.708.717 1.351"/><path d="M25.095 13.604c-1.196-2.707-2.401-4.312-3.566-3.511-1.523 1.042-1.196 3.708.659 8.314.837-1.695 1.837-3.452 2.907-4.804"/><path d="M27.571 40.065c-3.673 0-6.847-3.368-8.349-8.26 2.112 3.786 5.603 6.26 9.564 6.26 1.609 0 3.145-.411 4.537-1.151-1.575 1.973-3.576 3.151-5.752 3.151m8.181-7.911c-.054.144-.117.28-.189.41-.721 1.337-1.752 2.215-2.762 2.215-1.101 0-1.877-1.048-2.094-2.584-.287.384-.637.7-1.01.943-.783.513-1.591.69-2.295.424-1.664-.63-2.118-3.511-1.012-6.436.507-1.344 1.254-2.46 2.081-3.217-.196-.793-.418-1.658-.664-2.556l-.342.678c-.571 1.127-1.304 1.868-2.081 2.351.514-.896 1.017-1.804 1.462-2.672 2.302-4.518 4.134-8.516 2.445-9.502-2.092-1.22-4.895 3.054-7.005 7.622-2.118 4.56-3.339 9.2-3.339 9.2s-2.106-3.917-6.22-3.917c-2.1 0-3.409 1.025-3.409 1.928 0 .642.521 1.049 1.191 1.228 1.345.348 2.05.857 3.063 2.242 1.021 1.402 1.821 4.804 1.991 5.597 1.08 4.527 5.151 7.887 10.01 7.887 5.685 0 10.294-4.609 10.294-10.299 0-.523-.04-1.035-.116-1.541"/><path d="M44.629 43.994h.666v-35.658h-.666v35.658z"/><path d="M111.569 24.154h3.245l5.633 14.347h-3.185l-1.234-3.286h-5.816l-1.254 3.286h-2.982l5.593-14.347zm1.581 2.879h-.043l-2.072 5.92h4.191l-2.076-5.92"/><path d="M121.945 24.154h3.105c3.082 0 6.76-.102 6.76 3.888 0 1.684-1.129 3.079-2.958 3.328v.038c.782.063 1.233.845 1.522 1.481l2.302 5.614h-3.207l-1.726-4.482c-.415-1.068-.779-1.481-1.994-1.481h-.926v5.963h-2.876v-14.349zm2.876 6.128h.949c1.416 0 3.042-.208 3.042-1.996 0-1.726-1.605-1.87-3.042-1.87h-.949v3.866"/><path d="M137.298 26.415h-4.111v-2.262h11.1v2.262h-4.115v12.087h-2.874v-12.087"/><path d="M153.821 26.786c-.904-.391-1.912-.618-2.917-.618-.988 0-2.263.433-2.263 1.995 0 2.487 6.291 1.438 6.291 6.247 0 3.146-2.489 4.34-5.385 4.34-1.562 0-2.261-.203-3.679-.556l.264-2.59c.991.536 2.12.885 3.249.885 1.089 0 2.548-.556 2.548-1.851 0-2.734-6.289-1.604-6.289-6.352 0-3.207 2.485-4.378 5.016-4.378 1.231 0 2.382.165 3.431.515l-.267 2.364"/><path d="M173.286 38.299c-1.048.245-2.18.448-3.268.448-4.645 0-7.873-2.322-7.873-7.176 0-4.909 3.001-7.665 7.873-7.665.944 0 2.199.186 3.247.598l-.206 2.425c-1.089-.618-2.075-.761-3.103-.761-2.959 0-4.81 2.261-4.81 5.201 0 2.919 1.807 5.119 4.872 5.119 1.131 0 2.463-.249 3.143-.596l.125 2.407"/><path d="M181.648 23.907c4.501 0 7.031 3.043 7.031 7.379 0 4.336-2.49 7.461-7.031 7.461-4.602 0-7.027-3.063-7.027-7.461 0-4.399 2.465-7.379 7.027-7.379m0 12.581c2.938 0 4.031-2.612 4.031-5.202 0-2.529-1.175-5.117-4.031-5.117-2.855 0-4.027 2.588-4.027 5.117 0 2.59 1.09 5.202 4.027 5.202"/><path d="M190.587 24.154h2.878v8.286c0 2.447.78 4.049 2.982 4.049 2.197 0 2.981-1.602 2.981-4.049v-8.286h2.876v9.169c0 3.843-2.179 5.426-5.856 5.426-3.679 0-5.86-1.584-5.86-5.426v-9.169"/><path d="M204.46 24.154h3.534l5.466 10.732h.042v-10.732h2.755v14.347h-3.515l-5.486-10.73h-.042v10.73h-2.755v-14.347"/><path d="M229.265 38.299c-1.047.245-2.178.448-3.266.448-4.646 0-7.873-2.322-7.873-7.176 0-4.909 3.001-7.665 7.873-7.665.944 0 2.197.186 3.244.598l-.202 2.425c-1.092-.618-2.075-.761-3.103-.761-2.959 0-4.811 2.261-4.811 5.201 0 2.919 1.807 5.119 4.872 5.119 1.129 0 2.465-.249 3.143-.596l.124 2.407"/><path d="M231.444 38.501h2.877v-14.347h-2.877v14.347z"/><path d="M236.581 24.154h2.876v12.086h5.571v2.261h-8.448v-14.347"/><path d="M106.019 44.708h8.469v2.258h-5.593v3.537h5.119v2.261h-5.119v4.028h5.633v2.262h-8.509v-14.346"/><path d="M116.89 44.708h3.538l5.465 10.727h.041v-10.727h2.755v14.346h-3.514l-5.49-10.729h-.04v10.729h-2.755v-14.346"/><path d="M142.561 47.483c-1.11-.515-2.55-.76-3.704-.76-3.348 0-5.195 2.259-5.195 5.199 0 2.916 1.807 5.115 4.869 5.115.784 0 1.398-.082 1.891-.203v-3.74h-3.043v-2.261h5.795v7.728c-1.519.41-3.103.74-4.643.74-4.644 0-7.871-2.324-7.871-7.174 0-4.913 3.002-7.666 7.871-7.666 1.665 0 2.98.224 4.215.596l-.185 2.425"/><path d="M145.477 44.708h2.878v12.085h5.569v2.262h-8.447v-14.346"/><path d="M160.787 44.708h3.248l5.633 14.348h-3.185l-1.235-3.289h-5.814l-1.253 3.289h-2.982l5.589-14.348zm1.583 2.876h-.038l-2.079 5.92h4.194l-2.076-5.92"/><path d="M171.063 44.708h3.536l5.467 10.727h.039v-10.727h2.755v14.346h-3.515l-5.49-10.729h-.04v10.729h-2.754v-14.346"/><path d="M185.21 44.708h3.927c4.395 0 8.281 1.481 8.281 7.174 0 5.689-3.887 7.172-8.281 7.172h-3.927v-14.346zm2.877 12.085h1.604c2.402 0 4.727-1.787 4.727-4.91 0-3.127-2.325-4.914-4.727-4.914h-1.604v9.824"/><path d="M106.164 15.798c.334.144.813.271 1.428.271.977 0 2.07-.506 2.07-1.781 0-1.844-2.893-1.854-2.893-3.119 0-.814.716-1.085 1.367-1.085.425 0 .868.081 1.147.235l.1-.569c-.433-.162-.931-.207-1.238-.207-1.113 0-1.997.632-1.997 1.644 0 1.654 2.893 1.809 2.893 3.048 0 .896-.643 1.293-1.42 1.293-.587 0-1.022-.135-1.392-.371l-.063.641zm8.362-4.448h-.57v2.549c0 .769-.324 1.681-1.365 1.681-.787 0-1.095-.56-1.095-1.428v-2.803h-.568v2.948c0 1.012.433 1.771 1.573 1.771.959 0 1.302-.514 1.492-.93h.019v.821h.551c-.036-.371-.036-.732-.036-1.084v-3.525zm1.497 6.508h.569v-2.684h.018c.281.596.715.894 1.438.894 1.266 0 1.897-1.048 1.897-2.414 0-1.401-.54-2.413-1.897-2.413-.977 0-1.33.694-1.474.948h-.019l.036-.84h-.569v6.508zm3.3-4.203c0 .895-.28 1.926-1.365 1.926-1.014 0-1.366-1.085-1.366-1.926s.352-1.926 1.366-1.926c1.085 0 1.365 1.031 1.365 1.926m1.89 4.203h.568v-2.684h.019c.28.596.715.894 1.438.894 1.266 0 1.898-1.048 1.898-2.414 0-1.401-.542-2.413-1.898-2.413-.977 0-1.33.694-1.474.948h-.018l.035-.84h-.568v6.508zm3.3-4.203c0 .895-.28 1.926-1.366 1.926-1.013 0-1.366-1.085-1.366-1.926s.353-1.926 1.366-1.926c1.086 0 1.366 1.031 1.366 1.926m1.626 0c0 1.257.659 2.414 2.152 2.414 1.492 0 2.151-1.157 2.151-2.414 0-1.257-.659-2.413-2.151-2.413-1.493 0-2.152 1.156-2.152 2.413m.623 0c0-1.067.534-1.926 1.529-1.926.994 0 1.528.859 1.528 1.926s-.534 1.926-1.528 1.926c-.995 0-1.529-.858-1.529-1.926m4.91 2.305h.569v-2.278c0-.832.244-1.845 1.148-1.845.145 0 .298.018.417.055v-.596c-.1-.028-.263-.054-.398-.054-.589 0-.977.478-1.185.993h-.017v-.885h-.57c.036.333.036.523.036 1.03v3.58zm5.384-4.61h-1.048v-1.311l-.569.198v1.112h-.904v.487h.904v2.695c0 .841.036 1.537 1.048 1.537.28 0 .561-.073.696-.127l-.036-.469c-.163.063-.307.108-.524.108-.461 0-.615-.344-.615-.759v-2.984h1.048v-.487zm4.188 3.887c-.271.172-.877.344-1.292.344-.996 0-1.519-.786-1.519-1.764h3.154v-.288c0-1.239-.532-2.286-1.834-2.286-1.167 0-1.943 1.003-1.943 2.413 0 1.383.568 2.414 2.097 2.414.425 0 .94-.09 1.338-.253v-.578zm-2.812-1.907c0-.76.514-1.602 1.356-1.602.849 0 1.176.796 1.176 1.602h-2.532zm8.068-4.151h-.569v2.947h-.018c-.082-.227-.534-.885-1.438-.885-1.357 0-1.898 1.012-1.898 2.413 0 1.366.632 2.414 1.898 2.414.66 0 1.13-.253 1.438-.84h.018v.731h.569v-6.78zm-3.3 4.475c0-.896.28-1.926 1.365-1.926 1.014 0 1.366 1.085 1.366 1.926s-.352 1.926-1.366 1.926c-1.085 0-1.365-1.031-1.365-1.926m10.032-2.305h-.569v2.549c0 .769-.327 1.681-1.366 1.681-.787 0-1.095-.56-1.095-1.428v-2.803h-.568v2.948c0 1.012.433 1.771 1.573 1.771.958 0 1.301-.514 1.492-.93h.018v.821h.551c-.036-.371-.036-.732-.036-1.084v-3.525zm1.121 4.502c.407.163.849.217 1.292.217.697 0 1.609-.334 1.609-1.31 0-1.511-2.269-1.402-2.269-2.261 0-.589.408-.769.995-.769.317 0 .724.082 1.022.217l.053-.497c-.405-.153-.894-.207-1.138-.207-.76 0-1.501.342-1.501 1.256 0 1.337 2.215 1.166 2.215 2.261 0 .524-.48.822-1.022.822-.444 0-.86-.117-1.202-.289l-.054.56zm4.033.108h.568v-4.61h-.568v4.61zm.568-6.598h-.568v.758h.568v-.758zm1.524 6.598h.569v-2.55c0-.768.326-1.681 1.366-1.681.787 0 1.094.56 1.094 1.429v2.802h.569v-2.947c0-1.013-.433-1.771-1.573-1.771-.959 0-1.302.514-1.493.93h-.017v-.822h-.55c.036.371.036.732.036 1.085v3.525zm5.492-2.305c0-.896.281-1.926 1.365-1.926 1.041 0 1.367.814 1.367 1.926 0 .841-.371 1.818-1.403 1.818-.967 0-1.33-.913-1.33-1.818m3.3-2.305h-.568v.524h-.019c-.425-.551-.823-.632-1.438-.632-1.357 0-1.898 1.012-1.898 2.413 0 1.022.47 2.305 1.944 2.305.588 0 1.095-.235 1.402-.902h.018c0 1.301-.126 2.369-1.591 2.369-.498 0-1.004-.145-1.357-.327l-.044.57c.236.072.786.244 1.392.244 1.583 0 2.161-1.048 2.161-2.332v-4.231zm3.081 6.508h.567v-2.684h.019c.281.596.715.894 1.438.894 1.266 0 1.897-1.048 1.897-2.414 0-1.401-.541-2.413-1.897-2.413-.977 0-1.331.694-1.475.948h-.018l.036-.84h-.567v6.508zm3.299-4.203c0 .895-.28 1.926-1.365 1.926-1.014 0-1.367-1.085-1.367-1.926s.353-1.926 1.367-1.926c1.085 0 1.365 1.031 1.365 1.926m5.505-2.305h-.569v2.549c0 .769-.325 1.681-1.365 1.681-.788 0-1.095-.56-1.095-1.428v-2.803h-.569v2.948c0 1.012.433 1.771 1.573 1.771.959 0 1.302-.514 1.493-.93h.018v.821h.551c-.036-.371-.036-.732-.036-1.084v-3.525zm1.497 4.61h.569v-.731h.019c.308.587.778.84 1.437.84 1.266 0 1.899-1.048 1.899-2.414 0-1.401-.543-2.413-1.899-2.413-.905 0-1.356.658-1.437.885h-.019v-2.947h-.569v6.78zm3.299-2.305c0 .895-.279 1.926-1.365 1.926-1.012 0-1.365-1.085-1.365-1.926s.327-1.926 1.365-1.926c1.086 0 1.365 1.031 1.365 1.926m1.927 2.305h.57v-6.78h-.57v6.78zm2.091 0h.568v-4.61h-.568v4.61zm.569-6.598h-.569v.758h.569v-.758zm4.627 2.06c-.164-.054-.561-.179-1.113-.179-1.363 0-2.277.993-2.277 2.413 0 1.284.722 2.414 2.205 2.414.433 0 .795-.028 1.185-.163l-.055-.533c-.343.126-.678.208-1.04.208-1.04 0-1.672-.876-1.672-1.926 0-1.121.624-1.926 1.735-1.926.308 0 .679.099.986.236l.046-.543zm3.116 4.538h.569v-4.122h1.04v-.487h-1.04v-.398c0-.551-.082-1.393.697-1.393.162 0 .334.036.451.1l.036-.497c-.109-.064-.353-.09-.534-.09-1.184 0-1.219.975-1.219 1.943v.335h-.932v.487h.932v4.122zm6.3-4.61h-.57v2.549c0 .769-.324 1.681-1.365 1.681-.787 0-1.093-.56-1.093-1.428v-2.803h-.57v2.948c0 1.012.433 1.771 1.573 1.771.959 0 1.303-.514 1.492-.93h.019v.821h.551c-.036-.371-.036-.732-.036-1.084v-3.525zm1.532 4.61h.568v-2.55c0-.768.326-1.681 1.367-1.681.786 0 1.093.56 1.093 1.429v2.802h.57v-2.947c0-1.013-.434-1.771-1.573-1.771-.959 0-1.303.514-1.493.93h-.018v-.822h-.551c.036.371.036.732.036 1.085v3.525zm8.804-6.78h-.567v2.947h-.019c-.082-.227-.533-.885-1.438-.885-1.357 0-1.897 1.012-1.897 2.413 0 1.366.632 2.414 1.897 2.414.66 0 1.13-.253 1.438-.84h.019v.731h.567v-6.78zm-3.299 4.475c0-.896.28-1.926 1.365-1.926 1.013 0 1.367 1.085 1.367 1.926s-.354 1.926-1.367 1.926c-1.085 0-1.365-1.031-1.365-1.926m4.793 2.305h.568v-4.61h-.568v4.61zm.569-6.598h-.569v.758h.569v-.758zm1.523 6.598h.57v-2.55c0-.768.325-1.681 1.365-1.681.786 0 1.096.56 1.096 1.429v2.802h.567v-2.947c0-1.013-.433-1.771-1.572-1.771-.959 0-1.303.514-1.493.93h-.018v-.822h-.551c.036.371.036.732.036 1.085v3.525zm5.492-2.305c0-.896.281-1.926 1.366-1.926 1.04 0 1.364.814 1.364 1.926 0 .841-.37 1.818-1.401 1.818-.968 0-1.33-.913-1.33-1.818m3.299-2.305h-.569v.524h-.017c-.426-.551-.824-.632-1.439-.632-1.355 0-1.897 1.012-1.897 2.413 0 1.022.469 2.305 1.941 2.305.588 0 1.096-.235 1.404-.902h.017c0 1.301-.126 2.369-1.59 2.369-.498 0-1.003-.145-1.355-.327l-.045.57c.235.072.788.244 1.392.244 1.582 0 2.159-1.048 2.159-2.332v-4.231zm3.08 4.61h.569v-.731h.019c.308.587.777.84 1.437.84 1.267 0 1.898-1.048 1.898-2.414 0-1.401-.542-2.413-1.898-2.413-.903 0-1.357.658-1.437.885h-.019v-2.947h-.569v6.78zm3.301-2.305c0 .895-.279 1.926-1.366 1.926-1.014 0-1.366-1.085-1.366-1.926s.327-1.926 1.366-1.926c1.087 0 1.366 1.031 1.366 1.926m1.855-2.305h-.624l1.634 4.665-.117.407c-.181.596-.343 1.003-.833 1.003-.206 0-.316-.036-.422-.072l-.056.487c.19.045.407.073.616.073.641 0 .967-.632 1.184-1.265l1.842-5.298h-.596l-1.328 3.842h-.009l-1.291-3.842"/><path d="M96.829 59.054h.666v-50.719h-.666v50.719z"/></g><path d="M253 68h109v-68h-109v68z" fill="none"/><path d="M261.809 60.229h85.081v1.086h-85.081zm78.624-.893s.885-.249 1.283-.696c.397-.447.546-.587.546-.835 0-.249-.049-1.143-.049-1.143s-.149.198-.597.298c-.447.099-.487.199-.736.596-.248.398-.447 1.78-.447 1.78m-17.5-11.199c-.199.249-.244.632-.348 1.106-.105.478-.07 1.009-.07 1.009s.776-.126 1.263-.673c.487-.546.476-.994.438-1.192-.04-.199-.239-.348-.239-.348s-.845-.15-1.044.099m7.702-12.653s.044 1.131.64 1.877c.597.745 1.481 1.203 1.879 1.691.398.487.696 1.282.696 1.282s-.606-.154-.805.681c-.199.835.293 1.444.055 1.593-.239.149-1.081.297-2.164.983-1.084.687-3.721 2.266-4.159 2.713-.437.448-.851.929-.851.929s-.272-.309-.769-.109c-.497.199-.544.467-.544.467l-1.126-.138s.538-.596.687-1.043c.149-.447.74-.164 1.386-.512.646-.348 1.424-.933 2.557-1.867 1.134-.935 2.221-1.628 2.023-2.214-.199-.587-1.497-1.028-2.133-2.608-.636-1.581-.24-3.063.247-3.312.487-.248 2.379-.412 2.379-.412m-9.563.818c.377.423.542.547.98.786.437.239.657.172.657.172s.05-.501.031-.812c-.029-.485-.283-.818-.283-.818s-.521-.103-.812-.249c-.227-.113-.281-.536-.281-.536s-.931.74-.291 1.457m-5.085-16.889s-.651-.408-1.437.189c-.785.596-1.199 1.594-1.003 1.666.321.116 1.567-.072 1.649-.32.209-.629.24-.979.439-1.178l.352-.356m11.53 2.317s-1.034-.826-1.68-1.075c-.646-.249-1.262-.996-1.551-1.444-.288-.448-.686-1.18-1.478-1.716-.735-.497-.789-.293-2.767.055-1.978.348-2.131.412-2.983.412-1.367 0-1.936.689-1.313.793 1.183.199 1.386 1.062 1.698.712.682-.764 1.482-.852 2.516-.901 1.034-.05 1.583-.258 1.921.04.338.299.04.348.537.796.497.447.298.059.596.745.299.686.497 2.317 2.028 3.162 1.532.845 1.382.676 1.382.676s.05-.816.398-1.313c.348-.497.696-.944.696-.944m14.316 1.581c.394-.23.729-.47 1.164-.125.631.501-.098.96.051 1.905.149.944.509 1.419.509 1.419s-.785.515-1.165.894c-.457.457-.457 1.038-.457 1.038s-.373-.664.377-1.472c.402-.434.677-1.193.37-1.976-.539-1.373-1.107-1.011-1.849-.522-.602.397.147-.664 1-1.161m-.979-.084s-.726.332-1.1.831c-.718.956-.174.329-.81 1.164-.526.691-.838.942-2.13 1.19-.45.086-2.217-.248-2.217-.248s.835.785 2.664.646c1.693-.128 2.376-.696 2.376-.696s-.573 1.572-3.709 1.332c-.817-.063-1.497.352-1.497.352s0 .622-.532 1.279c-.539.664-1.094.745-1.094.745s.692.303 1.92-.965c.486-.502.137-.593.601-.747.312-.104 2.019.009 3.658-.498 1.206-.374 1.741-1.926 1.843-2.551.025-.15-1.947 1.053-.576-.921.187-.331.601-.913.601-.913m-7.301.183s.994-.249 1.133-.497c.14-.249.1-.587.647-.438.546.15.487.985 1.382 1.184.894.198 2.525-.15 2.525-.15s-1.73 1.044-2.615.945c-.885-.1-.742-.701-1.339-1-.596-.298-1.733-.045-1.733-.045m7.915-.636s1.558-1.12 2.355-.186c.795.934.171 1.219.086 2.439-.084 1.192 1.219 1.754 1.219 1.754s-.55-.413.086-1.944c.319-.767.257-3.366-1.618-3.505-.427-.032-.736-.687-.736-.687s-.298.736-.597 1.134c-.298.398-.795.994-.795.994m2.028-5.201s.249-.199.447-.099c.199.099.398.248.398.248s-.239.636.249 1.183c.487.547 1.382 1.243 1.481 2.327.099 1.083-.199 1.829-.199 1.829s.312-.955-.745-2.177c-.637-.736-.339-.338-1.233-.537-.759-.169-.796-.845-.796-.845s.081-.206.15-.448c.053-.182 1.242 1.342.099-.537-.053-.088.011-.226.031-.35.044-.297.118-.594.118-.594m2.774.199s-.657-.835-1.044-1.283l-.437-.497s-.249.15-.497.05c-.249-.099-.895-.447-.895-.447s.149.508.149.795c0 .288-.05.537-.05.537s.448-.199.796 0c.348.199.387-.149.785 0s1.193.845 1.193.845m-5.35-6.881s.249.249 1.044.199c.795-.05.885-.348 1.68-.1.795.249 1.143.845 1.143.845l-.845.05s-.458-.298-.795-.348c-.338-.05-.885.05-.885.05s.537.059 1.034.447.398.587.945.985c.546.397.984.309 1.282.894l.795 1.581s-.607-.348-1.143-.298c-.537.05-.736.298-1.034.149-.298-.149-.696-.447-.696-.447l-.163-1.032s.491.381.859.395c.156.006.398-.049.398-.049s-.788-.225-.899-.641c-.095-.354-.881-.752-.881-.752s-.646-1.084-.895-1.283c-.248-.199-.944-.646-.944-.646m-1.78-1.233s1.204-.596 1.741-.696c.537-.099.636-.149 1.083 0 .448.149.488 0-.298.298-.785.299-1.282 1.134-1.282 1.134s-.299-.289-.547-.487c-.249-.199-.696-.249-.696-.249m-1.382-1.243s.34-.326.746-.537c.407-.211 1.332-.298 1.332-.298s-.597.248-.994.835c-.38.56-.487.895-.487.895l-.249-.149-.348-.746zm-5.633-.935s.583-.249 1.378.099c.796.348.695 1.084.695 1.084s-.099.15-.447.398c-.348.249-.398.249-.398.249s-.222-.229-.583-.303c-.357-.074-1.042-.05-.397-.198.402-.092 1.128.176 1.129-.046.001-.252-.172-.663-.47-.862-.298-.198-.907-.421-.907-.421m1.377-.497s.408-.298.944-.298c.537 0 1.233.348 1.233.348s.05.497-.049.745c-.1.249-.1.438-.1.438l-.596.099s.009-.388-.438-.785c-.447-.398-.994-.547-.994-.547m19.634 28.647s-.246.954-.923 2.509c-.457 1.05-1.032 2.233-.462 3.449.319.679.678.799 1.169 1.986.493 1.186-.092 2-.092 2s.863-.876.632-1.846c-.231-.97-1.098-1.998-1.309-2.557-.339-.892.15-2.259.432-3.001.553-1.463.553-2.54.553-2.54m-1.785.4s.181-1.669-.798-1.995c-.979-.326-1.751-.447-2.077.38-.327.828-.605 2.333-.942 2.985-.338.652-.996 1.2-1.432 1.2-.435 0-1.371-.061-1.371-.061l-.246-.585s1.073.426 1.617.154 1.014-.527 1.286-1.669.054-3.014.49-4.103c.435-1.087 1.413-2.241 2.567-2.133 1.154.108 1.707.175 2.292 1.268.506.947.816 2.356-.186 4.741-.647 1.544-1.21 2.103-1.688 3.812-.52 1.856.843 2.078 1.442 3.547.598 1.469.11 1.408 0 2.441-.108 1.034.246 2.455.246 2.455l-.735-.703s.345-1.923.181-2.685c-.164-.761-1.555-2.078-1.555-2.078s1.049 1.525 1.002 2.771c-.063 1.631-.724 3.094-.724 3.094s.648-1.739-.031-3.124c-.43-.879-.585-.478-1.077-1.771-.353-.927-.31-2.006-.31-2.006s-.446 1.033-.228 2.241c.217 1.208.392 1.088.174 1.862-.239.849-.936 1.697-.936 1.697s.594-.941.237-2.115c-.38-1.251-.615-.97-.585-2.187.042-1.622 1.23-2.488 1.23-2.488s-.932-.018-1.476 1.288c-.544 1.305-.385 1.889-.385 1.889s-.653-1.251.163-2.513c.816-1.262.991-.785 2.078-2.253 1.088-1.468 2.024-2.066 2.187-3.71.164-1.643-.034-3.059-.772-3.231-1.631-.381-2.35 1.099-2.35 1.099s1.237-.838 2.173-.24c.936.598.54 2.725.54 2.725m-10.192-24.512s1.597 1.684 1.416 4.999c-.18 3.313-1.898 5.934-1.898 5.934s2.412-2.291 2.292-6.114c-.121-3.823-1.81-4.819-1.81-4.819m-11.775 3.995c0-.301.316-.466.617-.466.255 0 .557.075.557.33 0 .301-.301.391-.587.482 0-.15.03-.255.06-.391l-.362.045h-.286zm4.409-3.503c-.007-.033.269-.168.375-.332.263-.402.594.092.764.008-.073.065-.423-.237-.491.038-.046.188.151.35.338.35.188 0 .9-.492.9-.686 0-.147-1.531-.1-1.283-.249.415.016 1.382-.099 1.382-.099s1.034.547-.149 1.044c-.253.106-1.207.26-1.378.193-.172-.067-.434-.17-.458-.267m7.947 22.968s-.269-.558-1.904-1.904c-1.024-.843-1.537-1.556-2.019-2.671-.351-.814-.3-1.718-.3-1.718s-1.655.1-1.958.334c-.456.351-1.619 1.695-2.921 1.625-2.231-.121-2.471-1.263-2.471-1.263s2.893.721 3.495-1.176c.156-.495-.662-.301-1.657.3-.403.244.06-1.143 1.597-1.203 2.077-.081 1.115-.394.12-.635-1.04-.251-2.318.273-2.318.273s.384-.544 1.476-1.176c1.578-.911 2.817.109 3.463.06 1.597-.12 2.259-1.296 2.259-1.296s-.994.674-2.018.694c-1.657.032-1.231-1.137-2.499-1.297-.963-.12-1.657.936-1.657.936s-.361-1.598 1.115-2.019c1.031-.294.52-1.176 1.477-1.176 1.957 0 1.21 1.168 2.342 1.344 1.132.175 1.829-.299 2.526-.935.895-.944 2.775-5.555 1.468-8.485-1.169-3.199-2.491-3.546-3.415-3.73-.301-.059-.542-.782-.542-.782s-.12-.842-.41-1.512c-.393-.907-.782-.701-.782-.701s-.054.237.015.797c.071.561-.015 1.036-.015 1.036s-.341.686-.586.441c-.245-.246-.241-.542-.241-.542s-.345.08-1.257.922c-.911.841-1.24.929-1.525 1.895-.466.841-1.001 1.618-2.027 2.435-1.027.816-1.79 1.058-2.051 1.304-.428.271-.114.36 0 .624.114.265.068.629.889.416.587.019.681.229.87.356.679.454-.375 1.24 0 1.306.867.151.679-1.043.981-1.306.302-.262.476-.28.965-.413.489-.132.735-.19 1.018-.057.284.132 1.59.732 2.558.282 2.297-.428 3.006-3.633 3.006-3.633s.371 2.934-2.915 4.803c-.909.682-1.154.876-1.588 1.005-.436.129-.962-.135-1.927.375-.965.511-1.101.833-1.59 1.155-.489.321-1.188.28-1.473.64-.283.36-.735.835-1.113 1.59-.378.754-.965 1.283-1.021 1.889-.057.606-.057 1.303-.057 1.303s.492-.019.946 0l1.038.038s.08-.293.775-1.038c.529-.567 1.086-.986 1.208-.813l-.755.813c-.622.836-.567 1.7-.567 1.7s-1.798-.094-3.119-.038c-1.322.056-1.13-.09-1.622.024-.492.113-2.684.638-3.138.676-.454.038-1.077-.147-1.547.288-.47.436-.266 1.32-.285 1.62-.019.3.132 3.154.019 3.456-.114.303-.341.906-.208 1.265.133.359.3.416.49.964.189.549 1.036-.341 1.339-.794.102-.153.343-.38 0-.587-.023-.066-.035.036-.261-.575-.341-.925-.328-.757-.233-1.684.095-.927-.05-1.362.082-1.532.132-.17-.001-.191.207-.343.207-.151.572-.567.872-.605.299-.039 1.581.207 2.659.151 1.079-.057 2.523-.032 3.7-.15 2.077-.208 2.392-.832 2.619-.662.125.094.405.863-.935 1.204-1.313.334-2.114.119-2.114.119s.867 1.451 1.51 2.643c.643 1.191.848 2.403 1.568 3.365.35.885-.065 1.901 1.931 3.112.721.439 1.32 2.148 1.32 2.148.203.143.023.397.567.288.544-.108.87.109.87.109s-.108-.284.218-1.534c.326-1.252 1.223-2.84 1.223-2.84s-.667 1.752-.613 3.939c.054 2.187.218 3.014.87 4.319.652 1.306.733 1.115 2.213 2.486 1.48 1.372 1.699 1.591 1.807 2.841.11 1.251.165 1.322 0 2.708-.155 1.319-.031 1.888-.537 2.975-.159.341-.44.755-.058.863.38.108.404-.23.84-.611.435-.381 1.008-.106 1.008-1.26s-.334-.796-.116-2.657c.217-1.862.861-2.572.698-3.171-.164-.598-.753-.46-.97-1.45-.218-.991-.279-2.741-.768-3.285-.49-.544 1.144.466 2.026-2.603.668-2.324.32-1.972-.398-3.506-.719-1.534-.811-1.973-1.763-2.886m-12.474-17.84c-.126-.175-.093-.125.077-.352.171-.227.082-.118.347-.061.265.057.283.171.19.322-.095.151-.341.166-.614.092m-24.138 41.399c-.068-.957-.068-1.874-.068-2.831v-5.029c0-.729.04-2.09.068-2.562l-2.158.134c.27 1.51.27 3.128.27 3.707v3.749c0 1.064-.054 2.063-.068 2.831h1.955zm-3.476 0c-.027-.755-.068-1.537-.068-2.306v-2.467c0-.715.014-1.106.068-2.144l-2.09.134c.121.971.202 1.862.202 2.845v1.631c0 .768-.041 1.551-.068 2.306h1.955zm-3.111-1.321c-.283.027-.58.068-.863.068-1.658 0-2.508-1.052-2.508-2.455 0-1.254.809-1.888 2.117-1.888.432 0 .863.068 1.281.122v-1.483c-.404-.068-.782-.121-1.376-.121-1.725 0-3.842.687-3.842 3.37 0 2.724 1.968 3.938 4.018 3.938.391 0 .782-.054 1.173-.149v-1.402zm-10.878 1.321c-.027-.755-.068-1.767-.068-2.306v-.863c0-1.631.297-2.426 1.456-2.426.89 0 1.147.795 1.147 1.968v1.322c0 .768.04 1.537.068 2.306h1.888c-.081-.741-.136-1.767-.136-2.306v-1.591c0-1.928-.593-3.182-2.265-3.182-1.362 0-1.928.661-2.426 1.159-.095-.377-.136-.687-.243-.997l-1.713.134c.216.971.404 1.862.404 2.845v1.631c0 .768-.04 1.551-.068 2.306h1.955zm-3.422 0c-.068-.997-.134-1.564-.134-2.791v-1.847c0-.849.094-1.51.134-2.278l-2.09.134c.041.445.134 1.214.134 2.144v.984c0 1.376-.175 2.4-1.456 2.4-1.079 0-1.227-.997-1.227-2.4v-.984c0-.849.095-1.51.136-2.278l-2.091.134c.041.445.136 1.214.136 2.144v1.847c0 1.915.755 3.021 2.278 3.021 1.322 0 1.888-.701 2.36-1.173l.067.943h1.753zm-11.309.229c2.144 0 3.573-1.658 3.573-3.694 0-2.144-1.443-3.614-3.573-3.614-2.144 0-3.6 1.429-3.6 3.614 0 2.143 1.483 3.694 3.6 3.694m-1.78-3.694c0-1.281.581-2.13 1.78-2.13 1.173 0 1.753.782 1.753 2.13 0 1.254-.567 2.211-1.753 2.211-1.133 0-1.78-.943-1.78-2.211m-2.41 1.901c-.377.081-.661.107-1.159.107-2.225 0-3.439-1.563-3.439-3.626 0-1.942 1.119-3.061 2.926-3.061.513 0 1.025.095 1.524.176v-1.685c-.526-.122-1.052-.176-1.592-.176-3.101 0-4.88 1.821-4.88 4.558 0 3.047 1.874 5.5 5.245 5.5.458 0 .916-.014 1.375-.107v-1.685zm32.958-6.683c.297-1.349.445-2.09 1.173-3.923l2.319-5.933-2.022.135c-.216.741-.377 1.429-.607 2.157l-.849 2.657h-.027l-.432-1.349c-.472-1.429-1.011-2.737-1.415-3.6l-2.022.135c.741 1.443 1.536 2.926 2.238 4.773l.714 1.888-.296.863c-.256.741-.593 1.496-.931 2.332l2.158-.134zm-4.526-4.234c-.148.027-.297.041-.445.041-.997 0-.997-.634-.997-1.592v-2.724h1.361l.095-1.348c-.607.068-1.065.068-1.456.068v-.229c0-.284.068-1.187.121-1.794l-1.941.674v1.349h-1.201l-.094 1.348c.498-.027.998-.068 1.295-.068v3.384c0 2.076 1.443 2.414 2.345 2.414.297 0 .54-.041.81-.068l.107-1.456zm-9.624 1.294c-.027-.755-.068-1.767-.068-2.306v-.863c0-1.631.297-2.426 1.456-2.426.89 0 1.147.795 1.147 1.968v1.322c0 .768.041 1.537.068 2.306h1.887c-.08-.741-.134-1.767-.134-2.306v-1.591c0-1.928-.593-3.182-2.265-3.182-1.362 0-1.928.661-2.426 1.159-.095-.377-.136-.687-.243-.997l-1.712.134c.216.971.404 1.862.404 2.845v1.631c0 .768-.041 1.551-.068 2.306h1.955zm-3.422 0c-.068-.997-.134-1.564-.134-2.791v-1.847c0-.849.094-1.51.134-2.278l-2.09.134c.04.445.134 1.214.134 2.144v.984c0 1.376-.175 2.4-1.456 2.4-1.079 0-1.227-.997-1.227-2.4v-.984c0-.849.095-1.51.136-2.278l-2.09.134c.04.445.134 1.214.134 2.144v1.847c0 1.915.755 3.021 2.278 3.021 1.322 0 1.888-.701 2.36-1.174l.067.944h1.753zm-11.309.229c2.144 0 3.573-1.658 3.573-3.694 0-2.144-1.443-3.614-3.573-3.614-2.144 0-3.6 1.429-3.6 3.614 0 2.143 1.483 3.694 3.6 3.694m-1.779-3.694c0-1.281.58-2.13 1.779-2.13 1.173 0 1.753.782 1.753 2.13 0 1.254-.567 2.211-1.753 2.211-1.133 0-1.779-.943-1.779-2.211m-2.411 1.901c-.377.081-.661.107-1.159.107-2.225 0-3.439-1.563-3.439-3.626 0-1.942 1.119-3.061 2.926-3.061.513 0 1.025.095 1.524.176v-1.685c-.526-.122-1.052-.175-1.592-.175-3.101 0-4.88 1.82-4.88 4.557 0 3.047 1.874 5.5 5.245 5.5.458 0 .916-.012 1.375-.107v-1.685zm45.277-11.943c-.285.052-.569.077-.854.077-1.916 0-1.916-1.216-1.916-3.054v-5.227h2.614l.181-2.589c-1.165.13-2.045.13-2.795.13v-.441c0-.543.129-2.277.232-3.442l-3.726 1.293v2.589h-2.304l-.181 2.588c.958-.052 1.916-.129 2.485-.129v6.496c0 3.986 2.769 4.633 4.503 4.633.57 0 1.036-.078 1.553-.129l.207-2.795zm-18.472 2.485c-.052-1.45-.129-3.391-.129-4.426v-1.656c0-3.132.569-4.659 2.795-4.659 1.707 0 2.199 1.527 2.199 3.778v2.537c0 1.475.078 2.951.129 4.426h3.624c-.155-1.424-.26-3.391-.26-4.426v-3.054c0-3.701-1.138-6.108-4.347-6.108-2.614 0-3.701 1.267-4.659 2.225-.181-.724-.258-1.32-.466-1.915l-3.286.258c.414 1.864.777 3.572.777 5.461v3.132c0 1.475-.078 2.976-.13 4.426h3.753zm-7.392-2.821c-.958.181-1.941.414-2.925.414-3.986 0-4.918-2.381-4.995-3.597h9.136l.026-.829c0-3.054-1.398-6.755-6.237-6.755-3.727 0-6.42 2.537-6.42 6.186 0 4.478 3.003 7.842 8.05 7.842 1.139 0 2.225-.129 3.365-.415v-2.847zm-7.919-5.383c.103-.958.906-2.536 3.028-2.536 1.734 0 2.64 1.501 2.64 2.536h-5.668zm-2.99 8.205c-2.485-2.795-4.115-4.814-5.642-7.247l-1.605-2.536 5.668-8.645h-4.347c-.363.855-1.139 2.33-2.097 3.909l-3.08 5.047 2.485 4.218c.44.777 2.769 4.038 3.701 5.254h4.918zm-11.104 0c-.051-1.346-.129-3.338-.129-4.762v-8.437c0-2.07.078-3.908.129-5.228h-4.529c.337 1.527.518 3.158.518 5.228v8.437c0 1.424-.052 3.417-.13 4.762h4.141z" opacity=".893" color="#000" fill="#fff" overflow="visible" enable-background="accumulate"/><g><path d="M391.153 4.891c-16.072 0-29.101 13.028-29.101 29.101 0 16.075 13.029 29.107 29.101 29.107l.285-.006 160.646.006v-58.208l-159.97.024c-.318-.009-.639-.024-.961-.024z" fill="none"/><path d="M524.71 30.815l8.159-.023c-.121-1.361-.53-2.42-1.235-3.193-.695-.764-1.601-1.15-2.709-1.15-1.141 0-2.079.387-2.83 1.15-.749.773-1.21 1.84-1.386 3.216zm14.35 10.27c-1.43.93-2.946 1.62-4.533 2.073-1.591.446-3.285.674-5.094.674-3.618 0-6.454-.992-8.513-2.973-2.049-1.977-3.08-4.723-3.08-8.226 0-3.233 1.007-5.829 3.013-7.774 2.014-1.945 4.691-2.914 8.029-2.914 3.291 0 5.896 1.053 7.803 3.164 1.905 2.104 2.86 5.002 2.86 8.703v.218h-14.878v.092c0 1.672.568 2.99 1.71 3.957 1.135.97 2.694 1.453 4.677 1.453 1.334 0 2.663-.234 3.997-.71 1.323-.477 2.665-1.18 4.011-2.112zm-24.885 2.301h-6.629v-31.021h6.629zm-18.706-1.953c-.992.801-2.02 1.393-3.094 1.778-1.07.385-2.218.574-3.444.574-2.029 0-3.558-.49-4.594-1.476-1.037-.984-1.551-2.445-1.551-4.373 0-1.688.764-3.074 2.293-4.163 1.528-1.082 4.882-2.376 10.057-3.867l.031-.241.015-.364c0-.999-.342-1.742-1.008-2.226-.672-.475-1.716-.718-3.115-.718-1.183 0-2.393.287-3.641.863-1.241.574-2.452 1.415-3.632 2.504l.092-5.228c1.27-.854 2.669-1.499 4.199-1.922 1.529-.417 3.245-.629 5.154-.629 3.034 0 5.228.584 6.584 1.749 1.361 1.172 2.043 3.042 2.043 5.607v8.362c0 .49.069.833.197 1.022.134.189.354.287.666.287.289 0 .574-.037.879-.113.301-.069.71-.211 1.209-.417v3.679c-1.195.574-2.252.998-3.186 1.264-.923.264-1.8.4-2.623.4-1.056 0-1.878-.197-2.477-.59-.596-.387-.946-.976-1.051-1.763zm-.333-3.08v-5.138c-2.263.794-3.775 1.497-4.533 2.096-.764.597-1.143 1.308-1.143 2.133 0 .681.205 1.219.62 1.621.417.4.984.596 1.71.596.484 0 1.007-.113 1.575-.332.561-.22 1.15-.545 1.771-.976zm-39.322 5.433l-9.574-21.416h6.976l4.64 11.396 4.721-11.396h3.415l4.904 11.396 4.501-11.396h6.758l-9.572 21.416h-3.239l-5.123-11.707-5.123 11.707zm-33.14-2.862v-6.901c2.338 1.455 4.307 2.461 5.911 3.044 1.604.576 3.155.862 4.669.862 1.52 0 2.671-.234 3.458-.695.779-.469 1.173-1.158 1.173-2.075 0-.739-.241-1.338-.733-1.785-.486-.455-1.627-.992-3.413-1.613-4.42-1.551-7.462-3.132-9.12-4.752-1.665-1.62-2.497-3.685-2.497-6.197 0-2.642 1.08-4.791 3.247-6.449 2.163-1.656 4.987-2.481 8.46-2.481 1.756 0 3.52.211 5.297.643 1.772.431 3.526 1.06 5.253 1.884v6.364c-2.081-1.051-3.951-1.823-5.609-2.322-1.656-.506-3.163-.756-4.524-.756-1.476 0-2.604.211-3.377.643-.779.431-1.164 1.044-1.164 1.84 0 .649.348 1.256 1.044 1.83.689.568 1.74 1.105 3.149 1.627.295.113.741.287 1.346.507 2.96 1.097 5.079 2.037 6.365 2.816 1.346.824 2.361 1.892 3.05 3.193.689 1.3 1.028 2.822 1.028 4.562 0 2.868-1.08 5.123-3.247 6.767-2.162 1.641-5.167 2.458-9.011 2.458-1.924 0-3.785-.249-5.578-.756-1.794-.5-3.519-1.256-5.176-2.257m111.505 13.957v-7.911h1.977v6.383h3.41v1.528zm-1.592 0h-2.041v-7.912h2.041zm-3.27-.662c-.475.272-.96.472-1.459.607-.498.13-1.018.196-1.565.196-.619 0-1.189-.095-1.707-.281-.516-.189-.97-.468-1.358-.833-.399-.38-.706-.825-.914-1.335-.211-.507-.315-1.054-.315-1.638 0-1.23.409-2.22 1.231-2.973.82-.75 1.901-1.126 3.247-1.126.481 0 .953.052 1.412.157.46.107.911.269 1.358.487v1.855c-.437-.284-.874-.494-1.317-.634-.439-.139-.882-.209-1.322-.209-.799 0-1.429.215-1.885.651-.457.432-.688 1.03-.688 1.792 0 .738.218 1.329.657 1.769.435.442 1.025.662 1.763.662.475 0 .95-.084 1.43-.251.478-.168.955-.416 1.43-.744zm-14.451-4.309v4.97h-1.957v-7.911h1.734l4.24 4.717v-4.717h1.959v7.911h-1.551zm-3.461-2.941v4.53c0 1.108-.329 1.972-.985 2.591-.659.62-1.578.93-2.758.93-1.176 0-2.093-.31-2.75-.93-.66-.619-.987-1.484-.987-2.591v-4.53h1.989v4.451c0 .629.151 1.111.452 1.445.303.335.739.5 1.311.5.573 0 1.002-.165 1.302-.497.299-.332.448-.816.448-1.448v-4.451zm-17.183 3.965c0-.59.104-1.132.31-1.63.208-.501.518-.947.929-1.338.399-.376.854-.657 1.361-.842.506-.185 1.073-.278 1.694-.278.628 0 1.199.093 1.707.28.51.188.964.468 1.366.84.406.391.717.837.924 1.338.209.498.313 1.04.313 1.63 0 .584-.104 1.125-.313 1.624-.208.501-.518.943-.924 1.326-.405.377-.862.66-1.374.851-.51.191-1.076.286-1.699.286-.619 0-1.183-.095-1.69-.281-.507-.189-.963-.475-1.366-.856-.406-.383-.717-.825-.924-1.326-.211-.5-.315-1.04-.315-1.624zm2.035 0c0 .703.214 1.285.639 1.739.425.452.964.68 1.621.68.659 0 1.201-.228 1.626-.68.425-.454.637-1.036.637-1.739 0-.709-.212-1.291-.637-1.748-.425-.457-.967-.684-1.626-.684-.657 0-1.196.228-1.621.684-.425.457-.639 1.039-.639 1.748zm-2.816 3.285c-.474.272-.96.472-1.458.607-.498.13-1.018.196-1.566.196-.619 0-1.187-.095-1.705-.281-.518-.189-.972-.468-1.36-.833-.399-.38-.703-.825-.912-1.335-.209-.507-.315-1.054-.315-1.638 0-1.23.408-2.22 1.23-2.973.82-.75 1.902-1.126 3.247-1.126.484 0 .955.052 1.412.157.458.107.914.269 1.361.487v1.855c-.439-.284-.877-.494-1.319-.634-.44-.139-.882-.209-1.322-.209-.799 0-1.429.215-1.887.651-.455.432-.686 1.03-.686 1.792 0 .738.218 1.329.655 1.769.435.442 1.025.662 1.765.662.475 0 .95-.084 1.429-.251.48-.168.956-.416 1.43-.744zm-19.118.662v-7.911h1.98v3.172h3.523v-3.172h1.979v7.911h-1.979v-3.205h-3.523v3.205zm-1.38-.927c-.48.362-.993.628-1.534.805-.541.176-1.134.263-1.777.263-.623 0-1.193-.095-1.713-.286-.521-.191-.972-.468-1.351-.828-.4-.38-.706-.825-.914-1.335-.209-.507-.315-1.054-.315-1.638 0-1.235.409-2.223 1.23-2.975.82-.75 1.905-1.125 3.259-1.125.494 0 .984.058 1.464.176.483.115.975.298 1.476.542v1.736c-.521-.269-1.024-.468-1.497-.599-.477-.134-.921-.199-1.334-.199-.801 0-1.427.215-1.879.651-.454.432-.681 1.03-.681 1.792 0 .743.215 1.334.649 1.774.432.437 1.016.657 1.746.657.197 0 .393-.02.581-.061.194-.043.385-.102.579-.182v-.995h-1.091v-1.49h3.102zm-8.717-6.984v4.53c0 1.108-.327 1.972-.985 2.591-.657.62-1.577.93-2.756.93-1.176 0-2.093-.31-2.752-.93-.657-.619-.987-1.484-.987-2.591v-4.53h1.989v4.451c0 .629.151 1.111.454 1.445.301.335.738.5 1.311.5.568 0 1.004-.165 1.3-.497.299-.332.449-.816.449-1.448v-4.451zm-17.181 3.965c0-.59.104-1.132.309-1.63.209-.501.518-.947.93-1.338.399-.376.853-.657 1.36-.842.509-.185 1.073-.278 1.694-.278.628 0 1.201.093 1.708.28.509.188.964.468 1.364.84.406.391.717.837.924 1.338.211.498.315 1.04.315 1.63 0 .584-.104 1.125-.315 1.624-.208.501-.518.943-.924 1.326-.403.377-.86.66-1.372.851-.512.191-1.077.286-1.701.286-.617 0-1.181-.095-1.688-.281-.507-.189-.964-.475-1.366-.856-.408-.383-.717-.825-.926-1.326-.209-.5-.313-1.04-.313-1.624zm2.037 0c0 .703.211 1.285.636 1.739.423.452.966.68 1.621.68.66 0 1.202-.228 1.627-.68.425-.454.636-1.036.636-1.739 0-.709-.211-1.291-.636-1.748-.425-.457-.967-.684-1.627-.684-.655 0-1.198.228-1.621.684-.425.457-.636 1.039-.636 1.748zm-9.161 3.947v-7.911h2.921c1.076 0 1.87.188 2.382.561.512.371.769.95.769 1.736 0 .437-.113.811-.339 1.123-.226.309-.571.574-1.04.79.197.07.373.189.529.358.157.168.293.38.411.636l1.261 2.709h-2.232l-1.005-2.28c-.163-.362-.348-.608-.556-.744-.206-.138-.503-.205-.883-.205l-.118.005-.115.006v3.218zm2.934-4.663c.367 0 .64-.079.819-.232.179-.151.269-.383.269-.695 0-.301-.093-.527-.281-.683-.186-.154-.455-.234-.807-.234h-.95v1.844zm-12.736.717c0-.59.104-1.132.31-1.63.208-.501.518-.947.927-1.338.4-.376.854-.657 1.363-.842.506-.185 1.073-.278 1.693-.278.629 0 1.199.093 1.708.28.509.188.964.468 1.364.84.408.391.717.837.923 1.338.212.498.316 1.04.316 1.63 0 .584-.104 1.125-.316 1.624-.206.501-.515.943-.923 1.326-.403.377-.86.66-1.372.851-.512.191-1.077.286-1.701.286-.617 0-1.181-.095-1.688-.281-.507-.189-.964-.475-1.367-.856-.406-.383-.717-.825-.924-1.326-.209-.5-.313-1.04-.313-1.624zm2.035 0c0 .703.212 1.285.637 1.739.425.452.966.68 1.621.68.66 0 1.202-.228 1.627-.68.423-.454.637-1.036.637-1.739 0-.709-.214-1.291-.637-1.748-.425-.457-.967-.684-1.627-.684-.655 0-1.196.228-1.621.684-.425.457-.637 1.039-.637 1.748zm-9.473 3.947v-7.911h2.918c1.039 0 1.824.17 2.353.512.532.341.796.848.796 1.519 0 .351-.09.659-.269.923-.179.264-.44.472-.784.628.555.173.967.429 1.239.77.272.342.408.775.408 1.291 0 .761-.261 1.326-.779 1.704-.521.376-1.305.565-2.347.565zm3.013-4.782c.359 0 .626-.067.802-.205.176-.136.263-.339.263-.616 0-.304-.09-.532-.267-.683-.177-.147-.442-.222-.798-.222h-1.022v1.725zm-1.022 3.334h1.147c.512 0 .879-.072 1.097-.215.218-.144.328-.38.328-.709 0-.341-.116-.591-.347-.753-.232-.162-.596-.244-1.089-.244h-1.137v1.922m-26.328 1.358c-.944-1.893-.295-4.154-.684-6.185-.279-3.298-.195-6.606.042-9.902.027-2.264-2.155-4.416-4.464-3.821-2.569.432-5.575 1.41-6.713 3.984-1.011 2.163-1.954 4.368-3.059 6.489-.512-1.322.512-2.674.507-4.031.399-1.283.789-3.292-.813-3.908-1.811-.521-3.614-1.021-5.461-1.422 1.784-.994 3.923.103 5.859-.25 2.238.337 4.32-.672 5.843-2.26 1.432-1.381 3.029-3.356 2.216-5.47-.756-2.403-3.462-2.975-5.507-3.826-2.402-.929-4.543-2.39-6.781-3.647-.989-.752-2.839-1.25-3.277-2.187.931-.137 1.893.402 2.853.531l14.49 3.4c1.878.863 2.486 2.97 2.741 4.837 1.24 1.119 2.881-1.03 4.41-.356 1.052.025 3.036-1.457 3.328-1.011-1.52 1.204-2.446 2.838-3.444 4.416-1.147.716-1.588 2.367.052 2.749 1.738 1.084 2.428 3.351 1.685 5.243-1.037 4.086-1.773 8.236-2.817 12.321-.335 1.435-.669 2.87-1.009 4.304m-7.097-44.716c13.169 0 23.834 10.659 23.834 23.828 0 13.169-10.665 23.828-23.834 23.828s-23.828-10.659-23.828-23.828c0-13.169 10.659-23.828 23.828-23.828z" fill="#fff" fill-rule="evenodd"/></g><path d="M567.725 65.207c-2.813-.962-3.308-5.628-.784-7.391.835-.583 2.764-.81 3.864-.454 1.403.454 2.603 2.248 2.607 3.897.001.485-.039.492-2.913.492h-2.915l.145.492c.192.654 1.137 1.477 1.697 1.477.605 0 1.343-.39 1.796-.949.362-.447.396-.45 1.171-.087.923.432.957.56.351 1.316-.989 1.233-3.309 1.792-5.018 1.207zm3.234-5.206c0-.467-.916-1.094-1.6-1.094-.744 0-1.523.521-1.523 1.018 0 .218.402.294 1.561.294.892 0 1.561-.094 1.561-.219zm20.855 5.032c-1.033-.516-1.019-.514-.948-.164.039.19-.286.273-1.059.273h-1.115l-.051-6.235c-.028-3.429-.053-6.358-.056-6.508-.004-.214-1.919-.273-8.818-.273h-8.813l.058-9.024c.057-8.851.067-9.025.504-9.047 1.836-.092 1.673.044 1.673-1.4v-1.313h-2.23v-2.593c0-1.426.108-2.898.241-3.271.323-.908 2.097-1.794 3.595-1.794h1.071v-1.623c0-.974-.097-1.654-.243-1.702-.507-.166-3.788.231-4.897.593-1.395.455-2.702 1.691-3.074 2.908-.151.495-.262 2.264-.262 4.17v3.311h-2.23v2.602l1.059.067 1.059.067.058 9.024.058 9.024h-15.396v-8.97h3.088l.073-4.042c.069-3.78.104-4.072.548-4.507.642-.629 1.978-.629 2.62 0 .45.441.475.676.475 4.506v4.041h3.712l-.072-4.758c-.083-5.546-.19-5.917-1.91-6.664-1.323-.574-3.481-.459-4.48.238-.822.574-.93.577-.93.027 0-.396-.149-.438-1.561-.438h-1.561v-29.012999999999998h60l-.006 11.566c-.005 15.136-.073 20.718-.249 20.4-1.27-2.29-2.468-3.061-4.762-3.062-1.22-.001-1.747.107-2.41.491-.997.578-1.047.587-1.047.19 0-.218-.423-.331-1.506-.405-.828-.056-1.581-.062-1.673-.013-.092.049-.167 4.662-.167 10.25v10.16h-9.144v2.844c0 1.564.075 2.841.167 2.837.092-.004.362-.151.6-.328.598-.444 2.096-.402 3.028.084 1.175.613 1.773 1.811 1.777 3.56.005 2.281-.825 3.671-2.468 4.134-1.062.299-1.329.273-2.323-.224zm1.544-1.564c.707-.316 1.108-1.459.962-2.737-.141-1.223-.679-1.825-1.632-1.825-1.075 0-1.654.82-1.654 2.341 0 1.357.265 1.976.963 2.252.657.259.716.258 1.363-.031zm-12.836-20.655c1.176-.643 1.143-.64 1.143-.096 0 .397.149.438 1.617.438h1.617l-.067-4.54c-.078-5.281-.202-5.732-1.829-6.618-.946-.515-1.197-.547-4.349-.547h-3.346l-.069 1.183c-.038.65.032 1.244.156 1.319.124.075 1.359.166 2.745.204 2.62.07 3.145.239 3.033.977-.053.349-.355.496-1.482.721-2.457.49-3.774.943-4.511 1.551-2.241 1.85-1.448 5.286 1.381 5.98 1.132.278 2.864.028 3.96-.57zm-2.658-2.247c-.388-.308-.47-.533-.357-.978.17-.665.636-.949 2.427-1.481l1.284-.381v.534c0 .917-.603 2.007-1.31 2.365-.883.448-1.427.433-2.045-.058zm17.183 2.423c1.315-.531 2.172-1.31 2.572-2.338.972-2.497-.646-4.217-4.643-4.935-.833-.15-1.736-.451-2.007-.669-.474-.381-.478-.413-.095-.794.575-.573 2.24-.52 3.555.114l1.054.508 1.117-.944 1.117-.944-.832-.499c-1.275-.764-2.861-1.149-4.732-1.149-2.894 0-4.834 1.362-5.061 3.553-.211 2.038 1.162 3.169 4.613 3.797 2.078.378 2.578.67 2.351 1.372-.182.564-1.643.995-2.649.782-.68-.144-1.875-.702-2.63-1.228-.298-.208-.567-.083-1.518.703l-1.156.956.514.401c.962.75 2.619 1.481 3.799 1.675 1.424.235 3.571.068 4.634-.362zm5.007 22.172c-2.68-1.145-3.062-5.456-.643-7.266.75-.561 1.021-.63 2.461-.63 1.286 0 1.744.092 2.234.451 1.061.777 1.491 1.536 1.6 2.821l.103 1.212h-2.816c-1.636 0-2.816.087-2.816.208 0 .543.565 1.318 1.128 1.547.758.308 1.469.122 2.242-.588.575-.527.592-.529 1.394-.154.447.209.812.444.812.522 0 .377-1.728 1.771-2.435 1.963-1.093.298-2.447.262-3.264-.087zm3.245-5.255c0-.989-1.629-1.39-2.509-.618-.772.677-.484.931 1.059.931 1.108 0 1.45-.074 1.45-.313zm-51.301 1.406v-3.961l1.171.066c.791.045 1.153.155 1.115.34-.076.373.165.343.643-.081.612-.543 2.172-.617 3.094-.146.758.387.811.387 1.808-.018 1.251-.508 2.453-.354 3.235.414.516.506.533.63.533 3.923v3.401h-2.23l-.003-2.461c-.004-2.774-.24-3.518-1.151-3.622-1.042-.119-1.299.574-1.299 3.507v2.577h-2.23v-2.701c0-2.339-.055-2.749-.408-3.063-.504-.447-1.233-.467-1.591-.044-.173.205-.282 1.279-.306 3.008l-.037 2.69-1.171.066-1.171.066v-3.961zm22.751 0v-3.938h1.227c.9 0 1.227.081 1.227.305 0 .238.182.211.836-.124.973-.498 2.517-.44 3.146.118.364.323.465.316 1.273-.098 1.181-.604 2.603-.468 3.413.326.583.571.587.6.587 3.907v3.332l-1.171.066-1.171.066v-2.651c0-2.96-.166-3.497-1.078-3.497-1.05 0-1.152.296-1.152 3.325v2.8h-2.454v-2.8c0-2.946-.116-3.325-1.014-3.325-1.009 0-1.217.592-1.217 3.463v2.663h-2.454zm32.565 0v-3.938h1.227c.951 0 1.227.075 1.227.334 0 .299.068.299.658 0 .362-.184.864-.334 1.115-.334.393 0 .457.138.457.98 0 .892-.055.992-.613 1.109-1.664.349-1.617.258-1.617 3.156v2.63h-2.454zm-3.346-14.002v-4.813l.833.438c.581.305 1.259.438 2.239.438 2.151 0 3.451-.794 4.476-2.735l.462-.875.01 6.18.01 6.18h-8.03v-4.813zm.916-6.905c-1.934-1.596-1.254-6.019 1.01-6.576.84-.207 1.953.398 2.388 1.298.476.984.48 3.154.006 4.312-.621 1.522-2.192 1.968-3.406.966z" fill="#fff"/></g></svg>