<svg xmlns="http://www.w3.org/2000/svg" width="268.03" height="46"><g fill="#fff"><path d="M0 0v46h46v-46zm4.03 3.599h37.888l-6.362 6.373c-3.226-3.083-7.625-4.993-12.503-4.993-4.885 0-9.307 1.931-12.556 5.066zm38.373.358v37.941l-18.97-18.939zm-38.804.063l6.467 6.457c-3.148 3.251-5.088 7.681-5.088 12.577 0 4.865 1.912 9.268 5.024 12.513l-6.404 6.425zm19.455 4.255c3.918 0 7.5 1.565 10.165 4.045l-3.497 3.508c-1.753-1.617-4.118-2.623-6.668-2.623-2.6 0-4.969 1.014-6.731 2.665l-3.487-3.487c2.652-2.54 6.246-4.108 10.217-4.108zm-10.649 4.54l3.487 3.476c-1.666 1.765-2.686 4.148-2.686 6.762 0 2.578.996 4.921 2.623 6.678l-3.487 3.497c-2.515-2.648-4.066-6.225-4.066-10.175 0-3.982 1.577-7.584 4.129-10.238zm10.596 3.687c1.689 0 3.2.611 4.382 1.664l-4.371 4.371-4.371-4.361c1.16-1.04 2.688-1.675 4.361-1.675zm-4.793 2.107l4.371 4.361-4.434 4.445c-1.044-1.161-1.696-2.684-1.696-4.361 0-1.714.673-3.275 1.759-4.445zm4.803 4.782l4.466 4.466c-1.156 1.062-2.748 1.748-4.477 1.748-1.711 0-3.265-.676-4.434-1.759zm-6.762 6.773c1.77 1.694 4.166 2.739 6.804 2.739 2.647 0 5.003-1.047 6.762-2.718l3.508 3.508c-2.672 2.582-6.251 4.14-10.27 4.14-4.007 0-7.632-1.592-10.291-4.171zm-5.825 5.835c3.255 3.176 7.709 5.13 12.629 5.13 4.885 0 9.325-1.963 12.608-5.109l6.394 6.383h-38.025z" style="text-indent:0;text-align:start;line-height:normal;text-transform:none;block-progression:tb;-inkscape-font-specification:Sans" color="#000" fill-rule="evenodd" overflow="visible" enable-background="accumulate" font-family="Sans"/><g letter-spacing="0" word-spacing="0" font-family="Museo 500"><g style="text-align:start;line-height:109.00000334000000635%;-inkscape-font-specification:Sans" font-size="33"><path d="M54.495 15.221c0-2.518.847-4.624 2.541-6.318 1.716-1.694 3.889-2.541 6.519-2.541 1.248 0 2.396.212 3.443.635 1.07.401 1.827.813 2.273 1.237l.635.602-1.538 2.273c-.134-.134-.334-.312-.602-.535-.245-.223-.78-.513-1.605-.869-.802-.357-1.627-.535-2.474-.535-1.694 0-3.098.568-4.212 1.705-1.114 1.137-1.671 2.574-1.671 4.312 0 1.738.557 3.187 1.671 4.346 1.137 1.159 2.574 1.738 4.312 1.738.936 0 1.839-.189 2.708-.568.869-.379 1.504-.758 1.905-1.137l.602-.568 1.304 2.373-.301.301c-.111.111-.379.323-.802.635-.423.312-.88.591-1.371.836-.49.223-1.125.435-1.905.635-.758.201-1.549.301-2.373.301-2.652 0-4.825-.836-6.519-2.507-1.694-1.671-2.541-3.789-2.541-6.352" style="line-height:109.00000334000000635%;-inkscape-font-specification:Museo 500"/><path d="M73.98 23.679v-16.915h3.142v2.942l-.067 1.27h.067c.401-1.293 1.07-2.351 2.006-3.176.958-.825 2.073-1.237 3.343-1.237l.836.067v3.209c-.29-.067-.602-.1-.936-.1-1.047 0-2.006.357-2.875 1.07-.869.713-1.493 1.683-1.872 2.908-.267.869-.401 1.883-.401 3.042v6.92h-3.243" style="line-height:109.00000334000000635%;-inkscape-font-specification:Museo 500"/><path d="M85.215 15.221c0-2.652.791-4.791 2.373-6.418 1.605-1.627 3.633-2.44 6.084-2.44 2.295 0 4.089.747 5.382 2.24 1.293 1.493 1.939 3.387 1.939 5.683l-.1 1.404h-12.335c.089 1.783.68 3.165 1.772 4.145 1.114.958 2.463 1.437 4.045 1.437.869 0 1.716-.167 2.541-.501.847-.334 1.471-.657 1.872-.969l.602-.501 1.337 2.373c-.178.178-.446.401-.802.669-.357.267-1.103.624-2.24 1.07-1.137.446-2.307.669-3.51.669-2.63 0-4.78-.836-6.452-2.507-1.671-1.694-2.507-3.811-2.507-6.352m3.443-1.972h9.026c-.045-1.404-.457-2.474-1.237-3.209-.758-.735-1.705-1.103-2.841-1.103-1.27 0-2.362.379-3.276 1.137-.891.758-1.449 1.816-1.671 3.176" style="line-height:109.00000334000000635%;-inkscape-font-specification:Museo 500"/><path d="M103.758 15.221c0-2.652.791-4.791 2.373-6.418 1.605-1.627 3.633-2.44 6.084-2.44 2.295 0 4.089.747 5.382 2.24 1.293 1.493 1.939 3.387 1.939 5.683l-.1 1.404h-12.335c.089 1.783.68 3.165 1.772 4.145 1.114.958 2.463 1.437 4.045 1.437.869 0 1.716-.167 2.541-.501.847-.334 1.471-.657 1.872-.969l.602-.501 1.337 2.373c-.178.178-.446.401-.802.669-.357.267-1.103.624-2.24 1.07-1.137.446-2.307.669-3.51.669-2.63 0-4.78-.836-6.452-2.507-1.671-1.694-2.507-3.811-2.507-6.352m3.443-1.972h9.026c-.045-1.404-.457-2.474-1.237-3.209-.758-.735-1.705-1.103-2.841-1.103-1.27 0-2.362.379-3.276 1.137-.891.758-1.449 1.816-1.671 3.176" style="line-height:109.00000334000000635%;-inkscape-font-specification:Museo 500"/><path d="M123.47 23.679v-23.601h3.243v12.904h2.373l4.613-6.218h3.677l-5.616 7.455v.067l6.251 9.394h-3.777l-5.081-7.956h-2.44v7.956h-3.243" style="line-height:109.00000334000000635%;-inkscape-font-specification:Museo 500"/><path d="M148.449 15.221c0-2.518.847-4.624 2.541-6.318 1.716-1.694 3.889-2.541 6.519-2.541 1.248 0 2.396.212 3.443.635 1.07.401 1.827.813 2.273 1.237l.635.602-1.538 2.273c-.134-.134-.334-.312-.602-.535-.245-.223-.78-.513-1.605-.869-.802-.357-1.627-.535-2.474-.535-1.694 0-3.098.568-4.212 1.705-1.114 1.137-1.671 2.574-1.671 4.312 0 1.738.557 3.187 1.671 4.346 1.137 1.159 2.574 1.738 4.312 1.738.936 0 1.839-.189 2.708-.568.869-.379 1.504-.758 1.905-1.137l.602-.568 1.304 2.373-.301.301c-.111.111-.379.323-.802.635-.423.312-.88.591-1.371.836-.49.223-1.125.435-1.905.635-.758.201-1.549.301-2.373.301-2.652 0-4.825-.836-6.519-2.507-1.694-1.671-2.541-3.789-2.541-6.352" style="line-height:109.00000334000000635%;-inkscape-font-specification:Museo 500"/><path d="M167.934 23.679v-16.915h3.142v2.942l-.067 1.27h.067c.401-1.293 1.07-2.351 2.006-3.176.958-.825 2.073-1.237 3.343-1.237l.836.067v3.209c-.29-.067-.602-.1-.936-.1-1.047 0-2.006.357-2.875 1.07-.869.713-1.493 1.683-1.872 2.908-.267.869-.401 1.883-.401 3.042v6.92h-3.243" style="line-height:109.00000334000000635%;-inkscape-font-specification:Museo 500"/><path d="M179.169 15.221c0-2.652.791-4.791 2.373-6.418 1.605-1.627 3.633-2.44 6.084-2.44 2.295 0 4.089.747 5.382 2.24 1.293 1.493 1.939 3.387 1.939 5.683l-.1 1.404h-12.335c.089 1.783.68 3.165 1.772 4.145 1.114.958 2.463 1.437 4.045 1.437.869 0 1.716-.167 2.541-.501.847-.334 1.471-.657 1.872-.969l.602-.501 1.337 2.373c-.178.178-.446.401-.802.669-.357.267-1.103.624-2.24 1.07-1.137.446-2.307.669-3.51.669-2.63 0-4.78-.836-6.452-2.507-1.671-1.694-2.507-3.811-2.507-6.352m3.443-1.972h9.026c-.045-1.404-.457-2.474-1.237-3.209-.758-.735-1.705-1.103-2.841-1.103-1.27 0-2.362.379-3.276 1.137-.891.758-1.449 1.816-1.671 3.176" style="line-height:109.00000334000000635%;-inkscape-font-specification:Museo 500"/><path d="M197.511 18.932c0-3.878 3.399-5.817 10.196-5.817h.735v-.301c0-2.474-1.237-3.711-3.711-3.711-.78 0-1.56.134-2.34.401-.78.267-1.371.535-1.772.802l-.602.435-1.337-2.373c.178-.156.435-.345.769-.568.357-.223 1.081-.513 2.173-.869 1.092-.379 2.217-.568 3.376-.568 2.139 0 3.789.568 4.947 1.705 1.159 1.137 1.738 2.775 1.738 4.914v10.697h-3.009v-1.605l.067-1.337h-.067l-.201.368c-.067.156-.256.423-.568.802-.29.379-.624.713-1.003 1.003-.357.29-.869.557-1.538.802-.646.245-1.348.368-2.106.368-1.56 0-2.908-.457-4.045-1.371-1.137-.914-1.705-2.173-1.705-3.777m3.276-.167c0 .735.279 1.371.836 1.905.557.535 1.337.802 2.34.802 1.293 0 2.362-.557 3.209-1.671.869-1.137 1.304-2.373 1.304-3.711v-.535h-.836c-4.569 0-6.853 1.07-6.853 3.209" style="line-height:109.00000334000000635%;-inkscape-font-specification:Museo 500"/><path d="M217.082 17.494v-7.889h-2.206v-2.607h2.307v-4.881h3.142v4.881h4.078v2.607h-4.078v7.522c0 .646.089 1.215.267 1.705.178.468.39.836.635 1.103.267.267.568.479.903.635.357.156.669.256.936.301.29.045.579.067.869.067l.769-.067v2.875c-.312.045-.691.067-1.137.067-.535 0-1.047-.033-1.538-.1-.49-.067-1.047-.234-1.671-.501-.624-.267-1.17-.613-1.638-1.036-.446-.446-.836-1.07-1.17-1.872-.312-.802-.468-1.738-.468-2.808" style="line-height:109.00000334000000635%;-inkscape-font-specification:Museo 500"/><path d="M228.294 3.387v-3.309h3.276v3.309h-3.276m.033 20.291v-16.915h3.243v16.915h-3.243" style="line-height:109.00000334000000635%;-inkscape-font-specification:Museo 500"/><path d="M240.631 23.679l-6.318-16.915h3.443l4.112 11.433c.089.267.178.602.267 1.003.089.379.167.691.234.936l.067.368h.067l.067-.368c.067-.245.145-.557.234-.936.111-.401.212-.735.301-1.003l4.112-11.433h3.41l-6.251 16.915h-3.744" style="line-height:109.00000334000000635%;-inkscape-font-specification:Museo 500"/><path d="M252.23 15.221c0-2.652.791-4.791 2.373-6.418 1.605-1.627 3.633-2.44 6.084-2.44 2.295 0 4.089.747 5.382 2.24 1.293 1.493 1.939 3.387 1.939 5.683l-.1 1.404h-12.335c.089 1.783.68 3.165 1.772 4.145 1.114.958 2.463 1.437 4.045 1.437.869 0 1.716-.167 2.541-.501.847-.334 1.471-.657 1.872-.969l.602-.501 1.337 2.373c-.178.178-.446.401-.802.669-.357.267-1.103.624-2.24 1.07-1.137.446-2.307.669-3.51.669-2.63 0-4.78-.836-6.452-2.507-1.671-1.694-2.507-3.811-2.507-6.352m3.443-1.972h9.026c-.045-1.404-.457-2.474-1.237-3.209-.758-.735-1.705-1.103-2.841-1.103-1.27 0-2.362.379-3.276 1.137-.891.758-1.449 1.816-1.671 3.176" style="line-height:109.00000334000000635%;-inkscape-font-specification:Museo 500"/></g><g style="text-align:start;line-height:109.00000334000000635%;-inkscape-font-specification:Sans" font-size="16.027"><path d="M56.756 40.359c0-1.883 1.651-2.825 4.952-2.825h.357v-.146c0-1.201-.601-1.802-1.802-1.802-.379 0-.758.065-1.136.195-.379.13-.666.26-.86.39l-.292.211-.649-1.153c.087-.076.211-.168.373-.276.173-.108.525-.249 1.055-.422.53-.184 1.077-.276 1.64-.276 1.039 0 1.84.276 2.403.828.563.552.844 1.348.844 2.387v5.195h-1.461v-.779l.032-.649h-.032l-.097.179c-.032.076-.124.206-.276.39-.141.184-.303.346-.487.487-.173.141-.422.271-.747.39-.314.119-.655.179-1.023.179-.758 0-1.412-.222-1.964-.666-.552-.444-.828-1.055-.828-1.835m1.591-.081c0 .357.135.666.406.925.271.26.649.39 1.136.39.628 0 1.147-.271 1.559-.812.422-.552.633-1.153.633-1.802v-.26h-.406c-2.219 0-3.328.52-3.328 1.559" style="line-height:109.00000334000000635%;-inkscape-font-specification:Museo 500"/><path d="M65.983 42.665v-8.215h1.526v1.429l-.032.617h.032c.195-.628.52-1.142.974-1.542.465-.4 1.007-.601 1.624-.601l.406.033v1.559c-.141-.032-.292-.049-.455-.049-.509 0-.974.173-1.396.52-.422.346-.725.817-.909 1.412-.13.422-.195.915-.195 1.477v3.361h-1.575" style="line-height:109.00000334000000635%;-inkscape-font-specification:Museo 500"/><path d="M72.412 39.661v-3.832h-1.072v-1.266h1.12v-2.37h1.526v2.37h1.981v1.266h-1.981v3.653c0 .314.043.59.13.828.087.227.189.406.308.536.13.13.276.233.438.308.173.076.325.124.455.146.141.022.281.033.422.033l.373-.033v1.396c-.152.022-.336.033-.552.033-.26 0-.509-.016-.747-.049s-.509-.114-.812-.244c-.303-.13-.568-.298-.796-.503-.216-.216-.406-.52-.568-.909-.152-.39-.227-.844-.227-1.364" style="line-height:109.00000334000000635%;-inkscape-font-specification:Museo 500"/><path d="M81.702 39.45c0-.649.179-1.25.536-1.802.368-.552.86-.931 1.477-1.136v-.033l-.162-.065c-.065-.033-.184-.114-.357-.244s-.33-.281-.471-.455c-.13-.173-.249-.417-.357-.731-.108-.314-.162-.655-.162-1.023 0-.931.325-1.656.974-2.176.66-.52 1.51-.779 2.549-.779.184 0 .39.016.617.049l.568.081.211.049-.406 1.283c-.314-.065-.601-.097-.86-.097-.584 0-1.072.157-1.461.471-.379.314-.568.741-.568 1.283 0 .206.027.406.081.601.065.184.168.373.308.568.141.195.357.352.649.471.292.108.649.162 1.072.162h2.127v-1.559h1.575v1.559h1.526v1.396h-1.526v1.526c0 1.266-.352 2.251-1.055 2.955-.704.704-1.672 1.055-2.906 1.055-1.18 0-2.138-.325-2.874-.974-.736-.649-1.104-1.461-1.104-2.435m1.64-.081c0 .563.216 1.039.649 1.429.433.39.996.584 1.688.584.758 0 1.342-.211 1.753-.633.422-.433.633-1.088.633-1.964v-1.461h-2.192c-.812 0-1.44.179-1.883.536-.433.357-.649.86-.649 1.51" style="line-height:109.00000334000000635%;-inkscape-font-specification:Museo 500"/><path d="M96.807 38.557c0-1.299.346-2.338 1.039-3.117.693-.79 1.586-1.185 2.679-1.185.357 0 .687.043.99.13.303.087.541.195.714.325.184.13.341.26.471.39.141.13.238.238.292.325l.065.13h.033c-.022-.162-.033-.346-.033-.552v-3.799h1.575v11.462h-1.494v-.779l.016-.552h-.033l-.097.162c-.033.065-.124.189-.276.373-.141.173-.308.33-.503.471-.184.13-.438.249-.763.357-.325.108-.676.162-1.055.162-1.104 0-1.986-.395-2.646-1.185-.649-.79-.974-1.829-.974-3.117m1.607 0c0 .888.211 1.602.633 2.143.433.53.996.796 1.688.796.671 0 1.234-.244 1.688-.731.455-.498.682-1.239.682-2.224 0-.79-.206-1.472-.617-2.046-.4-.584-.969-.877-1.705-.877-.671 0-1.234.265-1.688.796-.455.52-.682 1.234-.682 2.143" style="line-height:109.00000334000000635%;-inkscape-font-specification:Museo 500"/><path d="M106.541 38.557c0-1.288.384-2.327 1.153-3.117.779-.79 1.764-1.185 2.955-1.185 1.115 0 1.986.363 2.614 1.088.628.725.942 1.645.942 2.76l-.049.682h-5.991c.043.866.33 1.537.86 2.013.541.465 1.196.698 1.964.698.422 0 .833-.081 1.234-.244.411-.162.714-.319.909-.471l.292-.244.649 1.153c-.087.087-.216.195-.39.325-.173.13-.536.303-1.088.52-.552.216-1.12.325-1.705.325-1.277 0-2.322-.406-3.133-1.218-.812-.823-1.218-1.851-1.218-3.085m1.672-.958h4.384c-.022-.682-.222-1.201-.601-1.559-.368-.357-.828-.536-1.38-.536-.617 0-1.147.184-1.591.552-.433.368-.704.882-.812 1.542" style="line-height:109.00000334000000635%;-inkscape-font-specification:Museo 500"/><path d="M115.45 41.658l.763-1.12c.065.076.162.168.292.276.13.097.4.238.812.422.411.173.828.26 1.25.26.368 0 .687-.092.958-.276.271-.184.406-.433.406-.747 0-.271-.146-.509-.438-.714-.292-.206-.644-.384-1.055-.536-.411-.162-.823-.336-1.234-.52-.411-.195-.763-.471-1.055-.828-.292-.357-.438-.785-.438-1.283 0-.725.281-1.293.844-1.705.563-.422 1.272-.633 2.127-.633.53 0 1.017.076 1.461.227.444.152.752.303.925.455l.26.227-.633 1.185-.244-.195c-.097-.087-.325-.195-.682-.325-.346-.141-.714-.211-1.104-.211-.379 0-.698.087-.958.26-.26.162-.39.411-.39.747 0 .271.146.503.438.698.292.195.644.373 1.055.536.411.152.823.325 1.234.52.411.184.763.455 1.055.812.292.357.438.785.438 1.283 0 .693-.276 1.266-.828 1.721-.541.444-1.256.666-2.143.666-.595 0-1.153-.097-1.672-.292-.52-.206-.888-.411-1.104-.617l-.341-.292" style="line-height:109.00000334000000635%;-inkscape-font-specification:Museo 500"/><path d="M123.36 32.81v-1.607h1.591v1.607h-1.591m.016 9.855v-8.215h1.575v8.215h-1.575" style="line-height:109.00000334000000635%;-inkscape-font-specification:Museo 500"/><path d="M128.134 44.158c.682.368 1.434.552 2.257.552.779 0 1.407-.189 1.883-.568.476-.368.714-.947.714-1.737v-.601l.016-.52h-.032c-.509.855-1.32 1.283-2.435 1.283s-2.008-.395-2.679-1.185c-.66-.801-.99-1.808-.99-3.02s.319-2.197.958-2.955c.639-.768 1.515-1.153 2.63-1.153.368 0 .709.043 1.023.13.314.076.563.179.747.308.184.119.341.238.471.357.13.119.216.222.26.308l.081.114h.032l-.016-.26v-.763h1.51v7.874c0 .649-.119 1.223-.357 1.721-.227.498-.541.888-.942 1.169-.4.292-.839.509-1.315.649-.476.141-.985.211-1.526.211-.985 0-1.921-.227-2.809-.682l.52-1.234m2.711-2.955c.639 0 1.158-.222 1.559-.666.411-.444.617-1.164.617-2.159 0-1.84-.774-2.76-2.322-2.76-.704 0-1.256.244-1.656.731-.39.476-.584 1.136-.584 1.981 0 .866.211 1.564.633 2.094.433.52 1.017.779 1.753.779" style="line-height:109.00000334000000635%;-inkscape-font-specification:Museo 500"/><path d="M137.043 42.665v-8.215h1.526v1.088l-.033.601h.033c.216-.465.584-.893 1.104-1.283.52-.4 1.18-.601 1.981-.601 1.883 0 2.825 1.05 2.825 3.15v5.26h-1.575v-4.903c0-.66-.108-1.169-.325-1.526-.216-.357-.628-.536-1.234-.536-.617 0-1.164.189-1.64.568-.465.368-.785.85-.958 1.445-.087.292-.13.66-.13 1.104v3.848h-1.575" style="line-height:109.00000334000000635%;-inkscape-font-specification:Museo 500"/><path d="M150.361 41.658l.763-1.12c.065.076.162.168.292.276.13.097.4.238.812.422.411.173.828.26 1.25.26.368 0 .687-.092.958-.276.271-.184.406-.433.406-.747 0-.271-.146-.509-.438-.714-.292-.206-.644-.384-1.055-.536-.411-.162-.823-.336-1.234-.52-.411-.195-.763-.471-1.055-.828-.292-.357-.438-.785-.438-1.283 0-.725.281-1.293.844-1.705.563-.422 1.272-.633 2.127-.633.53 0 1.017.076 1.461.227.444.152.752.303.925.455l.26.227-.633 1.185-.244-.195c-.097-.087-.325-.195-.682-.325-.346-.141-.714-.211-1.104-.211-.379 0-.698.087-.958.26-.26.162-.39.411-.39.747 0 .271.146.503.438.698.292.195.644.373 1.055.536.411.152.823.325 1.234.52.411.184.763.455 1.055.812.292.357.438.785.438 1.283 0 .693-.276 1.266-.828 1.721-.541.444-1.256.666-2.143.666-.595 0-1.153-.097-1.672-.292-.52-.206-.888-.411-1.104-.617l-.341-.292" style="line-height:109.00000334000000635%;-inkscape-font-specification:Museo 500"/><path d="M158.63 39.661v-3.832h-1.072v-1.266h1.12v-2.37h1.526v2.37h1.981v1.266h-1.981v3.653c0 .314.043.59.13.828.087.227.189.406.308.536.13.13.276.233.438.308.173.076.325.124.455.146.141.022.281.033.422.033l.373-.033v1.396c-.152.022-.336.033-.552.033-.26 0-.509-.016-.747-.049s-.509-.114-.812-.244c-.303-.13-.568-.298-.796-.503-.216-.216-.406-.52-.568-.909-.152-.39-.227-.844-.227-1.364" style="line-height:109.00000334000000635%;-inkscape-font-specification:Museo 500"/><path d="M163.978 39.71v-5.26h1.575v4.903c0 .66.103 1.169.308 1.526.216.346.628.52 1.234.52.801 0 1.445-.303 1.932-.909.487-.606.731-1.337.731-2.192v-3.848h1.575v8.215h-1.526v-1.088l.033-.601h-.033c-.206.476-.579.909-1.12 1.299-.53.39-1.164.584-1.9.584-1.872 0-2.809-1.05-2.809-3.15" style="line-height:109.00000334000000635%;-inkscape-font-specification:Museo 500"/><path d="M173.259 38.557c0-1.299.346-2.338 1.039-3.117.693-.79 1.586-1.185 2.679-1.185.357 0 .687.043.99.13.303.087.541.195.714.325.184.13.341.26.471.39.141.13.238.238.292.325l.065.13h.032c-.022-.162-.033-.346-.032-.552v-3.799h1.575v11.462h-1.494v-.779l.016-.552h-.032l-.097.162c-.033.065-.124.189-.276.373-.141.173-.308.33-.503.471-.184.13-.438.249-.763.357-.325.108-.676.162-1.055.162-1.104 0-1.986-.395-2.646-1.185-.649-.79-.974-1.829-.974-3.117m1.607 0c0 .888.211 1.602.633 2.143.433.53.996.796 1.688.796.671 0 1.234-.244 1.688-.731.455-.498.682-1.239.682-2.224 0-.79-.206-1.472-.617-2.046-.4-.584-.969-.877-1.705-.877-.671 0-1.234.265-1.688.796-.455.52-.682 1.234-.682 2.143" style="line-height:109.00000334000000635%;-inkscape-font-specification:Museo 500"/><path d="M183.545 32.81v-1.607h1.591v1.607h-1.591m.016 9.855v-8.215h1.575v8.215h-1.575" style="line-height:109.00000334000000635%;-inkscape-font-specification:Museo 500"/><path d="M188.27 41.626c-.855-.823-1.283-1.851-1.283-3.085s.428-2.257 1.283-3.068c.855-.812 1.905-1.218 3.15-1.218 1.245 0 2.295.406 3.15 1.218.855.812 1.283 1.835 1.283 3.068 0 1.234-.433 2.262-1.299 3.085-.855.823-1.9 1.234-3.133 1.234-1.234 0-2.284-.411-3.15-1.234m1.153-5.179c-.552.552-.828 1.25-.828 2.094 0 .844.276 1.548.828 2.111.552.563 1.218.844 1.997.844.79 0 1.456-.276 1.997-.828.552-.563.828-1.272.828-2.127 0-.844-.276-1.542-.828-2.094-.541-.552-1.207-.828-1.997-.828-.779 0-1.445.276-1.997.828" style="line-height:109.00000334000000635%;-inkscape-font-specification:Museo 500"/><path d="M197.038 41.658l.763-1.12c.065.076.162.168.292.276.13.097.4.238.812.422.411.173.828.26 1.25.26.368 0 .687-.092.958-.276.271-.184.406-.433.406-.747 0-.271-.146-.509-.438-.714-.292-.206-.644-.384-1.055-.536-.411-.162-.823-.336-1.234-.52-.411-.195-.763-.471-1.055-.828-.292-.357-.438-.785-.438-1.283 0-.725.281-1.293.844-1.705.563-.422 1.272-.633 2.127-.633.53 0 1.017.076 1.461.227.444.152.752.303.925.455l.26.227-.633 1.185-.244-.195c-.097-.087-.325-.195-.682-.325-.346-.141-.714-.211-1.104-.211-.379 0-.698.087-.958.26-.26.162-.39.411-.39.747 0 .271.146.503.438.698.292.195.644.373 1.055.536.411.152.823.325 1.234.52.411.184.763.455 1.055.812.292.357.438.785.438 1.283 0 .693-.276 1.266-.828 1.721-.541.444-1.256.666-2.143.666-.595 0-1.153-.097-1.672-.292-.52-.206-.888-.411-1.104-.617l-.341-.292" style="line-height:109.00000334000000635%;-inkscape-font-specification:Museo 500"/></g></g></g></svg>