<?xml-stylesheet type="text/css" href="../css/styles.css" ?><svg xmlns="http://www.w3.org/2000/svg" width="804" height="137.999" preserveAspectRatio="xMinYMin meet"><g letter-spacing="0" word-spacing="0" fill="#fff"><path style="text-align:start;line-height:109.00000334%;-inkscape-font-specification:Museo 500" d="M163.41 45.433c0-7.555 2.54-13.874 7.622-18.955 5.15-5.082 11.668-7.623 19.558-7.623 3.744 0 7.188.636 10.33 1.906 3.21 1.204 5.483 2.44 6.82 3.712l1.906 1.805-4.614 6.82c-.4-.4-1.003-.936-1.805-1.605-.736-.668-2.34-1.537-4.814-2.607-2.407-1.07-4.88-1.605-7.422-1.605-5.08 0-9.293 1.705-12.636 5.115s-5.015 7.723-5.015 12.938c0 5.215 1.67 9.56 5.014 13.038 3.41 3.478 7.723 5.217 12.938 5.217 2.808 0 5.516-.57 8.124-1.705 2.607-1.137 4.513-2.274 5.717-3.41l1.805-1.705 3.91 7.12-.9.903c-.336.335-1.138.97-2.408 1.906-1.27.936-2.64 1.772-4.112 2.507-1.47.67-3.377 1.304-5.717 1.906-2.273.6-4.646.9-7.12.9-7.957 0-14.476-2.506-19.558-7.52-5.08-5.015-7.622-11.367-7.622-19.057m58.46 25.375v-50.75h9.427v8.827l-.2 3.81h.2c1.204-3.877 3.21-7.053 6.018-9.527 2.875-2.474 6.218-3.71 10.03-3.71l2.507.2v9.628c-.87-.2-1.806-.3-2.81-.3-3.14 0-6.016 1.07-8.624 3.21-2.608 2.138-4.48 5.047-5.617 8.724-.8 2.608-1.202 5.65-1.202 9.127v20.76h-9.73m44.04-31.29h27.08c-.134-4.213-1.37-7.423-3.71-9.63-2.274-2.206-5.116-3.31-8.526-3.31-3.81 0-7.088 1.138-9.83 3.41-2.674 2.274-4.345 5.45-5.014 9.53m-10.33 5.916c0-7.956 2.373-14.375 7.12-19.256 4.815-4.88 10.9-7.322 18.254-7.322 6.887 0 12.27 2.24 16.148 6.72 3.878 4.48 5.817 10.163 5.817 17.05l-.3 4.213h-37.01c.267 5.35 2.04 9.494 5.316 12.436 3.343 2.875 7.388 4.313 12.136 4.313 2.606 0 5.147-.502 7.62-1.505 2.542-1.003 4.414-1.972 5.618-2.908l1.805-1.505 4.012 7.12c-.535.535-1.338 1.204-2.407 2.006-1.07.803-3.31 1.872-6.72 3.21-3.41 1.337-6.92 2.006-10.53 2.006-7.89 0-14.343-2.508-19.358-7.523-5.015-5.082-7.522-11.434-7.522-19.057m65.963-5.917h27.08c-.134-4.212-1.37-7.422-3.71-9.628-2.274-2.207-5.116-3.31-8.526-3.31-3.81 0-7.087 1.137-9.83 3.41-2.673 2.273-4.345 5.45-5.013 9.528m-10.33 5.917c0-7.956 2.374-14.375 7.12-19.256 4.815-4.88 10.9-7.322 18.255-7.322 6.887 0 12.27 2.24 16.147 6.72 3.878 4.48 5.817 10.163 5.817 17.05l-.302 4.213H321.24c.267 5.35 2.04 9.494 5.315 12.436 3.343 2.875 7.39 4.313 12.136 4.313 2.61 0 5.15-.502 7.623-1.505 2.54-1.003 4.413-1.972 5.617-2.908l1.805-1.505 4.012 7.12c-.535.535-1.337 1.204-2.407 2.006-1.07.803-3.31 1.872-6.72 3.21-3.41 1.337-6.92 2.006-10.53 2.006-7.89 0-14.343-2.508-19.358-7.523-5.014-5.082-7.522-11.434-7.522-19.057m59.143 25.375V0h9.728v38.714h7.122l13.84-18.655h11.033l-16.85 22.365v.2l18.756 28.183H402.65l-15.245-23.87h-7.322v23.87h-9.727m74.94-25.374c0-7.556 2.54-13.874 7.623-18.956 5.148-5.082 11.667-7.622 19.557-7.622 3.745 0 7.188.635 10.33 1.905 3.21 1.205 5.484 2.442 6.82 3.712l1.906 1.805-4.614 6.82c-.4-.4-1.003-.936-1.805-1.604-.735-.67-2.34-1.538-4.814-2.608-2.407-1.07-4.88-1.605-7.42-1.605-5.083 0-9.295 1.705-12.64 5.115-3.342 3.41-5.013 7.723-5.013 12.938 0 5.216 1.67 9.562 5.014 13.04 3.41 3.475 7.723 5.214 12.938 5.214 2.81 0 5.517-.568 8.124-1.705s4.513-2.273 5.716-3.41l1.805-1.705 3.913 7.12-.903.903c-.334.335-1.136.97-2.407 1.906-1.27.936-2.64 1.772-4.112 2.507-1.47.67-3.375 1.304-5.716 1.906-2.273.6-4.647.902-7.12.902-7.957 0-14.477-2.508-19.558-7.522-5.082-5.015-7.623-11.367-7.623-19.056m58.46 25.374v-50.75h9.428v8.827l-.2 3.81h.2c1.204-3.877 3.21-7.053 6.018-9.527 2.875-2.474 6.22-3.71 10.03-3.71l2.507.2v9.628c-.87-.2-1.805-.3-2.808-.3-3.143 0-6.018 1.07-8.625 3.21-2.608 2.138-4.48 5.047-5.617 8.724-.802 2.608-1.204 5.65-1.204 9.127v20.76h-9.727m44.04-31.29h27.078c-.132-4.213-1.37-7.422-3.71-9.63-2.273-2.205-5.115-3.31-8.525-3.31-3.81 0-7.087 1.138-9.83 3.41-2.673 2.275-4.345 5.45-5.013 9.53m-10.33 5.917c0-7.957 2.373-14.376 7.12-19.257 4.814-4.88 10.9-7.32 18.254-7.32 6.887 0 12.27 2.24 16.147 6.718 3.878 4.48 5.817 10.164 5.818 17.05l-.3 4.213h-37.01c.268 5.35 2.04 9.494 5.316 12.436 3.344 2.875 7.39 4.313 12.136 4.313 2.608 0 5.15-.5 7.623-1.504 2.54-1.003 4.413-1.973 5.616-2.91l1.806-1.503 4.012 7.12c-.535.535-1.337 1.204-2.407 2.006-1.07.803-3.31 1.873-6.72 3.21-3.41 1.337-6.92 2.006-10.53 2.006-7.89 0-14.342-2.508-19.357-7.522-5.014-5.082-7.522-11.434-7.522-19.056m64.86 10.63c0 2.207.837 4.113 2.508 5.718 1.672 1.604 4.012 2.407 7.02 2.407 3.88 0 7.088-1.673 9.63-5.016 2.607-3.41 3.91-7.12 3.91-11.133v-1.603h-2.507c-13.706 0-20.56 3.21-20.56 9.628m-9.828.5c0-11.633 10.197-17.45 30.59-17.45h2.206v-.902c0-7.422-3.71-11.133-11.132-11.133-2.34 0-4.68.4-7.02 1.203s-4.113 1.605-5.317 2.407l-1.806 1.304-4.012-7.12c.535-.47 1.304-1.037 2.307-1.706 1.07-.668 3.242-1.537 6.518-2.607 3.276-1.136 6.653-1.704 10.13-1.704 6.42 0 11.367 1.705 14.844 5.115 3.476 3.41 5.215 8.325 5.215 14.744v32.094h-9.027v-4.814l.2-4.012h-.2c-.133.268-.334.636-.6 1.104-.202.468-.77 1.27-1.706 2.407-.87 1.136-1.873 2.14-3.01 3.008-1.07.87-2.607 1.673-4.613 2.41-1.938.734-4.044 1.102-6.317 1.102-4.68 0-8.726-1.37-12.136-4.112-3.41-2.742-5.115-6.52-5.115-11.334m58.716-4.312v-23.67h-6.62V20.76h6.92V6.12h9.43V20.76h12.235v7.824h-12.236V51.15c0 1.94.268 3.645.802 5.116.534 1.404 1.17 2.507 1.905 3.31.802.802 1.705 1.437 2.708 1.905 1.07.47 2.006.77 2.808.904.87.133 1.74.2 2.61.2l2.306-.2v8.625c-.937.133-2.073.2-3.41.2-1.605 0-3.143-.1-4.614-.3-1.47-.202-3.143-.703-5.015-1.506-1.872-.802-3.51-1.84-4.914-3.11-1.338-1.336-2.508-3.208-3.51-5.615-.937-2.408-1.405-5.217-1.405-8.426m33.742 18.554v-50.75h9.728v50.75h-9.728m-.1-60.878V0h9.828v9.93h-9.83m37.015 60.878l-18.956-50.75h10.33l12.337 34.302c.268.802.535 1.805.802 3.01.268 1.136.502 2.072.702 2.807l.2 1.103h.202l.2-1.103c.2-.735.435-1.67.702-2.808.335-1.205.635-2.208.903-3.01l12.336-34.3h10.23l-18.754 50.748h-11.233m45.128-31.292h27.08c-.133-4.212-1.37-7.42-3.71-9.628-2.274-2.206-5.115-3.31-8.525-3.31-3.81 0-7.088 1.137-9.83 3.41-2.674 2.274-4.345 5.45-5.014 9.528m-10.33 5.918c0-7.957 2.374-14.376 7.122-19.257 4.814-4.88 10.898-7.32 18.253-7.32 6.887 0 12.27 2.24 16.148 6.718C802.06 30.055 804 35.74 804 42.625l-.3 4.213h-37.01c.268 5.35 2.04 9.494 5.316 12.436 3.343 2.876 7.388 4.313 12.136 4.313 2.607 0 5.148-.5 7.622-1.504 2.54-1.003 4.413-1.973 5.617-2.91l1.806-1.503 4.012 7.12c-.535.536-1.338 1.204-2.407 2.007-1.07.802-3.31 1.872-6.72 3.21-3.41 1.336-6.92 2.005-10.53 2.005-7.89 0-14.342-2.507-19.357-7.522-5.015-5.082-7.522-11.434-7.522-19.056" font-size="16.027" font-family="Museo 500"/><path style="text-align:start;line-height:109.00000334%;-inkscape-font-specification:Museo 500" d="M0 0v138h138V0zm75.727 442.147H189.39l-19.085 19.118c-9.677-9.248-22.876-14.98-37.51-14.98-14.655 0-27.92 5.794-37.666 15.2zm115.117 1.074v113.823l-56.91-56.816zm-116.413.192l19.403 19.37c-9.444 9.753-15.262 23.042-15.262 37.73 0 14.595 5.736 27.805 15.074 37.54L74.43 557.328zm58.366 12.766c11.752 0 22.5 4.696 30.494 12.134l-10.492 10.523c-5.26-4.85-12.354-7.87-20.002-7.87-7.802 0-14.906 3.043-20.192 7.996l-10.46-10.46c7.956-7.618 18.737-12.322 30.652-12.322zm-31.948 13.62l10.46 10.427c-5 5.295-8.058 12.445-8.058 20.287 0 7.735 2.99 14.762 7.868 20.034l-10.46 10.49c-7.545-7.942-12.197-18.674-12.197-30.524 0-11.947 4.733-22.753 12.388-30.715zm31.79 11.06c5.066 0 9.6 1.832 13.145 4.992l-13.114 13.114-13.115-13.083c3.48-3.118 8.065-5.023 13.083-5.023zm-14.378 6.32l13.114 13.08-13.304 13.336c-3.13-3.483-5.087-8.053-5.087-13.082 0-5.142 2.02-9.825 5.277-13.335zm14.41 14.345l13.398 13.398c-3.467 3.187-8.244 5.247-13.43 5.247-5.134 0-9.796-2.03-13.304-5.277zm-20.288 20.32c5.31 5.08 12.5 8.215 20.414 8.215 7.94 0 15.01-3.142 20.287-8.153l10.523 10.522c-8.018 7.746-18.754 12.42-30.81 12.42-12.02 0-22.898-4.776-30.873-12.514zm-17.474 17.505c9.765 9.527 23.127 15.39 37.888 15.39 14.653 0 27.975-5.89 37.825-15.327l19.182 19.15H75.727z" font-size="16.027" font-family="Museo 500"/><g style="text-align:center;line-height:125%;-inkscape-font-specification:Sans" font-size="45.5" text-anchor="middle" font-family="MuseoSans-500"><path d="M164.008 124.384l2.14-3.14c.18.213.454.47.818.774.364.273 1.122.668 2.275 1.183 1.153.487 2.32.73 3.504.73 1.03 0 1.926-.258 2.685-.774.757-.516 1.136-1.213 1.136-2.093 0-.758-.41-1.426-1.228-2.002-.82-.575-1.805-1.076-2.958-1.5-1.153-.456-2.305-.94-3.458-1.457-1.153-.546-2.138-1.32-2.957-2.32-.82-1-1.23-2.2-1.23-3.595 0-2.032.79-3.624 2.367-4.777 1.577-1.182 3.564-1.773 5.96-1.774 1.487 0 2.852.213 4.096.637 1.243.425 2.108.85 2.593 1.274l.73.637-1.775 3.322c-.152-.152-.38-.334-.683-.546-.273-.243-.91-.546-1.91-.91-.972-.394-2.003-.592-3.095-.592-1.062 0-1.956.243-2.684.728-.728.455-1.092 1.153-1.092 2.093 0 .758.41 1.41 1.23 1.956.818.546 1.804 1.046 2.957 1.5 1.152.426 2.305.91 3.458 1.457 1.152.516 2.138 1.274 2.957 2.275.82 1 1.23 2.2 1.23 3.595 0 1.94-.775 3.55-2.322 4.823-1.517 1.244-3.52 1.865-6.006 1.865-1.668 0-3.23-.272-4.686-.818-1.456-.576-2.488-1.152-3.094-1.73l-.956-.818" style="-inkscape-font-specification:MuseoSans-500"/><path d="M187.18 118.788V108.05h-3.003v-3.55h3.14V97.86h4.276v6.643h5.55v3.55h-5.55v10.237c0 .88.12 1.654.364 2.32.243.638.53 1.138.865 1.502.364.363.773.652 1.228.864.485.212.91.35 1.274.41.394.06.79.09 1.183.09l1.047-.09v3.912c-.425.06-.94.09-1.547.09-.728 0-1.426-.044-2.093-.135-.668-.09-1.426-.318-2.275-.682-.85-.364-1.594-.834-2.23-1.41-.608-.607-1.138-1.456-1.593-2.548-.425-1.092-.637-2.366-.637-3.822" style="-inkscape-font-specification:MuseoSans-500"/><path d="M202.168 118.924v-14.742h4.414v13.74c0 1.852.288 3.277.864 4.278.607.97 1.76 1.456 3.458 1.456 2.245 0 4.05-.85 5.415-2.548 1.364-1.698 2.046-3.746 2.046-6.142v-10.784h4.414v23.023h-4.277v-3.048l.09-1.684h-.09c-.576 1.335-1.623 2.548-3.14 3.64-1.486 1.092-3.26 1.638-5.323 1.638-5.248 0-7.872-2.94-7.872-8.826" style="-inkscape-font-specification:MuseoSans-500"/><path d="M228.18 115.694c0-3.64.97-6.552 2.91-8.736 1.942-2.214 4.445-3.32 7.508-3.322 1 0 1.926.122 2.776.364.85.243 1.516.547 2.002.91.515.365.955.728 1.32 1.092.394.364.667.668.818.91l.182.364h.09c-.06-.455-.09-.97-.09-1.547V95.08h4.414v32.123h-4.186v-2.184l.045-1.546h-.092c-.06.122-.15.273-.273.455-.09.18-.35.53-.773 1.046-.395.485-.865.925-1.41 1.32-.516.363-1.23.697-2.14 1-.91.304-1.895.455-2.957.455-3.094 0-5.566-1.106-7.416-3.32-1.82-2.214-2.73-5.126-2.73-8.736m4.503 0c0 2.487.592 4.49 1.775 6.006 1.213 1.486 2.79 2.23 4.732 2.23 1.88 0 3.458-.683 4.732-2.048 1.274-1.395 1.91-3.473 1.91-6.234 0-2.214-.576-4.125-1.728-5.733-1.123-1.638-2.715-2.457-4.778-2.457-1.88 0-3.458.744-4.732 2.23-1.274 1.456-1.91 3.458-1.91 6.006" style="-inkscape-font-specification:MuseoSans-500"/><path d="M257.006 99.587v-4.505h4.46v4.505h-4.46m.045 27.618v-23.023h4.415v23.023h-4.414" style="-inkscape-font-specification:MuseoSans-500"/><path d="M270.248 124.293c-2.396-2.305-3.594-5.187-3.594-8.645 0-3.458 1.198-6.324 3.594-8.6 2.397-2.274 5.34-3.41 8.827-3.412 3.49 0 6.43 1.138 8.827 3.413 2.397 2.274 3.595 5.14 3.595 8.598 0 3.458-1.213 6.34-3.64 8.645-2.396 2.306-5.324 3.458-8.782 3.458s-6.4-1.15-8.827-3.457m3.23-14.514c-1.546 1.546-2.32 3.502-2.32 5.868 0 2.366.774 4.338 2.32 5.915 1.548 1.578 3.413 2.366 5.597 2.366 2.215 0 4.08-.774 5.597-2.32 1.547-1.578 2.32-3.565 2.32-5.962 0-2.366-.773-4.322-2.32-5.87-1.517-1.546-3.382-2.32-5.597-2.32-2.184 0-4.05.774-5.596 2.32" style="-inkscape-font-specification:MuseoSans-500"/><path d="M294.82 124.384l2.14-3.14c.18.213.454.47.818.774.364.273 1.122.668 2.275 1.183 1.153.487 2.32.73 3.504.73 1.03 0 1.926-.258 2.684-.774.76-.516 1.14-1.213 1.14-2.093 0-.758-.41-1.426-1.23-2.002-.82-.575-1.805-1.076-2.957-1.5-1.153-.456-2.306-.94-3.458-1.457-1.153-.546-2.14-1.32-2.958-2.32-.82-1-1.228-2.2-1.228-3.595 0-2.032.787-3.624 2.365-4.777 1.577-1.182 3.564-1.773 5.96-1.774 1.486 0 2.85.213 4.095.637 1.244.425 2.108.85 2.594 1.274l.728.637-1.775 3.322c-.152-.152-.38-.334-.682-.546-.273-.243-.91-.546-1.91-.91-.972-.394-2.003-.592-3.095-.592-1.062 0-1.957.243-2.685.728-.728.455-1.092 1.153-1.092 2.093 0 .758.41 1.41 1.23 1.956.818.546 1.803 1.046 2.956 1.5 1.152.426 2.304.91 3.457 1.457 1.153.516 2.14 1.274 2.958 2.275.82 1 1.228 2.2 1.228 3.595 0 1.94-.773 3.55-2.32 4.823-1.517 1.244-3.52 1.865-6.006 1.865-1.67 0-3.23-.272-4.687-.818-1.456-.576-2.487-1.152-3.094-1.73l-.955-.818" style="-inkscape-font-specification:MuseoSans-500"/><path d="M317.674 116.194v-3.913h13.286v3.914h-13.286" style="-inkscape-font-specification:MuseoSans-500"/><path d="M340.59 131.39c1.91 1.033 4.02 1.548 6.325 1.548 2.184 0 3.943-.53 5.278-1.592 1.334-1.03 2.002-2.654 2.002-4.87v-1.682l.045-1.456h-.09c-1.427 2.396-3.702 3.594-6.826 3.594-3.124 0-5.627-1.107-7.507-3.32-1.85-2.246-2.776-5.067-2.776-8.464 0-3.397.896-6.158 2.686-8.28 1.79-2.155 4.246-3.23 7.37-3.232 1.032 0 1.987.122 2.867.364.88.213 1.577.5 2.093.865.516.334.956.667 1.32 1 .364.335.606.623.728.865l.227.32h.092c-.03-.213-.045-.456-.045-.73v-2.138h4.23v22.068c0 1.82-.333 3.428-1 4.823-.637 1.395-1.517 2.487-2.64 3.276-1.12.818-2.35 1.425-3.684 1.82-1.335.393-2.76.59-4.277.59-2.76 0-5.385-.637-7.872-1.91l1.456-3.46m7.6-8.28c1.788 0 3.244-.62 4.367-1.865 1.152-1.244 1.73-3.26 1.73-6.052 0-5.156-2.17-7.735-6.508-7.735-1.973 0-3.52.683-4.642 2.048-1.092 1.335-1.638 3.185-1.638 5.55 0 2.428.592 4.384 1.775 5.87 1.213 1.456 2.85 2.184 4.914 2.184" style="-inkscape-font-specification:MuseoSans-500"/><path d="M363.693 120.744c0-5.278 4.625-7.917 13.877-7.917h1v-.41c0-3.366-1.682-5.05-5.05-5.05-1.06 0-2.123.182-3.184.546-1.062.364-1.866.728-2.412 1.092l-.82.592-1.82-3.23c.244-.213.593-.47 1.048-.774.485-.303 1.47-.698 2.957-1.183 1.485-.516 3.017-.774 4.595-.774 2.912 0 5.156.774 6.734 2.32 1.576 1.548 2.365 3.777 2.365 6.69v14.56h-4.095v-2.185l.09-1.82h-.09c-.06.123-.152.29-.273.502-.09.212-.35.576-.774 1.092-.394.516-.85.97-1.365 1.365-.485.393-1.183.757-2.093 1.09-.88.335-1.835.5-2.866.5-2.125 0-3.96-.62-5.507-1.864-1.547-1.244-2.32-2.958-2.32-5.142m4.46-.227c0 1 .378 1.865 1.136 2.593.757.728 1.82 1.092 3.184 1.092 1.76 0 3.215-.758 4.368-2.275 1.183-1.547 1.775-3.23 1.775-5.05v-.728h-1.138c-6.22 0-9.328 1.455-9.328 4.367" style="-inkscape-font-specification:MuseoSans-500"/><path d="M389.28 120.926V95.082h4.413v25.07c0 1.275.212 2.14.637 2.594.424.455 1.03.683 1.82.683l.773-.047v3.913c-.455.06-.94.09-1.456.09-4.125 0-6.188-2.152-6.188-6.46" style="-inkscape-font-specification:MuseoSans-500"/><path d="M401.365 120.926V95.082h4.414v25.07c0 1.275.21 2.14.636 2.594.424.455 1.03.683 1.82.683l.773-.047v3.913c-.456.06-.94.09-1.457.09-4.125 0-6.188-2.152-6.188-6.46" style="-inkscape-font-specification:MuseoSans-500"/><path d="M412.132 115.694c0-3.61 1.076-6.522 3.23-8.736 2.184-2.214 4.944-3.32 8.28-3.322 3.125 0 5.567 1.017 7.327 3.05 1.758 2.03 2.638 4.61 2.638 7.734l-.137 1.91h-16.788c.12 2.428.925 4.308 2.41 5.643 1.518 1.304 3.353 1.956 5.507 1.956 1.182 0 2.334-.228 3.457-.683 1.152-.455 2.002-.895 2.548-1.32l.82-.682 1.82 3.23c-.244.243-.608.546-1.093.91-.486.364-1.502.85-3.05 1.456-1.546.608-3.138.91-4.776.91-3.58 0-6.507-1.136-8.782-3.41-2.275-2.306-3.412-5.188-3.412-8.646m4.686-2.685h12.285c-.06-1.912-.622-3.368-1.683-4.37-1.032-1-2.32-1.5-3.868-1.5-1.73 0-3.215.516-4.46 1.547-1.212 1.03-1.97 2.472-2.274 4.322" style="-inkscape-font-specification:MuseoSans-500"/><path d="M438.962 127.205v-23.023h4.277v4.004l-.092 1.73h.09c.547-1.76 1.457-3.2 2.73-4.323 1.306-1.122 2.822-1.684 4.55-1.684l1.14.09v4.368c-.395-.09-.82-.136-1.275-.136-1.426 0-2.73.485-3.913 1.456-1.183.97-2.032 2.29-2.548 3.958-.364 1.183-.546 2.564-.546 4.14v9.42h-4.414" style="-inkscape-font-specification:MuseoSans-500"/><path d="M455.98 99.587v-4.505h4.458v4.505h-4.46m.047 27.618v-23.023h4.413v23.023h-4.413" style="-inkscape-font-specification:MuseoSans-500"/><path d="M465.72 115.694c0-3.61 1.075-6.522 3.23-8.736 2.183-2.214 4.943-3.32 8.28-3.322 3.124 0 5.566 1.017 7.326 3.05 1.76 2.03 2.64 4.61 2.64 7.734l-.138 1.91h-16.79c.122 2.428.926 4.308 2.412 5.643 1.517 1.304 3.352 1.956 5.506 1.956 1.183 0 2.335-.228 3.458-.683 1.152-.455 2.002-.895 2.548-1.32l.82-.682 1.82 3.23c-.244.243-.608.546-1.093.91-.487.364-1.503.85-3.05 1.456-1.547.608-3.14.91-4.777.91-3.58 0-6.507-1.136-8.782-3.41-2.274-2.306-3.41-5.188-3.41-8.646m4.685-2.685h12.285c-.06-1.912-.622-3.368-1.683-4.37-1.032-1-2.32-1.5-3.868-1.5-1.73 0-3.216.516-4.46 1.547-1.213 1.03-1.972 2.472-2.275 4.322" style="-inkscape-font-specification:MuseoSans-500"/><path d="M490.684 124.384l2.138-3.14c.182.213.455.47.82.774.363.273 1.122.668 2.274 1.183 1.153.487 2.32.73 3.504.73 1.03 0 1.926-.258 2.684-.774.76-.516 1.138-1.213 1.138-2.093 0-.758-.41-1.426-1.23-2.002-.818-.575-1.803-1.076-2.956-1.5-1.153-.456-2.305-.94-3.458-1.457-1.153-.546-2.14-1.32-2.958-2.32-.82-1-1.228-2.2-1.228-3.595 0-2.032.79-3.624 2.366-4.777 1.577-1.182 3.564-1.773 5.96-1.774 1.487 0 2.852.213 4.095.637 1.244.425 2.11.85 2.594 1.274l.728.637-1.775 3.322c-.15-.152-.38-.334-.682-.546-.273-.243-.91-.546-1.91-.91-.972-.394-2.003-.592-3.095-.592-1.062 0-1.957.243-2.685.728-.728.455-1.092 1.153-1.092 2.093 0 .758.41 1.41 1.23 1.956.818.546 1.804 1.046 2.956 1.5 1.153.426 2.306.91 3.458 1.457 1.153.516 2.14 1.274 2.958 2.275.82 1 1.228 2.2 1.228 3.595 0 1.94-.773 3.55-2.32 4.823-1.517 1.244-3.52 1.865-6.006 1.865-1.668 0-3.23-.272-4.687-.818-1.456-.576-2.487-1.152-3.094-1.73l-.956-.818" style="-inkscape-font-specification:MuseoSans-500"/><path d="M513.537 116.194v-3.913h13.286v3.914h-13.286" style="-inkscape-font-specification:MuseoSans-500"/><path d="M532.768 115.694c0-3.428 1.152-6.294 3.458-8.6 2.335-2.305 5.293-3.457 8.872-3.458 1.7 0 3.26.29 4.687.865 1.456.547 2.487 1.108 3.094 1.684l.863.82-2.093 3.093c-.182-.182-.455-.424-.82-.728-.332-.304-1.06-.698-2.183-1.184-1.092-.485-2.214-.728-3.367-.728-2.305 0-4.216.774-5.733 2.32-1.516 1.548-2.275 3.504-2.275 5.87s.76 4.338 2.275 5.915c1.547 1.578 3.504 2.366 5.87 2.366 1.274 0 2.502-.258 3.685-.774 1.183-.516 2.048-1.03 2.594-1.547l.82-.775 1.773 3.23-.41.41c-.152.152-.516.44-1.092.865-.577.425-1.198.804-1.866 1.137-.667.304-1.532.592-2.593.865-1.033.273-2.11.41-3.232.41-3.61 0-6.567-1.138-8.872-3.413-2.306-2.276-3.458-5.158-3.458-8.646" style="-inkscape-font-specification:MuseoSans-500"/><path d="M557.423 120.744c0-5.278 4.626-7.917 13.878-7.917h1.002v-.41c0-3.366-1.684-5.05-5.05-5.05-1.063 0-2.124.182-3.186.546-1.062.364-1.865.728-2.41 1.092l-.82.592-1.82-3.23c.242-.213.59-.47 1.046-.774.485-.303 1.47-.698 2.958-1.183 1.486-.516 3.018-.774 4.595-.774 2.912 0 5.157.774 6.734 2.32 1.576 1.548 2.365 3.777 2.365 6.69v14.56h-4.095v-2.185l.09-1.82h-.09c-.06.123-.152.29-.273.502-.09.212-.35.576-.773 1.092-.395.516-.85.97-1.365 1.365-.487.393-1.184.757-2.094 1.09-.88.335-1.836.5-2.867.5-2.124 0-3.96-.62-5.506-1.864-1.547-1.244-2.32-2.958-2.32-5.142m4.458-.227c0 1 .38 1.865 1.138 2.593.758.728 1.82 1.092 3.185 1.092 1.76 0 3.215-.758 4.368-2.275 1.183-1.547 1.774-3.23 1.774-5.05v-.728h-1.137c-6.22 0-9.328 1.455-9.328 4.367" style="-inkscape-font-specification:MuseoSans-500"/><path d="M584.334 127.205V108.05h-2.867v-3.55h2.867v-1.09c0-1.457.212-2.716.637-3.778.425-1.092.94-1.926 1.548-2.502.606-.607 1.334-1.077 2.184-1.41.85-.364 1.592-.592 2.23-.683.666-.12 1.35-.182 2.047-.182l1.682.136v3.778c-.303-.06-.682-.09-1.137-.09-.516 0-1.017.06-1.502.18-.455.092-.955.29-1.5.592-.547.304-.987.804-1.32 1.502-.335.698-.5 1.547-.5 2.548v1h5.46v3.55h-5.46v19.155h-4.37" style="-inkscape-font-specification:MuseoSans-500"/><path d="M596.798 115.694c0-3.61 1.077-6.522 3.23-8.736 2.184-2.214 4.945-3.32 8.28-3.322 3.125 0 5.567 1.017 7.327 3.05 1.76 2.03 2.64 4.61 2.64 7.734l-.138 1.91h-16.79c.122 2.428.926 4.308 2.412 5.643 1.516 1.304 3.35 1.956 5.505 1.956 1.183 0 2.335-.228 3.458-.683 1.152-.455 2.002-.895 2.548-1.32l.82-.682 1.82 3.23c-.243.243-.607.546-1.092.91-.486.364-1.502.85-3.05 1.456-1.546.608-3.138.91-4.776.91-3.58 0-6.507-1.136-8.782-3.41-2.275-2.306-3.412-5.188-3.412-8.646m4.686-2.685h12.285c-.062-1.912-.623-3.368-1.684-4.37-1.032-1-2.32-1.5-3.868-1.5-1.73 0-3.215.516-4.46 1.547-1.212 1.03-1.97 2.472-2.274 4.322m4.87-12.15l3.32-5.778h4.732l-4.368 5.78h-3.685" style="-inkscape-font-specification:MuseoSans-500"/><path d="M624.265 116.194v-3.913h13.286v3.914h-13.285" style="-inkscape-font-specification:MuseoSans-500"/><path d="M643.496 115.694c0-3.428 1.153-6.294 3.458-8.6 2.336-2.305 5.293-3.457 8.873-3.458 1.698 0 3.26.29 4.686.865 1.456.547 2.488 1.108 3.094 1.684l.865.82-2.093 3.093c-.183-.182-.456-.424-.82-.728-.334-.304-1.062-.698-2.184-1.184-1.092-.485-2.215-.728-3.367-.728-2.307 0-4.218.774-5.734 2.32-1.517 1.548-2.275 3.504-2.275 5.87s.76 4.338 2.276 5.915c1.547 1.578 3.503 2.366 5.87 2.366 1.273 0 2.502-.258 3.685-.774 1.184-.516 2.048-1.03 2.594-1.547l.82-.775 1.774 3.23c-.09.092-.228.228-.41.41-.15.152-.515.44-1.092.865-.576.425-1.198.804-1.865 1.137-.667.304-1.53.592-2.593.865-1.03.273-2.108.41-3.23.41-3.61 0-6.567-1.138-8.873-3.413-2.305-2.276-3.458-5.158-3.458-8.646" style="-inkscape-font-specification:MuseoSans-500"/><path d="M671.928 124.293c-2.396-2.305-3.594-5.187-3.594-8.645 0-3.458 1.198-6.324 3.594-8.6 2.396-2.274 5.34-3.41 8.827-3.412 3.488 0 6.43 1.138 8.827 3.413 2.396 2.274 3.595 5.14 3.595 8.598 0 3.458-1.214 6.34-3.64 8.645-2.397 2.306-5.324 3.458-8.782 3.458s-6.4-1.15-8.827-3.457m3.23-14.514c-1.546 1.546-2.32 3.502-2.32 5.868 0 2.366.774 4.338 2.32 5.915 1.548 1.578 3.413 2.366 5.597 2.366 2.214 0 4.08-.774 5.597-2.32 1.547-1.578 2.32-3.565 2.32-5.962 0-2.366-.773-4.322-2.32-5.87-1.517-1.546-3.383-2.32-5.597-2.32-2.184 0-4.05.774-5.596 2.32" style="-inkscape-font-specification:MuseoSans-500"/><path d="M698.047 118.924v-14.742h4.414v13.74c0 1.852.29 3.277.865 4.278.607.97 1.76 1.456 3.458 1.456 2.245 0 4.05-.85 5.415-2.548 1.365-1.698 2.047-3.746 2.047-6.142v-10.784h4.414v23.023h-4.278v-3.048l.09-1.684h-.09c-.577 1.335-1.623 2.548-3.14 3.64-1.486 1.092-3.26 1.638-5.323 1.638-5.25 0-7.873-2.94-7.873-8.826" style="-inkscape-font-specification:MuseoSans-500"/><path d="M725.56 127.205v-23.023h4.276v4.004l-.09 1.73h.09c.546-1.76 1.456-3.2 2.73-4.323 1.304-1.122 2.82-1.684 4.55-1.684l1.138.09v4.368c-.395-.09-.82-.136-1.274-.136-1.426 0-2.73.485-3.913 1.456-1.183.97-2.033 2.29-2.548 3.958-.365 1.183-.547 2.564-.547 4.14v9.42h-4.414" style="-inkscape-font-specification:MuseoSans-500"/><path d="M740.756 124.384l2.14-3.14c.18.213.454.47.818.774.364.273 1.122.668 2.275 1.183 1.15.487 2.32.73 3.502.73 1.03 0 1.926-.258 2.685-.774.758-.516 1.137-1.213 1.137-2.093 0-.758-.41-1.426-1.228-2.002-.82-.575-1.805-1.076-2.958-1.5-1.153-.456-2.305-.94-3.458-1.457-1.153-.546-2.138-1.32-2.957-2.32-.82-1-1.23-2.2-1.23-3.595 0-2.032.79-3.624 2.367-4.777 1.577-1.182 3.564-1.773 5.96-1.774 1.487 0 2.852.213 4.096.637 1.243.425 2.108.85 2.593 1.274l.727.637-1.774 3.322c-.152-.152-.38-.334-.683-.546-.273-.243-.91-.546-1.91-.91-.972-.394-2.003-.592-3.095-.592-1.062 0-1.956.243-2.684.728-.727.455-1.09 1.153-1.09 2.093 0 .758.408 1.41 1.227 1.956.82.546 1.805 1.046 2.958 1.5 1.152.426 2.305.91 3.458 1.457 1.152.516 2.138 1.274 2.957 2.275.82 1 1.23 2.2 1.23 3.595 0 1.94-.775 3.55-2.322 4.823-1.517 1.244-3.52 1.865-6.006 1.865-1.668 0-3.23-.272-4.686-.818-1.456-.576-2.488-1.152-3.094-1.73l-.956-.818" style="-inkscape-font-specification:MuseoSans-500"/><path d="M761.38 115.694c0-3.61 1.077-6.522 3.23-8.736 2.184-2.214 4.945-3.32 8.28-3.322 3.126 0 5.567 1.017 7.327 3.05 1.76 2.03 2.64 4.61 2.64 7.734l-.138 1.91h-16.79c.12 2.428.925 4.308 2.41 5.643 1.518 1.304 3.353 1.956 5.507 1.956 1.183 0 2.335-.228 3.458-.683 1.152-.455 2.002-.895 2.548-1.32l.82-.682 1.82 3.23c-.244.243-.608.546-1.093.91-.486.364-1.502.85-3.05 1.456-1.546.608-3.138.91-4.776.91-3.58 0-6.507-1.136-8.782-3.41-2.275-2.306-3.412-5.188-3.412-8.646m4.686-2.685h12.285c-.06-1.912-.62-3.368-1.682-4.37-1.032-1-2.32-1.5-3.868-1.5-1.73 0-3.215.516-4.46 1.547-1.212 1.03-1.97 2.472-2.274 4.322" style="-inkscape-font-specification:MuseoSans-500"/><path d="M786.345 124.384l2.138-3.14c.182.213.455.47.82.774.363.273 1.122.668 2.274 1.183 1.153.487 2.32.73 3.504.73 1.032 0 1.927-.258 2.685-.774.76-.516 1.138-1.213 1.138-2.093 0-.758-.41-1.426-1.23-2.002-.818-.575-1.803-1.076-2.956-1.5-1.153-.456-2.305-.94-3.458-1.457-1.154-.546-2.14-1.32-2.96-2.32-.818-1-1.227-2.2-1.227-3.595 0-2.032.79-3.624 2.366-4.777 1.576-1.182 3.563-1.773 5.96-1.774 1.486 0 2.85.213 4.094.637 1.244.425 2.11.85 2.594 1.274l.728.637-1.775 3.322c-.15-.152-.378-.334-.68-.546-.274-.243-.91-.546-1.912-.91-.97-.394-2.002-.592-3.094-.592-1.062 0-1.957.243-2.685.728-.73.455-1.093 1.153-1.093 2.093 0 .758.41 1.41 1.23 1.956.818.546 1.804 1.046 2.956 1.5 1.153.426 2.306.91 3.458 1.457 1.154.516 2.14 1.274 2.96 2.275.818 1 1.227 2.2 1.227 3.595 0 1.94-.773 3.55-2.32 4.823-1.517 1.244-3.52 1.865-6.006 1.865-1.667 0-3.23-.272-4.686-.818-1.456-.576-2.487-1.152-3.094-1.73l-.955-.818" style="-inkscape-font-specification:MuseoSans-500"/></g></g></svg>