<?xml-stylesheet type="text/css" href="../css/styles.css" ?><svg xmlns="http://www.w3.org/2000/svg" width="804" height="137.999" preserveAspectRatio="xMinYMin meet"><g letter-spacing="0" word-spacing="0" fill="#fff"><path style="text-align:start;line-height:109.00000334%;-inkscape-font-specification:Museo 500" d="M163.41 45.433c0-7.555 2.541-13.874 7.622-18.956 5.148-5.082 11.668-7.622 19.558-7.622 3.744 0 7.188.635 10.33 1.906 3.209 1.204 5.483 2.441 6.82 3.711l1.906 1.805-4.614 6.82c-.401-.401-1.003-.936-1.805-1.605-.736-.669-2.34-1.538-4.814-2.608-2.407-1.07-4.881-1.605-7.422-1.605-5.082 0-9.294 1.705-12.637 5.115s-5.015 7.723-5.015 12.938c0 5.215 1.672 9.561 5.015 13.038 3.41 3.477 7.723 5.215 12.938 5.215 2.808 0 5.516-.568 8.124-1.705 2.608-1.137 4.513-2.273 5.717-3.41l1.805-1.705 3.911 7.121-.903.903c-.334.334-1.137.97-2.407 1.906-1.27.936-2.641 1.772-4.112 2.507-1.471.669-3.377 1.304-5.717 1.906-2.273.602-4.647.903-7.121.903-7.957 0-14.476-2.507-19.558-7.522-5.082-5.015-7.622-11.367-7.622-19.056m58.459 25.375v-50.749h9.428v8.826l-.201 3.811h.201c1.204-3.878 3.209-7.054 6.018-9.528 2.875-2.474 6.218-3.711 10.029-3.711l2.507.201v9.628c-.869-.201-1.805-.301-2.808-.301-3.143 0-6.018 1.07-8.625 3.209-2.608 2.14-4.48 5.048-5.617 8.726-.802 2.608-1.204 5.65-1.204 9.127v20.761h-9.729m44.039-31.292h27.08c-.134-4.212-1.371-7.422-3.711-9.628-2.273-2.206-5.115-3.31-8.525-3.31-3.811 0-7.088 1.137-9.829 3.41-2.675 2.273-4.346 5.449-5.015 9.528m-10.33 5.917c0-7.957 2.374-14.376 7.121-19.257 4.814-4.881 10.899-7.321 18.254-7.322 6.887 0 12.269 2.24 16.147 6.72 3.878 4.48 5.817 10.163 5.817 17.05l-.301 4.212h-37.009c.267 5.349 2.039 9.495 5.316 12.437 3.343 2.875 7.388 4.313 12.136 4.313 2.608 0 5.148-.501 7.622-1.504 2.541-1.003 4.413-1.972 5.617-2.909l1.805-1.504 4.012 7.121c-.535.535-1.337 1.204-2.407 2.006-1.07.802-3.31 1.872-6.72 3.209-3.41 1.337-6.92 2.006-10.531 2.006-7.89 0-14.342-2.507-19.357-7.522-5.015-5.082-7.522-11.434-7.522-19.056m65.963-5.917h27.08c-.134-4.212-1.371-7.422-3.711-9.628-2.273-2.206-5.115-3.31-8.525-3.31-3.811 0-7.088 1.137-9.829 3.41-2.675 2.273-4.346 5.449-5.015 9.528m-10.33 5.917c0-7.957 2.374-14.376 7.121-19.257 4.814-4.881 10.899-7.321 18.254-7.322 6.887 0 12.269 2.24 16.147 6.72 3.878 4.48 5.817 10.163 5.817 17.05l-.301 4.212h-37.009c.267 5.349 2.039 9.495 5.316 12.437 3.343 2.875 7.388 4.313 12.136 4.313 2.608 0 5.148-.501 7.622-1.504 2.541-1.003 4.413-1.972 5.617-2.909l1.805-1.504 4.012 7.121c-.535.535-1.337 1.204-2.407 2.006-1.07.802-3.31 1.872-6.72 3.209-3.41 1.337-6.92 2.006-10.531 2.006-7.89 0-14.342-2.507-19.357-7.522-5.015-5.082-7.522-11.434-7.522-19.056m59.143 25.375v-70.808h9.729v38.714h7.121l13.841-18.655h11.032l-16.85 22.366v.201l18.755 28.183h-11.333l-15.245-23.87h-7.322v23.87h-9.729m74.941-25.375c0-7.556 2.541-13.874 7.622-18.956 5.148-5.082 11.668-7.622 19.558-7.622 3.744 0 7.188.635 10.33 1.906 3.209 1.204 5.483 2.441 6.82 3.711l1.906 1.805-4.614 6.82c-.401-.401-1.003-.936-1.805-1.605-.736-.669-2.34-1.538-4.814-2.608-2.407-1.07-4.881-1.605-7.422-1.605-5.082 0-9.294 1.705-12.637 5.115s-5.015 7.723-5.015 12.938c0 5.215 1.672 9.561 5.015 13.038 3.41 3.477 7.723 5.215 12.938 5.215 2.808 0 5.516-.568 8.124-1.705 2.608-1.137 4.513-2.273 5.717-3.41l1.805-1.705 3.912 7.121-.903.903c-.334.334-1.137.97-2.407 1.906-1.27.936-2.641 1.772-4.112 2.507-1.471.669-3.377 1.304-5.717 1.906-2.273.602-4.647.903-7.121.903-7.957 0-14.476-2.507-19.558-7.522-5.082-5.015-7.622-11.367-7.622-19.056m58.459 25.375v-50.749h9.428v8.826l-.201 3.811h.201c1.204-3.878 3.209-7.054 6.018-9.528 2.875-2.474 6.218-3.711 10.029-3.711l2.507.201v9.628c-.869-.201-1.805-.301-2.808-.301-3.143 0-6.018 1.07-8.625 3.209-2.608 2.14-4.48 5.048-5.617 8.726-.802 2.608-1.204 5.65-1.204 9.127v20.761h-9.729m44.039-31.292h27.08c-.134-4.212-1.371-7.422-3.711-9.628-2.273-2.206-5.115-3.31-8.525-3.31-3.811 0-7.088 1.137-9.829 3.41-2.675 2.273-4.346 5.449-5.015 9.528m-10.33 5.917c0-7.957 2.374-14.376 7.121-19.257 4.814-4.881 10.899-7.321 18.254-7.322 6.887 0 12.269 2.24 16.147 6.72 3.878 4.48 5.817 10.163 5.817 17.05l-.301 4.212h-37.009c.267 5.349 2.039 9.495 5.316 12.437 3.343 2.875 7.388 4.313 12.136 4.313 2.608 0 5.148-.501 7.622-1.504 2.541-1.003 4.413-1.972 5.617-2.909l1.805-1.504 4.012 7.121c-.535.535-1.337 1.204-2.407 2.006-1.07.802-3.31 1.872-6.72 3.209-3.41 1.337-6.92 2.006-10.531 2.006-7.89 0-14.342-2.507-19.357-7.522-5.015-5.082-7.522-11.434-7.522-19.056m64.859 10.631c0 2.206.836 4.112 2.507 5.717 1.672 1.605 4.012 2.407 7.021 2.407 3.878 0 7.087-1.672 9.628-5.015 2.608-3.41 3.911-7.121 3.912-11.133v-1.605h-2.507c-13.707 0-20.56 3.209-20.56 9.628m-9.829.501c0-11.634 10.197-17.451 30.59-17.451h2.206v-.903c0-7.422-3.711-11.133-11.133-11.133-2.34 0-4.68.401-7.021 1.204-2.34.802-4.112 1.605-5.316 2.407l-1.805 1.304-4.012-7.121c.535-.468 1.304-1.036 2.307-1.705 1.07-.669 3.243-1.538 6.519-2.608 3.276-1.137 6.653-1.705 10.13-1.705 6.419 0 11.367 1.705 14.844 5.115 3.477 3.41 5.215 8.324 5.215 14.743v32.094h-9.027v-4.814l.201-4.012h-.201c-.134.267-.334.635-.602 1.103-.201.468-.769 1.27-1.705 2.407-.869 1.137-1.872 2.14-3.009 3.009-1.07.869-2.608 1.672-4.614 2.407-1.939.735-4.045 1.103-6.319 1.103-4.68 0-8.726-1.371-12.136-4.112-3.41-2.741-5.115-6.519-5.115-11.333m58.716-4.313v-23.67h-6.619v-7.823h6.92v-14.643h9.428v14.643h12.236v7.823h-12.236v22.566c0 1.939.268 3.644.802 5.115.535 1.404 1.17 2.507 1.906 3.31.802.802 1.705 1.438 2.708 1.906 1.07.468 2.006.769 2.808.903.869.134 1.738.201 2.608.201l2.307-.201v8.625c-.936.134-2.073.201-3.41.201-1.605 0-3.143-.1-4.614-.301-1.471-.201-3.143-.702-5.015-1.504-1.872-.802-3.51-1.839-4.914-3.109-1.337-1.337-2.507-3.209-3.51-5.617-.936-2.407-1.404-5.215-1.404-8.425m33.741 18.555v-50.749h9.729v50.749h-9.729m-.1-60.879v-9.929h9.829v9.929h-9.829m37.014 60.879l-18.956-50.749h10.33l12.336 34.301c.267.802.535 1.805.802 3.009.267 1.137.501 2.073.702 2.808l.201 1.103h.201l.201-1.103c.201-.735.435-1.672.702-2.808.334-1.204.635-2.206.903-3.009l12.336-34.301h10.23l-18.755 50.749h-11.233m45.128-31.292h27.08c-.134-4.212-1.371-7.422-3.711-9.628-2.273-2.206-5.115-3.31-8.525-3.31-3.811 0-7.088 1.137-9.829 3.41-2.675 2.273-4.346 5.449-5.015 9.528m-10.33 5.917c0-7.957 2.374-14.376 7.121-19.257 4.814-4.881 10.899-7.321 18.254-7.322 6.887 0 12.269 2.24 16.147 6.72 3.878 4.48 5.817 10.163 5.817 17.05l-.301 4.212h-37.009c.268 5.349 2.039 9.495 5.316 12.437 3.343 2.875 7.388 4.313 12.136 4.313 2.608 0 5.148-.501 7.622-1.504 2.541-1.003 4.413-1.972 5.617-2.909l1.805-1.504 4.012 7.121c-.535.535-1.337 1.204-2.407 2.006-1.07.802-3.31 1.872-6.72 3.209-3.41 1.337-6.92 2.006-10.531 2.006-7.89 0-14.342-2.507-19.357-7.522-5.015-5.082-7.522-11.434-7.522-19.056" font-size="16.027" font-family="Museo 500"/><path style="text-align:start;line-height:109.00000334%;-inkscape-font-specification:Museo 500" d="M0 0v137.999h138v-137.999zm12.091 10.796h113.664l-19.086 19.118c-9.677-9.247-22.876-14.978-37.509-14.978-14.656 0-27.92 5.792-37.667 15.199zm115.118 1.074v113.822l-56.911-56.816zm-116.413.19l19.402 19.37c-9.444 9.753-15.263 23.042-15.263 37.73 0 14.595 5.735 27.805 15.073 37.54l-19.213 19.276zm58.365 12.766c11.753 0 22.501 4.696 30.494 12.134l-10.491 10.523c-5.259-4.85-12.354-7.868-20.003-7.868-7.801 0-14.906 3.041-20.192 7.995l-10.46-10.46c7.956-7.619 18.737-12.324 30.652-12.324zm-31.947 13.619l10.46 10.428c-4.999 5.294-8.058 12.445-8.058 20.287 0 7.735 2.989 14.762 7.868 20.034l-10.46 10.491c-7.546-7.943-12.197-18.675-12.197-30.525 0-11.947 4.732-22.753 12.387-30.715zm31.789 11.06c5.066 0 9.6 1.833 13.145 4.993l-13.114 13.114-13.114-13.082c3.481-3.119 8.064-5.024 13.082-5.024zm-14.378 6.32l13.114 13.082-13.303 13.335c-3.131-3.483-5.088-8.053-5.088-13.082 0-5.142 2.02-9.825 5.277-13.335zm14.409 14.346l13.398 13.398c-3.467 3.186-8.244 5.245-13.43 5.245-5.134 0-9.795-2.029-13.303-5.277zm-20.287 20.319c5.309 5.081 12.499 8.216 20.413 8.216 7.94 0 15.009-3.141 20.287-8.153l10.523 10.522c-8.017 7.746-18.753 12.419-30.81 12.419-12.02 0-22.897-4.775-30.873-12.514zm-17.475 17.506c9.766 9.527 23.127 15.389 37.888 15.389 14.654 0 27.975-5.889 37.825-15.326l19.181 19.15h-114.075z" font-size="16.027" font-family="Museo 500"/><g style="text-align:center;line-height:125%;-inkscape-font-specification:Sans" font-size="46" text-anchor="middle" font-family="MuseoSans-500"><path d="M177.34 124.353l2.162-3.174c.184.215.46.475.828.782.368.276 1.135.675 2.3 1.196 1.165.491 2.346.736 3.542.736 1.043 0 1.947-.261 2.714-.782.767-.521 1.15-1.227 1.15-2.116 0-.767-.414-1.441-1.242-2.024-.828-.583-1.825-1.089-2.99-1.518-1.165-.46-2.331-.951-3.496-1.472-1.165-.552-2.162-1.334-2.99-2.346-.828-1.012-1.242-2.223-1.242-3.634 0-2.055.797-3.665 2.392-4.83 1.595-1.196 3.603-1.794 6.026-1.794 1.503 0 2.883.215 4.14.644 1.257.429 2.131.859 2.622 1.288l.736.644-1.794 3.358c-.153-.153-.383-.337-.69-.552-.276-.245-.92-.552-1.932-.92-.981-.399-2.024-.598-3.128-.598-1.073 0-1.978.245-2.714.736-.736.46-1.104 1.165-1.104 2.116 0 .767.414 1.426 1.242 1.978.828.552 1.825 1.058 2.99 1.518 1.165.429 2.331.92 3.496 1.472 1.165.521 2.162 1.288 2.99 2.3.828 1.012 1.242 2.223 1.242 3.634 0 1.963-.782 3.588-2.346 4.876-1.533 1.257-3.557 1.886-6.072 1.886-1.687 0-3.266-.276-4.738-.828-1.472-.583-2.515-1.165-3.128-1.748l-.966-.828" style="-inkscape-font-specification:MuseoSans-500"/><path d="M200.766 118.695v-10.856h-3.036v-3.588h3.174v-6.716h4.324v6.716h5.612v3.588h-5.612v10.35c0 .889.123 1.671.368 2.346.245.644.537 1.15.874 1.518.368.368.782.659 1.242.874.491.215.92.353 1.288.414.399.061.797.092 1.196.092l1.058-.092v3.956c-.429.061-.951.092-1.564.092-.736 0-1.441-.046-2.116-.138-.675-.092-1.441-.322-2.3-.69-.859-.368-1.61-.843-2.254-1.426-.613-.613-1.15-1.472-1.61-2.576-.429-1.104-.644-2.392-.644-3.864" style="-inkscape-font-specification:MuseoSans-500"/><path d="M215.92 118.833v-14.904h4.462v13.892c0 1.871.291 3.312.874 4.324.613.981 1.779 1.472 3.496 1.472 2.269 0 4.094-.859 5.474-2.576s2.07-3.787 2.07-6.21v-10.902h4.462v23.276h-4.324v-3.082l.092-1.702h-.092c-.583 1.349-1.641 2.576-3.174 3.68-1.503 1.104-3.297 1.656-5.382 1.656-5.305 0-7.958-2.975-7.958-8.924" style="-inkscape-font-specification:MuseoSans-500"/><path d="M242.216 115.567c0-3.68.981-6.624 2.944-8.832 1.963-2.239 4.493-3.358 7.59-3.358 1.012 0 1.947.123 2.806.368s1.533.552 2.024.92c.521.368.966.736 1.334 1.104.399.368.675.675.828.92l.184.368h.092c-.061-.46-.092-.981-.092-1.564v-10.764h4.462v32.476h-4.232v-2.208l.046-1.564h-.092c-.061.123-.153.276-.276.46-.092.184-.353.537-.782 1.058-.399.491-.874.935-1.426 1.334-.521.368-1.242.705-2.162 1.012-.92.307-1.917.46-2.99.46-3.128 0-5.627-1.119-7.498-3.358-1.84-2.239-2.76-5.183-2.76-8.832m4.554 0c0 2.515.598 4.539 1.794 6.072 1.227 1.503 2.821 2.254 4.784 2.254 1.901 0 3.496-.69 4.784-2.07 1.288-1.411 1.932-3.511 1.932-6.302 0-2.239-.583-4.171-1.748-5.796-1.135-1.656-2.745-2.484-4.83-2.484-1.901 0-3.496.751-4.784 2.254-1.288 1.472-1.932 3.496-1.932 6.072" style="-inkscape-font-specification:MuseoSans-500"/><path d="M271.36 99.283v-4.554h4.508v4.554h-4.508m.046 27.922v-23.276h4.462v23.276h-4.462" style="-inkscape-font-specification:MuseoSans-500"/><path d="M284.748 124.261c-2.423-2.331-3.634-5.244-3.634-8.74 0-3.496 1.211-6.394 3.634-8.694 2.423-2.3 5.397-3.45 8.924-3.45 3.527 0 6.501 1.15 8.924 3.45 2.423 2.3 3.634 5.198 3.634 8.694 0 3.496-1.227 6.409-3.68 8.74-2.423 2.331-5.382 3.496-8.878 3.496-3.496 0-6.471-1.165-8.924-3.496m3.266-14.674c-1.564 1.564-2.346 3.542-2.346 5.934 0 2.392.782 4.385 2.346 5.98 1.564 1.595 3.45 2.392 5.658 2.392 2.239 0 4.125-.782 5.658-2.346 1.564-1.595 2.346-3.603 2.346-6.026 0-2.392-.782-4.37-2.346-5.934-1.533-1.564-3.419-2.346-5.658-2.346-2.208 0-4.094.782-5.658 2.346" style="-inkscape-font-specification:MuseoSans-500"/><path d="M309.59 124.353l2.162-3.174c.184.215.46.475.828.782.368.276 1.135.675 2.3 1.196 1.165.491 2.346.736 3.542.736 1.043 0 1.947-.261 2.714-.782.767-.521 1.15-1.227 1.15-2.116 0-.767-.414-1.441-1.242-2.024-.828-.583-1.825-1.089-2.99-1.518-1.165-.46-2.331-.951-3.496-1.472-1.165-.552-2.162-1.334-2.99-2.346-.828-1.012-1.242-2.223-1.242-3.634 0-2.055.797-3.665 2.392-4.83 1.595-1.196 3.603-1.794 6.026-1.794 1.503 0 2.883.215 4.14.644 1.257.429 2.131.859 2.622 1.288l.736.644-1.794 3.358c-.153-.153-.383-.337-.69-.552-.276-.245-.92-.552-1.932-.92-.981-.399-2.024-.598-3.128-.598-1.073 0-1.978.245-2.714.736-.736.46-1.104 1.165-1.104 2.116 0 .767.414 1.426 1.242 1.978.828.552 1.825 1.058 2.99 1.518 1.165.429 2.331.92 3.496 1.472 1.165.521 2.162 1.288 2.99 2.3.828 1.012 1.242 2.223 1.242 3.634 0 1.963-.782 3.588-2.346 4.876-1.533 1.257-3.557 1.886-6.072 1.886-1.687 0-3.266-.276-4.738-.828-1.472-.583-2.515-1.165-3.128-1.748l-.966-.828" style="-inkscape-font-specification:MuseoSans-500"/><path d="M332.694 116.073v-3.956h13.432v3.956h-13.432" style="-inkscape-font-specification:MuseoSans-500"/><path d="M355.862 131.437c1.932 1.043 4.063 1.564 6.394 1.564 2.208 0 3.987-.537 5.336-1.61 1.349-1.043 2.024-2.683 2.024-4.922v-1.702l.046-1.472h-.092c-1.441 2.423-3.741 3.634-6.9 3.634-3.159 0-5.689-1.119-7.59-3.358-1.871-2.269-2.806-5.121-2.806-8.556 0-3.435.905-6.225 2.714-8.372 1.809-2.177 4.293-3.266 7.452-3.266 1.043 0 2.009.123 2.898.368.889.215 1.595.506 2.116.874.521.337.966.675 1.334 1.012.368.337.613.629.736.874l.23.322h.092c-.031-.215-.046-.46-.046-.736v-2.162h4.278v22.31c0 1.84-.337 3.465-1.012 4.876-.644 1.411-1.533 2.515-2.668 3.312-1.135.828-2.377 1.441-3.726 1.84-1.349.399-2.791.598-4.324.598-2.791 0-5.443-.644-7.958-1.932l1.472-3.496m7.682-8.372c1.809 0 3.281-.629 4.416-1.886 1.165-1.257 1.748-3.297 1.748-6.118 0-5.213-2.193-7.82-6.578-7.82-1.993 0-3.557.69-4.692 2.07-1.104 1.349-1.656 3.22-1.656 5.612 0 2.453.598 4.431 1.794 5.934 1.227 1.472 2.883 2.208 4.968 2.208" style="-inkscape-font-specification:MuseoSans-500"/><path d="M379.219 120.673c0-5.336 4.677-8.004 14.03-8.004h1.012v-.414c0-3.404-1.702-5.106-5.106-5.106-1.073 0-2.147.184-3.22.552-1.073.368-1.886.736-2.438 1.104l-.828.598-1.84-3.266c.245-.215.598-.475 1.058-.782.491-.307 1.487-.705 2.99-1.196 1.503-.521 3.051-.782 4.646-.782 2.944 0 5.213.782 6.808 2.346 1.595 1.564 2.392 3.818 2.392 6.762v14.72h-4.14v-2.208l.092-1.84h-.092l-.276.506c-.092.215-.353.583-.782 1.104-.399.521-.859.981-1.38 1.38-.491.399-1.196.767-2.116 1.104-.889.337-1.855.506-2.898.506-2.147 0-4.002-.629-5.566-1.886s-2.346-2.99-2.346-5.198m4.508-.23c0 1.012.383 1.886 1.15 2.622.767.736 1.84 1.104 3.22 1.104 1.779 0 3.251-.767 4.416-2.3 1.196-1.564 1.794-3.266 1.794-5.106v-.736h-1.15c-6.287 0-9.43 1.472-9.43 4.416" style="-inkscape-font-specification:MuseoSans-500"/><path d="M405.087 120.857v-26.128h4.462v25.346c0 1.288.215 2.162.644 2.622.429.46 1.043.69 1.84.69l.782-.046v3.956c-.46.061-.951.092-1.472.092-4.171 0-6.256-2.177-6.256-6.532" style="-inkscape-font-specification:MuseoSans-500"/><path d="M417.305 120.857v-26.128h4.462v25.346c0 1.288.215 2.162.644 2.622.429.46 1.043.69 1.84.69l.782-.046v3.956c-.46.061-.951.092-1.472.092-4.171 0-6.256-2.177-6.256-6.532" style="-inkscape-font-specification:MuseoSans-500"/><path d="M428.19 115.567c0-3.649 1.089-6.593 3.266-8.832 2.208-2.239 4.999-3.358 8.372-3.358 3.159 0 5.627 1.027 7.406 3.082 1.779 2.055 2.668 4.661 2.668 7.82l-.138 1.932h-16.974c.123 2.453.935 4.355 2.438 5.704 1.533 1.319 3.389 1.978 5.566 1.978 1.196 0 2.361-.23 3.496-.69 1.165-.46 2.024-.905 2.576-1.334l.828-.69 1.84 3.266c-.245.245-.613.552-1.104.92-.491.368-1.518.859-3.082 1.472-1.564.613-3.174.92-4.83.92-3.619 0-6.578-1.15-8.878-3.45-2.3-2.331-3.45-5.244-3.45-8.74m4.738-2.714h12.42c-.061-1.932-.629-3.404-1.702-4.416-1.043-1.012-2.346-1.518-3.91-1.518-1.748 0-3.251.521-4.508 1.564-1.227 1.043-1.993 2.499-2.3 4.37" style="-inkscape-font-specification:MuseoSans-500"/><path d="M455.316 127.205v-23.276h4.324v4.048l-.092 1.748h.092c.552-1.779 1.472-3.235 2.76-4.37 1.319-1.135 2.852-1.702 4.6-1.702l1.15.092v4.416c-.399-.092-.828-.138-1.288-.138-1.441 0-2.76.491-3.956 1.472-1.196.981-2.055 2.315-2.576 4.002-.368 1.196-.552 2.591-.552 4.186v9.522h-4.462" style="-inkscape-font-specification:MuseoSans-500"/><path d="M469.659 135.439l1.564-3.404c.859.644 1.763.966 2.714.966 1.84 0 3.235-1.135 4.186-3.404l1.15-2.668-9.752-23h5.014l5.842 15.226.874 2.806h.092c.245-1.043.506-1.963.782-2.76l5.658-15.272h4.83l-10.902 27.462c-.705 1.748-1.733 3.097-3.082 4.048-1.319.951-2.806 1.426-4.462 1.426-.767 0-1.533-.123-2.3-.368-.736-.245-1.288-.491-1.656-.736l-.552-.322" style="-inkscape-font-specification:MuseoSans-500"/><path d="M497.018 116.073v-3.956h13.432v3.956h-13.432" style="-inkscape-font-specification:MuseoSans-500"/><path d="M516.461 115.567c0-3.465 1.165-6.363 3.496-8.694 2.361-2.331 5.351-3.496 8.97-3.496 1.717 0 3.297.291 4.738.874 1.472.552 2.515 1.119 3.128 1.702l.874.828-2.116 3.128c-.184-.184-.46-.429-.828-.736-.337-.307-1.073-.705-2.208-1.196-1.104-.491-2.239-.736-3.404-.736-2.331 0-4.263.782-5.796 2.346-1.533 1.564-2.3 3.542-2.3 5.934 0 2.392.767 4.385 2.3 5.98 1.564 1.595 3.542 2.392 5.934 2.392 1.288 0 2.53-.261 3.726-.782 1.196-.521 2.07-1.043 2.622-1.564l.828-.782 1.794 3.266-.414.414c-.153.153-.521.445-1.104.874-.583.429-1.211.813-1.886 1.15-.675.307-1.549.598-2.622.874-1.043.276-2.131.414-3.266.414-3.649 0-6.639-1.15-8.97-3.45-2.331-2.3-3.496-5.213-3.496-8.74" style="-inkscape-font-specification:MuseoSans-500"/><path d="M541.387 120.673c0-5.336 4.677-8.004 14.03-8.004h1.012v-.414c0-3.404-1.702-5.106-5.106-5.106-1.073 0-2.147.184-3.22.552-1.073.368-1.886.736-2.438 1.104l-.828.598-1.84-3.266c.245-.215.598-.475 1.058-.782.491-.307 1.487-.705 2.99-1.196 1.503-.521 3.051-.782 4.646-.782 2.944 0 5.213.782 6.808 2.346 1.595 1.564 2.392 3.818 2.392 6.762v14.72h-4.14v-2.208l.092-1.84h-.092l-.276.506c-.092.215-.353.583-.782 1.104-.399.521-.859.981-1.38 1.38-.491.399-1.196.767-2.116 1.104-.889.337-1.855.506-2.898.506-2.147 0-4.002-.629-5.566-1.886s-2.346-2.99-2.346-5.198m4.508-.23c0 1.012.383 1.886 1.15 2.622.767.736 1.84 1.104 3.22 1.104 1.779 0 3.251-.767 4.416-2.3 1.196-1.564 1.794-3.266 1.794-5.106v-.736h-1.15c-6.287 0-9.43 1.472-9.43 4.416" style="-inkscape-font-specification:MuseoSans-500"/><path d="M568.593 127.205v-19.366h-2.898v-3.588h2.898v-1.104c0-1.472.215-2.745.644-3.818.429-1.104.951-1.947 1.564-2.53.613-.613 1.349-1.089 2.208-1.426.859-.368 1.61-.598 2.254-.69.675-.123 1.365-.184 2.07-.184l1.702.138v3.818c-.307-.061-.69-.092-1.15-.092-.521 0-1.027.061-1.518.184-.46.092-.966.291-1.518.598s-.997.813-1.334 1.518c-.337.705-.506 1.564-.506 2.576v1.012h5.52v3.588h-5.52v19.366h-4.416" style="-inkscape-font-specification:MuseoSans-500"/><path d="M581.194 115.567c0-3.649 1.089-6.593 3.266-8.832 2.208-2.239 4.999-3.358 8.372-3.358 3.159 0 5.627 1.027 7.406 3.082 1.779 2.055 2.668 4.661 2.668 7.82l-.138 1.932h-16.974c.123 2.453.935 4.355 2.438 5.704 1.533 1.319 3.389 1.978 5.566 1.978 1.196 0 2.361-.23 3.496-.69 1.165-.46 2.024-.905 2.576-1.334l.828-.69 1.84 3.266c-.245.245-.613.552-1.104.92-.491.368-1.518.859-3.082 1.472-1.564.613-3.174.92-4.83.92-3.619 0-6.578-1.15-8.878-3.45-2.3-2.331-3.45-5.244-3.45-8.74m4.738-2.714h12.42c-.061-1.932-.629-3.404-1.702-4.416-1.043-1.012-2.346-1.518-3.91-1.518-1.748 0-3.251.521-4.508 1.564-1.227 1.043-1.993 2.499-2.3 4.37m4.922-12.282l3.358-5.842h4.784l-4.416 5.842h-3.726" style="-inkscape-font-specification:MuseoSans-500"/><path d="M608.964 116.073v-3.956h13.432v3.956h-13.432" style="-inkscape-font-specification:MuseoSans-500"/><path d="M628.406 115.567c0-3.465 1.165-6.363 3.496-8.694 2.361-2.331 5.351-3.496 8.97-3.496 1.717 0 3.297.291 4.738.874 1.472.552 2.515 1.119 3.128 1.702l.874.828-2.116 3.128c-.184-.184-.46-.429-.828-.736-.337-.307-1.073-.705-2.208-1.196-1.104-.491-2.239-.736-3.404-.736-2.331 0-4.263.782-5.796 2.346-1.533 1.564-2.3 3.542-2.3 5.934 0 2.392.767 4.385 2.3 5.98 1.564 1.595 3.542 2.392 5.934 2.392 1.288 0 2.53-.261 3.726-.782 1.196-.521 2.07-1.043 2.622-1.564l.828-.782 1.794 3.266-.414.414c-.153.153-.521.445-1.104.874-.583.429-1.211.813-1.886 1.15-.675.307-1.549.598-2.622.874-1.043.276-2.131.414-3.266.414-3.649 0-6.639-1.15-8.97-3.45-2.331-2.3-3.496-5.213-3.496-8.74" style="-inkscape-font-specification:MuseoSans-500"/><path d="M657.15 124.261c-2.423-2.331-3.634-5.244-3.634-8.74 0-3.496 1.211-6.394 3.634-8.694 2.423-2.3 5.397-3.45 8.924-3.45 3.527 0 6.501 1.15 8.924 3.45 2.423 2.3 3.634 5.198 3.634 8.694 0 3.496-1.227 6.409-3.68 8.74-2.423 2.331-5.382 3.496-8.878 3.496-3.496 0-6.471-1.165-8.924-3.496m3.266-14.674c-1.564 1.564-2.346 3.542-2.346 5.934 0 2.392.782 4.385 2.346 5.98 1.564 1.595 3.45 2.392 5.658 2.392 2.239 0 4.125-.782 5.658-2.346 1.564-1.595 2.346-3.603 2.346-6.026 0-2.392-.782-4.37-2.346-5.934-1.533-1.564-3.419-2.346-5.658-2.346-2.208 0-4.094.782-5.658 2.346" style="-inkscape-font-specification:MuseoSans-500"/><path d="M683.556 118.833v-14.904h4.462v13.892c0 1.871.291 3.312.874 4.324.613.981 1.779 1.472 3.496 1.472 2.269 0 4.094-.859 5.474-2.576s2.07-3.787 2.07-6.21v-10.902h4.462v23.276h-4.324v-3.082l.092-1.702h-.092c-.583 1.349-1.641 2.576-3.174 3.68-1.503 1.104-3.297 1.656-5.382 1.656-5.305 0-7.958-2.975-7.958-8.924" style="-inkscape-font-specification:MuseoSans-500"/><path d="M711.371 127.205v-23.276h4.324v4.048l-.092 1.748h.092c.552-1.779 1.472-3.235 2.76-4.37 1.319-1.135 2.852-1.702 4.6-1.702l1.15.092v4.416c-.399-.092-.828-.138-1.288-.138-1.441 0-2.76.491-3.956 1.472-1.196.981-2.055 2.315-2.576 4.002-.368 1.196-.552 2.591-.552 4.186v9.522h-4.462" style="-inkscape-font-specification:MuseoSans-500"/><path d="M726.735 124.353l2.162-3.174c.184.215.46.475.828.782.368.276 1.135.675 2.3 1.196 1.165.491 2.346.736 3.542.736 1.043 0 1.947-.261 2.714-.782.767-.521 1.15-1.227 1.15-2.116 0-.767-.414-1.441-1.242-2.024-.828-.583-1.825-1.089-2.99-1.518-1.165-.46-2.331-.951-3.496-1.472-1.165-.552-2.162-1.334-2.99-2.346-.828-1.012-1.242-2.223-1.242-3.634 0-2.055.797-3.665 2.392-4.83 1.595-1.196 3.603-1.794 6.026-1.794 1.503 0 2.883.215 4.14.644 1.257.429 2.131.859 2.622 1.288l.736.644-1.794 3.358c-.153-.153-.383-.337-.69-.552-.276-.245-.92-.552-1.932-.92-.981-.399-2.024-.598-3.128-.598-1.073 0-1.978.245-2.714.736-.736.46-1.104 1.165-1.104 2.116 0 .767.414 1.426 1.242 1.978.828.552 1.825 1.058 2.99 1.518 1.165.429 2.331.92 3.496 1.472 1.165.521 2.162 1.288 2.99 2.3.828 1.012 1.242 2.223 1.242 3.634 0 1.963-.782 3.588-2.346 4.876-1.533 1.257-3.557 1.886-6.072 1.886-1.687 0-3.266-.276-4.738-.828-1.472-.583-2.515-1.165-3.128-1.748l-.966-.828" style="-inkscape-font-specification:MuseoSans-500"/><path d="M747.585 115.567c0-3.649 1.089-6.593 3.266-8.832 2.208-2.239 4.999-3.358 8.372-3.358 3.159 0 5.627 1.027 7.406 3.082 1.779 2.055 2.668 4.661 2.668 7.82l-.138 1.932h-16.974c.123 2.453.935 4.355 2.438 5.704 1.533 1.319 3.389 1.978 5.566 1.978 1.196 0 2.361-.23 3.496-.69 1.165-.46 2.024-.905 2.576-1.334l.828-.69 1.84 3.266c-.245.245-.613.552-1.104.92-.491.368-1.518.859-3.082 1.472-1.564.613-3.174.92-4.83.92-3.619 0-6.578-1.15-8.878-3.45-2.3-2.331-3.45-5.244-3.45-8.74m4.738-2.714h12.42c-.061-1.932-.629-3.404-1.702-4.416-1.043-1.012-2.346-1.518-3.91-1.518-1.748 0-3.251.521-4.508 1.564-1.227 1.043-1.993 2.499-2.3 4.37" style="-inkscape-font-specification:MuseoSans-500"/><path d="M772.824 124.353l2.162-3.174c.184.215.46.475.828.782.368.276 1.135.675 2.3 1.196 1.165.491 2.346.736 3.542.736 1.043 0 1.947-.261 2.714-.782.767-.521 1.15-1.227 1.15-2.116 0-.767-.414-1.441-1.242-2.024-.828-.583-1.825-1.089-2.99-1.518-1.165-.46-2.331-.951-3.496-1.472-1.165-.552-2.162-1.334-2.99-2.346-.828-1.012-1.242-2.223-1.242-3.634 0-2.055.797-3.665 2.392-4.83 1.595-1.196 3.603-1.794 6.026-1.794 1.503 0 2.883.215 4.14.644 1.257.429 2.131.859 2.622 1.288l.736.644-1.794 3.358c-.153-.153-.383-.337-.69-.552-.276-.245-.92-.552-1.932-.92-.981-.399-2.024-.598-3.128-.598-1.073 0-1.978.245-2.714.736-.736.46-1.104 1.165-1.104 2.116 0 .767.414 1.426 1.242 1.978.828.552 1.825 1.058 2.99 1.518 1.165.429 2.331.92 3.496 1.472 1.165.521 2.162 1.288 2.99 2.3.828 1.012 1.242 2.223 1.242 3.634 0 1.963-.782 3.588-2.346 4.876-1.533 1.257-3.557 1.886-6.072 1.886-1.687 0-3.266-.276-4.738-.828-1.472-.583-2.515-1.165-3.128-1.748l-.966-.828" style="-inkscape-font-specification:MuseoSans-500"/></g></g></svg>