<?xml version="1.0" encoding="UTF-8" standalone="no"?>
<!-- Created with Inkscape (http://www.inkscape.org/) -->

<svg
   xmlns:dc="http://purl.org/dc/elements/1.1/"
   xmlns:cc="http://creativecommons.org/ns#"
   xmlns:rdf="http://www.w3.org/1999/02/22-rdf-syntax-ns#"
   xmlns:svg="http://www.w3.org/2000/svg"
   xmlns="http://www.w3.org/2000/svg"
   xmlns:sodipodi="http://sodipodi.sourceforge.net/DTD/sodipodi-0.dtd"
   xmlns:inkscape="http://www.inkscape.org/namespaces/inkscape"
   width="267.53036"
   height="46.000095"
   id="svg6542"
   version="1.1"
   inkscape:version="0.48.4 r9943 custom"
   sodipodi:docname="logotype.svg">
  <defs
     id="defs6544" />
  <sodipodi:namedview
     id="base"
     pagecolor="#ffffff"
     bordercolor="#666666"
     borderopacity="1.0"
     inkscape:pageopacity="0.0"
     inkscape:pageshadow="2"
     inkscape:zoom="2.4455654"
     inkscape:cx="133.50696"
     inkscape:cy="22.703003"
     inkscape:document-units="px"
     inkscape:current-layer="layer1"
     showgrid="false"
     fit-margin-top="0"
     fit-margin-left="0"
     fit-margin-right="0"
     fit-margin-bottom="0"
     inkscape:window-width="883"
     inkscape:window-height="640"
     inkscape:window-x="82"
     inkscape:window-y="144"
     inkscape:window-maximized="0" />
  <metadata
     id="metadata6547">
    <rdf:RDF>
      <cc:Work
         rdf:about="">
        <dc:format>image/svg+xml</dc:format>
        <dc:type
           rdf:resource="http://purl.org/dc/dcmitype/StillImage" />
        <dc:title />
      </cc:Work>
    </rdf:RDF>
  </metadata>
  <g
     inkscape:label="Layer 1"
     inkscape:groupmode="layer"
     id="layer1"
     transform="translate(-63.635895,-523.35077)">
    <path
       sodipodi:nodetypes="ccccccccsccccccccscccsccsccsccsccscscccscccscccscccsccscccscccc"
       inkscape:connector-curvature="0"
       id="rect2998"
       d="m 63.635895,523.35082 0,46.00004 46.000005,0 0,-46.00004 z m 4.030282,3.5987 37.888093,0 -6.362082,6.37262 c -3.22555,-3.0825 -7.625301,-4.99278 -12.502963,-4.99278 -4.885266,0 -9.306658,1.93077 -12.555632,5.0665 z m 38.372623,0.35816 0,37.94077 -18.970381,-18.93883 z m -38.804486,0.0634 6.467418,6.45684 c -3.148051,3.25102 -5.08756,7.68072 -5.08756,12.57671 0,4.8649 1.911689,9.26829 5.024358,12.51349 l -6.404216,6.42533 z m 19.454911,4.25545 c 3.917515,0 7.500433,1.56532 10.164581,4.04471 l -3.497035,3.50762 c -1.753108,-1.61668 -4.118072,-2.62276 -6.667546,-2.62276 -2.600471,0 -4.968696,1.01378 -6.730745,2.66487 l -3.486503,-3.48652 c 2.652026,-2.53969 6.245654,-4.10792 10.217248,-4.10792 z m -10.649115,4.5398 3.486506,3.47601 c -1.666348,1.76482 -2.685983,4.14836 -2.685983,6.76229 0,2.57836 0.996486,4.92083 2.622784,6.67807 l -3.486509,3.49701 c -2.515315,-2.64782 -4.065832,-6.22498 -4.065832,-10.17508 0,-3.98234 1.577168,-7.58425 4.129034,-10.2383 z m 10.596448,3.68665 c 1.688647,0 3.200006,0.61101 4.38183,1.66429 l -4.3713,4.37127 -4.371297,-4.36077 c 1.160205,-1.03977 2.688134,-1.67479 4.360767,-1.67479 z m -4.792627,2.10667 4.371297,4.36077 -4.434498,4.44498 c -1.043782,-1.16111 -1.695853,-2.68442 -1.695853,-4.36077 0,-1.71399 0.673172,-3.27505 1.759054,-4.44498 z m 4.803157,4.78203 4.4661,4.46609 c -1.155555,1.06191 -2.747872,1.7485 -4.47663,1.7485 -1.7112,0 -3.26514,-0.6763 -4.434498,-1.75901 z m -6.762339,6.77289 c 1.769697,1.69382 4.166285,2.73869 6.804476,2.73869 2.646523,0 5.003165,-1.04704 6.762348,-2.71758 l 3.507564,3.50751 c -2.672355,2.58191 -6.251024,4.13963 -10.269912,4.13963 -4.006571,0 -7.63249,-1.59182 -10.290986,-4.17123 z M 74.059861,559.35 c 3.255255,3.17576 7.709029,5.1297 12.629364,5.1297 4.884531,0 9.324942,-1.96289 12.608298,-5.10869 l 6.393677,6.38321 -38.025023,0 z"
       style="font-size:medium;font-style:normal;font-variant:normal;font-weight:normal;font-stretch:normal;text-indent:0;text-align:start;text-decoration:none;line-height:normal;letter-spacing:normal;word-spacing:normal;text-transform:none;direction:ltr;block-progression:tb;writing-mode:lr-tb;text-anchor:start;baseline-shift:baseline;color:#000000;fill:#ffffff;fill-opacity:1;fill-rule:evenodd;stroke:none;stroke-width:11.76469993999999986;marker:none;visibility:visible;display:inline;overflow:visible;enable-background:accumulate;font-family:Sans;-inkscape-font-specification:Sans" />
    <g
       id="g5911"
       style="fill:#ffffff;fill-opacity:1;display:inline"
       transform="matrix(1.0130819,0,0,1.0130819,49.142447,1485.7227)">
      <g
         style="font-size:77.97553252999999529px;font-style:normal;font-variant:normal;font-weight:normal;font-stretch:normal;text-align:start;line-height:109.00000334000000635%;letter-spacing:0px;word-spacing:0px;writing-mode:lr-tb;text-anchor:start;fill:#ffffff;stroke:none;display:inline;font-family:Sans;-inkscape-font-specification:Sans"
         id="text5033-6-5">
        <path
           d="m 67.608994,-934.99585 c -10e-7,-2.48599 0.835998,-4.56499 2.508,-6.237 1.693994,-1.67198 3.838992,-2.50798 6.435,-2.508 1.231988,2e-5 2.364987,0.20902 3.399,0.627 1.055985,0.39602 1.803984,0.80302 2.244,1.221 l 0.627,0.594 -1.518,2.244 c -0.132015,-0.13199 -0.330015,-0.30799 -0.594,-0.528 -0.242014,-0.21999 -0.770014,-0.50599 -1.584,-0.858 -0.792012,-0.35199 -1.606011,-0.52799 -2.442,-0.528 -1.672009,10e-6 -3.058008,0.56101 -4.158,1.683 -1.100005,1.12201 -1.650005,2.54101 -1.65,4.257 -5e-6,1.71601 0.549995,3.146 1.65,4.29 1.121992,1.144 2.540991,1.716 4.257,1.716 0.923988,0 1.814988,-0.187 2.673,-0.561 0.857986,-0.374 1.484985,-0.748 1.881,-1.122 l 0.594,-0.561 1.287,2.343 c -0.06602,0.066 -0.165017,0.165 -0.297,0.297 -0.110017,0.11 -0.374016,0.319 -0.792,0.627 -0.418016,0.308 -0.869015,0.583 -1.353,0.825 -0.484014,0.22 -1.111014,0.429 -1.881,0.627 -0.748012,0.198 -1.529011,0.297 -2.343,0.297 -2.618008,0 -4.763006,-0.825 -6.435,-2.475 -1.672002,-1.65 -2.508001,-3.73999 -2.508,-6.27"
           style="font-size:33px;line-height:109.00000334000000635%;fill:#ffffff;font-family:Museo 500;-inkscape-font-specification:Museo 500"
           id="path6587"
           inkscape:connector-curvature="0" />
        <path
           d="m 86.843869,-926.64685 0,-16.698 3.102,0 0,2.904 -0.066,1.254 0.066,0 c 0.395994,-1.27599 1.055993,-2.32099 1.98,-3.135 0.945991,-0.81398 2.04599,-1.22098 3.3,-1.221 l 0.825,0.066 0,3.168 c -0.286012,-0.066 -0.594011,-0.099 -0.924,-0.099 -1.03401,1e-5 -1.980009,0.35201 -2.838,1.056 -0.858007,0.70401 -1.474007,1.66101 -1.848,2.871 -0.264006,0.85801 -0.396006,1.85901 -0.396,3.003 l 0,6.831 -3.201,0"
           style="font-size:33px;line-height:109.00000334000000635%;fill:#ffffff;font-family:Museo 500;-inkscape-font-specification:Museo 500"
           id="path6589"
           inkscape:connector-curvature="0" />
        <path
           d="m 97.934963,-934.99585 c -2e-6,-2.61799 0.780997,-4.72999 2.342997,-6.336 1.584,-1.60598 3.586,-2.40898 6.006,-2.409 2.26599,2e-5 4.03699,0.73702 5.313,2.211 1.27599,1.47401 1.91399,3.34401 1.914,5.61 l -0.099,1.386 -12.177,0 c 0.088,1.76001 0.671,3.124 1.749,4.092 1.1,0.946 2.43099,1.419 3.993,1.419 0.85799,0 1.69399,-0.165 2.508,-0.495 0.83599,-0.33 1.45199,-0.649 1.848,-0.957 l 0.594,-0.495 1.32,2.343 c -0.17601,0.176 -0.44001,0.396 -0.792,0.66 -0.35201,0.264 -1.08901,0.616 -2.211,1.056 -1.12201,0.44 -2.27701,0.66 -3.465,0.66 -2.59601,0 -4.719,-0.825 -6.369,-2.475 -1.65,-1.672 -2.474999,-3.76199 -2.474997,-6.27 m 3.398997,-1.947 8.91,0 c -0.044,-1.38599 -0.45101,-2.44199 -1.221,-3.168 -0.74801,-0.72599 -1.68301,-1.08899 -2.805,-1.089 -1.25401,10e-6 -2.332,0.37401 -3.234,1.122 -0.88,0.74801 -1.43,1.79301 -1.65,3.135"
           style="font-size:33px;line-height:109.00000334000000635%;fill:#ffffff;font-family:Museo 500;-inkscape-font-specification:Museo 500"
           id="path6591"
           inkscape:connector-curvature="0" />
        <path
           d="m 116.23965,-934.99585 c 0,-2.61799 0.781,-4.72999 2.343,-6.336 1.58399,-1.60598 3.58599,-2.40898 6.006,-2.409 2.26599,2e-5 4.03699,0.73702 5.313,2.211 1.27598,1.47401 1.91398,3.34401 1.914,5.61 l -0.099,1.386 -12.177,0 c 0.088,1.76001 0.67099,3.124 1.749,4.092 1.09999,0.946 2.43099,1.419 3.993,1.419 0.85799,0 1.69399,-0.165 2.508,-0.495 0.83599,-0.33 1.45199,-0.649 1.848,-0.957 l 0.594,-0.495 1.32,2.343 c -0.17602,0.176 -0.44002,0.396 -0.792,0.66 -0.35202,0.264 -1.08901,0.616 -2.211,1.056 -1.12201,0.44 -2.27701,0.66 -3.465,0.66 -2.59601,0 -4.71901,-0.825 -6.369,-2.475 -1.65,-1.672 -2.475,-3.76199 -2.475,-6.27 m 3.399,-1.947 8.91,0 c -0.044,-1.38599 -0.45101,-2.44199 -1.221,-3.168 -0.74801,-0.72599 -1.68301,-1.08899 -2.805,-1.089 -1.25401,10e-6 -2.33201,0.37401 -3.234,1.122 -0.88001,0.74801 -1.43,1.79301 -1.65,3.135"
           style="font-size:33px;line-height:109.00000334000000635%;fill:#ffffff;font-family:Museo 500;-inkscape-font-specification:Museo 500"
           id="path6593"
           inkscape:connector-curvature="0" />
        <path
           d="m 135.69934,-926.64685 0,-23.298 3.201,0 0,12.738 2.343,0 4.554,-6.138 3.63,0 -5.544,7.359 0,0.066 6.171,9.273 -3.729,0 -5.016,-7.854 -2.409,0 0,7.854 -3.201,0"
           style="font-size:33px;line-height:109.00000334000000635%;fill:#ffffff;font-family:Museo 500;-inkscape-font-specification:Museo 500"
           id="path6595"
           inkscape:connector-curvature="0" />
        <path
           d="m 160.35704,-934.99585 c 0,-2.48599 0.836,-4.56499 2.508,-6.237 1.694,-1.67198 3.83899,-2.50798 6.435,-2.508 1.23199,2e-5 2.36499,0.20902 3.399,0.627 1.05599,0.39602 1.80399,0.80302 2.244,1.221 l 0.627,0.594 -1.518,2.244 c -0.13201,-0.13199 -0.33001,-0.30799 -0.594,-0.528 -0.24201,-0.21999 -0.77001,-0.50599 -1.584,-0.858 -0.79201,-0.35199 -1.60601,-0.52799 -2.442,-0.528 -1.67201,10e-6 -3.05801,0.56101 -4.158,1.683 -1.1,1.12201 -1.65,2.54101 -1.65,4.257 0,1.71601 0.55,3.146 1.65,4.29 1.12199,1.144 2.54099,1.716 4.257,1.716 0.92399,0 1.81499,-0.187 2.673,-0.561 0.85799,-0.374 1.48499,-0.748 1.881,-1.122 l 0.594,-0.561 1.287,2.343 c -0.066,0.066 -0.16502,0.165 -0.297,0.297 -0.11002,0.11 -0.37402,0.319 -0.792,0.627 -0.41801,0.308 -0.86901,0.583 -1.353,0.825 -0.48401,0.22 -1.11101,0.429 -1.881,0.627 -0.74801,0.198 -1.52901,0.297 -2.343,0.297 -2.61801,0 -4.763,-0.825 -6.435,-2.475 -1.672,-1.65 -2.508,-3.73999 -2.508,-6.27"
           style="font-size:33px;line-height:109.00000334000000635%;fill:#ffffff;font-family:Museo 500;-inkscape-font-specification:Museo 500"
           id="path6597"
           inkscape:connector-curvature="0" />
        <path
           d="m 179.59192,-926.64685 0,-16.698 3.102,0 0,2.904 -0.066,1.254 0.066,0 c 0.39599,-1.27599 1.05599,-2.32099 1.98,-3.135 0.94599,-0.81398 2.04599,-1.22098 3.3,-1.221 l 0.825,0.066 0,3.168 c -0.28602,-0.066 -0.59402,-0.099 -0.924,-0.099 -1.03401,1e-5 -1.98001,0.35201 -2.838,1.056 -0.85801,0.70401 -1.47401,1.66101 -1.848,2.871 -0.26401,0.85801 -0.39601,1.85901 -0.396,3.003 l 0,6.831 -3.201,0"
           style="font-size:33px;line-height:109.00000334000000635%;fill:#ffffff;font-family:Museo 500;-inkscape-font-specification:Museo 500"
           id="path6599"
           inkscape:connector-curvature="0" />
        <path
           d="m 190.68301,-934.99585 c 0,-2.61799 0.781,-4.72999 2.343,-6.336 1.58399,-1.60598 3.58599,-2.40898 6.006,-2.409 2.26599,2e-5 4.03699,0.73702 5.313,2.211 1.27598,1.47401 1.91398,3.34401 1.914,5.61 l -0.099,1.386 -12.177,0 c 0.088,1.76001 0.67099,3.124 1.749,4.092 1.09999,0.946 2.43099,1.419 3.993,1.419 0.85799,0 1.69399,-0.165 2.508,-0.495 0.83599,-0.33 1.45199,-0.649 1.848,-0.957 l 0.594,-0.495 1.32,2.343 c -0.17602,0.176 -0.44002,0.396 -0.792,0.66 -0.35202,0.264 -1.08902,0.616 -2.211,1.056 -1.12201,0.44 -2.27701,0.66 -3.465,0.66 -2.59601,0 -4.71901,-0.825 -6.369,-2.475 -1.65,-1.672 -2.475,-3.76199 -2.475,-6.27 m 3.399,-1.947 8.91,0 c -0.044,-1.38599 -0.45101,-2.44199 -1.221,-3.168 -0.74801,-0.72599 -1.68301,-1.08899 -2.805,-1.089 -1.25401,10e-6 -2.33201,0.37401 -3.234,1.122 -0.88001,0.74801 -1.43001,1.79301 -1.65,3.135"
           style="font-size:33px;line-height:109.00000334000000635%;fill:#ffffff;font-family:Museo 500;-inkscape-font-specification:Museo 500"
           id="path6601"
           inkscape:connector-curvature="0" />
        <path
           d="m 208.7897,-931.33285 c 0,-3.82799 3.35499,-5.74199 10.065,-5.742 l 0.726,0 0,-0.297 c -1e-5,-2.44199 -1.22101,-3.66299 -3.663,-3.663 -0.77001,10e-6 -1.54001,0.13201 -2.31,0.396 -0.77001,0.26401 -1.35301,0.52801 -1.749,0.792 l -0.594,0.429 -1.32,-2.343 c 0.17599,-0.15399 0.42899,-0.34099 0.759,-0.561 0.35199,-0.21998 1.06699,-0.50598 2.145,-0.858 1.07799,-0.37398 2.18899,-0.56098 3.333,-0.561 2.11199,2e-5 3.73998,0.56102 4.884,1.683 1.14398,1.12201 1.71598,2.73901 1.716,4.851 l 0,10.56 -2.97,0 0,-1.584 0.066,-1.32 -0.066,0 c -0.044,0.088 -0.11002,0.209 -0.198,0.363 -0.066,0.154 -0.25301,0.418 -0.561,0.792 -0.28601,0.374 -0.61601,0.704 -0.99,0.99 -0.35201,0.286 -0.85801,0.55 -1.518,0.792 -0.63801,0.242 -1.33101,0.363 -2.079,0.363 -1.54001,0 -2.87101,-0.451 -3.993,-1.353 -1.122,-0.902 -1.683,-2.145 -1.683,-3.729 m 3.234,-0.165 c -1e-5,0.726 0.27499,1.353 0.825,1.881 0.54999,0.528 1.31999,0.792 2.31,0.792 1.27599,0 2.33199,-0.55 3.168,-1.65 0.85799,-1.122 1.28698,-2.34299 1.287,-3.663 l 0,-0.528 -0.825,0 c -4.51001,10e-6 -6.76501,1.05601 -6.765,3.168"
           style="font-size:33px;line-height:109.00000334000000635%;fill:#ffffff;font-family:Museo 500;-inkscape-font-specification:Museo 500"
           id="path6603"
           inkscape:connector-curvature="0" />
        <path
           d="m 228.10913,-932.75185 0,-7.788 -2.178,0 0,-2.574 2.277,0 0,-4.818 3.102,0 0,4.818 4.026,0 0,2.574 -4.026,0 0,7.425 c 0,0.63801 0.088,1.199 0.264,1.683 0.176,0.462 0.385,0.825 0.627,1.089 0.264,0.264 0.561,0.473 0.891,0.627 0.352,0.154 0.66,0.253 0.924,0.297 0.286,0.044 0.57199,0.066 0.858,0.066 l 0.759,-0.066 0,2.838 c -0.30801,0.044 -0.68201,0.066 -1.122,0.066 -0.528,0 -1.034,-0.033 -1.518,-0.099 -0.484,-0.066 -1.034,-0.231 -1.65,-0.495 -0.616,-0.264 -1.155,-0.605 -1.617,-1.023 -0.44,-0.44 -0.825,-1.056 -1.155,-1.848 -0.308,-0.792 -0.462,-1.716 -0.462,-2.772"
           style="font-size:33px;line-height:109.00000334000000635%;fill:#ffffff;font-family:Museo 500;-inkscape-font-specification:Museo 500"
           id="path6605"
           inkscape:connector-curvature="0" />
        <path
           d="m 239.17806,-946.67785 0,-3.267 3.234,0 0,3.267 -3.234,0 m 0.033,20.031 0,-16.698 3.201,0 0,16.698 -3.201,0"
           style="font-size:33px;line-height:109.00000334000000635%;fill:#ffffff;font-family:Museo 500;-inkscape-font-specification:Museo 500"
           id="path6607"
           inkscape:connector-curvature="0" />
        <path
           d="m 251.3566,-926.64685 -6.237,-16.698 3.399,0 4.059,11.286 c 0.088,0.264 0.176,0.594 0.264,0.99 0.088,0.374 0.165,0.682 0.231,0.924 l 0.066,0.363 0.066,0 0.066,-0.363 c 0.066,-0.242 0.14299,-0.55 0.231,-0.924 0.10999,-0.396 0.20899,-0.726 0.297,-0.99 l 4.059,-11.286 3.366,0 -6.171,16.698 -3.696,0"
           style="font-size:33px;line-height:109.00000334000000635%;fill:#ffffff;font-family:Museo 500;-inkscape-font-specification:Museo 500"
           id="path6609"
           inkscape:connector-curvature="0" />
        <path
           d="m 262.80606,-934.99585 c -10e-6,-2.61799 0.78099,-4.72999 2.343,-6.336 1.58399,-1.60598 3.58599,-2.40898 6.006,-2.409 2.26598,2e-5 4.03698,0.73702 5.313,2.211 1.27598,1.47401 1.91398,3.34401 1.914,5.61 l -0.099,1.386 -12.177,0 c 0.088,1.76001 0.67099,3.124 1.749,4.092 1.09999,0.946 2.43099,1.419 3.993,1.419 0.85799,0 1.69398,-0.165 2.508,-0.495 0.83598,-0.33 1.45198,-0.649 1.848,-0.957 l 0.594,-0.495 1.32,2.343 c -0.17602,0.176 -0.44002,0.396 -0.792,0.66 -0.35202,0.264 -1.08902,0.616 -2.211,1.056 -1.12202,0.44 -2.27702,0.66 -3.465,0.66 -2.59601,0 -4.71901,-0.825 -6.369,-2.475 -1.65001,-1.672 -2.47501,-3.76199 -2.475,-6.27 m 3.399,-1.947 8.91,0 c -0.044,-1.38599 -0.45102,-2.44199 -1.221,-3.168 -0.74802,-0.72599 -1.68301,-1.08899 -2.805,-1.089 -1.25401,10e-6 -2.33201,0.37401 -3.234,1.122 -0.88001,0.74801 -1.43001,1.79301 -1.65,3.135"
           style="font-size:33px;line-height:109.00000334000000635%;fill:#ffffff;font-family:Museo 500;-inkscape-font-specification:Museo 500"
           id="path6611"
           inkscape:connector-curvature="0" />
      </g>
      <g
         style="font-size:36.55012894000000045px;font-style:normal;font-variant:normal;font-weight:normal;font-stretch:normal;text-align:start;line-height:109.00000334000000635%;letter-spacing:0px;word-spacing:0px;writing-mode:lr-tb;text-anchor:start;fill:#ffffff;stroke:none;display:inline;font-family:Sans;-inkscape-font-specification:Sans"
         id="text4577">
        <path
           d="m 69.840602,-910.18029 c 0,-1.85911 1.629392,-2.78866 4.888184,-2.78867 l 0.35259,0 0,-0.14424 c -6e-6,-1.18598 -0.592998,-1.77897 -1.778978,-1.77898 -0.373963,1e-5 -0.747922,0.0641 -1.121879,0.19232 -0.373961,0.12823 -0.657102,0.25644 -0.849422,0.38465 l -0.288483,0.20835 -0.641073,-1.13791 c 0.08548,-0.0748 0.208348,-0.1656 0.368617,-0.27245 0.170952,-0.10684 0.518199,-0.24574 1.041744,-0.4167 0.52354,-0.18163 1.06311,-0.27245 1.61871,-0.27246 1.025712,10e-6 1.816368,0.27247 2.371971,0.81737 0.55559,0.54492 0.833388,1.33023 0.833395,2.35594 l 0,5.12859 -1.442414,0 0,-0.76929 0.03205,-0.64107 -0.03205,0 c -0.02137,0.0427 -0.05343,0.1015 -0.09616,0.17629 -0.03206,0.0748 -0.122878,0.20301 -0.272457,0.38465 -0.138904,0.18164 -0.299172,0.3419 -0.480804,0.4808 -0.170958,0.1389 -0.416703,0.26712 -0.737235,0.38465 -0.309856,0.11753 -0.646419,0.17629 -1.00969,0.17629 -0.747921,0 -1.394336,-0.21903 -1.939246,-0.6571 -0.544914,-0.43806 -0.817369,-1.04174 -0.817369,-1.81103 m 1.57063,-0.0801 c -3e-6,0.35259 0.133554,0.6571 0.40067,0.91353 0.267111,0.25643 0.64107,0.38464 1.121878,0.38464 0.6197,0 1.132558,-0.26711 1.538576,-0.80134 0.416692,-0.54491 0.625041,-1.1379 0.625047,-1.77898 l 0,-0.25643 -0.400671,0 c -2.190337,0 -3.285503,0.51286 -3.2855,1.53858"
           style="font-size:16.02683066999999895px;line-height:109.00000334000000635%;fill:#ffffff;font-family:Museo 500;-inkscape-font-specification:Museo 500"
           id="path6614"
           inkscape:connector-curvature="0" />
        <path
           d="m 78.949351,-907.90448 0,-8.10958 1.506522,0 0,1.41036 -0.03205,0.60902 0.03205,0 c 0.192319,-0.61969 0.512855,-1.12721 0.96161,-1.52254 0.459432,-0.39533 0.993659,-0.59299 1.602683,-0.593 l 0.400671,0.0321 0,1.53857 c -0.138905,-0.032 -0.288489,-0.0481 -0.448752,-0.0481 -0.502178,1e-5 -0.961614,0.17096 -1.378307,0.51286 -0.416701,0.34191 -0.715868,0.80669 -0.897503,1.39433 -0.128217,0.41671 -0.192324,0.90285 -0.192321,1.45845 l 0,3.31755 -1.554603,0"
           style="font-size:16.02683066999999895px;line-height:109.00000334000000635%;fill:#ffffff;font-family:Museo 500;-inkscape-font-specification:Museo 500"
           id="path6616"
           inkscape:connector-curvature="0" />
        <path
           d="m 85.295976,-910.86944 0,-3.78234 -1.057771,0 0,-1.25009 1.105851,0 0,-2.33992 1.506522,0 0,2.33992 1.955274,0 0,1.25009 -1.955274,0 0,3.60604 c -3e-6,0.30986 0.04274,0.58231 0.128215,0.81737 0.08547,0.22438 0.186976,0.40067 0.30451,0.52888 0.128211,0.12822 0.272452,0.22972 0.432724,0.30451 0.170949,0.0748 0.320532,0.12288 0.448751,0.14425 0.138895,0.0214 0.277794,0.0321 0.416698,0.0321 l 0.368617,-0.0321 0,1.3783 c -0.149589,0.0214 -0.331226,0.0321 -0.544912,0.0321 -0.256434,0 -0.502178,-0.016 -0.737234,-0.0481 -0.235064,-0.0321 -0.502178,-0.11219 -0.801342,-0.24041 -0.29917,-0.12821 -0.560942,-0.29382 -0.785315,-0.49683 -0.213693,-0.21369 -0.400672,-0.51285 -0.560939,-0.8975 -0.149585,-0.38464 -0.224377,-0.83339 -0.224375,-1.34625"
           style="font-size:16.02683066999999895px;line-height:109.00000334000000635%;fill:#ffffff;font-family:Museo 500;-inkscape-font-specification:Museo 500"
           id="path6618"
           inkscape:connector-curvature="0" />
        <path
           d="m 94.46708,-911.07779 c -10e-7,-0.64107 0.176294,-1.23406 0.528885,-1.77898 0.363274,-0.54491 0.84942,-0.91887 1.458442,-1.12188 l 0,-0.0321 c -0.04274,-0.0107 -0.09616,-0.032 -0.160268,-0.0641 -0.06411,-0.0321 -0.18164,-0.11218 -0.352591,-0.2404 -0.170955,-0.12821 -0.32588,-0.27779 -0.464778,-0.44875 -0.128216,-0.17095 -0.245746,-0.41135 -0.35259,-0.72121 -0.106847,-0.30985 -0.16027,-0.64641 -0.160268,-1.00969 -2e-6,-0.91886 0.320535,-1.63473 0.96161,-2.1476 0.651754,-0.51284 1.490491,-0.76927 2.516212,-0.76928 0.181632,10e-6 0.384639,0.016 0.60902,0.0481 0.235054,0.0321 0.422034,0.0588 0.560939,0.0801 l 0.208348,0.0481 -0.40067,1.26612 c -0.309858,-0.0641 -0.592998,-0.0961 -0.849422,-0.0962 -0.576971,10e-6 -1.057775,0.15494 -1.442415,0.46478 -0.373963,0.30986 -0.560942,0.7319 -0.560939,1.26612 -3e-6,0.20301 0.02671,0.40068 0.08013,0.59299 0.0641,0.18164 0.165607,0.36862 0.30451,0.56094 0.138895,0.19233 0.352586,0.34725 0.641073,0.46478 0.288479,0.10685 0.641069,0.16027 1.057771,0.16027 l 2.099521,0 0,-1.53858 1.5546,0 0,1.53858 1.50652,0 0,1.3783 -1.50652,0 0,1.50652 c -10e-6,1.2501 -0.34726,2.22239 -1.04174,2.91689 -0.69451,0.69449 -1.650777,1.04174 -2.86881,1.04174 -1.16462,0 -2.110203,-0.32053 -2.836749,-0.96161 -0.726551,-0.64107 -1.089826,-1.44241 -1.089825,-2.40402 m 1.61871,-0.0801 c -3e-6,0.5556 0.213688,1.02572 0.641073,1.41036 0.427379,0.38465 0.982975,0.57697 1.666791,0.57697 0.747913,0 1.324878,-0.20835 1.7309,-0.62505 0.41669,-0.42738 0.62504,-1.07379 0.62505,-1.93924 l 0,-1.44242 -2.163628,0 c -0.801346,10e-6 -1.42105,0.1763 -1.859113,0.52889 -0.427385,0.35259 -0.641076,0.84942 -0.641073,1.49049"
           style="font-size:16.02683066999999895px;line-height:109.00000334000000635%;fill:#ffffff;font-family:Museo 500;-inkscape-font-specification:Museo 500"
           id="path6620"
           inkscape:connector-curvature="0" />
        <path
           d="m 109.37854,-911.95927 c 0,-1.28214 0.34191,-2.30786 1.02572,-3.07715 0.68381,-0.77996 1.56528,-1.16995 2.64443,-1.16996 0.35258,10e-6 0.67846,0.0427 0.97763,0.12822 0.29916,0.0855 0.53422,0.19233 0.70518,0.32053 0.18163,0.12823 0.33656,0.25644 0.46478,0.38465 0.13889,0.12822 0.23505,0.23506 0.28848,0.32053 l 0.0641,0.12822 0.0321,0 c -0.0214,-0.16026 -0.0321,-0.3419 -0.0321,-0.54491 l 0,-3.75028 1.5546,0 0,11.31494 -1.47446,0 0,-0.76929 0.016,-0.54491 -0.0321,0 c -0.0214,0.0427 -0.0534,0.0962 -0.0962,0.16027 -0.0321,0.0641 -0.12288,0.18698 -0.27246,0.36862 -0.1389,0.17095 -0.30451,0.32587 -0.49683,0.46477 -0.18164,0.12822 -0.43273,0.24575 -0.75326,0.35259 -0.32054,0.10685 -0.66779,0.16027 -1.04174,0.16027 -1.08983,0 -1.96062,-0.38998 -2.61238,-1.16996 -0.64107,-0.77997 -0.96161,-1.80568 -0.96161,-3.07715 m 1.58666,0 c 0,0.87614 0.20834,1.58132 0.62504,2.11554 0.42738,0.52355 0.98298,0.78532 1.6668,0.78532 0.66243,0 1.21803,-0.2404 1.66679,-0.72121 0.44874,-0.49149 0.67312,-1.22338 0.67312,-2.19567 0,-0.77997 -0.20301,-1.4531 -0.60902,-2.01939 -0.39533,-0.57695 -0.95627,-0.86544 -1.68281,-0.86544 -0.66245,0 -1.21805,0.26177 -1.66679,0.78531 -0.44876,0.51286 -0.67313,1.21804 -0.67313,2.11554"
           style="font-size:16.02683066999999895px;line-height:109.00000334000000635%;fill:#ffffff;font-family:Museo 500;-inkscape-font-specification:Museo 500"
           id="path6622"
           inkscape:connector-curvature="0" />
        <path
           d="m 118.98763,-911.95927 c 0,-1.27145 0.3793,-2.29717 1.1379,-3.07715 0.76929,-0.77996 1.74158,-1.16995 2.91689,-1.16996 1.1005,10e-6 1.96061,0.35794 2.58032,1.0738 0.61969,0.71587 0.92954,1.62406 0.92955,2.72456 l -0.0481,0.67313 -5.9139,0 c 0.0427,0.85476 0.32588,1.51721 0.84942,1.98732 0.53423,0.45944 1.18064,0.68916 1.93925,0.68916 0.41669,0 0.8227,-0.0801 1.21804,-0.2404 0.40601,-0.16027 0.70517,-0.3152 0.8975,-0.46478 l 0.28848,-0.2404 0.64108,1.1379 c -0.0855,0.0855 -0.2137,0.19232 -0.38465,0.32054 -0.17096,0.12821 -0.52889,0.29916 -1.07379,0.51286 -0.54492,0.21369 -1.10586,0.32053 -1.68282,0.32053 -1.26078,0 -2.29184,-0.40067 -3.09318,-1.20201 -0.80134,-0.81202 -1.20201,-1.82706 -1.20201,-3.0451 m 1.65076,-0.94558 4.32725,0 c -0.0214,-0.67312 -0.21904,-1.18598 -0.593,-1.53858 -0.36328,-0.35258 -0.81737,-0.52888 -1.36228,-0.52888 -0.60902,0 -1.13256,0.18164 -1.57063,0.54491 -0.42738,0.36328 -0.6945,0.8708 -0.80134,1.52255"
           style="font-size:16.02683066999999895px;line-height:109.00000334000000635%;fill:#ffffff;font-family:Museo 500;-inkscape-font-specification:Museo 500"
           id="path6624"
           inkscape:connector-curvature="0" />
        <path
           d="m 127.78135,-908.89814 0.75326,-1.10585 c 0.0641,0.0748 0.16027,0.16561 0.28849,0.27245 0.12821,0.0962 0.39532,0.23506 0.80134,0.4167 0.40601,0.17095 0.81736,0.25643 1.23406,0.25643 0.36327,0 0.67847,-0.0908 0.94559,-0.27246 0.26711,-0.18163 0.40066,-0.42738 0.40067,-0.73723 -1e-5,-0.26711 -0.14425,-0.50217 -0.43273,-0.70518 -0.28848,-0.20301 -0.63573,-0.3793 -1.04174,-0.52889 -0.40602,-0.16026 -0.81203,-0.33122 -1.21804,-0.51286 -0.40601,-0.19231 -0.75326,-0.46477 -1.04174,-0.81737 -0.28849,-0.35258 -0.43273,-0.77462 -0.43273,-1.26611 0,-0.71586 0.2778,-1.2768 0.8334,-1.68282 0.55559,-0.41669 1.25543,-0.62504 2.09951,-0.62505 0.52354,10e-6 1.00434,0.0748 1.44242,0.22438 0.43806,0.14959 0.74257,0.29917 0.91353,0.44875 l 0.25642,0.22437 -0.62504,1.16996 c -0.0534,-0.0534 -0.13356,-0.11752 -0.2404,-0.19232 -0.0962,-0.0855 -0.32055,-0.19231 -0.67313,-0.32054 -0.34191,-0.13889 -0.70519,-0.20834 -1.08983,-0.20834 -0.37396,0 -0.68915,0.0855 -0.94558,0.25642 -0.25643,0.16028 -0.38464,0.40602 -0.38464,0.73724 0,0.26712 0.14424,0.49684 0.43272,0.68915 0.28848,0.19233 0.63573,0.36862 1.04175,0.52889 0.406,0.14959 0.81202,0.32054 1.21804,0.51286 0.406,0.18164 0.75325,0.44875 1.04174,0.80134 0.28848,0.35259 0.43272,0.77463 0.43272,1.26612 0,0.68381 -0.27246,1.25009 -0.81736,1.69884 -0.53424,0.43807 -1.23942,0.6571 -2.11555,0.6571 -0.58765,0 -1.1379,-0.0962 -1.65076,-0.28848 -0.51286,-0.20301 -0.87613,-0.40601 -1.08982,-0.60902 l -0.33657,-0.28848"
           style="font-size:16.02683066999999895px;line-height:109.00000334000000635%;fill:#ffffff;font-family:Museo 500;-inkscape-font-specification:Museo 500"
           id="path6626"
           inkscape:connector-curvature="0" />
        <path
           d="m 135.59068,-917.63277 0,-1.58665 1.57063,0 0,1.58665 -1.57063,0 m 0.016,9.72829 0,-8.10958 1.55461,0 0,8.10958 -1.55461,0"
           style="font-size:16.02683066999999895px;line-height:109.00000334000000635%;fill:#ffffff;font-family:Museo 500;-inkscape-font-specification:Museo 500"
           id="path6628"
           inkscape:connector-curvature="0" />
        <path
           d="m 140.30331,-906.43001 c 0.67313,0.36327 1.4157,0.54491 2.22773,0.54491 0.76929,0 1.38899,-0.18698 1.85912,-0.56094 0.47011,-0.36327 0.70517,-0.9349 0.70518,-1.71487 l 0,-0.59299 0.016,-0.51286 -0.032,0 c -0.50218,0.84408 -1.30352,1.26612 -2.40403,1.26612 -1.10051,0 -1.98198,-0.38999 -2.64442,-1.16996 -0.65176,-0.79065 -0.97764,-1.78432 -0.97764,-2.98099 0,-1.19666 0.31519,-2.16896 0.94558,-2.91688 0.63039,-0.7586 1.49584,-1.1379 2.59635,-1.13791 0.36327,10e-6 0.69983,0.0427 1.00969,0.12822 0.30985,0.0748 0.55559,0.1763 0.73723,0.30451 0.18164,0.11753 0.33656,0.23506 0.46478,0.35259 0.12821,0.11753 0.21369,0.21904 0.25643,0.30451 l 0.0801,0.11218 0.032,0 c -0.0107,-0.0748 -0.016,-0.16026 -0.016,-0.25643 l 0,-0.75326 1.4905,0 0,7.77302 c -1e-5,0.64107 -0.11754,1.20735 -0.35259,1.69884 -0.22439,0.49149 -0.53424,0.87613 -0.92956,1.15393 -0.39533,0.28848 -0.82806,0.50217 -1.29817,0.64108 -0.47013,0.13889 -0.9723,0.20834 -1.50652,0.20834 -0.9723,0 -1.89651,-0.22437 -2.77264,-0.67312 l 0.51285,-1.21804 m 2.67648,-2.91688 c 0.63039,0 1.14325,-0.21904 1.53858,-0.6571 0.40601,-0.43807 0.60901,-1.14859 0.60902,-2.13157 -1e-5,-1.81637 -0.76395,-2.72456 -2.29184,-2.72456 -0.6945,0 -1.23941,0.2404 -1.63473,0.7212 -0.38465,0.47013 -0.57697,1.12189 -0.57697,1.95528 0,0.85476 0.20835,1.54392 0.62505,2.06746 0.42738,0.51286 1.00434,0.76929 1.73089,0.76929"
           style="font-size:16.02683066999999895px;line-height:109.00000334000000635%;fill:#ffffff;font-family:Museo 500;-inkscape-font-specification:Museo 500"
           id="path6630"
           inkscape:connector-curvature="0" />
        <path
           d="m 149.09804,-907.90448 0,-8.10958 1.50652,0 0,1.0738 -0.0321,0.59299 0.0321,0 c 0.21369,-0.45942 0.57696,-0.88146 1.08982,-1.26612 0.51286,-0.39532 1.16461,-0.59298 1.95528,-0.59299 1.8591,10e-6 2.78866,1.03641 2.78866,3.10921 l 0,5.19269 -1.5546,0 0,-4.8401 c 0,-0.65176 -0.10685,-1.15393 -0.32053,-1.50652 -0.2137,-0.35259 -0.61971,-0.52888 -1.21804,-0.52889 -0.60903,10e-6 -1.1486,0.18699 -1.61871,0.56094 -0.45944,0.36328 -0.77464,0.83874 -0.94559,1.42639 -0.0855,0.28848 -0.12821,0.65176 -0.12821,1.08982 l 0,3.79836 -1.5546,0"
           style="font-size:16.02683066999999895px;line-height:109.00000334000000635%;fill:#ffffff;font-family:Museo 500;-inkscape-font-specification:Museo 500"
           id="path6632"
           inkscape:connector-curvature="0" />
        <path
           d="m 162.2453,-908.89814 0.75326,-1.10585 c 0.0641,0.0748 0.16026,0.16561 0.28848,0.27245 0.12821,0.0962 0.39533,0.23506 0.80134,0.4167 0.40601,0.17095 0.81737,0.25643 1.23407,0.25643 0.36327,0 0.67846,-0.0908 0.94558,-0.27246 0.26711,-0.18163 0.40067,-0.42738 0.40067,-0.73723 0,-0.26711 -0.14425,-0.50217 -0.43272,-0.70518 -0.28849,-0.20301 -0.63574,-0.3793 -1.04175,-0.52889 -0.40601,-0.16026 -0.81203,-0.33122 -1.21804,-0.51286 -0.40601,-0.19231 -0.75326,-0.46477 -1.04174,-0.81737 -0.28848,-0.35258 -0.43273,-0.77462 -0.43272,-1.26611 -1e-5,-0.71586 0.27779,-1.2768 0.83339,-1.68282 0.55559,-0.41669 1.25543,-0.62504 2.09952,-0.62505 0.52353,10e-6 1.00434,0.0748 1.44241,0.22438 0.43806,0.14959 0.74257,0.29917 0.91353,0.44875 l 0.25643,0.22437 -0.62505,1.16996 c -0.0534,-0.0534 -0.13356,-0.11752 -0.2404,-0.19232 -0.0962,-0.0855 -0.32054,-0.19231 -0.67313,-0.32054 -0.34191,-0.13889 -0.70518,-0.20834 -1.08982,-0.20834 -0.37396,0 -0.68916,0.0855 -0.94558,0.25642 -0.25644,0.16028 -0.38465,0.40602 -0.38465,0.73724 0,0.26712 0.14424,0.49684 0.43273,0.68915 0.28848,0.19233 0.63572,0.36862 1.04174,0.52889 0.40601,0.14959 0.81202,0.32054 1.21804,0.51286 0.40601,0.18164 0.75325,0.44875 1.04174,0.80134 0.28848,0.35259 0.43272,0.77463 0.43273,1.26612 -1e-5,0.68381 -0.27247,1.25009 -0.81737,1.69884 -0.53423,0.43807 -1.23941,0.6571 -2.11554,0.6571 -0.58766,0 -1.13791,-0.0962 -1.65077,-0.28848 -0.51286,-0.20301 -0.87613,-0.40601 -1.08982,-0.60902 l -0.33656,-0.28848"
           style="font-size:16.02683066999999895px;line-height:109.00000334000000635%;fill:#ffffff;font-family:Museo 500;-inkscape-font-specification:Museo 500"
           id="path6634"
           inkscape:connector-curvature="0" />
        <path
           d="m 170.40721,-910.86944 0,-3.78234 -1.05777,0 0,-1.25009 1.10585,0 0,-2.33992 1.50652,0 0,2.33992 1.95528,0 0,1.25009 -1.95528,0 0,3.60604 c 0,0.30986 0.0427,0.58231 0.12822,0.81737 0.0855,0.22438 0.18697,0.40067 0.30451,0.52888 0.12821,0.12822 0.27245,0.22972 0.43272,0.30451 0.17095,0.0748 0.32053,0.12288 0.44875,0.14425 0.1389,0.0214 0.2778,0.0321 0.4167,0.0321 l 0.36862,-0.0321 0,1.3783 c -0.14959,0.0214 -0.33123,0.0321 -0.54491,0.0321 -0.25644,0 -0.50218,-0.016 -0.73724,-0.0481 -0.23506,-0.0321 -0.50218,-0.11219 -0.80134,-0.24041 -0.29917,-0.12821 -0.56094,-0.29382 -0.78531,-0.49683 -0.2137,-0.21369 -0.40068,-0.51285 -0.56094,-0.8975 -0.14959,-0.38464 -0.22438,-0.83339 -0.22438,-1.34625"
           style="font-size:16.02683066999999895px;line-height:109.00000334000000635%;fill:#ffffff;font-family:Museo 500;-inkscape-font-specification:Museo 500"
           id="path6636"
           inkscape:connector-curvature="0" />
        <path
           d="m 175.6868,-910.82136 0,-5.1927 1.5546,0 0,4.84011 c 0,0.65176 0.1015,1.15393 0.30451,1.50652 0.21369,0.34191 0.6197,0.51286 1.21804,0.51286 0.79065,0 1.42638,-0.29917 1.90719,-0.89751 0.4808,-0.59833 0.7212,-1.31953 0.72121,-2.16362 l 0,-3.79836 1.5546,0 0,8.10958 -1.50652,0 0,-1.0738 0.0321,-0.59299 -0.0321,0 c -0.20301,0.47012 -0.57163,0.8975 -1.10585,1.28215 -0.52355,0.38464 -1.14859,0.57696 -1.87514,0.57696 -1.84843,0 -2.77264,-1.0364 -2.77264,-3.1092"
           style="font-size:16.02683066999999895px;line-height:109.00000334000000635%;fill:#ffffff;font-family:Museo 500;-inkscape-font-specification:Museo 500"
           id="path6638"
           inkscape:connector-curvature="0" />
        <path
           d="m 184.84864,-911.95927 c 0,-1.28214 0.3419,-2.30786 1.02572,-3.07715 0.6838,-0.77996 1.56528,-1.16995 2.64442,-1.16996 0.35259,10e-6 0.67847,0.0427 0.97764,0.12822 0.29916,0.0855 0.53422,0.19233 0.70518,0.32053 0.18163,0.12823 0.33656,0.25644 0.46478,0.38465 0.13889,0.12822 0.23505,0.23506 0.28848,0.32053 l 0.0641,0.12822 0.032,0 c -0.0214,-0.16026 -0.0321,-0.3419 -0.032,-0.54491 l 0,-3.75028 1.5546,0 0,11.31494 -1.47447,0 0,-0.76929 0.016,-0.54491 -0.032,0 c -0.0214,0.0427 -0.0534,0.0962 -0.0962,0.16027 -0.0321,0.0641 -0.12287,0.18698 -0.27245,0.36862 -0.13891,0.17095 -0.30452,0.32587 -0.49683,0.46477 -0.18165,0.12822 -0.43273,0.24575 -0.75326,0.35259 -0.32055,0.10685 -0.66779,0.16027 -1.04175,0.16027 -1.08983,0 -1.96062,-0.38998 -2.61237,-1.16996 -0.64108,-0.77997 -0.96161,-1.80568 -0.96161,-3.07715 m 1.58665,0 c 0,0.87614 0.20835,1.58132 0.62505,2.11554 0.42738,0.52355 0.98298,0.78532 1.66679,0.78532 0.66244,0 1.21803,-0.2404 1.66679,-0.72121 0.44875,-0.49149 0.67312,-1.22338 0.67313,-2.19567 -10e-6,-0.77997 -0.20301,-1.4531 -0.60902,-2.01939 -0.39534,-0.57695 -0.95627,-0.86544 -1.68282,-0.86544 -0.66244,0 -1.21804,0.26177 -1.66679,0.78531 -0.44875,0.51286 -0.67313,1.21804 -0.67313,2.11554"
           style="font-size:16.02683066999999895px;line-height:109.00000334000000635%;fill:#ffffff;font-family:Museo 500;-inkscape-font-specification:Museo 500"
           id="path6640"
           inkscape:connector-curvature="0" />
        <path
           d="m 195.00263,-917.63277 0,-1.58665 1.57063,0 0,1.58665 -1.57063,0 m 0.016,9.72829 0,-8.10958 1.5546,0 0,8.10958 -1.5546,0"
           style="font-size:16.02683066999999895px;line-height:109.00000334000000635%;fill:#ffffff;font-family:Museo 500;-inkscape-font-specification:Museo 500"
           id="path6642"
           inkscape:connector-curvature="0" />
        <path
           d="m 199.6672,-908.9302 c -0.84408,-0.81202 -1.26612,-1.82705 -1.26612,-3.04509 0,-1.21804 0.42204,-2.22773 1.26612,-3.02908 0.84407,-0.80133 1.88048,-1.202 3.1092,-1.20201 1.22872,10e-6 2.26512,0.40068 3.10921,1.20201 0.84407,0.80135 1.26611,1.81104 1.26612,3.02908 -10e-6,1.21804 -0.42739,2.23307 -1.28215,3.04509 -0.84409,0.81203 -1.87514,1.21804 -3.09318,1.21804 -1.21804,0 -2.25444,-0.40601 -3.1092,-1.21804 m 1.1379,-5.11256 c -0.54491,0.54492 -0.81737,1.23407 -0.81737,2.06747 0,0.83339 0.27246,1.52789 0.81737,2.08348 0.54491,0.5556 1.20201,0.8334 1.9713,0.8334 0.77997,0 1.43707,-0.27246 1.9713,-0.81737 0.54491,-0.55559 0.81736,-1.25543 0.81737,-2.09951 -1e-5,-0.8334 -0.27246,-1.52255 -0.81737,-2.06747 -0.53423,-0.5449 -1.19133,-0.81736 -1.9713,-0.81736 -0.76929,0 -1.42639,0.27246 -1.9713,0.81736"
           style="font-size:16.02683066999999895px;line-height:109.00000334000000635%;fill:#ffffff;font-family:Museo 500;-inkscape-font-specification:Museo 500"
           id="path6644"
           inkscape:connector-curvature="0" />
        <path
           d="m 208.32243,-908.89814 0.75326,-1.10585 c 0.0641,0.0748 0.16027,0.16561 0.28848,0.27245 0.12822,0.0962 0.39533,0.23506 0.80134,0.4167 0.40601,0.17095 0.81737,0.25643 1.23407,0.25643 0.36327,0 0.67847,-0.0908 0.94558,-0.27246 0.26711,-0.18163 0.40067,-0.42738 0.40067,-0.73723 0,-0.26711 -0.14424,-0.50217 -0.43272,-0.70518 -0.28849,-0.20301 -0.63574,-0.3793 -1.04174,-0.52889 -0.40602,-0.16026 -0.81203,-0.33122 -1.21804,-0.51286 -0.40602,-0.19231 -0.75327,-0.46477 -1.04175,-0.81737 -0.28848,-0.35258 -0.43272,-0.77462 -0.43272,-1.26611 0,-0.71586 0.2778,-1.2768 0.83339,-1.68282 0.5556,-0.41669 1.25544,-0.62504 2.09952,-0.62505 0.52354,10e-6 1.00434,0.0748 1.44241,0.22438 0.43806,0.14959 0.74257,0.29917 0.91353,0.44875 l 0.25643,0.22437 -0.62504,1.16996 c -0.0534,-0.0534 -0.13357,-0.11752 -0.24041,-0.19232 -0.0962,-0.0855 -0.32054,-0.19231 -0.67312,-0.32054 -0.34191,-0.13889 -0.70519,-0.20834 -1.08983,-0.20834 -0.37396,0 -0.68916,0.0855 -0.94558,0.25642 -0.25643,0.16028 -0.38465,0.40602 -0.38465,0.73724 0,0.26712 0.14424,0.49684 0.43273,0.68915 0.28848,0.19233 0.63573,0.36862 1.04174,0.52889 0.40601,0.14959 0.81202,0.32054 1.21804,0.51286 0.40601,0.18164 0.75326,0.44875 1.04175,0.80134 0.28847,0.35259 0.43271,0.77463 0.43272,1.26612 -1e-5,0.68381 -0.27246,1.25009 -0.81737,1.69884 -0.53423,0.43807 -1.23941,0.6571 -2.11554,0.6571 -0.58765,0 -1.13791,-0.0962 -1.65076,-0.28848 -0.51286,-0.20301 -0.87614,-0.40601 -1.08983,-0.60902 l -0.33656,-0.28848"
           style="font-size:16.02683066999999895px;line-height:109.00000334000000635%;fill:#ffffff;font-family:Museo 500;-inkscape-font-specification:Museo 500"
           id="path6646"
           inkscape:connector-curvature="0" />
      </g>
    </g>
  </g>
</svg>
